
<svg xmlns="http://www.w3.org/2000/svg" version="1.1" xmlns:xlink="http://www.w3.org/1999/xlink" preserveAspectRatio="none" x="0px" y="0px" width="278px" height="216px" viewBox="0 0 278 216">
<defs>
<g id="Symbol_4_1_Layer0_0_FILL">
<path fill="#000000" stroke="none" d="
M 206.45 69.3
L 206.45 61.3 73.45 61.3 73.45 69.3 132.6 69.3 137.6 75
Q 142.65 81.85 142.65 87.3 142.65 95.2 136.65 100.05 135.65 101 134.1 101.7
L 130.6 102.8 112.7 102.8 116.6 111.2 131.8 111.2
Q 138.95 111.2 142.65 117.85 145.15 121 145.15 124.35 146.2 126.55 146.2 131.95
L 145.15 139.3 143.25 144.35
Q 139.15 150.25 129.65 150.25 123.45 150.25 118.5 146.6 113.55 143 108.3 135.4 100.3 124.05 96.8 107.75
L 93.35 92.75 84.95 99.2 85.55 104.05 88.85 115
Q 93.9 131.3 103.05 143.4 114.7 158.6 130 158.6 145.6 158.6 152.4 147.1 156.5 140.05 156.5 128.8
L 156.5 124.55 161.5 117.1
Q 168.75 109.85 174.45 109.85 181.15 109.85 184.2 114.7
L 186 119 186.55 124.15
Q 186.55 134.6 178.4 145.2
L 170.2 155.1 179.35 160.5
Q 185.4 154.35 191.05 142.8 192.75 139.3 193.35 137.75 194 136.15 194.85 133.2 195.7 130.15 195.9 128.55 196.1 127 196.1 124.45 196.1 115.7 189.9 109 183.7 102.25 175.05 102.25
L 170.95 102.8 167.05 104.15 163.05 106.25 158.95 109.2 152.55 115.75 151.8 115.1 147.55 110.45 141.7 106.55
Q 152.55 99.95 152.55 88.25
L 151.6 81.8
Q 150.3 77.3 148.5 74.9
L 144.65 69.3 206.45 69.3 Z"/>
</g>
</defs>

<g transform="matrix( 1, 0, 0, 1, -0.6,-1.45) ">
<g transform="matrix( 1, 0, 0, 1, 0,0) ">
<use xlink:href="#Symbol_4_1_Layer0_0_FILL"/>
</g>
</g>
</svg>
