
<svg xmlns="http://www.w3.org/2000/svg" version="1.1" xmlns:xlink="http://www.w3.org/1999/xlink" preserveAspectRatio="none" x="0px" y="0px" width="686px" height="560px" viewBox="0 0 686 560">
<defs>
<g id="Duplicate_Items_Folder_Symbol_4_copy_2_0_Layer0_0_FILL">
<path fill="#0A0A0A" stroke="none" d="
M 57.95 -50.9
L 57.95 -12.8 -13.7 -12.5
Q -11.05 -10.45 -9.15 -7.35
L -1.4 4.05
Q 3.75 10.65 7.4 21.8 10.05 30.4 10.05 37.3 10.05 46.95 5.05 53.7 0.05 60.45 -8.85 60.45 -25.15 60.45 -39.8 39.5 -51.8 22.65 -58.4 2.3
L -63.8 -14.55 -64.4 -18.5 -64.4 -20.85 -77.3 -11.2 -76.1 -4.6 -70.4 10.95
Q -60.85 35.85 -48.55 50.95 -30.25 72.15 -10.2 72.15 -1.7 72.15 4.9 69.8 18.4 63.8 22.65 50.95 24.7 45.5 24.8 42.45 24.95 39.5 24.95 36.7
L 23.8 28.65 20.7 18.1 15.45 4.95
Q 13.25 -0.2 11.5 -1.05
L 57.95 -1.05 57.95 91.65 73.9 91.65 73.9 -50.9 98.5 -50.9 98.5 -63.2 -95 -63.2 -95 -50.9 57.95 -50.9 Z"/>
</g>
</defs>

<g transform="matrix( 1.67596435546875, 0, 0, 1.67596435546875, 341.7,283.05) ">
<g transform="matrix( 1, 0, 0, 1, 0,0) ">
<use xlink:href="#Duplicate_Items_Folder_Symbol_4_copy_2_0_Layer0_0_FILL"/>
</g>
</g>
</svg>
