
<svg xmlns="http://www.w3.org/2000/svg" version="1.1" xmlns:xlink="http://www.w3.org/1999/xlink" preserveAspectRatio="none" x="0px" y="0px" width="362px" height="280px" viewBox="0 0 362 280">
<defs>
<g id="Symbol_4_2_Layer0_0_FILL">
<path fill="#0E0E0E" stroke="none" d="
M 54.85 -55.35
L 73.15 -55.35 73.15 -65.8 17.2 -65.8 17.2 -55.35 41.9 -55.35 41.9 -3.4 38.5 -2.05 29.65 0.2 17.85 0.2 9.25 -3.15 -5.8 -11 -8.2 -11.5 -9.45 -11.25
Q 5 -19.45 5 -35.55 5 -47.85 -2.85 -56.35 -12.3 -65.8 -24.5 -65.8 -40.55 -65.8 -53.15 -55.45
L -61.5 -48.5
Q -63.35 -46.75 -63.75 -46.25 -64.1 -45.75 -64.35 -44.85
L -54.4 -36.9 -45.2 -46.25 -39.85 -50.35
Q -32 -55.35 -25.5 -55.35 -21.25 -55.35 -16.65 -53.6 -9.45 -50.25 -7.95 -43.25 -6.95 -40.5 -6.95 -35.55 -6.95 -30.2 -9.8 -25.3 -16.15 -15.6 -27.85 -12.5 -29.1 -12.25 -32.75 -11.5 -35.7 -11.5 -38.85 -11.5
L -34.45 -2.05 -31.75 -2.05
Q -29.35 -3.5 -26.25 -3.5
L -21.9 -3.5
Q -14.55 -3.5 -7.05 0.45 0.3 4.3 2.15 11.3 3.65 14.05 3.9 15.9 4.15 17.65 4.15 21.75 4.15 25.75 2.4 30.35 -4.1 44.7 -15.8 44.7 -32.85 44.7 -48.4 21.4
L -54.75 11.9 -62.75 -2.05 -73.2 4.8
Q -73.2 11.65 -56.65 31.1 -46.8 42.95 -36.85 48.8 -31.25 52.05 -26.6 53.4 -21.9 54.65 -16.55 54.65
L -9.45 54.65
Q 16.85 49.55 16.85 22.4
L 16.85 16.65 15.35 10.8 13.5 6.3 16.35 7.7 24.3 9.95 34.3 9.95 41.9 7.95 41.9 65.85 54.85 65.85 54.85 -55.35 Z"/>
</g>
</defs>

<g transform="matrix( 1, 0, 0, 1, 177.25,137.4) ">
<g transform="matrix( 1, 0, 0, 1, 0,0) ">
<use xlink:href="#Symbol_4_2_Layer0_0_FILL"/>
</g>
</g>
</svg>
