
<svg xmlns="http://www.w3.org/2000/svg" version="1.1" xmlns:xlink="http://www.w3.org/1999/xlink" preserveAspectRatio="none" x="0px" y="0px" width="362px" height="280px" viewBox="0 0 362 280">
<defs>
<g id="Symbol_4_0_Layer0_0_FILL">
<path fill="#0E0E0E" stroke="none" d="
M 80.4 -55.35
L 80.4 -65.8 -80.45 -65.8 -80.45 -55.35 -10.1 -55.35 -10.1 -23.2
Q -11.6 -14 -15.55 -10.35 -19.55 -6.65 -27.9 -6.65 -38.35 -6.65 -42.45 -13
L -52.95 -30.8 -63.4 -23.2 -52.95 -4.75 -45.45 7.45 -37.6 19.15
Q -25.4 37.6 -12.85 52.05 -2.35 64.6 1.5 65.85
L 10.85 57.15 5.25 51.55 -7.95 37.1 -15.2 28.1 -33.5 1.85
Q -32.5 2.6 -28.9 3.1
L -24.05 3.1
Q -18.95 3.1 -13.8 1.35 3.5 -5.5 3.5 -22.1
L 3.5 -55.35 42.05 -55.35 42.05 65.85 55.6 65.85 55.6 -55.35 80.4 -55.35 Z"/>
</g>
</defs>

<g transform="matrix( 1, 0, 0, 1, 177.2,138.1) ">
<g transform="matrix( 1, 0, 0, 1, 0,0) ">
<use xlink:href="#Symbol_4_0_Layer0_0_FILL"/>
</g>
</g>
</svg>
