
<svg xmlns="http://www.w3.org/2000/svg" version="1.1" xmlns:xlink="http://www.w3.org/1999/xlink" preserveAspectRatio="none" x="0px" y="0px" width="965px" height="415px" viewBox="0 0 965 415">
<defs>
<g id="Layer2_0_FILL">
<path fill="#0E0E0E" stroke="none" d="
M 200.85 164.45
Q 201.85 167.25 201.85 172.25 201.85 177.7 198.95 182.6 192.55 192.4 180.7 195.55 179.45 195.8 175.8 196.6 172.75 196.6 169.6 196.6
L 174.05 206.15 176.8 206.15
Q 179.2 204.65 182.35 204.65
L 186.75 204.65
Q 194.2 204.65 201.75 208.65 209.2 212.55 211.05 219.65 212.6 222.4 212.85 224.3 213.1 226.05 213.1 230.2 213.1 234.25 211.3 238.9 204.75 253.4 192.95 253.4 175.65 253.4 159.9 229.85
L 153.5 220.25 145.45 206.15 134.85 213.1
Q 134.85 220 151.6 239.65 161.55 251.6 171.65 257.55 177.3 260.8 181.95 262.2 186.75 263.45 192.15 263.45
L 199.35 263.45
Q 225.95 258.3 225.95 230.85
L 225.95 225.05 224.4 219.1 222.55 214.6 225.45 215.95 233.5 218.25 243.55 218.25 251.25 216.25 251.25 274.8 264.35 274.8 264.35 152.25 282.85 152.25 282.85 141.65 226.3 141.65 226.3 152.25 251.25 152.25 251.25 204.75 247.85 206.15 238.9 208.4 226.95 208.4 218.25 205 203 197.1 200.6 196.6 199.35 196.85
Q 213.95 188.5 213.95 172.25 213.95 159.8 206.05 151.25 196.45 141.65 184.1 141.65 167.85 141.65 155.15 152.1
L 146.7 159.15
Q 144.8 160.95 144.45 161.45 144.05 161.95 143.8 162.8
L 153.9 170.9 163.2 161.45 168.6 157.25
Q 176.55 152.25 183.1 152.25 187.4 152.25 192.05 154 199.35 157.4 200.85 164.45 Z"/>
</g>
</defs>

<g transform="matrix( 1, 0, 0, 1, 0,0) ">
<use xlink:href="#Layer2_0_FILL"/>
</g>
</svg>
