
<svg xmlns="http://www.w3.org/2000/svg" version="1.1" xmlns:xlink="http://www.w3.org/1999/xlink" preserveAspectRatio="none" x="0px" y="0px" width="252px" height="287px" viewBox="0 0 252 287">
<defs>
<g id="Layer0_0_FILL">
<path fill="#E5CE84" stroke="none" d="
M 112.65 -148.05
Q 112.65 -158.05 102.65 -158.05
L -168.65 -158.05
Q -178.65 -158.05 -178.65 -148.05
L -178.65 158.4
Q -178.65 168.4 -168.65 168.4
L 102.65 168.4
Q 112.65 168.4 112.65 158.4
L 112.65 -148.05 Z"/>
</g>

<path id="Layer0_0_1_STROKES" stroke="#C733FF" stroke-width="8" stroke-linejoin="round" stroke-linecap="round" fill="none" d="
M 12.389746093749977 4.023870849609352
L 239.70947265625 4.023870849609352
Q 248.08837890625 4.023870849609352 248.08837890625 12.579779052734366
L 248.08837890625 274.7755859375
Q 248.08837890625 283.331494140625 239.70947265625 283.331494140625
L 12.389746093749977 283.331494140625
Q 4.010839843749977 283.331494140625 4.010839843749977 274.7755859375
L 4.010839843749977 12.579779052734366
Q 4.010839843749977 4.023870849609352 12.389746093749977 4.023870849609352 Z"/>
</defs>

<g transform="matrix( 0.837890625, 0, 0, 0.8555908203125, 153.7,139.25) ">
<use xlink:href="#Layer0_0_FILL"/>

<use xlink:href="#Layer0_0_1_STROKES" transform="matrix( 1.1934661865234375, 0, 0, 1.1687774658203125, -183.4,-162.75) "/>
</g>
</svg>
