
<svg xmlns="http://www.w3.org/2000/svg" version="1.1" xmlns:xlink="http://www.w3.org/1999/xlink" preserveAspectRatio="none" x="0px" y="0px" width="965px" height="415px" viewBox="0 0 965 415">
<defs>
<g id="Layer1_0_FILL">
<path fill="#0E0E0E" stroke="none" d="
M 827.9 152.25
L 827.9 141.65 642.7 141.65 642.7 152.25 733.6 152.25 733.6 186.9 664.35 186.9 662.1 187.65
Q 657.95 190.9 657.95 195.45 662.1 203.9 664.35 207.05
L 669.3 212.7 678.85 222.15
Q 680.35 223.3 683 224.55 683.5 224.8 684.5 225.3
L 688.55 225.3
Q 690.2 224.55 690.2 222.9
L 690.2 197.2 733.6 197.2 733.6 274.8 747.35 274.8 747.35 152.25 789.1 152.25 789.1 274.8 802.85 274.8 802.85 152.25 827.9 152.25 Z"/>
</g>
</defs>

<g transform="matrix( 1, 0, 0, 1, 0,0) ">
<use xlink:href="#Layer1_0_FILL"/>
</g>
</svg>
