
<svg xmlns="http://www.w3.org/2000/svg" version="1.1" xmlns:xlink="http://www.w3.org/1999/xlink" preserveAspectRatio="none" x="0px" y="0px" width="1563px" height="799px" viewBox="0 0 1563 799">
<defs>
<g id="Symbol_1_1_Layer1_0_FILL">
<path fill="#000000" stroke="none" d="
M 148.1 -130.15
Q 148.1 -126.35 150.75 -119.45 153.5 -112.45 155.55 -110.4
L 163.05 -113.15
Q 163.05 -145.25 183.7 -145.25 198.5 -145.25 209.6 -132.65 221.95 -118.45 225.75 -91.75
L -273.8 -91.75 -263.25 -72.9 -142.95 -72.9 -143.25 -21.9
Q -150.45 -33.05 -161.3 -39.65 -173.6 -47.1 -189.1 -47.1 -214.75 -47.1 -230 -33.6 -242.6 -22.5 -242.6 -8.4 -242.6 10.2 -225.9 26 -209.2 41.65 -185.15 41.65 -158.05 41.65 -142.95 25.25
L -142.95 72.6 -122.9 84.3 -122.9 -72.9 -13.8 -72.9 -14.4 -17.05
Q -18.35 -22.8 -22.6 -28.05 -27 -33.35 -32.1 -37.55 -37.25 -41.7 -44.25 -43.3 -51.3 -44.75 -59.5 -44.75 -80.75 -44.75 -91.6 -30.7 -98.75 -21.3 -98.75 -11.2 -98.75 8.55 -84.25 22.9 -69.9 37.15 -50.4 37.15 -40.3 37.15 -31.35 32.9 -27.55 31.15 -13.8 22.5
L -12.9 72.6 6.55 84.3 6.55 9
Q 16.8 0.35 27.1 -5.35 37.5 -11.05 43.2 -11.05 50.65 -11.05 55.35 -6.65 60.05 -2.4 60.05 5.5 60.05 15 54.45 27.6 48.9 40.2 40.1 52.2
L 57.25 67.75
Q 75.25 40.2 75.25 22.2 75.25 -3 61.2 -18.25 50.05 -30.25 38.05 -30.25 30.3 -30.25 22.55 -26 16.55 -22.8 6.55 -15
L 6.55 -72.9 141.6 -72.9
Q 141.6 -70.85 142.5 -65.7 142.8 -61.75 142.8 -52.8 142.8 -25.85 141.75 -18.25 140.75 -10.5 138.55 -10.5 137.05 -10.5 128.15 -15.45 119.05 -20.45 117.6 -20.45 113.9 -20.45 111 -16.5 107.9 -12.65 107.9 -8.7 107.9 -5.8 110.7 -0.65 114.5 6.5 123 17.05 134.3 31 152 50.45 169.75 69.95 186 86.8
L 195.2 75.95
Q 181.75 62.45 168.25 49 141 21.3 141 18.95 141 16.75 142.65 15.15 144.25 13.55 151.15 9 155.65 6.35 159.35 -0.65 163.15 -7.7 163.15 -15
L 163.15 -72.9 221.65 -72.9 221.65 72.6 241.4 84.3 241.4 -72.9 272.9 -72.9 262.65 -91.75 236 -91.75
Q 231.15 -127.8 216.2 -146.7 202.45 -164.15 182.65 -164.15 167.6 -164.15 157.9 -154.9 148.1 -145.85 148.1 -130.15
M -217.95 -13.55
Q -213.15 -20.75 -207.3 -23.8
L -177.25 23.05
Q -182.65 25.55 -187.05 26.3 -191.6 27 -197 27 -208.45 27 -215.35 22.2 -224 16.2 -224 3.3 -224 -4.75 -217.95 -13.55
M -197.3 -28.8
Q -188.1 -31.55 -185.15 -32 -182.4 -32.45 -176.65 -32.45 -166.55 -32.45 -159.1 -25.85 -150.45 -18.1 -150.45 -3.9 -150.45 9.9 -167.3 17.95
L -197.3 -28.8
M -75 -19.25
Q -66.4 -26.15 -55.55 -26.15 -41.2 -26.15 -32.25 -20.9 -23.45 -15.6 -13.8 -2.15 -27.25 8.25 -39.7 14.3 -52.3 20.3 -61.55 20.3 -70.9 20.3 -77.2 14.85 -83.5 9.45 -83.5 0.2 -83.5 -12.4 -75 -19.25 Z"/>
</g>
</defs>

<g transform="matrix( 1, 0, 0, 1, 781.5,323.5) ">
<g transform="matrix( 1, 0, 0, 1, 0.45,0) ">
<use xlink:href="#Symbol_1_1_Layer1_0_FILL"/>
</g>
</g>
</svg>
