
<svg xmlns="http://www.w3.org/2000/svg" version="1.1" xmlns:xlink="http://www.w3.org/1999/xlink" preserveAspectRatio="none" x="0px" y="0px" width="278px" height="216px" viewBox="0 0 278 216">
<defs>
<g id="Symbol_4_1_Layer0_0_FILL">
<path fill="#000000" stroke="none" d="
M 114 63.9
L 106.3 63.9 101.9 70.55
Q 98.4 74.65 95.25 77.2
L 87.15 83.7
Q 81.6 87 77.9 88.35
L 77.9 100.15 81.05 99 87.25 96.05 97.05 89.8
Q 99.5 88.05 101.9 85.5
L 101.9 161.95 114 161.95 114 63.9 Z"/>
</g>

<g id="Symbol_4_1_Layer0_1_FILL">
<path fill="#000000" stroke="none" d="
M -125.4 -75.25
Q -125.8 -167.15 -125.45 -179.2
L -172.95 -179.2 -172.95 75.1 -124.9 75.1 -124.9 22.5
Q -124.95 21.6 -124.9 20.7 -125.2 -31.85 -125.4 -75.25 Z"/>
</g>

<g id="Symbol_4_1_Layer0_2_FILL">
<path fill="#000000" stroke="none" d="
M 1.6 75.1
L 1.6 30.2 -124.9 30.2 -124.9 75.1 1.6 75.1 Z"/>
</g>

<g id="Symbol_4_1_Layer0_3_FILL">
<path fill="#000000" stroke="none" d="
M 50.45 -179.6
L 0.85 -179.6 0.85 221.2 50.45 221.2 50.45 -179.6 Z"/>
</g>
</defs>

<g transform="matrix( 1, 0, 0, 1, -0.6,-1.45) ">
<g transform="matrix( 1, 0, 0, 1, 0,0) ">
<use xlink:href="#Symbol_4_1_Layer0_0_FILL"/>
</g>

<g transform="matrix( 0.243377685546875, 0, 0, 0.243377685546875, 182.8,108.1) ">
<use xlink:href="#Symbol_4_1_Layer0_1_FILL"/>
</g>

<g transform="matrix( 0.243377685546875, 0, 0, 0.243377685546875, 182.8,108.1) ">
<use xlink:href="#Symbol_4_1_Layer0_2_FILL"/>
</g>

<g transform="matrix( 0.243377685546875, 0, 0, 0.243377685546875, 182.8,108.1) ">
<use xlink:href="#Symbol_4_1_Layer0_3_FILL"/>
</g>
</g>
</svg>
