
<svg xmlns="http://www.w3.org/2000/svg" version="1.1" xmlns:xlink="http://www.w3.org/1999/xlink" preserveAspectRatio="none" x="0px" y="0px" width="1920px" height="1080px" viewBox="0 0 1920 1080">
<defs>
<g id="Symbol_1_12_Layer1_0_FILL">
<path fill="#FFFFFF" stroke="none" d="
M -41.65 -16.45
L -44.95 -16.45
Q -46.9 -16.45 -48.7 -16.2 -50.65 -15.9 -52.7 -15 -56.45 -13.3 -59.35 -10.4 -65.45 -4.3 -65.45 4 -65.45 8.45 -64 12.4 -62.25 16.05 -58.7 19.15 -55.15 22.25 -51.6 23.55 -48 24.75 -43.7 24.75
L -39.5 24.75
Q -37.2 24.3 -35.4 23.4
L -31.65 21.5
Q -29.6 20 -28.35 18.2
L -28.35 8.05 -29.2 10.1 -53.25 -6.4 -51.05 -8.35 -48.15 -9.75 -44.95 -10.65
Q -44.1 -10.65 -41.65 -10.65
L -37.9 -10.1
Q -35.7 -9.55 -35.1 -8.6
L -36.1 -15.25 -37.3 -15.55 -38.05 -15.85 -41.65 -16.45
M -56.95 -1.55
L -56.3 -2.95 -32.5 13.9 -34.25 15.45 -35.7 16.45
Q -37.05 17.5 -37.75 17.85 -38.45 18.2 -39.65 18.5
L -41.2 19.05 -43.55 19.05
Q -45.75 19.05 -49.05 18.1 -51.85 16.75 -53.9 14.6 -56.15 12.55 -57.15 10 -58.05 7.45 -58.05 4
L -58.05 2.15 -56.95 -1.55
M -398.35 -34.75
L -398.35 -28.8 -364.15 -28.8 -364.15 -3.5 -365.15 -1.45
Q -365.8 -0.45 -367.05 -0.05
L -370.35 0.4
Q -376.35 0.4 -378.95 -4.7
L -383.2 -12.85 -389.5 -8.8 -380.25 7.05 -362.55 32.75
Q -358.2 39.25 -355.6 40.1
L -349.75 35.15 -359.65 24.15 -363.55 19.05 -372.5 5.5
Q -371.4 6.05 -370.45 6.05
L -368.85 6.2 -367.45 5.95
Q -366.95 5.5 -365.65 5.5
L -362.55 4.65
Q -358.6 2.85 -357.65 -0.1
L -356.8 -3.3 -356.8 -28.8 -329.55 -28.8 -329.55 -3.5 -355.05 -3.5 -349.95 2.45 -329.55 2.45 -329.55 40.1 -321.85 40.1 -321.85 -28.8 -265.05 -28.8 -265.05 -16.2 -295.65 -16.2 -298.25 -15.75 -300.35 -14.65 -302 -12.65 -302.45 -10.1 -300.95 -4.7
Q -300.1 -2.05 -297.35 1.6
L -292.35 7.3 -295.85 10.8
Q -297.45 12.35 -298.6 14.25 -300.95 18 -300.95 21.55 -300.95 34.85 -282.25 41.3
L -276.8 43.15
Q -270 45.5 -265.55 45.5 -263.55 45.2 -263 44.9
L -260.25 39.7
Q -260.35 39.7 -260.65 39.7 -260.95 39.7 -261.65 39.7
L -264.95 39.7 -277.15 36.65
Q -284.95 34.45 -289.05 30.6 -292.95 26.7 -292.95 22.45 -292.95 19.3 -291.65 16.6 -288 8.15 -274.55 8.15
L -268.65 8.75
Q -260.25 9.8 -260.25 17.3 -260.65 20.9 -262.7 23.1
L -263.15 23.55 -263.7 23.8 -264.35 24.25 -265.05 24.6 -259.65 28.9 -255.55 25.85
Q -253.85 24.1 -253.15 22.2 -252.5 20.2 -252.5 17.3 -252.5 13.95 -254 10.8 -256.9 5.55 -265.05 3.35 -267.75 2.8 -269.7 2.65 -271.7 2.5 -274.05 2.5
L -277.35 2.5 -286.2 4.25 -287.2 3.7 -291.25 -1.4 -291.8 -2.5
Q -293.45 -4.15 -293.7 -5.55
L -294.3 -8.05 -293.7 -9.4
Q -293.15 -10.1 -291.8 -10.1
L -257.3 -10.1 -257.3 -28.8 -233 -28.8 -233 40.1 -225.45 40.1 -225.45 -28.8 -213.25 -28.8 -213.25 -34.6 -227.05 -34.6 -232.25 -43.75 -236.5 -50.25
Q -241.1 -57.3 -247.95 -62 -253.55 -65.9 -258.65 -65.9 -270.55 -65.9 -274.8 -53.55 -275.75 -50.65 -275.9 -49.7 -276.05 -48.6 -276.05 -46.5
L -276.05 -43.15 -275 -40 -273.5 -37.05 -271.75 -34.75 -398.35 -34.75
M -268.2 -50.5
Q -267.05 -54.55 -265.7 -56.6 -263.1 -60.2 -258.4 -60.2 -253.2 -60.2 -246.25 -52.1 -234.55 -38.7 -234.55 -35.15
L -234.7 -34.6 -242.8 -34.6 -242.8 -34.75 -263.25 -34.75 -264.15 -36 -266 -39.7
Q -266.5 -40.55 -266.85 -41.6 -267.2 -42.75 -267.7 -44.3 -268.2 -45.9 -268.2 -47.75
L -268.2 -50.5
M 383 -50.95
L 393 -50.95 393 -60.35 383 -60.35 383 -50.95
M 84.95 -34.75
L 84.95 -28.8 96.3 -28.8 96.3 -1.95
Q 96.3 1.5 97.7 5.9 103.8 18.2 116.4 18.2 122.35 18.2 127.45 14.75
L 131.9 11.2 131.9 40.1 139.6 40.1 139.6 -28.8 196.1 -28.8 196.1 -16.2 165.5 -16.2 162.9 -15.75 160.8 -14.65 159.15 -12.65 158.7 -10.1 160.2 -4.7
Q 161.05 -2.05 163.8 1.6
L 168.8 7.3 165.3 10.8
Q 163.7 12.35 162.55 14.25 160.2 18 160.2 21.55 160.2 34.85 178.9 41.3
L 184.35 43.15
Q 191.15 45.5 195.6 45.5 197.6 45.2 198.15 44.9
L 200.9 39.7
Q 200.8 39.7 200.5 39.7 200.2 39.7 199.5 39.7
L 196.2 39.7 184 36.65
Q 176.2 34.45 172.1 30.6 168.2 26.7 168.2 22.45 168.2 19.3 169.5 16.6 173.15 8.15 186.6 8.15
L 192.5 8.75
Q 200.9 9.8 200.9 17.3 200.5 20.9 198.45 23.1
L 198 23.55 197.45 23.8 196.8 24.25 196.1 24.6 201.5 28.9 205.6 25.85
Q 207.3 24.1 208 22.2 208.65 20.2 208.65 17.3 208.65 13.95 207.15 10.8 204.25 5.55 196.1 3.35 193.4 2.8 191.45 2.65 189.45 2.5 187.1 2.5
L 183.8 2.5 174.95 4.25 173.95 3.7 169.9 -1.4 169.35 -2.5
Q 167.7 -4.15 167.45 -5.55
L 166.85 -8.05 167.45 -9.4
Q 168 -10.1 169.35 -10.1
L 203.85 -10.1 203.85 -28.8 276.55 -28.8 276.55 1.65
Q 276.55 3.55 272.7 7.75
L 269.65 10.65
Q 260.9 18.8 252.55 18.8
L 248.55 18.2
Q 242.85 15.75 242.85 8.5 242.85 1.85 249.95 -3.95
L 257.05 -9.2 266.75 -9.2 266.75 -15.1 222.5 -15.1 222.5 -9.2 246.25 -9.05
Q 244.15 -7.75 242.5 -6.15 235.3 1.1 235.3 8.8 235.3 12.4 236.65 15.55 238.05 18.65 240.25 20.55 245 24.75 252.2 24.75 256.05 24.75 260.35 22.95 266.15 20.7 269.05 18.35
L 274.25 14.1 276.55 11.2 276.55 40.1 284.3 40.1 284.3 -28.8 306.6 -28.8 306.6 40.1 314.35 40.1 314.35 -28.8 378.7 -28.8 378.7 -8.75 337.15 -8.75 335.85 -8.35
Q 333.5 -6.5 333.5 -3.95 333.95 -2.25 335.3 -0.05 337.7 3.85 339.9 6.35
L 345.25 11.9
Q 347.6 13.85 348.45 13.85
L 350.15 13.85
Q 351.35 12.7 351.5 12.4 351.65 12.2 351.65 11.5
L 351.65 -2.95 378.7 -2.95 378.7 40.1 386.4 40.1 386.4 -28.8 398.3 -28.8 398.3 -34.75 383.9 -34.75 354.15 -71.25 349.1 -65.75 379.1 -34.75 84.95 -34.75
M 103.65 -0.95
L 103.65 -28.8 131.9 -28.8 131.9 2.6 127.7 7.6 124.95 9.8
Q 120.4 12.55 116.1 12.55
L 111.8 11.85
Q 103.65 7.3 103.65 -0.95
M 7.35 -28.8
L 7.35 -15.25 -14.1 -15.25
Q -20.2 -15.25 -24.45 -9.95 -28.6 -4.7 -28.6 2 -28.6 9.8 -25.5 15.05 -22.4 20.2 -15.15 23.65 -8 27.05 3.45 27.05
L 4.45 27.05 5.6 26.8 13.6 43 23.15 43 16.05 32.75 12.45 24.75 15.65 22.55
Q 18.1 19.9 18.1 15.3
L 17.55 12.4
Q 16.05 8.95 13.6 8.05 12.4 7.3 10.95 7.3 6.7 7.3 4.8 10.1
L 3.45 13
Q 3.45 13.7 3.45 16.15
L 3.45 17.8
Q 3.45 18.35 3.45 19.9
L 3.45 20.7 4.05 21.55 -3.55 21 -8.8 19.8
Q -21.4 15.05 -21.4 1.85
L -20.7 -2.1 -18.35 -5.7
Q -14.6 -9.2 -11.05 -9.2
L 15.65 -9.2 15.65 -28.8 31.45 -28.8 31.45 -34.75 -159.65 -34.75 -159.65 -28.95 -143 -28.8
Q -147.05 -24.1 -147.05 -19.45 -147.05 -16.4 -145.7 -13.55 -144.3 -10.75 -141.8 -8.55 -137.2 -4 -130.25 -4
L -125.75 -4.7
Q -123 -5.55 -120.8 -7.2
L -116.9 -10.25 -116.9 -6.05 -117.75 -3.1 -120.05 0.8 -123.55 4.35 -128.05 7.4
Q -132.05 9.5 -136.3 9.95
L -140.9 10.1 -141.8 9.8 -146.6 5.9 -151.65 10.95 -116.9 40.4 -111.8 35.3 -135.95 15.3
Q -130.55 15.3 -125.6 13.25 -118.65 10.45 -114 3.45 -109.4 -3.5 -109.4 -11.25
L -109.95 -16.05 -111.2 -20.65 -113.55 -24.9
Q -114.55 -27 -116.6 -28.95
L -107.25 -28.95 -107.25 -28.8 -93.05 -28.8 -93.05 40.1 -85.3 40.1 -85.3 -28.8 7.35 -28.8
M -133.8 -28.2
Q -132.55 -28.95 -129.9 -28.95 -123.7 -28.95 -120.2 -23.35 -119.5 -22.4 -119 -20.95
L -117.75 -17.9 -120.5 -14.05
Q -124.65 -10.25 -129.35 -10.25 -133.65 -10.25 -136.45 -12.95 -139.2 -15.6 -139.2 -19.95
L -138.6 -23.35
Q -137 -27.3 -133.8 -28.2 Z"/>
</g>
</defs>

<g transform="matrix( 1, 0, 0, 1, 960,540) ">
<g transform="matrix( 1, 0, 0, 1, 0,0) ">
<use xlink:href="#Symbol_1_12_Layer1_0_FILL"/>
</g>
</g>
</svg>
