
<svg xmlns="http://www.w3.org/2000/svg" version="1.1" xmlns:xlink="http://www.w3.org/1999/xlink" preserveAspectRatio="none" x="0px" y="0px" width="278px" height="216px" viewBox="0 0 278 216">
<defs>
<g id="Symbol_4_0_Layer0_0_FILL">
<path fill="#000000" stroke="none" d="
M 170.15 74.9
L 166.25 69.3 193.75 69.3 193.75 61.3 84.35 61.3 84.35 69.3 154.5 69.3 159.65 75
Q 164.7 81.85 164.7 87.4 164.7 95.2 160.05 98.55 158.9 99.6 156.35 100.15
L 150.6 100.75 129.4 100.75 133.1 109.1 151 109.1
Q 155.1 109.1 158.6 110.9 164.5 113.75 167.1 119.2 169.75 124.55 169.75 131.2 169.75 139.1 166.4 144.15 163.95 147.3 160.7 149 157.45 150.6 151.85 150.6 148.7 150.6 145.75 149.65 132.5 144.9 119.65 122.05
L 116.55 116.15 111.85 105.6 105.75 89.8 97 95.3 98.15 100.35 103.5 112.05
Q 111.65 130.05 122.6 142.45 137 158.6 151.85 158.6 171.35 158.6 178.15 142.8 180.3 137.95 180.3 132.55 180.3 123.6 176.15 116.8 171.85 110.05 167.75 107.95
L 163.85 106.15
Q 174.25 99.4 174.25 88.25
L 173.3 81.8
Q 171.85 77.3 170.15 74.9 Z"/>
</g>
</defs>

<g transform="matrix( 1, 0, 0, 1, -0.6,-1.45) ">
<g transform="matrix( 1, 0, 0, 1, 0,0) ">
<use xlink:href="#Symbol_4_0_Layer0_0_FILL"/>
</g>
</g>
</svg>
