
<svg xmlns="http://www.w3.org/2000/svg" version="1.1" xmlns:xlink="http://www.w3.org/1999/xlink" preserveAspectRatio="none" x="0px" y="0px" width="492px" height="69px" viewBox="0 0 492 69">
<defs>
<linearGradient id="Gradient_1" gradientUnits="userSpaceOnUse" x1="28.85" y1="19.2375" x2="28.85" y2="-19.2375" spreadMethod="pad">
<stop  offset="0%" stop-color="#2654BD"/>

<stop  offset="100%" stop-color="#507DE0"/>
</linearGradient>
</defs>

<g id="Layer_1">
<g transform="matrix( 0.8573455810546875, 0, 0, 0.8573455810546875, 246.05,34.5) ">
<g id="Layer_2">
<g transform="matrix( 1, 0, 0, 1, 0,0) ">
<g id="Layer_1">
<g transform="matrix( 1, 0, 0, 1, 0,0) ">
<g>
<g>
<path fill="#000000" fill-opacity="0.4980392156862745" stroke="none" d="
M 276.15 -27.95
Q 267.045703125 -37.0505859375 254.1 -37.05
L -254.2 -37.05
Q -267.1458984375 -37.0505859375 -276.3 -27.95 -285.4005859375 -18.7958984375 -285.4 -5.85
L -285.4 5.85
Q -285.4005859375 18.795703125 -276.3 27.9 -267.1458984375 37.050390625 -254.2 37.05
L 254.1 37.05
Q 267.045703125 37.050390625 276.15 27.9 285.3548828125 18.7966796875 285.35 5.85
L 285.35 -5.85
Q 285.3548828125 -18.7966796875 276.15 -27.95 Z"/>
</g>
</g>
</g>
</g>
</g>
</g>

<g id="Layer_1">
<g transform="matrix( 1, 0, 0, 1, 0,0) ">
<g>
<g>
<path fill="url(#Gradient_1)" stroke="none" d="
M 282.35 -5.85
Q 282.35 -17.55 274.05 -25.8 265.8 -34.05 254.1 -34.05
L -254.2 -34.05
Q -265.9 -34.05 -274.15 -25.8 -282.4 -17.55 -282.4 -5.85
L -282.4 5.85
Q -282.4 17.55 -274.15 25.8 -265.9 34.05 -254.2 34.05
L 254.1 34.05
Q 265.8 34.05 274.05 25.8 282.35 17.55 282.35 5.85
L 282.35 -5.85 Z"/>
</g>
</g>

<g>
<path stroke="#FFFFFF" stroke-width="2" stroke-linejoin="round" stroke-linecap="round" fill="none" d="
M -254.2 -34.05
L 254.1 -34.05
Q 265.8 -34.05 274.05 -25.8 282.35 -17.55 282.35 -5.85
L 282.35 5.85
Q 282.35 17.55 274.05 25.8 265.8 34.05 254.1 34.05
L -254.2 34.05
Q -265.9 34.05 -274.15 25.8 -282.4 17.55 -282.4 5.85
L -282.4 -5.85
Q -282.4 -17.55 -274.15 -25.8 -265.9 -34.05 -254.2 -34.05 Z"/>
</g>
</g>
</g>

<g id="Layer_3"/>
</g>
</g>
</svg>
