
<svg xmlns="http://www.w3.org/2000/svg" version="1.1" xmlns:xlink="http://www.w3.org/1999/xlink" preserveAspectRatio="none" x="0px" y="0px" width="686px" height="560px" viewBox="0 0 686 560">
<defs>
<g id="Duplicate_Items_Folder_Symbol_4_copy_2_10_Layer0_0_FILL">
<path fill="#0A0A0A" stroke="none" d="
M 74.65 -56
L 57.25 -73.4 35.7 -91.45
Q 26.5 -98.9 14.75 -106.1 -13.65 -123.5 -36.35 -123.5 -46.05 -123.5 -55.25 -120.15 -68.15 -114.7 -76.2 -103.6 -80.45 -97.9 -81.75 -92.45 -83.1 -87.05 -83.1 -78.85
L -83.1 -74.15 -79.3 -58.45 -78.4 -55.7 -105.65 -55.7 -105.65 -43.7 -79.3 -43.7 -79.3 98.85 -63.3 98.85 -63.3 -43.7 70.35 -43.7 70.35 -2.2 -15.65 -2.2 -18.3 -1.35
Q -23.15 2.45 -23.15 7.75 -22.25 11.25 -19.45 15.8 -14.5 23.85 -9.95 29
L 1.2 40.55
Q 6.05 44.5 7.8 44.5
L 11.3 44.5
Q 13.8 42.15 14.1 41.55 14.35 41.15 14.35 39.65
L 14.35 9.8 70.35 9.8 70.35 98.85 86.3 98.85 86.3 -43.7 110.9 -43.7 110.9 -56 74.65 -56
M 4.5 -96.25
L 22.5 -84.25 29.4 -79.15
Q 34.7 -75.15 40.1 -69.75
L 54.9 -56 -40.85 -56 -40.85 -55.7 -63.3 -55.7 -64.8 -58.05 -67 -63.75 -68.75 -70.65 -68.75 -76.65
Q -68.75 -83.4 -66.7 -90.85 -60.4 -104.6 -49.55 -108.3 -44.7 -110.6 -37.55 -110.6 -28.9 -110.6 -16.9 -106.5 -4.85 -102.55 4.5 -96.25 Z"/>
</g>
</defs>

<g transform="matrix( 1.67596435546875, 0, 0, 1.67596435546875, 341.7,283.05) ">
<g transform="matrix( 1, 0, 0, 1, 0,0) ">
<use xlink:href="#Duplicate_Items_Folder_Symbol_4_copy_2_10_Layer0_0_FILL"/>
</g>
</g>
</svg>
