
<svg xmlns="http://www.w3.org/2000/svg" version="1.1" xmlns:xlink="http://www.w3.org/1999/xlink" preserveAspectRatio="none" x="0px" y="0px" width="690px" height="549px" viewBox="0 0 690 549">
<defs>
<g id="Symbol_1_8_Layer2_0_FILL">
<path fill="#999999" stroke="none" d="
M 40 -14.55
Q 37.05 -12 36.2 -7.4
L 40.8 -6.6
Q 41.3 -9.95 43.05 -11.6 44.85 -13.3 47.55 -13.3 50.2 -13.3 51.95 -11.65 53.65 -10 53.65 -7.45 53.65 -4.3 51.3 -2.75 48.95 -1.25 46 -1.25 45.75 -1.25 45.3 -1.3
L 44.8 2.75
Q 46.7 2.2 48 2.2 51.2 2.2 53.25 4.3 55.3 6.3 55.3 9.5 55.3 12.8 53.1 15.05 50.85 17.25 47.65 17.25 44.9 17.25 43 15.55 41.1 13.85 40.3 9.95
L 35.75 10.55
Q 36.2 15.2 39.45 18.15 42.7 21.05 47.6 21.05 53.05 21.05 56.6 17.7 60.2 14.25 60.2 9.4 60.2 5.75 58.35 3.35 56.5 0.95 53.2 0.2 55.75 -1 57.05 -2.95 58.35 -4.95 58.35 -7.35 58.35 -9.9 57 -12.2 55.6 -14.45 53.05 -15.75 50.5 -17.05 47.4 -17.05 43 -17.05 40 -14.55
M 30.65 -0.15
L 20.5 -0.15 20.5 -10.3 16.15 -10.3 16.15 -0.15 6 -0.15 6 4.15 16.15 4.15 16.15 14.35 20.5 14.35 20.5 4.15 30.65 4.15 30.65 -0.15
M -0.2 -6.8
Q -1.05 -10.1 -2.5 -12.35 -4 -14.65 -6.25 -15.85 -8.5 -17.05 -11.5 -17.05 -15.6 -17.05 -18.25 -14.9 -20.95 -12.7 -22.3 -8.65 -23.7 -4.6 -23.7 2 -23.7 12.5 -20 17.15 -16.9 21.05 -11.5 21.05 -7.4 21.05 -4.7 18.85 -2.05 16.65 -0.7 12.6 0.65 8.55 0.65 2 0.65 -3.55 -0.2 -6.8
M -16.6 -10.6
Q -14.75 -13.3 -11.55 -13.3 -8.35 -13.3 -6.2 -10.25 -4.05 -7.2 -4.05 2 -4.05 11.15 -6.2 14.2 -8.35 17.25 -11.5 17.25 -14.65 17.25 -16.8 14.25 -19 11.2 -19 2 -19 -7.2 -16.6 -10.6
M -47.05 -7.45
Q -45.8 -10.5 -43.6 -12.1 -41.95 -13.3 -39.8 -13.3 -37.05 -13.3 -35.2 -11.35 -34.1 -10.1 -33.45 -7.4
L -28.9 -7.8
Q -29.45 -12.15 -32.25 -14.6 -35.1 -17.05 -39.5 -17.05 -45.4 -17.05 -48.9 -12.8 -52.9 -7.9 -52.9 2.95 -52.9 12.6 -49.3 16.85 -45.65 21.05 -39.95 21.05 -36.55 21.05 -33.9 19.45 -31.3 17.85 -29.75 14.85 -28.25 11.8 -28.25 8.3 -28.25 2.95 -31.45 -0.4 -34.7 -3.8 -39.25 -3.8 -41.9 -3.8 -44.3 -2.6 -46.7 -1.35 -48.35 1.15 -48.3 -4.45 -47.05 -7.45
M -40.2 0.25
Q -37.05 0.25 -35 2.5 -32.95 4.7 -32.95 8.55 -32.95 12.6 -35 14.95 -37.1 17.25 -40 17.25 -42 17.25 -43.8 16.15 -45.6 15 -46.6 12.85 -47.6 10.7 -47.6 8.3 -47.6 4.7 -45.45 2.5 -43.3 0.25 -40.2 0.25 Z"/>
</g>

<g id="Symbol_1_8_Layer1_0_FILL">
<path fill="#000000" stroke="none" d="
M 39 -15.55
Q 36.05 -13 35.2 -8.4
L 39.8 -7.6
Q 40.3 -10.95 42.05 -12.6 43.85 -14.3 46.55 -14.3 49.2 -14.3 50.95 -12.65 52.65 -11 52.65 -8.45 52.65 -5.3 50.3 -3.75 47.95 -2.25 45 -2.25 44.75 -2.25 44.3 -2.3
L 43.8 1.75
Q 45.7 1.2 47 1.2 50.2 1.2 52.25 3.3 54.3 5.3 54.3 8.5 54.3 11.8 52.1 14.05 49.85 16.25 46.65 16.25 43.9 16.25 42 14.55 40.1 12.85 39.3 8.95
L 34.75 9.55
Q 35.2 14.2 38.45 17.15 41.7 20.05 46.6 20.05 52.05 20.05 55.6 16.7 59.2 13.25 59.2 8.4 59.2 4.75 57.35 2.35 55.5 -0.05 52.2 -0.8 54.75 -2 56.05 -3.95 57.35 -5.95 57.35 -8.35 57.35 -10.9 56 -13.2 54.6 -15.45 52.05 -16.75 49.5 -18.05 46.4 -18.05 42 -18.05 39 -15.55
M 29.65 -1.15
L 19.5 -1.15 19.5 -11.3 15.15 -11.3 15.15 -1.15 5 -1.15 5 3.15 15.15 3.15 15.15 13.35 19.5 13.35 19.5 3.15 29.65 3.15 29.65 -1.15
M -1.2 -7.8
Q -2.05 -11.1 -3.5 -13.35 -5 -15.65 -7.25 -16.85 -9.5 -18.05 -12.5 -18.05 -16.6 -18.05 -19.25 -15.9 -21.95 -13.7 -23.3 -9.65 -24.7 -5.6 -24.7 1 -24.7 11.5 -21 16.15 -17.9 20.05 -12.5 20.05 -8.4 20.05 -5.7 17.85 -3.05 15.65 -1.7 11.6 -0.35 7.55 -0.35 1 -0.35 -4.55 -1.2 -7.8
M -17.6 -11.6
Q -15.75 -14.3 -12.55 -14.3 -9.35 -14.3 -7.2 -11.25 -5.05 -8.2 -5.05 1 -5.05 10.15 -7.2 13.2 -9.35 16.25 -12.5 16.25 -15.65 16.25 -17.8 13.25 -20 10.2 -20 1 -20 -8.2 -17.6 -11.6
M -48.05 -8.45
Q -46.8 -11.5 -44.6 -13.1 -42.95 -14.3 -40.8 -14.3 -38.05 -14.3 -36.2 -12.35 -35.1 -11.1 -34.45 -8.4
L -29.9 -8.8
Q -30.45 -13.15 -33.25 -15.6 -36.1 -18.05 -40.5 -18.05 -46.4 -18.05 -49.9 -13.8 -53.9 -8.9 -53.9 1.95 -53.9 11.6 -50.3 15.85 -46.65 20.05 -40.95 20.05 -37.55 20.05 -34.9 18.45 -32.3 16.85 -30.75 13.85 -29.25 10.8 -29.25 7.3 -29.25 1.95 -32.45 -1.4 -35.7 -4.8 -40.25 -4.8 -42.9 -4.8 -45.3 -3.6 -47.7 -2.35 -49.35 0.15 -49.3 -5.45 -48.05 -8.45
M -36 1.5
Q -33.95 3.7 -33.95 7.55 -33.95 11.6 -36 13.95 -38.1 16.25 -41 16.25 -43 16.25 -44.8 15.15 -46.6 14 -47.6 11.85 -48.6 9.7 -48.6 7.3 -48.6 3.7 -46.45 1.5 -44.3 -0.75 -41.2 -0.75 -38.05 -0.75 -36 1.5 Z"/>
</g>

<g id="Symbol_1_9_Layer2_0_FILL">
<path fill="#999999" stroke="none" d="
M 36 -16.45
L 36 -12.05 54.3 -12.05
Q 50.8 -8.05 47.75 -2.25 44.6 3.5 42.95 9.75 41.3 16 41.25 20.4
L 45.95 20.4
Q 46.35 14.85 47.7 10.15 49.6 3.5 53.15 -2.8 56.6 -9.1 60.2 -12.85
L 60.2 -16.45 36 -16.45
M 30.65 -0.15
L 20.5 -0.15 20.5 -10.3 16.15 -10.3 16.15 -0.15 6 -0.15 6 4.15 16.15 4.15 16.15 14.35 20.5 14.35 20.5 4.15 30.65 4.15 30.65 -0.15
M -0.2 -6.8
Q -1.05 -10.1 -2.5 -12.35 -4 -14.65 -6.25 -15.85 -8.5 -17.05 -11.5 -17.05 -15.6 -17.05 -18.25 -14.9 -20.95 -12.7 -22.3 -8.65 -23.7 -4.6 -23.7 2 -23.7 12.5 -20 17.15 -16.9 21.05 -11.5 21.05 -7.4 21.05 -4.7 18.85 -2.05 16.65 -0.7 12.6 0.65 8.55 0.65 2 0.65 -3.55 -0.2 -6.8
M -16.6 -10.6
Q -14.75 -13.3 -11.55 -13.3 -8.35 -13.3 -6.2 -10.25 -4.05 -7.2 -4.05 2 -4.05 11.15 -6.2 14.2 -8.35 17.25 -11.5 17.25 -14.65 17.25 -16.8 14.25 -19 11.2 -19 2 -19 -7.2 -16.6 -10.6
M -47.05 -7.45
Q -45.8 -10.5 -43.6 -12.1 -41.95 -13.3 -39.8 -13.3 -37.05 -13.3 -35.2 -11.35 -34.1 -10.1 -33.45 -7.4
L -28.9 -7.8
Q -29.45 -12.15 -32.25 -14.6 -35.1 -17.05 -39.5 -17.05 -45.4 -17.05 -48.9 -12.8 -52.9 -7.9 -52.9 2.95 -52.9 12.6 -49.3 16.85 -45.65 21.05 -39.95 21.05 -36.55 21.05 -33.9 19.45 -31.3 17.85 -29.75 14.85 -28.25 11.8 -28.25 8.3 -28.25 2.95 -31.45 -0.4 -34.7 -3.8 -39.25 -3.8 -41.9 -3.8 -44.3 -2.6 -46.7 -1.35 -48.35 1.15 -48.3 -4.45 -47.05 -7.45
M -40.2 0.25
Q -37.05 0.25 -35 2.5 -32.95 4.7 -32.95 8.55 -32.95 12.6 -35 14.95 -37.1 17.25 -40 17.25 -42 17.25 -43.8 16.15 -45.6 15 -46.6 12.85 -47.6 10.7 -47.6 8.3 -47.6 4.7 -45.45 2.5 -43.3 0.25 -40.2 0.25 Z"/>
</g>

<g id="Symbol_1_9_Layer1_0_FILL">
<path fill="#000000" stroke="none" d="
M 35 -17.45
L 35 -13.05 53.3 -13.05
Q 49.8 -9.05 46.75 -3.25 43.6 2.5 41.95 8.75 40.3 15 40.25 19.4
L 44.95 19.4
Q 45.35 13.85 46.7 9.15 48.6 2.5 52.15 -3.8 55.6 -10.1 59.2 -13.85
L 59.2 -17.45 35 -17.45
M 29.65 -1.15
L 19.5 -1.15 19.5 -11.3 15.15 -11.3 15.15 -1.15 5 -1.15 5 3.15 15.15 3.15 15.15 13.35 19.5 13.35 19.5 3.15 29.65 3.15 29.65 -1.15
M -1.2 -7.8
Q -2.05 -11.1 -3.5 -13.35 -5 -15.65 -7.25 -16.85 -9.5 -18.05 -12.5 -18.05 -16.6 -18.05 -19.25 -15.9 -21.95 -13.7 -23.3 -9.65 -24.7 -5.6 -24.7 1 -24.7 11.5 -21 16.15 -17.9 20.05 -12.5 20.05 -8.4 20.05 -5.7 17.85 -3.05 15.65 -1.7 11.6 -0.35 7.55 -0.35 1 -0.35 -4.55 -1.2 -7.8
M -17.6 -11.6
Q -15.75 -14.3 -12.55 -14.3 -9.35 -14.3 -7.2 -11.25 -5.05 -8.2 -5.05 1 -5.05 10.15 -7.2 13.2 -9.35 16.25 -12.5 16.25 -15.65 16.25 -17.8 13.25 -20 10.2 -20 1 -20 -8.2 -17.6 -11.6
M -48.05 -8.45
Q -46.8 -11.5 -44.6 -13.1 -42.95 -14.3 -40.8 -14.3 -38.05 -14.3 -36.2 -12.35 -35.1 -11.1 -34.45 -8.4
L -29.9 -8.8
Q -30.45 -13.15 -33.25 -15.6 -36.1 -18.05 -40.5 -18.05 -46.4 -18.05 -49.9 -13.8 -53.9 -8.9 -53.9 1.95 -53.9 11.6 -50.3 15.85 -46.65 20.05 -40.95 20.05 -37.55 20.05 -34.9 18.45 -32.3 16.85 -30.75 13.85 -29.25 10.8 -29.25 7.3 -29.25 1.95 -32.45 -1.4 -35.7 -4.8 -40.25 -4.8 -42.9 -4.8 -45.3 -3.6 -47.7 -2.35 -49.35 0.15 -49.3 -5.45 -48.05 -8.45
M -36 1.5
Q -33.95 3.7 -33.95 7.55 -33.95 11.6 -36 13.95 -38.1 16.25 -41 16.25 -43 16.25 -44.8 15.15 -46.6 14 -47.6 11.85 -48.6 9.7 -48.6 7.3 -48.6 3.7 -46.45 1.5 -44.3 -0.75 -41.2 -0.75 -38.05 -0.75 -36 1.5 Z"/>
</g>

<g id="Symbol_1_10_Layer2_0_FILL">
<path fill="#999999" stroke="none" d="
M 40 -14.55
Q 37.05 -12 36.2 -7.4
L 40.8 -6.6
Q 41.3 -9.95 43.05 -11.6 44.85 -13.3 47.55 -13.3 50.2 -13.3 51.95 -11.65 53.65 -10 53.65 -7.45 53.65 -4.3 51.3 -2.75 48.95 -1.25 46 -1.25 45.75 -1.25 45.3 -1.3
L 44.8 2.75
Q 46.7 2.2 48 2.2 51.2 2.2 53.25 4.3 55.3 6.3 55.3 9.5 55.3 12.8 53.1 15.05 50.85 17.25 47.65 17.25 44.9 17.25 43 15.55 41.1 13.85 40.3 9.95
L 35.75 10.55
Q 36.2 15.2 39.45 18.15 42.7 21.05 47.6 21.05 53.05 21.05 56.6 17.7 60.2 14.25 60.2 9.4 60.2 5.75 58.35 3.35 56.5 0.95 53.2 0.2 55.75 -1 57.05 -2.95 58.35 -4.95 58.35 -7.35 58.35 -9.9 57 -12.2 55.6 -14.45 53.05 -15.75 50.5 -17.05 47.4 -17.05 43 -17.05 40 -14.55
M 30.65 -0.15
L 20.5 -0.15 20.5 -10.3 16.15 -10.3 16.15 -0.15 6 -0.15 6 4.15 16.15 4.15 16.15 14.35 20.5 14.35 20.5 4.15 30.65 4.15 30.65 -0.15
M -11.5 -17.05
Q -15.6 -17.05 -18.25 -14.9 -20.95 -12.7 -22.3 -8.65 -23.7 -4.6 -23.7 2 -23.7 12.5 -20 17.15 -16.9 21.05 -11.5 21.05 -7.4 21.05 -4.7 18.85 -2.05 16.65 -0.7 12.6 0.65 8.55 0.65 2 0.65 -3.55 -0.2 -6.8 -1.05 -10.1 -2.5 -12.35 -4 -14.65 -6.25 -15.85 -8.5 -17.05 -11.5 -17.05
M -11.55 -13.3
Q -8.35 -13.3 -6.2 -10.25 -4.05 -7.2 -4.05 2 -4.05 11.15 -6.2 14.2 -8.35 17.25 -11.5 17.25 -14.65 17.25 -16.8 14.25 -19 11.2 -19 2 -19 -7.2 -16.6 -10.6 -14.75 -13.3 -11.55 -13.3
M -52.4 -16.45
L -52.4 -12.05 -34.1 -12.05
Q -37.6 -8.05 -40.65 -2.25 -43.8 3.5 -45.45 9.75 -47.1 16 -47.15 20.4
L -42.45 20.4
Q -42.05 14.85 -40.7 10.15 -38.8 3.5 -35.25 -2.8 -31.8 -9.1 -28.2 -12.85
L -28.2 -16.45 -52.4 -16.45 Z"/>
</g>

<g id="Symbol_1_10_Layer1_0_FILL">
<path fill="#000000" stroke="none" d="
M 39 -15.55
Q 36.05 -13 35.2 -8.4
L 39.8 -7.6
Q 40.3 -10.95 42.05 -12.6 43.85 -14.3 46.55 -14.3 49.2 -14.3 50.95 -12.65 52.65 -11 52.65 -8.45 52.65 -5.3 50.3 -3.75 47.95 -2.25 45 -2.25 44.75 -2.25 44.3 -2.3
L 43.8 1.75
Q 45.7 1.2 47 1.2 50.2 1.2 52.25 3.3 54.3 5.3 54.3 8.5 54.3 11.8 52.1 14.05 49.85 16.25 46.65 16.25 43.9 16.25 42 14.55 40.1 12.85 39.3 8.95
L 34.75 9.55
Q 35.2 14.2 38.45 17.15 41.7 20.05 46.6 20.05 52.05 20.05 55.6 16.7 59.2 13.25 59.2 8.4 59.2 4.75 57.35 2.35 55.5 -0.05 52.2 -0.8 54.75 -2 56.05 -3.95 57.35 -5.95 57.35 -8.35 57.35 -10.9 56 -13.2 54.6 -15.45 52.05 -16.75 49.5 -18.05 46.4 -18.05 42 -18.05 39 -15.55
M 29.65 -1.15
L 19.5 -1.15 19.5 -11.3 15.15 -11.3 15.15 -1.15 5 -1.15 5 3.15 15.15 3.15 15.15 13.35 19.5 13.35 19.5 3.15 29.65 3.15 29.65 -1.15
M -12.5 -18.05
Q -16.6 -18.05 -19.25 -15.9 -21.95 -13.7 -23.3 -9.65 -24.7 -5.6 -24.7 1 -24.7 11.5 -21 16.15 -17.9 20.05 -12.5 20.05 -8.4 20.05 -5.7 17.85 -3.05 15.65 -1.7 11.6 -0.35 7.55 -0.35 1 -0.35 -4.55 -1.2 -7.8 -2.05 -11.1 -3.5 -13.35 -5 -15.65 -7.25 -16.85 -9.5 -18.05 -12.5 -18.05
M -12.55 -14.3
Q -9.35 -14.3 -7.2 -11.25 -5.05 -8.2 -5.05 1 -5.05 10.15 -7.2 13.2 -9.35 16.25 -12.5 16.25 -15.65 16.25 -17.8 13.25 -20 10.2 -20 1 -20 -8.2 -17.6 -11.6 -15.75 -14.3 -12.55 -14.3
M -53.4 -17.45
L -53.4 -13.05 -35.1 -13.05
Q -38.6 -9.05 -41.65 -3.25 -44.8 2.5 -46.45 8.75 -48.1 15 -48.15 19.4
L -43.45 19.4
Q -43.05 13.85 -41.7 9.15 -39.8 2.5 -36.25 -3.8 -32.8 -10.1 -29.2 -13.85
L -29.2 -17.45 -53.4 -17.45 Z"/>
</g>

<g id="Symbol_1_11_Layer2_0_FILL">
<path fill="#999999" stroke="none" d="
M 36 -16.45
L 36 -12.05 54.3 -12.05
Q 50.8 -8.05 47.75 -2.25 44.6 3.5 42.95 9.75 41.3 16 41.25 20.4
L 45.95 20.4
Q 46.35 14.85 47.7 10.15 49.6 3.5 53.15 -2.8 56.6 -9.1 60.2 -12.85
L 60.2 -16.45 36 -16.45
M 30.65 -0.15
L 20.5 -0.15 20.5 -10.3 16.15 -10.3 16.15 -0.15 6 -0.15 6 4.15 16.15 4.15 16.15 14.35 20.5 14.35 20.5 4.15 30.65 4.15 30.65 -0.15
M -11.5 -17.05
Q -15.6 -17.05 -18.25 -14.9 -20.95 -12.7 -22.3 -8.65 -23.7 -4.6 -23.7 2 -23.7 12.5 -20 17.15 -16.9 21.05 -11.5 21.05 -7.4 21.05 -4.7 18.85 -2.05 16.65 -0.7 12.6 0.65 8.55 0.65 2 0.65 -3.55 -0.2 -6.8 -1.05 -10.1 -2.5 -12.35 -4 -14.65 -6.25 -15.85 -8.5 -17.05 -11.5 -17.05
M -11.55 -13.3
Q -8.35 -13.3 -6.2 -10.25 -4.05 -7.2 -4.05 2 -4.05 11.15 -6.2 14.2 -8.35 17.25 -11.5 17.25 -14.65 17.25 -16.8 14.25 -19 11.2 -19 2 -19 -7.2 -16.6 -10.6 -14.75 -13.3 -11.55 -13.3
M -52.4 -16.45
L -52.4 -12.05 -34.1 -12.05
Q -37.6 -8.05 -40.65 -2.25 -43.8 3.5 -45.45 9.75 -47.1 16 -47.15 20.4
L -42.45 20.4
Q -42.05 14.85 -40.7 10.15 -38.8 3.5 -35.25 -2.8 -31.8 -9.1 -28.2 -12.85
L -28.2 -16.45 -52.4 -16.45 Z"/>
</g>

<g id="Symbol_1_11_Layer1_0_FILL">
<path fill="#000000" stroke="none" d="
M 35 -17.45
L 35 -13.05 53.3 -13.05
Q 49.8 -9.05 46.75 -3.25 43.6 2.5 41.95 8.75 40.3 15 40.25 19.4
L 44.95 19.4
Q 45.35 13.85 46.7 9.15 48.6 2.5 52.15 -3.8 55.6 -10.1 59.2 -13.85
L 59.2 -17.45 35 -17.45
M 29.65 -1.15
L 19.5 -1.15 19.5 -11.3 15.15 -11.3 15.15 -1.15 5 -1.15 5 3.15 15.15 3.15 15.15 13.35 19.5 13.35 19.5 3.15 29.65 3.15 29.65 -1.15
M -12.5 -18.05
Q -16.6 -18.05 -19.25 -15.9 -21.95 -13.7 -23.3 -9.65 -24.7 -5.6 -24.7 1 -24.7 11.5 -21 16.15 -17.9 20.05 -12.5 20.05 -8.4 20.05 -5.7 17.85 -3.05 15.65 -1.7 11.6 -0.35 7.55 -0.35 1 -0.35 -4.55 -1.2 -7.8 -2.05 -11.1 -3.5 -13.35 -5 -15.65 -7.25 -16.85 -9.5 -18.05 -12.5 -18.05
M -12.55 -14.3
Q -9.35 -14.3 -7.2 -11.25 -5.05 -8.2 -5.05 1 -5.05 10.15 -7.2 13.2 -9.35 16.25 -12.5 16.25 -15.65 16.25 -17.8 13.25 -20 10.2 -20 1 -20 -8.2 -17.6 -11.6 -15.75 -14.3 -12.55 -14.3
M -53.4 -17.45
L -53.4 -13.05 -35.1 -13.05
Q -38.6 -9.05 -41.65 -3.25 -44.8 2.5 -46.45 8.75 -48.1 15 -48.15 19.4
L -43.45 19.4
Q -43.05 13.85 -41.7 9.15 -39.8 2.5 -36.25 -3.8 -32.8 -10.1 -29.2 -13.85
L -29.2 -17.45 -53.4 -17.45 Z"/>
</g>

<g id="Layer0_4_FILL">
<path fill="#000000" stroke="none" d="
M 343.4 266.65
Q 342.3 266.65 341.25 266.6 340.15 274.5 339.5 282.2 339 288.15 338.8 293.9 338.5 299.65 338.55 305.3 338.55 317.7 339.9 329.4 340.55 335.25 341.5 340.95
L 344.85 382.45 348.4 340.95
Q 349.55 334.9 350.25 328.65 351.55 317.3 351.6 305.3 351.6 299.85 351.35 294.2 351.1 288.5 350.6 282.6 349.85 274.5 348.6 266.15 346.2 266.65 343.4 266.65
M 341 241.75
Q 335.35 242.25 331.2 245.25 326.15 249 326.15 254.15 326.15 259.3 331.2 262.95 335.5 266.1 341.25 266.6 342.3 266.65 343.4 266.65 346.2 266.65 348.6 266.15 352.55 265.25 355.65 262.95 360.7 259.3 360.7 254.15 360.7 249 355.65 245.25 352.9 243.25 349.5 242.4 346.65 241.65 343.4 241.65 342.2 241.65 341 241.75 Z"/>

<path fill="#1B1B1B" stroke="none" d="
M 324.65 213.35
Q 325.1 213.15 325.45 212.8 326.1 212.15 326.1 211.15 326.1 210.15 325.45 209.45 324.7 208.8 323.7 208.8 322.7 208.8 322.1 209.45 321.35 210.15 321.35 211.15 321.35 212.15 322.1 212.8 322.7 213.5 323.7 213.5 324.2 213.5 324.65 213.35
M 378.3 209.45
Q 377.65 208.8 376.65 208.8 375.65 208.8 374.95 209.45 374.3 210.15 374.3 211.15 374.3 212.15 374.95 212.8 375.3 213.15 375.75 213.35 376.15 213.5 376.65 213.5 377.65 213.5 378.3 212.8 379 212.15 379 211.15 379 210.15 378.3 209.45 Z"/>
</g>

<path id="Q2_Blank_P1_0_Layer0_0_1_STROKES" stroke="#000000" stroke-width="2" stroke-linejoin="round" stroke-linecap="round" fill="none" d="
M 203.35 313.85
Q 150.95 308.9 131.7 283.25 107.7 251.15 115.8 198.8 117.8 182.3 109.45 171.85 103.45 164.3 79.45 147.5 38.15 117.4 16.95 97.55 54.3 92.4 109.35 97.55 204.05 107.7 339.5 282.2 339.5 282.4 339.5 282.6 339 288.5 338.75 294.2 338.55 299.15 338.5 304 271.45 314 203.35 313.85 Z"/>

<path id="Symbol_1_8_Layer1_0_1_STROKES" stroke="#FFFFFF" stroke-width="0.5" stroke-linejoin="round" stroke-linecap="round" fill="none" d="
M 34.75 9.55
L 39.3 8.95
Q 40.1 12.85 42 14.55 43.9 16.25 46.65 16.25 49.85 16.25 52.1 14.05 54.3 11.8 54.3 8.5 54.3 5.3 52.25 3.3 50.2 1.2 47 1.2 45.7 1.2 43.8 1.75
L 44.3 -2.3
Q 44.75 -2.25 45 -2.25 47.95 -2.25 50.3 -3.75 52.65 -5.3 52.65 -8.45 52.65 -11 50.95 -12.65 49.2 -14.3 46.55 -14.3 43.85 -14.3 42.05 -12.6 40.3 -10.95 39.8 -7.6
L 35.2 -8.4
Q 36.05 -13 39 -15.55 42 -18.05 46.4 -18.05 49.5 -18.05 52.05 -16.75 54.6 -15.45 56 -13.2 57.35 -10.9 57.35 -8.35 57.35 -5.95 56.05 -3.95 54.75 -2 52.2 -0.8 55.5 -0.05 57.35 2.35 59.2 4.75 59.2 8.4 59.2 13.25 55.6 16.7 52.05 20.05 46.6 20.05 41.7 20.05 38.45 17.15 35.2 14.2 34.75 9.55 Z
M 15.15 13.35
L 15.15 3.15 5 3.15 5 -1.15 15.15 -1.15 15.15 -11.3 19.5 -11.3 19.5 -1.15 29.65 -1.15 29.65 3.15 19.5 3.15 19.5 13.35 15.15 13.35 Z
M -29.9 -8.8
L -34.45 -8.4
Q -35.1 -11.1 -36.2 -12.35 -38.05 -14.3 -40.8 -14.3 -42.95 -14.3 -44.6 -13.1 -46.8 -11.5 -48.05 -8.45 -49.3 -5.45 -49.35 0.15 -47.7 -2.35 -45.3 -3.6 -42.9 -4.8 -40.25 -4.8 -35.7 -4.8 -32.45 -1.4 -29.25 1.95 -29.25 7.3 -29.25 10.8 -30.75 13.85 -32.3 16.85 -34.9 18.45 -37.55 20.05 -40.95 20.05 -46.65 20.05 -50.3 15.85 -53.9 11.6 -53.9 1.95 -53.9 -8.9 -49.9 -13.8 -46.4 -18.05 -40.5 -18.05 -36.1 -18.05 -33.25 -15.6 -30.45 -13.15 -29.9 -8.8 Z
M -20 1
Q -20 10.2 -17.8 13.25 -15.65 16.25 -12.5 16.25 -9.35 16.25 -7.2 13.2 -5.05 10.15 -5.05 1 -5.05 -8.2 -7.2 -11.25 -9.35 -14.3 -12.55 -14.3 -15.75 -14.3 -17.6 -11.6 -20 -8.2 -20 1 Z
M -24.7 1
Q -24.7 -5.6 -23.3 -9.65 -21.95 -13.7 -19.25 -15.9 -16.6 -18.05 -12.5 -18.05 -9.5 -18.05 -7.25 -16.85 -5 -15.65 -3.5 -13.35 -2.05 -11.1 -1.2 -7.8 -0.35 -4.55 -0.35 1 -0.35 7.55 -1.7 11.6 -3.05 15.65 -5.7 17.85 -8.4 20.05 -12.5 20.05 -17.9 20.05 -21 16.15 -24.7 11.5 -24.7 1 Z
M -48.6 7.3
Q -48.6 9.7 -47.6 11.85 -46.6 14 -44.8 15.15 -43 16.25 -41 16.25 -38.1 16.25 -36 13.95 -33.95 11.6 -33.95 7.55 -33.95 3.7 -36 1.5 -38.05 -0.75 -41.2 -0.75 -44.3 -0.75 -46.45 1.5 -48.6 3.7 -48.6 7.3 Z"/>

<path id="Q2_Blank_P2_0_Layer0_0_1_STROKES" stroke="#000000" stroke-width="2" stroke-linejoin="round" stroke-linecap="round" fill="none" d="
M -25.1 109.45
Q 27.3 104.5 46.55 78.85 70.55 46.75 62.45 -5.6 60.45 -22.1 68.8 -32.55 74.8 -40.1 98.8 -56.9 140.1 -87 161.3 -106.85 123.95 -112 68.9 -106.85 -25.8 -96.7 -161.25 77.8 -161.25 78 -161.25 78.2 -160.75 84.1 -160.5 89.8 -160.3 94.75 -160.25 99.6 -93.2 109.6 -25.1 109.45 Z"/>

<path id="Symbol_1_9_Layer1_0_1_STROKES" stroke="#FFFFFF" stroke-width="0.5" stroke-linejoin="round" stroke-linecap="round" fill="none" d="
M 35 -13.05
L 35 -17.45 59.2 -17.45 59.2 -13.85
Q 55.6 -10.1 52.15 -3.8 48.6 2.5 46.7 9.15 45.35 13.85 44.95 19.4
L 40.25 19.4
Q 40.3 15 41.95 8.75 43.6 2.5 46.75 -3.25 49.8 -9.05 53.3 -13.05
L 35 -13.05 Z
M 15.15 13.35
L 15.15 3.15 5 3.15 5 -1.15 15.15 -1.15 15.15 -11.3 19.5 -11.3 19.5 -1.15 29.65 -1.15 29.65 3.15 19.5 3.15 19.5 13.35 15.15 13.35 Z
M -29.9 -8.8
L -34.45 -8.4
Q -35.1 -11.1 -36.2 -12.35 -38.05 -14.3 -40.8 -14.3 -42.95 -14.3 -44.6 -13.1 -46.8 -11.5 -48.05 -8.45 -49.3 -5.45 -49.35 0.15 -47.7 -2.35 -45.3 -3.6 -42.9 -4.8 -40.25 -4.8 -35.7 -4.8 -32.45 -1.4 -29.25 1.95 -29.25 7.3 -29.25 10.8 -30.75 13.85 -32.3 16.85 -34.9 18.45 -37.55 20.05 -40.95 20.05 -46.65 20.05 -50.3 15.85 -53.9 11.6 -53.9 1.95 -53.9 -8.9 -49.9 -13.8 -46.4 -18.05 -40.5 -18.05 -36.1 -18.05 -33.25 -15.6 -30.45 -13.15 -29.9 -8.8 Z
M -20 1
Q -20 10.2 -17.8 13.25 -15.65 16.25 -12.5 16.25 -9.35 16.25 -7.2 13.2 -5.05 10.15 -5.05 1 -5.05 -8.2 -7.2 -11.25 -9.35 -14.3 -12.55 -14.3 -15.75 -14.3 -17.6 -11.6 -20 -8.2 -20 1 Z
M -24.7 1
Q -24.7 -5.6 -23.3 -9.65 -21.95 -13.7 -19.25 -15.9 -16.6 -18.05 -12.5 -18.05 -9.5 -18.05 -7.25 -16.85 -5 -15.65 -3.5 -13.35 -2.05 -11.1 -1.2 -7.8 -0.35 -4.55 -0.35 1 -0.35 7.55 -1.7 11.6 -3.05 15.65 -5.7 17.85 -8.4 20.05 -12.5 20.05 -17.9 20.05 -21 16.15 -24.7 11.5 -24.7 1 Z
M -48.6 7.3
Q -48.6 9.7 -47.6 11.85 -46.6 14 -44.8 15.15 -43 16.25 -41 16.25 -38.1 16.25 -36 13.95 -33.95 11.6 -33.95 7.55 -33.95 3.7 -36 1.5 -38.05 -0.75 -41.2 -0.75 -44.3 -0.75 -46.45 1.5 -48.6 3.7 -48.6 7.3 Z"/>

<path id="Q2_Blank_P9_0_Layer0_0_1_STROKES" stroke="#000000" stroke-width="2" stroke-linejoin="round" stroke-linecap="round" fill="none" d="
M 87.65 -11.7
Q 78.2 10.6 67 26.8 55.4 47.3 36.35 60.3 16.1 74.05 -6.6 75.05 -75.3 74.9 -95.85 25.45 -118.55 -30.2 -55.4 -58.65 -52.85 -59.8 -34.75 -65.15 33.35 -65 100.4 -75 100.4 -74.35 100.4 -73.7 100.45 -61.7 101.75 -50.35 101.8 -49.95 101.85 -49.55 93.95 -26.4 87.65 -11.7 Z"/>

<path id="Symbol_1_10_Layer1_0_1_STROKES" stroke="#FFFFFF" stroke-width="0.5" stroke-linejoin="round" stroke-linecap="round" fill="none" d="
M 34.75 9.55
L 39.3 8.95
Q 40.1 12.85 42 14.55 43.9 16.25 46.65 16.25 49.85 16.25 52.1 14.05 54.3 11.8 54.3 8.5 54.3 5.3 52.25 3.3 50.2 1.2 47 1.2 45.7 1.2 43.8 1.75
L 44.3 -2.3
Q 44.75 -2.25 45 -2.25 47.95 -2.25 50.3 -3.75 52.65 -5.3 52.65 -8.45 52.65 -11 50.95 -12.65 49.2 -14.3 46.55 -14.3 43.85 -14.3 42.05 -12.6 40.3 -10.95 39.8 -7.6
L 35.2 -8.4
Q 36.05 -13 39 -15.55 42 -18.05 46.4 -18.05 49.5 -18.05 52.05 -16.75 54.6 -15.45 56 -13.2 57.35 -10.9 57.35 -8.35 57.35 -5.95 56.05 -3.95 54.75 -2 52.2 -0.8 55.5 -0.05 57.35 2.35 59.2 4.75 59.2 8.4 59.2 13.25 55.6 16.7 52.05 20.05 46.6 20.05 41.7 20.05 38.45 17.15 35.2 14.2 34.75 9.55 Z
M 15.15 13.35
L 15.15 3.15 5 3.15 5 -1.15 15.15 -1.15 15.15 -11.3 19.5 -11.3 19.5 -1.15 29.65 -1.15 29.65 3.15 19.5 3.15 19.5 13.35 15.15 13.35 Z
M -53.4 -13.05
L -53.4 -17.45 -29.2 -17.45 -29.2 -13.85
Q -32.8 -10.1 -36.25 -3.8 -39.8 2.5 -41.7 9.15 -43.05 13.85 -43.45 19.4
L -48.15 19.4
Q -48.1 15 -46.45 8.75 -44.8 2.5 -41.65 -3.25 -38.6 -9.05 -35.1 -13.05
L -53.4 -13.05 Z
M -24.7 1
Q -24.7 -5.6 -23.3 -9.65 -21.95 -13.7 -19.25 -15.9 -16.6 -18.05 -12.5 -18.05 -9.5 -18.05 -7.25 -16.85 -5 -15.65 -3.5 -13.35 -2.05 -11.1 -1.2 -7.8 -0.35 -4.55 -0.35 1 -0.35 7.55 -1.7 11.6 -3.05 15.65 -5.7 17.85 -8.4 20.05 -12.5 20.05 -17.9 20.05 -21 16.15 -24.7 11.5 -24.7 1 Z
M -20 1
Q -20 10.2 -17.8 13.25 -15.65 16.25 -12.5 16.25 -9.35 16.25 -7.2 13.2 -5.05 10.15 -5.05 1 -5.05 -8.2 -7.2 -11.25 -9.35 -14.3 -12.55 -14.3 -15.75 -14.3 -17.6 -11.6 -20 -8.2 -20 1 Z"/>

<path id="Q2_Blank_P4_0_Layer0_0_1_STROKES" stroke="#000000" stroke-width="2" stroke-linejoin="round" stroke-linecap="round" fill="none" d="
M -87.65 -11.7
Q -78.2 10.6 -67 26.8 -55.4 47.3 -36.35 60.3 -16.1 74.05 6.6 75.05 75.3 74.9 95.85 25.45 118.55 -30.2 55.4 -58.65 52.85 -59.8 34.75 -65.15 -33.35 -65 -100.4 -75 -100.4 -74.35 -100.4 -73.7 -100.45 -61.7 -101.75 -50.35 -101.8 -49.95 -101.85 -49.55 -93.95 -26.4 -87.65 -11.7 Z"/>

<path id="Symbol_1_11_Layer1_0_1_STROKES" stroke="#FFFFFF" stroke-width="0.5" stroke-linejoin="round" stroke-linecap="round" fill="none" d="
M 35 -13.05
L 35 -17.45 59.2 -17.45 59.2 -13.85
Q 55.6 -10.1 52.15 -3.8 48.6 2.5 46.7 9.15 45.35 13.85 44.95 19.4
L 40.25 19.4
Q 40.3 15 41.95 8.75 43.6 2.5 46.75 -3.25 49.8 -9.05 53.3 -13.05
L 35 -13.05 Z
M 15.15 13.35
L 15.15 3.15 5 3.15 5 -1.15 15.15 -1.15 15.15 -11.3 19.5 -11.3 19.5 -1.15 29.65 -1.15 29.65 3.15 19.5 3.15 19.5 13.35 15.15 13.35 Z
M -53.4 -13.05
L -53.4 -17.45 -29.2 -17.45 -29.2 -13.85
Q -32.8 -10.1 -36.25 -3.8 -39.8 2.5 -41.7 9.15 -43.05 13.85 -43.45 19.4
L -48.15 19.4
Q -48.1 15 -46.45 8.75 -44.8 2.5 -41.65 -3.25 -38.6 -9.05 -35.1 -13.05
L -53.4 -13.05 Z
M -24.7 1
Q -24.7 -5.6 -23.3 -9.65 -21.95 -13.7 -19.25 -15.9 -16.6 -18.05 -12.5 -18.05 -9.5 -18.05 -7.25 -16.85 -5 -15.65 -3.5 -13.35 -2.05 -11.1 -1.2 -7.8 -0.35 -4.55 -0.35 1 -0.35 7.55 -1.7 11.6 -3.05 15.65 -5.7 17.85 -8.4 20.05 -12.5 20.05 -17.9 20.05 -21 16.15 -24.7 11.5 -24.7 1 Z
M -20 1
Q -20 10.2 -17.8 13.25 -15.65 16.25 -12.5 16.25 -9.35 16.25 -7.2 13.2 -5.05 10.15 -5.05 1 -5.05 -8.2 -7.2 -11.25 -9.35 -14.3 -12.55 -14.3 -15.75 -14.3 -17.6 -11.6 -20 -8.2 -20 1 Z"/>

<path id="Layer0_4_1_STROKES" stroke="#000000" stroke-width="2" stroke-linejoin="round" stroke-linecap="round" fill="none" d="
M 349.5 242.4
Q 353.75 224.05 359.85 216.45 367.4 206.9 374.45 204.65 381.6 202.45 387.05 205.45 391.25 209.35 390.65 213.45 390.15 217.3 386.25 219.05 380 221.8 376.9 216.6 375.9 214.95 375.75 213.35 375.3 213.15 374.95 212.8 374.3 212.15 374.3 211.15 374.3 210.15 374.95 209.45 375.65 208.8 376.65 208.8 377.65 208.8 378.3 209.45 379 210.15 379 211.15 379 212.15 378.3 212.8 377.65 213.5 376.65 213.5 376.15 213.5 375.75 213.35
M 324.65 213.35
Q 325.1 213.15 325.45 212.8 326.1 212.15 326.1 211.15 326.1 210.15 325.45 209.45 324.7 208.8 323.7 208.8 322.7 208.8 322.1 209.45 321.35 210.15 321.35 211.15 321.35 212.15 322.1 212.8 322.7 213.5 323.7 213.5 324.2 213.5 324.65 213.35 324.5 214.95 323.5 216.6 320.35 221.8 314.15 219.05 310.2 217.3 309.75 213.45 309.15 209.35 313.3 205.45 325.3 198.9 333.7 210.3 340.55 219.6 341 241.75 342.2 241.65 343.4 241.65 346.65 241.65 349.5 242.4 352.9 243.25 355.65 245.25 360.7 249 360.7 254.15 360.7 259.3 355.65 262.95 352.55 265.25 348.6 266.15 349.85 274.5 350.6 282.6 351.1 288.5 351.35 294.2 351.6 299.85 351.6 305.3 351.55 317.3 350.25 328.65 349.55 334.9 348.4 340.95
L 344.85 382.45 341.5 340.95
Q 340.55 335.25 339.9 329.4 338.55 317.7 338.55 305.3 338.5 299.65 338.8 293.9 339 288.15 339.5 282.2 340.15 274.5 341.25 266.6 335.5 266.1 331.2 262.95 326.15 259.3 326.15 254.15 326.15 249 331.2 245.25 335.35 242.25 341 241.75
M 348.6 266.15
Q 346.2 266.65 343.4 266.65 342.3 266.65 341.25 266.6"/>
</defs>

<g transform="matrix( 1, 0, 0, 1, 178.15,204.4) ">
<g transform="matrix( 1, 0, 0, 1, -178.2,-204.4) ">
<use xlink:href="#Q2_Blank_P1_0_Layer0_0_1_STROKES"/>
</g>

<g transform="matrix( 1, 0, 0, 1, 23.4,33.8) ">
<g transform="matrix( 1, 0, 0, 1, 0,0) ">
<use xlink:href="#Symbol_1_8_Layer2_0_FILL"/>
</g>

<g transform="matrix( 1, 0, 0, 1, 0,0) ">
<use xlink:href="#Symbol_1_8_Layer1_0_FILL"/>

<use xlink:href="#Symbol_1_8_Layer1_0_1_STROKES"/>
</g>
</g>
</g>

<g transform="matrix( 1, 0, 0, 1, 511.8,204.4) ">
<g transform="matrix( 1, 0, 0, 1, 0,0) ">
<use xlink:href="#Q2_Blank_P2_0_Layer0_0_1_STROKES"/>
</g>

<g transform="matrix( 1, 0, 0, 1, -30.25,33.8) ">
<g transform="matrix( 1, 0, 0, 1, 0,0) ">
<use xlink:href="#Symbol_1_9_Layer2_0_FILL"/>
</g>

<g transform="matrix( 1, 0, 0, 1, 0,0) ">
<use xlink:href="#Symbol_1_9_Layer1_0_FILL"/>

<use xlink:href="#Symbol_1_9_Layer1_0_1_STROKES"/>
</g>
</g>
</g>

<g transform="matrix( 1, 0, 0, 1, 238.05,379) ">
<g transform="matrix( 1, 0, 0, 1, 0,0) ">
<use xlink:href="#Q2_Blank_P9_0_Layer0_0_1_STROKES"/>
</g>

<g transform="matrix( 1, 0, 0, 1, -12.25,-3.2) ">
<g transform="matrix( 1, 0, 0, 1, 0,0) ">
<use xlink:href="#Symbol_1_10_Layer2_0_FILL"/>
</g>

<g transform="matrix( 1, 0, 0, 1, 0,0) ">
<use xlink:href="#Symbol_1_10_Layer1_0_FILL"/>

<use xlink:href="#Symbol_1_10_Layer1_0_1_STROKES"/>
</g>
</g>
</g>

<g transform="matrix( 1, 0, 0, 1, 451.95,379) ">
<g transform="matrix( 1, 0, 0, 1, 0,0) ">
<use xlink:href="#Q2_Blank_P4_0_Layer0_0_1_STROKES"/>
</g>

<g transform="matrix( 1, 0, 0, 1, -1.55,-3.2) ">
<g transform="matrix( 1, 0, 0, 1, 0,0) ">
<use xlink:href="#Symbol_1_11_Layer2_0_FILL"/>
</g>

<g transform="matrix( 1, 0, 0, 1, 0,0) ">
<use xlink:href="#Symbol_1_11_Layer1_0_FILL"/>

<use xlink:href="#Symbol_1_11_Layer1_0_1_STROKES"/>
</g>
</g>
</g>

<g transform="matrix( 1, 0, 0, 1, -0.05,0) ">
<use xlink:href="#Layer0_4_FILL"/>

<use xlink:href="#Layer0_4_1_STROKES"/>
</g>
</svg>
