
<svg xmlns="http://www.w3.org/2000/svg" version="1.1" xmlns:xlink="http://www.w3.org/1999/xlink" preserveAspectRatio="none" x="0px" y="0px" width="1365px" height="350px" viewBox="0 0 1365 350">
<defs>
<g id="Layer0_0_FILL">
<path fill="#0029D0" stroke="none" d="
M 392.35 118
Q 390.05 120.8 390.05 125.8
L 390.05 160.9 355.65 160.9
Q 350.7 160.9 347.9 163.25 344.7 165.7 344.7 170.3 344.6 174.3 348.1 177.1 351 179.65 355.5 179.65
L 390.05 179.65 390.05 215.15
Q 390.05 219.3 392.45 222.35 392.5 222.45 392.6 222.55 395.45 225.8 399.3 225.75 403.85 225.75 406.4 222.5
L 406.35 222.5
Q 408.7 219.75 408.7 214.8
L 408.7 179.65 443.1 179.65
Q 448.05 179.65 450.85 177.3 454.05 174.65 454.05 170.3 454.05 166.2 450.8 163.45 447.7 160.9 443.25 160.9
L 408.7 160.9 408.7 125.55
Q 408.7 121.2 406.2 118.15 406.15 118.1 406.1 118.05
L 406.05 118.05
Q 403.15 114.7 399.3 114.75 394.9 114.75 392.5 117.85 392.45 117.9 392.35 118 Z"/>
</g>
</defs>

<g transform="matrix( 1, 0, 0, 1, 0,0) ">
<use xlink:href="#Layer0_0_FILL"/>
</g>
</svg>
