
<svg xmlns="http://www.w3.org/2000/svg" version="1.1" xmlns:xlink="http://www.w3.org/1999/xlink" preserveAspectRatio="none" x="0px" y="0px" width="485px" height="195px" viewBox="0 0 485 195">
<defs>
<g id="Symbol_7_2_Layer2_0_FILL">
<path fill="#FFFFFF" stroke="none" d="
M -40.3 -39.2
L -32.9 -46.5 -40.3 -53.95 -47.6 -46.7 -40.3 -39.2
M 54.45 -55.3
Q 49.35 -55.3 46.05 -52.2 42.7 -49.1 42.7 -43.75 42.7 -42.45 43.6 -40.15 44.55 -37.75 45.25 -37.05
L 47.8 -38
Q 47.8 -48.9 54.8 -48.9 59.85 -48.9 63.6 -44.6 67.8 -39.8 69.1 -30.7
L -79.75 -30.7 -76.25 -24.3 -61.35 -24.3 -61.35 -6.95
Q -61.35 -5.7 -62.15 -5.7
L -67.4 -5.7
Q -68 -5.7 -68.75 -4.95 -69.45 -4.15 -69.45 -3.25 -69.45 -0.85 -65.25 3.45 -64.35 4.4 -62.2 6.55 -59.4 9.1 -58.5 9.1 -56.9 9.1 -55.75 7.8 -54.55 6.55 -54.55 4.8
L -54.55 -24.3 -44.15 -24.3 -44.15 25.05 -37.5 29.15 -37.5 -24.3 -1.45 -24.3 -1.45 -16.95 -8.4 -16.95
Q -15.95 -16.95 -19.95 -14.95 -25.6 -12.1 -25.6 -5 -25.6 0.55 -21.3 5.8 -16.6 11.35 -9.25 13.3 -6.8 14.25 -4.6 14.45 -2.4 14.65 -0.5 14.65
L 10.55 35.4 14.7 32.95
Q 12.2 28.85 8.4 22 4.6 15.15 3.7 12.6 5.45 11.75 6.4 10.6 7.4 9.45 7.4 7.7 7.4 5.75 3.2 3.2 -0.95 0.65 -2.4 0.65 -3.4 0.65 -4.35 1.45 -5.25 2.3 -5.25 3.2 -5.25 3.85 -4.8 5.1 -4.35 6.4 -3.2 9.05
L -6.5 9.05
Q -11.5 9.05 -15.35 5.8 -19.25 2.55 -19.25 -2.25 -19.25 -6.6 -16.75 -8.55 -14.25 -10.55 -8.15 -10.55
L 3.2 -10.55
Q 5.45 -10.55 5.45 -12.5
L 5.45 -24.3 28.45 -24.3 28.45 -6.95
Q 28.45 -5.7 27.65 -5.7
L 22.4 -5.7
Q 21.8 -5.7 21.05 -4.95 20.35 -4.15 20.35 -3.25 20.35 -0.85 24.55 3.45 25.45 4.4 27.6 6.55 30.4 9.1 31.3 9.1 32.9 9.1 34.05 7.8 35.25 6.55 35.25 4.8
L 35.25 -24.3 45.65 -24.3 45.65 25.05 52.3 29.15 52.3 -24.3 67.7 -24.3 67.7 25.15 74.45 29.15 74.45 -24.3 85.15 -24.3 81.65 -30.7 72.6 -30.7
Q 70.95 -42.95 65.85 -49.4 61.2 -55.3 54.45 -55.3 Z"/>
</g>

<g id="Symbol_7_2_Layer1_0_FILL">
<path fill="#000000" stroke="none" d="
M -50.25 -47.2
L -42.95 -39.7 -35.55 -47 -42.95 -54.45 -50.25 -47.2
M 63.2 -49.9
Q 58.55 -55.8 51.8 -55.8 46.7 -55.8 43.4 -52.7 40.05 -49.6 40.05 -44.25 40.05 -42.95 40.95 -40.65 41.9 -38.25 42.6 -37.55
L 45.15 -38.5
Q 45.15 -49.4 52.15 -49.4 57.2 -49.4 60.95 -45.1 65.15 -40.3 66.45 -31.2
L -82.4 -31.2 -78.9 -24.8 -64 -24.8 -64 -7.45
Q -64 -6.2 -64.8 -6.2
L -70.05 -6.2
Q -70.65 -6.2 -71.4 -5.45 -72.1 -4.65 -72.1 -3.75 -72.1 -1.35 -67.9 2.95 -67 3.9 -64.85 6.05 -62.05 8.6 -61.15 8.6 -59.55 8.6 -58.4 7.3 -57.2 6.05 -57.2 4.3
L -57.2 -24.8 -46.8 -24.8 -46.8 24.55 -40.15 28.65 -40.15 -24.8 -4.1 -24.8 -4.1 -17.45 -11.05 -17.45
Q -18.6 -17.45 -22.6 -15.45 -28.25 -12.6 -28.25 -5.5 -28.25 0.05 -23.95 5.3 -19.25 10.85 -11.9 12.8 -9.45 13.75 -7.25 13.95 -5.05 14.15 -3.15 14.15
L 7.9 34.9 12.05 32.45
Q 9.55 28.35 5.75 21.5 1.95 14.65 1.05 12.1 2.8 11.25 3.75 10.1 4.75 8.95 4.75 7.2 4.75 5.25 0.55 2.7 -3.6 0.15 -5.05 0.15 -6.05 0.15 -7 0.95 -7.9 1.8 -7.9 2.7 -7.9 3.35 -7.45 4.6 -7 5.9 -5.85 8.55
L -9.15 8.55
Q -14.15 8.55 -18 5.3 -21.9 2.05 -21.9 -2.75 -21.9 -7.1 -19.4 -9.05 -16.9 -11.05 -10.8 -11.05
L 0.55 -11.05
Q 2.8 -11.05 2.8 -13
L 2.8 -24.8 25.8 -24.8 25.8 -7.45
Q 25.8 -6.2 25 -6.2
L 19.75 -6.2
Q 19.15 -6.2 18.4 -5.45 17.7 -4.65 17.7 -3.75 17.7 -1.35 21.9 2.95 22.8 3.9 24.95 6.05 27.75 8.6 28.65 8.6 30.25 8.6 31.4 7.3 32.6 6.05 32.6 4.3
L 32.6 -24.8 43 -24.8 43 24.55 49.65 28.65 49.65 -24.8 65.05 -24.8 65.05 24.65 71.8 28.65 71.8 -24.8 82.5 -24.8 79 -31.2 69.95 -31.2
Q 68.3 -43.45 63.2 -49.9 Z"/>
</g>
</defs>

<g transform="matrix( 1.1999969482421875, 0, 0, 1.1999969482421875, 242.55,98.4) ">
<g transform="matrix( 1.0010986328125, 0, 0, 1.0010986328125, 0.55,0) ">
<g transform="matrix( 1, 0, 0, 1, 0,0) ">
<use xlink:href="#Symbol_7_2_Layer2_0_FILL"/>
</g>

<g transform="matrix( 1, 0, 0, 1, 0,0) ">
<use xlink:href="#Symbol_7_2_Layer1_0_FILL"/>
</g>
</g>
</g>
</svg>
