
<svg xmlns="http://www.w3.org/2000/svg" version="1.1" xmlns:xlink="http://www.w3.org/1999/xlink" preserveAspectRatio="none" x="0px" y="0px" width="217px" height="217px" viewBox="0 0 217 217">
<defs>
<g id="Symbol_76_3_Layer2_0_FILL">
<path fill="#FFFFFF" stroke="none" d="
M 15.1 -35.3
L 15.1 -24.5 4.9 -24.5
Q -6.25 -24.5 -12.1 -21.5 -20.35 -17.35 -20.35 -6.95 -20.35 1.25 -14.05 8.95 -7.2 17.15 3.65 20 7.25 21.4 10.45 21.7 13.7 22 16.55 22
L 32.75 52.45 38.9 48.85
Q 35.15 42.85 29.6 32.75 24 22.7 22.7 19 25.25 17.75 26.65 16.05 28.1 14.3 28.1 11.75 28.1 8.9 21.95 5.15 15.8 1.4 13.7 1.4 12.25 1.4 10.85 2.6 9.5 3.8 9.5 5.15 9.5 6.1 10.2 7.9 10.85 9.85 12.5 13.7
L 7.7 13.7
Q 0.35 13.7 -5.35 8.95 -11.05 4.2 -11.05 -2.85 -11.05 -9.3 -7.4 -12.15 -3.75 -15.05 5.25 -15.05
L 21.95 -15.05
Q 25.25 -15.05 25.25 -17.95
L 25.25 -35.3 42.35 -35.3 37.2 -44.75 -35.95 -44.75 -30.85 -35.3 15.1 -35.3 Z"/>
</g>

<g id="Symbol_76_3_Layer1_0_FILL">
<path fill="#000000" stroke="none" d="
M 38.9 -35.35
L 33.75 -44.8 -39.4 -44.8 -34.3 -35.35 11.65 -35.35 11.65 -24.55 1.45 -24.55
Q -9.7 -24.55 -15.55 -21.55 -23.8 -17.4 -23.8 -7 -23.8 1.2 -17.5 8.9 -10.65 17.1 0.2 19.95 3.8 21.35 7 21.65 10.25 21.95 13.1 21.95
L 29.3 52.4 35.45 48.8
Q 31.7 42.8 26.15 32.7 20.55 22.65 19.25 18.95 21.8 17.7 23.2 16 24.65 14.25 24.65 11.7 24.65 8.85 18.5 5.1 12.35 1.35 10.25 1.35 8.8 1.35 7.4 2.55 6.05 3.75 6.05 5.1 6.05 6.05 6.75 7.85 7.4 9.8 9.05 13.65
L 4.25 13.65
Q -3.1 13.65 -8.8 8.9 -14.5 4.15 -14.5 -2.9 -14.5 -9.35 -10.85 -12.2 -7.2 -15.1 1.8 -15.1
L 18.5 -15.1
Q 21.8 -15.1 21.8 -18
L 21.8 -35.35 38.9 -35.35 Z"/>
</g>
</defs>

<g transform="matrix( 1.18182373046875, 0, 0, 1.18182373046875, 106.75,107.2) ">
<g transform="matrix( 1, 0, 0, 1, 0,0) ">
<use xlink:href="#Symbol_76_3_Layer2_0_FILL"/>
</g>

<g transform="matrix( 1, 0, 0, 1, 0,0) ">
<use xlink:href="#Symbol_76_3_Layer1_0_FILL"/>
</g>
</g>
</svg>
