
<svg xmlns="http://www.w3.org/2000/svg" version="1.1" xmlns:xlink="http://www.w3.org/1999/xlink" preserveAspectRatio="none" x="0px" y="0px" width="1725px" height="210px" viewBox="0 0 1725 210">
<defs>
<g id="Symbol_12_1_Layer2_0_FILL">
<path fill="#000000" stroke="none" d="
M 253.6 -28.9
L 245.45 -34.1 245.45 33.15 253.6 38.3 253.6 -28.9
M 191.7 -65
Q 189.6 -65 188.3 -64.9 186.85 -64.8 186.85 -64.3 187 -63.95 189.9 -59.05 190.75 -57.45 192.65 -54.35 193.35 -54.7 193.95 -55.15 194.95 -55.15 195.9 -55.15 197.5 -55.15 199.8 -53.55 202.2 -51.95 203.8 -49.45 205.05 -47.25 206.95 -42.55 208.631640625 -38.6400390625 210.95 -32.75
L 208.2 -32.75
Q 207.3453125 -34.355078125 206.1 -36.6 202.5 -43 201.05 -45.15 199.1 -47.9 196.6 -49.1 194.1 -50.3 191.9 -50.3 191.55 -50.3 189.8 -50.2 188.1 -50.05 188.1 -49.7
L 192.65 -40.75
Q 193.35 -41.05 193.75 -41.4 194.55 -41.4 195.3 -41.4 196.5 -41.4 198.55 -40.45 200.6 -39.45 201.65 -37.75 202.18984375 -36.7193359375 204.8 -32.75
L 161.55 -32.75 165.5 -25.15 203.9 -25.15 203.9 -15.9 184.1 -15.9
Q 178.85 -15.9 176.3 -13.3 173.8 -10.65 173.8 -6.2 173.8 -3.8 175.85 -0.05 177.9 3.75 181.35 7.25 179.2 9.4 178 12.05 176.75 14.65 176.75 18.25 176.75 27.4 186.4 33.6 194.05 38.65 208.35 42.15
L 209.3 38.85
Q 196.6 34.7 190.55 29.8 185.15 25.35 185.15 20.4 185.15 15.6 189.6 10.9 194.65 5.65 201.6 5.65 204.6 5.65 207.35 7.9 210.1 10.1 210.1 13.2 210.1 19.6 201.4 21.25
L 205.85 28.1
Q 212.15 26.15 214.75 23.25 217.3 20.3 217.3 15.85 217.3 10.1 211.15 4.95 204.95 -0.2 199.45 -0.2 195.6 -0.2 191.7 0.75 187.8 1.7 184.35 4.15 182.4 2.65 181.1 0.8 179.9 -1.15 179.9 -3.1 179.9 -5.35 181.75 -6.9 183.65 -8.45 185.6 -8.45
L 209.3 -8.45
Q 211.95 -8.45 211.95 -11.1
L 211.95 -25.15 229.2 -25.15 225.1 -32.75 214.55 -32.75
Q 213.4232421875 -35.8822265625 209.65 -44.7 205.15 -55.4 203 -58.65 200.8 -61.9 197.2 -63.65 194.45 -65 191.7 -65
M -263.25 -32.75
L -259.15 -25.15 -237.7 -25.15
Q -235 -20.25 -234.45 -19.1 -233.95 -17.85 -233.95 -16.25 -233.95 -12.35 -238.55 -9.35 -243.2 -6.3 -251.1 -4.9 -248.6 4.7 -242.85 10.35 -235.9 17.2 -225.45 17.2 -222.05 17.2 -217.9 15.25 -213.65 13.35 -210.9 10.55
L -211.4 33 -202.9 37.7 -202.9 -25.15 -192.7 -25.15 -196.75 -32.75 -205.85 -32.75
Q -206.9556640625 -35.9091796875 -210.7 -44.7 -215.2 -55.4 -217.35 -58.65 -219.55 -61.9 -223.15 -63.65 -225.9 -65 -228.65 -65 -230.75 -65 -232.05 -64.9 -233.5 -64.8 -233.5 -64.3 -233.35 -63.95 -230.45 -59.05 -229.6 -57.45 -227.7 -54.35 -227 -54.7 -226.4 -55.15 -225.4 -55.15 -224.45 -55.15 -222.85 -55.15 -220.55 -53.55 -218.15 -51.95 -216.55 -49.45 -215.3 -47.25 -213.4 -42.55 -211.718359375 -38.6400390625 -209.4 -32.75
L -263.25 -32.75
M -230.95 -3.9
Q -226.6 -7.2 -226.6 -11.45 -226.6 -13.85 -228.1 -17.6 -229.5 -21.3 -231.65 -25.15
L -211.4 -25.15 -210.9 1
Q -216.7 5.85 -221.05 8.1 -226.9 11.2 -232.6 11.2 -237.15 11.2 -239.4 8.45 -241.6 5.7 -241.6 1.15 -234.55 -1.15 -230.95 -3.9
M 124.65 74.9
Q 124.25 74.5 123.9 74.1 123.35 73.7 122.85 73.35 122 73.1 121.05 72.8 -21.05 72.8 -163.2 72.8 -163.2 72.95 -163.2 73.1 -163.95 73.1 -164.6 73.1 -165.2 73.35 -165.7 73.6 -166.2 74 -166.7 74.35 -166.7 74.75 -166.7 75.2 -166.7 75.55 -166.7 75.95 -166.55 76.35 -166.4 76.7 -165.85 77.1 -165.35 77.55 -164.25 77.8 -163.2 78.05 -21.05 78.05 121.05 78.05 121.85 77.9 122.5 77.8 123.05 77.55 123.55 77.25 123.9 76.85 124.25 76.45 124.45 76.1 124.65 75.7 124.65 75.3 124.65 74.9 Z"/>
</g>
</defs>

<g transform="matrix( 1, 0, 0, 1, 862.5,105) ">
<g transform="matrix( 1, 0, 0, 1, 0,0) ">
<use xlink:href="#Symbol_12_1_Layer2_0_FILL"/>
</g>
</g>
</svg>
