
<svg xmlns="http://www.w3.org/2000/svg" version="1.1" xmlns:xlink="http://www.w3.org/1999/xlink" preserveAspectRatio="none" x="0px" y="0px" width="380px" height="217px" viewBox="0 0 380 217">
<defs>
<g id="Symbol_1_0_Layer1_0_FILL">
<path fill="#000000" stroke="none" d="
M 25.25 -44.2
Q 31.4 -44.2 36.05 -38.95 41.2 -33 42.75 -21.9
L -62.45 -21.9 -58.1 -14.05 -14.55 -14.05 -14.8 9.2
Q -16.45 6.85 -18.2 4.65 -20.05 2.45 -22.2 0.65 -24.35 -1.05 -27.25 -1.7 -30.2 -2.3 -33.6 -2.3 -42.45 -2.3 -46.95 3.55 -49.95 7.45 -49.95 11.65 -49.95 19.9 -43.9 25.9 -37.95 31.8 -29.8 31.8 -25.6 31.8 -21.9 30.05 -20.3 29.3 -14.55 25.7
L -14.2 46.55 -6.1 51.45 -6.1 20.1
Q -1.8 16.5 2.45 14.1 6.8 11.7 9.2 11.7 12.3 11.7 14.25 13.55 16.2 15.3 16.2 18.6 16.2 22.6 13.9 27.85 11.55 33.1 7.9 38.1
L 15.05 44.55
Q 22.55 33.1 22.55 25.55 22.55 15.05 16.7 8.75 12.05 3.7 7.05 3.7 3.8 3.7 0.6 5.5 -1.95 6.85 -6.1 10.05
L -6.1 -14.05 41.05 -14.05 41.05 46.55 49.3 51.45 49.3 -14.05 62.4 -14.05 58.15 -21.9 47.05 -21.9
Q 45 -36.95 38.8 -44.8 33.05 -52.05 24.8 -52.05 18.55 -52.05 14.5 -48.2 10.4 -44.45 10.4 -37.9 10.4 -36.3 11.5 -33.45 12.65 -30.5 13.55 -29.65
L 16.65 -30.85
Q 16.65 -44.2 25.25 -44.2
M -31.95 5.45
Q -25.95 5.45 -22.25 7.65 -18.6 9.8 -14.55 15.45 -20.15 19.75 -25.35 22.3 -30.6 24.8 -34.45 24.8 -38.35 24.8 -41 22.5 -43.6 20.25 -43.6 16.4 -43.6 11.15 -40.05 8.3 -36.45 5.45 -31.95 5.45 Z"/>
</g>
</defs>

<g transform="matrix( 0.92156982421875, 0, 0, 0.92156982421875, 190,108.5) ">
<g transform="matrix( 1, 0, 0, 1, -0.05,4.5) ">
<g transform="matrix( 1, 0, 0, 1, 0,0) ">
<use xlink:href="#Symbol_1_0_Layer1_0_FILL"/>
</g>
</g>
</g>
</svg>
