
<svg xmlns="http://www.w3.org/2000/svg" version="1.1" xmlns:xlink="http://www.w3.org/1999/xlink" preserveAspectRatio="none" x="0px" y="0px" width="68px" height="68px" viewBox="0 0 68 68">
<defs>
<g id="Symbol_1_5_Layer0_0_FILL">
<path fill="#38B64A" stroke="none" d="
M 32 -3.8
Q 31.85 -2.2 31.55 -0.75 29.7 8.3 22.8 15.15 13.35 24.6 0 24.6 -13.35 24.6 -22.7 15.15 -29.6 8.3 -31.5 -0.75 -31.75 -2.2 -31.95 -3.8 -32.15 -1.9 -32.15 0 -32.15 1.55 -32.05 3 -31.05 14.45 -22.7 22.75 -13.35 32.2 0 32.2 13.35 32.2 22.8 22.75 31.1 14.45 32.05 3.05 32.2 1.55 32.2 0 32.2 -1.9 32 -3.8 Z"/>

<path fill="#50D062" stroke="none" d="
M 31.55 -0.75
Q 29.7 -9.75 22.8 -16.65 13.35 -26.05 0 -26.05 -13.35 -26.05 -22.7 -16.65 -29.6 -9.75 -31.5 -0.75 -29.6 8.3 -22.7 15.15 -13.35 24.6 0 24.6 13.35 24.6 22.8 15.15 29.7 8.3 31.55 -0.75 Z"/>

<path fill="#68EC7A" stroke="none" d="
M 32 -3.8
Q 30.85 -14.7 22.8 -22.7 13.35 -32.15 0 -32.15 -13.35 -32.15 -22.7 -22.7 -30.75 -14.7 -31.95 -3.8 -31.75 -2.2 -31.5 -0.75 -29.6 -9.75 -22.7 -16.65 -13.35 -26.05 0 -26.05 13.35 -26.05 22.8 -16.65 29.7 -9.75 31.55 -0.75 31.85 -2.2 32 -3.8 Z"/>
</g>

<g id="Symbol_1_5_Layer0_1_FILL">
<path fill="#FFFFFF" stroke="none" d="
M 18.95 -3.15
Q 19.1 -5.85 16.6 -5.85
L -2.3 -5.85 -2.3 -13.2
Q -2.3 -15.55 -4.1 -14.2
L -19.2 -1.65
Q -20.05 -0.6 -19.2 0.5
L -4.15 12.95
Q -2.75 13.5 -2.3 12.35
L -2.3 4.75 17.25 4.75
Q 18.8 4.55 18.95 3
L 18.95 -3.15 Z"/>
</g>

<path id="Symbol_1_5_Layer0_0_1_STROKES" stroke="#002511" stroke-width="2" stroke-linejoin="round" stroke-linecap="round" fill="none" d="
M 32 -3.8
Q 30.85 -14.7 22.8 -22.7 13.35 -32.15 0 -32.15 -13.35 -32.15 -22.7 -22.7 -30.75 -14.7 -31.95 -3.8
M 32 -3.8
Q 32.2 -1.9 32.2 0 32.2 1.55 32.05 3.05 31.1 14.45 22.8 22.75 13.35 32.2 0 32.2 -13.35 32.2 -22.7 22.75 -31.05 14.45 -32.05 3 -32.15 1.55 -32.15 0 -32.15 -1.9 -31.95 -3.8"/>

<path id="Symbol_1_5_Layer0_1_1_STROKES" stroke="#FFFFFF" stroke-width="2" stroke-linejoin="round" stroke-linecap="round" fill="none" d="
M -2.3 -5.85
L -2.3 -13.2
Q -2.3 -15.55 -4.1 -14.2
L -19.2 -1.65
Q -20.05 -0.6 -19.2 0.5
L -4.15 12.95
Q -2.75 13.5 -2.3 12.35
L -2.3 4.75 17.25 4.75
Q 18.8 4.55 18.95 3
L 18.95 -3.15
Q 19.1 -5.85 16.6 -5.85
L -2.3 -5.85 Z"/>
</defs>

<g id="Layer_1">
<g transform="matrix( 1, 0, 0, 1, 34,34) ">
<g transform="matrix( 1, 0, 0, 1, 0,0) ">
<use xlink:href="#Symbol_1_5_Layer0_0_FILL"/>

<use xlink:href="#Symbol_1_5_Layer0_0_1_STROKES"/>
</g>

<g transform="matrix( 1, 0, 0, 1, 0,0) ">
<use xlink:href="#Symbol_1_5_Layer0_1_FILL"/>

<use xlink:href="#Symbol_1_5_Layer0_1_1_STROKES"/>
</g>
</g>
</g>
</svg>
