
<svg xmlns="http://www.w3.org/2000/svg" version="1.1" xmlns:xlink="http://www.w3.org/1999/xlink" preserveAspectRatio="none" x="0px" y="0px" width="278px" height="216px" viewBox="0 0 278 216">
<defs>
<g id="Layer0_0_FILL">
<path fill="#0E0E0E" stroke="none" d="
M 419.7 279.8
Q 419.7 283.6 415.5 287.8 408.1 295.25 400.95 295.25 397.75 295.25 393.55 293.85 383.75 288.9 383.75 276.3 383.75 268.1 388.55 262 393.35 256.05 401.75 256.05
L 404.75 256.05 407.7 257.25 408.75 258.1 410.7 258.6 410.7 249.9
Q 409.35 249.05 405.35 248.55
L 399.85 248.05 394.5 248.65
Q 386.5 250.5 380.55 255.85 372.35 263.3 372.35 275.2 372.35 287 381.1 294.95 389.9 302.85 401.15 302.85 412.3 302.85 419.7 295.4
L 419.7 325 430.15 325 430.15 282.25
Q 430.15 279.1 431.7 274.7 433.95 269.95 436.1 266.9 443.15 258.1 451.35 258.1 460.9 258.1 464.5 265.15 466.5 269.25 466.5 274.9 466.5 278.9 464.35 284.5 459.75 294.85 451.35 303.25 449.5 305 448.1 305.5
L 456.7 312 467.15 300
Q 477.5 287 477.5 275.7 477.5 264.45 469.7 257.55 461.3 249.9 450.15 249.9 442.35 249.9 436.1 254.8
L 430.15 260.15 430.15 230 487.75 230 487.75 221.8 358.65 221.8 358.65 230 419.7 230 419.7 279.8 Z"/>
</g>
</defs>

<g transform="matrix( 1.11614990234375, 0, 0, 1.11614990234375, -336.5,-200.2) ">
<use xlink:href="#Layer0_0_FILL"/>
</g>
</svg>
