
<svg xmlns="http://www.w3.org/2000/svg" version="1.1" xmlns:xlink="http://www.w3.org/1999/xlink" preserveAspectRatio="none" x="0px" y="0px" width="485px" height="195px" viewBox="0 0 485 195">
<defs>
<g id="Symbol_7_5_Layer2_0_FILL">
<path fill="#FFFFFF" stroke="none" d="
M 37.65 -6.3
Q 33.55 -5.1 31.65 -3.05 29.75 -0.95 29.75 3.25 29.75 10.9 36.35 17.3 42.9 23.65 51.4 23.65 56.6 23.65 61.7 22 66.8 20.3 70.35 18.25
L 67.35 12.05
Q 60.7 15.2 56 16.6 51.4 17.95 46.9 17.95 42.6 17.95 39.4 14.8 36.1 11.6 36.1 7.25 36.1 0.6 42.7 -0.75 52.15 -2.5 57.1 -3.85 59.45 -4.6 60.25 -5.95 61 -7.35 61 -11.55 60.9 -14.6 60.75 -17.9 60.65 -21.2 60.65 -24.8
L 86.25 -24.8
Q 86.25 -24.1 86.55 -22.35 86.65 -21 86.65 -17.95 86.65 -8.8 86.3 -6.2 85.95 -3.55 85.2 -3.55 84.7 -3.55 81.65 -5.25 78.55 -6.95 78.05 -6.95 76.8 -6.95 75.8 -5.6 74.75 -4.3 74.75 -3 74.75 -2 75.7 -0.25 77 2.2 79.9 5.8 83.75 10.5 89.75 17.15 95.8 23.75 101.3 29.5
L 104.45 25.8
Q 99.85 21.25 95.3 16.65 86.05 7.25 86.05 6.45 86.05 5.7 86.6 5.15 87.1 4.6 89.45 3.05 91 2.15 92.25 -0.25 93.55 -2.65 93.55 -5.1
L 93.55 -24.8 107.2 -24.8 103.75 -31.2 -100.65 -31.2 -97.25 -24.8 -66.25 -24.8
Q -66.15 -22.95 -65.95 -21.2 -65.8 -19.45 -65.8 -17.3 -65.8 -12.85 -66.4 -11.4 -67.05 -9.9 -68.55 -9.7
L -82.35 -6.3
Q -86.45 -5.1 -88.35 -3.05 -90.25 -0.95 -90.25 3.25 -90.25 10.9 -83.65 17.3 -77.1 23.65 -68.6 23.65 -63.4 23.65 -58.3 22 -53.2 20.3 -49.65 18.25
L -52.65 12.05
Q -59.3 15.2 -64 16.6 -68.6 17.95 -73.1 17.95 -77.4 17.95 -80.6 14.8 -83.9 11.6 -83.9 7.25 -83.9 0.6 -77.3 -0.75 -67.85 -2.5 -62.9 -3.85 -60.55 -4.6 -59.75 -5.95 -59 -7.35 -59 -11.55 -59.1 -14.6 -59.25 -17.9 -59.35 -21.2 -59.35 -24.8
L -38 -24.8 -38 -2.15 -43 -2.15
Q -43.95 -2.15 -44.6 -1.3 -45.25 -0.4 -45.25 0.4 -45.25 1.75 -40.15 7.15 -35.05 12.5 -33.4 12.5 -31.1 12.5 -31.1 9.55
L -31.1 4.4 -10.1 4.4 -10.4 24.65 -3.3 28.65 -3.3 -24.8 10.85 -24.8 10.85 24.65 17.7 28.65 17.7 -24.8 53.75 -24.8
Q 53.85 -22.95 54.05 -21.2 54.2 -19.45 54.2 -17.3 54.2 -12.85 53.6 -11.4 52.95 -9.9 51.45 -9.7
L 37.65 -6.3
M -10.1 -2.15
L -31.1 -2.15 -31.1 -24.8 -10.1 -24.8 -10.1 -2.15 Z"/>
</g>

<g id="Symbol_7_5_Layer1_0_FILL">
<path fill="#000000" stroke="none" d="
M 34.9 -6.3
Q 30.8 -5.1 28.9 -3.05 27 -0.95 27 3.25 27 10.9 33.6 17.3 40.15 23.65 48.65 23.65 53.85 23.65 58.95 22 64.05 20.3 67.6 18.25
L 64.6 12.05
Q 57.95 15.2 53.25 16.6 48.65 17.95 44.15 17.95 39.85 17.95 36.65 14.8 33.35 11.6 33.35 7.25 33.35 0.6 39.95 -0.75 49.4 -2.5 54.35 -3.85 56.7 -4.6 57.5 -5.95 58.25 -7.35 58.25 -11.55 58.15 -14.6 58 -17.9 57.9 -21.2 57.9 -24.8
L 83.5 -24.8
Q 83.5 -24.1 83.8 -22.35 83.9 -21 83.9 -17.95 83.9 -8.8 83.55 -6.2 83.2 -3.55 82.45 -3.55 81.95 -3.55 78.9 -5.25 75.8 -6.95 75.3 -6.95 74.05 -6.95 73.05 -5.6 72 -4.3 72 -3 72 -2 72.95 -0.25 74.25 2.2 77.15 5.8 81 10.5 87 17.15 93.05 23.75 98.55 29.5
L 101.7 25.8
Q 97.1 21.25 92.55 16.65 83.3 7.25 83.3 6.45 83.3 5.7 83.85 5.15 84.35 4.6 86.7 3.05 88.25 2.15 89.5 -0.25 90.8 -2.65 90.8 -5.1
L 90.8 -24.8 104.45 -24.8 101 -31.2 -103.4 -31.2 -100 -24.8 -69 -24.8
Q -68.9 -22.95 -68.7 -21.2 -68.55 -19.45 -68.55 -17.3 -68.55 -12.85 -69.15 -11.4 -69.8 -9.9 -71.3 -9.7
L -85.1 -6.3
Q -89.2 -5.1 -91.1 -3.05 -93 -0.95 -93 3.25 -93 10.9 -86.4 17.3 -79.85 23.65 -71.35 23.65 -66.15 23.65 -61.05 22 -55.95 20.3 -52.4 18.25
L -55.4 12.05
Q -62.05 15.2 -66.75 16.6 -71.35 17.95 -75.85 17.95 -80.15 17.95 -83.35 14.8 -86.65 11.6 -86.65 7.25 -86.65 0.6 -80.05 -0.75 -70.6 -2.5 -65.65 -3.85 -63.3 -4.6 -62.5 -5.95 -61.75 -7.35 -61.75 -11.55 -61.85 -14.6 -62 -17.9 -62.1 -21.2 -62.1 -24.8
L -40.75 -24.8 -40.75 -2.15 -45.75 -2.15
Q -46.7 -2.15 -47.35 -1.3 -48 -0.4 -48 0.4 -48 1.75 -42.9 7.15 -37.8 12.5 -36.15 12.5 -33.85 12.5 -33.85 9.55
L -33.85 4.4 -12.85 4.4 -13.15 24.65 -6.05 28.65 -6.05 -24.8 8.1 -24.8 8.1 24.65 14.95 28.65 14.95 -24.8 51 -24.8
Q 51.1 -22.95 51.3 -21.2 51.45 -19.45 51.45 -17.3 51.45 -12.85 50.85 -11.4 50.2 -9.9 48.7 -9.7
L 34.9 -6.3
M -12.85 -2.15
L -33.85 -2.15 -33.85 -24.8 -12.85 -24.8 -12.85 -2.15 Z"/>
</g>
</defs>

<g transform="matrix( 1.1999969482421875, 0, 0, 1.1999969482421875, 242.55,98.4) ">
<g transform="matrix( 1.0010986328125, 0, 0, 1.0010986328125, 0.55,0) ">
<g transform="matrix( 1, 0, 0, 1, 0,0) ">
<use xlink:href="#Symbol_7_5_Layer2_0_FILL"/>
</g>

<g transform="matrix( 1, 0, 0, 1, 0,0) ">
<use xlink:href="#Symbol_7_5_Layer1_0_FILL"/>
</g>
</g>
</g>
</svg>
