
<svg xmlns="http://www.w3.org/2000/svg" version="1.1" xmlns:xlink="http://www.w3.org/1999/xlink" preserveAspectRatio="none" x="0px" y="0px" width="485px" height="195px" viewBox="0 0 485 195">
<defs>
<g id="Symbol_7_3_Layer2_0_FILL">
<path fill="#FFFFFF" stroke="none" d="
M -35.9 -50.3
Q -35.05 -50.3 -34.25 -50.3 -32.9 -50.3 -30.9 -48.9 -28.9 -47.55 -27.55 -45.4 -26.5 -43.55 -24.85 -39.6 -23.4189453125 -36.2326171875 -21.45 -31.2
L -78.4 -31.2 -74.9 -24.8 -60 -24.8 -60 -7.45
Q -60 -6.2 -60.8 -6.2
L -66.05 -6.2
Q -66.65 -6.2 -67.4 -5.45 -68.1 -4.65 -68.1 -3.75 -68.1 -1.35 -63.9 2.95 -63 3.9 -60.85 6.05 -58.05 8.6 -57.15 8.6 -55.55 8.6 -54.4 7.3 -53.2 6.05 -53.2 4.3
L -53.2 -24.8 -42.8 -24.8 -42.8 24.55 -36.15 28.65 -36.15 -24.8 -22.8 -24.8 -22.8 24.65 -15.95 28.65 -15.95 -24.8 -7.3 -24.8 -10.7 -31.2 -18.4 -31.2
Q -19.3595703125 -33.8740234375 -22.55 -41.4 -26.4 -50.5 -28.25 -53.25 -30.05 -56 -33.15 -57.5 -35.5 -58.65 -37.85 -58.65 -39.6 -58.65 -40.75 -58.55 -41.95 -58.45 -41.95 -58.05 -41.85 -57.75 -39.35 -53.6 -38.65 -52.25 -37 -49.6 -36.4 -49.9 -35.9 -50.3
M 59.1 -49.9
Q 54.45 -55.8 47.7 -55.8 42.6 -55.8 39.3 -52.7 35.95 -49.6 35.95 -44.25 35.95 -42.95 36.85 -40.65 37.8 -38.25 38.5 -37.55
L 41.05 -38.5
Q 41.05 -49.4 48.05 -49.4 53.1 -49.4 56.85 -45.1 61.05 -40.3 62.35 -31.2
L 20.25 -31.2 23.6 -24.8 38 -24.8 38 -2.2 19 -2.2 19 -14.65
Q 19 -23.7 14.9 -28.3 11.45 -32.15 5.85 -32.15 1.05 -32.15 -1.4 -28.85 -3.35 -26.35 -3.35 -22.6 -3.35 -18.3 -0.6 -15.35 3.1 -11.45 12.45 -8.7
L 12.05 -2.2 7.1 -2.2
Q 6.15 -2.2 5.5 -1.35 4.85 -0.45 4.85 0.35 4.85 2.2 10.15 6.85 15.55 11.4 16.95 11.4 17.55 11.4 18.3 10.9 19 10.35 19 9.55
L 19 3.65 38 3.65 38 24.65 44.85 28.65 44.85 -24.8 60.95 -24.8 60.95 24.65 67.7 28.65 67.7 -24.8 78.4 -24.8 74.9 -31.2 65.85 -31.2
Q 64.2 -43.45 59.1 -49.9
M 4.9 -25.25
Q 6.15 -27.1 8.4 -27.1 10.75 -27.1 12 -25.55 13.3 -24 13.3 -19.5 13.3 -15.95 12.85 -12.8 9.5 -13.2 6.55 -15.55 3.6 -17.85 3.6 -21.05 3.6 -23.4 4.9 -25.25 Z"/>
</g>

<g id="Symbol_7_3_Layer1_0_FILL">
<path fill="#000000" stroke="none" d="
M 59.1 -49.9
Q 54.45 -55.8 47.7 -55.8 42.6 -55.8 39.3 -52.7 35.95 -49.6 35.95 -44.25 35.95 -42.95 36.85 -40.65 37.8 -38.25 38.5 -37.55
L 41.05 -38.5
Q 41.05 -49.4 48.05 -49.4 53.1 -49.4 56.85 -45.1 61.05 -40.3 62.35 -31.2
L 20.25 -31.2 23.6 -24.8 38 -24.8 38 -2.2 19 -2.2 19 -14.65
Q 19 -23.7 14.9 -28.3 11.45 -32.15 5.85 -32.15 1.05 -32.15 -1.4 -28.85 -3.35 -26.35 -3.35 -22.6 -3.35 -18.3 -0.6 -15.35 3.1 -11.45 12.45 -8.7
L 12.05 -2.2 7.1 -2.2
Q 6.15 -2.2 5.5 -1.35 4.85 -0.45 4.85 0.35 4.85 2.2 10.15 6.85 15.55 11.4 16.95 11.4 17.55 11.4 18.3 10.9 19 10.35 19 9.55
L 19 3.65 38 3.65 38 24.65 44.85 28.65 44.85 -24.8 60.95 -24.8 60.95 24.65 67.7 28.65 67.7 -24.8 78.4 -24.8 74.9 -31.2 65.85 -31.2
Q 64.2 -43.45 59.1 -49.9
M 4.9 -25.25
Q 6.15 -27.1 8.4 -27.1 10.75 -27.1 12 -25.55 13.3 -24 13.3 -19.5 13.3 -15.95 12.85 -12.8 9.5 -13.2 6.55 -15.55 3.6 -17.85 3.6 -21.05 3.6 -23.4 4.9 -25.25
M -28.25 -53.25
Q -30.05 -56 -33.15 -57.5 -35.5 -58.65 -37.85 -58.65 -39.6 -58.65 -40.75 -58.55 -41.95 -58.45 -41.95 -58.05 -41.85 -57.75 -39.35 -53.6 -38.65 -52.25 -37 -49.6 -36.4 -49.9 -35.9 -50.3 -35.05 -50.3 -34.25 -50.3 -32.9 -50.3 -30.9 -48.9 -28.9 -47.55 -27.55 -45.4 -26.5 -43.55 -24.85 -39.6 -23.4189453125 -36.2326171875 -21.45 -31.2
L -78.4 -31.2 -74.9 -24.8 -60 -24.8 -60 -7.45
Q -60 -6.2 -60.8 -6.2
L -66.05 -6.2
Q -66.65 -6.2 -67.4 -5.45 -68.1 -4.65 -68.1 -3.75 -68.1 -1.35 -63.9 2.95 -63 3.9 -60.85 6.05 -58.05 8.6 -57.15 8.6 -55.55 8.6 -54.4 7.3 -53.2 6.05 -53.2 4.3
L -53.2 -24.8 -42.8 -24.8 -42.8 24.55 -36.15 28.65 -36.15 -24.8 -22.8 -24.8 -22.8 24.65 -15.95 28.65 -15.95 -24.8 -7.3 -24.8 -10.7 -31.2 -18.4 -31.2
Q -19.3595703125 -33.8740234375 -22.55 -41.4 -26.4 -50.5 -28.25 -53.25 Z"/>
</g>
</defs>

<g transform="matrix( 1.1999969482421875, 0, 0, 1.1999969482421875, 242.55,98.4) ">
<g transform="matrix( 1.0010986328125, 0, 0, 1.0010986328125, 0.55,0) ">
<g transform="matrix( 1, 0, 0, 1, 2.75,0) ">
<use xlink:href="#Symbol_7_3_Layer2_0_FILL"/>
</g>

<g transform="matrix( 1, 0, 0, 1, 0,0) ">
<use xlink:href="#Symbol_7_3_Layer1_0_FILL"/>
</g>
</g>
</g>
</svg>
