
<svg xmlns="http://www.w3.org/2000/svg" version="1.1" xmlns:xlink="http://www.w3.org/1999/xlink" preserveAspectRatio="none" x="0px" y="0px" width="385px" height="328px" viewBox="0 0 385 328">
<defs>
<radialGradient id="Gradient_1" gradientUnits="userSpaceOnUse" cx="0" cy="0" r="583.0125" fx="0" fy="0" gradientTransform="matrix( 0.9999999999999999, 0, 0, 0.34771981732810187, -11.55,113.5) " spreadMethod="pad">
<stop  offset="0%" stop-color="#FFFFFF"/>

<stop  offset="16.862745098039216%" stop-color="#F7F8F8"/>

<stop  offset="38.8235294117647%" stop-color="#EAEAEB"/>

<stop  offset="63.529411764705884%" stop-color="#D4D5D7"/>

<stop  offset="90.19607843137256%" stop-color="#B6B8BA"/>

<stop  offset="100%" stop-color="#AAACAE"/>
</radialGradient>

<radialGradient id="Gradient_2" gradientUnits="userSpaceOnUse" cx="0" cy="0" r="162.175" fx="0" fy="0" gradientTransform="matrix( 0, -0.9999999999999999, 2.038538615692924, 0, -13.35,213.3) " spreadMethod="pad">
<stop  offset="0%" stop-color="#FFFFFF"/>

<stop  offset="16.862745098039216%" stop-color="#F7F8F8"/>

<stop  offset="38.8235294117647%" stop-color="#EAEAEB"/>

<stop  offset="63.529411764705884%" stop-color="#D4D5D7"/>

<stop  offset="90.19607843137256%" stop-color="#B6B8BA"/>

<stop  offset="100%" stop-color="#AAACAE"/>
</radialGradient>

<radialGradient id="Gradient_3" gradientUnits="userSpaceOnUse" cx="0" cy="0" r="52.5125" fx="0" fy="0" gradientTransform="matrix( 1, 0, 0, 1, 8,67.7) " spreadMethod="pad">
<stop  offset="0%" stop-color="#FFFFFF"/>

<stop  offset="16.862745098039216%" stop-color="#F7F8F8"/>

<stop  offset="38.8235294117647%" stop-color="#EAEAEB"/>

<stop  offset="63.529411764705884%" stop-color="#D4D5D7"/>

<stop  offset="90.19607843137256%" stop-color="#B6B8BA"/>

<stop  offset="100%" stop-color="#AAACAE"/>
</radialGradient>

<linearGradient id="Gradient_4" gradientUnits="userSpaceOnUse" x1="-58.7375" y1="-12.099999999999994" x2="47.1375" y2="-164.6" spreadMethod="pad">
<stop  offset="0%" stop-color="#F8F8F9"/>

<stop  offset="22.352941176470587%" stop-color="#EFF0F1"/>

<stop  offset="60.78431372549019%" stop-color="#D9DBDC"/>

<stop  offset="100%" stop-color="#BEC0C2"/>
</linearGradient>

<g id="Mask_Cloud_copy_0_3_MASK_0_FILL">
<path fill="#FFFFFF" stroke="none" d="
M -228.85 -209.4
L -228.85 283.45 216.15 283.45 216.15 -209.4 -228.85 -209.4 Z"/>
</g>

<g id="Cloud_copy_0_Layer3_0_FILL">
<path fill="url(#Gradient_1)" stroke="none" d="
M 205.9 153.35
Q 205.999609375 124.666015625 181 104.35 156.643359375 84.5548828125 122.1 84.55 115.674609375 84.5521484375 109.55 85.25 101.412890625 71.2296875 85.7 59.6 53.5916015625 35.7533203125 8.2 35.75 -37.191796875 35.7533203125 -69.3 59.6 -80.03515625 67.534765625 -87.25 76.55 -90.5845703125 75.953125 -94.2 75.95 -107.646875 75.97734375 -117.2 84.45
L -117.25 84.5
Q -118.9140625 85.987890625 -120.3 87.6 -127.6966796875 86.2486328125 -135.75 86.25 -164.6216796875 86.2875 -185.05 103.6 -205.920703125 121.4033203125 -205.85 146.5 -205.9228515625 171.59921875 -185.05 189.3 -168.9216796875 203.0412109375 -147.5 205.95 -147.59765625 207.4900390625 -147.6 209.05 -147.749609375 230.021484375 -128 244.8 -109.0048828125 259.0005859375 -82.2 259 -66.39609375 258.9984375 -53.3 254.05 -52.6767578125 254.4236328125 -52.05 254.8
L -52 254.8
Q -23.727734375 270.998828125 16.3 271 56.327734375 270.998828125 84.6 254.8 102.2048828125 244.8037109375 109.25 232.25 110.7244140625 232.448046875 112.25 232.45 120.84453125 232.4392578125 126.9 226.5
L 126.9 226.5
Q 129.1677734375 224.3388671875 130.6 221.85 159.6587890625 219.6560546875 181 202.25 206.0013671875 182.0361328125 205.9 153.35
M 29.3 69.9
Q 29.3 73.5 27.9 76.6 26.4 79.95 23.3 82.65 17.3 87.95 8.8 87.95 0.3 87.95 -5.7 82.65 -8.45 80.25 -9.95 77.35 -11.7 73.95 -11.7 69.9 -11.7 62.4 -5.7 57.1 0.3 51.85 8.8 51.85 17.3 51.85 23.3 57.1 29.3 62.4 29.3 69.9 Z"/>
</g>

<g id="Cloud_copy_0_Layer2_0_FILL">
<path fill="url(#Gradient_2)" stroke="none" d="
M 201.35 153.35
Q 201.35 126.75 178.15 107.9 154.95 89.1 122.1 89.1 114.35 89.1 107.1 90.15 99.35 75.35 83 63.25 52 40.3 8.2 40.3 -35.6 40.3 -66.6 63.25 -78.15 71.8 -85.4 81.7 -89.55 80.5 -94.2 80.5 -105.9 80.5 -114.2 87.9 -116.7 90.1 -118.45 92.65 -126.65 90.8 -135.75 90.8 -162.9 90.8 -182.1 107.1 -201.3 123.45 -201.3 146.5 -201.3 169.55 -182.1 185.85 -165.3 200.15 -142.35 201.95 -143.05 205.4 -143.05 209.05 -143.05 227.85 -125.25 241.15 -107.4 254.45 -82.2 254.45 -66.05 254.45 -52.9 249 -51.4 249.9 -49.75 250.85 -22.4 266.45 16.3 266.45 55 266.45 82.35 250.85 100.75 240.4 106.8 227.05 109.35 227.9 112.25 227.9 119 227.9 123.75 223.25 126.45 220.65 127.65 217.5 156.9 216 178.15 198.75 201.35 179.95 201.35 153.35
M 23.3 82.65
Q 17.3 87.95 8.8 87.95 0.3 87.95 -5.7 82.65 -8.45 80.25 -9.95 77.35 -11.7 73.95 -11.7 69.9 -11.7 62.4 -5.7 57.1 0.3 51.85 8.8 51.85 17.3 51.85 23.3 57.1 29.3 62.4 29.3 69.9 29.3 73.5 27.9 76.6 26.4 79.95 23.3 82.65 Z"/>

<path fill="url(#Gradient_3)" stroke="none" d="
M 9 60.8
Q 16.9 60.8 22.5 66.2 27.05 70.65 27.9 76.6 29.3 73.5 29.3 69.9 29.3 62.4 23.3 57.1 17.3 51.85 8.8 51.85 0.3 51.85 -5.7 57.1 -11.7 62.4 -11.7 69.9 -11.7 73.95 -9.95 77.35 -9.3 70.95 -4.45 66.2 1.1 60.8 9 60.8 Z"/>
</g>

<g id="Cloud_copy_0_Layer2_1_FILL">
<path fill="url(#Gradient_4)" stroke="none" d="
M 9.2 -280.05
L 6.9 -280.05
Q 6 -212 7.6 -74.5 8.35 -4.85 9.45 58.65 9.5 59.55 9.85 60.2 10.15 60.8 10.65 60.8
L 10.7 60.8
Q 11.2 60.75 11.5 60.1 11.85 59.4 11.8 58.45 10.2 -36.1 9.35 -131.25 8.55 -224.25 9.2 -280.05 Z"/>
</g>

<g id="Cloud_copy_0_Layer1_0_FILL">
<path fill="#000000" fill-opacity="0.8980392156862745" stroke="none" d="
M 113 139.9
L 104.5 134.55 104.5 204.55 113 209.9 113 139.9
M 60.3 118.9
Q 65.45 124.85 67 135.95
L -17.35 135.95
Q -19.4 120.9 -25.6 113.05 -31.35 105.8 -39.6 105.8 -45.85 105.8 -49.9 109.65 -54 113.4 -54 119.95 -54 121.55 -52.9 124.4 -51.75 127.35 -50.85 128.2
L -47.75 127
Q -47.75 113.65 -39.15 113.65 -33 113.65 -28.35 118.9 -23.2 124.85 -21.65 135.95
L -115.95 135.95 -111.55 143.8 -50.95 143.8 -50.95 157.05 -83.6 157.05 -84.8 159.9
Q -77.9 164.05 -74.2 167.65 -68.8 172.9 -68.8 177.95 -68.8 181.4 -70.7 183.65 -72.55 185.9 -76.2 185.9 -79.2 185.9 -83.1 183.4 -87.05 180.9 -89.55 177.45 -92.8 172.9 -94.45 169.95 -96.6 166.1 -98.65 160.95
L -103.4 162.9
Q -98.95 172.55 -95.8 177.7 -91.1 185.7 -86.2 189.5 -80.3 194.3 -73.45 194.3 -68.8 194.3 -64.95 191.3 -60.6 187.95 -60.6 182.55 -60.6 177.95 -63.3 173.65 -65.35 170.55 -70.95 164.95
L -50.95 164.95 -50.95 204.4 -42.45 209.3 -42.45 143.8 -23.35 143.8 -23.35 204.4 -15.1 209.3 -15.1 143.8 37.1 143.8 37.1 156.8 17.05 156.8
Q 11.25 156.8 7.1 160.05 2.15 163.95 2.15 171.4 2.15 178.3 6.25 186.45 10.3 194.65 20.55 207.4
L 25.05 203.7
Q 16.7 193.7 13.3 187.45 9.9 181.15 9.9 176.05 9.9 170.05 13 167.35 16.05 164.7 22.55 164.7
L 37.55 164.7 37.1 204.4 45.7 209.3 45.7 143.8 65.3 143.8 65.3 204.4 73.55 209.3 73.55 143.8 86.65 143.8 82.4 135.95 71.3 135.95
Q 69.25 120.9 63.05 113.05 57.3 105.8 49.05 105.8 42.8 105.8 38.75 109.65 34.65 113.4 34.65 119.95 34.65 121.55 35.75 124.4 36.9 127.35 37.8 128.2
L 40.9 127
Q 40.9 113.65 49.5 113.65 55.65 113.65 60.3 118.9 Z"/>
</g>

<g id="Mask_Cloud_copy_2_0_3_MASK_0_FILL">
<path fill="#FFFFFF" stroke="none" d="
M -228.85 -82.9
L -228.85 409.95 216.15 409.95 216.15 -82.9 -228.85 -82.9 Z"/>
</g>

<g id="Cloud_copy_2_0_Layer3_0_FILL">
<path fill="url(#Gradient_1)" stroke="none" d="
M 205.9 153.35
Q 205.999609375 124.666015625 181 104.35 156.643359375 84.5548828125 122.1 84.55 115.674609375 84.5521484375 109.55 85.25 101.412890625 71.2296875 85.7 59.6 53.5916015625 35.7533203125 8.2 35.75 -37.191796875 35.7533203125 -69.3 59.6 -80.03515625 67.534765625 -87.25 76.55 -90.5845703125 75.953125 -94.2 75.95 -107.646875 75.97734375 -117.2 84.45
L -117.25 84.5
Q -118.9140625 85.987890625 -120.3 87.6 -127.6966796875 86.2486328125 -135.75 86.25 -164.6216796875 86.2875 -185.05 103.6 -205.920703125 121.4033203125 -205.85 146.5 -205.9228515625 171.59921875 -185.05 189.3 -168.9216796875 203.0412109375 -147.5 205.95 -147.59765625 207.4900390625 -147.6 209.05 -147.749609375 230.021484375 -128 244.8 -109.0048828125 259.0005859375 -82.2 259 -66.39609375 258.9984375 -53.3 254.05 -52.6767578125 254.4236328125 -52.05 254.8
L -52 254.8
Q -23.727734375 270.998828125 16.3 271 56.327734375 270.998828125 84.6 254.8 102.2048828125 244.8037109375 109.25 232.25 110.7244140625 232.448046875 112.25 232.45 120.84453125 232.4392578125 126.9 226.5
L 126.9 226.5
Q 129.1677734375 224.3388671875 130.6 221.85 159.6587890625 219.6560546875 181 202.25 206.0013671875 182.0361328125 205.9 153.35
M 29.3 69.9
Q 29.3 73.5 27.9 76.6 26.4 79.95 23.3 82.65 17.3 87.95 8.8 87.95 0.3 87.95 -5.7 82.65 -8.45 80.25 -9.95 77.35 -11.7 73.95 -11.7 69.9 -11.7 62.4 -5.7 57.1 0.3 51.85 8.8 51.85 17.3 51.85 23.3 57.1 29.3 62.4 29.3 69.9 Z"/>
</g>

<g id="Cloud_copy_2_0_Layer2_0_FILL">
<path fill="url(#Gradient_2)" stroke="none" d="
M 201.35 153.35
Q 201.35 126.75 178.15 107.9 154.95 89.1 122.1 89.1 114.35 89.1 107.1 90.15 99.35 75.35 83 63.25 52 40.3 8.2 40.3 -35.6 40.3 -66.6 63.25 -78.15 71.8 -85.4 81.7 -89.55 80.5 -94.2 80.5 -105.9 80.5 -114.2 87.9 -116.7 90.1 -118.45 92.65 -126.65 90.8 -135.75 90.8 -162.9 90.8 -182.1 107.1 -201.3 123.45 -201.3 146.5 -201.3 169.55 -182.1 185.85 -165.3 200.15 -142.35 201.95 -143.05 205.4 -143.05 209.05 -143.05 227.85 -125.25 241.15 -107.4 254.45 -82.2 254.45 -66.05 254.45 -52.9 249 -51.4 249.9 -49.75 250.85 -22.4 266.45 16.3 266.45 55 266.45 82.35 250.85 100.75 240.4 106.8 227.05 109.35 227.9 112.25 227.9 119 227.9 123.75 223.25 126.45 220.65 127.65 217.5 156.9 216 178.15 198.75 201.35 179.95 201.35 153.35
M 29.3 69.9
Q 29.3 73.5 27.9 76.6 26.4 79.95 23.3 82.65 17.3 87.95 8.8 87.95 0.3 87.95 -5.7 82.65 -8.45 80.25 -9.95 77.35 -11.7 73.95 -11.7 69.9 -11.7 62.4 -5.7 57.1 0.3 51.85 8.8 51.85 17.3 51.85 23.3 57.1 29.3 62.4 29.3 69.9 Z"/>

<path fill="url(#Gradient_3)" stroke="none" d="
M 27.9 76.6
Q 29.3 73.5 29.3 69.9 29.3 62.4 23.3 57.1 17.3 51.85 8.8 51.85 0.3 51.85 -5.7 57.1 -11.7 62.4 -11.7 69.9 -11.7 73.95 -9.95 77.35 -9.3 70.95 -4.45 66.2 1.1 60.8 9 60.8 16.9 60.8 22.5 66.2 27.05 70.65 27.9 76.6 Z"/>
</g>

<g id="Cloud_copy_2_0_Layer2_1_FILL">
<path fill="url(#Gradient_4)" stroke="none" d="
M 9.2 -280.05
L 6.9 -280.05
Q 6 -212 7.6 -74.5 8.35 -4.85 9.45 58.65 9.5 59.55 9.85 60.2 10.15 60.8 10.65 60.8
L 10.7 60.8
Q 11.2 60.75 11.5 60.1 11.85 59.4 11.8 58.45 10.2 -36.1 9.35 -131.25 8.55 -224.25 9.2 -280.05 Z"/>
</g>

<g id="Cloud_copy_2_0_Layer1_0_FILL">
<path fill="#000000" fill-opacity="0.8980392156862745" stroke="none" d="
M -61.4 206.6
Q -66.6 202.15 -73.75 202.15 -77.45 202.15 -80.25 203.5 -83.05 204.9 -83.05 206 -83.05 207.65 -80.45 210.65 -77.8 213.65 -76.6 213.65 -75.7 213.65 -73.2 211.7 -70.7 209.8 -68.95 207.8 -65.8 208.4 -64.2 210.15 -62.55 211.95 -62.55 213.9 -62.55 217.4 -66.2 220.7 -69.95 224 -75.3 224 -84.4 224 -91.25 220.9 -98.1 217.8 -107.9 209.05
L -110.55 212.55
Q -99.65 221.9 -91.45 226.15 -81.9 231.05 -72.2 231.05 -64.55 231.05 -59.95 226.25 -56.2 222.45 -56.2 217.3 -56.2 211 -61.4 206.6
M 76.5 123.2
L 79.6 122
Q 79.6 108.65 88.2 108.65 94.35 108.65 99 113.9 104.15 119.85 105.7 130.95
L -125.4 130.95 -121.15 138.8 -65.4 138.8 -65.4 146.8
Q -71.75 147.65 -75 151.55 -78.15 155.4 -78.15 160.55 -78.15 166.45 -73.05 171.95 -66.5 176.95 -59.9 181.95 -63.4 187.95 -72.9 192.2 -81.15 195.95 -87.5 195.95 -91.3 195.95 -94.3 194.4 -97.9 192.6 -97.9 189.05 -97.9 185.05 -94.35 181.8 -90.75 178.55 -86.55 178.55 -84.25 178.55 -82.5 178.9 -80.8 179.35 -79.75 179.6
L -78.9 178.75
Q -79.65 177.55 -79.95 176.95 -80.65 175.3 -82.55 171.65 -84.05 171.05 -85.2 170.85 -86.3 170.65 -88.65 170.65 -90.15 170.65 -92.1 171.1 -94.05 171.6 -96.2 172.05 -99.3 172.05 -102.15 170 -105.05 167.9 -105.05 164.95 -105.05 161.2 -102.3 159.25 -99.55 157.3 -93.35 157.3 -92.25 157.3 -89.1 157.85 -85.9 158.4 -84.5 158.95 -85.35 157.05 -86.3 155.15 -87.5 152.55 -88.25 151.7 -89.05 150.85 -92.1 150.1 -95.15 149.45 -97.5 149.45 -103.95 149.45 -108.3 152.65 -112.8 155.9 -112.8 162.05 -112.8 165.3 -110.45 168.3 -108.15 171.3 -100.65 175.9 -102.9 177.8 -104.15 180.15 -105.5 182.4 -105.5 184.5 -105.5 192.05 -97.15 197.4 -89.9 202.05 -82 202.05 -74.65 202.05 -67.8 198.5 -60.9 194.9 -55.75 189.05 -52.15 184.95 -50.05 180.3 -47.4 174.45 -47.4 168.55 -47.4 161.95 -49.75 157.45 -52.05 152.9 -56.95 149.55
L -56.95 138.8 -7.9 138.8
Q -7.8 141.05 -7.55 143.2 -7.35 145.35 -7.35 147.95 -7.35 153.45 -8.1 155.25 -8.9 157.05 -10.75 157.3
L -27.65 161.45
Q -32.65 162.9 -34.95 165.5 -37.3 168.05 -37.3 173.15 -37.3 182.55 -29.2 190.4 -21.15 198.2 -10.8 198.2 -4.4 198.2 1.85 196.1 8.05 194.05 12.45 191.55
L 8.75 184
Q 0.65 187.8 -5.1 189.55 -10.8 191.2 -16.3 191.2 -21.55 191.2 -25.5 187.35 -29.55 183.45 -29.55 178.05 -29.55 169.95 -21.4 168.3 -9.85 166.15 -3.75 164.45 -0.9 163.55 0.1 161.9 1 160.15 1 155.05 0.85 151.3 0.7 147.25 0.55 143.2 0.55 138.8
L 48.4 138.8 48.15 162.05
Q 46.5 159.7 44.75 157.5 42.9 155.3 40.75 153.5 38.6 151.8 35.7 151.15 32.75 150.55 29.35 150.55 20.5 150.55 16 156.4 13 160.3 13 164.5 13 172.75 19.05 178.75 25 184.65 33.15 184.65 37.35 184.65 41.05 182.9 42.65 182.15 48.4 178.55
L 48.75 199.4 56.85 204.3 56.85 172.95
Q 61.15 169.35 65.4 166.95 69.75 164.55 72.15 164.55 75.25 164.55 77.2 166.4 79.15 168.15 79.15 171.45 79.15 175.45 76.85 180.7 74.5 185.95 70.85 190.95
L 78 197.4
Q 85.5 185.95 85.5 178.4 85.5 167.9 79.65 161.6 75 156.55 70 156.55 66.75 156.55 63.55 158.35 61 159.7 56.85 162.9
L 56.85 138.8 104 138.8 104 199.4 112.25 204.3 112.25 138.8 125.35 138.8 121.1 130.95 110 130.95
Q 107.95 115.9 101.75 108.05 96 100.8 87.75 100.8 81.5 100.8 77.45 104.65 73.35 108.4 73.35 114.95 73.35 116.55 74.45 119.4 75.6 122.35 76.5 123.2
M 22.9 161.15
Q 26.5 158.3 31 158.3 37 158.3 40.7 160.5 44.35 162.65 48.4 168.3 42.8 172.6 37.6 175.15 32.35 177.65 28.5 177.65 24.6 177.65 21.95 175.35 19.35 173.1 19.35 169.25 19.35 164 22.9 161.15
M -53.75 164.55
Q -53.75 168.15 -55.1 172.15 -56.45 176.05 -57.8 178.05 -63.45 175.65 -66.65 171.45 -69.8 167.3 -69.8 162.65 -69.8 158.4 -67.6 155.45 -65.4 152.55 -62.3 152.55 -58.65 152.55 -56.2 156 -53.75 159.55 -53.75 164.55 Z"/>
</g>
</defs>

<g transform="matrix( 0.92156982421875, 0, 0, 0.92156982421875, -401.5,193) ">
<mask id="Mask_Mask_1">
<g transform="matrix( 1, 0, 0, 1, 0,0) ">
<use xlink:href="#Mask_Cloud_copy_0_3_MASK_0_FILL"/>
</g>
</mask>

<g mask="url(#Mask_Mask_1)">
<g transform="matrix( 1, 0, 0, 1, 0,0) ">
<use xlink:href="#Cloud_copy_0_Layer3_0_FILL"/>
</g>
</g>

<g mask="url(#Mask_Mask_1)">
<g transform="matrix( 1, 0, 0, 1, 0,0) ">
<use xlink:href="#Cloud_copy_0_Layer2_0_FILL"/>
</g>

<g transform="matrix( 1, 0, 0, 1, 0,0) ">
<use xlink:href="#Cloud_copy_0_Layer2_1_FILL"/>
</g>
</g>

<g mask="url(#Mask_Mask_1)">
<g transform="matrix( 1, 0, 0, 1, 0,0) ">
<use xlink:href="#Cloud_copy_0_Layer1_0_FILL"/>
</g>
</g>
</g>

<g transform="matrix( 0.92156982421875, 0, 0, 0.92156982421875, 192.5,76.4) ">
<mask id="Mask_Mask_2">
<g transform="matrix( 1, 0, 0, 1, 0,0) ">
<use xlink:href="#Mask_Cloud_copy_2_0_3_MASK_0_FILL"/>
</g>
</mask>

<g mask="url(#Mask_Mask_2)">
<g transform="matrix( 1, 0, 0, 1, 0,0) ">
<use xlink:href="#Cloud_copy_2_0_Layer3_0_FILL"/>
</g>
</g>

<g mask="url(#Mask_Mask_2)">
<g transform="matrix( 1, 0, 0, 1, 0,0) ">
<use xlink:href="#Cloud_copy_2_0_Layer2_0_FILL"/>
</g>

<g transform="matrix( 1, 0, 0, 1, 0,0) ">
<use xlink:href="#Cloud_copy_2_0_Layer2_1_FILL"/>
</g>
</g>

<g mask="url(#Mask_Mask_2)">
<g transform="matrix( 1, 0, 0, 1, 0,0) ">
<use xlink:href="#Cloud_copy_2_0_Layer1_0_FILL"/>
</g>
</g>
</g>
</svg>
