
<svg xmlns="http://www.w3.org/2000/svg" version="1.1" xmlns:xlink="http://www.w3.org/1999/xlink" preserveAspectRatio="none" x="0px" y="0px" width="278px" height="216px" viewBox="0 0 278 216">
<defs>
<g id="Symbol_4_4_Layer0_0_FILL">
<path fill="#000000" stroke="none" d="
M 197.8 67.2
L 187.6 67.2 141.15 133.15 141.15 144.65 185.3 144.65 185.3 169 197.8 169 197.8 144.65 211.55 144.65 211.55 133.15 197.8 133.15 197.8 67.2
M 185.3 87.25
L 185.3 133.15 153.45 133.15 185.3 87.25
M 113.45 70.4
Q 106.45 66.8 98.1 66.8 86 66.8 77.9 73.7 69.75 80.6 67.45 93.15
L 79.95 95.4
Q 81.35 86.2 86.2 81.65 91.1 77.05 98.35 77.05 105.75 77.05 110.4 81.55 115.05 86.1 115.05 92.95 115.05 101.65 108.65 105.8 102.25 109.95 94.3 109.95 93.5 109.95 92.25 109.85
L 90.85 120.8
Q 96.15 119.4 99.7 119.4 108.35 119.4 114 125.05 119.6 130.6 119.6 139.2 119.6 148.25 113.6 154.35 107.45 160.45 98.65 160.45 91.2 160.45 86.1 155.8 80.85 151.1 78.7 140.45
L 66.2 142.15
Q 67.45 154.85 76.35 162.8 85.2 170.8 98.6 170.8 113.45 170.8 123.15 161.55 132.9 152.25 132.9 138.95 132.9 129.05 127.9 122.55 122.9 115.95 113.85 113.85 120.8 110.65 124.35 105.25 127.9 99.85 127.9 93.25 127.9 86.3 124.2 80.1 120.45 73.95 113.45 70.4 Z"/>
</g>
</defs>

<g transform="matrix( 1.1142425537109375, 0, 0, 1.1142425537109375, -19.55,-28.5) ">
<g transform="matrix( 1, 0, 0, 1, 0,0) ">
<use xlink:href="#Symbol_4_4_Layer0_0_FILL"/>
</g>
</g>
</svg>
