
<svg xmlns="http://www.w3.org/2000/svg" version="1.1" xmlns:xlink="http://www.w3.org/1999/xlink" preserveAspectRatio="none" x="0px" y="0px" width="278px" height="216px" viewBox="0 0 278 216">
<defs>
<g id="Layer0_0_FILL">
<path fill="#000000" stroke="none" d="
M 168.4 60.75
L 168.4 47.35 111.45 47.35 100.35 106.15 113.55 107.9
Q 116.65 102.95 122.15 99.9 127.6 96.8 134.4 96.8 145.35 96.8 152.15 103.75 158.85 110.7 158.85 122.7 158.85 135.4 151.85 143.05 144.8 150.7 134.65 150.7 126.2 150.7 120.25 145.3 114.25 139.85 112.6 129.05
L 97.85 130.3
Q 99.25 144.75 109.15 153.5 119 162.25 134.65 162.25 153.7 162.25 164.7 148.35 173.8 137 173.8 121.45 173.8 105.15 163.45 94.75 153.15 84.35 138.15 84.35 126.85 84.35 116.5 91.55
L 122.7 60.75 168.4 60.75 Z"/>
</g>
</defs>

<g transform="matrix( 1, 0, 0, 1, 0,0) ">
<use xlink:href="#Layer0_0_FILL"/>
</g>
</svg>
