
<svg xmlns="http://www.w3.org/2000/svg" version="1.1" xmlns:xlink="http://www.w3.org/1999/xlink" preserveAspectRatio="none" x="0px" y="0px" width="217px" height="217px" viewBox="0 0 217 217">
<defs>
<g id="Symbol_76_2_Layer2_0_FILL">
<path fill="#FFFFFF" stroke="none" d="
M 11.6 -44.75
L 16.35 -35.3 36.65 -35.3 36.65 -8.1
Q 35.3 -6.3 30.35 -4.25 25.35 -2.1 22.5 -2.1 13.15 -2.1 1.55 -10.95 4.85 -12.65 7.05 -16.1 9.3 -19.55 9.3 -23.15 9.3 -26.85 7.65 -30.4 6.05 -33.8 1.8 -37.8 -2.55 -41.8 -7.65 -43.95 -12.7 -46.15 -15.85 -46.15 -19.6 -46.15 -24.6 -44.5 -29.55 -42.85 -34.6 -40.25
L -31.35 -33.25
Q -30 -31.2 -28.6 -31.2 -23.85 -33.7 -18.9 -36.4 -13.95 -38.65 -9.85 -38.65 -5.4 -38.65 -2.55 -35.95 0.3 -33.25 0.3 -28.25 0.3 -23.05 -3.55 -18.8 -6.7 -15.5 -9 -15.5 -10.15 -15.5 -15.6 -14.8 -21 -14 -22.3 -14 -25.2 -14 -25.2 -11.05 -25.2 -9.5 -20.65 -5.05 -18.45 -2.75 -17.5 -2.75 -16.45 -2.75 -10.9 -4.9 -8.05 -5.9 -3 -7.9 0.95 -6.7 3.4 -3.45 5.9 -0.2 5.9 4.55 5.9 11.2 1.35 16.05 -3.3 20.95 -10.45 20.95 -19.15 20.95 -25.75 14.8 -32.45 8.65 -38.2 -4.55
L -42.9 -1.95
Q -35.6 13.95 -26.8 22.15 -18 30.4 -7.75 30.4 2.3 30.4 8.65 24.9 15.05 19.35 15.05 9.95 15.05 5.45 12.45 1.35
L 12.75 1.35
Q 16.05 3.9 19.85 5 23.6 6.1 26.3 6.1 28.65 6.1 31.65 5.75 34.65 5.35 37.25 4.35
L 36.65 37.45 47.1 43.3 47.1 -35.3 59.85 -35.3 54.75 -44.75 11.6 -44.75 Z"/>
</g>

<g id="Symbol_76_2_Layer1_0_FILL">
<path fill="#000000" stroke="none" d="
M 8.15 -44.8
L 12.9 -35.35 33.2 -35.35 33.2 -8.15
Q 31.85 -6.35 26.9 -4.3 21.9 -2.15 19.05 -2.15 9.7 -2.15 -1.9 -11 1.4 -12.7 3.6 -16.15 5.85 -19.6 5.85 -23.2 5.85 -26.9 4.2 -30.45 2.6 -33.85 -1.65 -37.85 -6 -41.85 -11.1 -44 -16.15 -46.2 -19.3 -46.2 -23.05 -46.2 -28.05 -44.55 -33 -42.9 -38.05 -40.3
L -34.8 -33.3
Q -33.45 -31.25 -32.05 -31.25 -27.3 -33.75 -22.35 -36.45 -17.4 -38.7 -13.3 -38.7 -8.85 -38.7 -6 -36 -3.15 -33.3 -3.15 -28.3 -3.15 -23.1 -7 -18.85 -10.15 -15.55 -12.45 -15.55 -13.6 -15.55 -19.05 -14.85 -24.45 -14.05 -25.75 -14.05 -28.65 -14.05 -28.65 -11.1 -28.65 -9.55 -24.1 -5.1 -21.9 -2.8 -20.95 -2.8 -19.9 -2.8 -14.35 -4.95 -11.5 -5.95 -6.45 -7.95 -2.5 -6.75 -0.05 -3.5 2.45 -0.25 2.45 4.5 2.45 11.15 -2.1 16 -6.75 20.9 -13.9 20.9 -22.6 20.9 -29.2 14.75 -35.9 8.6 -41.65 -4.6
L -46.35 -2
Q -39.05 13.9 -30.25 22.1 -21.45 30.35 -11.2 30.35 -1.15 30.35 5.2 24.85 11.6 19.3 11.6 9.9 11.6 5.4 9 1.3
L 9.3 1.3
Q 12.6 3.85 16.4 4.95 20.15 6.05 22.85 6.05 25.2 6.05 28.2 5.7 31.2 5.3 33.8 4.3
L 33.2 37.4 43.65 43.25 43.65 -35.35 56.4 -35.35 51.3 -44.8 8.15 -44.8 Z"/>
</g>
</defs>

<g transform="matrix( 1.18182373046875, 0, 0, 1.18182373046875, 100.55,107.2) ">
<g transform="matrix( 1, 0, 0, 1, 0,0) ">
<use xlink:href="#Symbol_76_2_Layer2_0_FILL"/>
</g>

<g transform="matrix( 1, 0, 0, 1, 0,0) ">
<use xlink:href="#Symbol_76_2_Layer1_0_FILL"/>
</g>
</g>
</svg>
