
<svg xmlns="http://www.w3.org/2000/svg" version="1.1" xmlns:xlink="http://www.w3.org/1999/xlink" preserveAspectRatio="none" x="0px" y="0px" width="26px" height="48px" viewBox="0 0 26 48">
<defs>
<g id="Location_Icon_0_Layer0_0_FILL">
<path fill="#FFFF00" stroke="none" d="
M 1297.3 324.95
Q 1304.95 317.35 1304.95 306.55 1304.95 295.75 1297.3 288.1 1289.7 280.5 1278.9 280.5 1268.1 280.5 1260.45 288.1 1252.85 295.75 1252.85 306.55 1252.85 317.35 1260.45 324.95 1268.1 332.6 1278.9 332.6 1289.7 332.6 1297.3 324.95
M 1286.35 299
Q 1289.5 302.15 1289.5 306.55 1289.5 310.95 1286.35 314.1 1283.25 317.2 1278.85 317.2 1274.4 317.2 1271.25 314.1 1268.15 310.95 1268.15 306.55 1268.15 302.15 1271.25 299 1274.4 295.9 1278.85 295.9 1283.25 295.9 1286.35 299 Z"/>
</g>

<g id="Location_Icon_0_Layer0_1_FILL">
<path fill="#000000" stroke="none" d="
M 1297.3 324.95
Q 1304.95 317.35 1304.95 306.55 1304.95 295.75 1297.3 288.1 1289.7 280.5 1278.9 280.5 1268.1 280.5 1260.45 288.1 1252.85 295.75 1252.85 306.55 1252.85 317.35 1260.45 324.95 1268.1 332.6 1278.9 332.6 1289.7 332.6 1297.3 324.95 Z"/>
</g>

<g id="Location_Icon_0_Layer0_2_FILL">
<path fill="#FFFF00" stroke="none" d="
M 1258.4 322.75
Q 1272.4404296875 344.3701171875 1278.9 368.3 1286.2720703125 344.508984375 1299.45 322.75
L 1258.4 322.75 Z"/>
</g>
</defs>

<g transform="matrix( 0.5118255615234375, 0, 0, 0.5118255615234375, 13.35,21.95) ">
<g transform="matrix( 1, 0, 0, 1, -1278.9,-323.4) ">
<use xlink:href="#Location_Icon_0_Layer0_0_FILL"/>
</g>

<g transform="matrix( 0.3599700927734375, 0, 0, 0.3599700927734375, -460.3,-68.15) ">
<use xlink:href="#Location_Icon_0_Layer0_1_FILL"/>
</g>

<g transform="matrix( 1.0665130615234375, 0, 0, 1, -1363.95,-325.35) ">
<use xlink:href="#Location_Icon_0_Layer0_2_FILL"/>
</g>
</g>
</svg>
