
<svg xmlns="http://www.w3.org/2000/svg" version="1.1" xmlns:xlink="http://www.w3.org/1999/xlink" preserveAspectRatio="none" x="0px" y="0px" width="278px" height="216px" viewBox="0 0 278 216">
<defs>
<g id="Symbol_4_3_Layer0_0_FILL">
<path fill="#000000" stroke="none" d="
M 130.1 128.6
Q 126.05 128.8 122.15 127.55 120.2 126.95 118.7 125.65 115.9 123.25 114.35 120.4 112.45 117.05 112.45 113.25 112.2 110.05 112.9 107.65
L 99.75 107.65
Q 99.25 110.05 99.25 112.55 99.25 124.35 107.85 131.85 112.75 136.25 118.7 138.15 119.15 138.25 119.6 138.35 133.4 141.2 141.25 136.65 146.65 133.65 153.4 127.4 160.1 121.2 164.85 114.8 161.85 112.6 158.45 110.15
L 155.85 108.3
Q 145.45 121.85 139.85 125.1 134.2 128.35 130.1 128.6 Z"/>
</g>

<g id="Symbol_4_3_Layer0_0_MEMBER_0_FILL">
<path fill="#000000" stroke="none" d="
M 179.1 120.75
Q 173.4 111.7 170.9 108.55 161.5 96.7 150.55 90.7 140.1 85 129.1 85 117.7 85 108.2 93 101.4 100.05 99.75 107.65
L 112.9 107.65
Q 112.95 107.25 113.35 106.35 114.55 103.55 116.65 101.3 118.75 99 122.3 97.6 125.9 96.15 129.6 96.15 139.3 96.15 147.7 101.5 155.95 106.85 164.2 118.5 176.95 138.6 177.15 138.95
L 188 135.65 184.35 129.2
Q 182 125.3 179.1 120.75 Z"/>
</g>
</defs>

<g transform="matrix( 1, 0, 0, 1, -4.25,-1.45) ">
<g transform="matrix( 1, 0, 0, 1, -3.5,-6.2) ">
<use xlink:href="#Symbol_4_3_Layer0_0_FILL"/>
</g>

<g transform="matrix( 1, 0, 0, 1, -3.5,-6.2) ">
<use xlink:href="#Symbol_4_3_Layer0_0_MEMBER_0_FILL"/>
</g>
</g>
</svg>
