
<svg xmlns="http://www.w3.org/2000/svg" version="1.1" xmlns:xlink="http://www.w3.org/1999/xlink" preserveAspectRatio="none" x="0px" y="0px" width="325px" height="365px" viewBox="0 0 325 365">
<defs>
<g id="Mask_Symbol_7_0_2_MASK_0_FILL">
<path fill="#FFFFFF" stroke="none" d="
M 120.05 141.2
L 120.05 -131.9 -123.95 -131.9 -123.95 141.2 120.05 141.2
M 90.4 -18.75
L 90.35 -18.75
Q 94.4517578125 -21.1849609375 98.15 -20.2 98.2109375 -20.1623046875 98.25 -20.15 101.454296875 -19.33671875 103.95 -15.2
L 107.55 -8.9
Q 107.6328125 -8.7974609375 107.65 -8.7 109.97734375 -4.6955078125 109 -1.35
L 109 -1.3
Q 108.2451171875 2.00625 104.4 4.45 104.3111328125 4.5107421875 104.2 4.6 104.0751953125 4.6939453125 103.95 4.75
L 33.2 45.55
Q 32.9109375 45.725 32.6 45.8 22.9818359375 48.4490234375 18.95 48.75 14.872265625 49.0609375 13.1 48.2 9.5138671875 46.89296875 8.2 44.35
L 8.2 44.3
Q 6.611328125 41.5693359375 8.05 37.7
L 8.05 37.65
Q 8.1935546875 37.3865234375 8.3 37.15 9.74296875 33.2267578125 17.75 23.65 18.0654296875 23.3205078125 18.45 23.1
L 90.4 -18.75 Z"/>
</g>

<g id="Symbol_7_0_Layer2_1_FILL">
<path fill="#000000" fill-opacity="0.027450980392156862" stroke="none" d="
M -75.45 110.4
Q -76.1525390625 109.871484375 -76.4 109 -93.708203125 42.60390625 -96.1 -63.35 -97.989453125 27.262890625 -86 116.95 -8.5154296875 114.2158203125 62.25 103.3 0.3494140625 108.67578125 -73.9 110.9 -74.7486328125 110.926171875 -75.45 110.4 Z"/>
</g>

<g id="Symbol_9_copy_0_Layer0_0_FILL">
<path fill="#000000" fill-opacity="0.027450980392156862" stroke="none" d="
M 62.6 -4.45
Q 62.6 -9.95 57.1 -9.95
L -43.6 -9.95
Q -44.0373046875 -9.951171875 -44.45 -9.8 -58.5740234375 -4.6341796875 -61.4 -1.95 -62.6423828125 -0.8046875 -62.55 0.55 -62.661328125 1.6951171875 -61.6 2.9 -60.7642578125 4.022265625 -58.1 5.25 -53.947265625 7.2462890625 -44.25 9.9 -43.92578125 9.9943359375 -43.6 10
L 57.1 10
Q 62.6 10 62.6 4.5
L 62.6 -4.45 Z"/>
</g>

<path id="Symbol_7_0_Layer2_2_1_STROKES" stroke="#000000" stroke-opacity="0.027450980392156862" stroke-width="5" stroke-linejoin="round" stroke-linecap="round" fill="none" d="
M -63.85 41.95
Q -23.967578125 41.9822265625 16.35 39.775
M -93.9 -114.95
L 74.6 -114.95
Q 73.1 16.55 96.3 97.5 21.35 105.55 -73.95 108.4 -95.25 26.7 -93.9 -114.95 Z
M -69.5 -7.15
L 59.6 -10.45
M -71.5 -58.5
L 57.6 -58.5"/>
</defs>

<g transform="matrix( 1.3607635498046875, 0, 0, 1.3607635498046875, 156.6,181.15) ">
<mask id="Mask_Mask_1">
<g transform="matrix( 1, 0, 0, 1, 0,0) ">
<use xlink:href="#Mask_Symbol_7_0_2_MASK_0_FILL"/>
</g>
</mask>

<g mask="url(#Mask_Mask_1)">
<g transform="matrix( 1, 0, 0, 1, 0,0) ">
<use xlink:href="#Symbol_7_0_Layer2_1_FILL"/>
</g>

<g transform="matrix( 1, 0, 0, 1, 0,0) ">
<use xlink:href="#Symbol_7_0_Layer2_2_1_STROKES"/>
</g>
</g>

<g transform="matrix( 0.7014617919921875, -0.40496826171875, 0.40496826171875, 0.7014617919921875, 57.1,16.05) ">
<g transform="matrix( 1, 0, 0, 1, 0,0) ">
<use xlink:href="#Symbol_9_copy_0_Layer0_0_FILL"/>
</g>
</g>
</g>
</svg>
