
<svg xmlns="http://www.w3.org/2000/svg" version="1.1" xmlns:xlink="http://www.w3.org/1999/xlink" preserveAspectRatio="none" x="0px" y="0px" width="278px" height="216px" viewBox="0 0 278 216">
<defs>
<g id="Layer0_0_FILL">
<path fill="#000000" stroke="none" d="
M 164.35 89.15
Q 168.45 83.2 168.45 75.2 168.45 62.7 159.35 54.05 150.2 45.3 135.2 45.3 120.25 45.3 111.3 53.8 102.3 62.35 102.3 74.85 102.3 83.1 106.5 89.05 110.75 95 119.5 98.2 109 100.95 103.4 108.5 97.7 116 97.7 127.2 97.7 142.2 108.1 152.25 118.45 162.25 135.4 162.25 152.35 162.25 162.75 152.25 173.15 142.25 173.15 127.55 173.15 116.95 167.7 109.3 162.15 101.65 151.6 98.2 160.1 95 164.35 89.15
M 122 62
Q 127.3 56.85 135.35 56.85 143.3 56.85 148.7 62.2 154 67.4 154 75.15 154 82.55 148.85 87.7 143.6 92.8 135.5 92.8 127.15 92.8 121.9 87.65 116.65 82.5 116.65 74.35 116.65 67.2 122 62
M 135.1 104.3
Q 145.25 104.3 152.05 110.95 158.8 117.55 158.8 127.7 158.8 137.7 152.2 144.2 145.65 150.7 135.6 150.7 129.1 150.7 123.45 147.65 117.85 144.5 115.05 138.9 112.15 133.25 112.15 127.25 112.15 117.4 118.7 110.85 125.2 104.3 135.1 104.3 Z"/>
</g>
</defs>

<g transform="matrix( 1, 0, 0, 1, 0,0) ">
<use xlink:href="#Layer0_0_FILL"/>
</g>
</svg>
