
<svg xmlns="http://www.w3.org/2000/svg" version="1.1" xmlns:xlink="http://www.w3.org/1999/xlink" preserveAspectRatio="none" x="0px" y="0px" width="705px" height="703px" viewBox="0 0 705 703">
<defs>
<g id="Symbol_60_copy_2_1_Layer2_0_FILL">
<path fill="#FFFFFF" stroke="none" d="
M 61.65 -41.6
Q 52.05 -36.45 36.1 -24
L 36.1 -116.6 185.9 -116.6 169 -146.8 -180.45 -146.8 -163.6 -116.6 3.55 -116.6 2.6 -27.3
Q -3.75 -36.45 -10.55 -44.85 -17.55 -53.3 -25.75 -60.1 -33.95 -66.65 -45.2 -69.25 -56.45 -71.6 -69.6 -71.6 -103.6 -71.6 -120.9 -49.1 -132.4 -34.1 -132.4 -17.9 -132.4 13.75 -109.2 36.7 -86.25 59.45 -55.05 59.45 -38.9 59.45 -24.6 52.65 -18.5 49.8 3.55 36
L 4.95 116.15 36.1 134.9 36.1 14.45
Q 52.5 0.6 68.9 -8.55 85.55 -17.7 94.7 -17.7 106.65 -17.7 114.15 -10.65 121.65 -3.85 121.65 8.8 121.65 24.05 112.75 44.2 103.85 64.35 89.8 83.55
L 117.2 108.4
Q 146.05 64.35 146.05 35.55 146.05 -4.8 123.55 -29.15 105.7 -48.4 86.5 -48.4 74.1 -48.4 61.65 -41.6
M -63.25 -41.8
Q -40.3 -41.8 -26 -33.4 -11.95 -24.95 3.55 -3.4 -18.05 13.25 -37.95 22.85 -58.1 32.5 -72.85 32.5 -87.85 32.5 -97.95 23.8 -108.05 15.15 -108.05 0.35 -108.05 -19.8 -94.45 -30.8 -80.6 -41.8 -63.25 -41.8 Z"/>
</g>

<g id="Symbol_60_copy_2_1_Layer1_0_FILL">
<path fill="#000000" stroke="none" d="
M 76 -48.4
Q 63.6 -48.4 51.15 -41.6 41.55 -36.45 25.6 -24
L 25.6 -116.6 175.4 -116.6 158.5 -146.8 -190.95 -146.8 -174.1 -116.6 -6.95 -116.6 -7.9 -27.3
Q -14.25 -36.45 -21.05 -44.85 -28.05 -53.3 -36.25 -60.1 -44.45 -66.65 -55.7 -69.25 -66.95 -71.6 -80.1 -71.6 -114.1 -71.6 -131.4 -49.1 -142.9 -34.1 -142.9 -17.9 -142.9 13.75 -119.7 36.7 -96.75 59.45 -65.55 59.45 -49.4 59.45 -35.1 52.65 -29 49.8 -6.95 36
L -5.55 116.15 25.6 134.9 25.6 14.45
Q 42 0.6 58.4 -8.55 75.05 -17.7 84.2 -17.7 96.15 -17.7 103.65 -10.65 111.15 -3.85 111.15 8.8 111.15 24.05 102.25 44.2 93.35 64.35 79.3 83.55
L 106.7 108.4
Q 135.55 64.35 135.55 35.55 135.55 -4.8 113.05 -29.15 95.2 -48.4 76 -48.4
M -36.5 -33.4
Q -22.45 -24.95 -6.95 -3.4 -28.55 13.25 -48.45 22.85 -68.6 32.5 -83.35 32.5 -98.35 32.5 -108.45 23.8 -118.55 15.15 -118.55 0.35 -118.55 -19.8 -104.95 -30.8 -91.1 -41.8 -73.75 -41.8 -50.8 -41.8 -36.5 -33.4 Z"/>
</g>
</defs>

<g transform="matrix( 1, 0, 0, 1, 358.5,342.6) ">
<g transform="matrix( 0.9599761962890625, 0, 0, 0.9599761962890625, -3.55,5.7) ">
<g transform="matrix( 1, 0, 0, 1, 0,0) ">
<use xlink:href="#Symbol_60_copy_2_1_Layer2_0_FILL"/>
</g>

<g transform="matrix( 1, 0, 0, 1, 0,0) ">
<use xlink:href="#Symbol_60_copy_2_1_Layer1_0_FILL"/>
</g>
</g>
</g>
</svg>
