
<svg xmlns="http://www.w3.org/2000/svg" version="1.1" xmlns:xlink="http://www.w3.org/1999/xlink" preserveAspectRatio="none" x="0px" y="0px" width="567px" height="257px" viewBox="0 0 567 257">
<defs>
<g id="Symbol_59_copy_2_4_Layer2_0_FILL">
<path fill="#FFFFFF" stroke="none" d="
M 13 -36.45
L 12.85 -10.95
Q 9.25 -16.5 3.85 -19.8 -2.3 -23.55 -10.1 -23.55 -22.9 -23.55 -30.5 -16.8 -36.8 -11.25 -36.8 -4.2 -36.8 5.1 -28.45 13 -20.1 20.85 -8.1 20.85 5.45 20.85 13 12.65
L 13 36.3 21.95 41.55
Q 18.1083984375 39.6 14.95 39.6 8.65 39.6 3.8 44 -1.1 48.45 -1.1 56.2 -1.1 61.8 4.7 67.7 10.4 73.65 16.55 73.65 22.3 73.65 26.75 71.8 29.45 70.8 32 69.3
L 26.75 61.05
Q 24.25 63 20.1 64.85 16 66.75 13 66.75 10.1 66.75 8.35 64.85 6.55 63 6.55 60 6.55 54.45 9.6 51.25 12.7 48 16.15 48 23.15 48 31 54.3 37.3 59.45 55.6 78.6
L 59.5 74.4
Q 36 51.6 28.2 45.6 25.4599609375 43.46484375 23 42.1
L 23 -36.45 83.75 -36.45 83.75 -20.85 59.75 -20.85
Q 52.75 -20.85 47.8 -16.95 41.85 -12.25 41.85 -3.35 41.85 4.95 46.75 14.75 51.6 24.55 63.9 39.9
L 69.3 35.4
Q 59.3 23.4 55.2 15.95 51.15 8.4 51.15 2.25 51.15 -4.95 54.8 -8.15 58.5 -11.4 66.3 -11.4
L 84.35 -11.4 83.75 36.3 94.1 42.15 94.1 -36.45 128.6 -36.45
Q 128.6 -35.4 129.05 -32.85 129.2 -30.85 129.2 -26.4 129.2 -12.95 128.7 -9.1 128.15 -5.25 127.05 -5.25 126.35 -5.25 121.85 -7.75 117.3 -10.2 116.6 -10.2 114.75 -10.2 113.3 -8.25 111.75 -6.35 111.75 -4.35 111.75 -2.9 113.15 -0.35 115.05 3.25 119.3 8.55 124.95 15.5 133.8 25.25 142.65 34.95 150.8 43.4
L 155.4 38
Q 148.65 31.25 141.95 24.5 128.3 10.65 128.3 9.5 128.3 8.4 129.1 7.6 129.9 6.75 133.35 4.5 135.65 3.2 137.45 -0.35 139.35 -3.85 139.35 -7.5
L 139.35 -36.45 159.45 -36.45 154.4 -45.9 -155.05 -45.9 -149.8 -36.45 -97.55 -36.45 -97.85 -8.55
Q -99.85 -11.4 -101.95 -14.05 -104.15 -16.65 -106.75 -18.8 -109.3 -20.85 -112.8 -21.65 -116.3 -22.4 -120.4 -22.4 -131.05 -22.4 -136.45 -15.35 -140.05 -10.65 -140.05 -5.6 -140.05 4.3 -132.8 11.45 -125.6 18.55 -115.9 18.55 -110.85 18.55 -106.35 16.45 -104.45 15.55 -97.55 11.25
L -97.15 36.3 -87.4 42.15 -87.4 4.5
Q -82.25 0.2 -77.15 -2.65 -71.95 -5.55 -69.1 -5.55 -65.35 -5.55 -63 -3.35 -60.65 -1.2 -60.65 2.75 -60.65 7.5 -63.45 13.8 -66.2 20.1 -70.6 26.1
L -62.05 33.85
Q -53.05 20.1 -53.05 11.1 -53.05 -1.5 -60.05 -9.1 -65.65 -15.15 -71.65 -15.15 -75.55 -15.15 -79.4 -13 -82.4 -11.4 -87.4 -7.5
L -87.4 -36.45 13 -36.45
M 4.95 -12.95
Q 9.25 -9.05 9.25 -1.95 9.25 4.95 0.85 8.95
L -14.2 -14.4
Q -9.55 -15.8 -8.1 -16 -6.7 -16.2 -3.85 -16.2 1.2 -16.2 4.95 -12.95
M -118.45 -13.05
Q -111.25 -13.05 -106.8 -10.45 -102.4 -7.8 -97.55 -1.05 -104.3 4.15 -110.55 7.15 -116.85 10.15 -121.45 10.15 -126.15 10.15 -129.3 7.45 -132.45 4.7 -132.45 0.1 -132.45 -6.2 -128.2 -9.65 -123.85 -13.05 -118.45 -13.05
M -24.5 -6.8
Q -22.1 -10.35 -19.15 -11.9
L -4.15 11.55
Q -6.85 12.8 -9.05 13.15 -11.35 13.5 -14.05 13.5 -19.75 13.5 -23.2 11.1 -27.5 8.1 -27.5 1.65 -27.5 -2.4 -24.5 -6.8 Z"/>
</g>

<g id="Symbol_59_copy_2_4_Layer1_0_FILL">
<path fill="#000000" stroke="none" d="
M 8.75 -36.45
L 8.6 -10.95
Q 5 -16.5 -0.4 -19.8 -6.55 -23.55 -14.35 -23.55 -27.15 -23.55 -34.75 -16.8 -41.05 -11.25 -41.05 -4.2 -41.05 5.1 -32.7 13 -24.35 20.85 -12.35 20.85 1.2 20.85 8.75 12.65
L 8.75 36.3 17.7 41.55
Q 13.8583984375 39.6 10.7 39.6 4.4 39.6 -0.45 44 -5.35 48.45 -5.35 56.2 -5.35 61.8 0.45 67.7 6.15 73.65 12.3 73.65 18.05 73.65 22.5 71.8 25.2 70.8 27.75 69.3
L 22.5 61.05
Q 20 63 15.85 64.85 11.75 66.75 8.75 66.75 5.85 66.75 4.1 64.85 2.3 63 2.3 60 2.3 54.45 5.35 51.25 8.45 48 11.9 48 18.9 48 26.75 54.3 33.05 59.45 51.35 78.6
L 55.25 74.4
Q 31.75 51.6 23.95 45.6 21.2099609375 43.46484375 18.75 42.1
L 18.75 -36.45 79.5 -36.45 79.5 -20.85 55.5 -20.85
Q 48.5 -20.85 43.55 -16.95 37.6 -12.25 37.6 -3.35 37.6 4.95 42.5 14.75 47.35 24.55 59.65 39.9
L 65.05 35.4
Q 55.05 23.4 50.95 15.95 46.9 8.4 46.9 2.25 46.9 -4.95 50.55 -8.15 54.25 -11.4 62.05 -11.4
L 80.1 -11.4 79.5 36.3 89.85 42.15 89.85 -36.45 124.35 -36.45
Q 124.35 -35.4 124.8 -32.85 124.95 -30.85 124.95 -26.4 124.95 -12.95 124.45 -9.1 123.9 -5.25 122.8 -5.25 122.1 -5.25 117.6 -7.75 113.05 -10.2 112.35 -10.2 110.5 -10.2 109.05 -8.25 107.5 -6.35 107.5 -4.35 107.5 -2.9 108.9 -0.35 110.8 3.25 115.05 8.55 120.7 15.5 129.55 25.25 138.4 34.95 146.55 43.4
L 151.15 38
Q 144.4 31.25 137.7 24.5 124.05 10.65 124.05 9.5 124.05 8.4 124.85 7.6 125.65 6.75 129.1 4.5 131.4 3.2 133.2 -0.35 135.1 -3.85 135.1 -7.5
L 135.1 -36.45 155.2 -36.45 150.15 -45.9 -159.3 -45.9 -154.05 -36.45 -101.8 -36.45 -102.1 -8.55
Q -104.1 -11.4 -106.2 -14.05 -108.4 -16.65 -111 -18.8 -113.55 -20.85 -117.05 -21.65 -120.55 -22.4 -124.65 -22.4 -135.3 -22.4 -140.7 -15.35 -144.3 -10.65 -144.3 -5.6 -144.3 4.3 -137.05 11.45 -129.85 18.55 -120.15 18.55 -115.1 18.55 -110.6 16.45 -108.7 15.55 -101.8 11.25
L -101.4 36.3 -91.65 42.15 -91.65 4.5
Q -86.5 0.2 -81.4 -2.65 -76.2 -5.55 -73.35 -5.55 -69.6 -5.55 -67.25 -3.35 -64.9 -1.2 -64.9 2.75 -64.9 7.5 -67.7 13.8 -70.45 20.1 -74.85 26.1
L -66.3 33.85
Q -57.3 20.1 -57.3 11.1 -57.3 -1.5 -64.3 -9.1 -69.9 -15.15 -75.9 -15.15 -79.8 -15.15 -83.65 -13 -86.65 -11.4 -91.65 -7.5
L -91.65 -36.45 8.75 -36.45
M 0.7 -12.95
Q 5 -9.05 5 -1.95 5 4.95 -3.4 8.95
L -18.45 -14.4
Q -13.8 -15.8 -12.35 -16 -10.95 -16.2 -8.1 -16.2 -3.05 -16.2 0.7 -12.95
M -132.45 -9.65
Q -128.1 -13.05 -122.7 -13.05 -115.5 -13.05 -111.05 -10.45 -106.65 -7.8 -101.8 -1.05 -108.55 4.15 -114.8 7.15 -121.1 10.15 -125.7 10.15 -130.4 10.15 -133.55 7.45 -136.7 4.7 -136.7 0.1 -136.7 -6.2 -132.45 -9.65
M -28.75 -6.8
Q -26.35 -10.35 -23.4 -11.9
L -8.4 11.55
Q -11.1 12.8 -13.3 13.15 -15.6 13.5 -18.3 13.5 -24 13.5 -27.45 11.1 -31.75 8.1 -31.75 1.65 -31.75 -2.4 -28.75 -6.8 Z"/>
</g>
</defs>

<g transform="matrix( 1, 0, 0, 1, 284.8,118.55) ">
<g transform="matrix( 1.1999969482421875, 0, 0, 1.1999969482421875, -1.4,2.25) ">
<g transform="matrix( 1, 0, 0, 1, 0,0) ">
<use xlink:href="#Symbol_59_copy_2_4_Layer2_0_FILL"/>
</g>

<g transform="matrix( 1, 0, 0, 1, 0,0) ">
<use xlink:href="#Symbol_59_copy_2_4_Layer1_0_FILL"/>
</g>
</g>
</g>
</svg>
