
<svg xmlns="http://www.w3.org/2000/svg" version="1.1" xmlns:xlink="http://www.w3.org/1999/xlink" preserveAspectRatio="none" x="0px" y="0px" width="567px" height="257px" viewBox="0 0 567 257">
<defs>
<g id="Symbol_59_copy_2_5_Layer2_0_FILL">
<path fill="#FFFFFF" stroke="none" d="
M 29.95 -36.45
Q 30.1 -31.6 30.35 -27.5 30.55 -23.4 30.55 -20.55 30.55 -15.85 29.95 -12 29.4 -8 28.15 -6.25 19.1 -9.7 18.1 -9.7 17.35 -9.7 15.9 -7.95 14.5 -6.25 14.5 -5.25 14.5 -3.1 18.7 4.5 22 10.5 26.1 15.5 36.1 27.8 44.85 33.3 53.45 38.85 62.75 38.85 73.05 38.85 81.75 35.35 88.534765625 32.612890625 97.4 27.15
L 97.4 36.3 107.45 42.15 107.45 -36.45 128.15 -36.45 128.15 36.3 138.2 42.15 138.2 -36.45 150.95 -36.45 145.95 -45.9 -142.7 -45.9 -137.6 -36.45 -64.55 -36.45 -64.55 -0.6
Q -73.7 7.35 -80.75 11.4 -86.9 14.85 -90.4 14.85 -95 14.85 -97.95 11.9 -100.9 8.95 -100.9 4.05 -100.9 -0.05 -98.75 -3.7 -96.7 -7.35 -94.3 -8.7 -91.85 -10.05 -88.85 -10.35 -85.85 -10.65 -77.3 -10.65
L -67.7 -10.5 -72.85 -19.5 -127.55 -19.5 -122.5 -10.05 -106.1 -10.05
Q -108.05 -7.65 -109.1 -5.25 -110.05 -2.9 -110.05 0.25 -110.05 8.1 -103.45 14.1 -95.9 20.85 -83.9 20.85 -73.1 20.85 -64.1 12.25
L -64.55 36.3 -54.35 42.15 -54.35 -36.45 -19.65 -36.45
Q -19.65 -35.4 -19.2 -32.85 -19.05 -30.85 -19.05 -26.4 -19.05 -12.95 -19.55 -9.1 -20.1 -5.25 -21.2 -5.25 -21.9 -5.25 -26.4 -7.75 -30.95 -10.2 -31.65 -10.2 -33.5 -10.2 -34.95 -8.25 -36.5 -6.35 -36.5 -4.35 -36.5 -2.9 -35.1 -0.35 -33.2 3.25 -28.95 8.55 -23.3 15.5 -14.45 25.25 -5.6 34.95 2.55 43.4
L 7.15 38
Q 0.4 31.25 -6.3 24.5 -19.95 10.65 -19.95 9.5 -19.95 8.4 -19.15 7.6 -18.35 6.75 -14.9 4.5 -12.6 3.2 -10.8 -0.35 -8.9 -3.85 -8.9 -7.5
L -8.9 -36.45 29.95 -36.45
M 40.3 -22.3
Q 39.85 -30.75 39.85 -36.45
L 97.4 -36.45 97.4 16.8
Q 87.9119140625 23.3240234375 80.45 26.75 72.35 30.45 65.65 30.45 53.6 30.45 46 26.05 38.3 21.55 28.85 9.9 40.75 2.15 40.75 -9.4 40.75 -13.95 40.3 -22.3
M 72.6 -24.85
Q 62.7 -24.85 56.7 -19.9 50.7 -15 50.7 -7.85 50.7 1.45 58.4 8.25 66.15 15.05 76.2 15.05 82.6 15.05 88.8 9.8 95.5 3.9 95.5 -3.85 95.5 -11.25 88.25 -18.05 80.95 -24.85 72.6 -24.85
M 58.3 -2.55
Q 58.3 -7.45 63.65 -12.05 68.95 -16.6 76.2 -16.6 82.9 -16.6 86.5 -13.75 89.65 -11.3 89.65 -7.3 89.65 -1.65 83.95 2.6 78.25 6.75 70.45 6.75 64.6 6.75 61.45 4.35 58.3 2 58.3 -2.55 Z"/>
</g>

<g id="Symbol_59_copy_2_5_Layer1_0_FILL">
<path fill="#000000" stroke="none" d="
M 25.7 -36.45
Q 25.85 -31.6 26.1 -27.5 26.3 -23.4 26.3 -20.55 26.3 -15.85 25.7 -12 25.15 -8 23.9 -6.25 14.85 -9.7 13.85 -9.7 13.1 -9.7 11.65 -7.95 10.25 -6.25 10.25 -5.25 10.25 -3.1 14.45 4.5 17.75 10.5 21.85 15.5 31.85 27.8 40.6 33.3 49.2 38.85 58.5 38.85 68.8 38.85 77.5 35.35 84.284765625 32.612890625 93.15 27.15
L 93.15 36.3 103.2 42.15 103.2 -36.45 123.9 -36.45 123.9 36.3 133.95 42.15 133.95 -36.45 146.7 -36.45 141.7 -45.9 -146.95 -45.9 -141.85 -36.45 -68.8 -36.45 -68.8 -0.6
Q -77.95 7.35 -85 11.4 -91.15 14.85 -94.65 14.85 -99.25 14.85 -102.2 11.9 -105.15 8.95 -105.15 4.05 -105.15 -0.05 -103 -3.7 -100.95 -7.35 -98.55 -8.7 -96.1 -10.05 -93.1 -10.35 -90.1 -10.65 -81.55 -10.65
L -71.95 -10.5 -77.1 -19.5 -131.8 -19.5 -126.75 -10.05 -110.35 -10.05
Q -112.3 -7.65 -113.35 -5.25 -114.3 -2.9 -114.3 0.25 -114.3 8.1 -107.7 14.1 -100.15 20.85 -88.15 20.85 -77.35 20.85 -68.35 12.25
L -68.8 36.3 -58.6 42.15 -58.6 -36.45 -23.9 -36.45
Q -23.9 -35.4 -23.45 -32.85 -23.3 -30.85 -23.3 -26.4 -23.3 -12.95 -23.8 -9.1 -24.35 -5.25 -25.45 -5.25 -26.15 -5.25 -30.65 -7.75 -35.2 -10.2 -35.9 -10.2 -37.75 -10.2 -39.2 -8.25 -40.75 -6.35 -40.75 -4.35 -40.75 -2.9 -39.35 -0.35 -37.45 3.25 -33.2 8.55 -27.55 15.5 -18.7 25.25 -9.85 34.95 -1.7 43.4
L 2.9 38
Q -3.85 31.25 -10.55 24.5 -24.2 10.65 -24.2 9.5 -24.2 8.4 -23.4 7.6 -22.6 6.75 -19.15 4.5 -16.85 3.2 -15.05 -0.35 -13.15 -3.85 -13.15 -7.5
L -13.15 -36.45 25.7 -36.45
M 36.5 -9.4
Q 36.5 -13.95 36.05 -22.3 35.6 -30.75 35.6 -36.45
L 93.15 -36.45 93.15 16.8
Q 83.6619140625 23.3240234375 76.2 26.75 68.1 30.45 61.4 30.45 49.35 30.45 41.75 26.05 34.05 21.55 24.6 9.9 36.5 2.15 36.5 -9.4
M 68.35 -24.85
Q 58.45 -24.85 52.45 -19.9 46.45 -15 46.45 -7.85 46.45 1.45 54.15 8.25 61.9 15.05 71.95 15.05 78.35 15.05 84.55 9.8 91.25 3.9 91.25 -3.85 91.25 -11.25 84 -18.05 76.7 -24.85 68.35 -24.85
M 54.05 -2.55
Q 54.05 -7.45 59.4 -12.05 64.7 -16.6 71.95 -16.6 78.65 -16.6 82.25 -13.75 85.4 -11.3 85.4 -7.3 85.4 -1.65 79.7 2.6 74 6.75 66.2 6.75 60.35 6.75 57.2 4.35 54.05 2 54.05 -2.55 Z"/>
</g>
</defs>

<g transform="matrix( 1, 0, 0, 1, 284.8,118.55) ">
<g transform="matrix( 1.1999969482421875, 0, 0, 1.1999969482421875, -1.4,2.25) ">
<g transform="matrix( 1, 0, 0, 1, 0,0) ">
<use xlink:href="#Symbol_59_copy_2_5_Layer2_0_FILL"/>
</g>

<g transform="matrix( 1, 0, 0, 1, 0,0) ">
<use xlink:href="#Symbol_59_copy_2_5_Layer1_0_FILL"/>
</g>
</g>
</g>
</svg>
