
<svg xmlns="http://www.w3.org/2000/svg" version="1.1" xmlns:xlink="http://www.w3.org/1999/xlink" preserveAspectRatio="none" x="0px" y="0px" width="567px" height="257px" viewBox="0 0 567 257">
<defs>
<g id="Symbol_59_copy_2_3_Layer2_0_FILL">
<path fill="#FFFFFF" stroke="none" d="
M 38.55 -23.1
Q 29.85 -23.1 24.45 -15.95 19.95 -9.95 19.95 -2.95 19.95 9.2 31.3 22.25 40.7 33 56.65 43.4
L 60.9 38.25
Q 42.75 27.95 35.55 18.35 30.15 10.95 30.15 1.5 30.15 -5.8 34.95 -10.2 38.85 -13.8 43.85 -13.8 47 -13.8 50.8 -10.9 54.6 -7.95 56.75 -4.65 56 -3.65 54.9 -1.65 53.85 0.25 52.6 2.55
L 60.9 8.1
Q 67 -3.65 71.1 -7.65 75.25 -11.7 80.4 -11.7 84.25 -11.7 87.95 -9.2
L 87.5 36.3 97.65 42.15 97.65 -36.45 110.4 -36.45 105.45 -45.9 -102.3 -45.9 -97.3 -36.45 -81.45 -36.45 -81.45 -9.4
Q -81.45 -2.1 -72.1 5.6 -63.55 12.65 -57.55 12.65 -53.95 12.65 -51.7 11.95 -49.4 11.25 -45.4 9.1
L -45.4 36.3 -34.9 42.15 -34.9 3.5
Q -29.65 -0.9 -22.7 -4.45 -15.75 -7.95 -12.45 -7.95 -8.85 -7.95 -6.5 -5.75 -4.15 -3.65 -4.15 0.35 -4.15 4.95 -6.95 11.3 -9.7 17.7 -13.9 23.7
L -5.4 31.55
Q 3.45 17.55 3.45 8.9 3.45 -3.9 -3.55 -11.55 -9.15 -17.55 -15.15 -17.55 -19 -17.55 -24.65 -14.9 -30.3 -12.25 -34.9 -8.55
L -34.9 -36.45 87.5 -36.45 87.5 -14.85
Q 85.5 -16.65 82.05 -18.35 78.6 -20.1 75.6 -20.1 71.15 -20.1 67.25 -17.55 63.45 -15.05 59.15 -9.2 55.4 -13.8 50.3 -18.95 48.45 -20.7 45.25 -21.95 42 -23.1 38.55 -23.1
M -71.4 -9.1
L -71.4 -36.45 -44.95 -36.45 -44.95 -3.1
Q -48.1 -0.7 -53.35 1.5 -58.65 3.75 -62.4 3.75 -66.7 3.75 -69.05 0.7 -71.4 -2.4 -71.4 -9.1 Z"/>
</g>

<g id="Symbol_59_copy_2_3_Layer1_0_FILL">
<path fill="#000000" stroke="none" d="
M 34.3 -23.1
Q 25.6 -23.1 20.2 -15.95 15.7 -9.95 15.7 -2.95 15.7 9.2 27.05 22.25 36.45 33 52.4 43.4
L 56.65 38.25
Q 38.5 27.95 31.3 18.35 25.9 10.95 25.9 1.5 25.9 -5.8 30.7 -10.2 34.6 -13.8 39.6 -13.8 42.75 -13.8 46.55 -10.9 50.35 -7.95 52.5 -4.65 51.75 -3.65 50.65 -1.65 49.6 0.25 48.35 2.55
L 56.65 8.1
Q 62.75 -3.65 66.85 -7.65 71 -11.7 76.15 -11.7 80 -11.7 83.7 -9.2
L 83.25 36.3 93.4 42.15 93.4 -36.45 106.15 -36.45 101.2 -45.9 -106.55 -45.9 -101.55 -36.45 -85.7 -36.45 -85.7 -9.4
Q -85.7 -2.1 -76.35 5.6 -67.8 12.65 -61.8 12.65 -58.2 12.65 -55.95 11.95 -53.65 11.25 -49.65 9.1
L -49.65 36.3 -39.15 42.15 -39.15 3.5
Q -33.9 -0.9 -26.95 -4.45 -20 -7.95 -16.7 -7.95 -13.1 -7.95 -10.75 -5.75 -8.4 -3.65 -8.4 0.35 -8.4 4.95 -11.2 11.3 -13.95 17.7 -18.15 23.7
L -9.65 31.55
Q -0.8 17.55 -0.8 8.9 -0.8 -3.9 -7.8 -11.55 -13.4 -17.55 -19.4 -17.55 -23.25 -17.55 -28.9 -14.9 -34.55 -12.25 -39.15 -8.55
L -39.15 -36.45 83.25 -36.45 83.25 -14.85
Q 81.25 -16.65 77.8 -18.35 74.35 -20.1 71.35 -20.1 66.9 -20.1 63 -17.55 59.2 -15.05 54.9 -9.2 51.15 -13.8 46.05 -18.95 44.2 -20.7 41 -21.95 37.75 -23.1 34.3 -23.1
M -75.65 -9.1
L -75.65 -36.45 -49.2 -36.45 -49.2 -3.1
Q -52.35 -0.7 -57.6 1.5 -62.9 3.75 -66.65 3.75 -70.95 3.75 -73.3 0.7 -75.65 -2.4 -75.65 -9.1 Z"/>
</g>
</defs>

<g transform="matrix( 1, 0, 0, 1, 284.8,118.55) ">
<g transform="matrix( 1.1999969482421875, 0, 0, 1.1999969482421875, -1.4,2.25) ">
<g transform="matrix( 1, 0, 0, 1, 0,0) ">
<use xlink:href="#Symbol_59_copy_2_3_Layer2_0_FILL"/>
</g>

<g transform="matrix( 1, 0, 0, 1, 0,0) ">
<use xlink:href="#Symbol_59_copy_2_3_Layer1_0_FILL"/>
</g>
</g>
</g>
</svg>
