
<svg xmlns="http://www.w3.org/2000/svg" version="1.1" xmlns:xlink="http://www.w3.org/1999/xlink" preserveAspectRatio="none" x="0px" y="0px" width="278px" height="216px" viewBox="0 0 278 216">
<defs>
<g id="Symbol_4_1_Layer0_0_FILL">
<path fill="#000000" stroke="none" d="
M 199.25 73.55
L 199.25 65.85 77.75 65.85 77.75 73.55 135.2 73.55 135.2 120.45
Q 135.2 124.05 131.25 128 124.25 134.95 117.55 134.95 114.5 134.95 110.55 133.7 101.35 129 101.35 117.15 101.35 109.4 105.9 103.7 110.4 98.1 118.3 98.1
L 121.15 98.1 123.9 99.2 124.9 100.05 126.75 100.5 126.75 92.3
Q 125.45 91.5 121.7 91.05
L 116.55 90.55 111.5 91.1
Q 103.95 92.85 98.35 97.9 90.6 104.9 90.6 116.1 90.6 127.25 98.9 134.7 107.15 142.15 117.75 142.15 128.2 142.15 135.2 135.15
L 135.2 163 145.05 163 145.05 122.75
Q 145.05 119.8 146.5 115.65 148.6 111.15 150.65 108.3 157.25 100.05 165 100.05 174 100.05 177.4 106.65 179.25 110.5 179.25 115.85 179.25 119.6 177.2 124.85 172.9 134.6 165 142.5 163.25 144.15 161.95 144.6
L 170.05 150.75 179.85 139.45
Q 189.6 127.25 189.6 116.6 189.6 106 182.25 99.5 174.35 92.3 163.9 92.3 156.5 92.3 150.65 96.9
L 145.05 101.95 145.05 73.55 199.25 73.55 Z"/>
</g>
</defs>

<g transform="matrix( 1, 0, 0, 1, -0.6,-1.45) ">
<g transform="matrix( 1, 0, 0, 1, 1.5,-3) ">
<use xlink:href="#Symbol_4_1_Layer0_0_FILL"/>
</g>
</g>
</svg>
