
<svg xmlns="http://www.w3.org/2000/svg" version="1.1" xmlns:xlink="http://www.w3.org/1999/xlink" preserveAspectRatio="none" x="0px" y="0px" width="278px" height="216px" viewBox="0 0 278 216">
<defs>
<filter id="Filter_1" x="-20%" y="-20%" width="140%" height="140%" color-interpolation-filters="sRGB">
<feColorMatrix in="SourceGraphic" type="matrix" values="1 0 0 0 0 0 1 0 0 0 0 0 1 0 0 0 0 0 1 0 " result="result1"/>

<feColorMatrix in="result1" type="matrix" values="1 0 0 0 0 0 1 0 0 0 0 0 1 0 0 0 0 0 0.9 0" result="result2"/>
</filter>

<filter id="Filter_2" x="-20%" y="-20%" width="140%" height="140%" color-interpolation-filters="sRGB">
<feFlood flood-color="#000000" flood-opacity="1" in="SourceGraphic" result="result1"/>

<feComposite in2="SourceGraphic" in="result1" operator="in" result="result2"/>

<feGaussianBlur in="result2" stdDeviation="3.3333333333333335,3.3333333333333335" result="result3"/>

<feOffset dx="3.5355339059327378" dy="3.5355339059327378" in="result3" result="result4"/>

<feComposite in2="result4" in="SourceGraphic" operator="over" result="result5"/>
</filter>

<g id="Play_BTN_01_copy_0_Layer0_0_FILL">
<path fill="#414141" stroke="none" d="
M 30.05 -71.1
Q 15.7 -77.15 0 -77.15 -15.7 -77.15 -30 -71.1 -43.85 -65.25 -54.5 -54.55 -65.2 -43.85 -71.05 -30.05 -77.1 -15.7 -77.1 0 -77.1 15.7 -71.05 30.05 -65.2 43.85 -54.5 54.55 -43.85 65.25 -30 71.1 -15.7 77.15 0 77.15 15.7 77.15 30.05 71.1 43.85 65.25 54.55 54.55 65.25 43.85 71.1 30.05 77.15 15.7 77.15 0 77.15 -15.7 71.1 -30.05 65.25 -43.85 54.55 -54.55 43.85 -65.25 30.05 -71.1
M 0 -72.45
Q 14.75 -72.45 28.2 -66.75 41.2 -61.25 51.25 -51.2 61.25 -41.2 66.75 -28.2 72.45 -14.75 72.45 0 72.45 14.75 66.75 28.2 61.25 41.2 51.25 51.25 41.2 61.25 28.2 66.75 14.75 72.45 0 72.45 -14.75 72.45 -28.2 66.75 -41.2 61.25 -51.2 51.25 -61.25 41.2 -66.75 28.2 -72.45 14.75 -72.45 0 -72.45 -14.75 -66.75 -28.2 -61.25 -41.2 -51.2 -51.2 -41.2 -61.25 -28.2 -66.75 -14.75 -72.45 0 -72.45
M -26.3 39
L 41.3 0 -26.3 -39.05 -26.3 39 Z"/>

<path fill="#FFFFFF" stroke="none" d="
M 28.2 -66.75
Q 14.75 -72.45 0 -72.45 -14.75 -72.45 -28.2 -66.75 -41.2 -61.25 -51.2 -51.2 -61.25 -41.2 -66.75 -28.2 -72.45 -14.75 -72.45 0 -72.45 14.75 -66.75 28.2 -61.25 41.2 -51.2 51.25 -41.2 61.25 -28.2 66.75 -14.75 72.45 0 72.45 14.75 72.45 28.2 66.75 41.2 61.25 51.25 51.25 61.25 41.2 66.75 28.2 72.45 14.75 72.45 0 72.45 -14.75 66.75 -28.2 61.25 -41.2 51.25 -51.2 41.2 -61.25 28.2 -66.75
M 41.3 0
L -26.3 39 -26.3 -39.05 41.3 0 Z"/>
</g>

<g id="Symbol_1_0_Layer0_0_FILL">
<path fill="#FFFFFF" stroke="none" d="
M 312.2 -208.55
Q 300.5 -220.25 283.95 -220.25
L -283.9 -220.25
Q -300.45 -220.25 -312.15 -208.55 -323.85 -196.85 -323.85 -180.3
L -323.85 236.25
Q -323.85 252.8 -312.15 264.5 -300.45 276.2 -283.9 276.2
L 283.95 276.2
Q 300.5 276.2 312.2 264.5 323.9 252.8 323.9 236.25
L 323.9 -180.3
Q 323.9 -196.85 312.2 -208.55 Z"/>
</g>

<g id="Paper_0_Layer0_0_FILL">
<path fill="#FFC2C2" stroke="none" d="
M 312.2 -208.55
Q 300.5 -220.25 283.95 -220.25
L -283.9 -220.25
Q -300.45 -220.25 -312.15 -208.55 -323.85 -196.85 -323.85 -180.3
L -323.85 236.25
Q -323.85 252.8 -312.15 264.5 -300.45 276.2 -283.9 276.2
L 283.95 276.2
Q 300.5 276.2 312.2 264.5 323.9 252.8 323.9 236.25
L 323.9 -180.3
Q 323.9 -196.85 312.2 -208.55 Z"/>
</g>

<g id="Layer0_2_FILL">
<path fill="#0E0E0E" stroke="none" d="
M 419.7 279.8
Q 419.7 283.6 415.5 287.8 408.1 295.25 400.95 295.25 397.75 295.25 393.55 293.85 383.75 288.9 383.75 276.3 383.75 268.1 388.55 262 393.35 256.05 401.75 256.05
L 404.75 256.05 407.7 257.25 408.75 258.1 410.7 258.6 410.7 249.9
Q 409.35 249.05 405.35 248.55
L 399.85 248.05 394.5 248.65
Q 386.5 250.5 380.55 255.85 372.35 263.3 372.35 275.2 372.35 287 381.1 294.95 389.9 302.85 401.15 302.85 412.3 302.85 419.7 295.4
L 419.7 325 430.15 325 430.15 282.25
Q 430.15 279.1 431.7 274.7 433.95 269.95 436.1 266.9 443.15 258.1 451.35 258.1 460.9 258.1 464.5 265.15 466.5 269.25 466.5 274.9 466.5 278.9 464.35 284.5 459.75 294.85 451.35 303.25 449.5 305 448.1 305.5
L 456.7 312 467.15 300
Q 477.5 287 477.5 275.7 477.5 264.45 469.7 257.55 461.3 249.9 450.15 249.9 442.35 249.9 436.1 254.8
L 430.15 260.15 430.15 230 487.75 230 487.75 221.8 358.65 221.8 358.65 230 419.7 230 419.7 279.8 Z"/>
</g>
</defs>

<g filter="url(#Filter_1)" transform="matrix( 1, 0, 0, 1, 0,0) ">
<g transform="matrix( 0.2974090576171875, 0, 0, 0.2974090576171875, 238.4,177.2) ">
<g transform="matrix( 1, 0, 0, 1, 0,0) ">
<use xlink:href="#Play_BTN_01_copy_0_Layer0_0_FILL"/>
</g>
</g>
</g>

<g transform="matrix( 0.407470703125, 0, 0, 0.407470703125, 135.7,93.45) ">
<g filter="url(#Filter_2)" transform="matrix( 2.45416259765625, 0, 0, 2.45416259765625, -333,-229.3) ">
<g transform="matrix( 0.407470703125, 0, 0, 0.407470703125, 135.7,104.8) ">
<g transform="matrix( 1, 0, 0, 1, 0,-27.95) ">
<use xlink:href="#Symbol_1_0_Layer0_0_FILL"/>
</g>
</g>
</g>

<g transform="matrix( 1, 0, 0, 1, 0,0) ">
<use xlink:href="#Paper_0_Layer0_0_FILL"/>
</g>
</g>

<g transform="matrix( 1.11614990234375, 0, 0, 1.11614990234375, -336.5,-200.2) ">
<use xlink:href="#Layer0_2_FILL"/>
</g>
</svg>
