
<svg xmlns="http://www.w3.org/2000/svg" version="1.1" xmlns:xlink="http://www.w3.org/1999/xlink" preserveAspectRatio="none" x="0px" y="0px" width="173px" height="173px" viewBox="0 0 173 173">
<defs>
<linearGradient id="Gradient_1" gradientUnits="userSpaceOnUse" x1="-24.475" y1="20.57499999999999" x2="38.475" y2="219.625" spreadMethod="pad">
<stop  offset="0%" stop-color="#FFFFFF"/>

<stop  offset="9.411764705882353%" stop-color="#C5C5C5"/>

<stop  offset="17.647058823529413%" stop-color="#929292"/>

<stop  offset="27.84313725490196%" stop-color="#686868"/>

<stop  offset="40%" stop-color="#414141"/>

<stop  offset="48.627450980392155%" stop-color="#333333"/>

<stop  offset="61.96078431372549%" stop-color="#404040"/>

<stop  offset="73.33333333333333%" stop-color="#5A5A5A"/>

<stop  offset="83.13725490196079%" stop-color="#878787"/>

<stop  offset="91.76470588235294%" stop-color="#BABABA"/>

<stop  offset="100%" stop-color="#FFFFFF"/>
</linearGradient>

<linearGradient id="Gradient_2" gradientUnits="userSpaceOnUse" x1="28.9" y1="-335.925" x2="28.9" y2="-0.07499999999998863" spreadMethod="pad">
<stop  offset="0%" stop-color="#FFFFFF"/>

<stop  offset="12.941176470588236%" stop-color="#969696"/>

<stop  offset="46.666666666666664%" stop-color="#464646"/>

<stop  offset="90.19607843137256%" stop-color="#B7B7B7"/>

<stop  offset="100%" stop-color="#FFFFFF"/>
</linearGradient>

<linearGradient id="Gradient_3" gradientUnits="userSpaceOnUse" x1="-5.575" y1="139.15" x2="5.875000000000001" y2="-152.54999999999998" spreadMethod="pad">
<stop  offset="0%" stop-color="#FFCC00"/>

<stop  offset="100%" stop-color="#FFD400"/>
</linearGradient>

<linearGradient id="Gradient_4" gradientUnits="userSpaceOnUse" x1="-0.15" y1="13.000000000000014" x2="-0.15" y2="-144.7" spreadMethod="pad">
<stop  offset="0%" stop-color="#FFED39"/>

<stop  offset="100%" stop-color="#FFD739" stop-opacity="0"/>
</linearGradient>

<filter id="Filter_1" x="-20%" y="-20%" width="140%" height="140%" color-interpolation-filters="sRGB">
<feFlood flood-color="#000000" flood-opacity="1" in="SourceGraphic" result="result1"/>

<feComposite in2="SourceGraphic" in="result1" operator="in" result="result2"/>

<feGaussianBlur in="result2" stdDeviation="3.3333333333333335,3.3333333333333335" result="result3"/>

<feOffset dx="2.8284271247461903" dy="2.8284271247461903" in="result3" result="result4"/>

<feComposite in2="result4" in="SourceGraphic" operator="over" result="result5"/>
</filter>

<filter id="Filter_2" x="-20%" y="-20%" width="140%" height="140%" color-interpolation-filters="sRGB">
<feColorMatrix in="SourceGraphic" type="matrix" values="-0.23943552 0.4377331200000001 0.04170239999999996 0 0.1864313725490196 0.11576448 0.08253312000000002 0.04170240000000001 0 0.18643137254901962 0.11576448000000004 0.4377331200000001 -0.31349760000000004 0 0.1864313725490196 0 0 0 1 0 " result="result1"/>
</filter>

<filter id="Filter_3" x="-20%" y="-20%" width="140%" height="140%" color-interpolation-filters="sRGB">
<feColorMatrix in="SourceGraphic" type="matrix" values="-0.9795533500547117 1.8778196825735738 0.10173366748113799 0 0 0.47084359275677506 0.3336220521069827 0.1955343551362421 0 0 0.5428788029295637 1.7670558647810064 -1.30993466771057 0 0 0 0 0 1 0 " result="result1"/>
</filter>

<filter id="Filter_4" x="-20%" y="-20%" width="140%" height="140%" color-interpolation-filters="sRGB">
<feFlood flood-color="#000000" flood-opacity="1" in="SourceGraphic" result="result1"/>

<feComposite in2="SourceGraphic" in="result1" operator="in" result="result2"/>

<feGaussianBlur in="result2" stdDeviation="1,1" result="result3"/>

<feOffset dx="2.121320343559643" dy="2.121320343559643" in="result3" result="result4"/>

<feComposite in2="result4" in="SourceGraphic" operator="over" result="result5"/>
</filter>

<g id="Symbol_5_0_Layer0_0_FILL">
<path fill="url(#Gradient_1)" stroke="none" d="
M 0 181.8
Q 75.35 181.8 128.55 128.6 180.1 77.1 181.75 4.9
L -181.75 4.9
Q -180.05 77.1 -128.6 128.6 -75.3 181.8 0 181.8 Z"/>

<path fill="url(#Gradient_2)" stroke="none" d="
M 128.55 -128.55
Q 75.35 -181.8 0 -181.8 -75.3 -181.8 -128.6 -128.55 -181.8 -75.25 -181.8 0 -181.8 2.5 -181.75 4.9
L 181.75 4.9
Q 181.85 2.5 181.85 0 181.85 -75.25 128.55 -128.55 Z"/>
</g>

<g id="Symbol_25_0_Layer1_0_FILL">
<path fill="#EFB400" stroke="none" d="
M 107.75 152.45
Q 52.25 152.45 13 191.65 -26.2 230.9 -26.2 286.4 -26.2 341.9 13 381.1 52.25 420.35 107.75 420.35 163.25 420.35 202.45 381.1 241.7 341.9 241.7 286.4 241.7 230.9 202.45 191.65 163.25 152.45 107.75 152.45 Z"/>
</g>

<g id="Symbol_25_0_Layer1_1_FILL">
<path fill="#FFCC00" stroke="none" d="
M 259.1 162.3
Q 219.9 123.1 164.4 123.1 108.9 123.1 69.65 162.3 30.6443359375 201.3552734375 30.45 256.5 30.45 256.75 30.45 257 30.45 307.6 69.65 343.35 108.9 379.15 164.4 379.15 219.9 379.15 259.1 343.35 298.35 307.6 298.35 257 298.35 256.75 298.35 256.5 298.1552734375 201.3552734375 259.1 162.3 Z"/>
</g>

<g id="Symbol_25_0_Layer1_2_FILL">
<path fill="url(#Gradient_3)" stroke="none" d="
M 152.7 -0.05
Q 152.7 -0.35 152.7 -0.65 152.45 -63.5 107.95 -108 63.25 -152.7 0 -152.7 -63.25 -152.7 -108 -108 -152.45 -63.5 -152.7 -0.65 -152.7 -0.35 -152.7 -0.05 -152.7 57.65 -108 98.4 -63.25 139.2 0 139.2 63.25 139.2 107.95 98.4 152.7 57.65 152.7 -0.05 Z"/>
</g>

<g id="Symbol_25_0_Layer1_3_FILL">
<path fill="url(#Gradient_4)" stroke="none" d="
M 134.75 -31
Q 133.35 -66.55 94.2 -105.7 55.1 -144.75 -0.2 -144.75 -55.55 -144.75 -94.7 -105.7 -133.75 -66.55 -137.5 -30.65 -141.3 5.25 -84.3 -1.25 -27.3 -7.75 18.25 -6 63.75 -4.3 99.95 0.15 136.15 4.6 134.75 -31 Z"/>
</g>

<g id="Symbol_25_0_Layer1_4_FILL">
<path fill="#FFFFFF" fill-opacity="0.24705882352941178" stroke="none" d="
M 193.2 141.1
Q 180.7 136 163.05 136 145.35 136 132.85 141.1 120.4 146.2 120.4 153.4 120.3943359375 160.605859375 135.1 157.8 149.8666015625 155.03203125 167.2 156.15 184.583203125 157.2677734375 195.15 158.9 205.70546875 160.5939453125 205.7 153.4 205.7 146.2 193.2 141.1 Z"/>
</g>

<g id="Symbol_14_copy_0_Layer0_0_FILL">
<path fill="#FFFFFF" stroke="none" d="
M -38.7 -13.8
Q -39.9 -12.65 -39.9 -11
L -39.9 8.1
Q -39.9 9.75 -38.7 10.95 -37.55 12.1 -35.9 12.1
L -25.5 12.1 -25.5 -15 -35.9 -15
Q -37.55 -15 -38.7 -13.8 Z"/>
</g>

<g id="Symbol_14_copy_0_Layer0_1_FILL">
<path fill="#FFFFFF" stroke="none" d="
M -2.85 -4.1
Q -4.75 -6 -7.45 -6 -10.15 -6 -12.05 -4.1 -13.95 -2.2 -13.95 0.5 -13.95 3.2 -12.05 5.1 -10.15 7 -7.45 7 -4.75 7 -2.85 5.1 -0.95 3.2 -0.95 0.5 -0.95 -2.2 -2.85 -4.1 Z"/>
</g>

<g id="Symbol_14_copy_0_Layer0_2_FILL">
<path fill="#FFFFFF" stroke="none" d="
M 2.35 -24.5
Q 2.3505859375 -26.026171875 1.3 -27.2 0.2962890625 -28.3146484375 -1.25 -28.5 -2.7376953125 -28.640625 -4 -27.75
L -22 -14.9 -22 12.05 -3.95 24.95
Q -2.6802734375 25.841015625 -1.2 25.65 0.3431640625 25.5134765625 1.35 24.35 2.400390625 23.2259765625 2.4 21.7
L 2.35 -24.5 Z"/>
</g>
</defs>

<g transform="matrix( 0.44873046875, 0, 0, 0.44873046875, 82.4,82.4) ">
<g filter="url(#Filter_1)" transform="matrix( 2.2285003662109375, 0, 0, 2.2285003662109375, -183.6,-183.6) ">
<g transform="matrix( 0.44873046875, 0, 0, 0.44873046875, 82.55,82.45) ">
<g transform="matrix( 1, 0, 0, 1, 0,0) ">
<use xlink:href="#Symbol_5_0_Layer0_0_FILL"/>
</g>
</g>
</g>

<g filter="url(#Filter_2)" transform="matrix( 2.2285003662109375, 0, 0, 2.2285003662109375, -183.6,-183.6) ">
<g transform="matrix( 0.457489013671875, 0, 0, 0.457489013671875, 82.5,82.4) ">
<g transform="matrix( 1.207000732421875, 0, 0, 1.207000732421875, -130.05,-345.65) ">
<use xlink:href="#Symbol_25_0_Layer1_0_FILL"/>
</g>

<g transform="matrix( 1.139984130859375, 0, 0, 1.139984130859375, -187.65,-293.15) ">
<use xlink:href="#Symbol_25_0_Layer1_1_FILL"/>
</g>

<g transform="matrix( 1.019989013671875, 0, 0, 1.019989013671875, -0.3,0) ">
<use xlink:href="#Symbol_25_0_Layer1_2_FILL"/>
</g>

<g transform="matrix( 1, 0, 0, 1, 0,0) ">
<use xlink:href="#Symbol_25_0_Layer1_3_FILL"/>
</g>

<g transform="matrix( 1.139984130859375, 0, 0, 1.139984130859375, -187.65,-293.15) ">
<use xlink:href="#Symbol_25_0_Layer1_4_FILL"/>
</g>
</g>
</g>

<g filter="url(#Filter_3)" transform="matrix( 2.2285003662109375, 0, 0, 2.2285003662109375, -183.6,-183.6) ">
<g transform="matrix( 0.4397430419921875, 0, 0, 0.4397430419921875, 82.5,82.4) ">
<g transform="matrix( 1.207000732421875, 0, 0, 1.207000732421875, -130.05,-345.65) ">
<use xlink:href="#Symbol_25_0_Layer1_0_FILL"/>
</g>

<g transform="matrix( 1.139984130859375, 0, 0, 1.139984130859375, -187.65,-293.15) ">
<use xlink:href="#Symbol_25_0_Layer1_1_FILL"/>
</g>

<g transform="matrix( 1.019989013671875, 0, 0, 1.019989013671875, -0.3,0) ">
<use xlink:href="#Symbol_25_0_Layer1_2_FILL"/>
</g>

<g transform="matrix( 1, 0, 0, 1, 0,0) ">
<use xlink:href="#Symbol_25_0_Layer1_3_FILL"/>
</g>

<g transform="matrix( 1.139984130859375, 0, 0, 1.139984130859375, -187.65,-293.15) ">
<use xlink:href="#Symbol_25_0_Layer1_4_FILL"/>
</g>
</g>
</g>

<g filter="url(#Filter_4)" transform="matrix( 2.2285003662109375, 0, 0, 2.2285003662109375, -183.6,-183.6) ">
<g transform="matrix( 1.3153839111328125, 0, 0, 1.3153839111328125, 104.9,84.3) ">
<g transform="matrix( 1, 0, 0, 1, -6.3,0) ">
<use xlink:href="#Symbol_14_copy_0_Layer0_0_FILL"/>
</g>

<g transform="matrix( 1, 0, 0, 1, 1.05,-0.5) ">
<use xlink:href="#Symbol_14_copy_0_Layer0_1_FILL"/>
</g>

<g transform="matrix( 1, 0, 0, 1, -6.75,-0.05) ">
<use xlink:href="#Symbol_14_copy_0_Layer0_2_FILL"/>
</g>
</g>
</g>
</g>
</svg>
