
<svg xmlns="http://www.w3.org/2000/svg" version="1.1" xmlns:xlink="http://www.w3.org/1999/xlink" preserveAspectRatio="none" x="0px" y="0px" width="68px" height="68px" viewBox="0 0 68 68">
<defs/>

<g id="Layer_1">
<g transform="matrix( 1, 0, 0, 1, 34,34) ">
<g id="Layer_1">
<g transform="matrix( 1, 0, 0, 1, -46.9,-929.95) ">
<g>
<g>
<path fill="#3A77FF" stroke="none" d="
M 78.45 929.2
Q 76.6 920.2 69.7 913.3 60.25 903.9 46.9 903.9 33.55 903.9 24.2 913.3 17.3 920.2 15.4 929.2 17.3 938.25 24.2 945.1 33.55 954.55 46.9 954.55 60.25 954.55 69.7 945.1 76.6 938.25 78.45 929.2 Z"/>

<path fill="#5387FC" stroke="none" d="
M 78.9 926.15
Q 77.75 915.25 69.7 907.25 60.25 897.8 46.9 897.8 33.55 897.8 24.2 907.25 16.15 915.25 14.95 926.15 15.15 927.75 15.4 929.2 17.3 920.2 24.2 913.3 33.55 903.9 46.9 903.9 60.25 903.9 69.7 913.3 76.6 920.2 78.45 929.2 78.75 927.75 78.9 926.15 Z"/>

<path fill="#315DBF" stroke="none" d="
M 78.95 933
Q 79.1 931.5 79.1 929.95 79.1 928.05 78.9 926.15 78.75 927.75 78.45 929.2 76.6 938.25 69.7 945.1 60.25 954.55 46.9 954.55 33.55 954.55 24.2 945.1 17.3 938.25 15.4 929.2 15.15 927.75 14.95 926.15 14.75 928.05 14.75 929.95 14.75 931.5 14.85 932.95 15.85 944.4 24.2 952.7 33.55 962.15 46.9 962.15 60.25 962.15 69.7 952.7 78 944.4 78.95 933 Z"/>
</g>
</g>

<g>
<path stroke="#002511" stroke-width="2" stroke-linejoin="round" stroke-linecap="round" fill="none" d="
M 14.95 926.15
Q 14.75 928.05 14.75 929.95 14.75 931.5 14.85 932.95 15.85 944.4 24.2 952.7 33.55 962.15 46.9 962.15 60.25 962.15 69.7 952.7 78 944.4 78.95 933 79.1 931.5 79.1 929.95 79.1 928.05 78.9 926.15
M 14.95 926.15
Q 16.15 915.25 24.2 907.25 33.55 897.8 46.9 897.8 60.25 897.8 69.7 907.25 77.75 915.25 78.9 926.15"/>
</g>
</g>

<g transform="matrix( 0.2386474609375, 0, 0, 0.2386474609375, -0.55,-0.7) ">
<g>
<g>
<path fill="#000000" stroke="none" d="
M -19 -73.4
Q -27.85 -70.25 -35.25 -64.35 -42.6 -58.55 -47.65 -50.7 -52.85 -42.7 -55.15 -33.5 -55.55 -31.15 -55.65 -30.5 -52.55 -27.8 -50.85 -24 -49.15 -20.25 -49.15 -16.05
L -49.15 8.55
Q -49.15 9.6 -49.25 10.6 -41.55 25.75 -28.8 35 -19.178515625 42.065234375 -8.7 44.05
L 0 44.95
Q 0.1 44.95 0.2 44.95
L 8.9 44.05
Q 19.378515625 42.065234375 29 35 41.75 25.75 49.45 10.6 49.35 9.6 49.35 8.55
L 49.35 -16.05
Q 49.35 -20.25 51.05 -24 52.75 -27.8 55.85 -30.5 55.75 -31.15 55.35 -33.5 53.05 -42.7 47.85 -50.7 42.8 -58.55 35.45 -64.35 28.05 -70.25 19.2 -73.4 16.818359375 -74.24140625 14.4 -74.85
L 0.2 -76.65
Q 0.1 -76.65 0 -76.65
L -14.2 -74.85
Q -16.6181640625 -74.24140625 -19 -73.4 Z"/>
</g>
</g>
</g>

<g transform="matrix( 1, 0, 0, 1, -47.75,-934.05) ">
<g>
<g>
<path fill="#000000" stroke="none" d="
M 29.75 947.45
Q 27 949.6 26.35 950.5 35.7576171875 958.9779296875 48.95 958.75 61.95 957.85 68.95 950.7 68.05 949.65 66.95 948.7 63.1 945.25 57.9 944.45 55.95 945.95 53.55 946.75 51.05 947.6 48.45 947.6
L 47.05 947.6
Q 44.45 947.6 41.95 946.75 39.55 945.95 37.6 944.45 32.4 945.25 29.75 947.45 Z"/>
</g>
</g>
</g>

<g transform="matrix( 0.2386474609375, 0, 0, 0.2386474609375, -0.55,-0.7) ">
<g>
<g>
<path fill="#000000" stroke="none" d="
M -51.5 -77.45
Q -61.7 -67.65 -67.65 -54.9 -73.75 -41.7 -74.4 -27.1 -77.55 -25.6 -79.45 -22.65 -81.45 -19.65 -81.45 -16.05
L -81.45 8.55
Q -81.45 13.7 -77.8 17.3 -74.2 20.9 -69.15 20.9
L -68.55 20.9
Q -63.4 20.9 -59.8 17.3 -56.2 13.7 -56.2 8.55
L -56.2 -16.05
Q -56.2 -19.6 -58.1 -22.6 -59.95 -25.5 -63.05 -27 -62.4 -39.3 -57.2 -50.4 -52.15 -61.15 -43.5 -69.4 -34.85 -77.65 -23.85 -82.15 -12.45 -86.8 0 -86.8 12.4 -86.8 23.8 -82.15 34.85 -77.65 43.5 -69.4 52.15 -61.2 57.2 -50.4 62.4 -39.3 63.05 -27 59.95 -25.5 58.1 -22.6 56.2 -19.6 56.2 -16.05
L 56.2 8.55
Q 56.2 10.9 57.1 13.15 58.252734375 16.0025390625 61.9 18.95 64.95 20.9 68.5 20.9
L 69.15 20.9
Q 74.25 20.9 77.85 17.3 81.4 13.7 81.4 8.55
L 81.4 -16.05
Q 81.4 -19.65 79.5 -22.65 77.6 -25.6 74.4 -27.1 73.75 -41.7 67.65 -54.9 61.7 -67.7 51.5 -77.45 41.25 -87.3 28.2 -92.65 14.7 -98.2 0 -98.2 -14.7 -98.2 -28.25 -92.65 -41.25 -87.3 -51.5 -77.45 Z"/>
</g>
</g>
</g>
</g>
</g>
</g>
</svg>
