
<svg xmlns="http://www.w3.org/2000/svg" version="1.1" xmlns:xlink="http://www.w3.org/1999/xlink" preserveAspectRatio="none" x="0px" y="0px" width="415px" height="338px" viewBox="0 0 415 338">
<defs>
<g id="Duplicate_Items_Folder_Symbol_4_copy_2_2_Layer0_0_FILL">
<path fill="#0A0A0A" stroke="none" d="
M 35.35 -16.95
L 21.1 -6.2
Q 20.7 -8.95 17 -11.45
L 6.25 -19.85
Q -1.75 -26.1 -11.7 -28.65 -18.95 -31.4 -23.6 -31.6 -28.5 -31.8 -32 -31.8 -58 -31.8 -74.4 -16.35 -90.8 -0.9 -90.8 23.5 -90.8 51.8 -66.6 77.4 -33 112.15 -12.7 112.15
L -2.75 95.35 -23.05 85.8 -36.9 77
Q -71.3 54.95 -71.3 25.05 -71.3 11 -60.55 -3.05 -53.7 -9.3 -48.6 -11.65 -43.75 -13.8 -41.4 -14.2 -39.25 -14.6 -33.8 -14.6
L -21.3 -12.65 -7.6 -7
Q 7.45 -0.55 9.95 7.1
L 7.45 12.95 -3.3 30.5 -3.3 35.4 13.9 45.35 17 36.2 23.05 24.65 29.1 14.9 35.75 6.9 41.4 1.8 46.7 -1.9 59 -7.75 69.35 -10.7 69.35 110.6 90.25 110.6 90.25 -79.45 123.45 -79.45 123.45 -95.85 -120.5 -95.85 -120.5 -79.45 69.35 -79.45 69.35 -26.7 60.15 -26.7 50.2 -23.75 41 -20.45 35.35 -16.95 Z"/>
</g>
</defs>

<g transform="matrix( 1.154144287109375, 0, 0, 1.154144287109375, 207.35,154.25) ">
<g transform="matrix( 1, 0, 0, 1, 0,0) ">
<use xlink:href="#Duplicate_Items_Folder_Symbol_4_copy_2_2_Layer0_0_FILL"/>
</g>
</g>
</svg>
