
<svg xmlns="http://www.w3.org/2000/svg" version="1.1" xmlns:xlink="http://www.w3.org/1999/xlink" preserveAspectRatio="none" x="0px" y="0px" width="686px" height="560px" viewBox="0 0 686 560">
<defs>
<g id="Duplicate_Items_Folder_Symbol_4_copy_2_0_Layer0_0_FILL">
<path fill="#0A0A0A" stroke="none" d="
M 27.4 -29.85
L 15.45 -19.1 15.45 -79.45 130.7 -79.45 130.7 -95.85 -127.5 -95.85 -127.5 -79.45 -5.45 -79.45 -5.45 20.15
Q -5.45 27.8 -13.85 36.2 -28.65 51.05 -42.95 51.05 -49.35 51.05 -57.75 48.3 -77.3 38.35 -77.3 13.15 -77.3 -3.25 -67.75 -15.4 -58.15 -27.3 -41.35 -27.3
L -35.3 -27.3 -29.45 -24.95 -27.3 -23.2 -23.4 -22.2 -23.4 -39.6
Q -26.15 -41.35 -34.15 -42.35
L -45.1 -43.3 -55.8 -42.15
Q -71.85 -38.4 -83.75 -27.7 -100.15 -12.85 -100.15 11 -100.15 34.6 -82.6 50.45 -65 66.25 -42.55 66.25 -20.25 66.25 -5.45 51.4
L -5.45 110.6 15.45 110.6 15.45 25.05
Q 15.45 18.8 18.6 10 23.1 0.45 27.4 -5.6 41.45 -23.2 57.85 -23.2 77 -23.2 84.2 -9.15 88.15 -0.9 88.15 10.4 88.15 18.4 83.85 29.55 74.65 50.25 57.85 67.05 54.15 70.55 51.4 71.55
L 68.6 84.6 80.5 71.55 89.5 60.6
Q 110.2 34.6 110.2 11.95 110.2 -10.5 94.55 -24.35 77.75 -39.6 55.5 -39.6 39.9 -39.6 27.4 -29.85 Z"/>
</g>
</defs>

<g transform="matrix( 1.9390411376953125, 0, 0, 1.9390411376953125, 338.05,261.6) ">
<g transform="matrix( 1, 0, 0, 1, 0,0) ">
<use xlink:href="#Duplicate_Items_Folder_Symbol_4_copy_2_0_Layer0_0_FILL"/>
</g>
</g>
</svg>
