
<svg xmlns="http://www.w3.org/2000/svg" version="1.1" xmlns:xlink="http://www.w3.org/1999/xlink" preserveAspectRatio="none" x="0px" y="0px" width="68px" height="68px" viewBox="0 0 68 68">
<defs/>

<g id="Layer_1">
<g transform="matrix( 1, 0, 0, 1, -1762.45,-900.05) ">
<g>
<g>
<path fill="#EB008D" stroke="none" d="
M 1819.25 917.4
Q 1809.8 908 1796.45 908 1783.1 908 1773.75 917.4 1766.85 924.3 1764.95 933.3 1766.85 942.35 1773.75 949.2 1783.1 958.65 1796.45 958.65 1809.8 958.65 1819.25 949.2 1826.15 942.35 1828 933.3 1826.15 924.3 1819.25 917.4 Z"/>

<path fill="#E55AAD" stroke="none" d="
M 1828 933.3
Q 1828.3 931.85 1828.45 930.25 1827.3 919.35 1819.25 911.35 1809.8 901.9 1796.45 901.9 1783.1 901.9 1773.75 911.35 1765.7 919.35 1764.5 930.25 1764.7 931.85 1764.95 933.3 1766.85 924.3 1773.75 917.4 1783.1 908 1796.45 908 1809.8 908 1819.25 917.4 1826.15 924.3 1828 933.3 Z"/>

<path fill="#B80070" stroke="none" d="
M 1828.5 937.1
Q 1828.65 935.6 1828.65 934.05 1828.65 932.15 1828.45 930.25 1828.3 931.85 1828 933.3 1826.15 942.35 1819.25 949.2 1809.8 958.65 1796.45 958.65 1783.1 958.65 1773.75 949.2 1766.85 942.35 1764.95 933.3 1764.7 931.85 1764.5 930.25 1764.3 932.15 1764.3 934.05 1764.3 935.6 1764.4 937.05 1765.4 948.5 1773.75 956.8 1783.1 966.25 1796.45 966.25 1809.8 966.25 1819.25 956.8 1827.55 948.5 1828.5 937.1 Z"/>
</g>
</g>

<g>
<path stroke="#002511" stroke-width="2" stroke-linejoin="round" stroke-linecap="round" fill="none" d="
M 1764.5 930.25
Q 1764.3 932.15 1764.3 934.05 1764.3 935.6 1764.4 937.05 1765.4 948.5 1773.75 956.8 1783.1 966.25 1796.45 966.25 1809.8 966.25 1819.25 956.8 1827.55 948.5 1828.5 937.1 1828.65 935.6 1828.65 934.05 1828.65 932.15 1828.45 930.25
M 1764.5 930.25
Q 1765.7 919.35 1773.75 911.35 1783.1 901.9 1796.45 901.9 1809.8 901.9 1819.25 911.35 1827.3 919.35 1828.45 930.25"/>
</g>
</g>

<g transform="matrix( -0.9498291015625, 0, 0, 0.9498291015625, 1283.7,-846.8) ">
<g>
<g>
<path fill="#FFFFFF" stroke="none" d="
M 1318.15 913.45
L 1318.15 921.15 1298.25 921.15
Q 1295.6 921.15 1295.75 924
L 1295.75 930.5
Q 1295.9 932.1 1297.55 932.3
L 1318.15 932.3 1318.15 940.35
Q 1318.6 941.55 1320.1 940.95
L 1335.9 927.85
Q 1336.8 926.7 1335.9 925.6
L 1320.05 912.35
Q 1318.15 910.95 1318.15 913.45 Z"/>
</g>
</g>

<g transform="matrix( -1.0528106689453125, 0, 0, 1.0528106689453125, 1351.5,891.5) ">
<path stroke="#FFFFFF" stroke-width="2" stroke-linejoin="round" stroke-linecap="round" fill="none" d="
M 31.682769775390625 28.135076904296852
L 31.682769775390625 20.821392822265693
Q 31.682769775390625 18.446820068359443 29.878094482422057 19.77658081054699
L 14.82330322265625 32.361816406250114
Q 13.968457031250182 33.40662841796882 14.82330322265625 34.49893188476574
L 29.83060302734384 46.94169311523444
Q 31.25534667968759 47.5115905761719 31.682769775390625 46.37179565429699
L 31.682769775390625 38.72567138671877 51.24924926757831 38.72567138671877
Q 52.81646728515625 38.535705566406364 52.95894165039067 37.015979003906295
L 52.95894165039067 30.842089843750045
Q 53.10141601562509 28.135076904296852 50.58436889648442 28.135076904296852
L 31.682769775390625 28.135076904296852 Z"/>
</g>
</g>
</g>
</svg>
