
<svg xmlns="http://www.w3.org/2000/svg" version="1.1" xmlns:xlink="http://www.w3.org/1999/xlink" preserveAspectRatio="none" x="0px" y="0px" width="1782px" height="333px" viewBox="0 0 1782 333">
<defs>
<g id="text_with_blank_1_Layer0_0_FILL">
<path fill="#000000" stroke="none" d="
M -471.1 -59.15
L -470.95 -59.3 -471.1 -59.45 -471.1 -59.15 Z"/>
</g>

<g id="Symbol_7_1_Layer1_0_FILL">
<path fill="#000000" stroke="none" d="
M -285.35 -25.2
Q -286.65 -27.95 -290.05 -31.1 -293.5 -34.35 -297.6 -36.05 -301.65 -37.8 -304.15 -37.8 -307.15 -37.8 -311.15 -36.5 -315.15 -35.15 -319.15 -33.1
L -316.55 -27.5
Q -315.5 -25.85 -314.35 -25.85 -310.55 -27.85 -306.55 -30 -302.65 -31.8 -299.35 -31.8 -295.8 -31.8 -293.5 -29.65 -291.2 -27.5 -291.2 -23.5 -291.2 -19.35 -294.3 -15.95 -296.85 -13.3 -298.65 -13.3 -299.6 -13.3 -303.95 -12.7 -308.25 -12.05 -309.3 -12.05 -311.6 -12.05 -311.6 -9.75 -311.6 -8.5 -308 -4.9 -306.2 -3.1 -305.45 -3.1 -304.65 -3.1 -300.2 -4.8 -297.9 -5.6 -293.85 -7.2 -290.7 -6.25 -288.75 -3.65 -286.75 -1.05 -286.75 2.75 -286.75 8.1 -290.4 11.95 -294.1 15.9 -299.85 15.9 -306.8 15.9 -312.1 10.95 -317.4 6.05 -322.05 -4.5
L -325.8 -2.45
Q -319.95 10.25 -312.9 16.8 -305.85 23.45 -297.65 23.45 -289.65 23.45 -284.55 19.05 -279.45 14.6 -279.45 7.1 -279.45 3.45 -281.5 0.2
L -281.25 0.2
Q -278.6 2.25 -275.55 3.1 -272.6 4 -270.4 4 -268.55 4 -266.15 3.7 -263.75 3.4 -261.7 2.6
L -262.15 29.05 -253.8 33.75 -253.8 -29.1 -237.3 -29.1 -237.3 29.05 -229.25 33.75 -229.25 -29.1 -186.8 -29.1
Q -186.65 -26.95 -186.45 -24.9 -186.25 -22.85 -186.25 -20.35 -186.25 -15.05 -186.95 -13.35 -187.7 -11.6 -189.5 -11.35
L -205.7 -7.4
Q -210.5 -6 -212.75 -3.5 -214.95 -1.05 -214.95 3.85 -214.95 12.9 -207.25 20.4 -199.5 27.9 -189.55 27.9 -183.4 27.9 -177.4 25.9 -171.45 23.9 -167.2 21.5
L -170.8 14.25
Q -178.6 17.95 -184.1 19.55 -189.55 21.15 -194.8 21.15 -199.85 21.15 -203.65 17.45 -207.5 13.7 -207.5 8.55 -207.5 0.75 -199.75 -0.8 -188.65 -2.85 -182.8 -4.5 -180.05 -5.4 -179.1 -6.95 -178.25 -8.6 -178.25 -13.55 -178.35 -17.1 -178.5 -21.05 -178.65 -24.9 -178.65 -29.1
L -159.8 -29.1 -159.8 29.05 -151.75 33.75 -151.75 -29.1 -141.55 -29.1 -145.55 -36.7 -282.2 -36.7 -278.4 -29.1 -262.15 -29.1 -262.15 -7.4
Q -263.2 -5.9 -267.2 -4.3 -271.2 -2.6 -273.45 -2.6 -280.95 -2.6 -290.2 -9.65 -287.6 -11 -285.85 -13.75 -284 -16.5 -284 -19.4 -284 -22.4 -285.35 -25.2
M -466.5 -12.25
Q -469.35 -8.5 -469.35 -4.45 -469.35 3.45 -463.55 9.2 -457.8 14.9 -450 14.9 -445.95 14.9 -442.4 13.2 -440.85 12.5 -435.35 9
L -435 29.05 -427.2 33.75 -427.2 3.65
Q -423.1 0.2 -419 -2.1 -414.85 -4.4 -412.55 -4.4 -409.6 -4.4 -407.7 -2.65 -405.85 -0.95 -405.85 2.25 -405.85 6.05 -408.05 11.05 -410.3 16.1 -413.8 20.9
L -406.95 27.15
Q -399.75 16.1 -399.75 8.9 -399.75 -1.15 -405.35 -7.25 -409.8 -12.05 -414.6 -12.05 -417.75 -12.05 -420.85 -10.35 -423.25 -9.1 -427.2 -6
L -427.2 -29.1 -384.4 -29.1 -384.4 29.05 -376.35 33.75 -376.35 -29.1 -366.15 -29.1 -370.15 -36.7 -481.35 -36.7 -477.15 -29.1 -435.35 -29.1 -435.6 -6.8
Q -437.2 -9.1 -438.9 -11.2 -440.65 -13.3 -442.7 -15 -444.75 -16.65 -447.55 -17.3 -450.35 -17.85 -453.65 -17.85 -462.15 -17.85 -466.5 -12.25
M -459.85 -7.7
Q -456.4 -10.45 -452.05 -10.45 -446.3 -10.45 -442.75 -8.3 -439.25 -6.2 -435.35 -0.8 -440.75 3.35 -445.75 5.75 -450.8 8.15 -454.45 8.15 -458.2 8.15 -460.75 6 -463.25 3.8 -463.25 0.1 -463.25 -4.9 -459.85 -7.7
M 467.1 -32.85
L 458.95 -38.05 458.95 29.2 467.1 34.35 467.1 -32.85
M 400.35 -68.25
Q 400.5 -67.9 403.4 -63 404.25 -61.4 406.15 -58.3 406.85 -58.65 407.45 -59.1 408.45 -59.1 409.4 -59.1 411 -59.1 413.3 -57.5 415.7 -55.9 417.3 -53.4 418.55 -51.2 420.45 -46.5 422.131640625 -42.5900390625 424.45 -36.7
L 421.7 -36.7
Q 420.8453125 -38.305078125 419.6 -40.55 416 -46.95 414.55 -49.1 412.6 -51.85 410.1 -53.05 407.6 -54.25 405.4 -54.25 405.05 -54.25 403.3 -54.15 401.6 -54 401.6 -53.65
L 406.15 -44.7
Q 406.85 -45 407.25 -45.35 408.05 -45.35 408.8 -45.35 410 -45.35 412.05 -44.4 414.1 -43.4 415.15 -41.7 415.68984375 -40.6693359375 418.3 -36.7
L 375.05 -36.7 379 -29.1 417.4 -29.1 417.4 -19.85 397.6 -19.85
Q 392.35 -19.85 389.8 -17.25 387.3 -14.6 387.3 -10.15 387.3 -7.75 389.35 -4 391.4 -0.2 394.85 3.3 392.7 5.45 391.5 8.1 390.25 10.7 390.25 14.3 390.25 23.45 399.9 29.65 407.55 34.7 421.85 38.2
L 422.8 34.9
Q 410.1 30.75 404.05 25.85 398.65 21.4 398.65 16.45 398.65 11.65 403.1 6.95 408.15 1.7 415.1 1.7 418.1 1.7 420.85 3.95 423.6 6.15 423.6 9.25 423.6 15.65 414.9 17.3
L 419.35 24.15
Q 425.65 22.2 428.25 19.3 430.8 16.35 430.8 11.9 430.8 6.15 424.65 1 418.45 -4.15 412.95 -4.15 409.1 -4.15 405.2 -3.2 401.3 -2.25 397.85 0.2 395.9 -1.3 394.6 -3.15 393.4 -5.1 393.4 -7.05 393.4 -9.3 395.25 -10.85 397.15 -12.4 399.1 -12.4
L 422.8 -12.4
Q 425.45 -12.4 425.45 -15.05
L 425.45 -29.1 442.7 -29.1 438.6 -36.7 428.05 -36.7
Q 426.9232421875 -39.8322265625 423.15 -48.65 418.65 -59.35 416.5 -62.6 414.3 -65.85 410.7 -67.6 407.95 -68.95 405.2 -68.95 403.1 -68.95 401.8 -68.85 400.35 -68.75 400.35 -68.25
M 174.4 -12.65
L 169.8 -10.8
Q 174.1 -1.5 177.15 3.4 181.65 11.05 186.35 14.75 192.05 19.35 198.6 19.35 203.05 19.35 206.75 16.45 210.95 13.25 210.95 8.1 210.95 3.65 208.3 -0.45 206.4 -3.45 201 -8.85
L 220.2 -8.85 220.2 29.05 228.35 33.75 228.35 -29.1 244.25 -29.1 244.25 29.05 252.3 33.75 252.3 -29.1 300.1 -29.1 300.1 -16.65 280.9 -16.65
Q 275.3 -16.65 271.35 -13.55 266.6 -9.8 266.6 -2.65 266.6 4 270.5 11.85 274.4 19.7 284.2 31.95
L 288.55 28.35
Q 280.55 18.75 277.25 12.75 274.05 6.75 274.05 1.8 274.05 -3.95 276.95 -6.5 279.9 -9.1 286.15 -9.1
L 300.55 -9.1 300.1 29.05 308.35 33.75 308.35 -29.1 324.75 -29.1 324.75 29.05 332.8 33.75 332.8 -29.1 343 -29.1 339 -36.7 157.8 -36.7 162.05 -29.1 220.2 -29.1 220.2 -16.4 188.85 -16.4 187.7 -13.65
Q 194.3 -9.65 197.9 -6.2 203.05 -1.15 203.05 3.65 203.05 6.95 201.25 9.15 199.45 11.3 195.95 11.3 193.1 11.3 189.35 8.9 185.55 6.5 183.1 3.15 180 -1.15 178.45 -4.05 176.4 -7.75 174.4 -12.65
M 7 -29.1
L 23.45 -29.1 23.45 29.05 31.5 33.75 31.5 -29.1 59.2 -29.1
Q 61.9 -24.2 62.45 -23.05 62.95 -21.8 62.95 -20.2 62.95 -16.3 58.35 -13.3 53.7 -10.25 45.8 -8.85 48.3 0.75 54.05 6.4 61 13.25 71.45 13.25 74.85 13.25 79 11.3 83.25 9.4 86 6.6
L 85.5 29.05 94 33.75 94 -29.1 110.45 -29.1 110.45 29.05 118.5 33.75 118.5 -29.1 128.7 -29.1 124.7 -36.7 -109.8 -36.7 -105.6 -29.1 -57.5 -29.1 -57.6 -8.75
Q -60.45 -13.2 -64.8 -15.8 -69.7 -18.8 -75.95 -18.8 -86.2 -18.8 -92.3 -13.4 -97.3 -8.95 -97.3 -3.35 -97.3 4.1 -90.65 10.45 -83.95 16.7 -74.35 16.7 -63.5 16.7 -57.5 10.15
L -57.5 29.05 -49.45 33.75 -49.45 -29.1 -1.15 -29.1 -1.15 -11.35 -25.85 -11.35
Q -31.25 -11.35 -33.2 -10.5 -35.1 -9.55 -35.1 -7.4 -35.1 -5.5 -30.55 1.05 -25.9 7.6 -24.1 7.6 -23.1 7.6 -22.4 6.95 -21.65 6.25 -21.65 4.75
L -21.65 -2.45
Q -21.65 -3.35 -21 -3.55 -20.35 -3.8 -18.65 -3.8
L -1.15 -3.8 -1.15 29.05 7 33.75 7 -29.1
M 68.8 -21.55
Q 67.4 -25.25 65.25 -29.1
L 85.5 -29.1 86 -2.95
Q 80.2 1.9 75.85 4.15 70 7.25 64.3 7.25 59.75 7.25 57.5 4.5 55.3 1.75 55.3 -2.8 62.35 -5.1 65.95 -7.85 70.3 -11.15 70.3 -15.4 70.3 -17.8 68.8 -21.55
M -87.5 -5.4
Q -85.55 -8.25 -83.2 -9.5
L -71.2 9.25
Q -73.35 10.25 -75.1 10.55 -76.95 10.85 -79.1 10.85 -83.65 10.85 -86.4 8.9 -89.9 6.5 -89.9 1.35 -89.9 -1.85 -87.5 -5.4
M -63.9 -10.3
Q -60.45 -7.2 -60.45 -1.5 -60.45 4 -67.2 7.2
L -79.2 -11.5
Q -75.55 -12.6 -74.35 -12.75 -73.25 -12.95 -70.95 -12.95 -66.9 -12.95 -63.9 -10.3 Z"/>
</g>

<g id="Symbol_6_0_Layer0_0_FILL">
<path fill="#000000" stroke="none" d="
M -456.4 -2.25
Q -456.4 -2.1 -456.4 -1.95 -457.25 -1.95 -458 -1.95 -458.7 -1.65 -459.3 -1.35 -459.9 -0.9 -460.5 -0.45 -460.5 0 -460.5 0.5 -460.5 0.95 -460.5 1.4 -460.3 1.85 -460.1 2.3 -459.5 2.75 -458.9 3.25 -457.6 3.55 -456.4 3.85 -290.6 3.85 -124.85 3.85 -123.95 3.7 -123.15 3.55 -122.55 3.25 -121.95 2.9 -121.55 2.45 -121.1 2 -120.9 1.55 -120.65 1.1 -120.65 0.65 -120.65 0.15 -121.1 -0.3 -121.55 -0.75 -122.15 -1.2 -122.75 -1.65 -123.75 -1.95 -124.85 -2.25 -290.6 -2.25 -456.4 -2.25 Z"/>
</g>
</defs>

<g transform="matrix( 1, 0, 0, 1, 943.2,189.7) ">
<g transform="matrix( 1, 0, 0, 1, 0,0) ">
<use xlink:href="#text_with_blank_1_Layer0_0_FILL"/>
</g>

<g transform="matrix( 1, 0, 0, 1, 225.4,-23.75) ">
<g transform="matrix( 1, 0, 0, 1, 0,0) ">
<use xlink:href="#Symbol_7_1_Layer1_0_FILL"/>
</g>
</g>

<g transform="matrix( 1, 0, 0, 1, -552.05,107.65) ">
<g transform="matrix( 1.4407958984375, 0, 0, 0.8573760986328125, 418.65,-0.65) ">
<use xlink:href="#Symbol_6_0_Layer0_0_FILL"/>
</g>
</g>
</g>
</svg>
