
<svg xmlns="http://www.w3.org/2000/svg" version="1.1" xmlns:xlink="http://www.w3.org/1999/xlink" preserveAspectRatio="none" x="0px" y="0px" width="1782px" height="333px" viewBox="0 0 1782 333">
<defs>
<g id="Symbol_7_2_Layer1_0_FILL">
<path fill="#000000" stroke="none" d="
M -571.55 -36.7
L -567.35 -29.1 -525.55 -29.1 -525.8 -6.8
Q -527.4 -9.1 -529.1 -11.2 -530.85 -13.3 -532.9 -15 -534.95 -16.65 -537.75 -17.3 -540.55 -17.85 -543.85 -17.85 -552.35 -17.85 -556.7 -12.25 -559.55 -8.5 -559.55 -4.45 -559.55 3.45 -553.75 9.2 -548 14.9 -540.2 14.9 -536.15 14.9 -532.6 13.2 -531.05 12.5 -525.55 9
L -525.2 29.05 -517.4 33.75 -517.4 3.65
Q -513.3 0.2 -509.2 -2.1 -505.05 -4.4 -502.75 -4.4 -499.8 -4.4 -497.9 -2.65 -496.05 -0.95 -496.05 2.25 -496.05 6.05 -498.25 11.05 -500.5 16.1 -504 20.9
L -497.15 27.15
Q -489.95 16.1 -489.95 8.9 -489.95 -1.15 -495.55 -7.25 -500 -12.05 -504.8 -12.05 -507.95 -12.05 -511.05 -10.35 -513.45 -9.1 -517.4 -6
L -517.4 -29.1 -459.45 -29.1 -459.45 -25
Q -464.6 -23.95 -469.05 -21.9 -470.5 -21.35 -472.3 -20.2
L -467.6 -13.05
Q -464.15 -15.25 -462.1 -16.15 -456 -19.15 -452.25 -19.15 -449.4 -19.15 -447.7 -18.1 -444.8 -16.15 -444.8 -11 -444.8 -6 -449.8 -1.3 -454.8 3.4 -463.15 6.5 -466.45 1.95 -467.8 0.55 -469.2 -0.95 -470.5 -1.05 -476.15 -1.05 -476.15 3.85 -476.15 8.1 -473.9 10.8 -471.6 13.5 -468.2 13.85 -464.75 14.2 -463.4 14.9 -462 15.55 -460.7 17.45
L -447.9 36.55 -442.55 32.4 -458.25 12.9
Q -449.75 9.5 -444 2.5 -438.3 -4.5 -438.3 -11.25 -438.3 -15.05 -443.1 -19.75 -447.9 -24.45 -452.25 -24.45
L -452.25 -29.1 -388.3 -29.1 -388.3 -16.65 -407.5 -16.65
Q -413.1 -16.65 -417.05 -13.55 -421.8 -9.8 -421.8 -2.65 -421.8 4 -417.9 11.85 -414 19.7 -404.2 31.95
L -399.85 28.35
Q -407.85 18.75 -411.15 12.75 -414.35 6.75 -414.35 1.8 -414.35 -3.95 -411.45 -6.5 -408.5 -9.1 -402.25 -9.1
L -387.85 -9.1 -388.3 29.05 -380.05 33.75 -380.05 -29.1 -361.25 -29.1 -361.25 29.05 -353.3 33.75 -353.3 -29.1 -340.7 -29.1 -344.8 -36.7 -355.5 -36.7
Q -357.4 -51.1 -363.4 -58.65 -368.9 -65.6 -376.8 -65.6 -382.85 -65.6 -386.7 -61.95 -390.65 -58.3 -390.65 -52.05 -390.65 -50.5 -389.6 -47.75 -388.45 -44.95 -387.65 -44.1
L -384.65 -45.25
Q -384.65 -58.05 -376.4 -58.05 -370.5 -58.05 -366.05 -53.05 -361.1 -47.35 -359.6 -36.7
L -571.55 -36.7
M -542.25 -10.45
Q -536.5 -10.45 -532.95 -8.3 -529.45 -6.2 -525.55 -0.8 -530.95 3.35 -535.95 5.75 -541 8.15 -544.65 8.15 -548.4 8.15 -550.95 6 -553.45 3.8 -553.45 0.1 -553.45 -4.9 -550.05 -7.7 -546.6 -10.45 -542.25 -10.45
M 359.45 32.75
L 350.7 41.35 359.5 50.2 368.3 41.55 359.45 32.75
M 571.5 -32.85
L 563.35 -38.05 563.35 29.2 571.5 34.35 571.5 -32.85
M 541.2 -64.05
L 532.6 -55.5 541.2 -46.65 549.95 -55.25 541.2 -64.05
M 478.75 -36.7
L 482.7 -29.1 521.1 -29.1 521.1 -19.85 501.3 -19.85
Q 496.05 -19.85 493.5 -17.25 491 -14.6 491 -10.15 491 -7.75 493.05 -4 495.1 -0.2 498.55 3.3 496.4 5.45 495.2 8.1 493.95 10.7 493.95 14.3 493.95 23.45 503.6 29.65 511.25 34.7 525.55 38.2
L 526.5 34.9
Q 513.8 30.75 507.75 25.85 502.35 21.4 502.35 16.45 502.35 11.65 506.8 6.95 511.85 1.7 518.8 1.7 521.8 1.7 524.55 3.95 527.3 6.15 527.3 9.25 527.3 15.65 518.6 17.3
L 523.05 24.15
Q 529.35 22.2 531.95 19.3 534.5 16.35 534.5 11.9 534.5 6.15 528.35 1 522.15 -4.15 516.65 -4.15 512.8 -4.15 508.9 -3.2 505 -2.25 501.55 0.2 499.6 -1.3 498.3 -3.15 497.1 -5.1 497.1 -7.05 497.1 -9.3 498.95 -10.85 500.85 -12.4 502.8 -12.4
L 526.5 -12.4
Q 529.15 -12.4 529.15 -15.05
L 529.15 -29.1 546.4 -29.1 542.3 -36.7 531.75 -36.7
Q 530.6 -39.85 526.85 -48.65 522.35 -59.35 520.2 -62.6 518 -65.85 514.4 -67.6 511.65 -68.95 508.9 -68.95 506.8 -68.95 505.5 -68.85 504.05 -68.75 504.05 -68.25 504.2 -67.9 507.1 -63 507.95 -61.4 509.85 -58.3 510.55 -58.65 511.15 -59.1 512.15 -59.1 513.1 -59.1 514.7 -59.1 517 -57.5 519.4 -55.9 521 -53.4 522.25 -51.2 524.15 -46.5 525.85 -42.6 528.15 -36.7
L 525.4 -36.7
Q 524.55 -38.3 523.3 -40.55 519.7 -46.95 518.25 -49.1 516.3 -51.85 513.8 -53.05 511.3 -54.25 509.1 -54.25 508.75 -54.25 507 -54.15 505.3 -54 505.3 -53.65
L 509.85 -44.7
Q 510.55 -45 510.95 -45.35 511.75 -45.35 512.5 -45.35 513.7 -45.35 515.75 -44.4 517.8 -43.4 518.85 -41.7 519.4 -40.65 522 -36.7
L 478.75 -36.7
M 237.6 -36.7
L 241.85 -29.1 303.65 -29.1 303.65 -11.85
Q 302.1 -13.3 299.3 -14.65 296.55 -16.05 294.15 -16.05 290.6 -16.05 287.5 -14 284.45 -12 281 -7.3 278 -11 273.9 -15.1 272.45 -16.5 269.85 -17.5 267.25 -18.45 264.5 -18.45 257.55 -18.45 253.2 -12.7 249.65 -7.9 249.65 -2.35 249.65 7.4 258.7 17.8 266.2 26.45 279 34.75
L 282.4 30.65
Q 267.85 22.4 262.1 14.7 257.8 8.8 257.8 1.25 257.8 -4.65 261.65 -8.15 264.75 -11 268.75 -11 271.25 -11 274.3 -8.65 277.35 -6.35 279.05 -3.7 278.45 -2.85 277.6 -1.3 276.75 0.25 275.75 2.05
L 282.4 6.5
Q 287.25 -2.85 290.55 -6.1 293.85 -9.3 298 -9.3 301.1 -9.3 304 -7.3
L 303.65 29.05 311.8 33.75 311.8 -29.1 364.45 -29.1 364.45 -19.65 345.65 -19.65
Q 341.2 -19.65 338.4 -16.45 335.6 -13.3 335.6 -9.45 335.6 -4.75 339.55 0.9 343 5.9 345.9 7.7 348.3 9.15 352.05 9.15 352.65 9.15 360.25 8.05 367.85 6.85 370.85 6.85 372.45 6.85 373.6 8.25 374.7 9.6 374.7 12.25 374.7 16.6 370.8 20.05 366.95 23.45 360.05 23.45 350.35 23.45 343.9 19.55 336.35 15.2 327.65 2.75
L 324 5.55
Q 331.9 16.95 341.25 23.55 351.95 31.1 362.6 31.1 370.25 31.1 375.5 26.7 380.7 22.3 380.7 15.4 380.7 12.7 378.75 9.2 376.85 5.7 373.6 2.75 370.25 -0.6 366.05 -0.6 364.3 -0.6 359.5 0.1 349 1.7 348.65 1.7 345.65 1.7 344.5 0.55 342.8 -1.15 342.8 -6 342.8 -8.85 344.3 -10.45 345.75 -12.05 349.35 -12.05
L 369.85 -12.05
Q 372.5 -12.05 372.5 -14.8
L 372.5 -29.1 427.7 -29.1 427.7 -16.65 408.5 -16.65
Q 402.9 -16.65 398.95 -13.55 394.2 -9.8 394.2 -2.65 394.2 4 398.1 11.85 402 19.7 411.8 31.95
L 416.15 28.35
Q 408.15 18.75 404.85 12.75 401.65 6.75 401.65 1.8 401.65 -3.95 404.55 -6.5 407.5 -9.1 413.75 -9.1
L 428.15 -9.1 427.7 29.05 435.95 33.75 435.95 -29.1 446.3 -29.1 442.15 -36.7 433 -36.7
Q 431.85 -39.85 428.1 -48.65 423.6 -59.35 421.45 -62.6 419.25 -65.85 415.65 -67.6 412.9 -68.95 410.15 -68.95 408.05 -68.95 406.75 -68.85 405.3 -68.75 405.3 -68.25 405.45 -67.9 408.35 -63 409.2 -61.4 411.1 -58.3 411.8 -58.65 412.4 -59.1 413.4 -59.1 414.35 -59.1 415.95 -59.1 418.25 -57.5 420.65 -55.9 422.25 -53.4 423.5 -51.2 425.4 -46.5 427.1 -42.6 429.4 -36.7
L 237.6 -36.7 Z"/>
</g>

<g id="Symbol_7_2_Layer1_0_MEMBER_0_FILL">
<path fill="#000000" stroke="none" d="
M -510.1 39.4
Q -508.55 41.05 -508.55 42.95 -508.55 46.35 -512.05 49.5 -515.65 52.7 -520.8 52.7 -529.5 52.7 -536.05 49.7 -542.65 46.7 -552.05 38.3
L -554.6 41.65
Q -544.15 50.65 -536.25 54.75 -527.1 59.4 -517.8 59.4 -510.45 59.4 -506 54.85 -502.45 51.15 -502.45 46.25 -502.45 40.2 -507.4 36 -512.4 31.7 -519.25 31.7 -522.85 31.7 -525.55 33 -528.2 34.35 -528.2 35.4 -528.2 36.95 -525.7 39.85 -523.2 42.7 -522 42.7 -521.15 42.7 -518.75 40.85 -516.35 39 -514.7 37.1 -511.65 37.7 -510.1 39.4 Z"/>
</g>

<g id="Symbol_6_0_Layer0_0_FILL">
<path fill="#000000" stroke="none" d="
M -456.4 -2.25
Q -456.4 -2.1 -456.4 -1.95 -457.25 -1.95 -458 -1.95 -458.7 -1.65 -459.3 -1.35 -459.9 -0.9 -460.5 -0.45 -460.5 0 -460.5 0.5 -460.5 0.95 -460.5 1.4 -460.3 1.85 -460.1 2.3 -459.5 2.75 -458.9 3.25 -457.6 3.55 -456.4 3.85 -290.6 3.85 -124.85 3.85 -123.95 3.7 -123.15 3.55 -122.55 3.25 -121.95 2.9 -121.55 2.45 -121.1 2 -120.9 1.55 -120.65 1.1 -120.65 0.65 -120.65 0.15 -121.1 -0.3 -121.55 -0.75 -122.15 -1.2 -122.75 -1.65 -123.75 -1.95 -124.85 -2.25 -290.6 -2.25 -456.4 -2.25 Z"/>
</g>
</defs>

<g transform="matrix( 1, 0, 0, 1, 861.2,189.7) ">
<g transform="matrix( 1, 0, 0, 1, 62.5,-23.75) ">
<g transform="matrix( 1, 0, 0, 1, 0,0) ">
<use xlink:href="#Symbol_7_2_Layer1_0_FILL"/>
</g>

<g transform="matrix( 1, 0, 0, 1, 0,0) ">
<use xlink:href="#Symbol_7_2_Layer1_0_MEMBER_0_FILL"/>
</g>
</g>

<g transform="matrix( 1, 0, 0, 1, 7.25,107.65) ">
<g transform="matrix( 1.4407958984375, 0, 0, 0.8573760986328125, 418.65,-0.65) ">
<use xlink:href="#Symbol_6_0_Layer0_0_FILL"/>
</g>
</g>
</g>
</svg>
