
<svg xmlns="http://www.w3.org/2000/svg" version="1.1" xmlns:xlink="http://www.w3.org/1999/xlink" preserveAspectRatio="none" x="0px" y="0px" width="278px" height="216px" viewBox="0 0 278 216">
<defs>
<g id="Symbol_4_0_Layer0_0_FILL">
<path fill="#000000" stroke="none" d="
M 192.8 70.1
Q 186.65 66.8 178.45 66.8 167.35 66.8 160.05 72.75 152.7 78.7 149 89.75 145.25 100.75 145.25 118.8 145.25 147.45 155.3 160.2 163.7 170.75 178.45 170.75 189.65 170.75 197 164.75 204.3 158.7 207.95 147.75 211.65 136.7 211.65 118.8 211.65 103.65 209.35 94.75 207.05 85.8 203.05 79.65 199 73.4 192.8 70.1
M 164.55 84.4
Q 169.7 77.15 178.3 77.15 187.05 77.15 192.95 85.4 198.8 93.65 198.8 118.8 198.8 143.8 192.95 152.15 187.05 160.45 178.45 160.45 169.85 160.45 164 152.2 158.1 143.85 158.1 118.8 158.1 93.7 164.55 84.4
M 118.7 67.2
L 108.5 67.2 62.05 133.15 62.05 144.65 106.2 144.65 106.2 169 118.7 169 118.7 144.65 132.45 144.65 132.45 133.15 118.7 133.15 118.7 67.2
M 106.2 133.15
L 74.35 133.15 106.2 87.25 106.2 133.15 Z"/>
</g>
</defs>

<g transform="matrix( 1.1142425537109375, 0, 0, 1.1142425537109375, -19.55,-28.5) ">
<g transform="matrix( 1, 0, 0, 1, 0,0) ">
<use xlink:href="#Symbol_4_0_Layer0_0_FILL"/>
</g>
</g>
</svg>
