
<svg xmlns="http://www.w3.org/2000/svg" version="1.1" xmlns:xlink="http://www.w3.org/1999/xlink" preserveAspectRatio="none" x="0px" y="0px" width="1355px" height="357px" viewBox="0 0 1355 357">
<defs>
<radialGradient id="Gradient_1" gradientUnits="userSpaceOnUse" cx="0" cy="0" r="0" fx="0" fy="0" gradientTransform="matrix( NaN, NaN, NaN, NaN, 0,0) " spreadMethod="pad">
<stop  offset="25.098039215686274%" stop-color="#FFFFFF"/>

<stop  offset="37.64705882352941%" stop-color="#F7F8F8"/>

<stop  offset="54.11764705882353%" stop-color="#EAEAEB"/>

<stop  offset="72.54901960784314%" stop-color="#D4D5D7"/>

<stop  offset="92.94117647058823%" stop-color="#B6B8BA"/>

<stop  offset="100%" stop-color="#AAACAE"/>
</radialGradient>

<radialGradient id="Gradient_2" gradientUnits="userSpaceOnUse" cx="0" cy="0" r="187.48751041736088" fx="0" fy="0" gradientTransform="matrix( -0.00033335553851491465, -0.9999999444370409, -6.052269815061384, 0.0010000666155447438, -37.95,-45.9) " spreadMethod="pad">
<stop  offset="25.098039215686274%" stop-color="#FFFFFF"/>

<stop  offset="37.64705882352941%" stop-color="#F7F8F8"/>

<stop  offset="54.11764705882353%" stop-color="#EAEAEB"/>

<stop  offset="72.54901960784314%" stop-color="#D4D5D7"/>

<stop  offset="92.94117647058823%" stop-color="#B6B8BA"/>

<stop  offset="100%" stop-color="#AAACAE"/>
</radialGradient>

<radialGradient id="Gradient_3" gradientUnits="userSpaceOnUse" cx="0" cy="0" r="2094.4875" fx="0" fy="0" gradientTransform="matrix( 0.9999999999999999, 0, 0, -0.14203952040773696, 185.65,-92.15) " spreadMethod="pad">
<stop  offset="25.098039215686274%" stop-color="#FFFFFF"/>

<stop  offset="37.64705882352941%" stop-color="#F7F8F8"/>

<stop  offset="54.11764705882353%" stop-color="#EAEAEB"/>

<stop  offset="72.54901960784314%" stop-color="#D4D5D7"/>

<stop  offset="92.94117647058823%" stop-color="#B6B8BA"/>

<stop  offset="100%" stop-color="#AAACAE"/>
</radialGradient>

<radialGradient id="Gradient_4" gradientUnits="userSpaceOnUse" cx="0" cy="0" r="386.3125" fx="0" fy="0" gradientTransform="matrix( 0, -1, 3.619867335382624, 0, -66.3,113.15) " spreadMethod="pad">
<stop  offset="34.90196078431372%" stop-color="#FDF2DE"/>

<stop  offset="85.09803921568627%" stop-color="#F4E2DB"/>
</radialGradient>

<filter id="Filter_1" x="-20%" y="-20%" width="140%" height="140%" color-interpolation-filters="sRGB">
<feFlood flood-color="#000000" flood-opacity="1" in="SourceGraphic" result="result1"/>

<feComposite in2="SourceGraphic" in="result1" operator="in" result="result2"/>

<feGaussianBlur in="result2" stdDeviation="1.3333333333333333,1.3333333333333333" result="result3"/>

<feOffset dx="2.8284271247461903" dy="2.8284271247461903" in="result3" result="result4"/>

<feComposite in2="result4" in="SourceGraphic" operator="over" result="result5"/>
</filter>

<g id="Duplicate_Items_Folder_Symbol_11_copy_0_Layer0_0_FILL">
<path fill="#FFFFFF" stroke="none" d="
M 656.4 -124.45
Q 656.4 -133.95 651.45 -141.6 649.3 -144.9 646.2 -147.85 635.8 -157.5 621.35 -157.5
L -621.35 -157.5
Q -633.45 -157.5 -642.6 -150.75 -644.4 -149.45 -646.1 -147.85 -656.4 -138.2 -656.4 -124.45
L -656.4 124.45
Q -656.4 127.05 -656.05 129.35 -655.5 133.75 -653.55 137.7 -651.1 143.25 -646.1 147.85 -635.9 157.5 -621.35 157.5
L 621.35 157.5
Q 635.8 157.5 646.2 147.85 650.65 143.55 653.25 138.5
L 656.1 128.5
Q 656.4 126.55 656.4 124.45
L 656.4 -124.45 Z"/>
</g>

<g id="Duplicate_Items_Folder_Symbol_8_copy_2_0_Layer0_1_FILL">
<path fill="url(#Gradient_1)" stroke="none" d="
M 621.35 120
Q 627.69609375 119.8361328125 633.25 118.9
L -609.1 114.3
Q -669.24140625 117.2236328125 -670.4 62.7
L -670.4 72.95
Q -667.6486328125 116.1337890625 -621.35 120
L 621.35 120 Z"/>

<path fill="url(#Gradient_2)" stroke="none" d="
M 670.4 -175.95
Q 667.332421875 -220.932421875 621.35 -223
L -621.35 -223
Q -660.75390625 -219.4642578125 -668.6 -188.65 -670.0548828125 -182.788671875 -670.4 -175.95
L -670.4 62.7
Q -669.24140625 117.2236328125 -609.1 114.3
L 633.25 118.9
Q 634.3427734375 118.7552734375 635.4 118.55 654.6607421875 114.4986328125 663.3 100.75 670.17890625 89.9109375 670.4 72.95
L 670.4 -175.95 Z"/>

<path fill="url(#Gradient_3)" stroke="none" d="
M 674.9 -185.15
Q 669.66875 -223.3806640625 629.5 -227.95
L -612.7 -227.95
Q -662.8978515625 -227.73125 -668.6 -188.65 -660.75390625 -219.4642578125 -621.35 -223
L 621.35 -223
Q 667.332421875 -220.932421875 670.4 -175.95
L 670.4 72.95
Q 670.17890625 89.9109375 663.3 100.75 654.6607421875 114.4986328125 635.4 118.55 673.0099609375 111.790625 674.9 69.35
L 674.9 -185.15 Z"/>
</g>

<g id="Duplicate_Items_Folder_Symbol_1_copy_3_0_Layer0_0_FILL">
<path fill="url(#Gradient_4)" stroke="none" d="
M 656.4 -124.45
Q 656.4 -133.95 651.45 -141.6 649.3 -144.9 646.2 -147.85 635.8 -157.5 621.35 -157.5
L -621.35 -157.5
Q -633.45 -157.5 -642.6 -150.75 -644.4 -149.45 -646.1 -147.85 -656.4 -138.2 -656.4 -124.45
L -656.4 124.45
Q -656.4 127.05 -656.05 129.35 -655.5 133.75 -653.55 137.7 -651.1 143.25 -646.1 147.85 -635.9 157.5 -621.35 157.5
L 621.35 157.5
Q 635.8 157.5 646.2 147.85 650.65 143.55 653.25 138.5
L 656.1 128.5
Q 656.4 126.55 656.4 124.45
L 656.4 -124.45 Z"/>
</g>

<g id="Duplicate_Items_Folder_Symbol_8_copy_2_0_Layer0_3_FILL">
<path fill="#2573B4" stroke="none" d="
M 656.25 15.05
Q 656 14.85 655.7 14.85
L -655.6 14.85
Q -655.9 14.85 -656.15 15.05 -656.35 15.2 -656.35 15.45 -656.35 15.7 -656.15 15.9 -655.9 16.05 -655.6 16.05
L 655.7 16.05
Q 656 16.05 656.25 15.9 656.5 15.7 656.5 15.45 656.5 15.2 656.25 15.05 Z"/>
</g>

<g id="Duplicate_Items_Folder_Symbol_8_copy_2_0_Layer0_4_FILL">
<path fill="#2573B4" stroke="none" d="
M 656.25 -107.35
Q 656 -107.55 655.7 -107.55
L -655.6 -107.55
Q -655.9 -107.55 -656.15 -107.35 -656.35 -107.2 -656.35 -106.95 -656.35 -106.7 -656.15 -106.5 -655.9 -106.35 -655.6 -106.35
L 655.7 -106.35
Q 656 -106.35 656.25 -106.5 656.5 -106.7 656.5 -106.95 656.5 -107.2 656.25 -107.35 Z"/>
</g>
</defs>

<g transform="matrix( 1, 0, 0, 1, 675.25,232.5) ">
<g filter="url(#Filter_1)" transform="matrix( 1, 0, 0, 1, -675.25,-232.5) ">
<g transform="matrix( 1, 0, 0, 1, 675.25,181) ">
<g transform="matrix( 1, 0, 0, 1, 0,0) ">
<use xlink:href="#Duplicate_Items_Folder_Symbol_11_copy_0_Layer0_0_FILL"/>
</g>
</g>
</g>

<g transform="matrix( 1, 0, 0, 1, 0,0) ">
<use xlink:href="#Duplicate_Items_Folder_Symbol_8_copy_2_0_Layer0_1_FILL"/>
</g>

<g transform="matrix( 1, 0, 0, 1, 0,-51.5) ">
<g transform="matrix( 1, 0, 0, 1, 0,0) ">
<use xlink:href="#Duplicate_Items_Folder_Symbol_1_copy_3_0_Layer0_0_FILL"/>
</g>
</g>

<g transform="matrix( 1, 0, 0, 1, 0,0) ">
<use xlink:href="#Duplicate_Items_Folder_Symbol_8_copy_2_0_Layer0_3_FILL"/>
</g>

<g transform="matrix( 1, 0, 0, 1, 0,0) ">
<use xlink:href="#Duplicate_Items_Folder_Symbol_8_copy_2_0_Layer0_4_FILL"/>
</g>
</g>
</svg>
