
<svg xmlns="http://www.w3.org/2000/svg" version="1.1" xmlns:xlink="http://www.w3.org/1999/xlink" preserveAspectRatio="none" x="0px" y="0px" width="1355px" height="357px" viewBox="0 0 1355 357">
<defs>
<radialGradient id="Gradient_1" gradientUnits="userSpaceOnUse" cx="0" cy="0" r="0" fx="0" fy="0" gradientTransform="matrix( NaN, NaN, NaN, NaN, 0,0) " spreadMethod="pad">
<stop  offset="25.098039215686274%" stop-color="#FFFFFF"/>

<stop  offset="37.64705882352941%" stop-color="#F7F8F8"/>

<stop  offset="54.11764705882353%" stop-color="#EAEAEB"/>

<stop  offset="72.54901960784314%" stop-color="#D4D5D7"/>

<stop  offset="92.94117647058823%" stop-color="#B6B8BA"/>

<stop  offset="100%" stop-color="#AAACAE"/>
</radialGradient>

<radialGradient id="Gradient_2" gradientUnits="userSpaceOnUse" cx="0" cy="0" r="187.48751041736088" fx="0" fy="0" gradientTransform="matrix( -0.00033335553851491465, -0.9999999444370409, -6.052269815061384, 0.0010000666155447438, -37.95,-45.9) " spreadMethod="pad">
<stop  offset="25.098039215686274%" stop-color="#FFFFFF"/>

<stop  offset="37.64705882352941%" stop-color="#F7F8F8"/>

<stop  offset="54.11764705882353%" stop-color="#EAEAEB"/>

<stop  offset="72.54901960784314%" stop-color="#D4D5D7"/>

<stop  offset="92.94117647058823%" stop-color="#B6B8BA"/>

<stop  offset="100%" stop-color="#AAACAE"/>
</radialGradient>

<radialGradient id="Gradient_3" gradientUnits="userSpaceOnUse" cx="0" cy="0" r="2094.4875" fx="0" fy="0" gradientTransform="matrix( 0.9999999999999999, 0, 0, -0.14203952040773696, 185.65,-92.15) " spreadMethod="pad">
<stop  offset="25.098039215686274%" stop-color="#FFFFFF"/>

<stop  offset="37.64705882352941%" stop-color="#F7F8F8"/>

<stop  offset="54.11764705882353%" stop-color="#EAEAEB"/>

<stop  offset="72.54901960784314%" stop-color="#D4D5D7"/>

<stop  offset="92.94117647058823%" stop-color="#B6B8BA"/>

<stop  offset="100%" stop-color="#AAACAE"/>
</radialGradient>

<radialGradient id="Gradient_4" gradientUnits="userSpaceOnUse" cx="0" cy="0" r="386.3125" fx="0" fy="0" gradientTransform="matrix( 0, -1, 3.619867335382624, 0, -66.3,113.15) " spreadMethod="pad">
<stop  offset="34.90196078431372%" stop-color="#FDF2DE"/>

<stop  offset="85.09803921568627%" stop-color="#F4E2DB"/>
</radialGradient>

<filter id="Filter_1" x="-20%" y="-20%" width="140%" height="140%" color-interpolation-filters="sRGB">
<feFlood flood-color="#000000" flood-opacity="1" in="SourceGraphic" result="result1"/>

<feComposite in2="SourceGraphic" in="result1" operator="in" result="result2"/>

<feGaussianBlur in="result2" stdDeviation="1.3333333333333333,1.3333333333333333" result="result3"/>

<feOffset dx="2.8284271247461903" dy="2.8284271247461903" in="result3" result="result4"/>

<feComposite in2="result4" in="SourceGraphic" operator="over" result="result5"/>
</filter>

<g id="Duplicate_Items_Folder_Symbol_11_copy_0_Layer0_0_FILL">
<path fill="#FFFFFF" stroke="none" d="
M 656.4 -124.45
Q 656.4 -133.95 651.45 -141.6 649.3 -144.9 646.2 -147.85 635.8 -157.5 621.35 -157.5
L -621.35 -157.5
Q -633.45 -157.5 -642.6 -150.75 -644.4 -149.45 -646.1 -147.85 -656.4 -138.2 -656.4 -124.45
L -656.4 124.45
Q -656.4 127.05 -656.05 129.35 -655.5 133.75 -653.55 137.7 -651.1 143.25 -646.1 147.85 -635.9 157.5 -621.35 157.5
L 621.35 157.5
Q 635.8 157.5 646.2 147.85 650.65 143.55 653.25 138.5
L 656.1 128.5
Q 656.4 126.55 656.4 124.45
L 656.4 -124.45 Z"/>
</g>

<g id="Duplicate_Items_Folder_Symbol_8_copy_2_0_Layer0_1_FILL">
<path fill="url(#Gradient_1)" stroke="none" d="
M 621.35 120
Q 627.69609375 119.8361328125 633.25 118.9
L -609.1 114.3
Q -669.24140625 117.2236328125 -670.4 62.7
L -670.4 72.95
Q -667.6486328125 116.1337890625 -621.35 120
L 621.35 120 Z"/>

<path fill="url(#Gradient_2)" stroke="none" d="
M 670.4 -175.95
Q 667.332421875 -220.932421875 621.35 -223
L -621.35 -223
Q -660.75390625 -219.4642578125 -668.6 -188.65 -670.0548828125 -182.788671875 -670.4 -175.95
L -670.4 62.7
Q -669.24140625 117.2236328125 -609.1 114.3
L 633.25 118.9
Q 634.3427734375 118.7552734375 635.4 118.55 654.6607421875 114.4986328125 663.3 100.75 670.17890625 89.9109375 670.4 72.95
L 670.4 -175.95 Z"/>

<path fill="url(#Gradient_3)" stroke="none" d="
M 674.9 -185.15
Q 669.66875 -223.3806640625 629.5 -227.95
L -612.7 -227.95
Q -662.8978515625 -227.73125 -668.6 -188.65 -660.75390625 -219.4642578125 -621.35 -223
L 621.35 -223
Q 667.332421875 -220.932421875 670.4 -175.95
L 670.4 72.95
Q 670.17890625 89.9109375 663.3 100.75 654.6607421875 114.4986328125 635.4 118.55 673.0099609375 111.790625 674.9 69.35
L 674.9 -185.15 Z"/>
</g>

<g id="Duplicate_Items_Folder_Symbol_1_copy_3_0_Layer0_0_FILL">
<path fill="url(#Gradient_4)" stroke="none" d="
M 656.4 -124.45
Q 656.4 -133.95 651.45 -141.6 649.3 -144.9 646.2 -147.85 635.8 -157.5 621.35 -157.5
L -621.35 -157.5
Q -633.45 -157.5 -642.6 -150.75 -644.4 -149.45 -646.1 -147.85 -656.4 -138.2 -656.4 -124.45
L -656.4 124.45
Q -656.4 127.05 -656.05 129.35 -655.5 133.75 -653.55 137.7 -651.1 143.25 -646.1 147.85 -635.9 157.5 -621.35 157.5
L 621.35 157.5
Q 635.8 157.5 646.2 147.85 650.65 143.55 653.25 138.5
L 656.1 128.5
Q 656.4 126.55 656.4 124.45
L 656.4 -124.45 Z"/>
</g>

<g id="Duplicate_Items_Folder_Symbol_8_copy_2_0_Layer0_3_FILL">
<path fill="#2573B4" stroke="none" d="
M 656.25 15.05
Q 656 14.85 655.7 14.85
L -655.6 14.85
Q -655.9 14.85 -656.15 15.05 -656.35 15.2 -656.35 15.45 -656.35 15.7 -656.15 15.9 -655.9 16.05 -655.6 16.05
L 655.7 16.05
Q 656 16.05 656.25 15.9 656.5 15.7 656.5 15.45 656.5 15.2 656.25 15.05 Z"/>
</g>

<g id="Duplicate_Items_Folder_Symbol_8_copy_2_0_Layer0_4_FILL">
<path fill="#2573B4" stroke="none" d="
M 656.25 -107.35
Q 656 -107.55 655.7 -107.55
L -655.6 -107.55
Q -655.9 -107.55 -656.15 -107.35 -656.35 -107.2 -656.35 -106.95 -656.35 -106.7 -656.15 -106.5 -655.9 -106.35 -655.6 -106.35
L 655.7 -106.35
Q 656 -106.35 656.25 -106.5 656.5 -106.7 656.5 -106.95 656.5 -107.2 656.25 -107.35 Z"/>
</g>

<g id="Symbol_2_2_Layer1_0_FILL">
<path fill="#000000" stroke="none" d="
M -249.95 -38.2
L -245.6 -30.35 -202.05 -30.35 -202.3 -7.1
Q -203.95 -9.45 -205.7 -11.65 -207.55 -13.85 -209.7 -15.65 -211.85 -17.35 -214.75 -18 -217.7 -18.6 -221.1 -18.6 -229.95 -18.6 -234.45 -12.75 -237.45 -8.85 -237.45 -4.65 -237.45 3.6 -231.4 9.6 -225.45 15.5 -217.3 15.5 -213.1 15.5 -209.4 13.75 -207.8 13 -202.05 9.4
L -201.7 30.25 -193.6 35.15 -193.6 3.8
Q -189.3 0.2 -185.05 -2.2 -180.7 -4.6 -178.3 -4.6 -175.2 -4.6 -173.25 -2.75 -171.3 -1 -171.3 2.3 -171.3 6.3 -173.6 11.55 -175.95 16.8 -179.6 21.8
L -172.45 28.25
Q -164.95 16.8 -164.95 9.25 -164.95 -1.25 -170.8 -7.55 -175.45 -12.6 -180.45 -12.6 -183.7 -12.6 -186.9 -10.8 -189.45 -9.45 -193.6 -6.25
L -193.6 -30.35 -148.95 -30.35 -148.95 30.25 -140.6 35.15 -140.6 -30.35 -129.95 -30.35 -134.1 -38.2 -249.95 -38.2
M -227.55 -8
Q -223.95 -10.85 -219.45 -10.85 -213.45 -10.85 -209.75 -8.65 -206.1 -6.5 -202.05 -0.85 -207.65 3.45 -212.85 6 -218.1 8.5 -221.95 8.5 -225.85 8.5 -228.5 6.2 -231.1 3.95 -231.1 0.1 -231.1 -5.15 -227.55 -8
M -527.75 -39.35
Q -530.85 -39.35 -535 -38.05 -539.15 -36.65 -543.35 -34.5
L -540.6 -28.65
Q -539.5 -26.9 -538.35 -26.9 -534.4 -29 -530.25 -31.25 -526.15 -33.15 -522.75 -33.15 -519 -33.15 -516.65 -30.9 -514.25 -28.65 -514.25 -24.5 -514.25 -20.15 -517.5 -16.6 -520.1 -13.85 -522 -13.85 -523 -13.85 -527.5 -13.25 -532 -12.6 -533.1 -12.6 -535.5 -12.6 -535.5 -10.15 -535.5 -8.85 -531.7 -5.15 -529.9 -3.25 -529.1 -3.25 -528.25 -3.25 -523.6 -5 -521.2 -5.85 -517 -7.5 -513.7 -6.55 -511.7 -3.8 -509.6 -1.1 -509.6 2.85 -509.6 8.4 -513.4 12.45 -517.25 16.55 -523.25 16.55 -530.5 16.55 -536 11.4 -541.55 6.3 -546.35 -4.7
L -550.25 -2.55
Q -544.15 10.65 -536.85 17.5 -529.5 24.4 -520.95 24.4 -512.6 24.4 -507.3 19.85 -502 15.2 -502 7.4 -502 3.6 -504.1 0.2
L -503.9 0.2
Q -501.15 2.3 -497.95 3.25 -494.85 4.15 -492.6 4.15 -490.65 4.15 -488.15 3.85 -485.65 3.55 -483.5 2.7
L -484 30.25 -475.25 35.15 -475.25 -30.35 -458.05 -30.35 -458.05 30.25 -449.7 35.15 -449.7 -30.35 -433.7 -30.35 -433.7 29.8 -425.7 36.05 -425.7 -30.35 -380.9 -30.35 -380.9 -21.35 -389.4 -21.35
Q -398.65 -21.35 -403.55 -18.85 -410.45 -15.4 -410.45 -6.7 -410.45 0.1 -405.2 6.5 -399.45 13.35 -390.4 15.75 -387.45 16.9 -384.75 17.15 -382.05 17.4 -379.7 17.4
L -366.2 42.8 -361.05 39.8
Q -364.15 34.8 -368.8 26.35 -373.45 18 -374.55 14.9 -372.4 13.85 -371.25 12.45 -370.05 11 -370.05 8.85 -370.05 6.45 -375.15 3.35 -380.3 0.25 -382.05 0.25 -383.3 0.25 -384.45 1.2 -385.55 2.25 -385.55 3.35 -385.55 4.15 -385 5.65 -384.45 7.25 -383.05 10.5
L -387.05 10.5
Q -393.15 10.5 -397.95 6.5 -402.7 2.55 -402.7 -3.3 -402.7 -8.65 -399.65 -11.05 -396.6 -13.5 -389.1 -13.5
L -375.15 -13.5
Q -372.4 -13.5 -372.4 -15.9
L -372.4 -30.35 -297.85 -30.35 -297.85 -12.35
Q -299.5 -13.85 -302.35 -15.25 -305.25 -16.75 -307.75 -16.75 -311.45 -16.75 -314.7 -14.6 -317.85 -12.5 -321.45 -7.65 -324.6 -11.5 -328.85 -15.75 -330.4 -17.2 -333.05 -18.25 -335.75 -19.25 -338.6 -19.25 -345.9 -19.25 -350.4 -13.25 -354.15 -8.25 -354.15 -2.45 -354.15 7.7 -344.65 18.55 -336.85 27.5 -323.55 36.2
L -320 31.9
Q -335.15 23.3 -341.15 15.3 -345.65 9.15 -345.65 1.3 -345.65 -4.85 -341.6 -8.5 -338.4 -11.5 -334.25 -11.5 -331.6 -11.5 -328.45 -9.05 -325.25 -6.6 -323.5 -3.85 -324.1 -3 -325 -1.35 -325.85 0.25 -326.9 2.15
L -320 6.75
Q -314.95 -3 -311.5 -6.35 -308.05 -9.7 -303.75 -9.7 -300.55 -9.7 -297.5 -7.65
L -297.85 30.25 -289.35 35.15 -289.35 -30.35 -278.75 -30.35 -282.9 -38.2 -416.8 -38.2 -416.85 -38.25 -428.9 -38.25
Q -430.3 -40.5 -430.3 -45.05 -430.3 -49.95 -425.95 -54.1 -421.6 -58.2 -414.95 -58.2 -409.7 -58.2 -397.3 -52.1 -385.6 -46.35 -378.2 -40.55
L -378.2 -45.55
Q -385.35 -51.6 -398.85 -58.2 -413.05 -65.2 -419.45 -65.2 -428.55 -65.2 -433.8 -59.35 -437.85 -54.85 -437.85 -49.6 -437.85 -46.35 -436.65 -43.8 -435.55 -41.2 -433.45 -38.25
L -451.45 -38.25 -451.4 -38.2 -504.85 -38.2 -500.9 -30.35 -484 -30.35 -484 -7.7
Q -485.1 -6.15 -489.25 -4.45 -493.4 -2.7 -495.75 -2.7 -503.55 -2.7 -513.2 -10.1 -510.45 -11.5 -508.65 -14.35 -506.75 -17.2 -506.75 -20.2 -506.75 -23.3 -508.15 -26.25 -509.5 -29.1 -513.05 -32.4 -516.65 -35.75 -520.9 -37.55 -525.1 -39.35 -527.75 -39.35
M 550.25 -34.25
L 541.75 -39.6 541.75 30.4 550.25 35.75 550.25 -34.25
M 483.75 -56.4
Q 481.95 -56.3 481.95 -55.9
L 486.75 -46.6
Q 487.45 -46.9 487.85 -47.25 488.7 -47.25 489.5 -47.25 490.7 -47.25 492.85 -46.25 494.95 -45.25 496.05 -43.45 496.7 -42.35 499.45 -38.2
L 454.3 -38.2 458.45 -30.35 498.45 -30.35 498.45 -20.7 477.8 -20.7
Q 472.3 -20.7 469.7 -17.95 467.05 -15.2 467.05 -10.55 467.05 -8.05 469.2 -4.15 471.35 -0.2 474.95 3.4 472.7 5.65 471.45 8.4 470.2 11.15 470.2 14.9 470.2 24.4 480.2 30.9 488.2 36.15 503.1 39.8
L 504.05 36.35
Q 490.8 32.05 484.55 26.9 478.9 22.25 478.9 17.15 478.9 12.15 483.55 7.25 488.8 1.75 496.05 1.75 499.2 1.75 502.05 4.1 504.9 6.4 504.9 9.65 504.9 16.3 495.8 18
L 500.45 25.15
Q 507.05 23.15 509.75 20.05 512.4 17 512.4 12.4 512.4 6.4 506 1.05 499.55 -4.35 493.8 -4.35 489.8 -4.35 485.75 -3.35 481.65 -2.35 478.05 0.2 476.05 -1.35 474.7 -3.3 473.4 -5.3 473.4 -7.35 473.4 -9.7 475.35 -11.3 477.35 -12.95 479.4 -12.95
L 504.05 -12.95
Q 506.8 -12.95 506.8 -15.7
L 506.8 -30.35 524.8 -30.35 520.55 -38.2 509.5 -38.2
Q 508.35 -41.45 504.45 -50.65 499.75 -61.85 497.5 -65.2 495.2 -68.6 491.45 -70.45 488.55 -71.85 485.7 -71.85 483.55 -71.85 482.15 -71.7 480.7 -71.6 480.7 -71.1 480.8 -70.75 483.85 -65.6 484.7 -63.95 486.75 -60.75 487.45 -61.1 488.1 -61.6 489.1 -61.6 490.1 -61.6 491.75 -61.6 494.2 -59.9 496.7 -58.25 498.35 -55.6 499.6 -53.35 501.65 -48.45 503.4 -44.35 505.8 -38.2
L 502.95 -38.2
Q 502.05 -39.9 500.7 -42.25 497 -48.9 495.45 -51.15 493.45 -54 490.8 -55.25 488.2 -56.5 485.95 -56.5 485.55 -56.5 483.75 -56.4
M 132.4 -59.35
Q 128.35 -54.85 128.35 -49.6 128.35 -46.35 129.55 -43.8 130.65 -41.2 132.75 -38.25
L 114.75 -38.25 119.1 -30.35 132.5 -30.35 132.5 29.8 140.5 36.05 140.5 -30.35 186.35 -30.35 186.1 -7.1
Q 184.45 -9.45 182.7 -11.65 180.85 -13.85 178.7 -15.65 176.55 -17.35 173.65 -18 170.7 -18.6 167.3 -18.6 158.45 -18.6 153.95 -12.75 150.95 -8.85 150.95 -4.65 150.95 3.6 157 9.6 162.95 15.5 171.1 15.5 175.3 15.5 179 13.75 180.6 13 186.35 9.4
L 186.7 30.25 194.8 35.15 194.8 3.8
Q 199.1 0.2 203.35 -2.2 207.7 -4.6 210.1 -4.6 213.2 -4.6 215.15 -2.75 217.1 -1 217.1 2.3 217.1 6.3 214.8 11.55 212.45 16.8 208.8 21.8
L 215.95 28.25
Q 223.45 16.8 223.45 9.25 223.45 -1.25 217.6 -7.55 212.95 -12.6 207.95 -12.6 204.7 -12.6 201.5 -10.8 198.95 -9.45 194.8 -6.25
L 194.8 -30.35 251.05 -30.35
Q 251.15 -29.1 251.4 -27.05 251.65 -24.95 251.65 -22 251.65 -10.5 251.25 -7.45 250.8 -4.35 249.75 -4.35 249.15 -4.35 245.45 -6.4 241.65 -8.5 241.05 -8.5 239.6 -8.5 238.3 -6.85 237.05 -5.25 237.05 -3.6 237.05 -0.35 243.75 7.85 249.45 15.15 267.55 35.15
L 271.55 31.3
Q 265.75 25.15 257.7 16.3 250.45 8.15 250.45 7.95 250.45 6.75 251.1 6.1 251.85 5.45 253.35 4.65 254.95 3.9 256.9 1.9 257.1 1.75 259.85 -1.25 263.8 3.05 269.55 5.05 273.35 6.3 276.45 6.3 278.35 6.3 281.4 5.55 284.45 4.75 287.45 3.8
L 287.45 30.25 295.65 35.15 295.65 -30.35 312.85 -30.35 312.85 30.25 321.2 35.15 321.2 -30.35 371.5 -30.35 371.5 -11.85 345.75 -11.85
Q 340.15 -11.85 338.15 -10.95 336.1 -9.95 336.1 -7.7 336.1 -5.75 340.9 1.1 345.7 7.95 347.6 7.95 348.65 7.95 349.35 7.25 350.15 6.5 350.15 4.95
L 350.15 -2.55
Q 350.15 -3.5 350.85 -3.75 351.5 -3.95 353.25 -3.95
L 371.5 -3.95 371.5 30.25 380 35.15 380 -30.35 399.65 -30.35 399.65 30.25 407.9 35.15 407.9 -30.35 421 -30.35 416.75 -38.2 405.65 -38.2
Q 403.6 -53.25 397.4 -61.1 391.65 -68.35 383.4 -68.35 377.15 -68.35 373.1 -64.5 369 -60.75 369 -54.2 369 -52.6 370.1 -49.75 371.25 -46.8 372.15 -45.95
L 375.25 -47.15
Q 375.25 -60.5 383.85 -60.5 390 -60.5 394.65 -55.25 399.8 -49.3 401.35 -38.2
L 149.4 -38.2 149.35 -38.25 137.3 -38.25
Q 135.9 -40.5 135.9 -45.05 135.9 -49.95 140.25 -54.1 144.6 -58.2 151.25 -58.2 156.5 -58.2 168.9 -52.1 180.6 -46.35 188 -40.55
L 188 -45.55
Q 180.85 -51.6 167.35 -58.2 153.15 -65.2 146.75 -65.2 137.65 -65.2 132.4 -59.35
M 168.95 -10.85
Q 174.95 -10.85 178.65 -8.65 182.3 -6.5 186.35 -0.85 180.75 3.45 175.55 6 170.3 8.5 166.45 8.5 162.55 8.5 159.9 6.2 157.3 3.95 157.3 0.1 157.3 -5.15 160.85 -8 164.45 -10.85 168.95 -10.85
M 273.75 -1.6
Q 270.2 -1.6 266.05 -3.25 263 -4.35 260 -6.25
L 259.8 -30.35 287.45 -30.35 287.45 -6.7
Q 284.45 -4.6 280.6 -3.1 276.75 -1.6 273.75 -1.6
M 25.85 -2.55
Q 24.7 -2.55 23.9 -1.55 23.1 -0.45 23.1 0.55 23.1 2.2 29.35 8.8 35.55 15.35 37.6 15.35 40.45 15.35 40.45 11.75
L 40.45 5.45 66.15 5.45 65.8 30.25 74.5 35.15 74.5 -30.35 85.25 -30.35 81 -38.2 -101.15 -38.2 -96.8 -30.35 -53.25 -30.35 -53.5 -7.1
Q -55.15 -9.45 -56.9 -11.65 -58.75 -13.85 -60.9 -15.65 -63.05 -17.35 -65.95 -18 -68.9 -18.6 -72.3 -18.6 -81.15 -18.6 -85.65 -12.75 -88.65 -8.85 -88.65 -4.65 -88.65 3.6 -82.6 9.6 -76.65 15.5 -68.5 15.5 -64.3 15.5 -60.6 13.75 -59 13 -53.25 9.4
L -52.9 30.25 -44.8 35.15 -44.8 3.8
Q -40.5 0.2 -36.25 -2.2 -31.9 -4.6 -29.5 -4.6 -26.4 -4.6 -24.45 -2.75 -22.5 -1 -22.5 2.3 -22.5 6.3 -24.8 11.55 -27.15 16.8 -30.8 21.8
L -23.65 28.25
Q -16.15 16.8 -16.15 9.25 -16.15 -1.25 -22 -7.55 -26.65 -12.6 -31.65 -12.6 -34.9 -12.6 -38.1 -10.8 -40.65 -9.45 -44.8 -6.25
L -44.8 -30.35 -0.15 -30.35 -0.15 30.25 8.2 35.15 8.2 -30.35 31.95 -30.35 31.95 -2.55 25.85 -2.55
M 40.45 -2.55
L 40.45 -30.35 66.15 -30.35 66.15 -2.55 40.45 -2.55
M -70.65 -10.85
Q -64.65 -10.85 -60.95 -8.65 -57.3 -6.5 -53.25 -0.85 -58.85 3.45 -64.05 6 -69.3 8.5 -73.15 8.5 -77.05 8.5 -79.7 6.2 -82.3 3.95 -82.3 0.1 -82.3 -5.15 -78.75 -8 -75.15 -10.85 -70.65 -10.85 Z"/>
</g>
</defs>

<g transform="matrix( 1, 0, 0, 1, 675.25,232.5) ">
<g filter="url(#Filter_1)" transform="matrix( 1, 0, 0, 1, -675.25,-232.5) ">
<g transform="matrix( 1, 0, 0, 1, 675.25,181) ">
<g transform="matrix( 1, 0, 0, 1, 0,0) ">
<use xlink:href="#Duplicate_Items_Folder_Symbol_11_copy_0_Layer0_0_FILL"/>
</g>
</g>
</g>

<g transform="matrix( 1, 0, 0, 1, 0,0) ">
<use xlink:href="#Duplicate_Items_Folder_Symbol_8_copy_2_0_Layer0_1_FILL"/>
</g>

<g transform="matrix( 1, 0, 0, 1, 0,-51.5) ">
<g transform="matrix( 1, 0, 0, 1, 0,0) ">
<use xlink:href="#Duplicate_Items_Folder_Symbol_1_copy_3_0_Layer0_0_FILL"/>
</g>
</g>

<g transform="matrix( 1, 0, 0, 1, 0,0) ">
<use xlink:href="#Duplicate_Items_Folder_Symbol_8_copy_2_0_Layer0_3_FILL"/>
</g>

<g transform="matrix( 1, 0, 0, 1, 0,0) ">
<use xlink:href="#Duplicate_Items_Folder_Symbol_8_copy_2_0_Layer0_4_FILL"/>
</g>
</g>

<g transform="matrix( 1, 0, 0, 1, 677.5,163.75) ">
<g transform="matrix( 1, 0, 0, 1, 0,0) ">
<use xlink:href="#Symbol_2_2_Layer1_0_FILL"/>
</g>
</g>
</svg>
