
<svg xmlns="http://www.w3.org/2000/svg" version="1.1" xmlns:xlink="http://www.w3.org/1999/xlink" preserveAspectRatio="none" x="0px" y="0px" width="307px" height="135px" viewBox="0 0 307 135">
<defs>
<g id="Symbol_1_13_Layer1_0_FILL">
<path fill="#000000" stroke="none" d="
M 27.8 -14.05
L 45 -14.05 45 46.55 53.35 51.45 53.35 -14.05 103.65 -14.05 103.65 4.45 77.9 4.45
Q 72.3 4.45 70.3 5.35 68.25 6.35 68.25 8.6 68.25 10.55 73.05 17.4 77.85 24.25 79.75 24.25 80.8 24.25 81.5 23.55 82.3 22.8 82.3 21.25
L 82.3 13.75
Q 82.3 12.8 83 12.55 83.65 12.35 85.4 12.35
L 103.65 12.35 103.65 46.55 112.15 51.45 112.15 -14.05 131.8 -14.05 131.8 46.55 140.05 51.45 140.05 -14.05 153.15 -14.05 148.9 -21.9 137.8 -21.9
Q 135.75 -36.95 129.55 -44.8 123.8 -52.05 115.55 -52.05 109.3 -52.05 105.25 -48.2 101.15 -44.45 101.15 -37.9 101.15 -36.3 102.25 -33.45 103.4 -30.5 104.3 -29.65
L 107.4 -30.85
Q 107.4 -44.2 116 -44.2 122.15 -44.2 126.8 -38.95 131.95 -33 133.5 -21.9
L -130.55 -21.9
Q -131.95 -24.15 -131.95 -28.7 -131.95 -33.6 -127.6 -37.75 -123.25 -41.85 -116.6 -41.85 -111.35 -41.85 -98.95 -35.75 -87.25 -30 -79.85 -24.2
L -79.85 -29.2
Q -87 -35.25 -100.5 -41.85 -114.7 -48.85 -121.1 -48.85 -130.2 -48.85 -135.45 -43 -139.5 -38.5 -139.5 -33.25 -139.5 -30 -138.3 -27.45 -137.2 -24.85 -135.1 -21.9
L -153.1 -21.9 -148.75 -14 -135.35 -14 -135.35 46.15 -127.35 52.4 -127.35 -14 -114.2 -14 -114.2 -14.05 -81.5 -14.05 -81.75 9.2
Q -83.4 6.85 -85.15 4.65 -87 2.45 -89.15 0.65 -91.3 -1.05 -94.2 -1.7 -97.15 -2.3 -100.55 -2.3 -109.4 -2.3 -113.9 3.55 -116.9 7.45 -116.9 11.65 -116.9 19.9 -110.85 25.9 -104.9 31.8 -96.75 31.8 -92.55 31.8 -88.85 30.05 -87.25 29.3 -81.5 25.7
L -81.15 46.55 -73.05 51.45 -73.05 20.1
Q -68.75 16.5 -64.5 14.1 -60.15 11.7 -57.75 11.7 -54.65 11.7 -52.7 13.55 -50.75 15.3 -50.75 18.6 -50.75 22.6 -53.05 27.85 -55.4 33.1 -59.05 38.1
L -51.9 44.55
Q -44.4 33.1 -44.4 25.55 -44.4 15.05 -50.25 8.75 -54.9 3.7 -59.9 3.7 -63.15 3.7 -66.35 5.5 -68.9 6.85 -73.05 10.05
L -73.05 -14.05 -16.8 -14.05
Q -16.7 -12.8 -16.45 -10.75 -16.2 -8.65 -16.2 -5.7 -16.2 5.8 -16.6 8.85 -17.05 11.95 -18.1 11.95 -18.7 11.95 -22.4 9.9 -26.2 7.8 -26.8 7.8 -28.25 7.8 -29.55 9.45 -30.8 11.05 -30.8 12.7 -30.8 15.95 -24.1 24.15 -18.4 31.45 -0.3 51.45
L 3.7 47.6
Q -2.1 41.45 -10.15 32.6 -17.4 24.45 -17.4 24.25 -17.4 23.05 -16.75 22.4 -16 21.75 -14.5 20.95 -12.9 20.2 -10.95 18.2 -10.75 18.05 -8 15.05 -4.05 19.35 1.7 21.35 5.5 22.6 8.6 22.6 10.5 22.6 13.55 21.85 16.6 21.05 19.6 20.1
L 19.6 46.55 27.8 51.45 27.8 -14.05
M 12.75 13.2
Q 8.9 14.7 5.9 14.7 2.35 14.7 -1.8 13.05 -4.85 11.95 -7.85 10.05
L -8.05 -14.05 19.6 -14.05 19.6 9.6
Q 16.6 11.7 12.75 13.2
M -81.5 15.45
Q -87.1 19.75 -92.3 22.3 -97.55 24.8 -101.4 24.8 -105.3 24.8 -107.95 22.5 -110.55 20.25 -110.55 16.4 -110.55 11.15 -107 8.3 -103.4 5.45 -98.9 5.45 -92.9 5.45 -89.2 7.65 -85.55 9.8 -81.5 15.45 Z"/>
</g>
</defs>

<g transform="matrix( 1, 0, 0, 1, 153.5,55.75) ">
<g transform="matrix( 1, 0, 0, 1, 0,0) ">
<use xlink:href="#Symbol_1_13_Layer1_0_FILL"/>
</g>
</g>
</svg>
