
<svg xmlns="http://www.w3.org/2000/svg" version="1.1" xmlns:xlink="http://www.w3.org/1999/xlink" preserveAspectRatio="none" x="0px" y="0px" width="187px" height="135px" viewBox="0 0 187 135">
<defs>
<g id="Symbol_1_12_Layer1_0_FILL">
<path fill="#000000" stroke="none" d="
M 16.15 -14.05
L 39.9 -14.05 39.9 13.75 33.8 13.75
Q 32.65 13.75 31.85 14.75 31.05 15.85 31.05 16.85 31.05 18.5 37.3 25.1 43.5 31.65 45.55 31.65 48.4 31.65 48.4 28.05
L 48.4 21.75 74.1 21.75 73.75 46.55 82.45 51.45 82.45 -14.05 93.2 -14.05 88.95 -21.9 -93.2 -21.9 -88.85 -14.05 -45.3 -14.05 -45.55 9.2
Q -47.2 6.85 -48.95 4.65 -50.8 2.45 -52.95 0.65 -55.1 -1.05 -58 -1.7 -60.95 -2.3 -64.35 -2.3 -73.2 -2.3 -77.7 3.55 -80.7 7.45 -80.7 11.65 -80.7 19.9 -74.65 25.9 -68.7 31.8 -60.55 31.8 -56.35 31.8 -52.65 30.05 -51.05 29.3 -45.3 25.7
L -44.95 46.55 -36.85 51.45 -36.85 20.1
Q -32.55 16.5 -28.3 14.1 -23.95 11.7 -21.55 11.7 -18.45 11.7 -16.5 13.55 -14.55 15.3 -14.55 18.6 -14.55 22.6 -16.85 27.85 -19.2 33.1 -22.85 38.1
L -15.7 44.55
Q -8.2 33.1 -8.2 25.55 -8.2 15.05 -14.05 8.75 -18.7 3.7 -23.7 3.7 -26.95 3.7 -30.15 5.5 -32.7 6.85 -36.85 10.05
L -36.85 -14.05 7.8 -14.05 7.8 46.55 16.15 51.45 16.15 -14.05
M 48.4 -14.05
L 74.1 -14.05 74.1 13.75 48.4 13.75 48.4 -14.05
M -45.3 15.45
Q -50.9 19.75 -56.1 22.3 -61.35 24.8 -65.2 24.8 -69.1 24.8 -71.75 22.5 -74.35 20.25 -74.35 16.4 -74.35 11.15 -70.8 8.3 -67.2 5.45 -62.7 5.45 -56.7 5.45 -53 7.65 -49.35 9.8 -45.3 15.45 Z"/>
</g>
</defs>

<g transform="matrix( 1, 0, 0, 1, 93.5,55.75) ">
<g transform="matrix( 1, 0, 0, 1, 0,0) ">
<use xlink:href="#Symbol_1_12_Layer1_0_FILL"/>
</g>
</g>
</svg>
