
<svg xmlns="http://www.w3.org/2000/svg" version="1.1" xmlns:xlink="http://www.w3.org/1999/xlink" preserveAspectRatio="none" x="0px" y="0px" width="380px" height="217px" viewBox="0 0 380 217">
<defs>
<g id="Symbol_1_12_Layer1_0_FILL">
<path fill="#000000" stroke="none" d="
M 17.2 -35.8
Q 28.9 -30.05 36.3 -24.25
L 36.3 -29.25
Q 29.15 -35.3 15.65 -41.9 1.45 -48.9 -4.95 -48.9 -14.05 -48.9 -19.3 -43.05 -23.35 -38.55 -23.35 -33.3 -23.35 -30.05 -22.15 -27.5 -21.05 -24.9 -18.95 -21.95
L -36.95 -21.95 -36.9 -21.9 -90.35 -21.9 -86.4 -14.05 -69.5 -14.05 -69.5 8.6
Q -70.6 10.15 -74.75 11.85 -78.9 13.6 -81.25 13.6 -89.05 13.6 -98.7 6.2 -95.95 4.8 -94.15 1.95 -92.25 -0.9 -92.25 -3.9 -92.25 -7 -93.65 -9.95 -95 -12.8 -98.55 -16.1 -102.15 -19.45 -106.4 -21.25 -110.6 -23.05 -113.25 -23.05 -116.35 -23.05 -120.5 -21.75 -124.65 -20.35 -128.85 -18.2
L -126.1 -12.35
Q -125 -10.6 -123.85 -10.6 -119.9 -12.7 -115.75 -14.95 -111.65 -16.85 -108.25 -16.85 -104.5 -16.85 -102.15 -14.6 -99.75 -12.35 -99.75 -8.2 -99.75 -3.85 -103 -0.3 -105.6 2.45 -107.5 2.45 -108.5 2.45 -113 3.05 -117.5 3.7 -118.6 3.7 -121 3.7 -121 6.15 -121 7.45 -117.2 11.15 -115.4 13.05 -114.6 13.05 -113.75 13.05 -109.1 11.3 -106.7 10.45 -102.5 8.8 -99.2 9.75 -97.2 12.5 -95.1 15.2 -95.1 19.15 -95.1 24.7 -98.9 28.75 -102.75 32.85 -108.75 32.85 -116 32.85 -121.5 27.7 -127.05 22.6 -131.85 11.6
L -135.75 13.75
Q -129.65 26.95 -122.35 33.8 -115 40.7 -106.45 40.7 -98.1 40.7 -92.8 36.15 -87.5 31.5 -87.5 23.7 -87.5 19.9 -89.6 16.5
L -89.4 16.5
Q -86.65 18.6 -83.45 19.55 -80.35 20.45 -78.1 20.45 -76.15 20.45 -73.65 20.15 -71.15 19.85 -69 19
L -69.5 46.55 -60.75 51.45 -60.75 -14.05 -43.55 -14.05 -43.55 46.55 -35.2 51.45 -35.2 -14.05 -19.2 -14.05 -19.2 46.1 -11.2 52.35 -11.2 -14.05 33.6 -14.05 33.6 -5.05 25.1 -5.05
Q 15.85 -5.05 10.95 -2.55 4.05 0.9 4.05 9.6 4.05 16.4 9.3 22.8 15.05 29.65 24.1 32.05 27.05 33.2 29.75 33.45 32.45 33.7 34.8 33.7
L 48.3 59.1 53.45 56.1
Q 50.35 51.1 45.7 42.65 41.05 34.3 39.95 31.2 42.1 30.15 43.25 28.75 44.45 27.3 44.45 25.15 44.45 22.75 39.35 19.65 34.2 16.55 32.45 16.55 31.2 16.55 30.05 17.5 28.95 18.55 28.95 19.65 28.95 20.45 29.5 21.95 30.05 23.55 31.45 26.8
L 27.45 26.8
Q 21.35 26.8 16.55 22.8 11.8 18.85 11.8 13 11.8 7.65 14.85 5.25 17.9 2.8 25.4 2.8
L 39.35 2.8
Q 42.1 2.8 42.1 0.4
L 42.1 -14.05 116.65 -14.05 116.65 3.95
Q 115 2.45 112.15 1.05 109.25 -0.45 106.75 -0.45 103.05 -0.45 99.8 1.7 96.65 3.8 93.05 8.65 89.9 4.8 85.65 0.55 84.1 -0.9 81.45 -1.95 78.75 -2.95 75.9 -2.95 68.6 -2.95 64.1 3.05 60.35 8.05 60.35 13.85 60.35 24 69.85 34.85 77.65 43.8 90.95 52.5
L 94.5 48.2
Q 79.35 39.6 73.35 31.6 68.85 25.45 68.85 17.6 68.85 11.45 72.9 7.8 76.1 4.8 80.25 4.8 82.9 4.8 86.05 7.25 89.25 9.7 91 12.45 90.4 13.3 89.5 14.95 88.65 16.55 87.6 18.45
L 94.5 23.05
Q 99.55 13.3 103 9.95 106.45 6.6 110.75 6.6 113.95 6.6 117 8.65
L 116.65 46.55 125.15 51.45 125.15 -14.05 135.75 -14.05 131.6 -21.9 -2.3 -21.9 -2.35 -21.95 -14.4 -21.95
Q -15.8 -24.2 -15.8 -28.75 -15.8 -33.65 -11.45 -37.8 -7.1 -41.9 -0.45 -41.9 4.8 -41.9 17.2 -35.8 Z"/>
</g>
</defs>

<g transform="matrix( 0.92156982421875, 0, 0, 0.92156982421875, 190,108.5) ">
<g transform="matrix( 1, 0, 0, 1, -0.05,4.5) ">
<g transform="matrix( 1, 0, 0, 1, 0,0) ">
<use xlink:href="#Symbol_1_12_Layer1_0_FILL"/>
</g>
</g>
</g>
</svg>
