
<svg xmlns="http://www.w3.org/2000/svg" version="1.1" xmlns:xlink="http://www.w3.org/1999/xlink" preserveAspectRatio="none" x="0px" y="0px" width="68px" height="68px" viewBox="0 0 68 68">
<defs/>

<g id="Layer_1">
<g transform="matrix( 1, 0, 0, 1, 34,34) ">
<g id="Layer_1">
<g transform="matrix( 1, 0, 0, 1, 0,0) ">
<g>
<g>
<path fill="#34D1F7" stroke="none" d="
M -22.7 -16.65
Q -29.6 -9.75 -31.5 -0.75 -29.6 8.3 -22.7 15.15 -13.35 24.6 0 24.6 13.35 24.6 22.8 15.15 29.7 8.3 31.55 -0.75 29.7 -9.75 22.8 -16.65 13.35 -26.05 0 -26.05 -13.35 -26.05 -22.7 -16.65 Z"/>

<path fill="#44AFC9" stroke="none" d="
M -31.5 -0.75
Q -31.75 -2.2 -31.95 -3.8 -32.15 -1.9 -32.15 0 -32.15 1.55 -32.05 3 -31.05 14.45 -22.7 22.75 -13.35 32.2 0 32.2 13.35 32.2 22.8 22.75 31.1 14.45 32.05 3.05 32.2 1.55 32.2 0 32.2 -1.9 32 -3.8 31.85 -2.2 31.55 -0.75 29.7 8.3 22.8 15.15 13.35 24.6 0 24.6 -13.35 24.6 -22.7 15.15 -29.6 8.3 -31.5 -0.75 Z"/>

<path fill="#8BE6FC" stroke="none" d="
M -31.95 -3.8
Q -31.75 -2.2 -31.5 -0.75 -29.6 -9.75 -22.7 -16.65 -13.35 -26.05 0 -26.05 13.35 -26.05 22.8 -16.65 29.7 -9.75 31.55 -0.75 31.85 -2.2 32 -3.8 30.85 -14.7 22.8 -22.7 13.35 -32.15 0 -32.15 -13.35 -32.15 -22.7 -22.7 -30.75 -14.7 -31.95 -3.8 Z"/>
</g>
</g>

<g>
<path stroke="#002511" stroke-width="2" stroke-linejoin="round" stroke-linecap="round" fill="none" d="
M 32 -3.8
Q 30.85 -14.7 22.8 -22.7 13.35 -32.15 0 -32.15 -13.35 -32.15 -22.7 -22.7 -30.75 -14.7 -31.95 -3.8 -32.15 -1.9 -32.15 0 -32.15 1.55 -32.05 3 -31.05 14.45 -22.7 22.75 -13.35 32.2 0 32.2 13.35 32.2 22.8 22.75 31.1 14.45 32.05 3.05 32.2 1.55 32.2 0 32.2 -1.9 32 -3.8 Z"/>
</g>
</g>

<g transform="matrix( 1, 0, 0, 1, 0,0) ">
<g>
<g>
<path fill="#000000" stroke="none" d="
M 5.8 12.7
Q 3.3 13.55 0.7 13.55
L -0.7 13.55
Q -3.3 13.55 -5.8 12.7 -8.2 11.9 -10.15 10.4 -15.35 11.2 -18 13.4 -20.75 15.55 -21.4 16.45 -12 24.95 1.2 24.7 14.2 23.8 21.2 16.65 20.3 15.6 19.2 14.65 15.35 11.2 10.15 10.4 8.2 11.9 5.8 12.7
M 4.05 -18.2
Q 3.45 -18.4 2.9 -18.55
L -0.5 -19 -0.55 -19 -3.95 -18.55
Q -4.5 -18.4 -5.1 -18.2 -7.2 -17.45 -8.95 -16.05 -10.7 -14.65 -11.9 -12.8 -13.15 -10.9 -13.7 -8.7 -13.8 -8.15 -13.85 -8 -13.1 -7.35 -12.7 -6.45 -12.3 -5.55 -12.3 -4.55
L -12.3 1.35
Q -12.3 1.6 -12.3 1.85 -10.45 5.45 -7.4 7.65 -5.15 9.35 -2.65 9.8
L -0.55 10.05 -0.5 10.05 1.55 9.8
Q 4.1 9.35 6.35 7.65 9.4 5.45 11.25 1.85 11.25 1.6 11.25 1.35
L 11.25 -4.55
Q 11.25 -5.55 11.65 -6.45 12.05 -7.35 12.8 -8 12.75 -8.15 12.65 -8.7 12.1 -10.9 10.85 -12.8 9.65 -14.65 7.9 -16.05 6.15 -17.45 4.05 -18.2
M 15.6 -13.8
Q 14.15 -16.85 11.75 -19.2 9.3 -21.55 6.2 -22.8 2.95 -24.15 -0.55 -24.15 -4.05 -24.15 -7.3 -22.8 -10.4 -21.55 -12.85 -19.2 -15.25 -16.85 -16.7 -13.8 -18.15 -10.65 -18.3 -7.15 -19.05 -6.8 -19.5 -6.1 -20 -5.4 -20 -4.55
L -20 1.35
Q -20 2.55 -19.1 3.45 -18.25 4.3 -17.05 4.3
L -16.9 4.3
Q -15.7 4.3 -14.8 3.45 -13.95 2.55 -13.95 1.35
L -13.95 -4.55
Q -13.95 -5.4 -14.4 -6.1 -14.85 -6.8 -15.6 -7.15 -15.45 -10.1 -14.2 -12.75 -13 -15.3 -10.95 -17.25 -8.85 -19.25 -6.25 -20.3 -3.5 -21.4 -0.55 -21.4 2.4 -21.4 5.15 -20.3 7.75 -19.25 9.85 -17.25 11.9 -15.3 13.1 -12.75 14.35 -10.1 14.5 -7.15 13.75 -6.8 13.3 -6.1 12.85 -5.4 12.85 -4.55
L 12.85 1.35
Q 12.85 1.9 13.1 2.45 13.35 3.1 14.2 3.8 14.95 4.3 15.8 4.3
L 15.95 4.3
Q 17.15 4.3 18.05 3.45 18.9 2.55 18.9 1.35
L 18.9 -4.55
Q 18.9 -5.4 18.4 -6.1 17.95 -6.8 17.2 -7.15 17.05 -10.65 15.6 -13.8 Z"/>
</g>
</g>
</g>
</g>
</g>
</g>
</svg>
