
<svg xmlns="http://www.w3.org/2000/svg" version="1.1" xmlns:xlink="http://www.w3.org/1999/xlink" preserveAspectRatio="none" x="0px" y="0px" width="217px" height="217px" viewBox="0 0 217 217">
<defs>
<g id="Symbol_76_0_Layer2_0_FILL">
<path fill="#FFFFFF" stroke="none" d="
M 33.2 -35.3
L 33.2 -13.7
Q 31.2 -15.5 27.75 -17.2 24.3 -18.95 21.3 -18.95 16.85 -18.95 12.95 -16.4 9.15 -13.9 4.85 -8.05 1.1 -12.65 -4 -17.8 -5.85 -19.55 -9.05 -20.8 -12.3 -21.95 -15.75 -21.95 -24.45 -21.95 -29.85 -14.8 -34.35 -8.8 -34.35 -1.8 -34.35 10.35 -23 23.4 -13.6 34.15 2.35 44.55
L 6.6 39.4
Q -11.55 29.1 -18.75 19.5 -24.15 12.1 -24.15 2.65 -24.15 -4.65 -19.35 -9.05 -15.45 -12.65 -10.45 -12.65 -7.3 -12.65 -3.5 -9.75 0.3 -6.8 2.45 -3.5 1.7 -2.5 0.6 -0.5 -0.45 1.4 -1.7 3.7
L 6.6 9.25
Q 12.7 -2.5 16.8 -6.5 20.95 -10.55 26.1 -10.55 29.95 -10.55 33.65 -8.05
L 33.2 37.45 43.35 43.3 43.35 -35.3 56.1 -35.3 51.15 -44.75 -49.35 -44.75 -44.1 -35.3 33.2 -35.3 Z"/>
</g>

<g id="Symbol_76_0_Layer1_0_FILL">
<path fill="#000000" stroke="none" d="
M 29.75 -35.35
L 29.75 -13.75
Q 27.75 -15.55 24.3 -17.25 20.85 -19 17.85 -19 13.4 -19 9.5 -16.45 5.7 -13.95 1.4 -8.1 -2.35 -12.7 -7.45 -17.85 -9.3 -19.6 -12.5 -20.85 -15.75 -22 -19.2 -22 -27.9 -22 -33.3 -14.85 -37.8 -8.85 -37.8 -1.85 -37.8 10.3 -26.45 23.35 -17.05 34.1 -1.1 44.5
L 3.15 39.35
Q -15 29.05 -22.2 19.45 -27.6 12.05 -27.6 2.6 -27.6 -4.7 -22.8 -9.1 -18.9 -12.7 -13.9 -12.7 -10.75 -12.7 -6.95 -9.8 -3.15 -6.85 -1 -3.55 -1.75 -2.55 -2.85 -0.55 -3.9 1.35 -5.15 3.65
L 3.15 9.2
Q 9.25 -2.55 13.35 -6.55 17.5 -10.6 22.65 -10.6 26.5 -10.6 30.2 -8.1
L 29.75 37.4 39.9 43.25 39.9 -35.35 52.65 -35.35 47.7 -44.8 -52.8 -44.8 -47.55 -35.35 29.75 -35.35 Z"/>
</g>
</defs>

<g transform="matrix( 1.18182373046875, 0, 0, 1.18182373046875, 106.55,107.2) ">
<g transform="matrix( 1, 0, 0, 1, 0,0) ">
<use xlink:href="#Symbol_76_0_Layer2_0_FILL"/>
</g>

<g transform="matrix( 1, 0, 0, 1, 0,0) ">
<use xlink:href="#Symbol_76_0_Layer1_0_FILL"/>
</g>
</g>
</svg>
