
<svg xmlns="http://www.w3.org/2000/svg" version="1.1" xmlns:xlink="http://www.w3.org/1999/xlink" preserveAspectRatio="none" x="0px" y="0px" width="217px" height="217px" viewBox="0 0 217 217">
<defs>
<g id="Symbol_76_4_Layer2_0_FILL">
<path fill="#FFFFFF" stroke="none" d="
M 20.8 -35.3
L 20.8 -13.1 -10.1 -13.1
Q -16.85 -13.1 -19.3 -12 -21.7 -10.85 -21.7 -8.1 -21.7 -5.75 -16 2.45 -10.2 10.65 -7.9 10.65 -6.7 10.65 -5.8 9.85 -4.85 8.95 -4.85 7.05
L -4.85 -1.95
Q -4.85 -3.05 -4.05 -3.35 -3.25 -3.65 -1.1 -3.65
L 20.8 -3.65 20.8 37.45 30.95 43.3 30.95 -35.3 43.7 -35.3 38.6 -44.75 -37 -44.75 -32 -35.3 20.8 -35.3 Z"/>
</g>

<g id="Symbol_76_4_Layer1_0_FILL">
<path fill="#000000" stroke="none" d="
M 40.2 -35.35
L 35.1 -44.8 -40.5 -44.8 -35.5 -35.35 17.3 -35.35 17.3 -13.15 -13.6 -13.15
Q -20.35 -13.15 -22.8 -12.05 -25.2 -10.9 -25.2 -8.15 -25.2 -5.8 -19.5 2.4 -13.7 10.6 -11.4 10.6 -10.2 10.6 -9.3 9.8 -8.35 8.9 -8.35 7
L -8.35 -2
Q -8.35 -3.1 -7.55 -3.4 -6.75 -3.7 -4.6 -3.7
L 17.3 -3.7 17.3 37.4 27.45 43.25 27.45 -35.35 40.2 -35.35 Z"/>
</g>
</defs>

<g transform="matrix( 1.18182373046875, 0, 0, 1.18182373046875, 106.6,107.2) ">
<g transform="matrix( 1, 0, 0, 1, 0,0) ">
<use xlink:href="#Symbol_76_4_Layer2_0_FILL"/>
</g>

<g transform="matrix( 1, 0, 0, 1, 0,0) ">
<use xlink:href="#Symbol_76_4_Layer1_0_FILL"/>
</g>
</g>
</svg>
