
<svg xmlns="http://www.w3.org/2000/svg" version="1.1" xmlns:xlink="http://www.w3.org/1999/xlink" preserveAspectRatio="none" x="0px" y="0px" width="278px" height="216px" viewBox="0 0 278 216">
<defs>
<g id="Symbol_4_1_Layer0_0_FILL">
<path fill="#000000" stroke="none" d="
M 186.5 97.95
Q 182.6 96.35 179.9 96 177.35 95.6 173.65 95.6
L 168.6 95.6 164.1 96.85 159.55 98.95 155.25 101.5 160.6 75.3 199.35 75.3 199.35 63.8 150.8 63.8 141.45 113.95 152.8 115.5 154.1 113.6 155.85 111.8 159.95 108.85
Q 163.45 106.15 168.1 106.15
L 170.5 106.15
Q 176.7 106.15 182.4 109.9 188 113.6 189.85 119.4 191.35 122.75 191.35 128.35 191.35 138.55 185.35 145.7 177.9 152.15 170.7 152.15 167 152.15 164 151 153.75 147.5 151.95 133.6
L 139.25 134.55
Q 140.9 147.4 149.15 154.55 157.45 161.65 170.7 161.65 186.9 161.65 196.2 150.15 204 140.65 204 127.2 204 120.35 201.8 114.35 196.8 102.25 186.5 97.95
M 108.65 62.1
L 100.95 62.1 96.55 68.75
Q 93.05 72.85 89.9 75.4
L 81.8 81.9
Q 76.25 85.2 72.55 86.55
L 72.55 98.35 81.9 94.25 91.7 88
Q 94.15 86.25 96.55 83.7
L 96.55 160.15 108.65 160.15 108.65 62.1 Z"/>
</g>
</defs>

<g transform="matrix( 1, 0, 0, 1, -0.8,-1.45) ">
<g transform="matrix( 1, 0, 0, 1, 0,0) ">
<use xlink:href="#Symbol_4_1_Layer0_0_FILL"/>
</g>
</g>
</svg>
