
<svg xmlns="http://www.w3.org/2000/svg" version="1.1" xmlns:xlink="http://www.w3.org/1999/xlink" preserveAspectRatio="none" x="0px" y="0px" width="278px" height="216px" viewBox="0 0 278 216">
<defs>
<g id="Symbol_4_0_Layer0_0_FILL">
<path fill="#000000" stroke="none" d="
M 187.45 66.95
L 183.15 64.65 178.9 63.2
Q 176.7 62.25 174.8 62.25 173.15 62.25 170.1 62.25 160.5 62.25 152.7 67.7 144.9 73.2 141.45 82 139.25 87.4 139.25 95.2 139.25 103 141.45 108.75 143.55 114.55 147.65 118.85 156.2 127.2 168.1 127.2
L 175.15 126.45
Q 186.7 122.55 191.55 114.15
L 191.25 124.25 190.2 131.5 186.9 140.8 185.65 143
Q 184.5 145.3 182.7 146.55
L 178.95 149.4
Q 177.05 151 174.5 151.6
L 169.15 152.15 162.9 151.4
Q 156.6 148.45 154.8 143.95 153.25 140.8 152.6 136.55
L 141 137.7
Q 143.35 150.35 149.85 155.65 153.05 158.9 158.05 160.15 161.75 161.65 168.5 161.65 179.85 161.65 187.85 155.65 195.85 149.75 199.65 138.25 203.45 126.8 203.45 111.6
L 203.45 109.2
Q 203.45 101.2 202.5 93.4 200.5 80.85 194.3 73.2 190.4 68.75 187.45 66.95
M 175.45 72.15
Q 177.15 72.55 178.9 73.4 190.2 78.65 190.2 94.45 190.2 97 189.85 99 189.45 101.1 188.85 103.5 184.8 116.65 171.05 116.65 169.15 116.65 167.75 116.35 166.4 116.05 163.65 115.1 159.35 113.3 157 110.55 151.55 104.85 151.55 95.4 151.55 92.85 151.95 90.75 152.3 88.75 152.9 86.15 157.15 76.35 163.65 73.4 167.35 71.8 171.45 71.8 173.85 71.8 175.45 72.15
M 108.65 62.1
L 100.95 62.1 96.55 68.75
Q 93.05 72.85 89.9 75.4
L 81.8 81.9
Q 76.25 85.2 72.55 86.55
L 72.55 98.35 81.9 94.25 91.7 88
Q 94.15 86.25 96.55 83.7
L 96.55 160.15 108.65 160.15 108.65 62.1 Z"/>
</g>
</defs>

<g transform="matrix( 1, 0, 0, 1, -0.8,-1.45) ">
<g transform="matrix( 1, 0, 0, 1, 0,0) ">
<use xlink:href="#Symbol_4_0_Layer0_0_FILL"/>
</g>
</g>
</svg>
