
<svg xmlns="http://www.w3.org/2000/svg" version="1.1" xmlns:xlink="http://www.w3.org/1999/xlink" preserveAspectRatio="none" x="0px" y="0px" width="1920px" height="1080px" viewBox="0 0 1920 1080">
<defs>
<g id="Symbol_1_9_Layer1_0_FILL">
<path fill="#FFFFFF" stroke="none" d="
M -685.7 -50.95
L -675.7 -50.95 -675.7 -60.35 -685.7 -60.35 -685.7 -50.95
M -831.05 -34.75
L -831.05 -28.8 -796.85 -28.8 -796.85 -3.5 -797.85 -1.45
Q -798.5 -0.45 -799.75 -0.05
L -803.05 0.4
Q -809.05 0.4 -811.65 -4.7
L -815.9 -12.85 -822.2 -8.8 -812.95 7.05 -795.25 32.75
Q -790.9 39.25 -788.3 40.1
L -782.45 35.15 -785.45 32.1 -796.25 19.05 -805.2 5.5
Q -804.1 6.05 -803.15 6.05
L -801.55 6.2 -800.15 5.95
Q -799.65 5.5 -798.35 5.5
L -795.25 4.65
Q -791.3 2.85 -790.35 -0.1
L -789.5 -3.3 -789.5 -28.8 -762.25 -28.8 -762.25 -3.5 -787.75 -3.5 -782.65 2.45 -762.25 2.45 -762.25 40.1
Q -766.85 41 -770.4 43.05
L -774.15 45.25 -775.85 46.85 -770.1 52 -766.85 48.75
Q -762.8 45.9 -759.35 45.9
L -756 46.55
Q -754.25 47.75 -753.4 48.9
L -751.2 52
Q -750.5 53.7 -750.2 55.55 -750.2 58.25 -751.2 60.3 -755.75 67.35 -766.3 67.35 -775.15 67.35 -785.1 60.7
L -794.6 54.05 -799.5 60.3
Q -797.8 62 -793.4 64.6
L -783.15 69.85
Q -773.7 73.75 -766.65 73.75 -757.65 73.75 -750.85 69.55 -743 64.75 -743 55.6 -743 52.85 -744 49.1 -745.2 46.35 -747.45 44 -750.75 40.75 -755.9 40.1
L -754.55 40.1 -754.55 -28.8 -690 -28.8 -690 -8.75 -731.55 -8.75 -732.85 -8.35
Q -735.2 -6.5 -735.2 -3.95 -734.75 -2.25 -733.4 -0.05 -731 3.85 -728.8 6.35
L -723.45 11.9
Q -721.1 13.85 -720.25 13.85
L -718.55 13.85
Q -717.35 12.7 -717.2 12.4 -717.05 12.2 -717.05 11.5
L -717.05 -2.95 -690 -2.95 -690 40.1 -682.3 40.1 -682.3 -28.8 -670.4 -28.8 -670.4 -34.75 -684.8 -34.75 -714.55 -71.25 -719.6 -65.75 -689.6 -34.75 -831.05 -34.75
M -127.3 -28.8
Q -124.9 -28.8 -122.3 -27.8 -118.2 -25.9 -117.35 -21.9 -116.75 -20.35 -116.75 -17.55 -116.75 -14.5 -118.4 -11.75 -122 -6.2 -128.65 -4.45 -129.35 -4.3 -131.4 -3.85 -133.1 -3.85 -134.9 -3.85
L -132.4 1.5 -130.85 1.5
Q -129.5 0.65 -127.75 0.65
L -125.25 0.65
Q -121.1 0.65 -116.85 2.95 -112.65 5.1 -111.6 9.1 -110.75 10.65 -110.6 11.7 -110.45 12.7 -110.45 15.05 -110.45 17.3 -111.45 19.9 -115.15 28.05 -121.8 28.05 -131.5 28.05 -140.35 14.8
L -143.95 9.45 -148.5 1.5 -154.45 5.4
Q -154.45 9.3 -145 20.35 -139.4 27.05 -133.75 30.4 -130.55 32.25 -127.95 33 -125.25 33.75 -122.2 33.75
L -118.2 33.75
Q -103.25 30.85 -103.25 15.4
L -103.25 12.15 -104.1 8.8 -105.15 6.25 -103.55 7.05 -99 8.3 -93.35 8.3 -89 7.2 -89 40.1 -81.65 40.1 -81.65 -28.8 -71.25 -28.8 -71.25 -34.75 -103.05 -34.75 -103.05 -28.8 -89 -28.8 -89 0.75 -90.95 1.5 -95.95 2.8 -102.7 2.8 -107.55 0.9 -116.15 -3.6 -117.5 -3.85 -118.2 -3.75
Q -109.95 -8.4 -109.95 -17.55 -109.95 -24.55 -114.45 -29.35 -119.8 -34.75 -126.75 -34.75 -135.9 -34.75 -143.05 -28.85
L -147.8 -24.9
Q -148.85 -23.9 -149.05 -23.6 -149.25 -23.35 -149.4 -22.85
L -143.75 -18.3 -140.85 -21.45 -135.45 -25.95
Q -131 -28.8 -127.3 -28.8
M -393.7 -34.75
L -393.7 -28.8 -359.5 -28.8 -359.5 -3.5 -360.5 -1.45
Q -361.15 -0.45 -362.4 -0.05
L -365.7 0.4
Q -371.7 0.4 -374.3 -4.7
L -378.55 -12.85 -384.85 -8.8 -375.6 7.05 -357.9 32.75
Q -353.55 39.25 -350.95 40.1
L -345.1 35.15 -348.1 32.1 -358.9 19.05 -367.85 5.5
Q -366.75 6.05 -365.8 6.05
L -364.2 6.2 -362.8 5.95
Q -362.3 5.5 -361 5.5
L -357.9 4.65
Q -353.95 2.85 -353 -0.1
L -352.15 -3.3 -352.15 -28.8 -324.9 -28.8 -324.9 -3.5 -350.4 -3.5 -345.3 2.45 -324.9 2.45 -324.9 40.1 -317.2 40.1 -317.2 -28.8 -260.4 -28.8 -260.4 -16.2 -291 -16.2 -293.6 -15.75 -295.7 -14.65 -297.35 -12.65 -297.8 -10.1 -296.3 -4.7
Q -295.45 -2.05 -292.7 1.6
L -287.7 7.3 -291.2 10.8
Q -292.8 12.35 -293.95 14.25 -296.3 18 -296.3 21.55 -296.3 34.85 -277.6 41.3
L -272.15 43.15
Q -265.35 45.5 -260.9 45.5 -258.9 45.2 -258.35 44.9
L -255.6 39.7
Q -255.7 39.7 -256 39.7 -256.3 39.7 -257 39.7
L -260.3 39.7 -272.5 36.65
Q -280.3 34.45 -284.4 30.6 -288.3 26.7 -288.3 22.45 -288.3 19.3 -287 16.6 -283.35 8.15 -269.9 8.15
L -264 8.75
Q -255.6 9.8 -255.6 17.3 -256 20.9 -258.05 23.1
L -258.5 23.55 -259.05 23.8 -259.7 24.25 -260.4 24.6 -255 28.9 -250.9 25.85
Q -249.2 24.1 -248.5 22.2 -247.85 20.2 -247.85 17.3 -247.85 13.95 -249.35 10.8 -252.25 5.55 -260.4 3.35 -263.1 2.8 -265.05 2.65 -267.05 2.5 -269.4 2.5
L -272.7 2.5 -281.55 4.25 -282.55 3.7 -286.6 -1.4 -287.15 -2.5
Q -288.8 -4.15 -289.05 -5.55
L -289.65 -8.05 -289.05 -9.4
Q -288.5 -10.1 -287.15 -10.1
L -252.65 -10.1 -252.65 -28.8 -228.35 -28.8 -228.35 40.1 -220.8 40.1 -220.8 -28.8 -208.6 -28.8 -208.6 -34.6 -222.4 -34.6 -227.6 -43.75 -231.85 -50.25
Q -236.45 -57.3 -243.3 -62 -248.9 -65.9 -254 -65.9 -265.9 -65.9 -270.15 -53.55 -271.1 -50.65 -271.25 -49.7 -271.4 -48.6 -271.4 -46.5
L -271.4 -43.15 -270.35 -40 -268.85 -37.05 -267.1 -34.75 -393.7 -34.75
M -263.55 -50.5
Q -262.4 -54.55 -261.05 -56.6 -258.45 -60.2 -253.75 -60.2 -248.55 -60.2 -241.6 -52.1 -229.9 -38.7 -229.9 -35.15
L -230.05 -34.6 -238.15 -34.6 -238.15 -34.75 -258.6 -34.75 -259.5 -36 -261.35 -39.7
Q -261.85 -40.55 -262.2 -41.6 -262.55 -42.75 -263.05 -44.3 -263.55 -45.9 -263.55 -47.75
L -263.55 -50.5
M -609.5 -24.9
Q -610.55 -23.9 -610.75 -23.6 -610.95 -23.35 -611.1 -22.85
L -605.45 -18.3 -600.2 -23.6 -597.15 -25.95
Q -592.7 -28.8 -589 -28.8 -586.6 -28.8 -584 -27.8 -579.9 -25.9 -579.05 -21.9 -578.45 -20.35 -578.45 -17.55 -578.45 -14.5 -580.1 -11.75 -583.7 -6.2 -590.35 -4.45 -591.05 -4.3 -593.1 -3.85 -594.8 -3.85 -596.6 -3.85
L -594.1 1.5 -592.55 1.5
Q -591.2 0.65 -589.45 0.65
L -586.95 0.65
Q -582.8 0.65 -578.55 2.95 -574.35 5.1 -573.3 9.1 -572.45 10.65 -572.3 11.7 -572.15 12.7 -572.15 15.05 -572.15 17.3 -573.15 19.9 -576.85 28.05 -583.5 28.05 -593.2 28.05 -602.05 14.8
L -605.65 9.45 -610.2 1.5 -616.15 5.4
Q -616.15 9.3 -606.7 20.35 -601.1 27.05 -595.45 30.4 -592.25 32.25 -589.65 33 -586.95 33.75 -583.9 33.75
L -579.9 33.75
Q -564.95 30.85 -564.95 15.4
L -564.95 12.15 -565.8 8.8 -566.85 6.25 -565.25 7.05 -560.7 8.3 -555.05 8.3 -550.7 7.2 -550.7 40.1 -543.35 40.1 -543.35 -28.8 -520.4 -28.8 -520.4 40.1 -512.65 40.1 -512.65 -28.8 -464.1 -28.8 -464.1 -10.5
Q -464.95 -5.3 -467.2 -3.25 -469.5 -1.1 -474.2 -1.1 -480.15 -1.1 -482.5 -4.7
L -488.45 -14.85 -494.4 -10.5 -484.2 6.9 -479.75 13.55
Q -472.8 24.05 -465.65 32.25 -459.7 39.4 -457.5 40.1
L -452.2 35.15 -462.9 23.75 -467 18.65 -477.4 3.7
Q -476.85 4.15 -474.8 4.4
L -472.05 4.4
Q -469.15 4.4 -466.2 3.45 -456.4 -0.45 -456.4 -9.9
L -456.4 -28.8 -444.75 -28.8 -444.75 -34.75 -510.75 -34.75 -534 -71.25 -540.8 -67.5 -515.85 -34.75 -524.65 -34.75 -551.45 -59.8 -556.85 -53.85 -528.3 -34.75 -564.75 -34.75 -564.75 -28.8 -550.7 -28.8 -550.7 0.75 -552.65 1.5 -557.65 2.8 -564.4 2.8 -569.25 0.9 -577.85 -3.6 -579.2 -3.85 -579.9 -3.75
Q -571.65 -8.4 -571.65 -17.55 -571.65 -24.55 -576.15 -29.35 -581.5 -34.75 -588.45 -34.75 -597.6 -34.75 -604.75 -28.85
L -609.5 -24.9
M 379.5 -6.4
L 381.7 -8.35 384.6 -9.75 387.8 -10.65
Q 388.65 -10.65 391.1 -10.65
L 394.85 -10.1
Q 397.05 -9.55 397.65 -8.6
L 396.65 -15.25 395.45 -15.55 394.7 -15.85 391.1 -16.45 387.8 -16.45
Q 385.85 -16.45 384.05 -16.2 382.1 -15.9 380.05 -15 376.3 -13.3 373.4 -10.4 367.3 -4.3 367.3 4 367.3 8.45 368.75 12.4 370.5 16.05 374.05 19.15 377.6 22.25 381.15 23.55 384.75 24.75 389.05 24.75
L 393.25 24.75
Q 395.55 24.3 397.35 23.4
L 401.1 21.5
Q 403.15 20 404.4 18.2
L 404.4 8.05 403.55 10.1 379.5 -6.4
M 375.8 -1.55
L 376.45 -2.95 400.25 13.9 398.5 15.45 397.05 16.45
Q 395.7 17.5 395 17.85 394.3 18.2 393.1 18.5
L 391.55 19.05 389.2 19.05
Q 387 19.05 383.7 18.1 380.9 16.75 378.85 14.6 376.6 12.55 375.6 10 374.7 7.45 374.7 4
L 374.7 2.15 375.8 -1.55
M 273.1 -34.75
L 273.1 -28.95 289.75 -28.8
Q 285.7 -24.1 285.7 -19.45 285.7 -16.4 287.05 -13.55 288.45 -10.75 290.95 -8.55 295.55 -4 302.5 -4
L 307 -4.7
Q 309.75 -5.55 311.95 -7.2
L 315.85 -10.25 315.85 -6.05 315 -3.1 312.7 0.8 309.2 4.35 304.7 7.4
Q 300.7 9.5 296.45 9.95
L 291.85 10.1 290.95 9.8 286.15 5.9 281.1 10.95 315.85 40.4 320.95 35.3 296.8 15.3
Q 302.2 15.3 307.15 13.25 314.1 10.45 318.75 3.45 323.35 -3.5 323.35 -11.25
L 322.8 -16.05 321.55 -20.65 319.2 -24.9
Q 318.2 -27 316.15 -28.95
L 325.5 -28.95 325.5 -28.8 339.7 -28.8 339.7 40.1 347.45 40.1 347.45 -28.8 440.1 -28.8 440.1 -15.25 418.65 -15.25
Q 412.55 -15.25 408.3 -9.95 404.15 -4.7 404.15 2 404.15 9.8 407.25 15.05 410.35 20.2 417.6 23.65 424.75 27.05 436.2 27.05
L 437.2 27.05 438.35 26.8 446.35 43 455.9 43 448.8 32.75 445.2 24.75 448.4 22.55
Q 450.85 19.9 450.85 15.3
L 450.3 12.4
Q 448.8 8.95 446.35 8.05 445.15 7.3 443.7 7.3 439.45 7.3 437.55 10.1
L 436.2 13
Q 436.2 13.7 436.2 16.15
L 436.2 17.8
Q 436.2 18.35 436.2 19.9
L 436.2 20.7 436.8 21.55 429.2 21 423.95 19.8
Q 411.35 15.05 411.35 1.85
L 412.05 -2.1 414.4 -5.7
Q 418.15 -9.2 421.7 -9.2
L 448.4 -9.2 448.4 -28.8 464.2 -28.8 464.2 -34.75 273.1 -34.75
M 298.95 -28.2
Q 300.2 -28.95 302.85 -28.95 309.05 -28.95 312.55 -23.35 313.25 -22.4 313.75 -20.95
L 315 -17.9 312.25 -14.05
Q 308.1 -10.25 303.4 -10.25 299.1 -10.25 296.3 -12.95 293.55 -15.6 293.55 -19.95
L 294.15 -23.35
Q 295.75 -27.3 298.95 -28.2
M 113.9 -34.75
L 113.9 -28.8 134.35 -28.8 137.95 -24.2
Q 141.6 -18.05 141.6 -14.15 141.6 -7.95 137.95 -4.85 134 -1.8 129 -1.8
L 127.5 -1.8
Q 127.2 -1.8 126.2 -1.8
L 123.75 -2.65
Q 123.75 9.3 132.3 17.15 139.95 24.3 151.4 24.3 161.4 24.3 169.1 17.8
L 169.1 40.1 176.85 40.1 176.85 -28.8 199.8 -28.8 199.8 40.1 207.55 40.1 207.55 -28.8 221.6 -28.8 221.6 -34.75 113.9 -34.75
M 149.6 -13.55
L 148.9 -18.05 146.55 -23.7 143.65 -28.8 169.1 -28.8 169.1 7.3 165.95 11.85
Q 163.75 14.1 161.25 15.75 156.5 19.05 150.45 19.05 139.65 19.05 134.5 8.65
L 134 7.75 133.6 6.6 133 5.4 132.6 4 137.55 2.7 141.15 1.25
Q 149.6 -4 149.6 -13.55
M 39 -3.25
Q 36.7 -1.1 32 -1.1 26.05 -1.1 23.7 -4.7
L 17.75 -14.85 11.8 -10.5 22 6.9 26.45 13.55
Q 33.4 24.05 40.55 32.25 46.5 39.4 48.7 40.1
L 54 35.15 43.3 23.75 39.2 18.65 28.8 3.7
Q 29.35 4.15 31.4 4.4
L 34.15 4.4
Q 37.05 4.4 40 3.45 49.8 -0.45 49.8 -9.9
L 49.8 -28.8 61.45 -28.8 61.45 -34.75 -29 -34.75 -29 -28.8 -13.35 -28.8 -13.35 -9.15
Q -15.35 -7.75 -17.4 -7.1
L -21.65 -5.65
Q -23.2 -4.85 -26.1 -4.85
L -37 -4.85 -42.85 -5.7 -44.1 -6.35 -41.05 -8.4 -36.6 -12.8
Q -33.85 -16.6 -33.85 -20.6 -33.85 -27.5 -38.85 -31.15 -43.8 -34.75 -50.2 -34.75 -56.65 -34.75 -60.95 -31.25 -65.25 -27.75 -65.25 -21.65
L -64.7 -17.3
Q -63.7 -14.4 -62.85 -12.95
L -59.95 -8.4
Q -58.05 -6.55 -57.05 -6.05
L -63.55 -1.3
Q -66.9 2.1 -68.45 4.9 -70.1 7.75 -70.1 11.2 -70.1 14.8 -68.6 19.2 -64.7 26.65 -57.5 29.25 -54.7 30.1 -53.35 30.35 -52.1 30.55 -49.35 30.55
L -47.3 30.55 -43.6 29.75 -42.1 29.2 -41.55 30.95 -38.65 36.75 -35.3 39.7 -33.85 40.65 -27.9 36.35 -30.95 34.15 -35.1 30 -36.75 27.2 -34.25 26.5 -32.55 25 -31.5 23.2 -31.05 20.7 -31.65 17.8 -33.15 15.3
Q -34.55 13.85 -35.6 13.4
L -38.65 13 -41.55 13.55
Q -42.4 13.75 -43.45 14.9
L -44.75 17.3 -45.15 20.9 -45.15 23.3 -44.9 23.9 -53.5 23.45 -57.4 21.85
Q -60.05 20.3 -60.95 18.45 -62.35 15.65 -62.35 12.05 -62.35 6.25 -57 1.25
L -53.65 -1.25
Q -52.25 -2.25 -51.3 -2.25
L -44.4 -0.2 -37.45 1.25 -26.25 1.25 -21.8 0.5 -17.75 -0.7 -13.35 -2.65 -13.35 40.1 -5.6 40.1 -5.6 -28.8 42.1 -28.8 42.1 -10.5
Q 41.25 -5.3 39 -3.25
M -55.55 -26.75
L -52.95 -28.1
Q -51.8 -28.65 -49.85 -28.65
L -46.8 -28.1 -44.05 -26.6
Q -42.55 -25.3 -42.1 -24.2 -41.55 -23 -41.55 -21.45 -41.55 -15.5 -46.3 -12
L -48.35 -10.8
Q -49.2 -10.1 -51.1 -9.65
L -53.3 -11.25 -54.6 -12.7
Q -57.9 -16.45 -57.9 -21.45
L -57.35 -24.45
Q -56.75 -25.9 -55.55 -26.75
M 815.75 -50.95
L 825.75 -50.95 825.75 -60.35 815.75 -60.35 815.75 -50.95
M 655.25 -15.1
L 655.25 -9.2 679 -9.05
Q 676.9 -7.75 675.25 -6.15 668.05 1.1 668.05 8.8 668.05 12.4 669.4 15.55 670.8 18.65 673 20.55 677.75 24.75 684.95 24.75 688.8 24.75 693.1 22.95 698.9 20.7 701.8 18.35
L 707 14.1 709.3 11.2 709.3 40.1 717.05 40.1 717.05 -28.8 739.35 -28.8 739.35 40.1 747.1 40.1 747.1 -28.8 811.45 -28.8 811.45 -8.75 769.9 -8.75 768.6 -8.35
Q 766.25 -6.5 766.25 -3.95 766.7 -2.25 768.05 -0.05 770.45 3.85 772.65 6.35
L 778 11.9
Q 780.35 13.85 781.2 13.85
L 782.9 13.85
Q 784.1 12.7 784.25 12.4 784.4 12.2 784.4 11.5
L 784.4 -2.95 811.45 -2.95 811.45 40.1 819.15 40.1 819.15 -28.8 831.05 -28.8 831.05 -34.75 816.65 -34.75 786.9 -71.25 781.85 -65.75 811.85 -34.75 517.7 -34.75 517.7 -28.8 529.05 -28.8 529.05 -1.95
Q 529.05 1.5 530.45 5.9 536.55 18.2 549.15 18.2 555.1 18.2 560.2 14.75
L 564.65 11.2 564.65 40.1 572.35 40.1 572.35 -28.8 628.85 -28.8 628.85 -16.2 598.25 -16.2 595.65 -15.75 593.55 -14.65 591.9 -12.65 591.45 -10.1 592.95 -4.7
Q 593.8 -2.05 596.55 1.6
L 601.55 7.3 598.05 10.8
Q 596.45 12.35 595.3 14.25 592.95 18 592.95 21.55 592.95 34.85 611.65 41.3
L 617.1 43.15
Q 623.9 45.5 628.35 45.5 630.35 45.2 630.9 44.9
L 633.65 39.7
Q 633.55 39.7 633.25 39.7 632.95 39.7 632.25 39.7
L 628.95 39.7 616.75 36.65
Q 608.95 34.45 604.85 30.6 600.95 26.7 600.95 22.45 600.95 19.3 602.25 16.6 605.9 8.15 619.35 8.15
L 625.25 8.75
Q 633.65 9.8 633.65 17.3 633.25 20.9 631.2 23.1
L 630.75 23.55 630.2 23.8 629.55 24.25 628.85 24.6 634.25 28.9 638.35 25.85
Q 640.05 24.1 640.75 22.2 641.4 20.2 641.4 17.3 641.4 13.95 639.9 10.8 637 5.55 628.85 3.35 626.15 2.8 624.2 2.65 622.2 2.5 619.85 2.5
L 616.55 2.5 607.7 4.25 606.7 3.7 602.65 -1.4 602.1 -2.5
Q 600.45 -4.15 600.2 -5.55
L 599.6 -8.05 600.2 -9.4
Q 600.75 -10.1 602.1 -10.1
L 636.6 -10.1 636.6 -28.8 709.3 -28.8 709.3 1.65
Q 709.3 3.55 705.45 7.75
L 702.4 10.65
Q 693.65 18.8 685.3 18.8
L 681.3 18.2
Q 675.6 15.75 675.6 8.5 675.6 1.85 682.7 -3.95
L 689.8 -9.2 699.5 -9.2 699.5 -15.1 655.25 -15.1
M 536.4 -0.95
L 536.4 -28.8 564.65 -28.8 564.65 2.6 560.45 7.6 557.7 9.8
Q 553.15 12.55 548.85 12.55
L 544.55 11.85
Q 536.4 7.3 536.4 -0.95 Z"/>
</g>
</defs>

<g transform="matrix( 1, 0, 0, 1, 960,540) ">
<g transform="matrix( 1, 0, 0, 1, 0,0) ">
<use xlink:href="#Symbol_1_9_Layer1_0_FILL"/>
</g>
</g>
</svg>
