
<svg xmlns="http://www.w3.org/2000/svg" version="1.1" xmlns:xlink="http://www.w3.org/1999/xlink" preserveAspectRatio="none" x="0px" y="0px" width="505px" height="350px" viewBox="0 0 505 350">
<defs>
<g id="Duplicate_Items_Folder_Symbol_13_copy_3_Layer2_0_FILL">
<path fill="#666666" stroke="none" d="
M 28.1 -40.2
Q 19.15 -40.2 11.4 -35.1 3.8 -30.1 -4.85 -18.4 -12.35 -27.6 -22.6 -37.85 -26.25 -41.4 -32.7 -43.85 -39.15 -46.2 -46.05 -46.2 -63.45 -46.2 -74.3 -31.85 -83.25 -19.85 -83.25 -5.95 -83.25 18.4 -60.55 44.45 -41.8 66 -9.85 86.8
L -1.35 76.55
Q -37.7 55.9 -52.05 36.7 -62.85 21.9 -62.85 3 -62.85 -11.65 -53.2 -20.45 -45.45 -27.6 -35.5 -27.6 -29.2 -27.6 -21.55 -21.75 -13.95 -15.9 -9.7 -9.3 -11.15 -7.25 -13.35 -3.3 -15.4 0.5 -17.9 5.05
L -1.35 16.2
Q 10.8 -7.25 19 -15.3 27.35 -23.35 37.6 -23.35 45.4 -23.35 52.7 -18.4
L 51.8 72.6 72.2 84.3 72.2 -72.9 113.6 -72.9 113.6 72.6 133.65 84.3 133.65 -72.9 268.85 -72.9 268.55 -21.9
Q 261.35 -33.05 250.5 -39.65 238.2 -47.1 222.7 -47.1 197.05 -47.1 181.8 -33.6 169.2 -22.5 169.2 -8.4 169.2 10.2 185.9 26 202.6 41.65 226.65 41.65 253.75 41.65 268.85 25.25
L 268.85 72.6 288.9 84.3 288.9 -72.9 314.4 -72.9 304.55 -91.75 -314.85 -91.75 -304.75 -72.9 -200.75 -72.9 -200.75 -41.7 -248.8 -41.7
Q -262.7 -41.7 -272.65 -33.9 -284.55 -24.55 -284.55 -6.65 -284.55 9.9 -274.7 29.5 -265.05 49.15 -240.45 79.75
L -229.6 70.8
Q -249.65 46.8 -257.85 31.85 -265.95 16.75 -265.95 4.45 -265.95 -9.9 -258.6 -16.35 -251.3 -22.8 -235.6 -22.8
L -199.55 -22.8 -200.75 72.6 -180.1 84.3 -180.1 -72.9 -139 -72.9 -139 72.6 -118.95 84.3 -118.95 -72.9 51.8 -72.9 51.8 -29.65
Q 47.85 -33.35 41 -36.7 34.1 -40.2 28.1 -40.2
M 214.5 -28.8
Q 223.7 -31.55 226.65 -32 229.4 -32.45 235.15 -32.45 245.25 -32.45 252.7 -25.85 261.35 -18.1 261.35 -3.9 261.35 9.9 244.5 17.95
L 214.5 -28.8
M 193.85 -13.55
Q 198.65 -20.75 204.5 -23.8
L 234.55 23.05
Q 229.15 25.55 224.75 26.3 220.2 27 214.8 27 203.35 27 196.45 22.2 187.8 16.2 187.8 3.3 187.8 -4.75 193.85 -13.55 Z"/>
</g>

<g id="Duplicate_Items_Folder_Symbol_13_copy_3_Layer1_0_FILL">
<path fill="#FFFFFF" stroke="none" d="
M 28.1 -40.2
Q 19.15 -40.2 11.4 -35.1 3.8 -30.1 -4.85 -18.4 -12.35 -27.6 -22.6 -37.85 -26.25 -41.4 -32.7 -43.85 -39.15 -46.2 -46.05 -46.2 -63.45 -46.2 -74.3 -31.85 -83.25 -19.85 -83.25 -5.95 -83.25 18.4 -60.55 44.45 -41.8 66 -9.85 86.8
L -1.35 76.55
Q -37.7 55.9 -52.05 36.7 -62.85 21.9 -62.85 3 -62.85 -11.65 -53.2 -20.45 -45.45 -27.6 -35.5 -27.6 -29.2 -27.6 -21.55 -21.75 -13.95 -15.9 -9.7 -9.3 -11.15 -7.25 -13.35 -3.3 -15.4 0.5 -17.9 5.05
L -1.35 16.2
Q 10.8 -7.25 19 -15.3 27.35 -23.35 37.6 -23.35 45.4 -23.35 52.7 -18.4
L 51.8 72.6 72.2 84.3 72.2 -72.9 113.6 -72.9 113.6 72.6 133.65 84.3 133.65 -72.9 268.85 -72.9 268.55 -21.9
Q 261.35 -33.05 250.5 -39.65 238.2 -47.1 222.7 -47.1 197.05 -47.1 181.8 -33.6 169.2 -22.5 169.2 -8.4 169.2 10.2 185.9 26 202.6 41.65 226.65 41.65 253.75 41.65 268.85 25.25
L 268.85 72.6 288.9 84.3 288.9 -72.9 314.4 -72.9 304.55 -91.75 -314.85 -91.75 -304.75 -72.9 -200.75 -72.9 -200.75 -41.7 -248.8 -41.7
Q -262.7 -41.7 -272.65 -33.9 -284.55 -24.55 -284.55 -6.65 -284.55 9.9 -274.7 29.5 -265.05 49.15 -240.45 79.75
L -229.6 70.8
Q -249.65 46.8 -257.85 31.85 -265.95 16.75 -265.95 4.45 -265.95 -9.9 -258.6 -16.35 -251.3 -22.8 -235.6 -22.8
L -199.55 -22.8 -200.75 72.6 -180.1 84.3 -180.1 -72.9 -139 -72.9 -139 72.6 -118.95 84.3 -118.95 -72.9 51.8 -72.9 51.8 -29.65
Q 47.85 -33.35 41 -36.7 34.1 -40.2 28.1 -40.2
M 214.5 -28.8
Q 223.7 -31.55 226.65 -32 229.4 -32.45 235.15 -32.45 245.25 -32.45 252.7 -25.85 261.35 -18.1 261.35 -3.9 261.35 9.9 244.5 17.95
L 214.5 -28.8
M 193.85 -13.55
Q 198.65 -20.75 204.5 -23.8
L 234.55 23.05
Q 229.15 25.55 224.75 26.3 220.2 27 214.8 27 203.35 27 196.45 22.2 187.8 16.2 187.8 3.3 187.8 -4.75 193.85 -13.55 Z"/>
</g>
</defs>

<g transform="matrix( 1, 0, 0, 1, 252.5,171.95) ">
<g transform="matrix( 0.5904541015625, 0, 0, 0.5904541015625, -2.05,2.15) ">
<g transform="matrix( 1, 0, 0, 1, 7.35,0) ">
<use xlink:href="#Duplicate_Items_Folder_Symbol_13_copy_3_Layer2_0_FILL"/>
</g>

<g transform="matrix( 1, 0, 0, 1, 0,0) ">
<use xlink:href="#Duplicate_Items_Folder_Symbol_13_copy_3_Layer1_0_FILL"/>
</g>
</g>
</g>
</svg>
