
<svg xmlns="http://www.w3.org/2000/svg" version="1.1" xmlns:xlink="http://www.w3.org/1999/xlink" preserveAspectRatio="none" x="0px" y="0px" width="505px" height="350px" viewBox="0 0 505 350">
<defs>
<g id="Duplicate_Items_Folder_Symbol_13_copy_5_Layer2_0_FILL">
<path fill="#666666" stroke="none" d="
M 16.25 -72.9
L 15.95 -21.9
Q 8.75 -33.05 -2.1 -39.65 -14.4 -47.1 -29.9 -47.1 -55.55 -47.1 -70.8 -33.6 -83.4 -22.5 -83.4 -8.4 -83.4 10.2 -66.7 26 -50 41.65 -25.95 41.65 1.15 41.65 16.25 25.25
L 16.25 72.6 36.3 84.3 36.3 -72.9 207.2 -72.9 207.2 -29.65
Q 203.25 -33.35 196.4 -36.7 189.5 -40.2 183.5 -40.2 174.55 -40.2 166.8 -35.1 159.2 -30.1 150.55 -18.4 143.05 -27.6 132.8 -37.85 129.15 -41.4 122.7 -43.85 116.25 -46.2 109.35 -46.2 91.95 -46.2 81.1 -31.85 72.15 -19.85 72.15 -5.95 72.15 18.4 94.85 44.45 113.6 66 145.55 86.8
L 154.05 76.55
Q 117.7 55.9 103.35 36.7 92.55 21.9 92.55 3 92.55 -11.65 102.2 -20.45 109.95 -27.6 119.9 -27.6 126.2 -27.6 133.85 -21.75 141.45 -15.9 145.7 -9.3 144.25 -7.25 142.05 -3.3 140 0.5 137.5 5.05
L 154.05 16.2
Q 166.2 -7.25 174.4 -15.3 182.75 -23.35 193 -23.35 200.8 -23.35 208.1 -18.4
L 207.2 72.6 227.6 84.3 227.6 -72.9 269 -72.9 269 72.6 289.05 84.3 289.05 -72.9 314.55 -72.9 304.55 -91.75 -314.85 -91.75 -304.75 -72.9 -200.75 -72.9 -200.75 -41.7 -248.8 -41.7
Q -262.7 -41.7 -272.65 -33.9 -284.55 -24.55 -284.55 -6.65 -284.55 9.9 -274.7 29.5 -265.05 49.15 -240.45 79.75
L -229.6 70.8
Q -249.65 46.8 -257.85 31.85 -265.95 16.75 -265.95 4.45 -265.95 -9.9 -258.6 -16.35 -251.3 -22.8 -235.6 -22.8
L -199.55 -22.8 -200.75 72.6 -180.1 84.3 -180.1 -72.9 -139 -72.9 -139 72.6 -118.95 84.3 -118.95 -72.9 16.25 -72.9
M 0.1 -25.85
Q 8.75 -18.1 8.75 -3.9 8.75 9.9 -8.1 17.95
L -38.1 -28.8
Q -28.9 -31.55 -25.95 -32 -23.2 -32.45 -17.45 -32.45 -7.35 -32.45 0.1 -25.85
M -58.75 -13.55
Q -53.95 -20.75 -48.1 -23.8
L -18.05 23.05
Q -23.45 25.55 -27.85 26.3 -32.4 27 -37.8 27 -49.25 27 -56.15 22.2 -64.8 16.2 -64.8 3.3 -64.8 -4.75 -58.75 -13.55 Z"/>
</g>

<g id="Duplicate_Items_Folder_Symbol_13_copy_5_Layer1_0_FILL">
<path fill="#FFFFFF" stroke="none" d="
M 16.25 -72.9
L 15.95 -21.9
Q 8.75 -33.05 -2.1 -39.65 -14.4 -47.1 -29.9 -47.1 -55.55 -47.1 -70.8 -33.6 -83.4 -22.5 -83.4 -8.4 -83.4 10.2 -66.7 26 -50 41.65 -25.95 41.65 1.15 41.65 16.25 25.25
L 16.25 72.6 36.3 84.3 36.3 -72.9 207.2 -72.9 207.2 -29.65
Q 203.25 -33.35 196.4 -36.7 189.5 -40.2 183.5 -40.2 174.55 -40.2 166.8 -35.1 159.2 -30.1 150.55 -18.4 143.05 -27.6 132.8 -37.85 129.15 -41.4 122.7 -43.85 116.25 -46.2 109.35 -46.2 91.95 -46.2 81.1 -31.85 72.15 -19.85 72.15 -5.95 72.15 18.4 94.85 44.45 113.6 66 145.55 86.8
L 154.05 76.55
Q 117.7 55.9 103.35 36.7 92.55 21.9 92.55 3 92.55 -11.65 102.2 -20.45 109.95 -27.6 119.9 -27.6 126.2 -27.6 133.85 -21.75 141.45 -15.9 145.7 -9.3 144.25 -7.25 142.05 -3.3 140 0.5 137.5 5.05
L 154.05 16.2
Q 166.2 -7.25 174.4 -15.3 182.75 -23.35 193 -23.35 200.8 -23.35 208.1 -18.4
L 207.2 72.6 227.6 84.3 227.6 -72.9 269 -72.9 269 72.6 289.05 84.3 289.05 -72.9 314.55 -72.9 304.55 -91.75 -314.85 -91.75 -304.75 -72.9 -200.75 -72.9 -200.75 -41.7 -248.8 -41.7
Q -262.7 -41.7 -272.65 -33.9 -284.55 -24.55 -284.55 -6.65 -284.55 9.9 -274.7 29.5 -265.05 49.15 -240.45 79.75
L -229.6 70.8
Q -249.65 46.8 -257.85 31.85 -265.95 16.75 -265.95 4.45 -265.95 -9.9 -258.6 -16.35 -251.3 -22.8 -235.6 -22.8
L -199.55 -22.8 -200.75 72.6 -180.1 84.3 -180.1 -72.9 -139 -72.9 -139 72.6 -118.95 84.3 -118.95 -72.9 16.25 -72.9
M 0.1 -25.85
Q 8.75 -18.1 8.75 -3.9 8.75 9.9 -8.1 17.95
L -38.1 -28.8
Q -28.9 -31.55 -25.95 -32 -23.2 -32.45 -17.45 -32.45 -7.35 -32.45 0.1 -25.85
M -58.75 -13.55
Q -53.95 -20.75 -48.1 -23.8
L -18.05 23.05
Q -23.45 25.55 -27.85 26.3 -32.4 27 -37.8 27 -49.25 27 -56.15 22.2 -64.8 16.2 -64.8 3.3 -64.8 -4.75 -58.75 -13.55 Z"/>
</g>
</defs>

<g transform="matrix( 1, 0, 0, 1, 252.5,171.95) ">
<g transform="matrix( 0.5904541015625, 0, 0, 0.5904541015625, -2.05,2.15) ">
<g transform="matrix( 1, 0, 0, 1, 7.35,0) ">
<use xlink:href="#Duplicate_Items_Folder_Symbol_13_copy_5_Layer2_0_FILL"/>
</g>

<g transform="matrix( 1, 0, 0, 1, 0,0) ">
<use xlink:href="#Duplicate_Items_Folder_Symbol_13_copy_5_Layer1_0_FILL"/>
</g>
</g>
</g>
</svg>
