
<svg xmlns="http://www.w3.org/2000/svg" version="1.1" xmlns:xlink="http://www.w3.org/1999/xlink" preserveAspectRatio="none" x="0px" y="0px" width="505px" height="350px" viewBox="0 0 505 350">
<defs>
<g id="Duplicate_Items_Folder_Symbol_13_copy_4_Layer2_0_FILL">
<path fill="#666666" stroke="none" d="
M 26.3 -72.9
L 67.7 -72.9 67.7 72.6 87.75 84.3 87.75 -72.9 207.25 -72.9 207.25 -41.7 159.2 -41.7
Q 145.3 -41.7 135.35 -33.9 123.45 -24.55 123.45 -6.65 123.45 9.9 133.3 29.5 142.95 49.15 167.55 79.75
L 178.4 70.8
Q 158.35 46.8 150.15 31.85 142.05 16.75 142.05 4.45 142.05 -9.9 149.4 -16.35 156.7 -22.8 172.4 -22.8
L 208.45 -22.8 207.25 72.6 227.9 84.3 227.9 -72.9 269 -72.9 269 72.6 289.05 84.3 289.05 -72.9 314.55 -72.9 304.55 -91.75 -315.9 -91.75 -305.35 -72.9 -185.05 -72.9 -185.35 -21.9
Q -192.55 -33.05 -203.4 -39.65 -215.7 -47.1 -231.2 -47.1 -256.85 -47.1 -272.1 -33.6 -284.7 -22.5 -284.7 -8.4 -284.7 10.2 -268 26 -251.3 41.65 -227.25 41.65 -200.15 41.65 -185.05 25.25
L -185.05 72.6 -165 84.3 -165 -72.9 5.9 -72.9 5.9 -29.65
Q 1.95 -33.35 -4.9 -36.7 -11.8 -40.2 -17.8 -40.2 -26.75 -40.2 -34.5 -35.1 -42.1 -30.1 -50.75 -18.4 -58.25 -27.6 -68.5 -37.85 -72.15 -41.4 -78.6 -43.85 -85.05 -46.2 -91.95 -46.2 -109.35 -46.2 -120.2 -31.85 -129.15 -19.85 -129.15 -5.95 -129.15 18.4 -106.45 44.45 -87.7 66 -55.75 86.8
L -47.25 76.55
Q -83.6 55.9 -97.95 36.7 -108.75 21.9 -108.75 3 -108.75 -11.65 -99.1 -20.45 -91.35 -27.6 -81.4 -27.6 -75.1 -27.6 -67.45 -21.75 -59.85 -15.9 -55.6 -9.3 -57.05 -7.25 -59.25 -3.3 -61.3 0.5 -63.8 5.05
L -47.25 16.2
Q -35.1 -7.25 -26.9 -15.3 -18.55 -23.35 -8.3 -23.35 -0.5 -23.35 6.8 -18.4
L 5.9 72.6 26.3 84.3 26.3 -72.9
M -260.05 -13.55
Q -255.25 -20.75 -249.4 -23.8
L -219.35 23.05
Q -224.75 25.55 -229.15 26.3 -233.7 27 -239.1 27 -250.55 27 -257.45 22.2 -266.1 16.2 -266.1 3.3 -266.1 -4.75 -260.05 -13.55
M -239.4 -28.8
Q -230.2 -31.55 -227.25 -32 -224.5 -32.45 -218.75 -32.45 -208.65 -32.45 -201.2 -25.85 -192.55 -18.1 -192.55 -3.9 -192.55 9.9 -209.4 17.95
L -239.4 -28.8 Z"/>
</g>

<g id="Duplicate_Items_Folder_Symbol_13_copy_4_Layer1_0_FILL">
<path fill="#FFFFFF" stroke="none" d="
M 26.3 -72.9
L 67.7 -72.9 67.7 72.6 87.75 84.3 87.75 -72.9 207.25 -72.9 207.25 -41.7 159.2 -41.7
Q 145.3 -41.7 135.35 -33.9 123.45 -24.55 123.45 -6.65 123.45 9.9 133.3 29.5 142.95 49.15 167.55 79.75
L 178.4 70.8
Q 158.35 46.8 150.15 31.85 142.05 16.75 142.05 4.45 142.05 -9.9 149.4 -16.35 156.7 -22.8 172.4 -22.8
L 208.45 -22.8 207.25 72.6 227.9 84.3 227.9 -72.9 269 -72.9 269 72.6 289.05 84.3 289.05 -72.9 314.55 -72.9 304.55 -91.75 -315.9 -91.75 -305.35 -72.9 -185.05 -72.9 -185.35 -21.9
Q -192.55 -33.05 -203.4 -39.65 -215.7 -47.1 -231.2 -47.1 -256.85 -47.1 -272.1 -33.6 -284.7 -22.5 -284.7 -8.4 -284.7 10.2 -268 26 -251.3 41.65 -227.25 41.65 -200.15 41.65 -185.05 25.25
L -185.05 72.6 -165 84.3 -165 -72.9 5.9 -72.9 5.9 -29.65
Q 1.95 -33.35 -4.9 -36.7 -11.8 -40.2 -17.8 -40.2 -26.75 -40.2 -34.5 -35.1 -42.1 -30.1 -50.75 -18.4 -58.25 -27.6 -68.5 -37.85 -72.15 -41.4 -78.6 -43.85 -85.05 -46.2 -91.95 -46.2 -109.35 -46.2 -120.2 -31.85 -129.15 -19.85 -129.15 -5.95 -129.15 18.4 -106.45 44.45 -87.7 66 -55.75 86.8
L -47.25 76.55
Q -83.6 55.9 -97.95 36.7 -108.75 21.9 -108.75 3 -108.75 -11.65 -99.1 -20.45 -91.35 -27.6 -81.4 -27.6 -75.1 -27.6 -67.45 -21.75 -59.85 -15.9 -55.6 -9.3 -57.05 -7.25 -59.25 -3.3 -61.3 0.5 -63.8 5.05
L -47.25 16.2
Q -35.1 -7.25 -26.9 -15.3 -18.55 -23.35 -8.3 -23.35 -0.5 -23.35 6.8 -18.4
L 5.9 72.6 26.3 84.3 26.3 -72.9
M -260.05 -13.55
Q -255.25 -20.75 -249.4 -23.8
L -219.35 23.05
Q -224.75 25.55 -229.15 26.3 -233.7 27 -239.1 27 -250.55 27 -257.45 22.2 -266.1 16.2 -266.1 3.3 -266.1 -4.75 -260.05 -13.55
M -239.4 -28.8
Q -230.2 -31.55 -227.25 -32 -224.5 -32.45 -218.75 -32.45 -208.65 -32.45 -201.2 -25.85 -192.55 -18.1 -192.55 -3.9 -192.55 9.9 -209.4 17.95
L -239.4 -28.8 Z"/>
</g>
</defs>

<g transform="matrix( 1, 0, 0, 1, 252.55,171.95) ">
<g transform="matrix( 0.5904541015625, 0, 0, 0.5904541015625, -1.8,2.15) ">
<g transform="matrix( 1, 0, 0, 1, 7.35,0) ">
<use xlink:href="#Duplicate_Items_Folder_Symbol_13_copy_4_Layer2_0_FILL"/>
</g>

<g transform="matrix( 1, 0, 0, 1, 0,0) ">
<use xlink:href="#Duplicate_Items_Folder_Symbol_13_copy_4_Layer1_0_FILL"/>
</g>
</g>
</g>
</svg>
