
<svg xmlns="http://www.w3.org/2000/svg" version="1.1" xmlns:xlink="http://www.w3.org/1999/xlink" preserveAspectRatio="none" x="0px" y="0px" width="455px" height="457px" viewBox="0 0 455 457">
<defs>
<filter id="Filter_1" x="-20%" y="-20%" width="140%" height="140%" color-interpolation-filters="sRGB">
<feFlood flood-color="#000000" flood-opacity="1" in="SourceGraphic" result="result1"/>

<feComposite in2="SourceGraphic" in="result1" operator="in" result="result2"/>

<feGaussianBlur in="result2" stdDeviation="4.333333333333333,4.333333333333333" result="result3"/>

<feOffset dx="0" dy="0" in="result3" result="result4"/>

<feComposite in2="result4" in="SourceGraphic" operator="over" result="result5"/>
</filter>

<g id="Symbol_55_0_Layer0_0_MEMBER_0_FILL">
<path fill="#4F392B" stroke="none" d="
M 33.8 80.15
Q 33.5 80.1 30.55 79.2 27.95 78.35 27.9 78.5 27.4 80.75 25.65 83.05 24.7 84.3 23.2 85.9 21.05 88.4 21.55 91.25 22.05 93.85 24.75 95.85 29.25 99.1 36.4 98.35 39.1 98.15 42.15 97.15 45.3 96.1 46.3 94.15 44.85 93.75 42.65 94.1 40.2 94.55 39 94.65 36.6 94.9 33.8 94.6 30.25 94.2 28.3 93.05 27.65 92.65 27.15 91.85 26.6 91 26.65 90.3 26.75 89.3 28 88.35 29.4 87.45 29.65 87.15 31.1 85.85 32.2 84.4 34 82 33.8 80.15 Z"/>
</g>

<g id="Symbol_55_0_Layer0_0_MEMBER_1_FILL">
<path fill="#DEC6B0" stroke="none" d="
M 75.25 63.5
L 65.2 63.7 69.3 83.95
Q 69.35 84.35 69.9 85.25 70.5 86.15 70.5 86.3
L 70.9 91.15
Q 71 92.2 71.75 92.95 72.55 93.7 73.6 93.7
L 78.45 93.7 78.2 92.2
Q 77.95 90.55 76.3 89.95 75.45 89.7 75.25 88.25 74.1 80.5 75.25 63.5 Z"/>
</g>

<g id="Symbol_55_0_Layer0_0_MEMBER_2_FILL">
<path fill="#DEC6B0" stroke="none" d="
M 58.05 73.95
L 55.9 72.7 43.9 75.15 41.9 90.25 62.2 90.25
Q 62.75 90.25 63 89.75 63.25 89.25 62.9 88.85
L 62.35 88.1
Q 60.75 85.95 58.1 86.1
L 51.85 86.5
Q 51.45 86.55 51.35 86.15 51.2 85.75 51.55 85.55 54.65 83.5 57.15 79.75 59.65 75.95 58.05 73.95 Z"/>
</g>

<g id="Symbol_55_0_Layer0_0_MEMBER_3_FILL">
<path fill="#F8DDC5" stroke="none" d="
M 78 34.7
L 64.55 35 62.05 42.3
Q 61 42.7 59.6 43.45 56.9 44.95 55.5 46.85 52.9 50.6 49.4 53.6 38.85 62.65 35.6 65.7 25.5 75.1 28.45 85.25
L 30.35 87.9
Q 32.9 90.55 36.2 90.4
L 40.3 90.5
Q 45.5 82.4 46.65 80.8 47.35 79.85 52.65 77.45 57.7 75.2 59.2 75 64 74.3 69.45 70.4 70.65 69.5 74.55 66.05 77.55 63.55 78.4 59.3 79.35 54.6 77.05 50 77.95 47 78 34.7 Z"/>
</g>

<g id="Symbol_55_0_Layer0_0_MEMBER_4_FILL">
<path fill="#F8DDC5" stroke="none" d="
M 71 48.35
Q 68.95 46.45 66.1 46.25 63.3 46.1 61 47.75 58.7 49.4 57.95 52.2 57.2 54.95 58.4 57.55
L 60.4 63.7 62.15 83
Q 62.25 84.25 62.9 85.05 63.25 85.45 63.25 86.05
L 63.5 91.15
Q 63.55 92.2 64.3 92.95 65.1 93.7 66.15 93.7
L 71 93.7 70.75 92.2
Q 70.5 90.5 68.9 89.95 68.35 89.8 68.05 89.3 67.75 88.8 67.8 88.25
L 70.6 62.7 72.8 58.9
Q 76.2 53.1 71 48.35 Z"/>
</g>

<g id="Symbol_55_0_Layer0_0_MEMBER_5_MEMBER_0_FILL">
<path fill="#DEC6B0" stroke="none" d="
M 71.5 35.4
L 71.5 35.3 69.75 35.3 69.75 35.4 64.35 35.55 63.15 39.05
Q 66 42.25 70.2 42.9
L 71.05 42.9
Q 74.8 42.3 77.95 38.95
L 78 35.6 71.5 35.4 Z"/>
</g>

<g id="Symbol_55_0_Layer0_0_MEMBER_5_MEMBER_1_FILL">
<path fill="#4F392B" stroke="none" d="
M 79.1 23.6
Q 75.5 21.4 70.45 21.4 65.4 21.4 61.8 23.6 58.25 25.85 58.25 28.95 58.25 32.05 61.8 34.25 65.4 36.45 70.45 36.45 75.5 36.45 79.1 34.25 82.65 32.05 82.65 28.95 82.65 25.85 79.1 23.6 Z"/>
</g>

<g id="Symbol_55_0_Layer0_0_MEMBER_5_MEMBER_2_MEMBER_0_MEMBER_0_FILL">
<path fill="#A35331" stroke="none" d="
M 81.05 40.15
Q 82.8 42.45 84.65 41.5 85.6 41.05 85.65 39.15 85.55 37.25 85.55 36.9 85.6 35.75 86.7 33 87.8 30.3 87.8 29.25 87.85 27.95 84.95 25.3 83.85 24.3 79.75 21 78.8 20.2 77.6 20.05 76.45 19.9 75.3 20.4
L 74.05 20.9 77.85 23.7
Q 81.5 27.25 80.55 30.85 78.85 37.2 81.05 40.15 Z"/>
</g>

<g id="Symbol_55_0_Layer0_0_MEMBER_5_MEMBER_2_MEMBER_0_MEMBER_1_FILL">
<path fill="#824727" stroke="none" d="
M 84.15 41.65
Q 82.15 41.35 81.15 39.1 79.85 36.1 81.25 30.85 82.1 27.65 79.4 24.5 77.75 22.6 75.25 21.15
L 74.5 21.15
Q 77 22.6 78.65 24.5 81.4 27.65 80.55 30.85 79 36.75 80.8 39.7 82.1 42 84.15 41.65 Z"/>
</g>

<g id="Symbol_55_0_Layer0_0_MEMBER_5_MEMBER_2_MEMBER_1_MEMBER_0_FILL">
<path fill="#A35331" stroke="none" d="
M 63.05 23.7
Q 64.85 21.95 66.85 20.9
L 65.6 20.4
Q 64.45 19.9 63.3 20.05 62.1 20.2 61.15 21 57.05 24.3 55.95 25.3 53.05 27.95 53.1 29.25 53.15 30.3 54.2 33 55.3 35.75 55.35 36.9 55.35 37.25 55.2 39.15 55.3 41.05 56.25 41.5 58.1 42.45 59.85 40.15 62.05 37.2 60.35 30.85 59.4 27.25 63.05 23.7 Z"/>
</g>

<g id="Symbol_55_0_Layer0_0_MEMBER_5_MEMBER_2_MEMBER_1_MEMBER_1_FILL">
<path fill="#824727" stroke="none" d="
M 65.65 21.15
Q 63.2 22.6 61.55 24.5 58.8 27.65 59.65 30.85 61 36.15 59.7 39.1 58.7 41.35 56.7 41.65 58.75 42 60.1 39.7 61.9 36.75 60.35 30.85 59.5 27.65 62.25 24.5 63.85 22.65 66.35 21.15
L 65.65 21.15 Z"/>
</g>

<g id="Symbol_55_0_Layer0_0_MEMBER_5_MEMBER_3_FILL">
<path fill="#CE783E" stroke="none" d="
M 78.05 24.35
Q 76.9 21.35 73.95 20.45 72.7 20.05 71.05 20.55 70.45 20.8 69.85 20.55 68.2 20.05 66.95 20.45 64 21.35 62.85 24.35 62.25 25.9 62 28.15 61.9 28.5 61.25 30.25 60.7 31.6 60.6 32.6 60.5 34.7 62.55 37.6 65.25 41.45 70.05 42.25
L 70.85 42.25
Q 75.65 41.45 78.35 37.6 80.45 34.7 80.25 32.6 80.2 31.6 79.65 30.25 78.9 28.25 78.85 28.15 78.65 25.9 78.05 24.35 Z"/>
</g>

<g id="Symbol_55_0_Layer0_0_MEMBER_5_MEMBER_4_MEMBER_0_FILL">
<path fill="#F8DDC5" stroke="none" d="
M 77.1 36.15
Q 76.95 35.9 76.65 35.9
L 64.25 35.9
Q 63.95 35.9 63.8 36.15 63.65 36.4 63.8 36.65 66.3 41.65 66.45 42.35
L 66.9 44.2
Q 67.2 45.35 68.1 46.15 68.95 46.95 70.15 47.15 70.45 47.25 70.75 47.15 71.95 46.95 72.85 46.15 73.7 45.35 74 44.2
L 74.45 42.35
Q 74.6 41.65 77.1 36.65 77.25 36.4 77.1 36.15 Z"/>
</g>

<g id="Symbol_55_0_Layer0_0_MEMBER_5_MEMBER_5_MEMBER_0_FILL">
<path fill="#4F392B" stroke="none" d="
M 76.55 36.55
Q 76.4 36.35 76.15 36.35
L 64.7 36.35
Q 64.45 36.35 64.3 36.55 64.2 36.75 64.3 37 66.55 41.4 66.75 42.1
L 67.2 43.8
Q 67.7 45.85 70.15 46.2 70.4 46.3 70.75 46.2 73.2 45.85 73.7 43.8
L 74.15 42.1
Q 74.35 41.4 76.6 37 76.7 36.8 76.55 36.55 Z"/>
</g>

<g id="Symbol_55_0_Layer0_0_MEMBER_5_MEMBER_6_MEMBER_0_MEMBER_0_FILL">
<path fill="#824727" stroke="none" d="
M 77.45 28.35
Q 77.75 28 78.3 27.95 78.35 27.95 77.35 26.7 76.85 25.8 75.7 25.8 74.9 25.8 74.35 26.35 73.8 26.85 73.8 27.65
L 73.75 29.6 74.1 29.3
Q 74.4 29.1 74.75 29.25 75.15 29.5 75.7 29.5 76.6 29.5 77.15 28.8 77.25 28.75 77.45 28.35 Z"/>
</g>

<g id="Symbol_55_0_Layer0_0_MEMBER_5_MEMBER_6_MEMBER_0_MEMBER_1_FILL">
<path fill="#36271D" stroke="none" d="
M 76.75 28.7
Q 77.15 28.25 77.15 27.65 77.15 27.05 76.75 26.65 76.3 26.2 75.7 26.2 75.1 26.2 74.7 26.65 74.25 27.05 74.25 27.65 74.25 28.25 74.7 28.7 75.1 29.1 75.7 29.1 76.3 29.1 76.75 28.7 Z"/>
</g>

<g id="Symbol_55_0_Layer0_0_MEMBER_5_MEMBER_6_MEMBER_0_MEMBER_2_FILL">
<path fill="#FFE6C3" stroke="none" d="
M 75.7 28
Q 76 28 76 27.65 76 27.35 75.7 27.35 75.35 27.35 75.35 27.65 75.35 28 75.7 28 Z"/>
</g>

<g id="Symbol_55_0_Layer0_0_MEMBER_5_MEMBER_6_MEMBER_1_MEMBER_0_FILL">
<path fill="#824727" stroke="none" d="
M 67.05 27.65
Q 67.05 26.85 66.5 26.35 66 25.8 65.2 25.8 64.05 25.8 63.55 26.7
L 62.6 27.95
Q 63.1 28 63.4 28.35 63.6 28.55 63.75 28.8 64.3 29.5 65.2 29.5 65.8 29.5 66.15 29.25 66.5 29.1 66.8 29.3
L 67.15 29.6 67.05 27.65 Z"/>
</g>

<g id="Symbol_55_0_Layer0_0_MEMBER_5_MEMBER_6_MEMBER_1_MEMBER_1_FILL">
<path fill="#36271D" stroke="none" d="
M 63.75 27.65
Q 63.75 28.25 64.2 28.7 64.6 29.1 65.2 29.1 65.8 29.1 66.25 28.7 66.65 28.25 66.65 27.65 66.65 27.05 66.25 26.65 65.8 26.2 65.2 26.2 64.6 26.2 64.2 26.65 63.75 27.05 63.75 27.65 Z"/>
</g>

<g id="Symbol_55_0_Layer0_0_MEMBER_5_MEMBER_6_MEMBER_1_MEMBER_2_FILL">
<path fill="#FFE6C3" stroke="none" d="
M 64.85 27.65
Q 64.85 28 65.2 28 65.55 28 65.55 27.65 65.55 27.35 65.2 27.35 64.85 27.35 64.85 27.65 Z"/>
</g>

<g id="Symbol_55_0_Layer0_0_MEMBER_5_MEMBER_7_FILL">
<path fill="#F8DDC5" stroke="none" d="
M 68.5 30.45
L 72.4 30.45 72.4 30.4
Q 70.2 26.2 71.05 20.55 70.45 20.8 69.85 20.55 70.7 26.1 68.5 30.4
L 68.5 30.45 Z"/>
</g>

<g id="Symbol_55_0_Layer0_0_MEMBER_5_MEMBER_8_MEMBER_0_FILL">
<path fill="#F8DDC5" stroke="none" d="
M 74.2 24.45
Q 73.85 23.6 73.1 23.9 72.35 24.25 72.7 25.1 72.85 25.45 73.2 25.6 73.5 25.75 73.8 25.6 74.1 25.5 74.25 25.15 74.35 24.8 74.2 24.45 Z"/>
</g>

<g id="Symbol_55_0_Layer0_0_MEMBER_5_MEMBER_8_MEMBER_1_FILL">
<path fill="#F8DDC5" stroke="none" d="
M 67.8 23.9
Q 67.05 23.6 66.7 24.45 66.55 24.8 66.65 25.15 66.75 25.5 67.1 25.6 67.4 25.75 67.75 25.6 68.05 25.45 68.2 25.1 68.55 24.25 67.8 23.9 Z"/>
</g>

<g id="Symbol_55_0_Layer0_0_MEMBER_5_MEMBER_9_MEMBER_0_MEMBER_0_FILL">
<path fill="#F2A0A0" stroke="none" d="
M 72.95 37.35
L 67.95 37.35 67.75 43
Q 68 43.9 68.65 44.55 69.3 45.2 70.2 45.35 70.45 45.5 70.7 45.35 71.55 45.2 72.25 44.55 72.95 43.9 73.15 43 73.25 42.45 72.95 37.35 Z"/>
</g>

<g id="Symbol_55_0_Layer0_0_MEMBER_5_MEMBER_9_MEMBER_1_MEMBER_0_FILL">
<path fill="#D68080" stroke="none" d="
M 70.85 38.75
L 70.05 38.75 70.45 43 70.85 38.75 Z"/>
</g>

<g id="Symbol_55_0_Layer0_0_MEMBER_5_MEMBER_10_FILL">
<path fill="#F8DDC5" stroke="none" d="
M 75.1 33.6
Q 73.9 31.7 73.35 30.7 72.45 29.1 70.65 29
L 70.25 29
Q 68.45 29.1 67.55 30.7 66.35 32.7 65.8 33.6 64.8 35.2 64.75 36.05 64.7 36.65 65.4 38 66.1 39.45 66.75 39.6 67.5 39.7 69.85 39.1 70.45 38.95 71.05 39.1 73.3 39.75 74.15 39.6 74.8 39.45 75.55 38 76.2 36.65 76.15 36.05 76.1 35.25 75.1 33.6 Z"/>
</g>

<g id="Symbol_55_0_Layer0_0_MEMBER_5_MEMBER_11_FILL">
<path fill="#4F392B" stroke="none" d="
M 66.75 39.6
Q 67.5 39.7 69.85 39.1 70.45 38.95 71.05 39.1 73.3 39.75 74.15 39.6 74.7 39.5 75.35 38.3 75.9 37.25 76.1 36.4 75.8 37.3 75.3 38.1 74.75 39 74.25 39.1 73.4 39.2 71.05 38.6 70.45 38.4 69.8 38.6 67.5 39.25 66.65 39.1 66.15 39 65.6 38.1 65.1 37.3 64.8 36.4 65 37.3 65.55 38.3 66.2 39.5 66.75 39.6 Z"/>
</g>

<g id="Symbol_55_0_Layer0_0_MEMBER_5_MEMBER_12_FILL">
<path fill="#4F392B" stroke="none" d="
M 72.8 33.25
Q 72.3 32.7 71.6 32.6 71 32.55 70.45 32.8 69.8 32.55 69.3 32.6 68.6 32.7 68.1 33.25 67.5 33.9 67.6 34.95 67.75 35.8 68.95 36.85 69.6 37.4 70.45 37.4 71.3 37.4 71.95 36.85 73.15 35.8 73.3 34.95 73.4 33.9 72.8 33.25 Z"/>
</g>

<g id="Symbol_55_0_Layer0_0_MEMBER_5_MEMBER_13_MEMBER_0_FILL">
<path fill="#36271D" stroke="none" d="
M 72.2 35.9
Q 72.85 35.9 72.85 35.25 72.85 34.55 72.2 34.55 71.5 34.55 71.5 35.25 71.5 35.9 72.2 35.9 Z"/>
</g>

<g id="Symbol_55_0_Layer0_0_MEMBER_5_MEMBER_13_MEMBER_1_FILL">
<path fill="#36271D" stroke="none" d="
M 68.7 35.9
Q 69.4 35.9 69.4 35.25 69.4 34.55 68.7 34.55 68.05 34.55 68.05 35.25 68.05 35.9 68.7 35.9 Z"/>
</g>

<g id="Symbol_55_0_Layer0_0_MEMBER_5_MEMBER_14_FILL">
<path fill="#36271D" stroke="none" d="
M 70.7 34.65
Q 70.7 34.4 70.45 34.4 70.2 34.4 70.2 34.65
L 70.2 39 70.7 39 70.7 34.65 Z"/>
</g>

<g id="Symbol_55_0_Layer0_0_MEMBER_5_MEMBER_15_MEMBER_0_MEMBER_0_FILL">
<path fill="#B86B37" stroke="none" d="
M 77.75 35.4
L 77.9 35.3
Q 78.1 35.2 77.9 35 77.35 34.35 76.45 34.8 76.25 35 76.35 35.15 76.5 35.3 76.7 35.25
L 77 35.15
Q 77.35 35.1 77.55 35.3
L 77.75 35.4 Z"/>
</g>

<g id="Symbol_55_0_Layer0_0_MEMBER_5_MEMBER_15_MEMBER_1_MEMBER_0_FILL">
<path fill="#B86B37" stroke="none" d="
M 63 35.3
L 63.15 35.4 63.35 35.3
Q 63.65 34.95 64.2 35.25 64.35 35.35 64.55 35.15 64.65 35 64.45 34.8 63.6 34.35 63 35 62.8 35.2 63 35.3 Z"/>
</g>

<g id="Symbol_55_0_Layer0_0_MEMBER_6_FILL">
<path fill="#4F392B" stroke="none" d="
M 59.35 43.6
Q 56.85 45.05 55.5 46.85 52.9 50.6 49.4 53.6 38.85 62.65 35.6 65.7 25.5 75.1 28.45 85.25
L 30.35 87.9
Q 32.9 90.55 36.2 90.4
L 36.7 90.4 38.55 84.1
Q 40.15 78.5 43.4 74.8 46.55 71.2 53.3 67.25 60.1 63.35 62.4 60.7 66.7 55.65 63.4 51.1 61.3 48.3 60.55 47.1 59.2 44.85 59.35 43.6 Z"/>
</g>

<g id="Symbol_55_0_Layer0_0_MEMBER_7_FILL">
<path fill="#F8DDC5" stroke="none" d="
M 36.85 91.85
Q 37.25 92.6 38.1 92.65
L 56.35 93.5
Q 57.05 93.55 57.3 92.95 57.6 92.35 57.15 91.8
L 56.35 90.85
Q 55.15 89.5 53.3 89.5
L 46.15 89.05
Q 45.05 89.1 44.5 88.5 44 87.85 44.6 87
L 45.1 86.3 34.65 86.3 34.65 89.7
Q 35.55 90.05 36.9 90.35
L 36.9 90.4
Q 36.45 91.1 36.85 91.85 Z"/>
</g>

<g id="Symbol_55_0_Layer0_0_MEMBER_8_FILL">
<path fill="#CE783E" stroke="none" d="
M 36.6 90.3
L 39.85 89.75
Q 43.3 88.85 44.6 87 48.95 81 50 77.4 51.65 71.85 47 69.15 43.95 67.35 35.45 71.05 30.65 73.2 29.3 78.3 27.95 83.4 31.15 87.55
L 31.3 87.75
Q 33.4 89.5 36.6 90.3 Z"/>
</g>

<g id="Symbol_55_0_Layer0_0_MEMBER_9_MEMBER_0_FILL">
<path fill="#DEC6B0" stroke="none" d="
M 60.1 68.8
L 59.5 68.15 60.7 64.6
Q 60.8 64.5 60.6 64.4 60.4 64.3 60.4 64.5
L 59.1 68.1 59.15 68.3 59.85 69.05
Q 60.8 70.15 60.95 71.55
L 62.15 84 63.1 85.7 63.25 91.1
Q 63.3 92.2 64.05 92.95 64.85 93.7 65.95 93.7
L 70.85 93.7
Q 71 93.7 71 93.5 71 93.35 70.85 93.35
L 65.95 93.35
Q 65 93.35 64.3 92.7 63.65 92.05 63.6 91.1
L 63.45 85.55 62.5 83.95 61.3 71.5
Q 61.15 70 60.1 68.8 Z"/>
</g>

<g id="Symbol_55_0_Layer0_0_MEMBER_10_MEMBER_0_FILL">
<path fill="#DEC6B0" stroke="none" d="
M 72.85 57.7
Q 72.8 57.55 72.6 57.65 72.5 57.8 72.55 57.85 74.35 61.25 72.35 64.75 71.4 66.5 70 67.6
L 69.95 67.7 69.6 71.25
Q 69.5 71.45 69.75 71.45 69.9 71.45 69.95 71.3
L 70.3 67.85
Q 71.95 66.35 72.85 64.6 74.6 61.1 72.85 57.7 Z"/>
</g>

<g id="Symbol_55_0_Layer0_0_MEMBER_11_MEMBER_0_FILL">
<path fill="#DEC6B0" stroke="none" d="
M 67.6 91.3
Q 67.6 91.35 68.25 91.85 68.9 92.5 68.75 93 68.75 93.2 68.9 93.25
L 68.95 93.25
Q 69.1 93.25 69.1 93.1 69.25 92.4 68.55 91.65 67.85 91.05 67.8 91 67.65 90.9 67.55 91.1 67.45 91.2 67.6 91.3 Z"/>
</g>

<g id="Symbol_55_0_Layer0_0_MEMBER_12_MEMBER_0_FILL">
<path fill="#DEC6B0" stroke="none" d="
M 53.1 91.55
Q 53.15 91.6 53.7 91.95 54.2 92.45 54 93 53.9 93.2 54.1 93.2
L 54.15 93.25
Q 54.3 93.25 54.3 93.1 54.55 92.45 54.1 91.9 53.75 91.45 53.2 91.25 53.1 91.15 53 91.35 52.95 91.4 53 91.45 53.05 91.55 53.1 91.55 Z"/>
</g>

<g id="Symbol_55_0_Layer0_0_MEMBER_13_MEMBER_0_FILL">
<path fill="#DEC6B0" stroke="none" d="
M 55 91.45
Q 55.05 91.55 55.1 91.55 55.15 91.6 55.7 91.95 56.2 92.45 56 93 55.9 93.2 56.1 93.2
L 56.15 93.25
Q 56.3 93.25 56.3 93.1 56.55 92.45 56.1 91.9 55.75 91.45 55.2 91.25 55.1 91.15 55 91.35 54.95 91.4 55 91.45 Z"/>
</g>
</defs>

<g transform="matrix( 1, 0, 0, 1, 227.5,135.9) ">
<g transform="matrix( 0.871978759765625, 0, 0, 0.871978759765625, 14.75,82.35) ">
<g transform="matrix( 1.5068359375, 0, 0, 1.5068359375, -14.85,14.7) ">
<g filter="url(#Filter_1)" transform="matrix( 0.761077880859375, 0, 0, 0.761077880859375, -174.5,-175.85) ">
<g transform="matrix( 1.313934326171875, 0, 0, 1.313934326171875, 229.3,231.05) ">
<g transform="matrix( 3.5831146240234375, 0, 0, 3.5831146240234375, -195.75,-212.3) ">
<use xlink:href="#Symbol_55_0_Layer0_0_MEMBER_0_FILL"/>
</g>

<g transform="matrix( 3.5831146240234375, 0, 0, 3.5831146240234375, -195.75,-212.3) ">
<use xlink:href="#Symbol_55_0_Layer0_0_MEMBER_1_FILL"/>
</g>

<g transform="matrix( 3.5831146240234375, 0, 0, 3.5831146240234375, -195.75,-212.3) ">
<use xlink:href="#Symbol_55_0_Layer0_0_MEMBER_2_FILL"/>
</g>

<g transform="matrix( 3.5831146240234375, 0, 0, 3.5831146240234375, -195.75,-212.3) ">
<use xlink:href="#Symbol_55_0_Layer0_0_MEMBER_3_FILL"/>
</g>

<g transform="matrix( 3.5831146240234375, 0, 0, 3.5831146240234375, -195.75,-212.3) ">
<use xlink:href="#Symbol_55_0_Layer0_0_MEMBER_4_FILL"/>
</g>

<g transform="matrix( 3.5831146240234375, 0, 0, 3.5831146240234375, -195.75,-212.3) ">
<use xlink:href="#Symbol_55_0_Layer0_0_MEMBER_5_MEMBER_0_FILL"/>
</g>

<g transform="matrix( 3.5831146240234375, 0, 0, 3.5831146240234375, -195.75,-212.3) ">
<use xlink:href="#Symbol_55_0_Layer0_0_MEMBER_5_MEMBER_1_FILL"/>
</g>

<g transform="matrix( 3.5831146240234375, 0, 0, 3.5831146240234375, -195.75,-212.3) ">
<use xlink:href="#Symbol_55_0_Layer0_0_MEMBER_5_MEMBER_2_MEMBER_0_MEMBER_0_FILL"/>
</g>

<g transform="matrix( 3.5831146240234375, 0, 0, 3.5831146240234375, -195.75,-212.3) ">
<use xlink:href="#Symbol_55_0_Layer0_0_MEMBER_5_MEMBER_2_MEMBER_0_MEMBER_1_FILL"/>
</g>

<g transform="matrix( 3.5831146240234375, 0, 0, 3.5831146240234375, -195.75,-212.3) ">
<use xlink:href="#Symbol_55_0_Layer0_0_MEMBER_5_MEMBER_2_MEMBER_1_MEMBER_0_FILL"/>
</g>

<g transform="matrix( 3.5831146240234375, 0, 0, 3.5831146240234375, -195.75,-212.3) ">
<use xlink:href="#Symbol_55_0_Layer0_0_MEMBER_5_MEMBER_2_MEMBER_1_MEMBER_1_FILL"/>
</g>

<g transform="matrix( 3.5831146240234375, 0, 0, 3.5831146240234375, -195.75,-212.3) ">
<use xlink:href="#Symbol_55_0_Layer0_0_MEMBER_5_MEMBER_3_FILL"/>
</g>

<g transform="matrix( 3.5831146240234375, 0, 0, 3.5831146240234375, -195.75,-212.3) ">
<use xlink:href="#Symbol_55_0_Layer0_0_MEMBER_5_MEMBER_4_MEMBER_0_FILL"/>
</g>

<g transform="matrix( 3.5831146240234375, 0, 0, 3.5831146240234375, -195.75,-212.3) ">
<use xlink:href="#Symbol_55_0_Layer0_0_MEMBER_5_MEMBER_5_MEMBER_0_FILL"/>
</g>

<g transform="matrix( 3.5831146240234375, 0, 0, 3.5831146240234375, -195.75,-212.3) ">
<use xlink:href="#Symbol_55_0_Layer0_0_MEMBER_5_MEMBER_6_MEMBER_0_MEMBER_0_FILL"/>
</g>

<g transform="matrix( 3.5831146240234375, 0, 0, 3.5831146240234375, -195.75,-212.3) ">
<use xlink:href="#Symbol_55_0_Layer0_0_MEMBER_5_MEMBER_6_MEMBER_0_MEMBER_1_FILL"/>
</g>

<g transform="matrix( 3.5831146240234375, 0, 0, 3.5831146240234375, -195.75,-212.3) ">
<use xlink:href="#Symbol_55_0_Layer0_0_MEMBER_5_MEMBER_6_MEMBER_0_MEMBER_2_FILL"/>
</g>

<g transform="matrix( 3.5831146240234375, 0, 0, 3.5831146240234375, -195.75,-212.3) ">
<use xlink:href="#Symbol_55_0_Layer0_0_MEMBER_5_MEMBER_6_MEMBER_1_MEMBER_0_FILL"/>
</g>

<g transform="matrix( 3.5831146240234375, 0, 0, 3.5831146240234375, -195.75,-212.3) ">
<use xlink:href="#Symbol_55_0_Layer0_0_MEMBER_5_MEMBER_6_MEMBER_1_MEMBER_1_FILL"/>
</g>

<g transform="matrix( 3.5831146240234375, 0, 0, 3.5831146240234375, -195.75,-212.3) ">
<use xlink:href="#Symbol_55_0_Layer0_0_MEMBER_5_MEMBER_6_MEMBER_1_MEMBER_2_FILL"/>
</g>

<g transform="matrix( 3.5831146240234375, 0, 0, 3.5831146240234375, -195.75,-212.3) ">
<use xlink:href="#Symbol_55_0_Layer0_0_MEMBER_5_MEMBER_7_FILL"/>
</g>

<g transform="matrix( 3.5831146240234375, 0, 0, 3.5831146240234375, -195.75,-212.3) ">
<use xlink:href="#Symbol_55_0_Layer0_0_MEMBER_5_MEMBER_8_MEMBER_0_FILL"/>
</g>

<g transform="matrix( 3.5831146240234375, 0, 0, 3.5831146240234375, -195.75,-212.3) ">
<use xlink:href="#Symbol_55_0_Layer0_0_MEMBER_5_MEMBER_8_MEMBER_1_FILL"/>
</g>

<g transform="matrix( 3.5831146240234375, 0, 0, 3.5831146240234375, -195.75,-212.3) ">
<use xlink:href="#Symbol_55_0_Layer0_0_MEMBER_5_MEMBER_9_MEMBER_0_MEMBER_0_FILL"/>
</g>

<g transform="matrix( 3.5831146240234375, 0, 0, 3.5831146240234375, -195.75,-212.3) ">
<use xlink:href="#Symbol_55_0_Layer0_0_MEMBER_5_MEMBER_9_MEMBER_1_MEMBER_0_FILL"/>
</g>

<g transform="matrix( 3.5831146240234375, 0, 0, 3.5831146240234375, -195.75,-212.3) ">
<use xlink:href="#Symbol_55_0_Layer0_0_MEMBER_5_MEMBER_10_FILL"/>
</g>

<g transform="matrix( 3.5831146240234375, 0, 0, 3.5831146240234375, -195.75,-212.3) ">
<use xlink:href="#Symbol_55_0_Layer0_0_MEMBER_5_MEMBER_11_FILL"/>
</g>

<g transform="matrix( 3.5831146240234375, 0, 0, 3.5831146240234375, -195.75,-212.3) ">
<use xlink:href="#Symbol_55_0_Layer0_0_MEMBER_5_MEMBER_12_FILL"/>
</g>

<g transform="matrix( 3.5831146240234375, 0, 0, 3.5831146240234375, -195.75,-212.3) ">
<use xlink:href="#Symbol_55_0_Layer0_0_MEMBER_5_MEMBER_13_MEMBER_0_FILL"/>
</g>

<g transform="matrix( 3.5831146240234375, 0, 0, 3.5831146240234375, -195.75,-212.3) ">
<use xlink:href="#Symbol_55_0_Layer0_0_MEMBER_5_MEMBER_13_MEMBER_1_FILL"/>
</g>

<g transform="matrix( 3.5831146240234375, 0, 0, 3.5831146240234375, -195.75,-212.3) ">
<use xlink:href="#Symbol_55_0_Layer0_0_MEMBER_5_MEMBER_14_FILL"/>
</g>

<g transform="matrix( 3.5831146240234375, 0, 0, 3.5831146240234375, -195.75,-212.3) ">
<use xlink:href="#Symbol_55_0_Layer0_0_MEMBER_5_MEMBER_15_MEMBER_0_MEMBER_0_FILL"/>
</g>

<g transform="matrix( 3.5831146240234375, 0, 0, 3.5831146240234375, -195.75,-212.3) ">
<use xlink:href="#Symbol_55_0_Layer0_0_MEMBER_5_MEMBER_15_MEMBER_1_MEMBER_0_FILL"/>
</g>

<g transform="matrix( 3.5831146240234375, 0, 0, 3.5831146240234375, -195.75,-212.3) ">
<use xlink:href="#Symbol_55_0_Layer0_0_MEMBER_6_FILL"/>
</g>

<g transform="matrix( 3.5831146240234375, 0, 0, 3.5831146240234375, -195.75,-212.3) ">
<use xlink:href="#Symbol_55_0_Layer0_0_MEMBER_7_FILL"/>
</g>

<g transform="matrix( 3.5831146240234375, 0, 0, 3.5831146240234375, -195.75,-212.3) ">
<use xlink:href="#Symbol_55_0_Layer0_0_MEMBER_8_FILL"/>
</g>

<g transform="matrix( 3.5831146240234375, 0, 0, 3.5831146240234375, -195.75,-212.3) ">
<use xlink:href="#Symbol_55_0_Layer0_0_MEMBER_9_MEMBER_0_FILL"/>
</g>

<g transform="matrix( 3.5831146240234375, 0, 0, 3.5831146240234375, -195.75,-212.3) ">
<use xlink:href="#Symbol_55_0_Layer0_0_MEMBER_10_MEMBER_0_FILL"/>
</g>

<g transform="matrix( 3.5831146240234375, 0, 0, 3.5831146240234375, -195.75,-212.3) ">
<use xlink:href="#Symbol_55_0_Layer0_0_MEMBER_11_MEMBER_0_FILL"/>
</g>

<g transform="matrix( 3.5831146240234375, 0, 0, 3.5831146240234375, -195.75,-212.3) ">
<use xlink:href="#Symbol_55_0_Layer0_0_MEMBER_12_MEMBER_0_FILL"/>
</g>

<g transform="matrix( 3.5831146240234375, 0, 0, 3.5831146240234375, -195.75,-212.3) ">
<use xlink:href="#Symbol_55_0_Layer0_0_MEMBER_13_MEMBER_0_FILL"/>
</g>
</g>
</g>
</g>
</g>
</g>
</svg>
