
<svg xmlns="http://www.w3.org/2000/svg" version="1.1" xmlns:xlink="http://www.w3.org/1999/xlink" preserveAspectRatio="none" x="0px" y="0px" width="455px" height="457px" viewBox="0 0 455 457">
<defs>
<filter id="Filter_1" x="-20%" y="-20%" width="140%" height="140%" color-interpolation-filters="sRGB">
<feFlood flood-color="#000000" flood-opacity="1" in="SourceGraphic" result="result1"/>

<feComposite in2="SourceGraphic" in="result1" operator="in" result="result2"/>

<feGaussianBlur in="result2" stdDeviation="4.333333333333333,4.333333333333333" result="result3"/>

<feOffset dx="0" dy="0" in="result3" result="result4"/>

<feComposite in2="result4" in="SourceGraphic" operator="over" result="result5"/>
</filter>

<g id="Symbol_54_0_Layer0_0_MEMBER_0_MEMBER_0_FILL">
<path fill="#6D503D" stroke="none" d="
M 909.7 531.35
Q 905.75 524.75 905.2 522.2
L 903.45 531
Q 901.75 542.05 902.15 553.5 903.5 590.1 925.3 616.6 938.55 632.7 950.7 645.9 958.2 655.05 968 675.9 967.95 663.05 965.55 646.95 960.75 614.75 949.1 598.55 932.65 575.6 921.45 554.2
L 913.55 537.4
Q 911.7 534.65 909.7 531.35 Z"/>
</g>

<g id="Symbol_54_0_Layer0_0_MEMBER_0_MEMBER_1_FILL">
<path fill="#827B75" stroke="none" d="
M 876.25 324.55
Q 875.9 324.95 876.05 336.25 876.1 341.95 876.25 347.5
L 883.1 361.7
Q 890.4 377.5 892.8 385.65 898 403.05 900.7 473.55 902.1 508.85 902.4 540.6 908.15 541.4 911.45 539.45 913.05 538.5 913.55 537.4 912.9 532.15 912.35 522.7 911.2 503.9 911.6 483.2 912.6 432.35 909 403.85 901.6 345.75 876.25 324.55 Z"/>
</g>

<g id="Symbol_54_0_Layer0_0_MEMBER_1_FILL">
<path fill="#9B938C" stroke="none" d="
M 299.25 605.55
Q 302.7 622.55 302.65 626.6 302.65 635.65 302.2 652.65 302.15 666.45 303.65 672.7 304.65 676.95 307.75 685.2 310.15 691.7 310.5 695.7 311.2 704.25 310 725 308.5 750.4 304.95 761.3 299.8 777.05 292.5 786.9 288.85 791.85 286.2 793.6
L 330.05 809
Q 329.95 800.7 329.95 791.9 329.95 784.85 334.05 780.55 338.7 777.15 339.7 776.1 340.95 774.85 339.25 767.95 336.85 759.5 336.05 755.7 334.95 750.65 335.25 731.25 335.5 714.9 336.35 702.1 337.3 687.15 342.65 670.95 348.65 655.25 350.35 650.45 354 640.2 355.25 628.35 356.7 614.55 358.85 606.65 360.55 600.8 365.65 585.75
L 295.8 589.4 299.25 605.55 Z"/>
</g>

<g id="Symbol_54_0_Layer0_0_MEMBER_2_FILL">
<path fill="#7F7671" stroke="none" d="
M 299.25 605.55
Q 302.7 622.55 302.65 626.6 302.65 635.65 302.2 652.65 302.15 666.45 303.65 672.7 304.65 676.95 307.75 685.2 310.15 691.7 310.5 695.7 310.75 699.15 310.45 717.6 313.75 718.7 316 727.45 318.35 736.3 318.45 748.65 318.75 779.6 306.5 800.75
L 330.05 809
Q 329.95 800.7 329.95 791.9 329.95 784.85 334.05 780.55 338.7 777.15 339.7 776.1 340.95 774.85 339.25 767.95 336.85 759.5 336.05 755.7 334.95 750.65 335.25 731.25 335.5 714.9 336.35 702.1 337.3 687.15 342.65 670.95 348.65 655.25 350.35 650.45 354 640.2 355.25 628.35 356.7 614.55 358.85 606.65 360.55 600.8 365.65 585.75
L 295.8 589.4 299.25 605.55 Z"/>
</g>

<g id="Symbol_54_0_Layer0_0_MEMBER_3_FILL">
<path fill="#8C847E" stroke="none" d="
M 305.2 628.1
L 302.65 626.6
Q 302.65 635.65 302.2 652.65 302.15 666.45 303.65 672.7 304.65 676.95 307.75 685.2 310.15 691.7 310.5 695.7 310.75 699.15 310.45 717.6 313.75 718.7 316 727.45 318.35 736.3 318.45 748.65 318.75 779.6 306.5 800.75
L 318.05 801.05
Q 320.25 797.8 322.55 790.15 327.2 774.85 328 752.95 328.95 727 322.4 688.55 316.95 656.75 316.7 655.65 313.8 641.1 310.05 634.05 308.1 630.35 305.2 628.1 Z"/>
</g>

<g id="Symbol_54_0_Layer0_0_MEMBER_4_FILL">
<path fill="#563D32" stroke="none" d="
M 290.4 820.1
Q 306 820 311.4 819.2 326.95 816.95 328.9 809 323.3 803.9 315.15 799.4 298.9 790.4 286.2 793.6 279.6 798.45 274.35 806.6 269.6 813.85 270.15 816.2 270.65 818.1 276.15 819.15 281.45 820.15 290.4 820.1 Z"/>
</g>

<g id="Symbol_54_0_Layer0_0_MEMBER_5_FILL">
<path fill="#604638" stroke="none" d="
M 292.9 811.95
Q 305.3 804.75 308.85 796.35 296.6 791.05 286.2 793.6 279.8 798.3 274.55 806.25 269.95 813.3 270.15 815.95 279.4 819.8 292.9 811.95 Z"/>
</g>

<g id="Symbol_54_0_Layer0_0_MEMBER_6_FILL">
<path fill="#9B938C" stroke="none" d="
M 718 544.9
Q 721.45 550.95 723.6 556.05 728.2 566.75 737.4 587.15 746.8 608 749.25 612.85 751.2 616.65 752.8 626.35 754.9 639.15 755.65 642.05 756.75 646.3 760.6 655.05 763.85 662.35 764.15 666.05 765 675.15 764.85 701.65 764.7 733.6 762.2 743.6 760.25 751.25 754.85 759.7 752.15 763.95 749.85 766.65
L 782.4 777.4 783.35 766.65
Q 783.7 762.5 788.4 757.35 790.9 754.65 794.6 751.55 795.75 750.45 794.4 745.5 792.35 738.1 792.05 735.4 791.85 733.2 792.35 715 792.9 695 792.75 688.3 792.5 678 794.4 651.45 796.3 624.05 797.95 617.3 799.7 610 797.6 603.2 796.55 599.95 792.45 592.45 789.5 587.15 785.45 573.85 781.1 559.7 779.7 549.85 779 544.9 778.45 531.65
L 709.4 531.65
Q 714.05 537.95 718 544.9 Z"/>
</g>

<g id="Symbol_54_0_Layer0_0_MEMBER_7_FILL">
<path fill="#8C847E" stroke="none" d="
M 718 544.9
Q 721.45 550.95 723.6 556.05 728.2 566.75 737.4 587.15 746.8 608 749.25 612.85 751.2 616.65 752.8 626.35 754.9 639.15 755.65 642.05 756.75 646.3 760.6 655.05 763.85 662.35 764.15 666.05 764.55 670.1 764.8 685.6
L 766.6 686.5
Q 768.45 687.65 769 688.7 778 706.4 777.1 731.45 776.2 755.35 767.15 772.35
L 782.4 777.4 783.35 766.65
Q 783.7 762.5 788.4 757.35 790.9 754.65 794.6 751.55 795.75 750.45 794.4 745.5 792.35 738.1 792.05 735.4 791.85 733.2 792.35 715 792.9 695 792.75 688.3 792.5 678 794.4 651.45 796.3 624.05 797.95 617.3 799.7 610 797.6 603.2 796.55 599.95 792.45 592.45 789.5 587.15 785.45 573.85 781.1 559.7 779.7 549.85 779 544.9 778.45 531.65
L 709.4 531.65
Q 714.05 537.95 718 544.9 Z"/>
</g>

<g id="Symbol_54_0_Layer0_0_MEMBER_8_FILL">
<path fill="#7F7671" stroke="none" d="
M 711.1 534.05
Q 719 545.3 723.6 556.05 728.2 566.75 737.4 587.15 746.8 608 749.25 612.85 751.2 616.65 752.8 626.35 754.9 639.15 755.65 642.05 756.4 645 757.75 648.4
L 757.95 648.45
Q 781.85 657.35 792.75 688.7
L 792.75 688.3
Q 792.5 678 794.4 651.45 796.3 624.05 797.95 617.3 799.7 610 797.6 603.2 796.55 599.95 792.45 592.45 789.5 587.15 785.45 573.85 781.1 559.7 779.7 549.85 779.15 546.35 778.55 534.05
L 711.1 534.05 Z"/>
</g>

<g id="Symbol_54_0_Layer0_0_MEMBER_9_FILL">
<path fill="#604638" stroke="none" d="
M 745.45 789.45
Q 755.25 790.35 762.2 789.6 771.55 788.6 774.7 787.25 780.7 784.65 782.4 777.4 777.75 774.6 771.4 771.85 758.6 766.35 749.85 766.65 743.55 772.05 738.5 778 733.05 784.35 733.6 786.1 734.3 788.5 745.45 789.45 Z"/>
</g>

<g id="Symbol_54_0_Layer0_0_MEMBER_10_FILL">
<path fill="#563D32" stroke="none" d="
M 745.45 789.45
Q 755.25 790.35 762.2 789.6 771.55 788.6 774.7 787.25 780.7 784.65 782.4 777.4 776.2 773.6 768.1 770.5 763.3 782.05 752 785.75 742.55 788.85 733.6 785.65 733.55 785.9 733.6 786.1 734.3 788.5 745.45 789.45 Z"/>
</g>

<g id="Symbol_54_0_Layer0_0_MEMBER_11_FILL">
<path fill="#E5DDD1" stroke="none" d="
M 725.3 265
Q 717.25 265.3 700.1 268.6 695.7 269.45 666 275.65 617.9 285.7 597.05 285.95 576.8 286.2 526.9 278.4 475.55 270.4 461.45 270.2 450.65 270.05 436.55 267.7 413.45 263.5 391.8 259.7 365.2 255 320.4 253.5 276.25 252.7 265.75 252.05 258.85 251.65 250.9 249.6
L 250.9 377.95 884.8 377.95
Q 888.4 350.45 887.7 340.35 887.1 331.3 874.1 322.1 869.9 319.1 862.5 314.85 853.5 309.65 851.45 308.35 825.05 283.95 782.75 272.5 751.45 264.05 725.3 265 Z"/>
</g>

<g id="Symbol_54_0_Layer0_0_MEMBER_12_FILL">
<path fill="#9B938C" stroke="none" d="
M 718.6 299.8
Q 699.3 309.15 688.2 314.45 644 335.6 614.9 340.75 558.35 350.7 495.45 347.95 464.75 346.6 408.7 339.45 325.15 328.85 250.2 299.1 226.8 289.85 207 279.75
L 191.95 271.5 166.55 402.25 170.3 409.25
Q 178.95 425.45 185.85 442.1 195.8 466.3 197.05 480.7 197.3 483.65 197.7 500.2 198.05 514.25 199.4 524.15 203.75 555.05 221.85 576.15 241.35 598.85 259.7 606.1 267.65 609.2 277.85 610.65 284 611.5 298.25 612.4 308.1 613.05 326.8 608.4 338 605.65 363 597.95 387.85 590.25 399.05 587.55 417.55 583 427.1 583.8 441.5 585 493.5 596.85 547.25 609.1 564.55 611 586.4 613.4 611.7 604.15 619.4 601.3 630.9 596.05 643.05 590.45 646.65 589.05 656.8 585.15 689.2 562.8 722.45 539.9 728.75 537.15 737.2 533.5 747.8 536.75 757.45 539.7 765.25 547.1 781.65 541.2 810.9 532.05 843.25 521.85 856.65 517.25 859 506.95 867.15 467.5 874.6 431.55 877.2 421 881.25 404.4 884.8 378 888.4 350.8 887.7 340.35 887.1 331.3 874.1 322.1 869.9 319.1 862.5 314.85 853.5 309.65 851.45 308.35 830.75 302.75 806.6 297.8 758.4 287.9 741.5 291.25 733.7 292.8 718.6 299.8 Z"/>
</g>

<g id="Symbol_54_0_Layer0_0_MEMBER_13_FILL">
<path fill="#AFA79E" stroke="none" d="
M 718.6 299.8
Q 699.3 309.15 688.2 314.45 644 335.6 614.9 340.75 558.35 350.7 495.45 347.95 464.75 346.6 408.7 339.45 354.35 332.55 302.55 317.2 263.8 305.65 229.3 290.3
L 170.3 409.25
Q 178.95 425.45 185.85 442.1 195.8 466.3 197.05 480.7 197.3 483.5 197.7 499.9 198 513.6 199.45 523.2 203.9 553.1 222.55 573.65 238.95 591.7 260.25 598.45 277.2 603.75 295.8 601.6 305.55 600.45 323.65 594.85 326.7 593.9 357.6 583.65 402.3 568.85 418.25 570.15 432.6 571.35 488.5 583.85 546 596.65 563.35 598.55 585.65 601 610.05 592.55 618.45 589.65 628.8 584.8 634.5 582.15 644.2 577.5 660.55 570.05 691.3 552.1 722 534.15 727.5 531.65 737.4 527.2 753.85 535.65 762.05 539.9 768.3 545.05 784.35 539.3 812.4 531 842.55 522.1 856.65 517.25 859 506.95 867.15 467.5 874.6 431.55 877.2 421 881.25 404.4 884.8 378 888.4 350.8 887.7 340.35 887.1 331.3 874.1 322.1 869.9 319.1 862.5 314.85 853.5 309.65 851.45 308.35 830.75 302.75 806.6 297.8 758.4 287.9 741.5 291.25 733.7 292.8 718.6 299.8 Z"/>
</g>

<g id="Symbol_54_0_Layer0_0_MEMBER_14_FILL">
<path fill="#C9C2B8" stroke="none" d="
M 718.6 299.8
Q 699.3 309.15 688.2 314.45 644 335.6 614.9 340.75 558.35 350.7 495.45 347.95 464.75 346.6 408.7 339.45 325.15 328.85 250.2 299.1 226.8 289.85 207 279.75
L 191.95 271.5 192.8 279.5
Q 193.6 289.4 193.05 298.95 191.35 329.6 177.25 345.3
L 187.05 365.55
Q 197.45 387.75 200.65 397.35 205.45 411.75 209.85 434.3 214.1 456.25 215.55 473.05 216.05 478.55 217 490.65 218 501.55 219.65 509.65 224.25 532.15 236.55 546.95 257.45 572 292.4 566.15 304 564.2 319.6 558.35 327.95 555.2 341.25 550 350.05 547.1 362.5 540.4 376.8 532.4 383.95 528.55 410.3 514.4 427 515.8 436 516.55 452.05 520.65 461.5 523.05 483.4 529 527.85 540.5 560.2 540.75 602.3 541 661.45 528.05 676.15 524.8 700.35 519.2 718.65 515.25 726.1 515.45 734.55 515.65 751.35 531.9 759.8 540.05 766.5 548.1
L 837 515.8
Q 849.5 444.75 854.2 425.35 855.25 421 861.55 401.3 868.1 380.9 871.3 368.55 882.15 326.5 870.75 319.85
L 851.45 308.35
Q 830.75 302.75 806.6 297.8 758.4 287.9 741.5 291.25 733.7 292.8 718.6 299.8 Z"/>
</g>

<g id="Symbol_54_0_Layer0_0_MEMBER_15_FILL">
<path fill="#D88D8D" stroke="none" d="
M 676.4 571.3
L 662.85 580.35 667.25 586.8
Q 673.35 594.5 681.9 600.7 709.35 620.6 751.2 618.4 770.3 617.35 781.75 609.05 787.45 604.9 789.35 600.95 787.3 588.3 781.85 574.15 770.9 545.85 753.95 538.4 739.5 532.1 725.55 538.45 720.45 540.75 713.65 545.6 705.95 551.3 701.95 554.05 692 560.9 676.4 571.3 Z"/>
</g>

<g id="Symbol_54_0_Layer0_0_MEMBER_16_FILL">
<path fill="#E8A3A3" stroke="none" d="
M 681.65 567.85
L 673.3 573.4 677.35 578.15
Q 682.9 583.8 690.15 588.4 713.3 603.05 744.9 601.45 763 600.55 776.85 595.55 783.8 593.05 787.1 590.7 785.6 580.6 780.7 569 770.9 545.85 753.95 538.4 739.5 532.1 725.55 538.45 720.45 540.75 713.65 545.6 705.95 551.3 701.95 554.05 692 560.9 681.65 567.85 Z"/>
</g>

<g id="Symbol_54_0_Layer0_0_MEMBER_17_FILL">
<path fill="#000000" stroke="none" d="
M 887.7 339.65
L 886.45 335.25
Q 884.1 334.9 880.5 334.85 873.35 334.7 867.2 336.1 859.95 337.75 855.35 340.7 849.3 344.55 846.65 351.1 843.65 358.6 842.2 373.05 840.65 388.2 842.35 397.15 843.55 403.35 845.9 415.35 847.4 425.25 845.7 431.05 842.2 442.9 847.35 459.75 852.9 478.05 864.2 483.05 885.15 399.85 887.9 359.25 888.75 346.55 887.7 339.65 Z"/>
</g>

<g id="Symbol_54_0_Layer0_0_MEMBER_18_FILL">
<path fill="#141414" stroke="none" d="
M 867.2 336.1
Q 859.95 337.75 855.35 340.7 849.3 344.55 846.65 351.1 843.65 358.6 842.2 373.05 840.65 388.2 842.35 397.15 843.55 403.35 845.9 415.35 847.4 425.25 845.7 431.05 844 436.95 844.3 444.05 844.65 451.6 847.25 459.45 847.9 454.8 849.15 448.05 851.65 434.5 854.6 423.9 864.75 390.55 869.6 373.45 878.3 342.7 876.8 335.3 871.5 335.1 867.2 336.1 Z"/>
</g>

<g id="Symbol_54_0_Layer0_0_MEMBER_19_FILL">
<path fill="#141414" stroke="none" d="
M 767.9 285.95
Q 763.45 276.1 747.5 269.45 742.5 267.35 737 265.85
L 732.45 264.75
Q 721.7 264.05 690.95 270.2 660.75 276.75 657.5 277.4 656.05 278.45 654.3 280.15 650.9 283.5 649.7 286.6 648.05 290.8 649.05 296.75 650.1 303.2 653.65 306.15 655.35 307.5 655.95 310.7 656.6 313.85 655.9 317.2 654.15 325.55 647.3 326.2 639.8 326.95 631.1 320.4 622.25 313.75 621.55 306.45 620.7 298.3 617.65 294.25 613.8 289.2 603.7 285.7 584.6 286.15 561 283.35 555.3 282.65 523.15 277.85 497.65 274 476.5 301.45 473.8 305 473.15 312.75 472.9 315.85 472.95 329 472.95 353.6 466.25 367 463.25 372.95 462.25 384.1 460.9 399.7 467.65 408.6 475.75 419.2 476.8 436.9 477.9 455 470.55 465.9 463.8 475.8 461.95 488.95 460.55 498.65 461.95 508.35 463.1 516.45 466.35 520.8 470.05 525.8 477.5 527.45 480.75 528.2 482.6 530.55 483.65 531.85 485.45 534.8 489.65 540.05 504.45 538.9 520.95 537.65 525.9 525.8 529 518.35 527.35 506.95 525 491.45 544.5 484.05 553.85 480.45 561.7 469.8 568.45 460.65 568.85 454.9 570.7 445.2 571.1 438.05 571.9 424.45 566.5 417.55 561.65 412.1 559.5 409.2 555.75 404.15 554.55 398.1 553.15 391.05 560.65 386.55 567.95 382.15 578.9 382.85 583.85 383.2 586.5 387.55 588.55 390.85 590.15 398.45 591.1 402.8 593.2 412.8 595.45 421.7 599 427.95 608.4 444.55 602.4 455.05 598.1 462.5 586.55 466.35 572.85 470.95 564.1 490.7 560.15 499.7 563.45 508.35 567 517.65 576.5 518.15 591 518.95 606.55 528.65 621.85 538.15 624.7 547.65 626.8 554.75 631.4 558.9 635.5 562.65 640.5 563.15 645.25 563.65 648.75 561.05 652.45 558.35 653.1 553.3 653.55 550.05 651 542.15 648 532.65 647.6 520.3 647.4 512.2 650.2 508.1 653 503.95 661.95 499.3 669.65 495.3 666.9 485.05 665.25 478.95 660.05 471.15 653.6 463.4 651.15 458.8 646.65 450.35 654.8 448.25 663.2 446.05 662.25 433.15 661.65 425.35 657.15 411.95 654.4 403.65 657.2 401.6 659.65 399.75 670.45 400.5 678.5 401.05 683.5 397.4 684.85 396.4 687.55 394.2 690.1 392.35 692.95 391.45 699 389.55 702.15 394.2 704.4 397.45 704.9 403.35 705.4 408.85 710.45 412.75 716.75 417.55 726.4 415.3 734.85 413.3 736.9 402.65 737.65 396.95 738.05 394.45 738.75 390.15 740.2 388.55 744.75 383.6 746.6 380.15 749.75 374.35 752.65 362.8 754.15 356.85 756.55 354.1 758.4 351.95 761.95 350.8 764.05 350.1 769.15 348.5 774 346.55 778.4 342.75 787 335.3 783.6 326.5 782.65 324.05 779.95 319.95 777.4 316.1 776.95 314.6 775.55 308.25 774.4 303.85 772.3 295.6 767.9 285.95 Z"/>
</g>

<g id="Symbol_54_0_Layer0_0_MEMBER_20_FILL">
<path fill="#000000" stroke="none" d="
M 515.65 536.25
Q 505.85 534.9 491.1 531.15
L 478.3 527.7
Q 480.7 529 481.85 531.75 482.5 533.25 483.75 536.4 487.05 541.85 501.65 541.85 505.35 541.85 510.9 539.05 513.65 537.65 515.65 536.25 Z"/>
</g>

<g id="Symbol_54_0_Layer0_0_MEMBER_21_FILL">
<path fill="#000000" stroke="none" d="
M 653.1 553.3
Q 653.55 549.9 651.75 544.5 649.3 537.05 648.45 530.8 624.55 535.35 616.8 536.4 623.1 542.45 624.7 547.65 626.8 554.75 631.4 558.9 635.5 562.65 640.5 563.15 645.25 563.65 648.75 561.05 652.45 558.35 653.1 553.3 Z"/>
</g>

<g id="Symbol_54_0_Layer0_0_MEMBER_22_FILL">
<path fill="#C48080" stroke="none" d="
M 690.2 610.95
L 690.45 606.15 678.45 598.05 678.6 606.75
Q 678.9 616.35 679.45 620.55 680.3 626.95 683.8 627.2 687.15 627.4 688.25 622.9 689.65 616.95 690.2 610.95 Z"/>
</g>

<g id="Symbol_54_0_Layer0_0_MEMBER_23_FILL">
<path fill="#A06767" stroke="none" d="
M 722 616.85
L 710.8 614.45 711 621.05
Q 711.35 628.15 711.8 630.7 712.9 636.7 715.9 636.45 718.6 636.2 719.65 632.25 720.95 627.4 721.6 621.65
L 722 616.85 Z"/>
</g>

<g id="Symbol_54_0_Layer0_0_MEMBER_24_FILL">
<path fill="#AD6F6F" stroke="none" d="
M 757.35 617.85
L 744.9 618.6 745.4 623
Q 746 628.1 746.65 631.6 747.9 638.25 751.1 638.75 754.1 639.25 754.95 635.15 756.25 629.1 756.9 622.9
L 757.35 617.85 Z"/>
</g>

<g id="Symbol_54_0_Layer0_0_MEMBER_25_FILL">
<path fill="#C9C2B8" stroke="none" d="
M 845.15 592.9
Q 844.95 587.5 845.85 574.15 846.5 564.95 855.4 523.1
L 864.2 483.05 748.7 529.4
Q 772 552.1 778.15 567.3 782.55 578.1 785.1 587.75 787.55 596.9 793.2 623.75 794.85 631.65 798.55 645.65 803.3 664 803.6 665.15 804.15 667.55 808.65 683.15 812 694.85 812.35 699.1 813.05 707.15 813.75 728.1 814.55 752.9 813.8 761.6 813.1 769.85 808.55 780 806.3 785.1 804.2 788.5
L 842.55 802.4
Q 842.1 797.15 840.7 788.5 839.85 783 843.2 777.7 844.6 775.5 848.25 771.85 849.45 770.65 847.3 764.45 844.1 754.95 843.65 752.9 842.5 747.25 841 730.05 839.5 712.8 839.25 702.55 839 690.8 840.95 668.85 843.05 644.9 845.6 638.35 848.6 630.55 849.55 620.95 850.55 610.35 848 605.4 845.5 600.6 845.15 592.9 Z"/>
</g>

<g id="Symbol_54_0_Layer0_0_MEMBER_26_FILL">
<path fill="#AFA79E" stroke="none" d="
M 864.2 483.05
L 841.6 489.95
Q 840.55 496.85 832.3 537.1 824.5 579.75 824.15 607.55 823.85 629.05 816.5 641.15 809.6 652.45 799.9 650.8
L 803.6 665.15
Q 804.8 670.2 809.2 686.2 813.05 701.45 813 709.75
L 816.55 712.9
Q 820.7 717.6 823.65 725.3 833.1 749.9 827.15 795.45
L 842.55 802.4
Q 842.1 797.15 840.7 788.5 839.85 783 843.2 777.7 844.6 775.5 848.25 771.85 849.45 770.65 847.3 764.45 844.1 754.95 843.65 752.9 842.5 747.25 841 730.05 839.5 712.8 839.25 702.55 839 692.15 842.25 668.9 845.5 645.45 848.2 638.45 855.25 620.25 850.25 605.4 846.2 593.2 848.35 573.4 849.35 564.25 856.9 522.75
L 864.2 483.05 Z"/>
</g>

<g id="Symbol_54_0_Layer0_0_MEMBER_27_FILL">
<path fill="#604638" stroke="none" d="
M 831 813.35
Q 842.1 810.3 842.55 802.4 838.35 797.9 831.4 793.9 817.6 785.95 804.2 788.5 799.25 795.45 796.15 800.8 792.45 807.25 792.85 809.05 793.3 810.7 796.85 811.2 799.7 811.55 801.55 811.15 801.35 814 804.95 815.15 808.3 816.2 814.3 815.6 828.1 814.15 831 813.35 Z"/>
</g>

<g id="Symbol_54_0_Layer0_0_MEMBER_28_FILL">
<path fill="#755945" stroke="none" d="
M 827.65 791.95
Q 815.85 786.25 804.2 788.5 799.25 795.45 796.15 800.8 792.45 807.25 792.85 809.05 793.05 809.75 795.5 809.75 798.05 809.7 800.9 808.95
L 801.55 811.15
Q 801.35 813.5 804.95 814.05 808.75 814.6 813.75 812.45 818.7 810.3 822.4 805.95 827.4 800 827.65 791.95 Z"/>
</g>

<g id="Symbol_54_0_Layer0_0_MEMBER_29_FILL">
<path fill="#3F2A19" stroke="none" d="
M 797.5 811.25
Q 799.4 811.45 801.55 811.15 809.75 797.25 814.3 789.85 807.4 795.3 801 803.7 797.8 807.95 796 811.05
L 797.5 811.25 Z"/>
</g>

<g id="Symbol_54_0_Layer0_0_MEMBER_30_FILL">
<path fill="#C9C2B8" stroke="none" d="
M 423.1 523.5
Q 425.25 520.05 426.35 496.2
L 427 473.05 329.5 547.65
Q 332.95 575.1 333.65 607.9 334.3 639.2 332.1 644.9 327.85 655.7 327.3 666.55 326.85 675.6 328.9 684.1 332.25 698.2 332.7 710.95 333.15 725.55 332.35 743.4 331.15 769 327.6 779.85 322.45 795.6 313.95 807.35 309.7 813.2 306.5 815.9
L 347.55 830.5
Q 348 828.65 348.45 825.75 349.35 819.85 349.35 814.35 349.35 807.3 353.6 802.4 358.35 798.35 359.35 797.3 360.5 796.15 358.05 790.25 354.6 782 354 779.05 352.7 772.85 351.5 754.7 350.25 735.3 350.9 725.7 351.8 711.1 358.9 694.25 366.65 678.2 368.3 673.45 371.9 663.35 372.4 649.1 372.95 633.5 375.25 625.2 377.25 617.8 394.1 581 412.65 540.45 423.1 523.5 Z"/>
</g>

<g id="Symbol_54_0_Layer0_0_MEMBER_31_FILL">
<path fill="#AFA79E" stroke="none" d="
M 424.55 524.1
Q 426.3 520.5 427.6 507.35 429 493.2 428.2 481.55 423.8 490.25 395.8 542.75 384.45 569.1 373.4 604.95 365.55 630.35 362.4 644.15 361.75 647.05 360.9 653.7 359.8 660.35 357.35 666.25 352.55 677.7 342.85 681.65 333.65 685.35 328 679.75
L 328.9 684.1
Q 332.3 699.8 332.7 710.95
L 332.8 727.05
Q 337.05 727.4 340.05 737.45 343.05 747.4 343.45 762.15 343.9 778.15 341 793.65 337.65 811.25 330.55 824.35
L 352.45 830.75
Q 352.8 829.5 353 827.05 353.5 822.05 353.05 815.8 352.5 808.75 356.55 804.05 361.2 800.2 362.2 799.15 363.45 797.9 361.75 791 359.35 782.55 358.55 778.75 357.35 773.15 356.7 754.45 356.05 735.8 356.7 725.55 357.65 710.8 364.1 694.2 371.15 678.3 372.85 673.5 376.5 663.25 377.75 651.4 379.2 637.6 381.35 629.7 384.35 618.85 394.2 593.45 408.15 557.4 424.55 524.1 Z"/>
</g>

<g id="Symbol_54_0_Layer0_0_MEMBER_32_FILL">
<path fill="#604638" stroke="none" d="
M 352.45 830.75
Q 346.75 825.65 338.15 821.25 320.95 812.45 306.5 815.9 301.4 821.15 296.7 829.35 292.15 837.2 292.65 839.25 293.05 840.95 296.65 841.4 299.4 841.8 301.35 841.4 301.15 844.25 304.75 845.35 308.1 846.4 314.1 845.8 328.2 844.4 335 842.7 350.5 838.7 352.45 830.75 Z"/>
</g>

<g id="Symbol_54_0_Layer0_0_MEMBER_33_FILL">
<path fill="#755945" stroke="none" d="
M 331.95 823.65
L 333.2 819
Q 318.9 812.95 306.5 815.9 301.6 820.9 296.8 829.2 292.45 836.75 292.65 838.55 292.75 839.4 294.6 839.65 296.85 840 300.55 838.95
L 301.35 841.4
Q 301.35 842.15 301.9 842.9 302.55 843.75 303.45 843.9 318.5 847.25 327.35 833.45 330.15 829.15 331.95 823.65 Z"/>
</g>

<g id="Symbol_54_0_Layer0_0_MEMBER_34_FILL">
<path fill="#3F2A19" stroke="none" d="
M 300.95 833.95
Q 297.85 838.15 296.1 841.3
L 297.6 841.5
Q 299.45 841.7 301.35 841.4 309.55 827.45 314.1 820.1 307.2 825.5 300.95 833.95 Z"/>
</g>

<g id="Symbol_54_0_Layer0_0_MEMBER_35_FILL">
<path fill="#141414" stroke="none" d="
M 340.9 254.4
Q 340.3 263.55 345.7 272.35 348.6 277.1 353.6 283.55 355.85 287.65 355.65 294.8 355.4 301.1 353.3 308.7 351.15 316.3 353.9 326.55 355 330.7 358.7 339.55 360.8 344.7 360.85 350.6 360.95 357.95 357.15 361.1 354.25 363.45 352.65 360.75 350.9 357.8 349.8 347.2 349.1 341.05 347.65 337.3 345.9 332.9 341.8 328.1 337.95 323.6 336.4 318.95 335.7 316.8 333.85 307.4 331.6 295.8 312.85 298.5 308.55 299.15 304.25 305.3 300.3 310.95 296.65 310.6 291.7 310.15 290.55 302.8 289.75 297.5 290.9 287.35 291.75 280.45 290.25 274.8 288.2 269.25 287.4 267.05 286.05 263.35 280 258.8 273.2 253.7 265.75 252.05 250.25 250.45 233.8 244.15
L 220.45 238.2 212 286.4
Q 214.6 296.85 215.45 308.65 216.5 323.2 213.9 331.6 211.65 338.95 211.05 347.35 210.25 358.4 210.1 359.3 209.1 364.9 205.85 376.4 202.5 388.15 199.85 395.1 198.75 398 201.05 410.7 203.3 423.2 201.25 427.85 197.95 435.35 198.3 445.75 198.75 457.95 204.65 466.85 210.2 475.15 214.5 489.35 215.7 493.25 220.45 512.2 222.9 522.05 227.25 526.4 231.45 530.65 234.75 527 241.3 519.7 244.75 547.25 246.4 560.1 251.15 565.5 255 569.85 259.7 568.6 263.1 567.65 266.85 559.55 268.3 556.4 272.95 543.7 274.9 538.35 275.25 527.85 275.6 518.35 277.25 515.55 279.5 511.65 283.4 510.3 285.05 509.7 294.9 507.9 301.55 506.7 310.4 492.5 313.3 487.9 316.9 481.05 320.4 474.25 321.6 472.1 324.3 467.25 330.1 466.85 338.55 466.25 342.15 464.45 345.2 462.95 346.9 460 348.55 456.4 349.5 454.55 353 447.55 363.6 445.35 376 442.8 378.85 455.8 379.9 460.75 379.15 466.35 378.4 471.65 376.5 474.5 372.6 480.35 371.75 488.95 370.75 498.7 374.1 509.8 376.95 519.2 385.1 529.45 387.25 532.15 391.45 537.05 394.9 541.25 396.55 543.95 397.85 546.1 398.25 550.3 398.3 550.7 398.6 558.15 399 568.4 403.15 571.5 419.5 533.3 424.6 522.95 426.8 518.6 427.9 509.95 429.85 494.75 427 473.05 425.6 462.45 419.05 432.65 412.5 402.7 411.35 394.3 409.7 382.15 415.05 369.85 419.6 359.45 426.8 353.25 432.3 348.45 433 335 433.35 328.1 431.9 303.1 430.5 279.4 414.85 267.85 409.95 264.25 404.25 262.35
L 399.5 261.1
Q 390.75 259.4 379 257.7 355.6 254.35 340.9 254.4 Z"/>
</g>

<g id="Symbol_54_0_Layer0_0_MEMBER_36_FILL">
<path fill="#000000" stroke="none" d="
M 424.9 460.7
L 423.5 453.35
Q 426.1 478.75 411.2 513.3 403.75 530.55 395.8 542.75 397.1 544.9 397.6 549.25 397.65 549.4 398.2 557.55 398.95 568.4 403.15 571.5 419.5 533.3 424.6 522.95 426.8 518.6 427.9 509.95 429.85 494.75 427 473.05 426.45 468.9 424.9 460.7 Z"/>
</g>

<g id="Symbol_54_0_Layer0_0_MEMBER_37_FILL">
<path fill="#000000" stroke="none" d="
M 196.5 406.15
Q 193.1 418.75 193.1 426.75 193.1 436.5 195.1 446.65 197.8 460.6 203.5 469.15 207 474.45 212.3 487.65 217.05 499.6 219.3 507.6 218.7 491.2 214.2 460.25 208.1 418.1 199.85 395.1
L 196.5 406.15 Z"/>
</g>

<g id="Symbol_54_0_Layer0_0_MEMBER_38_FILL">
<path fill="#212121" stroke="none" d="
M 737 265.85
L 732.45 264.75
Q 721.7 264.05 690.95 270.2 660.75 276.75 657.5 277.4 656.05 278.45 654.3 280.15 650.9 283.5 649.7 286.6 648.05 290.8 649.05 296.75 650.1 303.2 653.65 306.15 655.35 307.5 655.95 310.7 656.6 313.85 655.9 317.2 654.15 325.55 647.3 326.2 639.8 326.95 631.1 320.4 622.25 313.75 621.55 306.45 620.7 298.3 617.65 294.25 613.8 289.2 603.7 285.7 584.6 286.15 561 283.35 555.3 282.65 523.15 277.85 497.65 274 476.5 301.45 473 306 472.85 319.95 472.55 342.4 472.1 346.5
L 488.85 347.55
Q 509.95 348.5 531.45 348.05 600.3 346.6 647.8 331.75 665.75 326.15 684.55 316.8 695.05 311.55 712.95 302 727.9 294.55 739.4 292.05 754.05 288.95 770.35 291.7
L 767.9 285.95
Q 763.45 276.1 747.5 269.45 742.5 267.35 737 265.85 Z"/>
</g>

<g id="Symbol_54_0_Layer0_0_MEMBER_39_FILL">
<path fill="#212121" stroke="none" d="
M 353.6 283.55
Q 355.85 287.65 355.65 294.8 355.4 301.1 353.3 308.7 351.2 316.1 355.1 330.45
L 376.7 334.55
Q 403.95 339.3 432.15 342.45 433.45 334 433.1 323.15 432.3 310.2 431.9 303.1 430.5 279.4 414.85 267.85 409.95 264.25 404.25 262.35
L 399.5 261.1
Q 390.75 259.4 379 257.7 355.6 254.35 340.9 254.4 340.3 263.55 345.7 272.35 348.6 277.1 353.6 283.55 Z"/>
</g>

<g id="Symbol_54_0_Layer0_0_MEMBER_40_FILL">
<path fill="#1E1E1E" stroke="none" d="
M 336.75 318.6
Q 335.15 314.15 333.85 307.4 331.6 295.8 312.85 298.5 308.55 299.15 304.25 305.3 300.3 310.95 296.65 310.6 291.7 310.15 290.55 302.8 289.75 297.5 290.9 287.35 291.75 280.45 290.25 274.8 288.2 269.25 287.4 267.05 285.85 262.85 281.65 258.9 276.2 253.8 269 252.2 253.5 250.6 235.45 244.25
L 220.45 238.2 212.65 282.55 223.5 287.65
Q 237.35 293.95 252.3 299.9 300.2 318.9 341.25 327.4 338.55 323.65 336.75 318.6 Z"/>
</g>

<g id="Symbol_54_0_Layer0_0_MEMBER_41_FILL">
<path fill="#141414" stroke="none" d="
M 319.2 496.9
Q 319.7 507.55 322.8 512.85 325.4 517.35 332.5 521.75 342.05 527.65 342.6 540.6 342.8 543.7 345.15 546.85 348.25 551 352.65 549.75 358.2 548.15 359.8 537.95 361.35 527.85 356.95 524.45 351.85 520.5 350.9 514.1 350.75 513.2 350.75 502.4 351.05 497.85 351.15 495.2 351.35 490.3 350.4 487.4 347.5 478.95 333.2 482.75 332.3 482.7 330.9 482.85 328.2 483.2 325.95 484.25 318.75 487.6 319.2 496.9 Z"/>
</g>

<g id="Symbol_54_0_Layer0_0_MEMBER_42_FILL">
<path fill="#C48080" stroke="none" d="
M 732.15 634.3
Q 732.85 629.1 733.3 623.15
L 733.6 618.3
Q 726.05 617.5 720.7 616.6
L 720.85 623.15
Q 721.1 630.6 721.75 635.25 722.85 643.25 726.95 642.85 731.05 642.45 732.15 634.3 Z"/>
</g>

<g id="Symbol_54_0_Layer0_0_MEMBER_43_FILL">
<path fill="#C48080" stroke="none" d="
M 761.7 542.9
Q 760.25 541.85 758.2 540.6 754.1 538.1 751.1 537.3 764.8 555.25 773.55 584.7 777.9 599.4 779.5 610.55
L 783.45 608.05
Q 787.6 605 788.55 602.05 784.5 576.2 772.7 556.95 769.05 550.95 765 546.3
L 761.7 542.9 Z"/>
</g>

<g id="Symbol_54_0_Layer0_0_MEMBER_44_FILL">
<path fill="#968D86" stroke="none" d="
M 754.25 538.55
Q 758.15 540.3 761.7 542.9 757.5 538.1 752 532.6 740.9 521.65 734.2 518.2 737.6 520.6 744.7 529.2 748.25 533.5 751.1 537.3
L 754.25 538.55 Z"/>
</g>

<g id="Symbol_54_0_Layer0_0_MEMBER_45_FILL">
<path fill="#7F7671" stroke="none" d="
M 427.7 503.8
Q 426.4 519.8 423.65 525.3 418 536.45 406.55 563.45 400.85 576.95 396.25 588.25
L 414.65 584.4
Q 423.8 541.05 427 530.75 430.6 518.8 428.45 488.85
L 427.7 503.8 Z"/>
</g>

<g id="Symbol_54_0_Layer0_0_MEMBER_46_FILL">
<path fill="#756D6A" stroke="none" d="
M 129.2 367
Q 141.05 383.8 148.5 385.8 149.35 386 152.2 385.75 154 385.6 156.7 387.5 159.6 389.6 168.4 405.95 172.8 414.15 176.6 421.9 177.1 415.6 180.5 405.35 187.3 384.9 201.9 365.1 210.35 353.6 216.85 335.7
L 221.65 320.1 215.45 308.65 129.2 367 Z"/>
</g>

<g id="Symbol_54_0_Layer0_0_MEMBER_47_MEMBER_0_FILL">
<path fill="#0F0F0F" stroke="none" d="
M 97.05 246.95
L 103 220.65
Q 101.45 220.65 99.5 220.3 95.6 219.55 93.65 217.75 88.8 211.4 83.9 206.85 74.6 198.2 65 198.2 54 198.2 44.05 202.8 34.65 207.1 34.05 211.4 33.35 216 37.2 222.6 40.75 228.75 47.15 234.9 61.6 248.85 73.7 249.95 82 250.7 90.35 248.9 94.55 248 97.05 246.95 Z"/>
</g>

<g id="Symbol_54_0_Layer0_0_MEMBER_47_MEMBER_1_FILL">
<path fill="#000000" stroke="none" d="
M 93.65 217.75
Q 88.8 211.4 83.9 206.85 74.6 198.2 65 198.2 55 198.2 45.55 202.15 36.85 205.75 34.55 209.95 39.65 204.9 51.95 207.15 65.15 209.6 72.05 218.85 74.65 222.35 81.75 233.25 89.15 242.85 97.5 245
L 103 220.65
Q 101.45 220.65 99.5 220.3 95.6 219.55 93.65 217.75 Z"/>
</g>

<g id="Symbol_54_0_Layer0_0_MEMBER_47_MEMBER_2_FILL">
<path fill="#191919" stroke="none" d="
M 93.65 217.75
Q 88.8 211.4 83.9 206.85 74.6 198.2 65 198.2 55.95 198.2 47.15 201.5 39.1 204.55 35.6 208.45 41.5 204.3 50.25 203.15 67.65 200.9 81.7 216.15 84.05 218.7 89.45 224.7 94.75 229.5 100.9 229.95
L 103 220.65
Q 101.45 220.65 99.5 220.3 95.6 219.55 93.65 217.75 Z"/>
</g>

<g id="Symbol_54_0_Layer0_0_MEMBER_48_MEMBER_0_FILL">
<path fill="#9E845E" stroke="none" d="
M 104.25 169.6
Q 94.75 162.65 89.45 151.6 87.25 147 85.5 148.4 83.8 149.75 84.3 154.45 86.9 178.6 102.9 188.95 110.9 194.15 118.4 194.5 120.05 192.2 121.95 188.85 125.7 182.1 126.95 176.85 114.9 177.4 104.25 169.6 Z"/>
</g>

<g id="Symbol_54_0_Layer0_0_MEMBER_48_MEMBER_1_FILL">
<path fill="#C4AB78" stroke="none" d="
M 114.2 182.25
Q 117.1 178.3 120.2 176.45 109.6 174.15 101.55 167.4 94 161.1 89.45 151.6 87.25 147 86.1 148.15 84.95 149.25 85.8 153.9 88.5 168.45 97.4 177.15 103.45 183.05 111.95 185.8 112.75 184.2 114.2 182.25 Z"/>
</g>

<g id="Symbol_54_0_Layer0_0_MEMBER_49_FILL">
<path fill="#C9C2B8" stroke="none" d="
M 207.2 192.75
Q 202.3 181.95 193.05 175.05 179.75 165.15 159.5 165.2 133.25 165.2 120.7 179.45 114.4 186.55 113.35 193.65
L 108.7 206.85
Q 103.25 220.95 99.5 225.75 95.05 231.5 94.45 239.05 93.8 246.65 97.45 251.5 98.35 253.7 97.4 272.5 96.4 292.1 94.55 301.35
L 187.7 320.7 207.2 192.75 Z"/>
</g>

<g id="Symbol_54_0_Layer0_0_MEMBER_50_FILL">
<path fill="#AFA79E" stroke="none" d="
M 170.5 172.6
Q 183.4 182.5 192.85 194.7
L 204.85 213.6 207.2 192.75
Q 202.3 181.95 193.05 175.05 179.75 165.15 159.5 165.2
L 170.5 172.6 Z"/>
</g>

<g id="Symbol_54_0_Layer0_0_MEMBER_51_FILL">
<path fill="#E5DDD1" stroke="none" d="
M 190.8 185.25
Q 185.3 175.35 177.25 169.4 174.3 167.2 169.3 166.05
L 164.95 165.35
Q 162.35 165.2 159.5 165.2 136.45 165.2 123.65 176.3 117.2 181.8 115.4 187.35 115.1 193.95 125.15 197.7 133.95 201 148.6 201.5 162.2 201.95 175.25 199.85 188.6 197.75 194.65 193.95 193.55 190.2 190.8 185.25 Z"/>
</g>

<g id="Symbol_54_0_Layer0_0_MEMBER_52_FILL">
<path fill="#EAE4DC" stroke="none" d="
M 117.3 273.15
Q 111.35 276.05 107.55 283.75 105.25 288.45 98.75 297 95.55 301.25 92.75 304.55
L 89.95 307.15
Q 87 309.95 86.3 310.9 94.4 315.25 104.6 319 111.7 321.6 123.5 325.1
L 143.3 313.45
Q 144.75 312.5 145.9 310.8
L 146.75 309.35
Q 145.05 294.45 140.05 284.8 135.5 276.15 129.15 273.15 123.15 270.3 117.3 273.15 Z"/>
</g>

<g id="Symbol_54_0_Layer0_0_MEMBER_53_FILL">
<path fill="#E5DDD1" stroke="none" d="
M 145.8 310.85
Q 144.6 312.55 143.3 313.45
L 86.3 310.9
Q 84.8 313.05 83.75 315.85 82.85 318.4 81.85 322.7 80.15 330.2 79.95 336.5 79.75 344.55 82.15 349.5
L 93.7 350.65
Q 107.8 351.9 120.4 352.45 160.75 354.05 171.65 347.6 174.8 345.75 172.8 339.4 171.05 333.75 165.95 326.45 161.05 319.4 155.75 314.5 150.05 309.3 146.75 309.35
L 145.8 310.85 Z"/>
</g>

<g id="Symbol_54_0_Layer0_0_MEMBER_54_FILL">
<path fill="#C9C2B8" stroke="none" d="
M 84.7 353.25
Q 91.8 360.25 100.3 363.1 114.55 367.8 142.15 366.85 148.25 366.65 155.9 360.65 159.6 357.55 161.15 356.3 163.8 354.2 165.2 353.8 166.15 353.55 171.65 352.15 177.85 350.5 182.85 348.7 198.65 342.95 203.25 335.5 192.55 344.8 176.55 346.75 171.6 347.4 166.65 347.2
L 162.7 346.9
Q 161.15 347.1 158.5 347.1 153.2 347.15 147.8 346.4 122.85 342.95 116.1 342.4 92.55 340.6 80.6 344.9 81.05 347.65 82 349.55 82.9 351.4 84.7 353.25 Z"/>
</g>

<g id="Symbol_54_0_Layer0_0_MEMBER_55_FILL">
<path fill="#B2ACA6" stroke="none" d="
M 85.15 353.7
Q 91.95 360.45 100.85 363.3 115 367.8 142.15 366.85 147.1 366.7 152.65 363 154.1 362.05 160.9 356.5 154.4 355.8 144.1 353.65 131 350.9 127.3 350.3 117.45 348.65 106.95 349 94.35 349.5 87.15 352.95 86.45 353.3 85.15 353.7 Z"/>
</g>

<g id="Symbol_54_0_Layer0_0_MEMBER_56_FILL">
<path fill="#9B938C" stroke="none" d="
M 85.15 353.7
Q 91.95 360.45 100.85 363.3 115 367.8 142.15 366.85 147.1 366.7 152.65 363 154.1 362.05 160.9 356.5 154.15 355.8 143.95 353.85 141.5 355.55 137 357.15 128.05 360.25 117.95 359.5 108.3 358.8 102.65 356.7 97.05 354.6 94.25 350.7 92.8 351.05 89.05 352.35 85.5 353.6 85.15 353.7 Z"/>
</g>

<g id="Symbol_54_0_Layer0_0_MEMBER_57_FILL">
<path fill="#141414" stroke="none" d="
M 96.8 222.45
Q 91 229.9 89.15 236.15 86.6 244.65 92.1 249.05
L 93.7 255.4
Q 92.9 261.15 93.4 266.35 93.5 268.25 94.15 270.75 94.2 270.95 95.3 274.55 95.85 276.15 95.05 286.85 94.25 298.4 92.75 304.55 101.3 294.65 104.7 289.25 108.75 282.85 108.95 277.7 109.35 269 108.45 253.25 107.45 236.25 107.6 228.8 107.8 220.55 109.45 210.8 110.95 202.05 113.35 193.65 102.4 215.3 96.8 222.45 Z"/>
</g>

<g id="Symbol_54_0_Layer0_0_MEMBER_58_FILL">
<path fill="#232323" stroke="none" d="
M 92.9 238.25
Q 98.7 238.2 101.15 245.75 102.9 251.25 103 261.7 102.55 261.45 101.85 261.25 100.55 260.9 99.5 261.3 97.6 262.1 95.9 262.1 94.05 262.1 93.3 261.1 92.95 268.65 95.2 270.75 95.8 271.3 97 272 97.9 272.7 98.15 274 99.55 281.7 99.65 289.85 99.75 293.9 99.5 296.45 104.1 290.45 105.95 287 108.55 282.25 108.95 277.7 109.75 268.65 108.7 253.25 107.5 235.4 107.6 228.8 107.8 220.55 109.45 210.8 110.95 202.05 113.35 193.65 102.4 215.3 96.8 222.45 93.1 227.25 91.15 230.95 88.4 236.05 88.35 240.25 88.65 239.75 89.35 239.25 90.75 238.3 92.9 238.25 Z"/>
</g>

<g id="Symbol_54_0_Layer0_0_MEMBER_59_FILL">
<path fill="#4F4E4E" stroke="none" d="
M 98.6 244.5
Q 96.65 242.3 94.4 242.45 91.65 242.65 90.55 245.05 89.45 247.35 90.05 251.3 91.5 260.35 96 260.35 98.8 260.35 100.2 257.35 101.55 254.55 101.1 250.55 100.65 246.85 98.6 244.5 Z"/>
</g>

<g id="Symbol_54_0_Layer0_0_MEMBER_60_FILL">
<path fill="#000000" stroke="none" d="
M 98.45 245.85
Q 96.9 243.35 94.35 243.35 92.25 243.35 90.7 245.85 89.2 248.3 89.2 251.5 89.2 254.65 90.8 256.95 92.4 259.2 94.55 259.2 99.9 259.2 99.9 251.5 99.9 248.15 98.45 245.85 Z"/>
</g>

<g id="Symbol_54_0_Layer0_0_MEMBER_61_FILL">
<path fill="#FFFFFF" stroke="none" d="
M 97.5 246.8
Q 97.5 246.05 97 245.55 96.45 245 95.7 245 94.95 245 94.4 245.55 93.85 246.05 93.85 246.8 93.85 247.55 94.4 248.1 94.95 248.65 95.7 248.65 96.45 248.65 97 248.1 97.5 247.55 97.5 246.8 Z"/>
</g>

<g id="Symbol_54_0_Layer0_0_MEMBER_62_FILL">
<path fill="#635A52" stroke="none" d="
M 83.05 351.35
Q 84.65 353.4 86.1 354.6
L 93.9 353
Q 104.15 351.55 116.45 352.45 127.7 353.3 143.3 356.8 151.1 358.55 156.65 360.1 162 355.8 164.7 353.95 160 355.2 153.25 354.15 149.2 353.55 140.85 351.35 134.55 349.65 121.95 348.5 109.15 347.35 98.85 347.65 90.6 347.95 86 349.65
L 83.05 351.35 Z"/>
</g>

<g id="Symbol_54_0_Layer0_0_MEMBER_63_FILL">
<path fill="#E2A1A1" stroke="none" d="
M 140.55 338.85
Q 146.9 325.7 144.5 315.35 143.7 311.9 134.55 309.35 125.25 306.8 111.45 306.3 97.8 305.85 92.8 306.75 88.25 307.65 85.15 310.95 84.2 312 83.95 316.6 83.7 321.35 84.4 327.05 86.35 341.85 92.75 348.05
L 104.3 347.7
Q 118.85 347.75 133.7 349.95 137.35 345.45 140.55 338.85 Z"/>
</g>

<g id="Symbol_54_0_Layer0_0_MEMBER_64_FILL">
<path fill="#CC8383" stroke="none" d="
M 120 342.7
Q 100.5 340.95 89.05 342.8 90.55 345.85 92.6 348.15
L 104.25 347.75
Q 118.85 347.75 133.7 349.95 136.2 347.6 137.2 344.85 129.75 343.6 120 342.7 Z"/>
</g>

<g id="Symbol_54_0_Layer0_0_MEMBER_65_FILL">
<path fill="#F4C9C9" stroke="none" d="
M 143.3 313.45
Q 141.95 311.15 134.95 309 125.85 306.25 112.05 305.75 99.7 305.35 93.5 306.5 87.25 307.7 85.15 310.95
L 85.8 311.5
Q 86.95 312.15 89.2 312.8 96.5 314.7 112.7 315.2 130.2 315.75 138.5 314.65 142.65 314.1 143.3 313.45 Z"/>
</g>

<g id="Symbol_54_0_Layer0_0_MEMBER_66_FILL">
<path fill="#966666" stroke="none" d="
M 139.5 319.15
Q 138.6 317.8 136.2 318.45 133.3 319.25 129.7 322.8 125.65 326.75 123.4 330.55 125.4 332.5 132.9 327.5 136.3 325.25 138.25 322.8 140.3 320.25 139.5 319.15 Z"/>
</g>

<g id="Symbol_54_0_Layer0_0_MEMBER_67_FILL">
<path fill="#7F5252" stroke="none" d="
M 128.25 327.3
Q 130.2 326.95 132.3 325.8 135.75 324 137.95 321.85 140 319.85 139.5 319.15 138.5 317.85 136.15 318.5 133.3 319.3 129.7 322.8 127.5 324.9 126.25 326.55 126 327.7 128.25 327.3 Z"/>
</g>

<g id="Symbol_54_0_Layer0_0_MEMBER_68_FILL">
<path fill="#966666" stroke="none" d="
M 88.1 316.55
Q 86.55 315.35 85.45 316.4 84.65 317.15 85.7 319.9 86.8 322.75 89 325 94 330.2 96.3 329.2 94.8 325.4 92.2 321.55 89.6 317.7 88.1 316.55 Z"/>
</g>

<g id="Symbol_54_0_Layer0_0_MEMBER_69_FILL">
<path fill="#7F5252" stroke="none" d="
M 91.4 324.7
Q 93.7 326.5 94.95 326.25 94.45 325.2 92.2 321.55 89.85 317.75 87.95 316.4 86.2 315.2 85.75 316.65 85.65 317.15 86.25 318.5 87.05 320.25 88.7 322.15 89.9 323.55 91.4 324.7 Z"/>
</g>

<g id="Symbol_54_0_Layer0_0_MEMBER_70_FILL">
<path fill="#141414" stroke="none" d="
M 205 194.25
Q 200.6 191.1 194.65 193.95 189 198.2 181.75 204.45 167.2 216.95 159.25 227.15 148.45 240.9 144.75 251.4 141.55 260.6 139.3 281.75 138.7 287.45 140.45 294.4 142.6 302.9 148.05 311.5 149.65 314.05 151.25 318.65 153.05 323.85 153.6 328.4 154.9 339.15 160.95 345.35 167.8 352.35 178.15 350.25 197.7 344.1 202.75 336.3 209.7 325.6 215.7 312.2 223.35 294.95 223.35 285.35 223.35 249.9 221.05 233.8 217.9 211.8 208.25 198 207.25 195.85 205 194.25 Z"/>
</g>

<g id="Symbol_54_0_Layer0_0_MEMBER_71_FILL">
<path fill="#0C0C0C" stroke="none" d="
M 219.5 269.1
Q 219.05 281 217.6 288.1 215.05 300.95 206.7 316.55 199.65 329.75 194.55 334.75 191.75 337.55 183.25 341.3 172.55 346 162.7 346.9
L 166.85 349.3
Q 172.15 351.45 178.15 350.25 197.7 344.1 202.75 336.3 209.7 325.6 215.7 312.2 223.35 294.95 223.35 285.35 223.5 274.3 223.45 267.7 223.3 255.65 222.15 249.6
L 219.15 246.35
Q 219.95 257.15 219.5 269.1 Z"/>
</g>

<g id="Symbol_54_0_Layer0_0_MEMBER_72_FILL">
<path fill="#232323" stroke="none" d="
M 139.3 281.75
Q 138.7 287.15 140.45 294.5 142.45 302.95 146.75 309.35 150.05 297.7 158.6 286.15 166.55 275.45 170.7 275 195.35 272.2 201.3 255.85 208.05 237.2 194.65 193.95 183.85 199.05 175.25 206.7 167.1 214 156.4 227.6 146.3 240.5 143.35 251.65 141.9 257.05 139.3 281.75
M 178.95 241.6
Q 187.75 238.75 191.85 242.35 195.15 245.2 194.7 251.3 194.25 256.3 191.55 260.15 187.35 266.2 179.35 264.95 173.15 264.05 169.45 265
L 167 266.15
Q 166.95 255.05 170.55 248.7 173.55 243.3 178.95 241.6 Z"/>
</g>

<g id="Symbol_54_0_Layer0_0_MEMBER_73_MEMBER_0_FILL">
<path fill="#9E845E" stroke="none" d="
M 195.25 192
Q 194.65 193.4 194.65 193.95 195.95 198.25 199.65 199.9 201.5 200.75 203.05 200.7 209.65 200.1 215.2 194.8 226.25 184.25 221.05 161 220.55 158.65 219.25 158.7 217.95 158.8 217.35 161.65 214.75 174.25 212.9 177.7 208.75 185.55 199.25 185.05 196.4 189.2 195.25 192 Z"/>
</g>

<g id="Symbol_54_0_Layer0_0_MEMBER_73_MEMBER_1_FILL">
<path fill="#C4AB78" stroke="none" d="
M 194.2 189.7
Q 194 192.05 194.65 193.95 201.65 193.95 208.4 189.95 221.8 182 220.3 162.15 220.1 159.7 219.05 159.3 217.9 158.85 217.35 161.65 215.05 172.85 212.7 176.55 208.45 183.3 198.8 182.75 194.6 185.05 194.2 189.7 Z"/>
</g>

<g id="Symbol_54_0_Layer0_0_MEMBER_74_FILL">
<path fill="#4F4E4E" stroke="none" d="
M 188.65 246.8
Q 185.8 243.85 181.55 243.85 177.3 243.85 174.45 246.8 171.55 249.7 171.55 253.95 171.55 258.2 174.45 261.1 177.3 264.05 181.55 264.05 185.8 264.05 188.65 261.1 191.55 258.2 191.55 253.95 191.55 249.7 188.65 246.8 Z"/>
</g>

<g id="Symbol_54_0_Layer0_0_MEMBER_75_FILL">
<path fill="#000000" stroke="none" d="
M 187.65 247.45
Q 185.1 244.95 181.55 244.95 178 244.95 175.45 247.45 172.95 250 172.95 253.55 172.95 257.1 175.45 259.65 178 262.2 181.55 262.2 185.1 262.2 187.65 259.65 190.2 257.1 190.2 253.55 190.2 250 187.65 247.45 Z"/>
</g>

<g id="Symbol_54_0_Layer0_0_MEMBER_76_FILL">
<path fill="#FFFFFF" stroke="none" d="
M 186.15 249.6
Q 186.15 248.6 185.45 247.85 184.7 247.15 183.7 247.15 182.7 247.15 181.95 247.85 181.25 248.6 181.25 249.6 181.25 250.6 181.95 251.35 182.7 252.05 183.7 252.05 184.7 252.05 185.45 251.35 186.15 250.6 186.15 249.6 Z"/>
</g>

<g id="Symbol_54_0_Layer0_0_MEMBER_77_FILL">
<path fill="#000000" stroke="none" d="
M 246.7 556.7
Q 247.75 560.85 249.95 564.1 252.5 567.75 255.6 568.5 261.25 570 263.7 565.2 258.4 563.5 252.05 559.9
L 246.7 556.7 Z"/>
</g>

<g id="Symbol_54_0_Layer0_0_MEMBER_78_FILL">
<path fill="#000000" stroke="none" d="
M 256.85 250.3
Q 250.65 248.95 243.2 248.15 228.35 246.65 222.15 249.6 223.1 285.15 222.7 287.25 221.65 292.15 218.9 301.15 214.75 314.75 210.9 322.05 210.4 335.15 210.85 350.3 214.1 344.15 217.95 333.7 225.6 312.85 228.45 291.45 229.2 285 228.2 270.7
L 227 257.7 231.35 258
Q 236.55 258.45 240.5 259.5 248.25 261.5 257.55 258.9 266.8 256.3 267.7 252.05 265.1 251.75 260.7 251
L 256.85 250.3 Z"/>
</g>

<g id="Symbol_54_0_Layer0_0_MEMBER_79_MEMBER_0_FILL">
<path fill="#0F0F0F" stroke="none" d="
M 279.9 204.3
Q 277.45 199.8 267.75 198.4 258.9 197.15 250.5 199.1 240.65 201.3 229.35 211.55 224.05 216.55 221.7 218.5 217.85 221.7 215.2 222.2
L 214.25 224.55
Q 213.3 227.55 213.25 230.75 213.1 241.05 222.15 249.6
L 227.65 250.2
Q 234.25 251.05 239.75 252.55 253.65 256.5 262.65 244.7 270.1 234.85 275.8 222.65 282.3 208.7 279.9 204.3 Z"/>
</g>

<g id="Symbol_54_0_Layer0_0_MEMBER_79_MEMBER_1_FILL">
<path fill="#000000" stroke="none" d="
M 279.9 204.3
Q 277.45 199.8 267.75 198.4 258.9 197.15 250.5 199.1 240.65 201.3 229.35 211.55 224.05 216.55 221.7 218.5 217.85 221.7 215.2 222.2
L 214.4 224.1
Q 213.55 226.55 213.4 229.3 212.85 238.05 219.15 246.35 230.5 244 237.8 235.7 241.15 231.9 246.65 221.6 255 206.1 268.35 203.75 275 202.6 279.9 204.3 Z"/>
</g>

<g id="Symbol_54_0_Layer0_0_MEMBER_79_MEMBER_2_FILL">
<path fill="#232323" stroke="none" d="
M 279.9 204.3
Q 277.45 199.75 267.7 198.25 258.75 196.9 250.4 198.75 240.55 201 229.35 211.4 224.05 216.5 221.7 218.45 217.85 221.7 215.2 222.2
L 214.35 224.05
Q 213.5 226.5 213.5 229.4 223.95 230.15 232.25 222.55 232.85 222 239.15 215.5 243.45 211.1 246.95 208.75 254.75 203.55 262.25 201.8 272.5 199.45 279.9 204.35
L 279.9 204.3 Z"/>
</g>
</defs>

<g transform="matrix( 1, 0, 0, 1, 227.5,135.9) ">
<g transform="matrix( 0.871978759765625, 0, 0, 0.871978759765625, 14.75,82.35) ">
<g transform="matrix( 1.5068359375, 0, 0, 1.5068359375, -14.85,14.7) ">
<g filter="url(#Filter_1)" transform="matrix( 0.761077880859375, 0, 0, 0.761077880859375, -174.5,-175.85) ">
<g transform="matrix( 1.313934326171875, 0, 0, 1.313934326171875, 229.3,231.05) ">
<g transform="matrix( 0.31500244140625, 0, 0, 0.31500244140625, -157.8,-156.55) ">
<use xlink:href="#Symbol_54_0_Layer0_0_MEMBER_0_MEMBER_0_FILL"/>
</g>

<g transform="matrix( 0.31500244140625, 0, 0, 0.31500244140625, -157.8,-156.55) ">
<use xlink:href="#Symbol_54_0_Layer0_0_MEMBER_0_MEMBER_1_FILL"/>
</g>

<g transform="matrix( 0.31500244140625, 0, 0, 0.31500244140625, -157.8,-156.55) ">
<use xlink:href="#Symbol_54_0_Layer0_0_MEMBER_1_FILL"/>
</g>

<g transform="matrix( 0.31500244140625, 0, 0, 0.31500244140625, -157.8,-156.55) ">
<use xlink:href="#Symbol_54_0_Layer0_0_MEMBER_2_FILL"/>
</g>

<g transform="matrix( 0.31500244140625, 0, 0, 0.31500244140625, -157.8,-156.55) ">
<use xlink:href="#Symbol_54_0_Layer0_0_MEMBER_3_FILL"/>
</g>

<g transform="matrix( 0.31500244140625, 0, 0, 0.31500244140625, -157.8,-156.55) ">
<use xlink:href="#Symbol_54_0_Layer0_0_MEMBER_4_FILL"/>
</g>

<g transform="matrix( 0.31500244140625, 0, 0, 0.31500244140625, -157.8,-156.55) ">
<use xlink:href="#Symbol_54_0_Layer0_0_MEMBER_5_FILL"/>
</g>

<g transform="matrix( 0.31500244140625, 0, 0, 0.31500244140625, -157.8,-156.55) ">
<use xlink:href="#Symbol_54_0_Layer0_0_MEMBER_6_FILL"/>
</g>

<g transform="matrix( 0.31500244140625, 0, 0, 0.31500244140625, -157.8,-156.55) ">
<use xlink:href="#Symbol_54_0_Layer0_0_MEMBER_7_FILL"/>
</g>

<g transform="matrix( 0.31500244140625, 0, 0, 0.31500244140625, -157.8,-156.55) ">
<use xlink:href="#Symbol_54_0_Layer0_0_MEMBER_8_FILL"/>
</g>

<g transform="matrix( 0.31500244140625, 0, 0, 0.31500244140625, -157.8,-156.55) ">
<use xlink:href="#Symbol_54_0_Layer0_0_MEMBER_9_FILL"/>
</g>

<g transform="matrix( 0.31500244140625, 0, 0, 0.31500244140625, -157.8,-156.55) ">
<use xlink:href="#Symbol_54_0_Layer0_0_MEMBER_10_FILL"/>
</g>

<g transform="matrix( 0.31500244140625, 0, 0, 0.31500244140625, -157.8,-156.55) ">
<use xlink:href="#Symbol_54_0_Layer0_0_MEMBER_11_FILL"/>
</g>

<g transform="matrix( 0.31500244140625, 0, 0, 0.31500244140625, -157.8,-156.55) ">
<use xlink:href="#Symbol_54_0_Layer0_0_MEMBER_12_FILL"/>
</g>

<g transform="matrix( 0.31500244140625, 0, 0, 0.31500244140625, -157.8,-156.55) ">
<use xlink:href="#Symbol_54_0_Layer0_0_MEMBER_13_FILL"/>
</g>

<g transform="matrix( 0.31500244140625, 0, 0, 0.31500244140625, -157.8,-156.55) ">
<use xlink:href="#Symbol_54_0_Layer0_0_MEMBER_14_FILL"/>
</g>

<g transform="matrix( 0.31500244140625, 0, 0, 0.31500244140625, -157.8,-156.55) ">
<use xlink:href="#Symbol_54_0_Layer0_0_MEMBER_15_FILL"/>
</g>

<g transform="matrix( 0.31500244140625, 0, 0, 0.31500244140625, -157.8,-156.55) ">
<use xlink:href="#Symbol_54_0_Layer0_0_MEMBER_16_FILL"/>
</g>

<g transform="matrix( 0.31500244140625, 0, 0, 0.31500244140625, -157.8,-156.55) ">
<use xlink:href="#Symbol_54_0_Layer0_0_MEMBER_17_FILL"/>
</g>

<g transform="matrix( 0.31500244140625, 0, 0, 0.31500244140625, -157.8,-156.55) ">
<use xlink:href="#Symbol_54_0_Layer0_0_MEMBER_18_FILL"/>
</g>

<g transform="matrix( 0.31500244140625, 0, 0, 0.31500244140625, -157.8,-156.55) ">
<use xlink:href="#Symbol_54_0_Layer0_0_MEMBER_19_FILL"/>
</g>

<g transform="matrix( 0.31500244140625, 0, 0, 0.31500244140625, -157.8,-156.55) ">
<use xlink:href="#Symbol_54_0_Layer0_0_MEMBER_20_FILL"/>
</g>

<g transform="matrix( 0.31500244140625, 0, 0, 0.31500244140625, -157.8,-156.55) ">
<use xlink:href="#Symbol_54_0_Layer0_0_MEMBER_21_FILL"/>
</g>

<g transform="matrix( 0.31500244140625, 0, 0, 0.31500244140625, -157.8,-156.55) ">
<use xlink:href="#Symbol_54_0_Layer0_0_MEMBER_22_FILL"/>
</g>

<g transform="matrix( 0.31500244140625, 0, 0, 0.31500244140625, -157.8,-156.55) ">
<use xlink:href="#Symbol_54_0_Layer0_0_MEMBER_23_FILL"/>
</g>

<g transform="matrix( 0.31500244140625, 0, 0, 0.31500244140625, -157.8,-156.55) ">
<use xlink:href="#Symbol_54_0_Layer0_0_MEMBER_24_FILL"/>
</g>

<g transform="matrix( 0.31500244140625, 0, 0, 0.31500244140625, -157.8,-156.55) ">
<use xlink:href="#Symbol_54_0_Layer0_0_MEMBER_25_FILL"/>
</g>

<g transform="matrix( 0.31500244140625, 0, 0, 0.31500244140625, -157.8,-156.55) ">
<use xlink:href="#Symbol_54_0_Layer0_0_MEMBER_26_FILL"/>
</g>

<g transform="matrix( 0.31500244140625, 0, 0, 0.31500244140625, -157.8,-156.55) ">
<use xlink:href="#Symbol_54_0_Layer0_0_MEMBER_27_FILL"/>
</g>

<g transform="matrix( 0.31500244140625, 0, 0, 0.31500244140625, -157.8,-156.55) ">
<use xlink:href="#Symbol_54_0_Layer0_0_MEMBER_28_FILL"/>
</g>

<g transform="matrix( 0.31500244140625, 0, 0, 0.31500244140625, -157.8,-156.55) ">
<use xlink:href="#Symbol_54_0_Layer0_0_MEMBER_29_FILL"/>
</g>

<g transform="matrix( 0.31500244140625, 0, 0, 0.31500244140625, -157.8,-156.55) ">
<use xlink:href="#Symbol_54_0_Layer0_0_MEMBER_30_FILL"/>
</g>

<g transform="matrix( 0.31500244140625, 0, 0, 0.31500244140625, -157.8,-156.55) ">
<use xlink:href="#Symbol_54_0_Layer0_0_MEMBER_31_FILL"/>
</g>

<g transform="matrix( 0.31500244140625, 0, 0, 0.31500244140625, -157.8,-156.55) ">
<use xlink:href="#Symbol_54_0_Layer0_0_MEMBER_32_FILL"/>
</g>

<g transform="matrix( 0.31500244140625, 0, 0, 0.31500244140625, -157.8,-156.55) ">
<use xlink:href="#Symbol_54_0_Layer0_0_MEMBER_33_FILL"/>
</g>

<g transform="matrix( 0.31500244140625, 0, 0, 0.31500244140625, -157.8,-156.55) ">
<use xlink:href="#Symbol_54_0_Layer0_0_MEMBER_34_FILL"/>
</g>

<g transform="matrix( 0.31500244140625, 0, 0, 0.31500244140625, -157.8,-156.55) ">
<use xlink:href="#Symbol_54_0_Layer0_0_MEMBER_35_FILL"/>
</g>

<g transform="matrix( 0.31500244140625, 0, 0, 0.31500244140625, -157.8,-156.55) ">
<use xlink:href="#Symbol_54_0_Layer0_0_MEMBER_36_FILL"/>
</g>

<g transform="matrix( 0.31500244140625, 0, 0, 0.31500244140625, -157.8,-156.55) ">
<use xlink:href="#Symbol_54_0_Layer0_0_MEMBER_37_FILL"/>
</g>

<g transform="matrix( 0.31500244140625, 0, 0, 0.31500244140625, -157.8,-156.55) ">
<use xlink:href="#Symbol_54_0_Layer0_0_MEMBER_38_FILL"/>
</g>

<g transform="matrix( 0.31500244140625, 0, 0, 0.31500244140625, -157.8,-156.55) ">
<use xlink:href="#Symbol_54_0_Layer0_0_MEMBER_39_FILL"/>
</g>

<g transform="matrix( 0.31500244140625, 0, 0, 0.31500244140625, -157.8,-156.55) ">
<use xlink:href="#Symbol_54_0_Layer0_0_MEMBER_40_FILL"/>
</g>

<g transform="matrix( 0.31500244140625, 0, 0, 0.31500244140625, -157.8,-156.55) ">
<use xlink:href="#Symbol_54_0_Layer0_0_MEMBER_41_FILL"/>
</g>

<g transform="matrix( 0.31500244140625, 0, 0, 0.31500244140625, -157.8,-156.55) ">
<use xlink:href="#Symbol_54_0_Layer0_0_MEMBER_42_FILL"/>
</g>

<g transform="matrix( 0.31500244140625, 0, 0, 0.31500244140625, -157.8,-156.55) ">
<use xlink:href="#Symbol_54_0_Layer0_0_MEMBER_43_FILL"/>
</g>

<g transform="matrix( 0.31500244140625, 0, 0, 0.31500244140625, -157.8,-156.55) ">
<use xlink:href="#Symbol_54_0_Layer0_0_MEMBER_44_FILL"/>
</g>

<g transform="matrix( 0.31500244140625, 0, 0, 0.31500244140625, -157.8,-156.55) ">
<use xlink:href="#Symbol_54_0_Layer0_0_MEMBER_45_FILL"/>
</g>

<g transform="matrix( 0.31500244140625, 0, 0, 0.31500244140625, -157.8,-156.55) ">
<use xlink:href="#Symbol_54_0_Layer0_0_MEMBER_46_FILL"/>
</g>

<g transform="matrix( 0.31500244140625, 0, 0, 0.31500244140625, -157.8,-156.55) ">
<use xlink:href="#Symbol_54_0_Layer0_0_MEMBER_47_MEMBER_0_FILL"/>
</g>

<g transform="matrix( 0.31500244140625, 0, 0, 0.31500244140625, -157.8,-156.55) ">
<use xlink:href="#Symbol_54_0_Layer0_0_MEMBER_47_MEMBER_1_FILL"/>
</g>

<g transform="matrix( 0.31500244140625, 0, 0, 0.31500244140625, -157.8,-156.55) ">
<use xlink:href="#Symbol_54_0_Layer0_0_MEMBER_47_MEMBER_2_FILL"/>
</g>

<g transform="matrix( 0.31500244140625, 0, 0, 0.31500244140625, -157.8,-156.55) ">
<use xlink:href="#Symbol_54_0_Layer0_0_MEMBER_48_MEMBER_0_FILL"/>
</g>

<g transform="matrix( 0.31500244140625, 0, 0, 0.31500244140625, -157.8,-156.55) ">
<use xlink:href="#Symbol_54_0_Layer0_0_MEMBER_48_MEMBER_1_FILL"/>
</g>

<g transform="matrix( 0.31500244140625, 0, 0, 0.31500244140625, -157.8,-156.55) ">
<use xlink:href="#Symbol_54_0_Layer0_0_MEMBER_49_FILL"/>
</g>

<g transform="matrix( 0.31500244140625, 0, 0, 0.31500244140625, -157.8,-156.55) ">
<use xlink:href="#Symbol_54_0_Layer0_0_MEMBER_50_FILL"/>
</g>

<g transform="matrix( 0.31500244140625, 0, 0, 0.31500244140625, -157.8,-156.55) ">
<use xlink:href="#Symbol_54_0_Layer0_0_MEMBER_51_FILL"/>
</g>

<g transform="matrix( 0.31500244140625, 0, 0, 0.31500244140625, -157.8,-156.55) ">
<use xlink:href="#Symbol_54_0_Layer0_0_MEMBER_52_FILL"/>
</g>

<g transform="matrix( 0.31500244140625, 0, 0, 0.31500244140625, -157.8,-156.55) ">
<use xlink:href="#Symbol_54_0_Layer0_0_MEMBER_53_FILL"/>
</g>

<g transform="matrix( 0.31500244140625, 0, 0, 0.31500244140625, -157.8,-156.55) ">
<use xlink:href="#Symbol_54_0_Layer0_0_MEMBER_54_FILL"/>
</g>

<g transform="matrix( 0.31500244140625, 0, 0, 0.31500244140625, -157.8,-156.55) ">
<use xlink:href="#Symbol_54_0_Layer0_0_MEMBER_55_FILL"/>
</g>

<g transform="matrix( 0.31500244140625, 0, 0, 0.31500244140625, -157.8,-156.55) ">
<use xlink:href="#Symbol_54_0_Layer0_0_MEMBER_56_FILL"/>
</g>

<g transform="matrix( 0.31500244140625, 0, 0, 0.31500244140625, -157.8,-156.55) ">
<use xlink:href="#Symbol_54_0_Layer0_0_MEMBER_57_FILL"/>
</g>

<g transform="matrix( 0.31500244140625, 0, 0, 0.31500244140625, -157.8,-156.55) ">
<use xlink:href="#Symbol_54_0_Layer0_0_MEMBER_58_FILL"/>
</g>

<g transform="matrix( 0.31500244140625, 0, 0, 0.31500244140625, -157.8,-156.55) ">
<use xlink:href="#Symbol_54_0_Layer0_0_MEMBER_59_FILL"/>
</g>

<g transform="matrix( 0.31500244140625, 0, 0, 0.31500244140625, -157.8,-156.55) ">
<use xlink:href="#Symbol_54_0_Layer0_0_MEMBER_60_FILL"/>
</g>

<g transform="matrix( 0.31500244140625, 0, 0, 0.31500244140625, -157.8,-156.55) ">
<use xlink:href="#Symbol_54_0_Layer0_0_MEMBER_61_FILL"/>
</g>

<g transform="matrix( 0.31500244140625, 0, 0, 0.31500244140625, -157.8,-156.55) ">
<use xlink:href="#Symbol_54_0_Layer0_0_MEMBER_62_FILL"/>
</g>

<g transform="matrix( 0.31500244140625, 0, 0, 0.31500244140625, -157.8,-156.55) ">
<use xlink:href="#Symbol_54_0_Layer0_0_MEMBER_63_FILL"/>
</g>

<g transform="matrix( 0.31500244140625, 0, 0, 0.31500244140625, -157.8,-156.55) ">
<use xlink:href="#Symbol_54_0_Layer0_0_MEMBER_64_FILL"/>
</g>

<g transform="matrix( 0.31500244140625, 0, 0, 0.31500244140625, -157.8,-156.55) ">
<use xlink:href="#Symbol_54_0_Layer0_0_MEMBER_65_FILL"/>
</g>

<g transform="matrix( 0.31500244140625, 0, 0, 0.31500244140625, -157.8,-156.55) ">
<use xlink:href="#Symbol_54_0_Layer0_0_MEMBER_66_FILL"/>
</g>

<g transform="matrix( 0.31500244140625, 0, 0, 0.31500244140625, -157.8,-156.55) ">
<use xlink:href="#Symbol_54_0_Layer0_0_MEMBER_67_FILL"/>
</g>

<g transform="matrix( 0.31500244140625, 0, 0, 0.31500244140625, -157.8,-156.55) ">
<use xlink:href="#Symbol_54_0_Layer0_0_MEMBER_68_FILL"/>
</g>

<g transform="matrix( 0.31500244140625, 0, 0, 0.31500244140625, -157.8,-156.55) ">
<use xlink:href="#Symbol_54_0_Layer0_0_MEMBER_69_FILL"/>
</g>

<g transform="matrix( 0.31500244140625, 0, 0, 0.31500244140625, -157.8,-156.55) ">
<use xlink:href="#Symbol_54_0_Layer0_0_MEMBER_70_FILL"/>
</g>

<g transform="matrix( 0.31500244140625, 0, 0, 0.31500244140625, -157.8,-156.55) ">
<use xlink:href="#Symbol_54_0_Layer0_0_MEMBER_71_FILL"/>
</g>

<g transform="matrix( 0.31500244140625, 0, 0, 0.31500244140625, -157.8,-156.55) ">
<use xlink:href="#Symbol_54_0_Layer0_0_MEMBER_72_FILL"/>
</g>

<g transform="matrix( 0.31500244140625, 0, 0, 0.31500244140625, -157.8,-156.55) ">
<use xlink:href="#Symbol_54_0_Layer0_0_MEMBER_73_MEMBER_0_FILL"/>
</g>

<g transform="matrix( 0.31500244140625, 0, 0, 0.31500244140625, -157.8,-156.55) ">
<use xlink:href="#Symbol_54_0_Layer0_0_MEMBER_73_MEMBER_1_FILL"/>
</g>

<g transform="matrix( 0.31500244140625, 0, 0, 0.31500244140625, -157.8,-156.55) ">
<use xlink:href="#Symbol_54_0_Layer0_0_MEMBER_74_FILL"/>
</g>

<g transform="matrix( 0.31500244140625, 0, 0, 0.31500244140625, -157.8,-156.55) ">
<use xlink:href="#Symbol_54_0_Layer0_0_MEMBER_75_FILL"/>
</g>

<g transform="matrix( 0.31500244140625, 0, 0, 0.31500244140625, -157.8,-156.55) ">
<use xlink:href="#Symbol_54_0_Layer0_0_MEMBER_76_FILL"/>
</g>

<g transform="matrix( 0.31500244140625, 0, 0, 0.31500244140625, -157.8,-156.55) ">
<use xlink:href="#Symbol_54_0_Layer0_0_MEMBER_77_FILL"/>
</g>

<g transform="matrix( 0.31500244140625, 0, 0, 0.31500244140625, -157.8,-156.55) ">
<use xlink:href="#Symbol_54_0_Layer0_0_MEMBER_78_FILL"/>
</g>

<g transform="matrix( 0.31500244140625, 0, 0, 0.31500244140625, -157.8,-156.55) ">
<use xlink:href="#Symbol_54_0_Layer0_0_MEMBER_79_MEMBER_0_FILL"/>
</g>

<g transform="matrix( 0.31500244140625, 0, 0, 0.31500244140625, -157.8,-156.55) ">
<use xlink:href="#Symbol_54_0_Layer0_0_MEMBER_79_MEMBER_1_FILL"/>
</g>

<g transform="matrix( 0.31500244140625, 0, 0, 0.31500244140625, -157.8,-156.55) ">
<use xlink:href="#Symbol_54_0_Layer0_0_MEMBER_79_MEMBER_2_FILL"/>
</g>
</g>
</g>
</g>
</g>
</g>
</svg>
