
<svg xmlns="http://www.w3.org/2000/svg" version="1.1" xmlns:xlink="http://www.w3.org/1999/xlink" preserveAspectRatio="none" x="0px" y="0px" width="455px" height="457px" viewBox="0 0 455 457">
<defs>
<filter id="Filter_1" x="-20%" y="-20%" width="140%" height="140%" color-interpolation-filters="sRGB">
<feFlood flood-color="#000000" flood-opacity="1" in="SourceGraphic" result="result1"/>

<feComposite in2="SourceGraphic" in="result1" operator="in" result="result2"/>

<feGaussianBlur in="result2" stdDeviation="4.333333333333333,4.333333333333333" result="result3"/>

<feOffset dx="0" dy="0" in="result3" result="result4"/>

<feComposite in2="result4" in="SourceGraphic" operator="over" result="result5"/>
</filter>

<g id="Symbol_56_0_Layer0_0_MEMBER_0_FILL">
<path fill="#AC621F" stroke="none" d="
M 267.9 236.9
L 270.6 246.65
Q 271.1 248.35 271.85 252.5 272.7 256.15 274 257.9 275.45 259.9 278.35 260.55 280.8 261.15 283.7 260.65 285.1 260.4 286.15 259.55 287.3 258.65 287.4 257.35 287.55 256.1 286.55 255 285.55 253.95 284.2 253.7 282.45 253.65 281.6 253.45 279.3 252.85 278.45 250 277.95 248.3 278.15 245.15 278.6 234.75 277.85 224.45
L 269.55 232.4
Q 267.7 234.05 267.65 235.4 267.65 235.65 267.9 236.9 Z"/>
</g>

<g id="Symbol_56_0_Layer0_0_MEMBER_1_FILL">
<path fill="#D2C7BD" stroke="none" d="
M 274 257.9
Q 275.45 259.9 278.35 260.55 280.8 261.15 283.7 260.65 285.1 260.4 286.15 259.55 287.3 258.65 287.4 257.35 287.55 256.1 286.55 255 285.55 253.95 284.2 253.7 283.7 253.6 282.6 253.6 282.4 254.35 281.6 254.85 280.95 255.25 279.55 255.65
L 273.8 257.6 274 257.9 Z"/>
</g>

<g id="Symbol_56_0_Layer0_0_MEMBER_2_FILL">
<path fill="#F3A145" stroke="none" d="
M 276.85 162.05
Q 274 160.75 269.05 161.3 261.5 162.25 260.8 162.45 254.65 164.35 254.35 169.9 254.05 175.25 255.35 178.4 256 180.1 257 181.8 257.4 183.65 256.5 187.05 255.45 191.05 253.5 192 253 192.25 244.35 194.85 236.9 197.05 235 198.85 228.55 203.15 223.4 207.5 213.5 215.9 210 225.75 200.3 252.7 207.2 257.6 210.55 260 219.7 261.75 227.35 263.15 230.65 263 232.2 262.95 243.45 262.8 254.15 262.35 255.25 260.8 256.4 259.2 256.5 257.55 256.55 256.35 256.1 255.45 255.7 254.65 254.25 253.65 252.65 252.55 251.45 252.65 250.6 252.75 247.25 254 243.8 255.3 242.7 255.45 240.95 255.65 240.45 254.7 239.9 253.6 241.4 251.65 245.25 247.15 247.8 244.05 252.55 238.2 252.75 236.65 252.95 235.1 257.2 243.3 260.4 249.5 261.9 252.95 262.3 253.75 264.15 259.1 266.15 264.2 267.9 264.75 270.55 265.55 274.1 265.3 278.2 264.95 277.95 263 277.4 259.5 274 257.9 272.9 257.4 269.9 248.7 267 240.2 267 238.25 267 236.95 272.05 232.35 277.85 227.05 278.65 225.9 280.9 222.6 283.4 215.35 286.4 206.5 285.95 201 285.55 196.6 283.6 190.8 281.85 185.45 281.85 183.55 282.65 178.7 283.05 175.8 283.85 170.45 282 167.25 279.7 163.35 276.85 162.05 Z"/>
</g>

<g id="Symbol_56_0_Layer0_0_MEMBER_3_FILL">
<path fill="#DF8022" stroke="none" d="
M 253.45 223.05
Q 253.7 222.4 254.7 220.1 256.55 215.85 240.65 217.05 235.15 217.45 230.6 218.25 226.25 219.05 228.25 219.2 233.55 219.55 235.15 219.85 238.45 220.5 240.8 222.3 243.6 224.4 246.05 229.45 249.6 236.7 248 243.8 252.55 238.25 252.75 236.65 252.85 236.4 252.95 236.4 252.1 234.85 251.95 234.4 251 231.95 252.2 227.5 253.15 224.05 253.45 223.05 Z"/>
</g>

<g id="Symbol_56_0_Layer0_0_MEMBER_4_MEMBER_0_FILL">
<path fill="#F3A158" stroke="none" d="
M 281.75 153.55
Q 279.9 154.4 277.85 157.45 277.1 158.5 274.2 161.6 273.9 161.9 275.5 162.95 278.1 164.75 278.8 165.35 279.45 165.9 281.35 167.85 282.4 168.95 282.65 168.6 283.35 167.4 283.85 163.5 284.45 159.05 284.1 155.05 284 153.95 283.55 153.55 282.9 153.05 281.75 153.55 Z"/>
</g>

<g id="Symbol_56_0_Layer0_0_MEMBER_4_MEMBER_1_FILL">
<path fill="#FFCAA3" stroke="none" d="
M 276.65 163.25
Q 279.35 165 281 167 281.8 167.95 282.35 168.6 282.95 168.65 283.7 161.75 284.45 154.75 283.25 153.9 282.3 153.25 279.55 157.65 278.35 159.45 276.65 163.25 Z"/>
</g>

<g id="Symbol_56_0_Layer0_0_MEMBER_4_MEMBER_2_FILL">
<path fill="#F3A158" stroke="none" d="
M 261.15 160.55
Q 260.6 160.1 257.85 157.7 255.3 155.5 252.5 154.55 252 154.4 251.7 154.65 251.5 154.85 251.5 155.15 250.3 162.35 253.3 169.1 253.7 170.05 254.15 170.5 254.7 171.15 254.95 170.35 255.35 169 257.35 166.55 259.9 163.5 262.5 162.45 263 162.3 261.15 160.55 Z"/>
</g>

<g id="Symbol_56_0_Layer0_0_MEMBER_4_MEMBER_3_FILL">
<path fill="#FFCAA3" stroke="none" d="
M 257.5 166.1
Q 259.9 163.45 260.9 163.05 256.55 159.6 252.25 155.15 251.65 154.5 251.55 157.45 251.5 160.4 252 163.5 252.5 166.3 253.45 168.4 254.35 170.35 254.7 169.8 255.35 168.55 257.5 166.1 Z"/>
</g>

<g id="Symbol_56_0_Layer0_0_MEMBER_5_MEMBER_0_FILL">
<path fill="#C36814" stroke="none" d="
M 266.3 169.55
Q 265.35 168.6 264 168.6 262.55 168.55 260.85 169.95 260.3 170.35 259.35 171.3 258.95 171.7 258.9 171.95 258.8 172.35 259.2 172.95 260.6 175 263.05 175.15 265.55 175.4 267.3 173.65 267.9 173.05 267.95 172.6 267.95 172.25 267.75 171.65 267.25 170.35 266.3 169.55 Z"/>
</g>

<g id="Symbol_56_0_Layer0_0_MEMBER_5_MEMBER_1_FILL">
<path fill="#C0C02F" stroke="none" d="
M 266.55 172.45
Q 266.55 171.45 265.95 170.6 265.25 169.55 264.2 169.55 263.1 169.55 262.05 170.3 261.1 171.05 260.9 171.8 261.15 172.65 261.85 173.2 262.6 173.85 263.7 173.85 264.8 173.85 265.65 173.4 266.45 172.95 266.55 172.45 Z"/>
</g>

<g id="Symbol_56_0_Layer0_0_MEMBER_5_MEMBER_2_FILL">
<path fill="#000000" stroke="none" d="
M 262.55 171.95
Q 262.65 172.65 263.15 172.95 263.55 173.2 264.1 173 264.45 172.9 264.85 172.4 265.35 171.55 264.95 170.7 264.5 169.7 263.5 169.8 263.15 169.8 262.9 170.1 262.75 170.25 262.65 170.7 262.5 171.35 262.55 171.95 Z"/>
</g>

<g id="Symbol_56_0_Layer0_0_MEMBER_5_MEMBER_3_FILL">
<path fill="#FFFFFF" stroke="none" d="
M 264.75 171.85
Q 265.1 172.05 265.2 171.65 265.45 171.4 265.25 171.1 265.05 170.8 264.7 170.95 264.5 171.25 264.5 171.45 264.5 171.75 264.75 171.85 Z"/>
</g>

<g id="Symbol_56_0_Layer0_0_MEMBER_6_MEMBER_0_FILL">
<path fill="#C36814" stroke="none" d="
M 273.35 167.85
Q 272.65 168.3 271.65 170 270.55 171.85 271.1 172.35 274.45 175.35 279.45 172.55 280.75 171.8 280.3 170.35 279.75 168.55 276.15 167.35 274.8 166.95 273.35 167.85 Z"/>
</g>

<g id="Symbol_56_0_Layer0_0_MEMBER_6_MEMBER_1_FILL">
<path fill="#C0C02F" stroke="none" d="
M 273.2 169.55
Q 272.6 170.45 272.6 171.45 272.75 171.9 273.5 172.35 274.35 172.8 275.45 172.8 276.55 172.8 277.3 172.15 278 171.6 278.25 170.75 278.05 170 277.1 169.3 276.05 168.5 274.95 168.5 273.9 168.5 273.2 169.55 Z"/>
</g>

<g id="Symbol_56_0_Layer0_0_MEMBER_6_MEMBER_2_FILL">
<path fill="#000000" stroke="none" d="
M 274.25 171.05
Q 274.35 171.75 274.85 172.1 275.3 172.3 275.8 172.15 276.35 171.85 276.55 171.5 277.1 170.7 276.7 169.8 276.3 168.85 275.25 168.95 274.85 168.95 274.6 169.2 274.45 169.4 274.35 169.85 274.25 170.85 274.25 171.05 Z"/>
</g>

<g id="Symbol_56_0_Layer0_0_MEMBER_6_MEMBER_3_FILL">
<path fill="#FFFFFF" stroke="none" d="
M 276.5 171
Q 276.9 171.15 276.9 170.8 277.2 170.5 277 170.25 276.75 169.9 276.45 170.1 276.25 170.25 276.25 170.55 276.25 170.9 276.5 171 Z"/>
</g>

<g id="Symbol_56_0_Layer0_0_MEMBER_7_MEMBER_0_FILL">
<path fill="#FFFFFF" stroke="none" d="
M 275.45 184.05
Q 276.6 183.4 276.55 182.7 274.25 180.75 271.25 180.65 268.25 180.5 265.8 182.4 265.55 182.55 265.5 182.8 265.35 183.05 265.7 183.5 266.2 184.15 267.2 184.6 267.8 184.9 269 185.35 269.6 185.6 271.2 185.6 272.85 185.6 273.45 185.25
L 275.45 184.05 Z"/>
</g>

<g id="Symbol_56_0_Layer0_0_MEMBER_7_MEMBER_1_FILL">
<path fill="#EEE8E5" stroke="none" d="
M 275.8 183.85
Q 276.6 183.3 276.55 182.7 274.25 180.75 271.25 180.65 268.25 180.5 265.8 182.4 265.55 182.55 265.5 182.8 265.35 183.05 265.7 183.5
L 266.05 183.9 266.6 183.9
Q 267 183.85 267.5 183.6 267.8 183.45 268.35 183.1 270.3 182.05 272.4 182.6 272.95 182.75 274.05 183.2 275.1 183.65 275.7 183.8
L 275.8 183.85 Z"/>
</g>

<g id="Symbol_56_0_Layer0_0_MEMBER_7_MEMBER_2_FILL">
<path fill="#FFFFFF" stroke="none" d="
M 262.6 179.35
Q 262.25 180.3 262.5 181.2 262.75 182.1 263.55 182.7 264.35 183.3 265.3 183.35 266.05 183.4 267 183 267.3 182.85 268.55 182.15 269.65 181.55 269.95 181.4 270.65 181.1 271.4 181.15 272.5 181.2 274.35 182.55 275.55 183.4 277 182.95 278.85 182.4 278.85 179.7 278.85 178.05 277.85 177.5 276.05 176.4 267.4 177.05 266.1 177.15 265.5 177.25 264.35 177.45 263.7 177.9 262.9 178.45 262.6 179.35 Z"/>
</g>

<g id="Symbol_56_0_Layer0_0_MEMBER_7_MEMBER_3_FILL">
<path fill="#A28E85" stroke="none" d="
M 276.45 182.65
Q 276.25 182.6 276.1 182.7 275.55 183.2 274.7 182.75 273.75 182.05 273.4 181.8 272.5 181.1 271.1 181.1
L 271 178.65
Q 271 178.5 270.8 178.55 270.55 178.55 270.55 178.7
L 270.65 181.15
Q 269.8 181.25 268.5 182.05 266 183.55 265.7 182.75 265.65 182.55 265.4 182.65 265.15 182.7 265.25 182.85 265.65 183.95 267.5 183 267.8 182.85 268.95 182.2 269.8 181.7 270.4 181.55 271.3 181.3 272.3 181.65 272.95 181.95 273.8 182.7 275.35 183.85 276.45 182.9 276.6 182.75 276.45 182.65 Z"/>
</g>

<g id="Symbol_56_0_Layer0_0_MEMBER_7_MEMBER_4_FILL">
<path fill="#F37B83" stroke="none" d="
M 269.15 178.2
Q 270.2 179.05 270.6 179.1 271.15 179.2 272.35 177.85 273.15 177.05 272.9 176.25 272.75 175.7 272.4 175.45 271.85 175.05 270.4 175.05 269.25 175.05 268.45 175.6 267.55 176.2 268 177.1 268.15 177.45 269.15 178.2 Z"/>
</g>

<g id="Symbol_56_0_Layer0_0_MEMBER_7_MEMBER_5_FILL">
<path fill="#FFA0AB" stroke="none" d="
M 268.55 176
L 271.85 176.15
Q 272.2 176.15 272.3 176.05 272.4 176 272.4 175.85 272.4 175.75 272.3 175.7 271.3 175.35 269.1 175.55
L 268.7 175.65
Q 268.5 175.85 268.55 176 Z"/>
</g>

<g id="Symbol_56_0_Layer0_0_MEMBER_8_FILL">
<path fill="#FFFFFF" stroke="none" d="
M 284.9 194.95
Q 283.85 194.8 281.8 194.7 274.85 194.25 270.95 202.1 268.55 206.9 267.85 212.95 267.65 214.5 266.9 219.5 266.25 223.55 266.1 226 265.65 232.5 267.45 237.15 268.45 235.65 273.1 231.4 277.8 227.15 278.65 225.9 280.9 222.6 283.4 215.35 286.4 206.5 285.95 201 285.7 198.15 284.9 194.95 Z"/>
</g>

<g id="Symbol_56_0_Layer0_0_MEMBER_9_MEMBER_0_FILL">
<path fill="#DF8022" stroke="none" d="
M 268.9 161.3
L 269.05 161.6
Q 269.25 161.9 269.6 162.2 269.9 162.5 269.85 163 269.7 164.55 270.55 163.8 271.75 162.6 271.45 161.1
L 269.05 161.3 268.9 161.3 Z"/>
</g>

<g id="Symbol_56_0_Layer0_0_MEMBER_9_MEMBER_1_FILL">
<path fill="#DF8022" stroke="none" d="
M 255.1 176.35
Q 256.05 175.8 257.05 175.95 258.7 175.95 258.1 175.45 256.45 174.1 254.4 174.05 254.55 175.65 254.75 176.5 255.05 176.4 255.1 176.35 Z"/>
</g>

<g id="Symbol_56_0_Layer0_0_MEMBER_9_MEMBER_2_FILL">
<path fill="#DF8022" stroke="none" d="
M 266.6 165.15
Q 267.4 165.7 267.7 166.75 268.3 168.95 268.55 168.15 269.55 165.35 267.8 162.9
L 266.7 161.45 264.9 161.65
Q 265 161.85 265.3 162.85 265.65 164.5 266.6 165.15 Z"/>
</g>

<g id="Symbol_56_0_Layer0_0_MEMBER_9_MEMBER_3_FILL">
<path fill="#DF8022" stroke="none" d="
M 279.9 174
Q 279.35 174.4 279.85 174.55 281.75 175 283.25 174.4 283.35 172.8 283.3 172 282.35 171.9 281.95 172.5 281.4 173.4 280.7 173.6 280.3 173.75 279.9 174 Z"/>
</g>

<g id="Symbol_56_0_Layer0_0_MEMBER_9_MEMBER_4_FILL">
<path fill="#DF8022" stroke="none" d="
M 283 176.3
Q 282.7 176.25 282.3 176.55 281.65 177.2 280.85 177.25 280.5 177.25 280.2 177.4 279.75 177.55 280.15 177.85 281.4 178.75 282.55 178.75
L 283 176.3 Z"/>
</g>

<g id="Symbol_56_0_Layer0_0_MEMBER_9_MEMBER_5_FILL">
<path fill="#DF8022" stroke="none" d="
M 260.3 178
Q 259.9 178.4 259 178.35 258.05 178.2 257.65 178.15 256.3 178 255.4 178.55 255.75 179.5 256.5 180.65
L 257 180.55
Q 259.15 180 259.75 179.65 260.7 179.1 260.75 178.6 260.75 178.4 260.6 178.15 260.45 177.85 260.3 178 Z"/>
</g>

<g id="Symbol_56_0_Layer0_0_MEMBER_9_MEMBER_6_FILL">
<path fill="#DF8022" stroke="none" d="
M 273.15 161.15
Q 272.5 162.5 272.85 163.2 273.25 164.1 273 164.85 272.85 165.25 272.8 165.8 272.75 166.55 273.15 166.2 275.1 164.7 275.1 162.25
L 275.05 161.4 273.15 161.15 Z"/>
</g>

<g id="Symbol_56_0_Layer0_0_MEMBER_10_MEMBER_0_FILL">
<path fill="#F3A145" stroke="none" d="
M 252.45 269.75
Q 250.6 269.4 247.9 269.2 244.8 269.05 243.25 268.9 234.35 268.2 225.95 264.85 217.5 261.45 210.55 255.85 207.7 253.55 206.45 251.7 204.6 249.05 204.9 246.2 203 249.5 203.15 253.65 203.35 257.6 205.3 261.1 208.9 267.45 216.95 271 222.35 273.4 232 274.9 238.25 275.8 239.7 276.05 244.05 276.8 247.3 277.7 253 279.3 255.35 282.2 255.75 282.7 256.5 283.65 257.15 284.45 257.9 284.75 259.1 285.2 260.35 284.45 261.55 283.75 262.2 282.45 263.15 280.45 262.65 278 262.15 275.7 260.55 273.9 257.8 270.8 252.45 269.75 Z"/>
</g>

<g id="Symbol_56_0_Layer0_0_MEMBER_10_MEMBER_1_MEMBER_0_FILL">
<path fill="#FBAE4F" stroke="none" d="
M 261.85 275.8
Q 261.15 275.6 260.95 275.15 260.45 273.85 258.45 274.65 257.1 275.25 255.95 276.25 254.85 277.25 255.05 278.35 255.3 280 255.15 280.6
L 254.85 281.65 255.35 282.2
Q 255.75 282.7 256.5 283.65 257.15 284.45 257.9 284.75 259.1 285.2 260.35 284.45 261.55 283.75 262.2 282.45 263.65 279.35 261.85 275.8 Z"/>
</g>

<g id="Symbol_56_0_Layer0_0_MEMBER_10_MEMBER_1_MEMBER_1_FILL">
<path fill="#FBAE4F" stroke="none" d="
M 240.3 274.45
Q 240.1 273.5 238.5 272.5 236.75 271.4 235.8 271.75 234.7 272.55 233.7 272.95 232.65 273.45 231.15 273.4 230.25 273.4 229.65 274.5
L 239.9 276.1
Q 240.45 275.05 240.3 274.45 Z"/>
</g>

<g id="Symbol_56_0_Layer0_0_MEMBER_10_MEMBER_1_MEMBER_2_FILL">
<path fill="#FBAE4F" stroke="none" d="
M 209.2 258.9
Q 208.75 258.25 208.35 258.6 207.7 259.25 207.2 260.55 206.4 262.55 206.3 262.7 208.95 266.35 213.1 268.95 213.65 268.7 214.75 268.5 215.65 268.25 215.8 267.2 216.1 265.25 215.15 263.8 214.45 262.85 212.65 261.55 211.95 261.05 211.4 259.65 211.1 258.95 210 259.5 209.7 259.65 209.2 258.9 Z"/>
</g>

<g id="Symbol_56_0_Layer0_0_MEMBER_10_MEMBER_1_MEMBER_3_FILL">
<path fill="#FBAE4F" stroke="none" d="
M 223.45 269.35
Q 224.4 270.6 225.1 271.05 226.15 271.7 227.15 271 228.15 270.3 230.25 270.45 231.45 270.5 231.85 268.35 231.85 268.4 231.9 268.35 231.95 267.85 232.65 267.05 227 265.5 221.8 263 222 263.15 222.35 263.45 222.55 263.7 222.3 263.75 222.25 263.75 221.5 263.7 220.85 263.65 220.75 263.8 223.3 269.1 223.45 269.35 Z"/>
</g>

<g id="Symbol_56_0_Layer0_0_MEMBER_10_MEMBER_1_MEMBER_4_FILL">
<path fill="#FBAE4F" stroke="none" d="
M 253.6 270
L 252.45 269.75
Q 250.6 269.4 247.9 269.2 244.8 269.05 243.25 268.9
L 241.55 268.75
Q 240.65 270.2 241.05 271.05 241.25 271.4 241.85 271.5 242.2 271.6 242.75 271.65 243.4 271.9 242.95 272.7 242.4 273.7 242.55 273.9 242.8 274.35 244.1 274.3 245.5 274.2 245.8 274.6 246.85 275.95 247.95 276.05 249 276.15 251 275.25 252.25 274.7 252.4 274 252.4 273 252.6 272.25 252.8 271.35 253.6 270 Z"/>
</g>

<g id="Symbol_56_0_Layer0_0_MEMBER_10_MEMBER_1_MEMBER_5_FILL">
<path fill="#FBAE4F" stroke="none" d="
M 206.75 256.45
Q 208.6 256.1 210.1 255.5 207.75 253.6 206.45 251.7 205.95 251 205.55 250.1
L 203.55 249.5
Q 202.75 253 203.6 256.7
L 203.95 256.8
Q 204.95 256.85 206.75 256.45 Z"/>
</g>

<g id="Symbol_56_0_Layer0_0_MEMBER_10_MEMBER_2_MEMBER_0_FILL">
<path fill="#DF8022" stroke="none" d="
M 216.45 270.8
Q 217.85 267.85 217.2 266.8 216.5 265.7 214.75 266.35 213.25 266.95 212 268.25 214.05 269.65 216.45 270.8 Z"/>
</g>

<g id="Symbol_56_0_Layer0_0_MEMBER_10_MEMBER_2_MEMBER_1_FILL">
<path fill="#DF8022" stroke="none" d="
M 257.5 276.55
Q 256.35 278.2 257.5 279 258.4 279.7 260.05 279.7 261.65 279.65 262.8 279 262.55 276.15 260.55 273.9
L 260.5 273.85
Q 258.45 275.2 257.5 276.55 Z"/>
</g>

<g id="Symbol_56_0_Layer0_0_MEMBER_10_MEMBER_2_MEMBER_2_FILL">
<path fill="#DF8022" stroke="none" d="
M 207.1 259.5
Q 205.7 259.25 204.55 259.5 204.85 260.4 205.3 261.1 206.35 262.9 207.3 264 208 263.1 208.3 262.05 208.75 262.2 209.7 262.5 210.608984375 262.787109375 211.2 263.3 211.2240234375 263.326171875 211.25 263.35 212.55 264.45 213.7 262.6 214.8 260.85 214.55 258.8 212.75 257.6 211.5 256.6 209.9 256.75 208.8 257.2 207.3 257.8 207.15 258.8
L 207.1 259.5 Z"/>
</g>

<g id="Symbol_56_0_Layer0_0_MEMBER_10_MEMBER_2_MEMBER_3_FILL">
<path fill="#DF8022" stroke="none" d="
M 261.25 283.8
Q 259.25 283.15 258.35 282.35 256.8 281 255.65 282.6 256.5 283.7 256.65 283.85 257.25 284.5 257.9 284.75 259.55 285.4 261.25 283.8 Z"/>
</g>

<g id="Symbol_56_0_Layer0_0_MEMBER_10_MEMBER_2_MEMBER_4_FILL">
<path fill="#DF8022" stroke="none" d="
M 251.55 277.2
Q 250.05 277.35 248.8 278.15 251.65 279.1 253.45 280.45 254.2 278.8 253.85 278.1 253.3 277.05 251.55 277.2 Z"/>
</g>

<g id="Symbol_56_0_Layer0_0_MEMBER_10_MEMBER_2_MEMBER_5_FILL">
<path fill="#DF8022" stroke="none" d="
M 216.55 260.1
Q 215.9 260.45 215.8 260.95 215.3 263.1 216.7 263.8 217.55 264.25 219.65 265.25 220.75 266.25 221.75 265.55 222.6 264.95 222.9 263.5 219.65 262 216.55 260.1 Z"/>
</g>

<g id="Symbol_56_0_Layer0_0_MEMBER_10_MEMBER_2_MEMBER_6_FILL">
<path fill="#DF8022" stroke="none" d="
M 232 274.9
L 233.45 275.1
Q 234 273.45 233.5 272.4 233.45 272.35 231.9 270.3 231.05 269.15 229.45 271.1 228.55 272.15 227.3 274.05 228.75 274.35 232 274.9 Z"/>
</g>

<g id="Symbol_56_0_Layer0_0_MEMBER_10_MEMBER_2_MEMBER_7_FILL">
<path fill="#DF8022" stroke="none" d="
M 224.5 272.6
Q 223.75 271.9 223.45 271.2
L 223.4 271.15
Q 223 270.25 221.85 270.6 220.8 271 219.85 272.15 222.2 272.95 225.65 273.75 225.55 273.65 224.5 272.6 Z"/>
</g>

<g id="Symbol_56_0_Layer0_0_MEMBER_10_MEMBER_2_MEMBER_8_FILL">
<path fill="#DF8022" stroke="none" d="
M 256.2 273.8
Q 258.3 274.05 258.75 273.45 259.1 273.05 259.25 272.65 257.15 271.05 254.05 270.15 252.6 271.7 253.7 273 254.15 273.6 256.2 273.8 Z"/>
</g>

<g id="Symbol_56_0_Layer0_0_MEMBER_10_MEMBER_2_MEMBER_9_FILL">
<path fill="#DF8022" stroke="none" d="
M 247.8 273.3
Q 249.95 273.2 250.35 272.5 251 271.45 250.85 270.7 250.8 270.3 250.25 269.45 248.4 269.2 245.95 269.1 243.65 271.2 245.15 272.8 245.7 273.4 247.8 273.3 Z"/>
</g>

<g id="Symbol_56_0_Layer0_0_MEMBER_10_MEMBER_2_MEMBER_10_FILL">
<path fill="#DF8022" stroke="none" d="
M 222.45 266.3
Q 221.8 267.6 222.7 268.35 223.55 269.05 225.1 269.3 226.85 269.6 227.55 268.8 228.65 267.6 228.6 266.85 228.55 266.4 227.9 265.55 226 264.9 224.4 264.15 223.05 265.15 222.45 266.3 Z"/>
</g>

<g id="Symbol_56_0_Layer0_0_MEMBER_10_MEMBER_2_MEMBER_11_FILL">
<path fill="#DF8022" stroke="none" d="
M 242.05 273.55
Q 241.6 272.6 240 273.3 237.9 274.3 236.65 275.55
L 242 276.45
Q 242.35 274.3 242.05 273.55 Z"/>
</g>

<g id="Symbol_56_0_Layer0_0_MEMBER_10_MEMBER_2_MEMBER_12_FILL">
<path fill="#DF8022" stroke="none" d="
M 234.25 269.35
Q 236.2 270.5 236.75 271.2 237.4 272 238.5 271.1 239.5 270.3 240.3 268.6 236.4 268.05 233.15 267.2 233 268.65 234.25 269.35 Z"/>
</g>

<g id="Symbol_56_0_Layer0_0_MEMBER_11_MEMBER_0_FILL">
<path fill="#FBAE4F" stroke="none" d="
M 239.2 222.4
Q 238 220.4 236.25 219.35 234.15 218.05 232.2 218.7 231.2 219.05 229.25 220.45 227.45 221.75 226.1 222 222.45 222.25 220.8 222.9 218.8 223.65 219.3 225 219.55 225.65 220.65 226.25 221.25 226.55 222.35 227.1 223.4 227.7 225.45 229.1 227.35 230.25 228.75 230.6 229.6 230.85 232.55 230.95 233.1 231 234.05 231.35 235.05 231.75 235.55 231.75 236.75 231.85 239.1 231.65 243.3 230.8 242.45 230.2 242.3673828125 230.139453125 242.3 230.05 241.6560546875 229.5234375 241.3 228.5 241.2 228.2 240.8 226.5 240.05 223.85 239.2 222.4 Z"/>
</g>

<g id="Symbol_56_0_Layer0_0_MEMBER_11_MEMBER_1_FILL">
<path fill="#FBAE4F" stroke="none" d="
M 240.9 208.05
Q 239.3 206.3 237.3 205.3 234.15 203.7 230.6 204.95 228.4 205.75 224.6 208.45 221.4 210.85 220.85 213.1 220.3 215.25 221.35 216.65 221.85 217.3 222.85 218.05 224.5 219.05 224.4 218.55 224.1 215.95 231.05 217.4 232.2 217.6 232.8 217.55 233.8 217.5 234.25 216.8 234.55 216.4 235.1 214.65 235.55 213.25 236.3 212.7 236.85 212.25 239.65 212.2 242 212.15 242.35 211.05 242.6 210.25 242.1 209.4 241.85 209.1 240.9 208.05 Z"/>
</g>

<g id="Symbol_56_0_Layer0_0_MEMBER_11_MEMBER_2_FILL">
<path fill="#FBAE4F" stroke="none" d="
M 251.3 196.45
Q 246.65 194.45 244.5 197.2 243.85 198.1 243.35 199.85 243.25 200 243.2 200.65 243.15 201.35 243.35 201.2 244.7 200.4 245.75 203.15 246.3 204.55 246.75 206.85 247 207.85 247.4 208.2 247.85 208.65 248.75 208.3 250.1 207.7 250.55 207.6 251.65 207.35 252.3 207.95 252.6 208.25 253.1 209.8 253.45 210.95 254.4 211.05 256 211.15 257.25 209.35 258.2 207.95 258.65 206.05 259.4 203.05 257.65 200.6 256.65 199.15 254.8 198.1 254.05 197.7 251.3 196.45 Z"/>
</g>

<g id="Symbol_56_0_Layer0_0_MEMBER_11_MEMBER_3_FILL">
<path fill="#FBAE4F" stroke="none" d="
M 256.8 193.45
Q 256.3 194.95 256.6 194.8 257.75 194.3 259.4 196.25 260.25 197.25 261.55 199.05 263.05 200.5 264.6 200.85 266.45 201.25 267.75 199.85 268.5 199.05 269.6 197.45 270.6 196.1 271.9 195.5 274.15 194.5 274.95 193.9 276.8 192.55 275.25 191.35 274.75 190.95 273.6 190.7 271.95 190.3 271.85 190.25
L 268.65 188.8
Q 267.4 188.25 266.35 188.25 265.5 188.2 264.05 188.55 263.55 188.7 261.8 188.8 260.5 188.85 259.7 189.4 258.3 190.35 257.5 191.7 257.25 192.05 256.8 193.45 Z"/>
</g>

<g id="Symbol_56_0_Layer0_0_MEMBER_11_MEMBER_4_FILL">
<path fill="#FBAE4F" stroke="none" d="
M 243.1 246.25
Q 243.65 242.8 243.65 242.5 243.8 240.3 242.95 238.9 241.85 237 239.9 236.85 238.85 236.8 237.85 237 234.5 241 233.65 241.45 233.25 241.65 232.2 242.15 231.3 242.6 231 243.15 230.7 243.75 231.35 244.7 231.7 245.2 232.35 246.05 233.1 247.35 232.5 248.4 232.1 249 230.85 250.2 229.65 251.65 231.25 252.55 232.3 253.1 234.15 253.3 238.4 253.5 240.45 251.7 242.45 250 243.1 246.25 Z"/>
</g>

<g id="Symbol_56_0_Layer0_0_MEMBER_11_MEMBER_5_FILL">
<path fill="#FBAE4F" stroke="none" d="
M 214.6 234.7
Q 213.05 234.45 213.2 234.7 213.9 235.8 211.6 237.55 210.35 238.45 208.35 239.75 206.8 241.2 206.9 242.9 206.95 244.6 208.55 245.95 210.55 247.6 210.9 248 211.35 248.6 211.8 249.5 212.05 250.05 212.55 251.1 213.2 252.3 213.95 253.05 215.1 254.2 216 253.6 216.65 253.15 216.8 252.1 216.85 250.8 216.95 250.25 217.2 248.8 218.15 247.1 218.7 246.25 219 245.8 219.45 244.95 219.5 244.35 219.35 243.15 219.3 242.55 219.2 242 219.3 240.05 219.4 238.55 218.9 237.6 218 235.9 216.4 235.15 216 235 214.6 234.7 Z"/>
</g>

<g id="Symbol_56_0_Layer0_0_MEMBER_11_MEMBER_6_FILL">
<path fill="#FBAE4F" stroke="none" d="
M 222.55 239.35
Q 222.45 239.85 222.65 240.65 222.95 242.25 223.6 243.6 223.8 244 226.95 244.45 230 244.9 231 244.8 232.9 244.5 234 243.45 235.25 242.2 234.6 240.5
L 233.25 237.85
Q 232.5 236.4 232.6 235 232.95 230.15 230.35 231.5 229.85 231.75 229.15 232.5 228.3 233.4 228 233.6 226.75 234.55 225.15 235.45 224.15 235.95 224 236.05 223.4 236.45 223.25 237 223.15 237.95 223.05 238.15 222.65 238.85 222.55 239.35 Z"/>
</g>

<g id="Symbol_56_0_Layer0_0_MEMBER_12_MEMBER_0_FILL">
<path fill="#DF8022" stroke="none" d="
M 244.7 237.35
Q 244.4 236.35 243.4 236.15 243.2 236.1 242.55 236.35
L 241.95 236.6
Q 242.35 236.8 241.5 238.2 240.65 239.6 241.75 240.05 242.65 240.4 242.85 241.45 242.9 241.9 243.2 242.1 243.55 242.3 243.85 241.9 245.15 240.4 245.3 239.65 245.4 239.15 245.15 238.5 244.85 237.75 244.7 237.35 Z"/>
</g>

<g id="Symbol_56_0_Layer0_0_MEMBER_12_MEMBER_1_FILL">
<path fill="#DF8022" stroke="none" d="
M 267.95 221.8
Q 267.2 222.15 265.6 221.05 263.8 219.85 263.05 219.95 262.5 220.05 261.65 220.65 260.75 221.3 260.25 221.4 259.15 221.5 258.4 221.65 257 221.9 257.3 222.5 257.75 223.3 260.6 224.05 261.4 224.3 262.55 224.2 263.2 224.2 264.5 224.05 264.65 224.05 265.5 224.05 266.15 224.05 266.55 223.95 267.65 223.6 267.95 223.1 268.3 221.65 267.95 221.8 Z"/>
</g>

<g id="Symbol_56_0_Layer0_0_MEMBER_12_MEMBER_2_FILL">
<path fill="#DF8022" stroke="none" d="
M 266.75 207.55
Q 265.75 207.05 264.95 206.9 263.55 206.6 261.05 207.6
L 259.55 208.25
Q 258.65 208.65 258.25 209.25 257.7 210.05 257.75 210.5 258.35 211.85 258.55 211.45 258.95 210.7 260.85 211.05 262.95 211.5 263.45 211.1 263.55 211.05 264.5 210.1 265.05 209.55 265.75 209.45 266 209.45 267.2 209.4 268.3 209.3 268.15 208.75 268 208.15 266.75 207.55 Z"/>
</g>

<g id="Symbol_56_0_Layer0_0_MEMBER_12_MEMBER_3_FILL">
<path fill="#DF8022" stroke="none" d="
M 265.05 258.5
Q 268.85 257.05 267.3 256.75 264.55 256.25 263.1 256.35
L 264.1 258.95 265.05 258.5 Z"/>
</g>

<g id="Symbol_56_0_Layer0_0_MEMBER_12_MEMBER_4_FILL">
<path fill="#DF8022" stroke="none" d="
M 281.55 185.6
Q 281.05 185.15 281 185.4 280.8 186.25 279.2 186.25
L 276.9 186.3
Q 276.4 186.5 275.9 187.2 275.35 188.05 274.95 188.25 274.9 188.25 273.1 188.6 271.7 188.85 271.85 189.4 272.05 190 273.35 190.55 274.4 190.95 275.25 191.05 276.7 191.15 278.55 190.15 280 189.3 280.25 189.1 281.2 188.45 281.65 187.75 282.35 186.85 282.05 186.15 281.95 185.95 281.55 185.6 Z"/>
</g>

<g id="Symbol_56_0_Layer0_0_MEMBER_12_MEMBER_5_FILL">
<path fill="#DF8022" stroke="none" d="
M 272.05 203.9
Q 272.85 202.6 272.35 202.65 271.65 202.75 270.3 201.4 268.7 199.8 267.65 199.5 267 199.35 266.2 199.6 265.35 200 264.85 200.1 264.45 200.2 262.5 200 260.9 199.85 260.4 200.35 259.95 200.75 261.85 201.85 263.85 203.2 266 203.5 266.6 203.6 268.15 203.95 269.5 204.25 270.3 204.3 271.65 204.3 272.05 203.9 Z"/>
</g>

<g id="Symbol_56_0_Layer0_0_MEMBER_12_MEMBER_6_FILL">
<path fill="#DF8022" stroke="none" d="
M 241.1 227.2
Q 239.95 226.25 239.1 226.65 238.7 226.85 238.45 227.45
L 238.25 228.3 238.3 228.3
Q 238.7 228 238.7 229.45 238.7 229.65 238.5 230.15 238.45 230.55 238.9 230.5 240 230.25 240.1 230.9 240.25 232.1 241.3 231.3 242.5 230.35 242.4 229.2 242.3 228.15 241.1 227.2 Z"/>
</g>

<g id="Symbol_56_0_Layer0_0_MEMBER_12_MEMBER_7_FILL">
<path fill="#DF8022" stroke="none" d="
M 263.25 247.35
Q 261.25 246.95 259.2 247.25
L 260.5 249.95
Q 261.3 249.6 263.8 249.05 265.55 248.85 265.65 248.3 265.75 247.95 264.65 247.65 263.45 247.4 263.25 247.35 Z"/>
</g>

<g id="Symbol_56_0_Layer0_0_MEMBER_12_MEMBER_8_FILL">
<path fill="#DF8022" stroke="none" d="
M 259.5 241.3
Q 260.6 241.1 259.35 239.8 258.35 238.8 257.15 238.55 256.25 238.4 254.6 238.6 255.8 240.6 256.65 242.3 256.85 242.2 257.2 241.85 257.45 241.6 259.5 241.3 Z"/>
</g>

<g id="Symbol_56_0_Layer0_0_MEMBER_12_MEMBER_9_FILL">
<path fill="#DF8022" stroke="none" d="
M 261.1 232.95
Q 260.2 233 259.9 233.3 259.5 233.65 260.3 234.25 262.1 235.4 263.05 235.6 263.8 235.75 264.9 235.55 265.55 235.4 266.75 235.15 268.4 234.9 269 233.9 269.15 233.7 269.05 232.95 268.95 232.2 268.8 232.4 268.4 232.8 267.6 232.45 267.5 232.4 266.45 231.85 264.65 230.8 263.55 231.95 262.7 232.9 261.1 232.95 Z"/>
</g>

<g id="Symbol_56_0_Layer0_0_MEMBER_12_MEMBER_10_FILL">
<path fill="#DF8022" stroke="none" d="
M 231.85 221.35
Q 229.55 221 228.75 221.55 228.05 222.05 228.1 222.85 228.35 223.85 228.45 223.7 228.5 223.65 228.45 223.65 228.85 223.1 229.85 224.25 230.95 225.5 231.3 225.4 231.65 225.35 232.25 225 232.8 224.75 233.25 225.05 233.45 225.2 234 225.75 234.55 226.1 234.85 225.65 235.15 225.25 235 224.3 234.85 223.55 234.55 222.95 233.95 221.65 231.85 221.35 Z"/>
</g>

<g id="Symbol_56_0_Layer0_0_MEMBER_12_MEMBER_11_FILL">
<path fill="#DF8022" stroke="none" d="
M 229.85 233.3
Q 230.4 233.05 230.4 235 230.35 235.55 230.55 235.75 230.75 235.95 231.3 235.85 231.85 235.7 232.1 235.9 232.3 236 232.65 236.55 233.2 237.5 234 235.85 234.5 234.65 234.15 233.8 233.85 233.05 232.7 232.3 231.6 231.5 230.9 231.8 230.45 232 230.15 232.5 229.75 233.35 229.85 233.35 229.95 233.3 229.85 233.3 Z"/>
</g>

<g id="Symbol_56_0_Layer0_0_MEMBER_12_MEMBER_12_FILL">
<path fill="#DF8022" stroke="none" d="
M 223.35 216.15
Q 223.55 215.05 224.65 214.5 225.1 214.3 225.35 213.9 225.65 213.4 225.05 213.2 222.85 212.65 222.05 212.75 221.5 212.85 220.9 213.3 220.25 213.85 219.9 214.1 219.15 214.65 218.9 214.95 218.5 215.45 218.5 216.15 218.5 216.45 219.35 217.4 219.5 216.85 221.3 217.1 223.1 217.4 223.35 216.15 Z"/>
</g>

<g id="Symbol_56_0_Layer0_0_MEMBER_12_MEMBER_13_FILL">
<path fill="#DF8022" stroke="none" d="
M 227.55 205.55
Q 227.45 205.8 225.95 206.8 225 207.4 226.15 208 227.65 208.75 228.5 208.7 229.1 208.7 229.85 208.3 230.25 208.1 231.05 207.6 232.1 207 232.25 206 232.3 205.7 231.6 204.6 231.45 205.1 230.55 204.9
L 229.4 204.45
Q 228.6 204.2 228.2 204.5 227.85 204.75 227.55 205.55 Z"/>
</g>

<g id="Symbol_56_0_Layer0_0_MEMBER_12_MEMBER_14_FILL">
<path fill="#DF8022" stroke="none" d="
M 222 226.05
Q 220.8 225.7 220.35 225.6 217.65 225.1 216.5 226.3 216.2 226.6 215.55 227.6 215 228.4 214.5 228.8 214.2 229.1 212.95 229.95 211.9 230.85 211.95 231.55 211.95 232.4 217.95 230.1 219.15 229.5 221.85 228.5 222.9 228.2 223.65 227.5 223.85 227.3 223.9 226.5 223.95 225.75 223.6 225.95 223.05 226.25 222 226.05 Z"/>
</g>

<g id="Symbol_56_0_Layer0_0_MEMBER_12_MEMBER_15_FILL">
<path fill="#DF8022" stroke="none" d="
M 280.55 191.35
Q 280.1 191.8 281.15 192.35 282.8 193.25 284.35 193.1 284 191.8 283.5 190.45 282.95 190.8 281.9 190.9 280.85 191.05 280.55 191.35 Z"/>
</g>

<g id="Symbol_56_0_Layer0_0_MEMBER_12_MEMBER_16_FILL">
<path fill="#DF8022" stroke="none" d="
M 225.3 257.3
Q 225.4 259.15 227.05 258.8 228.25 258.55 229.1 258.9 229.6 259.15 230.05 259.2 230.75 259.25 230.7 258.65 230.65 258.3 230.2 257.55 229.7 256.75 229.55 256.45 229.15 255.7 228.1 255.15 228.05 255.15 227.2 254.55 226.7 254.2 226.2 254.2 225.65 254.2 225.2 254.45
L 224.8 254.75
Q 224.45 255.05 224.55 255.1 225.1 255.2 225.3 257.3 Z"/>
</g>

<g id="Symbol_56_0_Layer0_0_MEMBER_12_MEMBER_17_FILL">
<path fill="#DF8022" stroke="none" d="
M 270.85 252.5
L 271.3 252.5
Q 270.65 250.95 270.3 249.8 269.75 250.05 268.55 250.35 267.45 250.65 266.6 251.15 265.4 251.9 266.85 252.1 270.45 252.5 270.85 252.5 Z"/>
</g>

<g id="Symbol_56_0_Layer0_0_MEMBER_12_MEMBER_18_FILL">
<path fill="#DF8022" stroke="none" d="
M 211.4 240.75
Q 210.9 241.65 211.55 241.65 211.75 241.65 212.8 241.35 213.5 241.15 214.85 240.8 216.1 240.5 216.85 240.1 218.6 239.3 220.75 238.75 221.65 238.6 222.3 238.2 222.9 237.9 223.1 237.35 223.2 237.1 223.15 236.75 223.15 236.3 222.9 236.4 222.25 236.7 221.1 236.25 219.8 235.75 219.3 235.6 216.7 234.9 215.35 236.6 213.85 238.4 213.3 238.9 211.7 240.25 211.4 240.75 Z"/>
</g>

<g id="Symbol_56_0_Layer0_0_MEMBER_12_MEMBER_19_FILL">
<path fill="#DF8022" stroke="none" d="
M 220.25 245.65
Q 220.3 245.65 220.25 245.7 219.75 246.1 218.5 246.05 216.8 245.9 216.6 245.95 214.6 246.25 214.1 247.7 213.95 248.15 213.95 249 213.9 249.9 213.8 250.3 213.7 250.75 213.25 252.2 212.9 253.55 213.4 254 213.75 254.3 215.6 252.2 217.55 249.9 217.8 249.6 218.1 249.2 218.7 248.8 219.55 248.3 219.7 248.15 220.5 247.35 220.6 246.9 220.65 246.7 220.6 246.15 220.5 245.5 220.25 245.65 Z"/>
</g>

<g id="Symbol_56_0_Layer0_0_MEMBER_12_MEMBER_20_FILL">
<path fill="#DF8022" stroke="none" d="
M 255.05 200.7
Q 254.1 200.65 253.3 200.8 252.05 200.9 250.3 202 248.45 202.85 247.75 203.55 247.1 204.3 247.1 204.8 247.1 205 247.3 205.5 247.55 206.1 247.7 205.9 248.1 205.3 249.85 205.55 251.85 205.85 252.3 205.65 252.9 205.4 253.3 204.6 253.85 203.6 254.05 203.35 254.3 203.15 255.6 202.35 256.75 201.6 256.5 201.1 256.35 200.7 255.05 200.7 Z"/>
</g>

<g id="Symbol_56_0_Layer0_0_MEMBER_12_MEMBER_21_FILL">
<path fill="#DF8022" stroke="none" d="
M 250.05 208.4
Q 246.95 209.15 245.85 209.8 245.35 210.1 242.95 211.05 241.9 211.5 241.45 212.1 241.3 212.3 241.25 213.05 241.25 213.8 241.5 213.6 241.95 213.3 242.8 213.5 243.3 213.6 244.1 213.9 246.05 214.4 247.15 213.9 247.7 213.6 248.15 212.95 248.4 212.55 248.85 211.7 249.15 211.2 250.25 210.3 251.25 209.45 251.55 208.75 252 207.8 250.05 208.4 Z"/>
</g>

<g id="Symbol_56_0_Layer0_0_MEMBER_12_MEMBER_22_FILL">
<path fill="#DF8022" stroke="none" d="
M 263.05 242.85
Q 262.35 243.05 261.85 243.35 261.05 243.85 261.8 244.15 264 245.15 265.05 245.15 265.7 245.1 266.55 244.8 267 244.6 267.95 244.15
L 268.4 243.95 267.55 240.95
Q 266.6 240.6 266.1 240.6 265.35 240.6 264.95 241.15 264.3 242.05 264.15 242.2 263.75 242.65 263.05 242.85 Z"/>
</g>

<g id="Symbol_56_0_Layer0_0_MEMBER_12_MEMBER_23_FILL">
<path fill="#DF8022" stroke="none" d="
M 261.05 189.3
Q 260.15 188.95 258.95 188.95 258.6 189 258.15 189.6 257.65 190.25 258.15 190.3 259 190.4 260 191.4 260.55 192 261.5 193.1 263.5 195.2 265.9 195 268.45 194.75 270.2 195.1 271.35 195.4 272.5 195.4 273 195.4 273.4 195.25 273.9 195 273.3 194.65
L 269.7 192.4
Q 268.35 191.7 265.45 190.9 262.55 189.75 261.05 189.3 Z"/>
</g>

<g id="Symbol_56_0_Layer0_0_MEMBER_12_MEMBER_24_FILL">
<path fill="#DF8022" stroke="none" d="
M 233.55 208.85
Q 233.4 209.7 233.95 210.25 234.75 210.9 234.75 210.65
L 234.75 210.6
Q 234.746875 210.0478515625 235.8 210 236.4 210 237.3 210.05 237.95 210 238.15 209.55 238.25 209.4 238.4 208.55 238.45 208.25 239.9 207.25 240.9 206.5 239.75 206.05 238.3 205.4 237.2 205.65 236.15 205.85 235 206.95 233.7 208.15 233.55 208.85 Z"/>
</g>

<g id="Symbol_56_0_Layer0_0_MEMBER_12_MEMBER_25_FILL">
<path fill="#DF8022" stroke="none" d="
M 247.9 197.1
Q 249.75 197.95 251.1 197.8 252.5 197.7 254.15 196.55 255.35 195.75 255.4 195.65 256.15 195.1 256.35 194.45 256.7 193.7 256.3 193.1 256.3 193 255.95 192.7 255.6 192.35 255.55 192.55
L 255.5 192.6
Q 255.2767578125 193.3462890625 253.4 193.25 251.4 193.1 250.95 193.95 250.5 194.8 250.3 195.1 249.9 195.55 249.2 195.75 248.55 195.95 248 196.3 247.15 196.8 247.9 197.1 Z"/>
</g>

<g id="Symbol_56_0_Layer0_0_MEMBER_12_MEMBER_26_FILL">
<path fill="#DF8022" stroke="none" d="
M 230.15 246.45
Q 230.85 246.95 230.95 247.05 231.25 247.35 231.25 247.95 231.2 248.7 231.65 248.75 232 248.8 232.55 248.35 233.7 247.4 234 246.75 234.15 246.3 234.05 245.6 233.85 244.8 233.75 244.4 233.5 243.35 232.45 243.2 232.3 243.2 231.7 243.35 231.1 243.45 231.15 243.5 231.55 243.7 230.5 244.85 229.45 245.95 230.15 246.45 Z"/>
</g>

<g id="Symbol_56_0_Layer0_0_MEMBER_12_MEMBER_27_FILL">
<path fill="#DF8022" stroke="none" d="
M 239.05 202.65
Q 239.5 202.75 240.1 202.5 240.4 202.35 241 202 241.9 201.65 241.7 200.5 241.2 199.35 241.2 199.3 241.15 199.6 239.85 198.85 238.55 198.1 238.3 199.15 238.2 199.7 238 199.9 237.75 200.15 237.25 200.25 236.15 200.5 237.35 201.55 238.6 202.55 239.05 202.65 Z"/>
</g>

<g id="Symbol_56_0_Layer0_0_MEMBER_12_MEMBER_28_FILL">
<path fill="#DF8022" stroke="none" d="
M 253.65 217.5
L 253.5 217.75
Q 254.8 218.3 254.85 219.25 255.05 219.25 256 219.65 256.9 220.05 257.35 220.1 258.05 220.1 258.55 219.45 259.3 218.5 260.7 218.65 261.55 218.7 261.85 218.45 262.2 218.15 261.6 217.5 260.3 216.15 258.95 215.95 257.75 215.75 255.85 216.35 254.1 216.9 253.65 217.5 Z"/>
</g>

<g id="Symbol_56_0_Layer0_0_MEMBER_12_MEMBER_29_FILL">
<path fill="#DF8022" stroke="none" d="
M 259.55 229.2
Q 259.55 228.8 258.7 228.15 257.35 227.1 255.7 226.9 254.7 226.75 252.35 226.95
L 251.65 229.75 252.4 230.25
Q 254.2 231.45 255.45 230.4 256.1 229.9 256.85 229.75 257.3 229.65 258.4 229.65 259.55 229.7 259.55 229.2 Z"/>
</g>

<g id="Symbol_56_0_Layer0_0_MEMBER_13_MEMBER_0_FILL">
<path fill="#FFFFFF" stroke="none" d="
M 299 179.2
L 296.45 178.3 291.65 177.2 287.85 176.95 294.4 177.9 294.7 178 295.05 178.05 299.15 179.3
Q 299.083984375 179.2560546875 299 179.2
M 279.25 177.3
L 279.75 177.2
Q 281.65 176.95 284.1 176.85
L 286.4 176.85 283.35 176.7 282.35 176.8 280.8 176.9 279.25 177.15 279 177.15 274.45 178.15
Q 273.95 178.25 274.65 178.15
L 277.45 177.55 279 177.3 279.25 177.3 Z"/>
</g>

<g id="Symbol_56_0_Layer0_0_MEMBER_13_MEMBER_1_FILL">
<path fill="#FFFFFF" stroke="none" d="
M 298.2 181.25
L 295.65 180.5 298.35 181.35
Q 298.2841796875 181.3060546875 298.2 181.25
M 277.5 178.6
L 279.75 178.55
Q 281.95 178.45 283.95 178.6
L 294.1 180.1 294.4 180.2 295.65 180.5 291.15 179.3 285.65 178.55
Q 284.65 178.45 284.1 178.45
L 278.8 178.4 276.5 178.6
Q 276.2 178.6 274.6 178.8
L 274.75 178.8 277.5 178.6 Z"/>
</g>

<g id="Symbol_56_0_Layer0_0_MEMBER_13_MEMBER_2_FILL">
<path fill="#FFFFFF" stroke="none" d="
M 276.95 180.25
L 274.95 180.15
Q 275.0375 180.157421875 275.25 180.2
L 277.55 180.4 277.9 180.4 280.1 180.65
Q 282.6 180.95 284.15 181.25
L 295.3 184.15 298 185.15
Q 297.95 185.1 297.75 185.05
L 296.65 184.55 291.4 182.8 291.05 182.65 284.3 181.1 278.7 180.35 277.75 180.3
Q 277.5 180.25 276.95 180.25 Z"/>
</g>

<g id="Symbol_56_0_Layer0_0_MEMBER_13_MEMBER_3_FILL">
<path fill="#FFFFFF" stroke="none" d="
M 239.15 177.45
Q 239.25 177.5 239.5 177.45
L 242.5 177.1 252.8 176.8 264.05 178 267.25 178.65
Q 267.156640625 178.6267578125 267.05 178.6
L 261.9 177.5 261.3 177.45
Q 259.55 177.15 256.45 176.9
L 247.85 176.6 244.45 176.8 239.3 177.45 239.15 177.45 Z"/>
</g>

<g id="Symbol_56_0_Layer0_0_MEMBER_13_MEMBER_4_FILL">
<path fill="#FFFFFF" stroke="none" d="
M 259.7 179.55
L 259.4 179.6 250.7 180
Q 249.15 180.15 249.1 180.15
L 245.2 180.75 246.35 180.6 246.6 180.6 250.05 180.2
Q 250.6 180.2 250.9 180.15 251.9 180.05 252.45 180.05 253.55 179.95 254.05 179.95
L 259.35 179.75 259.65 179.7 262.1 179.7
Q 262.45 179.75 263.15 179.75
L 266.2 179.85
Q 267.55 179.85 264.15 179.65
L 263.4 179.65 263 179.6 259.7 179.55 Z"/>
</g>

<g id="Symbol_56_0_Layer0_0_MEMBER_13_MEMBER_5_FILL">
<path fill="#FFFFFF" stroke="none" d="
M 260.45 181.35
L 251 182.8 242.85 184.9
Q 242.2 185.15 244.8 184.45
L 251.1 182.95 260.2 181.55 260.45 181.55 260.7 181.5 263.6 181.2
Q 264.15 181.2 264.45 181.15
L 266.35 181.05
Q 267.15 180.95 264.5 181.05
L 263.45 181.1 260.7 181.35 260.45 181.35 Z"/>
</g>

<g id="Symbol_56_0_Layer0_0_MEMBER_13_MEMBER_6_FILL">
<path fill="#FFFFFF" stroke="none" d="
M 261.2 182.45
L 260.55 182.7
Q 259.75 182.95 257.8 183.7
L 253.15 186 250.5 187.7 248.9 188.9
Q 248.65 189.15 249.05 188.85
L 249.75 188.4
Q 249.95 188.2 250.1 188.15
L 252 186.85 254 185.7 260.25 182.95 264.1 181.8
Q 264.55 181.65 263.95 181.8
L 262.35 182.15 262.05 182.25 261.2 182.45 Z"/>
</g>

<g id="Symbol_56_0_Layer0_0_MEMBER_13_MEMBER_7_FILL">
<path fill="#FFFFFF" stroke="none" d="
M 280.7 183.3
Q 281.45 183.65 283.15 184.75
L 285.2 186.3 286.25 187.25
Q 286.1970703125 187.1939453125 286.15 187.1
L 285.95 186.85 285.05 186.05 284.75 185.75 282.05 183.85 280.85 183.15 279.65 182.6 278.35 182.1 276.7 181.6 277.05 181.8 280.7 183.3 Z"/>
</g>

<g id="Symbol_56_0_Layer0_0_MEMBER_14_MEMBER_0_FILL">
<path fill="#FFCAA3" stroke="none" d="
M 263.85 167.3
L 263.75 167.15 263.65 166.95 263.1 166.05 262.65 165.5 262.15 165.05 261.8 164.8 262.45 165.5 262.8 165.95 262.9 166.05 263.15 166.4 263.85 167.75 263.95 167.9 264.1 168.4
Q 264.15 168.3 264.1 168.05
L 264.05 167.95 264.05 167.85 264 167.8 263.85 167.3 Z"/>
</g>

<g id="Symbol_56_0_Layer0_0_MEMBER_14_MEMBER_1_FILL">
<path fill="#FFCAA3" stroke="none" d="
M 260.7 166.45
L 260.9 166.65 261.5 167.05 261.65 167.2
Q 261.75 167.25 261.95 167.45
L 263.05 168.5 263.2 168.7
Q 263.25 168.6 263.1 168.45
L 262.85 168.05 262.4 167.65 262.1 167.3 261.15 166.65 260.7 166.45 Z"/>
</g>

<g id="Symbol_56_0_Layer0_0_MEMBER_14_MEMBER_2_FILL">
<path fill="#FFCAA3" stroke="none" d="
M 275.5 166.25
L 275.8 165.45 275.95 165.25 276.3 164.4 276.45 164.25 276.5 164.05 276.65 163.9
Q 276.8 163.55 276.35 164.15
L 275.75 165.15 275.35 166.15 275.25 166.5 275.05 167.85
Q 275.05 168.3 275.2 167.55
L 275.5 166.25 Z"/>
</g>

<g id="Symbol_56_0_Layer0_0_MEMBER_14_MEMBER_3_FILL">
<path fill="#FFCAA3" stroke="none" d="
M 278.3 164.2
L 277.6 164.9 276.75 166.05 276.6 166.35 276.4 166.65 275.95 167.65
Q 276.05 167.65 276.15 167.4
L 276.5 166.85 276.65 166.5 278.6 163.95
Q 278.55 163.95 278.3 164.2 Z"/>
</g>

<g id="Symbol_56_0_Layer0_0_MEMBER_15_MEMBER_0_FILL">
<path fill="#FFFFFF" stroke="none" d="
M 274.1 265.3
Q 278.2 264.95 277.95 263 277.4 259.5 274 257.9 273.8 257.8 273.6 257.55 272.6 259.45 270.65 260.5 268.65 261.55 266.55 261.25 265.55 261.05 265 261.15 266.6 264.3 267.9 264.75 270.55 265.55 274.1 265.3 Z"/>
</g>

<g id="Symbol_56_0_Layer0_0_MEMBER_15_MEMBER_1_FILL">
<path fill="#FFFFFF" stroke="none" d="
M 256.5 257.55
Q 256.55 256.35 256.1 255.45 255.7 254.65 254.25 253.65 252.65 252.55 251.45 252.65 250.7 252.7 248.9 253.4 250.2 255.25 250.3 257.6 250.4 260.35 248.65 262.45 254.45 261.95 255.25 260.8 256.4 259.2 256.5 257.55 Z"/>
</g>
</defs>

<g transform="matrix( 1, 0, 0, 1, 227.5,135.9) ">
<g transform="matrix( 0.871978759765625, 0, 0, 0.871978759765625, 14.75,82.35) ">
<g transform="matrix( 1.5068359375, 0, 0, 1.5068359375, -14.85,14.7) ">
<g filter="url(#Filter_1)" transform="matrix( 0.761077880859375, 0, 0, 0.761077880859375, -174.5,-175.85) ">
<g transform="matrix( 1.313934326171875, 0, 0, 1.313934326171875, 229.3,231.05) ">
<g transform="matrix( 2.23944091796875, 0, 0, 2.23944091796875, -562.45,-490.7) ">
<use xlink:href="#Symbol_56_0_Layer0_0_MEMBER_0_FILL"/>
</g>

<g transform="matrix( 2.23944091796875, 0, 0, 2.23944091796875, -562.45,-490.7) ">
<use xlink:href="#Symbol_56_0_Layer0_0_MEMBER_1_FILL"/>
</g>

<g transform="matrix( 2.23944091796875, 0, 0, 2.23944091796875, -562.45,-490.7) ">
<use xlink:href="#Symbol_56_0_Layer0_0_MEMBER_2_FILL"/>
</g>

<g transform="matrix( 2.23944091796875, 0, 0, 2.23944091796875, -562.45,-490.7) ">
<use xlink:href="#Symbol_56_0_Layer0_0_MEMBER_3_FILL"/>
</g>

<g transform="matrix( 2.23944091796875, 0, 0, 2.23944091796875, -562.45,-490.7) ">
<use xlink:href="#Symbol_56_0_Layer0_0_MEMBER_4_MEMBER_0_FILL"/>
</g>

<g transform="matrix( 2.23944091796875, 0, 0, 2.23944091796875, -562.45,-490.7) ">
<use xlink:href="#Symbol_56_0_Layer0_0_MEMBER_4_MEMBER_1_FILL"/>
</g>

<g transform="matrix( 2.23944091796875, 0, 0, 2.23944091796875, -562.45,-490.7) ">
<use xlink:href="#Symbol_56_0_Layer0_0_MEMBER_4_MEMBER_2_FILL"/>
</g>

<g transform="matrix( 2.23944091796875, 0, 0, 2.23944091796875, -562.45,-490.7) ">
<use xlink:href="#Symbol_56_0_Layer0_0_MEMBER_4_MEMBER_3_FILL"/>
</g>

<g transform="matrix( 2.23944091796875, 0, 0, 2.23944091796875, -562.45,-490.7) ">
<use xlink:href="#Symbol_56_0_Layer0_0_MEMBER_5_MEMBER_0_FILL"/>
</g>

<g transform="matrix( 2.23944091796875, 0, 0, 2.23944091796875, -562.45,-490.7) ">
<use xlink:href="#Symbol_56_0_Layer0_0_MEMBER_5_MEMBER_1_FILL"/>
</g>

<g transform="matrix( 2.23944091796875, 0, 0, 2.23944091796875, -562.45,-490.7) ">
<use xlink:href="#Symbol_56_0_Layer0_0_MEMBER_5_MEMBER_2_FILL"/>
</g>

<g transform="matrix( 2.23944091796875, 0, 0, 2.23944091796875, -562.45,-490.7) ">
<use xlink:href="#Symbol_56_0_Layer0_0_MEMBER_5_MEMBER_3_FILL"/>
</g>

<g transform="matrix( 2.23944091796875, 0, 0, 2.23944091796875, -562.45,-490.7) ">
<use xlink:href="#Symbol_56_0_Layer0_0_MEMBER_6_MEMBER_0_FILL"/>
</g>

<g transform="matrix( 2.23944091796875, 0, 0, 2.23944091796875, -562.45,-490.7) ">
<use xlink:href="#Symbol_56_0_Layer0_0_MEMBER_6_MEMBER_1_FILL"/>
</g>

<g transform="matrix( 2.23944091796875, 0, 0, 2.23944091796875, -562.45,-490.7) ">
<use xlink:href="#Symbol_56_0_Layer0_0_MEMBER_6_MEMBER_2_FILL"/>
</g>

<g transform="matrix( 2.23944091796875, 0, 0, 2.23944091796875, -562.45,-490.7) ">
<use xlink:href="#Symbol_56_0_Layer0_0_MEMBER_6_MEMBER_3_FILL"/>
</g>

<g transform="matrix( 2.23944091796875, 0, 0, 2.23944091796875, -562.45,-490.7) ">
<use xlink:href="#Symbol_56_0_Layer0_0_MEMBER_7_MEMBER_0_FILL"/>
</g>

<g transform="matrix( 2.23944091796875, 0, 0, 2.23944091796875, -562.45,-490.7) ">
<use xlink:href="#Symbol_56_0_Layer0_0_MEMBER_7_MEMBER_1_FILL"/>
</g>

<g transform="matrix( 2.23944091796875, 0, 0, 2.23944091796875, -562.45,-490.7) ">
<use xlink:href="#Symbol_56_0_Layer0_0_MEMBER_7_MEMBER_2_FILL"/>
</g>

<g transform="matrix( 2.23944091796875, 0, 0, 2.23944091796875, -562.45,-490.7) ">
<use xlink:href="#Symbol_56_0_Layer0_0_MEMBER_7_MEMBER_3_FILL"/>
</g>

<g transform="matrix( 2.23944091796875, 0, 0, 2.23944091796875, -562.45,-490.7) ">
<use xlink:href="#Symbol_56_0_Layer0_0_MEMBER_7_MEMBER_4_FILL"/>
</g>

<g transform="matrix( 2.23944091796875, 0, 0, 2.23944091796875, -562.45,-490.7) ">
<use xlink:href="#Symbol_56_0_Layer0_0_MEMBER_7_MEMBER_5_FILL"/>
</g>

<g transform="matrix( 2.23944091796875, 0, 0, 2.23944091796875, -562.45,-490.7) ">
<use xlink:href="#Symbol_56_0_Layer0_0_MEMBER_8_FILL"/>
</g>

<g transform="matrix( 2.23944091796875, 0, 0, 2.23944091796875, -562.45,-490.7) ">
<use xlink:href="#Symbol_56_0_Layer0_0_MEMBER_9_MEMBER_0_FILL"/>
</g>

<g transform="matrix( 2.23944091796875, 0, 0, 2.23944091796875, -562.45,-490.7) ">
<use xlink:href="#Symbol_56_0_Layer0_0_MEMBER_9_MEMBER_1_FILL"/>
</g>

<g transform="matrix( 2.23944091796875, 0, 0, 2.23944091796875, -562.45,-490.7) ">
<use xlink:href="#Symbol_56_0_Layer0_0_MEMBER_9_MEMBER_2_FILL"/>
</g>

<g transform="matrix( 2.23944091796875, 0, 0, 2.23944091796875, -562.45,-490.7) ">
<use xlink:href="#Symbol_56_0_Layer0_0_MEMBER_9_MEMBER_3_FILL"/>
</g>

<g transform="matrix( 2.23944091796875, 0, 0, 2.23944091796875, -562.45,-490.7) ">
<use xlink:href="#Symbol_56_0_Layer0_0_MEMBER_9_MEMBER_4_FILL"/>
</g>

<g transform="matrix( 2.23944091796875, 0, 0, 2.23944091796875, -562.45,-490.7) ">
<use xlink:href="#Symbol_56_0_Layer0_0_MEMBER_9_MEMBER_5_FILL"/>
</g>

<g transform="matrix( 2.23944091796875, 0, 0, 2.23944091796875, -562.45,-490.7) ">
<use xlink:href="#Symbol_56_0_Layer0_0_MEMBER_9_MEMBER_6_FILL"/>
</g>

<g transform="matrix( 2.23944091796875, 0, 0, 2.23944091796875, -562.45,-490.7) ">
<use xlink:href="#Symbol_56_0_Layer0_0_MEMBER_10_MEMBER_0_FILL"/>
</g>

<g transform="matrix( 2.23944091796875, 0, 0, 2.23944091796875, -562.45,-490.7) ">
<use xlink:href="#Symbol_56_0_Layer0_0_MEMBER_10_MEMBER_1_MEMBER_0_FILL"/>
</g>

<g transform="matrix( 2.23944091796875, 0, 0, 2.23944091796875, -562.45,-490.7) ">
<use xlink:href="#Symbol_56_0_Layer0_0_MEMBER_10_MEMBER_1_MEMBER_1_FILL"/>
</g>

<g transform="matrix( 2.23944091796875, 0, 0, 2.23944091796875, -562.45,-490.7) ">
<use xlink:href="#Symbol_56_0_Layer0_0_MEMBER_10_MEMBER_1_MEMBER_2_FILL"/>
</g>

<g transform="matrix( 2.23944091796875, 0, 0, 2.23944091796875, -562.45,-490.7) ">
<use xlink:href="#Symbol_56_0_Layer0_0_MEMBER_10_MEMBER_1_MEMBER_3_FILL"/>
</g>

<g transform="matrix( 2.23944091796875, 0, 0, 2.23944091796875, -562.45,-490.7) ">
<use xlink:href="#Symbol_56_0_Layer0_0_MEMBER_10_MEMBER_1_MEMBER_4_FILL"/>
</g>

<g transform="matrix( 2.23944091796875, 0, 0, 2.23944091796875, -562.45,-490.7) ">
<use xlink:href="#Symbol_56_0_Layer0_0_MEMBER_10_MEMBER_1_MEMBER_5_FILL"/>
</g>

<g transform="matrix( 2.23944091796875, 0, 0, 2.23944091796875, -562.45,-490.7) ">
<use xlink:href="#Symbol_56_0_Layer0_0_MEMBER_10_MEMBER_2_MEMBER_0_FILL"/>
</g>

<g transform="matrix( 2.23944091796875, 0, 0, 2.23944091796875, -562.45,-490.7) ">
<use xlink:href="#Symbol_56_0_Layer0_0_MEMBER_10_MEMBER_2_MEMBER_1_FILL"/>
</g>

<g transform="matrix( 2.23944091796875, 0, 0, 2.23944091796875, -562.45,-490.7) ">
<use xlink:href="#Symbol_56_0_Layer0_0_MEMBER_10_MEMBER_2_MEMBER_2_FILL"/>
</g>

<g transform="matrix( 2.23944091796875, 0, 0, 2.23944091796875, -562.45,-490.7) ">
<use xlink:href="#Symbol_56_0_Layer0_0_MEMBER_10_MEMBER_2_MEMBER_3_FILL"/>
</g>

<g transform="matrix( 2.23944091796875, 0, 0, 2.23944091796875, -562.45,-490.7) ">
<use xlink:href="#Symbol_56_0_Layer0_0_MEMBER_10_MEMBER_2_MEMBER_4_FILL"/>
</g>

<g transform="matrix( 2.23944091796875, 0, 0, 2.23944091796875, -562.45,-490.7) ">
<use xlink:href="#Symbol_56_0_Layer0_0_MEMBER_10_MEMBER_2_MEMBER_5_FILL"/>
</g>

<g transform="matrix( 2.23944091796875, 0, 0, 2.23944091796875, -562.45,-490.7) ">
<use xlink:href="#Symbol_56_0_Layer0_0_MEMBER_10_MEMBER_2_MEMBER_6_FILL"/>
</g>

<g transform="matrix( 2.23944091796875, 0, 0, 2.23944091796875, -562.45,-490.7) ">
<use xlink:href="#Symbol_56_0_Layer0_0_MEMBER_10_MEMBER_2_MEMBER_7_FILL"/>
</g>

<g transform="matrix( 2.23944091796875, 0, 0, 2.23944091796875, -562.45,-490.7) ">
<use xlink:href="#Symbol_56_0_Layer0_0_MEMBER_10_MEMBER_2_MEMBER_8_FILL"/>
</g>

<g transform="matrix( 2.23944091796875, 0, 0, 2.23944091796875, -562.45,-490.7) ">
<use xlink:href="#Symbol_56_0_Layer0_0_MEMBER_10_MEMBER_2_MEMBER_9_FILL"/>
</g>

<g transform="matrix( 2.23944091796875, 0, 0, 2.23944091796875, -562.45,-490.7) ">
<use xlink:href="#Symbol_56_0_Layer0_0_MEMBER_10_MEMBER_2_MEMBER_10_FILL"/>
</g>

<g transform="matrix( 2.23944091796875, 0, 0, 2.23944091796875, -562.45,-490.7) ">
<use xlink:href="#Symbol_56_0_Layer0_0_MEMBER_10_MEMBER_2_MEMBER_11_FILL"/>
</g>

<g transform="matrix( 2.23944091796875, 0, 0, 2.23944091796875, -562.45,-490.7) ">
<use xlink:href="#Symbol_56_0_Layer0_0_MEMBER_10_MEMBER_2_MEMBER_12_FILL"/>
</g>

<g transform="matrix( 2.23944091796875, 0, 0, 2.23944091796875, -562.45,-490.7) ">
<use xlink:href="#Symbol_56_0_Layer0_0_MEMBER_11_MEMBER_0_FILL"/>
</g>

<g transform="matrix( 2.23944091796875, 0, 0, 2.23944091796875, -562.45,-490.7) ">
<use xlink:href="#Symbol_56_0_Layer0_0_MEMBER_11_MEMBER_1_FILL"/>
</g>

<g transform="matrix( 2.23944091796875, 0, 0, 2.23944091796875, -562.45,-490.7) ">
<use xlink:href="#Symbol_56_0_Layer0_0_MEMBER_11_MEMBER_2_FILL"/>
</g>

<g transform="matrix( 2.23944091796875, 0, 0, 2.23944091796875, -562.45,-490.7) ">
<use xlink:href="#Symbol_56_0_Layer0_0_MEMBER_11_MEMBER_3_FILL"/>
</g>

<g transform="matrix( 2.23944091796875, 0, 0, 2.23944091796875, -562.45,-490.7) ">
<use xlink:href="#Symbol_56_0_Layer0_0_MEMBER_11_MEMBER_4_FILL"/>
</g>

<g transform="matrix( 2.23944091796875, 0, 0, 2.23944091796875, -562.45,-490.7) ">
<use xlink:href="#Symbol_56_0_Layer0_0_MEMBER_11_MEMBER_5_FILL"/>
</g>

<g transform="matrix( 2.23944091796875, 0, 0, 2.23944091796875, -562.45,-490.7) ">
<use xlink:href="#Symbol_56_0_Layer0_0_MEMBER_11_MEMBER_6_FILL"/>
</g>

<g transform="matrix( 2.23944091796875, 0, 0, 2.23944091796875, -562.45,-490.7) ">
<use xlink:href="#Symbol_56_0_Layer0_0_MEMBER_12_MEMBER_0_FILL"/>
</g>

<g transform="matrix( 2.23944091796875, 0, 0, 2.23944091796875, -562.45,-490.7) ">
<use xlink:href="#Symbol_56_0_Layer0_0_MEMBER_12_MEMBER_1_FILL"/>
</g>

<g transform="matrix( 2.23944091796875, 0, 0, 2.23944091796875, -562.45,-490.7) ">
<use xlink:href="#Symbol_56_0_Layer0_0_MEMBER_12_MEMBER_2_FILL"/>
</g>

<g transform="matrix( 2.23944091796875, 0, 0, 2.23944091796875, -562.45,-490.7) ">
<use xlink:href="#Symbol_56_0_Layer0_0_MEMBER_12_MEMBER_3_FILL"/>
</g>

<g transform="matrix( 2.23944091796875, 0, 0, 2.23944091796875, -562.45,-490.7) ">
<use xlink:href="#Symbol_56_0_Layer0_0_MEMBER_12_MEMBER_4_FILL"/>
</g>

<g transform="matrix( 2.23944091796875, 0, 0, 2.23944091796875, -562.45,-490.7) ">
<use xlink:href="#Symbol_56_0_Layer0_0_MEMBER_12_MEMBER_5_FILL"/>
</g>

<g transform="matrix( 2.23944091796875, 0, 0, 2.23944091796875, -562.45,-490.7) ">
<use xlink:href="#Symbol_56_0_Layer0_0_MEMBER_12_MEMBER_6_FILL"/>
</g>

<g transform="matrix( 2.23944091796875, 0, 0, 2.23944091796875, -562.45,-490.7) ">
<use xlink:href="#Symbol_56_0_Layer0_0_MEMBER_12_MEMBER_7_FILL"/>
</g>

<g transform="matrix( 2.23944091796875, 0, 0, 2.23944091796875, -562.45,-490.7) ">
<use xlink:href="#Symbol_56_0_Layer0_0_MEMBER_12_MEMBER_8_FILL"/>
</g>

<g transform="matrix( 2.23944091796875, 0, 0, 2.23944091796875, -562.45,-490.7) ">
<use xlink:href="#Symbol_56_0_Layer0_0_MEMBER_12_MEMBER_9_FILL"/>
</g>

<g transform="matrix( 2.23944091796875, 0, 0, 2.23944091796875, -562.45,-490.7) ">
<use xlink:href="#Symbol_56_0_Layer0_0_MEMBER_12_MEMBER_10_FILL"/>
</g>

<g transform="matrix( 2.23944091796875, 0, 0, 2.23944091796875, -562.45,-490.7) ">
<use xlink:href="#Symbol_56_0_Layer0_0_MEMBER_12_MEMBER_11_FILL"/>
</g>

<g transform="matrix( 2.23944091796875, 0, 0, 2.23944091796875, -562.45,-490.7) ">
<use xlink:href="#Symbol_56_0_Layer0_0_MEMBER_12_MEMBER_12_FILL"/>
</g>

<g transform="matrix( 2.23944091796875, 0, 0, 2.23944091796875, -562.45,-490.7) ">
<use xlink:href="#Symbol_56_0_Layer0_0_MEMBER_12_MEMBER_13_FILL"/>
</g>

<g transform="matrix( 2.23944091796875, 0, 0, 2.23944091796875, -562.45,-490.7) ">
<use xlink:href="#Symbol_56_0_Layer0_0_MEMBER_12_MEMBER_14_FILL"/>
</g>

<g transform="matrix( 2.23944091796875, 0, 0, 2.23944091796875, -562.45,-490.7) ">
<use xlink:href="#Symbol_56_0_Layer0_0_MEMBER_12_MEMBER_15_FILL"/>
</g>

<g transform="matrix( 2.23944091796875, 0, 0, 2.23944091796875, -562.45,-490.7) ">
<use xlink:href="#Symbol_56_0_Layer0_0_MEMBER_12_MEMBER_16_FILL"/>
</g>

<g transform="matrix( 2.23944091796875, 0, 0, 2.23944091796875, -562.45,-490.7) ">
<use xlink:href="#Symbol_56_0_Layer0_0_MEMBER_12_MEMBER_17_FILL"/>
</g>

<g transform="matrix( 2.23944091796875, 0, 0, 2.23944091796875, -562.45,-490.7) ">
<use xlink:href="#Symbol_56_0_Layer0_0_MEMBER_12_MEMBER_18_FILL"/>
</g>

<g transform="matrix( 2.23944091796875, 0, 0, 2.23944091796875, -562.45,-490.7) ">
<use xlink:href="#Symbol_56_0_Layer0_0_MEMBER_12_MEMBER_19_FILL"/>
</g>

<g transform="matrix( 2.23944091796875, 0, 0, 2.23944091796875, -562.45,-490.7) ">
<use xlink:href="#Symbol_56_0_Layer0_0_MEMBER_12_MEMBER_20_FILL"/>
</g>

<g transform="matrix( 2.23944091796875, 0, 0, 2.23944091796875, -562.45,-490.7) ">
<use xlink:href="#Symbol_56_0_Layer0_0_MEMBER_12_MEMBER_21_FILL"/>
</g>

<g transform="matrix( 2.23944091796875, 0, 0, 2.23944091796875, -562.45,-490.7) ">
<use xlink:href="#Symbol_56_0_Layer0_0_MEMBER_12_MEMBER_22_FILL"/>
</g>

<g transform="matrix( 2.23944091796875, 0, 0, 2.23944091796875, -562.45,-490.7) ">
<use xlink:href="#Symbol_56_0_Layer0_0_MEMBER_12_MEMBER_23_FILL"/>
</g>

<g transform="matrix( 2.23944091796875, 0, 0, 2.23944091796875, -562.45,-490.7) ">
<use xlink:href="#Symbol_56_0_Layer0_0_MEMBER_12_MEMBER_24_FILL"/>
</g>

<g transform="matrix( 2.23944091796875, 0, 0, 2.23944091796875, -562.45,-490.7) ">
<use xlink:href="#Symbol_56_0_Layer0_0_MEMBER_12_MEMBER_25_FILL"/>
</g>

<g transform="matrix( 2.23944091796875, 0, 0, 2.23944091796875, -562.45,-490.7) ">
<use xlink:href="#Symbol_56_0_Layer0_0_MEMBER_12_MEMBER_26_FILL"/>
</g>

<g transform="matrix( 2.23944091796875, 0, 0, 2.23944091796875, -562.45,-490.7) ">
<use xlink:href="#Symbol_56_0_Layer0_0_MEMBER_12_MEMBER_27_FILL"/>
</g>

<g transform="matrix( 2.23944091796875, 0, 0, 2.23944091796875, -562.45,-490.7) ">
<use xlink:href="#Symbol_56_0_Layer0_0_MEMBER_12_MEMBER_28_FILL"/>
</g>

<g transform="matrix( 2.23944091796875, 0, 0, 2.23944091796875, -562.45,-490.7) ">
<use xlink:href="#Symbol_56_0_Layer0_0_MEMBER_12_MEMBER_29_FILL"/>
</g>

<g transform="matrix( 2.23944091796875, 0, 0, 2.23944091796875, -562.45,-490.7) ">
<use xlink:href="#Symbol_56_0_Layer0_0_MEMBER_13_MEMBER_0_FILL"/>
</g>

<g transform="matrix( 2.23944091796875, 0, 0, 2.23944091796875, -562.45,-490.7) ">
<use xlink:href="#Symbol_56_0_Layer0_0_MEMBER_13_MEMBER_1_FILL"/>
</g>

<g transform="matrix( 2.23944091796875, 0, 0, 2.23944091796875, -562.45,-490.7) ">
<use xlink:href="#Symbol_56_0_Layer0_0_MEMBER_13_MEMBER_2_FILL"/>
</g>

<g transform="matrix( 2.23944091796875, 0, 0, 2.23944091796875, -562.45,-490.7) ">
<use xlink:href="#Symbol_56_0_Layer0_0_MEMBER_13_MEMBER_3_FILL"/>
</g>

<g transform="matrix( 2.23944091796875, 0, 0, 2.23944091796875, -562.45,-490.7) ">
<use xlink:href="#Symbol_56_0_Layer0_0_MEMBER_13_MEMBER_4_FILL"/>
</g>

<g transform="matrix( 2.23944091796875, 0, 0, 2.23944091796875, -562.45,-490.7) ">
<use xlink:href="#Symbol_56_0_Layer0_0_MEMBER_13_MEMBER_5_FILL"/>
</g>

<g transform="matrix( 2.23944091796875, 0, 0, 2.23944091796875, -562.45,-490.7) ">
<use xlink:href="#Symbol_56_0_Layer0_0_MEMBER_13_MEMBER_6_FILL"/>
</g>

<g transform="matrix( 2.23944091796875, 0, 0, 2.23944091796875, -562.45,-490.7) ">
<use xlink:href="#Symbol_56_0_Layer0_0_MEMBER_13_MEMBER_7_FILL"/>
</g>

<g transform="matrix( 2.23944091796875, 0, 0, 2.23944091796875, -562.45,-490.7) ">
<use xlink:href="#Symbol_56_0_Layer0_0_MEMBER_14_MEMBER_0_FILL"/>
</g>

<g transform="matrix( 2.23944091796875, 0, 0, 2.23944091796875, -562.45,-490.7) ">
<use xlink:href="#Symbol_56_0_Layer0_0_MEMBER_14_MEMBER_1_FILL"/>
</g>

<g transform="matrix( 2.23944091796875, 0, 0, 2.23944091796875, -562.45,-490.7) ">
<use xlink:href="#Symbol_56_0_Layer0_0_MEMBER_14_MEMBER_2_FILL"/>
</g>

<g transform="matrix( 2.23944091796875, 0, 0, 2.23944091796875, -562.45,-490.7) ">
<use xlink:href="#Symbol_56_0_Layer0_0_MEMBER_14_MEMBER_3_FILL"/>
</g>

<g transform="matrix( 2.23944091796875, 0, 0, 2.23944091796875, -562.45,-490.7) ">
<use xlink:href="#Symbol_56_0_Layer0_0_MEMBER_15_MEMBER_0_FILL"/>
</g>

<g transform="matrix( 2.23944091796875, 0, 0, 2.23944091796875, -562.45,-490.7) ">
<use xlink:href="#Symbol_56_0_Layer0_0_MEMBER_15_MEMBER_1_FILL"/>
</g>
</g>
</g>
</g>
</g>
</g>
</svg>
