
<svg xmlns="http://www.w3.org/2000/svg" version="1.1" xmlns:xlink="http://www.w3.org/1999/xlink" preserveAspectRatio="none" x="0px" y="0px" width="686px" height="560px" viewBox="0 0 686 560">
<defs>
<g id="Duplicate_Items_Folder_Symbol_4_copy_2_6_Layer0_0_FILL">
<path fill="#0A0A0A" stroke="none" d="
M 35.5 -73.4
L 13.95 -91.45
Q 4.75 -98.9 -7 -106.1 -35.4 -123.5 -58.1 -123.5 -67.8 -123.5 -77 -120.15 -89.9 -114.7 -97.95 -103.6 -102.2 -97.9 -103.5 -92.45 -104.85 -87.05 -104.85 -78.85
L -104.85 -74.15 -101.05 -58.45 -100.15 -55.7 -127.4 -55.7 -127.4 -43.7 -101.05 -43.7 -101.05 98.85 -85.05 98.85 -85.05 -43.7 28.95 -43.7 28.95 31.05
Q 28.95 36.75 22.65 43.05 11.5 54.15 0.85 54.15 -4 54.15 -10.3 52.1 -24.95 44.65 -24.95 25.75 -24.95 13.45 -17.8 4.35 -10.6 -4.55 2 -4.55
L 6.55 -4.55 10.95 -2.8 12.55 -1.5 15.5 -0.75 15.5 -13.8
Q 13.45 -15.1 7.4 -15.85
L -0.8 -16.6 -8.85 -15.7
Q -20.85 -12.9 -29.8 -4.85 -42.1 6.25 -42.1 24.15 -42.1 41.85 -28.9 53.75 -15.7 65.6 1.1 65.6 17.8 65.6 28.95 54.45
L 28.95 98.85 44.65 98.85 44.65 34.7
Q 44.65 30 46.95 23.4 50.35 16.25 53.55 11.7 64.1 -1.5 76.4 -1.5 90.75 -1.5 96.2 9.05 99.1 15.2 99.1 23.7 99.1 29.7 95.9 38.05 89 53.6 76.4 66.2 73.65 68.8 71.6 69.55
L 84.45 79.35 93.4 69.55 100.15 61.35
Q 115.65 41.85 115.65 24.9 115.65 8.05 103.95 -2.35 91.35 -13.8 74.65 -13.8 62.95 -13.8 53.55 -6.45
L 44.65 1.6 44.65 -43.7 131.05 -43.7 131.05 -56 52.9 -56 35.5 -73.4
M 0.75 -84.25
L 7.65 -79.15
Q 12.95 -75.15 18.35 -69.75
L 33.15 -56 -62.6 -56 -62.6 -55.7 -85.05 -55.7 -86.55 -58.05 -88.75 -63.75 -90.5 -70.65 -90.5 -76.65
Q -90.5 -83.4 -88.45 -90.85 -82.15 -104.6 -71.3 -108.3 -66.45 -110.6 -59.3 -110.6 -50.65 -110.6 -38.65 -106.5 -26.6 -102.55 -17.25 -96.25
L 0.75 -84.25 Z"/>
</g>
</defs>

<g transform="matrix( 1.67596435546875, 0, 0, 1.67596435546875, 341.7,283.05) ">
<g transform="matrix( 1, 0, 0, 1, 0,0) ">
<use xlink:href="#Duplicate_Items_Folder_Symbol_4_copy_2_6_Layer0_0_FILL"/>
</g>
</g>
</svg>
