
<svg xmlns="http://www.w3.org/2000/svg" version="1.1" xmlns:xlink="http://www.w3.org/1999/xlink" preserveAspectRatio="none" x="0px" y="0px" width="1920px" height="1080px" viewBox="0 0 1920 1080">
<defs>
<g id="Symbol_1_5_Layer1_0_FILL">
<path fill="#FFFFFF" stroke="none" d="
M -132 -6.4
L -129.8 -8.35 -126.9 -9.75 -123.7 -10.65
Q -122.85 -10.65 -120.4 -10.65
L -116.65 -10.1
Q -114.45 -9.55 -113.85 -8.6
L -114.85 -15.25 -116.05 -15.55 -116.8 -15.85 -120.4 -16.45 -123.7 -16.45
Q -125.65 -16.45 -127.45 -16.2 -129.4 -15.9 -131.45 -15 -135.2 -13.3 -138.1 -10.4 -144.2 -4.3 -144.2 4 -144.2 8.45 -142.75 12.4 -141 16.05 -137.45 19.15 -133.9 22.25 -130.35 23.55 -126.75 24.75 -122.45 24.75
L -118.25 24.75
Q -115.95 24.3 -114.15 23.4
L -110.4 21.5
Q -108.35 20 -107.1 18.2
L -107.1 8.05 -107.95 10.1 -132 -6.4
M -135.7 -1.55
L -135.05 -2.95 -111.25 13.9 -113 15.45 -114.45 16.45
Q -115.8 17.5 -116.5 17.85 -117.2 18.2 -118.4 18.5
L -119.95 19.05 -122.3 19.05
Q -124.5 19.05 -127.8 18.1 -130.6 16.75 -132.65 14.6 -134.9 12.55 -135.9 10 -136.8 7.45 -136.8 4
L -136.8 2.15 -135.7 -1.55
M -238.4 -34.75
L -238.4 -28.95 -221.75 -28.8
Q -225.8 -24.1 -225.8 -19.45 -225.8 -16.4 -224.45 -13.55 -223.05 -10.75 -220.55 -8.55 -215.95 -4 -209 -4
L -204.5 -4.7
Q -201.75 -5.55 -199.55 -7.2
L -195.65 -10.25 -195.65 -6.05 -196.5 -3.1 -198.8 0.8 -202.3 4.35 -206.8 7.4
Q -210.8 9.5 -215.05 9.95
L -219.65 10.1 -220.55 9.8 -225.35 5.9 -230.4 10.95 -195.65 40.4 -190.55 35.3 -214.7 15.3
Q -209.3 15.3 -204.35 13.25 -197.4 10.45 -192.75 3.45 -188.15 -3.5 -188.15 -11.25
L -188.7 -16.05 -189.95 -20.65 -192.3 -24.9
Q -193.3 -27 -195.35 -28.95
L -186 -28.95 -186 -28.8 -171.8 -28.8 -171.8 40.1 -164.05 40.1 -164.05 -28.8 -71.4 -28.8 -71.4 -15.25 -92.85 -15.25
Q -98.95 -15.25 -103.2 -9.95 -107.35 -4.7 -107.35 2 -107.35 9.8 -104.25 15.05 -101.15 20.2 -93.9 23.65 -86.75 27.05 -75.3 27.05
L -74.3 27.05 -73.15 26.8 -65.15 43 -55.6 43 -60.2 36.9 -62.7 32.75 -66.3 24.75 -63.1 22.55
Q -60.65 19.9 -60.65 15.3
L -61.2 12.4
Q -62.7 8.95 -65.15 8.05 -66.35 7.3 -67.8 7.3 -72.05 7.3 -73.95 10.1
L -75.3 13
Q -75.3 13.7 -75.3 16.15
L -75.3 17.8
Q -75.3 18.35 -75.3 19.9
L -75.3 20.7 -74.7 21.55 -82.3 21 -87.55 19.8
Q -100.15 15.05 -100.15 1.85
L -99.45 -2.1 -97.1 -5.7
Q -93.35 -9.2 -89.8 -9.2
L -63.1 -9.2 -63.1 -28.8 -47.3 -28.8 -47.3 -34.75 -238.4 -34.75
M -212.55 -28.2
Q -211.3 -28.95 -208.65 -28.95 -202.45 -28.95 -198.95 -23.35 -198.25 -22.4 -197.75 -20.95
L -196.5 -17.9 -199.25 -14.05
Q -203.4 -10.25 -208.1 -10.25 -212.4 -10.25 -215.2 -12.95 -217.95 -15.6 -217.95 -19.95
L -217.35 -23.35
Q -215.75 -27.3 -212.55 -28.2
M 144.55 48.3
L 135.95 48.3 135.95 56.45 144.55 56.45 144.55 48.3
M 6.2 -34.75
L 6.2 -28.8 17.55 -28.8 17.55 -1.95
Q 17.55 1.5 18.95 5.9 25.05 18.2 37.65 18.2 43.6 18.2 48.7 14.75
L 53.15 11.2 53.15 40.1 60.85 40.1 60.85 -28.8 83.45 -28.8 83.45 40.1 91.15 40.1 91.15 -28.8 150.05 -28.8 150.05 -12.1 130.25 -12.1
Q 121.95 -12.1 116.65 -6.7 111.25 -1.4 111.25 6.6 111.25 13.55 113.95 18.7 116.65 23.9 122.3 28.65 132.15 37.2 144.75 37.2 146.55 37.2 148.35 36.9 150.3 36.65 152.9 36.2 157.1 34.6 160.15 32.4 166.8 27.2 166.8 19.05
L 166.5 15.75
Q 165.35 10.65 161.2 7.8 156.95 5 151.75 5 145.7 5 141.65 8.45 137.7 11.9 137.7 18.5 137.7 20.75 138.65 24.6
L 141.6 29.75 142.3 30.7 143.35 31.65 136.2 29.75 131.15 27.5
Q 119 20.2 119 6.25 119 3.55 120 0.95 121.9 -3.5 126.35 -5.7 128 -6.4 128.85 -6.65 129.7 -6.85 131.75 -6.85
L 157.8 -6.85 157.8 -28.8 185.55 -28.8 185.55 8.65 219.3 40.25 220 40.75 220.45 41.15
Q 222.5 43 222.5 45.2
L 221.95 46.4 221.95 47.3 220.6 48.4 219.3 48.95 216.75 48.95 215.9 49.35 213.5 48.95 212.5 48.95 219.05 55.3 224.55 53.9
Q 230.1 50.65 230.1 45.75
L 229.7 42.7 228.6 40.1 193.55 6.9 193.55 -28.8 220.85 -28.8 220.85 -3.1 220.15 0.1 218.4 3.15
Q 215.85 5.9 212.95 5.9
L 218.45 10.2 222.2 8.65
Q 224.25 7.45 225.55 5.9 228.6 2.85 228.6 -1.55
L 228.6 -28.8 238.45 -28.8 238.45 -34.75 157.85 -34.75 149.45 -43.15 139 -51.85
Q 134.55 -55.5 128.9 -58.95 115.15 -67.4 104.2 -67.4 99.5 -67.4 95.05 -65.75 88.85 -63.15 84.95 -57.75 82.9 -55 82.25 -52.35 81.6 -49.75 81.6 -45.8
L 81.6 -43.5 83.85 -34.6 72.75 -34.6 72.75 -34.75 6.2 -34.75
M 24.9 -0.95
L 24.9 -28.8 53.15 -28.8 53.15 2.6 48.95 7.6 46.2 9.8
Q 41.65 12.55 37.35 12.55
L 33.05 11.85
Q 24.9 7.3 24.9 -0.95
M 89.55 -51.6
Q 92.6 -58.25 97.8 -60 100.15 -61.15 103.6 -61.15 107.8 -61.15 113.6 -59.15 119.4 -57.25 123.95 -54.2
L 136 -45.9
Q 138.55 -44 141.15 -41.4
L 148.3 -34.75 102 -34.75 102 -34.6 91.15 -34.6 90.45 -35.75 88.55 -41.8 88.55 -44.7
Q 88.55 -48 89.55 -51.6
M 144.75 15.75
L 146.4 13
Q 147.5 11.5 149 11.05 150.3 10.5 152.6 10.5 155.95 10.5 157.65 13
L 159 15.75 159.4 19.05 158.7 23.75
Q 156.4 30.95 150.65 30.95
L 148.65 29.85 147.4 28.65
Q 144.2 25.3 144.2 19.05
L 144.75 15.75 Z"/>
</g>
</defs>

<g transform="matrix( 1, 0, 0, 1, 960,540) ">
<g transform="matrix( 1, 0, 0, 1, 0,0) ">
<use xlink:href="#Symbol_1_5_Layer1_0_FILL"/>
</g>
</g>
</svg>
