
<svg xmlns="http://www.w3.org/2000/svg" version="1.1" xmlns:xlink="http://www.w3.org/1999/xlink" preserveAspectRatio="none" x="0px" y="0px" width="325px" height="228px" viewBox="0 0 325 228">
<defs>
<linearGradient id="Gradient_1" gradientUnits="userSpaceOnUse" x1="-20.2" y1="-35.849999999999994" x2="-20.2" y2="253.35" spreadMethod="pad">
<stop  offset="0%" stop-color="#FFFFFF"/>

<stop  offset="100%" stop-color="#CBCBCB"/>
</linearGradient>

<filter id="Filter_1" x="-20%" y="-20%" width="140%" height="140%" color-interpolation-filters="sRGB">
<feColorMatrix in="SourceGraphic" type="matrix" values="0.554890783513812 1.6142985945844595 -1.1691893780982718 0 0 -0.032704619993053206 0.5973929315038167 0.43531168848923635 0 0 1.1994886020766269 -0.2803641017162312 0.08087549963960429 0 0 0 0 0 1 0 " result="result1"/>
</filter>

<g id="Duplicate_Items_Folder_Paper_copy_0_Layer0_0_FILL">
<path fill="#03C400" stroke="none" d="
M -0.1 -256.25
Q -151.4 -256.25 -258.35 -181.2 -365.35 -106.15 -365.35 -0.05 -365.35 106.1 -258.35 181.15 -151.4 256.25 -0.1 256.25 151.2 256.25 258.2 181.15 365.2 106.1 365.2 0 365.2 -106.15 258.2 -181.2 151.2 -256.25 -0.1 -256.25 Z"/>
</g>

<g id="Duplicate_Items_Folder_Paper_copy_0_Layer0_1_FILL">
<path fill="#006600" stroke="none" d="
M -0.15 -216.8
Q -145.8 -216.8 -248.8 -153.3 -351.8 -89.85 -351.8 -0.05 -351.8 89.8 -248.8 153.25 -145.8 216.8 -0.15 216.8 145.5 216.8 248.55 153.25 351.55 89.8 351.55 0 351.55 -89.85 248.55 -153.3 145.5 -216.8 -0.15 -216.8 Z"/>
</g>

<g id="Duplicate_Items_Folder_Paper_copy_0_Layer0_2_FILL">
<path fill="url(#Gradient_1)" stroke="none" d="
M -0.25 -225.55
Q -139.95 -225.55 -238.8 -159.5 -337.55 -93.5 -337.55 -0.05 -337.55 93.45 -238.8 159.45 -139.95 225.55 -0.25 225.55 139.5 225.55 238.35 159.45 337.1 93.45 337.1 0 337.1 -93.5 238.35 -159.5 139.5 -225.55 -0.25 -225.55 Z"/>
</g>
</defs>

<g id="Layer_2">
<g transform="matrix( 1, 0, 0, 1, 162.5,114) ">
<g filter="url(#Filter_1)" transform="matrix( 1, 0, 0, 1, -162.5,-114) ">
<g transform="matrix( 0.4438934326171875, 0, 0, 0.4438934326171875, 162.55,114) ">
<g transform="matrix( 1, 0, 0, 1, 0,0) ">
<use xlink:href="#Duplicate_Items_Folder_Paper_copy_0_Layer0_0_FILL"/>
</g>

<g transform="matrix( 0.9811248779296875, 0, 0, 1.1064453125, -0.1,0) ">
<use xlink:href="#Duplicate_Items_Folder_Paper_copy_0_Layer0_1_FILL"/>
</g>

<g transform="matrix( 1, 0, 0, 1, 0,0) ">
<use xlink:href="#Duplicate_Items_Folder_Paper_copy_0_Layer0_2_FILL"/>
</g>
</g>
</g>
</g>
</g>
</svg>
