
<svg xmlns="http://www.w3.org/2000/svg" version="1.1" xmlns:xlink="http://www.w3.org/1999/xlink" preserveAspectRatio="none" x="0px" y="0px" width="1009px" height="103px" viewBox="0 0 1009 103">
<defs/>

<g id="Layer_1">
<g transform="matrix( 1, 0, 0, 1, 504.5,51.5) ">
<g id="Layer_2">
<g transform="matrix( 1.215423583984375, 0, 0, 1.215423583984375, 0,-1.5) ">
<g id="Layer_1">
<g transform="matrix( 1, 0, 0, 1, 1.05,0) ">
<g>
<g>
<path fill="#FFFFFF" stroke="none" d="
M -46.8 -9.55
L -46.8 -7.9 -34.6 -7.9 -34.6 2.05
Q -34.6 2.8 -35.45 3.65 -36.9 5.15 -38.35 5.15 -39 5.15 -39.85 4.85 -41.8 3.85 -41.8 1.35 -41.8 -0.3 -40.8 -1.5 -39.85 -2.7 -38.2 -2.7
L -37.6 -2.7 -37 -2.45 -36.8 -2.3 -36.4 -2.2 -36.4 -3.9
Q -36.65 -4.1 -37.45 -4.2
L -38.55 -4.3 -39.65 -4.15
Q -41.25 -3.8 -42.4 -2.75 -44.05 -1.25 -44.05 1.15 -44.05 3.5 -42.3 5.1 -40.55 6.65 -38.3 6.65 -36.1 6.65 -34.6 5.2
L -34.6 11.1 -32.5 11.1 -32.5 2.55
Q -32.5 1.9 -32.2 1.05 -31.75 0.1 -31.3 -0.5 -29.9 -2.3 -28.25 -2.3 -26.35 -2.3 -25.65 -0.85 -25.25 -0.05 -25.25 1.1 -25.25 1.9 -25.65 3 -26.6 5.05 -28.25 6.75 -28.65 7.1 -28.9 7.2
L -27.2 8.5 -25.1 6.1
Q -23.05 3.5 -23.05 1.25 -23.05 -1 -24.6 -2.4 -26.25 -3.9 -28.5 -3.9 -30.05 -3.9 -31.3 -2.95
L -31.8 -2.55 -32.5 -1.85 -32.5 -7.9 -17.75 -7.9 -17.75 11.1 -15.65 11.1 -15.65 -7.9 -11.75 -7.9 -11.75 -9.55 -16.1 -9.55 -24.3 -19.6 -25.75 -18.1 -17.45 -9.55 -46.8 -9.55
M -65.85 -16.6
L -65.85 -14 -63.1 -14 -63.1 -16.6 -65.85 -16.6
M -122 -9.5
L -122 -7.9 -118.5 -7.9 -118.5 11.1 -116.35 11.1 -116.35 -7.9 -96.45 -7.9 -96.45 0.5
Q -96.45 1 -97.55 2.15
L -98.4 3
Q -100.8 5.2 -103.1 5.2
L -104.2 5.05
Q -105.75 4.4 -105.75 2.4 -105.75 0.55 -103.8 -1.05
L -101.85 -2.5 -99.2 -2.5 -99.2 -4.15 -111.4 -4.15 -111.4 -2.5 -104.85 -2.45
Q -105.4 -2.1 -105.85 -1.65 -107.85 0.35 -107.85 2.45 -107.85 3.45 -107.5 4.3 -107.1 5.2 -106.5 5.7 -105.2 6.85 -103.2 6.85 -102.15 6.85 -100.95 6.35 -99.35 5.75 -98.55 5.1
L -97.1 3.95 -96.45 3.15 -96.45 11.1 -94.35 11.1 -94.35 -7.9 -75.25 -7.9 -75.25 1.1 -78.1 -1.9
Q -80.35 -4.15 -81.55 -4.15 -82.1 -4.15 -82.75 -3.95
L -88.25 -1.8 -89.5 -1.1 -88.25 0.5 -85.6 -0.9
Q -83.2 -2.15 -81.75 -2.15 -80.8 -2.15 -78.45 0.15
L -76.15 2.35 -86.05 7.5 -84.8 9.3 -75.25 3.6 -75.25 11.05 -73.2 11.1 -73.2 -7.9 -67.2 -7.9 -67.2 11.1 -65.1 11.1 -65.1 -7.9 -61.2 -7.9 -61.2 -9.55 -65.55 -9.55 -73.75 -19.6 -75.2 -18.1 -66.9 -9.55 -97.95 -9.55 -103.15 -14.25
Q -104.4 -15.25 -105.95 -16.2 -109.75 -18.55 -112.75 -18.55 -114.05 -18.55 -115.3 -18.1 -117 -17.4 -118.05 -15.9 -118.65 -15.15 -118.8 -14.4 -119 -13.7 -119 -12.6
L -119 -11.95 -118.5 -9.9 -118.35 -9.5 -122 -9.5
M -107.3 -14.9
L -104 -12.65
Q -103.3 -12.1 -102.55 -11.4
L -100.6 -9.55 -113.35 -9.55 -113.35 -9.5 -116.35 -9.5 -116.55 -9.8 -117.1 -11.5 -117.1 -12.3
Q -117.1 -13.2 -116.8 -14.2 -115.95 -16.05 -114.5 -16.5 -113.85 -16.85 -112.9 -16.85 -111.75 -16.85 -110.15 -16.3 -108.55 -15.75 -107.3 -14.9
M -162.75 -9.55
L -162.75 -7.9 -150.55 -7.9 -150.55 2.05
Q -150.55 2.8 -151.4 3.65 -152.85 5.15 -154.3 5.15 -154.95 5.15 -155.8 4.85 -157.75 3.85 -157.75 1.35 -157.75 -0.3 -156.75 -1.5 -155.8 -2.7 -154.15 -2.7
L -153.55 -2.7 -152.95 -2.45 -152.75 -2.3 -152.35 -2.2 -152.35 -3.9
Q -152.6 -4.1 -153.4 -4.2
L -154.5 -4.3 -155.6 -4.15
Q -157.2 -3.8 -158.35 -2.75 -160 -1.25 -160 1.15 -160 3.5 -158.25 5.1 -156.5 6.65 -154.25 6.65 -152.05 6.65 -150.55 5.2
L -150.55 11.1 -148.45 11.1 -148.45 2.55
Q -148.45 1.9 -148.15 1.05 -147.7 0.1 -147.25 -0.5 -145.85 -2.3 -144.2 -2.3 -142.3 -2.3 -141.6 -0.85 -141.2 -0.05 -141.2 1.1 -141.2 1.9 -141.6 3 -142.55 5.05 -144.2 6.75 -144.6 7.1 -144.85 7.2
L -143.15 8.5 -141.05 6.1
Q -139 3.5 -139 1.25 -139 -1 -140.55 -2.4 -142.2 -3.9 -144.45 -3.9 -146 -3.9 -147.25 -2.95
L -147.75 -2.55 -148.45 -1.85 -148.45 -7.9 -136.95 -7.9 -136.95 -9.55 -149.05 -9.55 -157.25 -19.6 -158.7 -18.1 -150.4 -9.55 -162.75 -9.55
M -222.85 -4.15
L -228.2 -1.95 -229.15 -1.45 -227.9 0.15 -225.2 -1.25
Q -222.5 -2.65 -221.35 -2.65 -220.3 -2.45 -218.4 -0.35
L -216.3 1.9 -225.3 7.75 -223.95 9.55 -215.35 3.15 -215.35 11.1 -213.25 11.1 -213.25 2.25 -207.75 -0.4 -205.55 2.3
Q -207.05 2.3 -208.4 3.55 -209.55 4.6 -209.55 6.35 -209.55 9.55 -206.35 10.5 -205.65 10.7 -205.2 10.75 -204.75 10.85 -204.1 10.85
L -203.15 10.85 -201.15 10.2 -200.1 9.7 -199.35 9.2 -198.5 8.4 -200 6.7 -201.2 8
Q -201.7 8.5 -202.75 8.95 -203.2 9.15 -203.5 9.2 -203.75 9.25 -204.35 9.25
L -205.5 9.1 -206.4 8.65
Q -206.9 8.15 -207.1 7.8 -207.3 7.15 -207.3 6.45 -207.3 4.7 -205.2 3.75
L -204.35 3.4 -203.05 3.05 -206.15 -0.85 -205.25 -1.4
Q -204.35 -2.1 -204.35 -2.8 -204.35 -5.25 -206.45 -5.25
L -207.35 -5.05
Q -208.25 -4.5 -208.45 -3.85 -208.65 -3.2 -208.65 -2.75
L -208.65 -2.2 -208.4 -1.8 -213.25 0.5 -213.25 -7.9 -183.2 -7.9 -183.2 -3.85 -191.95 -3.85
Q -192.75 -3.85 -193.5 -3.45 -194.25 -3.05 -194.6 -2.55 -195.5 -1.4 -195.5 0.4 -195.5 1.85 -195.15 3.15 -194.75 4.45 -193.9 5.9
L -192.65 7.85 -189.85 10.8
Q -189.65 11 -189.6 11 -189.5 11.05 -189.35 11.1
L -187.95 9.65
Q -188.35 9.65 -188.7 9.4 -190.05 8.6 -191.75 5.85 -193.4 3.15 -193.4 0.4
L -193.25 -0.6
Q -192.8 -1.8 -191.9 -1.95 -191.3 -2.2 -190.65 -2.2
L -183.2 -2.2 -183.2 11.1 -183.05 11.1
Q -184.298828125 11.3564453125 -185.25 11.9
L -186.3 12.55 -186.75 12.95 -185.2 14.4 -184.3 13.5
Q -183.2 12.7 -182.2 12.7
L -181.3 12.9
Q -180.8 13.2 -180.6 13.5
L -179.95 14.4
Q -179.8 14.85 -179.7 15.35 -179.7 16.1 -179.95 16.65 -181.2 18.6 -184.15 18.6 -186.6 18.6 -189.35 16.8
L -191.95 14.95 -193.3 16.65
Q -192.85 17.15 -191.6 17.85
L -190.35 18.6 -188.8 19.3
Q -186.2 20.4 -184.25 20.4 -181.75 20.4 -179.9 19.25 -177.7 17.9 -177.7 15.4 -177.7 14.6 -178 13.6 -178.3 12.8 -178.95 12.15 -179.815625 11.284375 -181.2 11.1
L -181.05 11.1 -181.05 -7.9 -177.4 -7.9 -177.4 -9.55 -230.45 -9.55 -230.45 -7.9 -215.35 -7.9 -215.35 0.75
Q -215.55 0.25 -215.95 -0.15
L -217.65 -2.05
Q -218.7 -3.2 -219.75 -4 -220.7 -4.6 -221.15 -4.6
L -222.85 -4.15
M -284.25 -9.55
L -284.25 -7.9 -277.75 -7.9 -277.75 -1.45 -280.9 -1.35 -281.1 -1.15
Q -281.2 -1.05 -281.2 -0.75 -281.2 -0.2 -280.75 0.55 -279.65 2.45 -277.85 3.8 -277 4.25 -276.6 4.25
L -276.05 4.1
Q -275.8 3.9 -275.75 3.5
L -275.75 -7.9 -269.45 -7.9 -269.45 11.1 -267.3 11.1 -267.3 -7.9 -260.1 -7.9 -260.1 2.45 -250.8 11.15 -250.6 11.3 -250.5 11.4
Q -249.9 11.9 -249.9 12.5
L -250.1 12.85 -250.1 13.1 -250.45 13.4 -250.8 13.55 -251.5 13.55 -251.75 13.65 -252.4 13.55 -252.7 13.55 -250.9 15.3 -249.35 14.9
Q -247.85 14 -247.85 12.65
L -247.95 11.8 -248.25 11.1 -257.9 1.95 -257.9 -7.9 -250.35 -7.9 -250.35 -0.8 -250.55 0.05 -251.05 0.9
Q -251.75 1.65 -252.55 1.65
L -251.05 2.85 -250 2.45
Q -249.45 2.1 -249.1 1.65 -248.25 0.85 -248.25 -0.4
L -248.25 -7.9 -245.55 -7.9 -245.55 -9.55 -284.25 -9.55
M -345.55 -9.5
L -345.55 -7.9 -342.05 -7.9 -342.05 11.1 -339.9 11.1 -339.9 -7.9 -323.45 -7.9 -323.45 -4.15 -329.4 -4.15
Q -331.05 -4.15 -332.25 -2.7 -333.4 -1.25 -333.4 0.6 -333.4 2.75 -332.5 4.2 -331.65 5.6 -329.65 6.55 -327.7 7.5 -324.55 7.5
L -324.25 7.5 -323.95 7.45 -321.75 11.9 -319.1 11.9 -319.4 11.45 -319.7 11.15 -320.4 10.2 -322.05 6.85 -321.55 6.55 -321.2 6.25
Q -320.5 5.55 -320.5 4.25
L -320.65 3.45
Q -321.05 2.5 -321.75 2.25 -322.1 2.05 -322.45 2.05 -323.65 2.05 -324.15 2.8
L -324.55 3.6
Q -324.55 3.8 -324.55 4.5
L -324.55 4.95
Q -324.55 5.1 -324.55 5.55
L -324.55 5.75 -324.4 6 -326.45 5.85 -327.9 5.5
Q -331.4 4.2 -331.4 0.55
L -331.2 -0.55 -330.55 -1.55
Q -329.5 -2.5 -328.55 -2.5
L -321.2 -2.5 -321.2 -7.9 -313.9 -7.9 -313.9 2.45 -304.6 11.15 -304.4 11.3 -304.3 11.4
Q -303.7 11.9 -303.7 12.5
L -303.9 12.85 -303.9 13.1 -304.25 13.4 -304.6 13.55 -305.3 13.55 -305.55 13.65 -306.2 13.55 -306.5 13.55 -304.7 15.3 -303.15 14.9
Q -301.65 14 -301.65 12.65
L -301.75 11.8 -302.05 11.1 -311.7 1.95 -311.7 -7.9 -304.15 -7.9 -304.15 -0.8 -304.35 0.05 -304.85 0.9
Q -305.55 1.65 -306.35 1.65
L -304.85 2.85 -303.8 2.45
Q -303.25 2.1 -302.9 1.65 -302.05 0.85 -302.05 -0.4
L -302.05 -7.9 -299.35 -7.9 -299.35 -9.55 -321.5 -9.55 -326.7 -14.25
Q -327.95 -15.25 -329.5 -16.2 -333.3 -18.55 -336.3 -18.55 -337.6 -18.55 -338.85 -18.1 -340.55 -17.4 -341.6 -15.9 -342.2 -15.15 -342.35 -14.4 -342.55 -13.7 -342.55 -12.6
L -342.55 -11.95 -342.05 -9.9 -341.9 -9.5 -345.55 -9.5
M -330.85 -14.9
L -327.55 -12.65
Q -326.85 -12.1 -326.1 -11.4
L -324.15 -9.55 -336.9 -9.55 -336.9 -9.5 -339.9 -9.5 -340.1 -9.8 -340.65 -11.5 -340.65 -12.3
Q -340.65 -13.2 -340.35 -14.2 -339.5 -16.05 -338.05 -16.5 -337.4 -16.85 -336.45 -16.85 -335.3 -16.85 -333.7 -16.3 -332.1 -15.75 -330.85 -14.9
M 343.4 -10.15
L 341.3 -10.15 341.3 13.25 343.4 13.25 343.4 -10.15
M 320.85 -16.85
L 323.25 -16.85 323.25 -19.05 320.85 -19.05 320.85 -16.85
M 322.1 -13.5
Q 320.2 -13.5 319 -14.6 317.75 -15.85 317.75 -17.65
L 315.65 -17.6
Q 316.15 -15 317.7 -13.5 319.25 -12 322.1 -12 323.4 -12 324.7 -12.4 325.8 -12.85 326.6 -13.65 328.45 -15.4 328.45 -17.65
L 326.4 -17.6
Q 326.4 -16.7 326.1 -15.85 324.85 -13.5 322.1 -13.5
M 260.35 -18.55
Q 259.05 -18.55 257.8 -18.1 256.1 -17.4 255.05 -15.9 254.45 -15.15 254.3 -14.4 254.1 -13.7 254.1 -12.6
L 254.1 -11.95 254.6 -9.9 254.75 -9.5 251.1 -9.5 251.1 -7.9 254.6 -7.9 254.6 11.1 256.75 11.1 256.75 -7.9 264.85 -7.9 264.85 -0.75 263.1 -0.75 262.7 -0.65 262.5 -0.55
Q 262.25 -0.4 262.05 -0.2
L 261.95 0.35
Q 262 0.85 262.35 1.35 263.7 3.05 264.4 3.8 265.4 4.8 266 4.8
L 266.55 4.75 266.85 4.5 266.85 1 274.2 1 274.2 11.1 276.25 11.1 276.25 -7.9 297.65 -7.9 297.65 -2.65 296.7 -2.65 294.8 -2 292.8 -0.6
Q 292.75 -0.85 292.4 -1.1
L 291.35 -1.95
Q 290.55 -2.55 289.55 -2.85 288.8 -3.1 288.35 -3.1 287.85 -3.15 287.5 -3.15 284.9 -3.15 283.25 -1.6 281.6 -0.05 281.6 2.4 281.6 5.2 284.05 7.8 287.4 11.25 289.45 11.25
L 290.45 9.6 287 7.75
Q 283.55 5.55 283.55 2.55 283.55 1.15 284.65 -0.25 285.35 -0.9 285.85 -1.15 286.35 -1.35 286.55 -1.4 286.8 -1.4 287.3 -1.4
L 288.55 -1.2 289.95 -0.65
Q 291.45 0 291.7 0.75
L 291.45 1.35 290.35 3.1 290.35 3.6 292.1 4.6 292.4 3.65 293.6 1.55 294.85 0.2 295.35 -0.15 296.6 -0.75 297.65 -1.05 297.65 11.1 299.7 11.1 299.7 -7.9 306.3 -7.9 306.3 11.1 308.4 11.1 308.4 -7.9 314.65 -7.9 314.65 2.45 323.95 11.15 324.15 11.3 324.25 11.4
Q 324.85 11.9 324.85 12.5
L 324.65 12.85 324.65 13.1 324.3 13.4 323.95 13.55 323.25 13.55 323 13.65 322.35 13.55 322.05 13.55 323.85 15.3 325.4 14.9
Q 326.9 14 326.9 12.65
L 326.8 11.8 326.5 11.1 316.85 1.95 316.85 -7.9 324.4 -7.9 324.4 -0.8 324.2 0.05 323.7 0.9
Q 323 1.65 322.2 1.65
L 323.7 2.85 324.75 2.45
Q 325.3 2.1 325.65 1.65 326.5 0.85 326.5 -0.4
L 326.5 -7.9 329.2 -7.9 329.2 -9.55 275.15 -9.55 269.95 -14.25
Q 268.7 -15.25 267.15 -16.2 263.35 -18.55 260.35 -18.55
M 256.3 -14.2
Q 257.15 -16.05 258.6 -16.5 259.25 -16.85 260.2 -16.85 261.35 -16.85 262.95 -16.3 264.55 -15.75 265.8 -14.9
L 269.1 -12.65
Q 269.8 -12.1 270.55 -11.4
L 272.5 -9.55 259.75 -9.55 259.75 -9.5 256.75 -9.5 256.55 -9.8 256 -11.5 256 -12.3
Q 256 -13.2 256.3 -14.2
M 266.85 -0.75
L 266.85 -7.9 274.2 -7.9 274.2 -0.75 266.85 -0.75
M 212 -9.55
L 212 -7.9 221.45 -7.9 221.45 -0.95 221.15 -0.35
Q 221 -0.1 220.65 0.05
L 219.75 0.15
Q 218.1 0.15 217.35 -1.25
L 216.2 -3.5 214.45 -2.4 221.9 9.05
Q 223.1 10.85 223.8 11.1
L 225.45 9.75 221.6 5.3 219.15 1.55
Q 219.45 1.7 219.7 1.7
L 220.15 1.75 220.55 1.7
Q 220.7 1.55 221.05 1.55
L 221.9 1.3
Q 223 0.85 223.25 0
L 223.45 -0.85 223.45 -7.9 231 -7.9 231 -0.95 223.95 -0.95 225.35 0.7 231 0.7 231 11.1 233.1 11.1 233.1 -7.9 236.4 -7.9 236.4 -9.55 232.45 -9.55 224.25 -19.6 222.8 -18.1 231.1 -9.55 212 -9.55
M 150.05 -9.55
L 150.05 -7.9 164.85 -7.9 164.85 -2.4 153.4 -2.4 153.05 -2.25
Q 152.4 -1.75 152.4 -1.05 152.55 -0.6 152.9 0.05 153.55 1.1 154.15 1.8
L 155.65 3.35
Q 156.3 3.85 156.55 3.85
L 157 3.85
Q 157.35 3.55 157.35 3.45 157.4 3.4 157.4 3.2
L 157.4 -0.75 164.85 -0.75 164.85 11.1 167 11.1 167 -7.9 173.3 -7.9 173.3 11.1 175.4 11.1 175.4 -7.9 183.45 -7.9 183.45 -0.75 181.7 -0.75 181.3 -0.65 181.1 -0.55
Q 180.85 -0.4 180.65 -0.2
L 180.55 0.35
Q 180.6 0.85 180.95 1.35 182.3 3.05 183 3.8 184 4.8 184.6 4.8
L 185.15 4.75 185.45 4.5 185.45 1 192.8 1 192.8 11.1 194.85 11.1 194.85 -7.9 197.85 -7.9 197.85 -9.55 150.05 -9.55
M 192.8 -0.75
L 185.45 -0.75 185.45 -7.9 192.8 -7.9 192.8 -0.75
M 84.25 -9.55
L 84.25 -7.9 93.7 -7.9 93.7 -0.95 93.4 -0.35
Q 93.25 -0.1 92.9 0.05
L 92 0.15
Q 90.35 0.15 89.6 -1.25
L 88.45 -3.5 86.7 -2.4 89.25 2 94.15 9.05
Q 95.35 10.85 96.05 11.1
L 97.7 9.75 96.85 8.9 93.85 5.3 91.4 1.55
Q 91.7 1.7 91.95 1.7
L 92.4 1.75 92.8 1.7
Q 92.95 1.55 93.3 1.55
L 94.15 1.3
Q 95.25 0.85 95.5 0
L 95.7 -0.85 95.7 -7.9 103.25 -7.9 103.25 -0.95 96.2 -0.95 97.6 0.7 103.25 0.7 103.25 11.1 105.35 11.1 105.35 -7.9 120.95 -7.9 120.95 -4.45 112.55 -4.45 111.8 -4.3 111.25 -4 110.8 -3.45 110.65 -2.75 111.05 -1.25
Q 111.3 -0.5 112.05 0.5
L 113.45 2.05 112.5 3
Q 112.05 3.45 111.7 3.95 111.05 5 111.05 6 111.05 9.65 116.25 11.45
L 117.75 11.95
Q 119.6 12.6 120.85 12.6 121.4 12.5 121.55 12.45
L 122.3 11
Q 122.25 11 122.2 11 122.1 11 121.9 11
L 121 11 117.65 10.15
Q 115.5 9.55 114.35 8.5 113.3 7.4 113.3 6.25 113.3 5.35 113.65 4.6 114.65 2.3 118.35 2.3
L 120 2.45
Q 122.3 2.75 122.3 4.8 122.2 5.8 121.6 6.4
L 121.5 6.55 121.35 6.6 121.15 6.75 120.95 6.8 122.45 8 123.6 7.15
Q 124.05 6.7 124.25 6.15 124.45 5.6 124.45 4.8 124.45 3.9 124 3 123.2 1.55 120.95 0.95 120.25 0.8 119.7 0.75 119.15 0.75 118.5 0.75
L 117.55 0.75 116.4 0.9 115.75 1.1 115.15 1.2 114.85 1.05 113.75 -0.35 113.6 -0.65
Q 113.15 -1.1 113.05 -1.5
L 112.9 -2.2 113.05 -2.55
Q 113.2 -2.75 113.6 -2.75
L 123.1 -2.75 123.1 -7.9 129.8 -7.9 129.8 11.1 131.9 11.1 131.9 -7.9 135.25 -7.9 135.25 -9.5 131.45 -9.5 128.85 -13.8
Q 127.6 -15.75 125.7 -17.05 124.15 -18.15 122.75 -18.15 119.45 -18.15 118.3 -14.75 118 -13.95 118 -13.65 117.95 -13.35 117.95 -12.8
L 117.95 -11.85 118.25 -11 118.65 -10.2 119.15 -9.55 84.25 -9.55
M 120.1 -13.15
L 120.1 -13.9
Q 120.4 -15 120.8 -15.6 121.5 -16.6 122.8 -16.6 124.25 -16.6 126.15 -14.35 129.4 -10.65 129.4 -9.65
L 129.35 -9.5 127.1 -9.5 127.1 -9.55 121.45 -9.55 121.2 -9.9 120.7 -10.9
Q 120.6 -11.15 120.5 -11.45 120.4 -11.75 120.25 -12.2 120.1 -12.65 120.1 -13.15
M 2.15 -9.55
L 2.15 -7.9 16.55 -7.9 17.6 -6.75
Q 18.65 -5.35 18.65 -4.2 18.65 -2.6 17.7 -1.9 17.45 -1.7 16.95 -1.6
L 15.75 -1.45 11.4 -1.45 12.15 0.25 15.85 0.25
Q 16.65 0.25 17.4 0.65 18.6 1.2 19.15 2.35 19.7 3.4 19.7 4.8 19.7 6.4 19 7.45 18.5 8.1 17.8 8.45 17.15 8.8 16 8.8 15.35 8.8 14.75 8.6 12.05 7.6 9.4 2.9
L 8.75 1.7 6.55 -3.7 4.75 -2.55 5 -1.55 6.1 0.85
Q 7.75 4.55 10 7.1 12.95 10.4 16 10.4 20 10.4 21.4 7.15 21.85 6.2 21.85 5.05 21.85 3.25 21 1.85 20.1 0.45 19.25 0.05
L 18.45 -0.35
Q 20.6 -1.75 20.6 -4
L 20.4 -5.35
Q 20.1 -6.25 19.75 -6.75
L 18.95 -7.9 39 -7.9 39 -2.4 27.55 -2.4 27.2 -2.25
Q 26.55 -1.75 26.55 -1.05 26.7 -0.6 27.05 0.05 27.7 1.1 28.3 1.8
L 29.8 3.35
Q 30.45 3.85 30.7 3.85
L 31.15 3.85
Q 31.5 3.55 31.5 3.45 31.55 3.4 31.55 3.2
L 31.55 -0.75 39 -0.75 39 11.1 41.15 11.1 41.15 -7.9 56.1 -7.9 56.1 2.05
Q 56.1 2.8 55.25 3.65 53.8 5.15 52.35 5.15 51.7 5.15 50.85 4.85 48.9 3.85 48.9 1.35 48.9 -0.3 49.9 -1.5 50.85 -2.7 52.5 -2.7
L 53.1 -2.7 53.7 -2.45 53.9 -2.3 54.3 -2.2 54.3 -3.9
Q 54.05 -4.1 53.25 -4.2
L 52.15 -4.3 51.05 -4.15
Q 49.45 -3.8 48.3 -2.75 46.65 -1.25 46.65 1.15 46.65 3.5 48.4 5.1 50.15 6.65 52.4 6.65 54.6 6.65 56.1 5.2
L 56.1 11.1 58.2 11.1 58.2 2.55
Q 58.2 1.9 58.5 1.05 58.95 0.1 59.4 -0.5 60.8 -2.3 62.45 -2.3 64.35 -2.3 65.05 -0.85 65.45 -0.05 65.45 1.1 65.45 1.9 65.05 3 64.1 5.05 62.45 6.75 62.05 7.1 61.8 7.2
L 63.5 8.5 65.6 6.1
Q 67.65 3.5 67.65 1.25 67.65 -1 66.1 -2.4 64.45 -3.9 62.2 -3.9 60.65 -3.9 59.4 -2.95
L 58.9 -2.55 58.2 -1.85 58.2 -7.9 69.7 -7.9 69.7 -9.55 66 -9.55 57.8 -19.6 56.35 -18.1 64.65 -9.55 2.15 -9.55 Z"/>
</g>
</g>
</g>
</g>
</g>
</g>
</g>
</g>
</svg>
