
<svg xmlns="http://www.w3.org/2000/svg" version="1.1" xmlns:xlink="http://www.w3.org/1999/xlink" preserveAspectRatio="none" x="0px" y="0px" width="16px" height="23px" viewBox="0 0 16 23">
<defs/>

<g id="Layer_1">
<g transform="matrix( 1, 0, 0, 1, 8,11.5) ">
<g id="Layer_1">
<g transform="matrix( 1, 0, 0, 1, 0,0.05) ">
<g>
<g>
<path fill="#000000" stroke="none" d="
M 6.2 -8.4
L 6.2 -10.95 -4.6 -10.95 -6.7 0.25 -4.2 0.55
Q -3.6 -0.4 -2.6 -0.95 -1.55 -1.55 -0.25 -1.55 1.8 -1.55 3.1 -0.25 4.4 1.1 4.4 3.35 4.4 5.75 3.05 7.2 1.7 8.7 -0.2 8.7 -1.8 8.7 -2.95 7.65 -4.1 6.6 -4.4 4.55
L -7.2 4.8
Q -6.9 7.55 -5.05 9.2 -3.15 10.85 -0.2 10.85 3.4 10.85 5.5 8.25 7.2 6.1 7.2 3.15 7.2 0.05 5.25 -1.95 3.3 -3.9 0.45 -3.9 -1.7 -3.9 -3.65 -2.55
L -2.5 -8.4 6.2 -8.4 Z"/>
</g>
</g>
</g>
</g>
</g>
</g>
</svg>
