
<svg xmlns="http://www.w3.org/2000/svg" version="1.1" xmlns:xlink="http://www.w3.org/1999/xlink" preserveAspectRatio="none" x="0px" y="0px" width="68px" height="68px" viewBox="0 0 68 68">
<defs/>

<g id="Layer_1">
<g transform="matrix( 1, 0, 0, 1, 34,34) ">
<g id="Layer_1">
<g transform="matrix( 1, 0, 0, 1, 0,0) ">
<g>
<g>
<path fill="#2A76C9" stroke="none" d="
M -31.5 -0.75
Q -31.75 -2.2 -31.95 -3.8 -32.15 -1.9 -32.15 0 -32.15 1.55 -32.05 3 -31.05 14.45 -22.7 22.75 -13.35 32.2 0 32.2 13.35 32.2 22.8 22.75 31.1 14.45 32.05 3.05 32.2 1.55 32.2 0 32.2 -1.9 32 -3.8 31.85 -2.2 31.55 -0.75 29.7 8.3 22.8 15.15 13.35 24.6 0 24.6 -13.35 24.6 -22.7 15.15 -29.6 8.3 -31.5 -0.75 Z"/>

<path fill="#4292E9" stroke="none" d="
M -22.7 -16.65
Q -29.6 -9.75 -31.5 -0.75 -29.6 8.3 -22.7 15.15 -13.35 24.6 0 24.6 13.35 24.6 22.8 15.15 29.7 8.3 31.55 -0.75 29.7 -9.75 22.8 -16.65 13.35 -26.05 0 -26.05 -13.35 -26.05 -22.7 -16.65 Z"/>

<path fill="#5BA1EE" stroke="none" d="
M -22.7 -22.7
Q -30.75 -14.7 -31.95 -3.8 -31.75 -2.2 -31.5 -0.75 -29.6 -9.75 -22.7 -16.65 -13.35 -26.05 0 -26.05 13.35 -26.05 22.8 -16.65 29.7 -9.75 31.55 -0.75 31.85 -2.2 32 -3.8 30.85 -14.7 22.8 -22.7 13.35 -32.15 0 -32.15 -13.35 -32.15 -22.7 -22.7 Z"/>
</g>
</g>

<g>
<path stroke="#002511" stroke-width="2" stroke-linejoin="round" stroke-linecap="round" fill="none" d="
M 32 -3.8
Q 30.85 -14.7 22.8 -22.7 13.35 -32.15 0 -32.15 -13.35 -32.15 -22.7 -22.7 -30.75 -14.7 -31.95 -3.8
M 32 -3.8
Q 32.2 -1.9 32.2 0 32.2 1.55 32.05 3.05 31.1 14.45 22.8 22.75 13.35 32.2 0 32.2 -13.35 32.2 -22.7 22.75 -31.05 14.45 -32.05 3 -32.15 1.55 -32.15 0 -32.15 -1.9 -31.95 -3.8"/>
</g>
</g>

<g transform="matrix( -0.9498291015625, 0, 0, 0.9498291015625, 1249.7,-880.8) ">
<g>
<g>
<path fill="#FFFFFF" stroke="none" d="
M 1318.15 913.45
L 1318.15 921.15 1298.25 921.15
Q 1295.6 921.15 1295.75 924
L 1295.75 930.5
Q 1295.9 932.1 1297.55 932.3
L 1318.15 932.3 1318.15 940.35
Q 1318.6 941.55 1320.1 940.95
L 1335.9 927.85
Q 1336.8 926.7 1335.9 925.6
L 1320.05 912.35
Q 1318.15 910.95 1318.15 913.45 Z"/>
</g>
</g>

<g transform="matrix( -1.0528106689453125, 0, 0, 1.0528106689453125, 1315.7,927.3) ">
<path stroke="#FFFFFF" stroke-width="2" stroke-linejoin="round" stroke-linecap="round" fill="none" d="
M -2.317230224609375 -5.864923095703148
L -2.317230224609375 -13.178607177734307
Q -2.317230224609375 -15.553179931640557 -4.121905517577943 -14.223419189453011
L -19.17669677734375 -1.6381835937498863
Q -20.031542968749818 -0.5933715820311818 -19.17669677734375 0.4989318847657387
L -4.169396972656159 12.941693115234443
Q -2.744653320312409 13.511590576171898 -2.317230224609375 12.371795654296989
L -2.317230224609375 4.725671386718773 17.249249267578307 4.725671386718773
Q 18.81646728515625 4.535705566406364 18.95894165039067 3.0159790039062955
L 18.95894165039067 -3.1579101562499545
Q 19.10141601562509 -5.864923095703148 16.58436889648442 -5.864923095703148
L -2.317230224609375 -5.864923095703148 Z"/>
</g>
</g>
</g>
</g>
</g>
</svg>
