
<svg xmlns="http://www.w3.org/2000/svg" version="1.1" xmlns:xlink="http://www.w3.org/1999/xlink" preserveAspectRatio="none" x="0px" y="0px" width="1563px" height="799px" viewBox="0 0 1563 799">
<defs>
<g id="Symbol_1_2_Layer1_0_FILL">
<path fill="#000000" stroke="none" d="
M 30.05 -31.15
Q 23.9 -38.3 17.45 -42.25 11 -46.2 3.4 -47.4 -4.25 -48.55 -12.6 -48.55 -37.2 -48.55 -49.8 -36.25 -60.2 -26 -60.2 -10.2 -60.2 11.05 -41.6 26.75 -25.2 40.5 -7.75 40.5 5.75 40.5 17.9 34.8 30.05 29.1 42.05 18.55
L 41.2 72.6 61.85 84.3 61.85 -72.9 182.6 -72.9 182.6 -28.5 120.75 -28.5
Q 107.3 -28.5 102.45 -26.3 97.6 -23.95 97.6 -18.55 97.6 -13.85 109.05 2.55 120.6 18.95 125.15 18.95 127.65 18.95 129.4 17.35 131.3 15.6 131.3 11.8
L 131.3 -6.25
Q 131.3 -8.4 132.9 -9 134.55 -9.6 138.8 -9.6
L 182.6 -9.6 182.6 72.6 202.95 84.3 202.95 -72.9 228.45 -72.9 218.15 -91.75 -232.45 -91.75 -222.65 -72.9 -192.6 -72.9 -192.6 -18.95
Q -192.6 -4.2 -174 10.75 -157.15 24.25 -144.85 24.25 -138.55 24.25 -129.6 21.6 -120.85 18.8 -116.6 16.5
L -117.45 71.7 -97.1 84.3 -97.1 -72.9 41.2 -72.9 40.6 -17.65
Q 33.7 -27.3 30.05 -31.15
M 20.55 -22.2
Q 31.95 -16.2 41.2 -7.4 28.6 6.95 12.75 16.2 -3.2 25.55 -15.2 25.55 -27.8 25.55 -34.7 18.4 -41.6 11.2 -41.6 -2.7 -41.6 -13.1 -32.65 -21 -22.4 -29.65 -5.85 -29.65 6.05 -29.65 20.55 -22.2
M -172.55 -18.4
L -172.55 -72.9 -117.45 -72.9 -117.45 -6.35
Q -125.95 -1.25 -136.35 3 -146.9 7.4 -154.55 7.4 -163.15 7.4 -167.85 1.25 -172.55 -4.9 -172.55 -18.4 Z"/>
</g>
</defs>

<g transform="matrix( 1, 0, 0, 1, 781.5,323.5) ">
<g transform="matrix( 1, 0, 0, 1, 2,0) ">
<use xlink:href="#Symbol_1_2_Layer1_0_FILL"/>
</g>
</g>
</svg>
