
<svg xmlns="http://www.w3.org/2000/svg" version="1.1" xmlns:xlink="http://www.w3.org/1999/xlink" preserveAspectRatio="none" x="0px" y="0px" width="1884px" height="653px" viewBox="0 0 1884 653">
<defs>
<radialGradient id="Gradient_1" gradientUnits="userSpaceOnUse" cx="0" cy="0" r="108.525" fx="0" fy="0" gradientTransform="matrix( 1, 0, 0, 1, 0,0) " spreadMethod="pad">
<stop  offset="26.274509803921568%" stop-color="#FFFEBF"/>

<stop  offset="100%" stop-color="#FFFD5B" stop-opacity="0"/>
</radialGradient>

<filter id="Filter_1" x="-20%" y="-20.86531905994664%" width="140%" height="141.73063811989329%" color-interpolation-filters="sRGB">
<feFlood flood-color="#000000" flood-opacity="1" in="SourceGraphic" result="result1"/>

<feComposite in2="SourceGraphic" in="result1" operator="in" result="result2"/>

<feGaussianBlur in="result2" stdDeviation="5.333333333333333,5.333333333333333" result="result3"/>

<feOffset dx="0" dy="0" in="result3" result="result4"/>

<feComposite in2="result4" in="SourceGraphic" operator="over" result="result5"/>
</filter>

<g id="Symbol_18_12_Layer2_0_FILL">
<path fill="url(#Gradient_1)" stroke="none" d="
M 78.7 -78.7
Q 46.15 -111.3 0 -111.3 -46.15 -111.3 -78.7 -78.7 -111.3 -46.15 -111.3 0 -111.3 46.15 -78.7 78.7 -46.15 111.3 0 111.3 46.15 111.3 78.7 78.7 111.3 46.15 111.3 0 111.3 -46.15 78.7 -78.7 Z"/>
</g>

<g id="Symbol_28_copy_0_Layer0_0_FILL">
<path fill="#FFFFFF" stroke="none" d="
M 39.7 -46.95
L 39.7 -18.15
Q 37.1 -20.55 32.5 -22.8 27.9 -25.15 23.9 -25.15 17.95 -25.15 12.75 -21.75 7.7 -18.4 1.9 -10.6 -3.05 -16.75 -9.9 -23.6 -12.35 -25.95 -16.65 -27.6 -20.95 -29.15 -25.5 -29.15 -37.15 -29.15 -44.35 -19.6 -50.3 -11.6 -50.3 -2.3 -50.3 13.9 -35.2 31.3 -22.7 45.65 -1.4 59.5
L 4.25 52.65
Q -19.95 38.9 -29.5 26.1 -36.75 16.25 -36.75 3.65 -36.75 -6.1 -30.3 -11.95 -25.15 -16.75 -18.5 -16.75 -14.3 -16.75 -9.2 -12.85 -4.15 -8.95 -1.3 -4.55 -2.3 -3.2 -3.75 -0.55 -5.1 2 -6.75 5
L 4.25 12.45
Q 12.35 -3.2 17.85 -8.55 23.4 -13.95 30.25 -13.95 35.4 -13.95 40.3 -10.6
L 39.7 50.05 53.3 57.85 53.3 -46.95 70.3 -46.95 63.65 -59.55 -70.35 -59.55 -63.3 -46.95 39.7 -46.95 Z"/>
</g>
</defs>

<g transform="matrix( 1.2369384765625, 0, 0, 1.2369384765625, 1272,137.65) ">
<g transform="matrix( 1, 0, 0, 1, 0,0) ">
<use xlink:href="#Symbol_18_12_Layer2_0_FILL"/>
</g>

<g filter="url(#Filter_1)" transform="matrix( 0.808441162109375, 0, 0, 0.808441162109375, -1028.35,-111.3) ">
<g transform="matrix( 1.2369384765625, 0, 0, 1.2369384765625, 1272,135.6) ">
<g transform="matrix( 1, 0, 0, 1, 0,0) ">
<use xlink:href="#Symbol_28_copy_0_Layer0_0_FILL"/>
</g>
</g>
</g>
</g>
</svg>
