
<svg xmlns="http://www.w3.org/2000/svg" version="1.1" xmlns:xlink="http://www.w3.org/1999/xlink" preserveAspectRatio="none" x="0px" y="0px" width="1884px" height="653px" viewBox="0 0 1884 653">
<defs>
<radialGradient id="Gradient_1" gradientUnits="userSpaceOnUse" cx="0" cy="0" r="108.525" fx="0" fy="0" gradientTransform="matrix( 1, 0, 0, 1, 0,0) " spreadMethod="pad">
<stop  offset="26.274509803921568%" stop-color="#FFFEBF"/>

<stop  offset="100%" stop-color="#FFFD5B" stop-opacity="0"/>
</radialGradient>

<filter id="Filter_1" x="-21.003966261902576%" y="-21.01802584400892%" width="142.00793252380515%" height="142.03605168801784%" color-interpolation-filters="sRGB">
<feFlood flood-color="#FFFFFF" flood-opacity="1" in="SourceGraphic" result="result1"/>

<feComposite in2="SourceGraphic" in="result1" operator="in" result="result2"/>

<feGaussianBlur in="result2" stdDeviation="5.333333333333333,5.333333333333333" result="result3"/>

<feOffset dx="0" dy="0" in="result3" result="result4"/>

<feComposite in2="result4" in="SourceGraphic" operator="over" result="result5"/>
</filter>

<g id="Symbol_18_0_Layer2_0_FILL">
<path fill="url(#Gradient_1)" stroke="none" d="
M 78.7 -78.7
Q 46.15 -111.3 0 -111.3 -46.15 -111.3 -78.7 -78.7 -111.3 -46.15 -111.3 0 -111.3 46.15 -78.7 78.7 -46.15 111.3 0 111.3 46.15 111.3 78.7 78.7 111.3 46.15 111.3 0 111.3 -46.15 78.7 -78.7 Z"/>
</g>

<g id="Symbol_26_0_Layer0_0_FILL">
<path fill="#000000" stroke="none" d="
M 28.2 -12.1
Q 23.4 -19.5 16.2 -23.9 8 -28.9 -2.4 -28.9 -19.45 -28.9 -29.6 -19.9 -38 -12.5 -38 -3.1 -38 9.3 -26.9 19.85 -15.75 30.3 0.25 30.3 18.35 30.3 28.4 19.35
L 28.4 50.9 41.75 58.7 41.75 -46.1 58.75 -46.1 52.2 -58.7 -58.8 -58.7 -51.8 -46.1 28.4 -46.1 28.2 -12.1
M 17.65 -14.75
Q 23.4 -9.55 23.4 -0.1 23.4 9.1 12.15 14.45
L -7.85 -16.7
Q -1.7 -18.55 0.25 -18.85 2.1 -19.15 5.9 -19.15 12.65 -19.15 17.65 -14.75
M -21.6 -6.55
Q -18.4 -11.3 -14.5 -13.35
L 5.55 17.9
Q 1.9 19.55 -1 20.05 -4.05 20.5 -7.65 20.5 -15.25 20.5 -19.85 17.3 -25.6 13.3 -25.6 4.7 -25.6 -0.65 -21.6 -6.55 Z"/>
</g>
</defs>

<g transform="matrix( 1.2369384765625, 0, 0, 1.2369384765625, 271.75,341.4) ">
<g transform="matrix( 1, 0, 0, 1, 0,0) ">
<use xlink:href="#Symbol_18_0_Layer2_0_FILL"/>
</g>

<g filter="url(#Filter_1)" transform="matrix( 0.808441162109375, 0, 0, 0.808441162109375, -219.7,-276) ">
<g transform="matrix( 1.2369384765625, 0, 0, 1.2369384765625, 271.75,338.3) ">
<g transform="matrix( 1, 0, 0, 1, 0,0) ">
<use xlink:href="#Symbol_26_0_Layer0_0_FILL"/>
</g>
</g>
</g>
</g>
</svg>
