
<svg xmlns="http://www.w3.org/2000/svg" version="1.1" xmlns:xlink="http://www.w3.org/1999/xlink" preserveAspectRatio="none" x="0px" y="0px" width="1884px" height="653px" viewBox="0 0 1884 653">
<defs>
<radialGradient id="Gradient_1" gradientUnits="userSpaceOnUse" cx="0" cy="0" r="108.525" fx="0" fy="0" gradientTransform="matrix( 1, 0, 0, 1, 0,0) " spreadMethod="pad">
<stop  offset="26.274509803921568%" stop-color="#FFFEBF"/>

<stop  offset="100%" stop-color="#FFFD5B" stop-opacity="0"/>
</radialGradient>

<filter id="Filter_1" x="-22.935162340866476%" y="-21.018025844008925%" width="145.87032468173294%" height="142.03605168801784%" color-interpolation-filters="sRGB">
<feFlood flood-color="#FFFFFF" flood-opacity="1" in="SourceGraphic" result="result1"/>

<feComposite in2="SourceGraphic" in="result1" operator="in" result="result2"/>

<feGaussianBlur in="result2" stdDeviation="5.333333333333333,5.333333333333333" result="result3"/>

<feOffset dx="0" dy="0" in="result3" result="result4"/>

<feComposite in2="result4" in="SourceGraphic" operator="over" result="result5"/>
</filter>

<g id="Symbol_18_3_Layer2_0_FILL">
<path fill="url(#Gradient_1)" stroke="none" d="
M 78.7 -78.7
Q 46.15 -111.3 0 -111.3 -46.15 -111.3 -78.7 -78.7 -111.3 -46.15 -111.3 0 -111.3 46.15 -78.7 78.7 -46.15 111.3 0 111.3 46.15 111.3 78.7 78.7 111.3 46.15 111.3 0 111.3 -46.15 78.7 -78.7 Z"/>
</g>

<g id="Symbol_29_0_Layer0_0_FILL">
<path fill="#000000" stroke="none" d="
M 32.8 -46.1
L 50 -46.1 43.2 -58.7 -50 -58.7 -43.15 -46.1 -13.95 -46.1 -13.95 -12.1
Q -13.95 -9.65 -15.5 -9.65
L -25.75 -9.65
Q -26.95 -9.65 -28.4 -8.2 -29.75 -6.65 -29.75 -4.85 -29.75 -0.1 -21.55 8.3 -19.8 10.15 -15.6 14.35 -10.15 19.35 -8.4 19.35 -5.15 19.35 -2.9 16.8 -0.55 14.35 -0.55 10.95
L -0.55 -46.1 19.85 -46.1 19.85 50.7 32.8 58.7 32.8 -46.1 Z"/>
</g>
</defs>

<g transform="matrix( 1.2369384765625, 0, 0, 1.2369384765625, 651.85,195.7) ">
<g transform="matrix( 1, 0, 0, 1, 0,0) ">
<use xlink:href="#Symbol_18_3_Layer2_0_FILL"/>
</g>

<g filter="url(#Filter_1)" transform="matrix( 0.808441162109375, 0, 0, 0.808441162109375, -527,-158.2) ">
<g transform="matrix( 1.2369384765625, 0, 0, 1.2369384765625, 651.85,192.6) ">
<g transform="matrix( 1, 0, 0, 1, 0,0) ">
<use xlink:href="#Symbol_29_0_Layer0_0_FILL"/>
</g>
</g>
</g>
</g>
</svg>
