
<svg xmlns="http://www.w3.org/2000/svg" version="1.1" xmlns:xlink="http://www.w3.org/1999/xlink" preserveAspectRatio="none" x="0px" y="0px" width="374px" height="225px" viewBox="0 0 374 225">
<defs>
<radialGradient id="Gradient_1" gradientUnits="userSpaceOnUse" cx="0" cy="0" r="232.8250003355525" fx="0" fy="0" gradientTransform="matrix( 0.9999999985587782, -0.000053688392492149585, 0.000053688392492149585, 0.5220122402011704, -735.75,-1.4) " spreadMethod="pad">
<stop  offset="0%" stop-color="#38383F"/>

<stop  offset="100%" stop-color="#2B242C"/>
</radialGradient>

<linearGradient id="Gradient_2" gradientUnits="userSpaceOnUse" x1="-742.0374999999999" y1="-74.45" x2="-742.0625" y2="90.25000000000001" spreadMethod="pad">
<stop  offset="0%" stop-color="#98BDA5"/>

<stop  offset="100%" stop-color="#D2F0D6"/>
</linearGradient>

<filter id="Filter_1" x="-20%" y="-20%" width="140%" height="140%" color-interpolation-filters="sRGB">
<feFlood flood-color="#000000" flood-opacity="1" in="SourceGraphic" result="result1"/>

<feComposite in2="SourceGraphic" in="result1" operator="in" result="result2"/>

<feGaussianBlur in="result2" stdDeviation="6,6" result="result3"/>

<feOffset dx="0" dy="0" in="result3" result="result4"/>

<feComposite in2="result4" in="SourceGraphic" operator="over" result="result5"/>
</filter>

<g id="Symbol_4_0_Layer0_0_FILL">
<path fill="url(#Gradient_1)" stroke="none" d="
M -567.85 -92.5
Q -576.6 -101.25 -588.95 -101.25
L -882.6 -101.25
Q -894.95 -101.25 -903.7 -92.5 -912.45 -83.75 -912.45 -71.4
L -912.45 68.55
Q -912.45 80.9 -903.7 89.65 -894.95 98.4 -882.6 98.4
L -588.95 98.4
Q -576.6 98.4 -567.85 89.65 -559.1 80.9 -559.1 68.55
L -559.1 -71.4
Q -559.1 -83.75 -567.85 -92.5 Z"/>
</g>

<g id="Symbol_5_0_Layer3_0_FILL">
<path fill="url(#Gradient_2)" stroke="none" d="
M -567.85 -92.5
Q -576.6 -101.25 -588.95 -101.25
L -882.6 -101.25
Q -894.95 -101.25 -903.7 -92.5 -912.45 -83.75 -912.45 -71.4
L -912.45 68.55
Q -912.45 80.9 -903.7 89.65 -894.95 98.4 -882.6 98.4
L -588.95 98.4
Q -576.6 98.4 -567.85 89.65 -559.1 80.9 -559.1 68.55
L -559.1 -71.4
Q -559.1 -83.75 -567.85 -92.5 Z"/>
</g>

<g id="Symbol_5_0_Layer1_0_FILL">
<path fill="#FFFFFF" fill-opacity="0.16862745098039217" stroke="none" d="
M -567.85 -92.5
Q -576.6 -101.25 -588.95 -101.25
L -882.6 -101.25
Q -894.95 -101.25 -903.7 -92.5 -912.45 -83.75 -912.45 -71.4
L -912.45 68.55
Q -912.45 80.9 -903.7 89.65 -894.95 98.4 -882.6 98.4
L -588.95 98.4
Q -576.6 98.4 -567.85 89.65 -559.1 80.9 -559.1 68.55
L -559.1 -71.4
Q -559.1 -83.75 -567.85 -92.5 Z"/>
</g>

<path id="Symbol_5_0_Layer0_0_1_STROKES" stroke="#6DA18B" stroke-width="5" stroke-linejoin="round" stroke-linecap="round" fill="none" d="
M -882.6 -101.25
L -588.95 -101.25
Q -576.6 -101.25 -567.85 -92.5 -559.1 -83.75 -559.1 -71.4
L -559.1 68.55
Q -559.1 80.9 -567.85 89.65 -576.6 98.4 -588.95 98.4
L -882.6 98.4
Q -894.95 98.4 -903.7 89.65 -912.45 80.9 -912.45 68.55
L -912.45 -71.4
Q -912.45 -83.75 -903.7 -92.5 -894.95 -101.25 -882.6 -101.25 Z"/>
</defs>

<g transform="matrix( 1, 0, 0, 1, 187.05,112.55) ">
<g filter="url(#Filter_1)" transform="matrix( 1, 0, 0, 1, -187.05,-112.55) ">
<g transform="matrix( 1, 0, 0, 1, 187.05,112.55) ">
<g transform="matrix( 1, 0, 0, 1, 735.75,1.4) ">
<use xlink:href="#Symbol_4_0_Layer0_0_FILL"/>
</g>
</g>
</g>

<g transform="matrix( 1, 0, 0, 1, 735.75,1.4) ">
<use xlink:href="#Symbol_5_0_Layer3_0_FILL"/>
</g>

<g transform="matrix( 1, 0, 0, 1, 735.75,1.4) ">
<use xlink:href="#Symbol_5_0_Layer1_0_FILL"/>
</g>

<g transform="matrix( 1, 0, 0, 1, 735.75,1.4) ">
<use xlink:href="#Symbol_5_0_Layer0_0_1_STROKES"/>
</g>
</g>
</svg>
