
<svg xmlns="http://www.w3.org/2000/svg" version="1.1" xmlns:xlink="http://www.w3.org/1999/xlink" preserveAspectRatio="none" x="0px" y="0px" width="1884px" height="653px" viewBox="0 0 1884 653">
<defs>
<g id="Mask_Symbol_7_2_5_MASK_0_FILL">
<path fill="#FFFFFF" stroke="none" d="
M 1890 52.4
Q 1890 40.05 1881.25 31.3 1872.5 22.55 1860.15 22.55
L 59.9 22.55
Q 47.55 22.55 38.8 31.3 30.05 40.05 30.05 52.4
L 30.05 623.55
Q 30.05 635.9 38.8 644.65 47.55 653.4 59.9 653.4
L 1860.15 653.4
Q 1872.5 653.4 1881.25 644.65 1890 635.9 1890 623.55
L 1890 52.4 Z"/>
</g>

<g id="Symbol_23_0_Layer0_0_MEMBER_0_FILL">
<path fill="#D8BFA4" stroke="none" d="
M 337.35 371.7
L 338 336.8
Q 327.1 338.45 316.25 340.6 294.65 345 295.25 347.8 303.65 385.75 310.85 412.55 314.55 426.4 319.4 444.4 322.15 455.8 324.8 471.3 328.25 487.4 337.85 515.4
L 356.85 502.8
Q 353.05 492.3 348.9 478 340.7 449.45 339.3 430.75 337.1 410.65 337.35 371.7 Z"/>
</g>

<g id="Symbol_23_0_Layer0_0_MEMBER_1_FILL">
<path fill="#736357" stroke="none" d="
M 333.55 502.5
L 339.7 521 347.45 512 363.3 515.15 354.8 497 333.55 502.5 Z"/>
</g>

<g id="Symbol_23_0_Layer0_0_MEMBER_2_FILL">
<path fill="#D8BFA4" stroke="none" d="
M 67.35 315.65
L 70.45 324.25
Q 74.15 335.2 77.2 347.1 86.9 385.1 86.4 417.7 86.4 418.85 97 433.8 109.75 451.75 116.45 465.5 130.65 494.6 138.5 513.65
L 157.95 503.65 117.8 410.05
Q 125.65 387.2 132.5 363.2 146.15 315.1 141.2 309.1 136.25 303.1 101.3 308.8 83.85 311.6 67.35 315.65 Z"/>
</g>

<g id="Symbol_23_0_Layer0_0_MEMBER_3_MEMBER_0_FILL">
<path fill="#C98B95" stroke="none" d="
M 71.2 393.5
L 73.05 395.55
Q 75.55 398 78.6 399.8 88.4 405.5 100.3 402.6 112.2 399.75 128.6 378.2 133.7 371.45 138.65 363.65
L 142.6 357.2 91.15 346.05 71.2 393.5 Z"/>
</g>

<g id="Symbol_23_0_Layer0_0_MEMBER_3_MEMBER_1_FILL">
<path fill="#C98B95" stroke="none" d="
M 102.9 383.25
Q 99.9 376.8 97.4 377.3 94.9 377.8 94.35 384.9 93.85 392 95.6 401.55 97.3 410.8 100.65 417.65 103.85 424.2 105.9 423.45 108 422.7 108.65 415.75 109.35 408.3 107.65 399.2 105.9 389.65 102.9 383.25 Z"/>
</g>

<g id="Symbol_23_0_Layer0_0_MEMBER_3_MEMBER_2_FILL">
<path fill="#C98B95" stroke="none" d="
M 86.9 384.2
Q 85.2 377.3 82.65 377.25 80.1 377.2 78.25 384.05 76.35 390.9 76.2 400.65 76.1 409.7 78.15 417 79.95 423.6 82 424.2 84 424.85 86.1 417.7 88.35 410.15 88.45 400.85 88.6 391.1 86.9 384.2 Z"/>
</g>

<g id="Symbol_23_0_Layer0_0_MEMBER_4_FILL">
<path fill="#D8BFA4" stroke="none" d="
M 3.4 175.55
Q 0.5 185.05 0.05 197.55 -0.25 206.35 0.65 214.45 3.45 216.3 7.9 217.4 6.2 217.9 0.75 217.3 1 219.9 2.45 222.45 4.65 223 8.8 223.15 7.3 223.7 3.3 224.45 4.15 226.3 4.85 227.35 5.15 227.8 6.35 229.25 10.4 229.15 12.45 228.2 11.35 229.5 8 231.25 10.75 233.75 18 236.95 26.55 240.75 35.7 239.8 40.3 239.3 43.15 238.05 49 234.35 53.2 230.25 61.6 222.05 53.25 220.15 34.05 215.75 16.8 195.2 11.45 188.8 6.85 181.55
L 3.4 175.55 Z"/>
</g>

<g id="Symbol_23_0_Layer0_0_MEMBER_5_FILL">
<path fill="#F2DBC2" stroke="none" d="
M 353.2 141.8
Q 350.85 139.95 348.65 139.4 346.7 138.95 346.2 139.7 343.1 144.35 338.3 142.25 335.75 141.15 329.5 135.7 324 130.95 321.3 130.6 317.2 130.05 315.1 137.25 311.45 149.6 307.65 158 304.9 165.35 299.45 173.8 288.65 190.75 275.35 196.35 260.1 202.8 223.85 203.3 190 203.75 156.95 199 127 194.7 108.15 198.2 92.1 201.15 66.15 214 57.1 218.4 47.4 226.55 36.05 236.1 30.3 250.3 24.55 264.45 25.75 279.8 27.7 305.05 42.9 333.75 46.6 340.65 52.45 351.15 56.3 358.7 55.35 361.5 54.3 364.55 70.2 368.4 71.25 368.65 102.65 375.2 173.75 383.8 225.2 381.65 261.05 380.1 289.95 372.9 306 368.9 314.5 365.75 325.85 361.6 333.85 355.8 350.85 343.35 364.35 312.45 379.2 268.5 374.15 219.15 372.45 202.6 368.25 183.6 363.75 164.95 362.4 158.65 359.7 147.05 353.2 141.8 Z"/>
</g>

<g id="Symbol_23_0_Layer0_0_MEMBER_6_FILL">
<path fill="#736357" stroke="none" d="
M 134.25 503.7
L 141.05 522.05 148.5 512.8 164.45 515.3 155.4 497.7 134.25 503.7 Z"/>
</g>

<g id="Symbol_23_0_Layer0_0_MEMBER_7_FILL">
<path fill="#D8BFA4" stroke="none" d="
M 358.95 319.3
Q 346.65 333.9 329.2 341.75 312.4 349.35 299.45 352.7 289.9 355.2 270.9 357.9 260.4 359.55 255.3 360.3 246.45 361.6 238.25 362.25 216.1 363.9 174.35 362.35 152.5 360.55 128.1 355.15 105.55 349.5 100.75 348.35 94.75 346.9 86.35 343.95
L 79.1 341.25 75.25 345.3
Q 70.8 350.25 67.85 354.55 58.4 368.3 67.35 370.75 98.6 376.4 114.9 378.85 128.6 380.85 142.6 382.1 162.35 383.85 179 384.15 204.2 384.6 231.1 382.35
L 239.7 381.55
Q 257.95 379.15 277.1 377.6 292.05 375.55 317.25 366.65 340.85 358.3 355.65 332.4 363.05 319.45 365.75 308.15 365.2 309.55 364.1 311.65 361.85 315.85 358.95 319.3 Z"/>
</g>

<g id="Symbol_23_0_Layer0_0_MEMBER_8_FILL">
<path fill="#F2DBC2" stroke="none" d="
M 32.7 314.4
Q 33.4 324.35 33.55 335.8 34.05 372.5 28.9 410.75 28.55 412.2 35.4 429.1 44 450.35 48 464.5 53.05 482.6 56.7 499.6 58.5 508.1 59.3 512.95
L 81.05 511.5 61.1 410.75
Q 73.6 390.4 85.35 368.6 108.9 325.05 105.35 318 101.8 310.95 66.55 308.15 48.9 306.75 32 306.75
L 32.7 314.4 Z"/>
</g>

<g id="Symbol_23_0_Layer0_0_MEMBER_9_FILL">
<path fill="#736357" stroke="none" d="
M 57.65 504.25
L 61.25 523.1 69.95 515.25 85.35 520.45 79 501.25 57.65 504.25 Z"/>
</g>

<g id="Symbol_23_0_Layer0_0_MEMBER_10_FILL">
<path fill="#F2DBC2" stroke="none" d="
M 273.3 337.3
Q 249.75 334.85 249.7 337.7 249.65 378.65 251.8 405.1 253 419.95 255.45 440.55 256.5 452.3 256.8 464.5 257.75 509.05 257.85 513.65
L 280.4 513.65
Q 278.8 501.95 277.65 485.9 275.4 453.75 277.75 432.05 280 412 288.65 374.15
L 296.85 340.35
Q 285.1 338.55 273.3 337.3 Z"/>
</g>

<g id="Symbol_23_0_Layer0_0_MEMBER_11_FILL">
<path fill="#736357" stroke="none" d="
M 257.55 502.8
L 258 522.1 268 516.2 282.1 524.5 279.35 504.6 257.55 502.8 Z"/>
</g>

<g id="Symbol_23_0_Layer0_0_MEMBER_12_MEMBER_0_MEMBER_0_FILL">
<path fill="#998675" stroke="none" d="
M 266.65 1.05
Q 274.85 6.2 281.8 11.4 293.5 20.15 297.2 25.85 307.1 38.4 310.9 50.3 312.8 56.25 312.7 59.7
L 327.45 51.15
Q 322.7 25.65 305.15 11.8 288.75 -1.1 266.9 0.1 266.55 0.15 266.45 0.5 266.35 0.85 266.65 1.05 Z"/>
</g>

<g id="Symbol_23_0_Layer0_0_MEMBER_12_MEMBER_0_MEMBER_1_FILL">
<path fill="#998675" stroke="none" d="
M 419.1 0.5
Q 419 0.15 418.6 0.1 396.8 -1.1 380.4 11.8 362.8 25.65 358.05 51.15
L 372.85 59.7
Q 372.75 56.25 374.65 50.3 378.45 38.4 388.3 25.85 392 20.2 403.75 11.4 410.4 6.4 418.85 1.05 419.2 0.85 419.1 0.5 Z"/>
</g>

<g id="Symbol_23_0_Layer0_0_MEMBER_12_MEMBER_1_MEMBER_0_MEMBER_0_FILL">
<path fill="#D8BFA4" stroke="none" d="
M 442.05 69.2
Q 435.5 67.5 426.85 66.35 409.65 64 399.5 66.6 391.35 68.65 381.4 74.5
L 373.1 79.9 374.55 94.95 384.45 96.25
Q 396.35 97.3 406.55 96 418.3 94.5 431.35 81.7 437.9 75.3 442.05 69.2 Z"/>
</g>

<g id="Symbol_23_0_Layer0_0_MEMBER_12_MEMBER_1_MEMBER_0_MEMBER_1_FILL">
<path fill="#C98B95" stroke="none" d="
M 429.05 76.6
Q 424.9 75.55 419.45 74.8 408.55 73.3 402 74.95 396.8 76.25 387.55 80.8
L 379.35 85.1 382.55 92.5 390.35 93.05
Q 399.5 93.3 406.45 91.95 414.15 90.5 422.35 83.4 426.5 79.85 429.05 76.6 Z"/>
</g>

<g id="Symbol_23_0_Layer0_0_MEMBER_12_MEMBER_1_MEMBER_1_MEMBER_0_FILL">
<path fill="#D8BFA4" stroke="none" d="
M 258.65 66.35
L 243.45 69.2 246.35 73.05
Q 250.05 77.7 254.15 81.7 267.2 94.5 278.95 96 289.15 97.3 301.1 96.25 307.05 95.75 310.95 94.95
L 312.4 79.9
Q 309.05 77.4 304.1 74.5 294.2 68.65 286.05 66.6 275.85 64 258.65 66.35 Z"/>
</g>

<g id="Symbol_23_0_Layer0_0_MEMBER_12_MEMBER_1_MEMBER_1_MEMBER_1_FILL">
<path fill="#C98B95" stroke="none" d="
M 266.1 74.8
L 256.5 76.6 263.2 83.4
Q 271.4 90.5 279.1 91.95 286 93.3 295.15 93.05 299.75 92.9 302.95 92.5
L 306.15 85.1
Q 302.6 83.1 297.95 80.8 288.7 76.25 283.5 74.95 276.95 73.3 266.1 74.8 Z"/>
</g>

<g id="Symbol_23_0_Layer0_0_MEMBER_12_MEMBER_2_FILL">
<path fill="#D8BFA4" stroke="none" d="
M 334.05 50.7
Q 329.35 50.25 326.45 51.05 320.4 52.65 313.1 58.55 304.75 65.25 302.8 71.9 298.65 86 302.8 106.35 303.7 110.75 306.7 122.65 309.15 132.3 309.9 137.5 311.75 150.9 314.25 157.9 316.35 163.85 321.7 172.25
L 323.05 174.2
Q 324.9 176.5 327.1 178.45 334.2 184.7 342.55 184.85
L 342.95 184.85
Q 351.35 184.7 358.4 178.45 361.95 175.35 363.8 172.25 369.15 163.9 371.3 157.9 373.75 150.95 375.6 137.5 376.35 132.3 378.8 122.65 381.85 110.65 382.7 106.35 386.9 86 382.7 71.9 380.75 65.25 372.4 58.55 365.1 52.65 359.1 51.05 356.15 50.25 351.45 50.7 347.1 51.1 342.75 52.4 338.4 51.1 334.05 50.7 Z"/>
</g>

<g id="Symbol_23_0_Layer0_0_MEMBER_12_MEMBER_3_FILL">
<path fill="#F2DBC2" stroke="none" d="
M 342.75 50.65
Q 341.4 50.65 340.25 50 332.65 45.85 326.1 48.1 320.1 50.1 313.25 56.5 305.4 63.75 302.8 71.55
L 306.3 71.2
Q 310.65 71.25 314.7 73 327.6 78.55 332.75 99.25 335.25 109.25 334.45 124.1 334 132.3 332.7 146.3 332.5 149.8 334.9 152.3 337.3 154.8 340.75 154.8
L 344.75 154.8
Q 348.25 154.8 350.6 152.3 353 149.8 352.85 146.3 351.5 132.3 351.05 124.1 350.25 109.25 352.75 99.25 357.95 78.55 370.85 73 377.3 70.2 382.7 71.55 380.1 63.75 372.3 56.5 365.45 50.1 359.45 48.1 352.85 45.85 345.25 50 344.1 50.65 342.75 50.65 Z"/>
</g>

<g id="Symbol_23_0_Layer0_0_MEMBER_12_MEMBER_4_FILL">
<path fill="#736357" stroke="none" d="
M 343.9 167.9
L 343.9 153.1 341.6 153.1 341.6 167.9 343.9 167.9 Z"/>
</g>

<g id="Symbol_23_0_Layer0_0_MEMBER_12_MEMBER_5_FILL">
<path fill="#736357" stroke="none" d="
M 355.15 146
Q 354.85 144.55 353.35 143.55 351.3 142.2 348.65 142.7
L 346.35 143.5 342.75 145.7 339.15 143.5
Q 338.2 142.95 336.85 142.7 334.2 142.2 332.15 143.55 330.65 144.55 330.35 146 330.05 147.3 330.7 149.3 331.5 151.75 334.85 153.9
L 342.65 158.75 342.75 158.65 342.85 158.75 350.65 153.9
Q 354.05 151.75 354.8 149.3 355.45 147.3 355.15 146 Z"/>
</g>

<g id="Symbol_23_0_Layer0_0_MEMBER_12_MEMBER_6_FILL">
<path fill="#736357" stroke="none" d="
M 355.85 165.35
Q 358.55 163.15 359.85 160.7 360.1 160.3 359.95 159.85 359.8 159.35 359.35 159.15 358.95 158.9 358.5 159.05 358 159.2 357.8 159.65 356.75 161.6 354.35 163.55 349.6 167.4 342.95 167.4 336.25 167.4 331.4 163.6 327.8 159.75 327.7 159.6 327.45 159.2 327 159.05 326.5 158.95 326.1 159.15 325.7 159.4 325.55 159.9 325.45 160.35 325.7 160.75 326.1 161.4 326.8 162.3 328.15 164 329.9 165.35 335.4 169.7 342.95 169.7 350.5 169.7 355.85 165.35 Z"/>
</g>

<g id="Symbol_23_0_Layer0_0_MEMBER_12_MEMBER_7_MEMBER_0_FILL">
<path fill="#534741" stroke="none" d="
M 351.4 147.95
Q 350.9 147.15 349.75 147.15 348.65 147.15 347.5 147.95 346.35 148.75 345.85 149.85 345.4 150.95 345.85 151.75 346.35 152.5 347.5 152.5 348.65 152.5 349.75 151.7 350.9 150.9 351.4 149.8 351.85 148.7 351.4 147.95 Z"/>
</g>

<g id="Symbol_23_0_Layer0_0_MEMBER_12_MEMBER_7_MEMBER_1_FILL">
<path fill="#534741" stroke="none" d="
M 335.75 147.15
Q 334.6 147.15 334.1 147.95 333.65 148.7 334.1 149.8 334.6 150.9 335.75 151.7 336.9 152.5 338.05 152.5 339.2 152.5 339.65 151.75 340.15 150.95 339.65 149.85 339.2 148.75 338.05 147.95 336.9 147.15 335.75 147.15 Z"/>
</g>

<g id="Symbol_23_0_Layer0_0_MEMBER_12_MEMBER_8_MEMBER_0_FILL">
<path fill="#736357" stroke="none" d="
M 326.05 107.9
Q 326.7 107.9 327.1 107.45 327.55 107.05 327.55 106.4 327.55 103 325.15 100.55 322.7 98.15 319.3 98.15 315.9 98.15 313.45 100.55 311.05 103 311.05 106.4 311.05 107.05 311.5 107.45 311.9 107.9 312.55 107.9 313.15 107.9 313.6 107.45 314.05 107.05 314.05 106.4 314.05 104.25 315.6 102.7 317.15 101.15 319.3 101.15 321.5 101.15 323 102.7 324.55 104.25 324.55 106.4 324.55 107.05 325 107.45 325.4 107.9 326.05 107.9 Z"/>
</g>

<g id="Symbol_23_0_Layer0_0_MEMBER_12_MEMBER_8_MEMBER_1_FILL">
<path fill="#736357" stroke="none" d="
M 373 107.9
Q 373.6 107.9 374.05 107.45 374.5 107.05 374.5 106.4 374.5 103 372.05 100.55 369.6 98.15 366.2 98.15 362.8 98.15 360.35 100.55 357.95 103 357.95 106.4 357.95 107.05 358.4 107.45 358.85 107.9 359.45 107.9 360.1 107.9 360.5 107.45 360.95 107.05 360.95 106.4 360.95 104.25 362.5 102.7 364.05 101.15 366.2 101.15 368.4 101.15 369.95 102.7 371.5 104.25 371.5 106.4 371.5 107.05 371.95 107.45 372.35 107.9 373 107.9 Z"/>
</g>

<g id="Symbol_23_0_Layer0_0_MEMBER_12_MEMBER_9_FILL">
<path fill="#D8BFA4" stroke="none" d="
M 350.6 190.15
L 347.45 180.5 337.75 180.5
Q 337.3 181.15 336.65 182.35 335.4 184.85 334.45 187.85 331.5 197.5 333.3 208.95 334.75 218.35 338.3 225.3 342.15 232.85 347.65 235.85 348.65 232.05 349.85 226.4 347.35 220 348.2 214.95 348.3 214.95 348.75 217.45 349.45 220.25 350.75 221.75 352.15 214.05 352.7 208.95 353.55 201.35 350.6 190.15 Z"/>
</g>
</defs>

<g transform="matrix( 1, 0, 0, 1, 942,326.5) ">
<mask id="Mask_Mask_1">
<g transform="matrix( 1, 0, 0, 1, -960,-337.95) ">
<use xlink:href="#Mask_Symbol_7_2_5_MASK_0_FILL"/>
</g>
</mask>

<g mask="url(#Mask_Mask_1)"/>

<g mask="url(#Mask_Mask_1)"/>

<g mask="url(#Mask_Mask_1)"/>

<g mask="url(#Mask_Mask_1)">
<g transform="matrix( 0.47821044921875, 0, 0, 0.47821044921875, -659.65,3.7) ">
<g transform="matrix( 1, 0, 0, 1, -221,-262.25) ">
<use xlink:href="#Symbol_23_0_Layer0_0_MEMBER_0_FILL"/>
</g>

<g transform="matrix( 1, 0, 0, 1, -221,-262.25) ">
<use xlink:href="#Symbol_23_0_Layer0_0_MEMBER_1_FILL"/>
</g>

<g transform="matrix( 1, 0, 0, 1, -221,-262.25) ">
<use xlink:href="#Symbol_23_0_Layer0_0_MEMBER_2_FILL"/>
</g>

<g transform="matrix( 1, 0, 0, 1, -221,-262.25) ">
<use xlink:href="#Symbol_23_0_Layer0_0_MEMBER_3_MEMBER_0_FILL"/>
</g>

<g transform="matrix( 1, 0, 0, 1, -221,-262.25) ">
<use xlink:href="#Symbol_23_0_Layer0_0_MEMBER_3_MEMBER_1_FILL"/>
</g>

<g transform="matrix( 1, 0, 0, 1, -221,-262.25) ">
<use xlink:href="#Symbol_23_0_Layer0_0_MEMBER_3_MEMBER_2_FILL"/>
</g>

<g transform="matrix( 1, 0, 0, 1, -221,-262.25) ">
<use xlink:href="#Symbol_23_0_Layer0_0_MEMBER_4_FILL"/>
</g>

<g transform="matrix( 1, 0, 0, 1, -221,-262.25) ">
<use xlink:href="#Symbol_23_0_Layer0_0_MEMBER_5_FILL"/>
</g>

<g transform="matrix( 1, 0, 0, 1, -221,-262.25) ">
<use xlink:href="#Symbol_23_0_Layer0_0_MEMBER_6_FILL"/>
</g>

<g transform="matrix( 1, 0, 0, 1, -221,-262.25) ">
<use xlink:href="#Symbol_23_0_Layer0_0_MEMBER_7_FILL"/>
</g>

<g transform="matrix( 1, 0, 0, 1, -221,-262.25) ">
<use xlink:href="#Symbol_23_0_Layer0_0_MEMBER_8_FILL"/>
</g>

<g transform="matrix( 1, 0, 0, 1, -221,-262.25) ">
<use xlink:href="#Symbol_23_0_Layer0_0_MEMBER_9_FILL"/>
</g>

<g transform="matrix( 1, 0, 0, 1, -221,-262.25) ">
<use xlink:href="#Symbol_23_0_Layer0_0_MEMBER_10_FILL"/>
</g>

<g transform="matrix( 1, 0, 0, 1, -221,-262.25) ">
<use xlink:href="#Symbol_23_0_Layer0_0_MEMBER_11_FILL"/>
</g>

<g transform="matrix( 1, 0, 0, 1, -221,-262.25) ">
<use xlink:href="#Symbol_23_0_Layer0_0_MEMBER_12_MEMBER_0_MEMBER_0_FILL"/>
</g>

<g transform="matrix( 1, 0, 0, 1, -221,-262.25) ">
<use xlink:href="#Symbol_23_0_Layer0_0_MEMBER_12_MEMBER_0_MEMBER_1_FILL"/>
</g>

<g transform="matrix( 1, 0, 0, 1, -221,-262.25) ">
<use xlink:href="#Symbol_23_0_Layer0_0_MEMBER_12_MEMBER_1_MEMBER_0_MEMBER_0_FILL"/>
</g>

<g transform="matrix( 1, 0, 0, 1, -221,-262.25) ">
<use xlink:href="#Symbol_23_0_Layer0_0_MEMBER_12_MEMBER_1_MEMBER_0_MEMBER_1_FILL"/>
</g>

<g transform="matrix( 1, 0, 0, 1, -221,-262.25) ">
<use xlink:href="#Symbol_23_0_Layer0_0_MEMBER_12_MEMBER_1_MEMBER_1_MEMBER_0_FILL"/>
</g>

<g transform="matrix( 1, 0, 0, 1, -221,-262.25) ">
<use xlink:href="#Symbol_23_0_Layer0_0_MEMBER_12_MEMBER_1_MEMBER_1_MEMBER_1_FILL"/>
</g>

<g transform="matrix( 1, 0, 0, 1, -221,-262.25) ">
<use xlink:href="#Symbol_23_0_Layer0_0_MEMBER_12_MEMBER_2_FILL"/>
</g>

<g transform="matrix( 1, 0, 0, 1, -221,-262.25) ">
<use xlink:href="#Symbol_23_0_Layer0_0_MEMBER_12_MEMBER_3_FILL"/>
</g>

<g transform="matrix( 1, 0, 0, 1, -221,-262.25) ">
<use xlink:href="#Symbol_23_0_Layer0_0_MEMBER_12_MEMBER_4_FILL"/>
</g>

<g transform="matrix( 1, 0, 0, 1, -221,-262.25) ">
<use xlink:href="#Symbol_23_0_Layer0_0_MEMBER_12_MEMBER_5_FILL"/>
</g>

<g transform="matrix( 1, 0, 0, 1, -221,-262.25) ">
<use xlink:href="#Symbol_23_0_Layer0_0_MEMBER_12_MEMBER_6_FILL"/>
</g>

<g transform="matrix( 1, 0, 0, 1, -221,-262.25) ">
<use xlink:href="#Symbol_23_0_Layer0_0_MEMBER_12_MEMBER_7_MEMBER_0_FILL"/>
</g>

<g transform="matrix( 1, 0, 0, 1, -221,-262.25) ">
<use xlink:href="#Symbol_23_0_Layer0_0_MEMBER_12_MEMBER_7_MEMBER_1_FILL"/>
</g>

<g transform="matrix( 1, 0, 0, 1, -221,-262.25) ">
<use xlink:href="#Symbol_23_0_Layer0_0_MEMBER_12_MEMBER_8_MEMBER_0_FILL"/>
</g>

<g transform="matrix( 1, 0, 0, 1, -221,-262.25) ">
<use xlink:href="#Symbol_23_0_Layer0_0_MEMBER_12_MEMBER_8_MEMBER_1_FILL"/>
</g>

<g transform="matrix( 1, 0, 0, 1, -221,-262.25) ">
<use xlink:href="#Symbol_23_0_Layer0_0_MEMBER_12_MEMBER_9_FILL"/>
</g>
</g>
</g>
</g>
</svg>
