
<svg xmlns="http://www.w3.org/2000/svg" version="1.1" xmlns:xlink="http://www.w3.org/1999/xlink" preserveAspectRatio="none" x="0px" y="0px" width="374px" height="225px" viewBox="0 0 374 225">
<defs>
<g id="Symbol_24_0_Layer0_0_MEMBER_0_MEMBER_0_FILL">
<path fill="#D39D6C" stroke="none" d="
M 295.4 319.85
L 194.25 318.65
Q 234.9 377.35 266.25 459.8 281.95 501.1 289.5 531.05
L 321.85 512 295.4 319.85 Z"/>
</g>

<g id="Symbol_24_0_Layer0_1_MEMBER_0_MEMBER_0_FILL">
<path fill="#D39D6C" stroke="none" d="
M 612.95 340.15
L 559.3 362.45 600.05 531.7 635.15 526.5 612.95 340.15 Z"/>
</g>

<g id="Symbol_24_0_Layer0_2_MEMBER_0_MEMBER_0_FILL">
<path fill="#D39D6C" stroke="none" d="
M 688.3 95.95
Q 693.15 91.35 696.65 87.2 692.45 79.95 683.25 76 664.85 68.1 639.9 84.55
L 638.6 99 640.8 101.4
Q 643.7 104.15 647.25 106.05 658.5 112.2 671.65 107.55 678.55 105.15 688.3 95.95 Z"/>
</g>

<g id="Symbol_24_0_Layer0_3_MEMBER_0_MEMBER_0_FILL">
<path fill="#F4A8B2" stroke="none" d="
M 679.65 95.05
Q 682.4 92 683.5 89.65 680.75 87.65 676.4 86.05 667.65 82.9 659.65 85.1 652.2 87.2 646.75 91.1
L 642.8 94.55 648.75 107.15
Q 657.3 109 666.15 104.9 674.2 101.2 679.65 95.05 Z"/>
</g>

<g id="Symbol_24_0_Layer0_4_MEMBER_0_MEMBER_0_FILL">
<path fill="#D39D6C" stroke="none" d="
M 540.35 125.7
L 531.8 114.05
Q 501.9 112.85 490.25 129.15 486.6 134.25 485.2 140.45 484.5 143.55 484.55 145.65
L 496.25 148.8
Q 509.4 151.65 516.5 150.15 530.15 147.3 536.6 136.2 539.85 130.7 540.35 125.7 Z"/>
</g>

<g id="Symbol_24_0_Layer0_5_MEMBER_0_MEMBER_0_FILL">
<path fill="#F4A8B2" stroke="none" d="
M 536.5 137.2
Q 534.85 126.2 534.5 123.4 532.65 122.8 529.3 122.7 522.6 122.5 515.25 124.85 507.35 127.4 501.8 134.8 500.05 137.15 498.8 139.7
L 497.85 141.75 504.05 144.15
Q 511.95 146.25 520.7 144.9 530.35 143.5 536.5 137.2 Z"/>
</g>

<g id="Symbol_24_0_Layer0_6_MEMBER_0_MEMBER_0_MEMBER_0_FILL">
<path fill="#847060" stroke="none" d="
M 661.55 40.3
Q 662.15 28.25 657 17.55 652.05 7.25 642.85 0.3 641.9 -0.4 640.95 0.35 640 1.05 640.5 2.15 644.85 11.55 644.85 22.05 644.8 40.75 631.75 54.45 618.65 68.15 600 69
L 599.4 69.05
Q 593.95 69.25 593.1 74.55 592.2 79.8 597.25 81.8 607.65 85.95 619.05 84.85 636.35 83.25 648.55 70.45 660.75 57.7 661.55 40.3 Z"/>
</g>

<g id="Symbol_24_0_Layer0_6_MEMBER_1_MEMBER_0_MEMBER_0_FILL">
<path fill="#847060" stroke="none" d="
M 567.75 90.6
Q 570.9 86.2 567.25 82.25 563.6 78.35 558.95 81.15
L 558.45 81.45
Q 542.35 90.95 523.9 86.65 505.45 82.35 495.15 66.75 489.4 57.95 487.9 47.75 487.7 46.55 486.5 46.45 485.3 46.35 484.9 47.5 481.05 58.3 482.55 69.65 484.1 81.45 491.2 91.2 501.45 105.25 518.65 109.25 535.8 113.25 551.2 105.15 561.45 99.7 567.75 90.6 Z"/>
</g>

<g id="Symbol_24_0_Layer0_7_MEMBER_0_FILL">
<path fill="#F4A8B2" stroke="none" d="
M 187.85 351.5
L 194.25 389.4 195.85 394.65
Q 198.35 401 202.9 406.25 217.45 423.1 247 423.1 280.05 423.1 294.4 405.1 306.1 390.4 306.1 362.05 306.1 341.15 247 344.25 228.5 345.2 206.35 348.45
L 187.85 351.5 Z"/>
</g>

<g id="Symbol_24_0_Layer0_8_MEMBER_0_FILL">
<path fill="#E5BA93" stroke="none" d="
M 127.2 155.05
L 125.85 137.75
Q 118.9 141.4 108.95 148.35 89.1 162.25 72.75 180.35 20.4 238.25 20.4 318.65 21.15 311.8 23.8 300.7 29.05 278.45 38.35 257.15 68.1 188.85 127.2 155.05 Z"/>
</g>

<g id="Symbol_24_0_Layer0_9_MEMBER_0_MEMBER_0_FILL">
<path fill="#E5BA93" stroke="none" d="
M 609.75 174.2
Q 597.5 160.3 585.45 153.55 572.05 145.95 561.8 149.1 510.15 164.95 278.35 125.55 187.2 110.1 151.7 120.9 137.2 125.3 127.35 135.15 123.1 139.45 111.85 155.2 95.8 180 98.45 230.1 100.5 269 111.15 303.15 120.4 332.65 157.9 349.95 189.55 364.6 243.65 371.35 283.1 376.25 346.15 377.9 353.85 378.1 396.65 378.95 426.05 379.5 443 380.25 488.15 382.25 510.9 382.3 537.55 382.35 553.4 379.95 569.2 377.55 581.2 371.7 591.25 366.75 604.8 355.95 614.2 348.45 622 331.5 632.2 309.15 637.1 277.25 641.6 247.85 639.15 229.15 637.65 217.65 629.4 202.35 621.3 187.3 609.75 174.2 Z"/>
</g>

<g id="Symbol_24_0_Layer0_10_MEMBER_0_FILL">
<path fill="#D39D6C" stroke="none" d="
M 556.85 150.4
Q 550.95 162.05 549.05 172 545.65 189.75 552.05 208.05 559.75 230.1 576.1 241.55 588.05 249.9 605.05 252.75 614.15 254.25 625.4 253.1 632.85 252.3 639.75 250.55 640.3 237.95 639.15 229.15 638.1 221.2 633.65 211.1 629.35 201.25 622.6 191.05
L 560.6 149.45 556.85 150.4 Z"/>
</g>

<g id="Symbol_24_0_Layer0_11_MEMBER_0_MEMBER_0_FILL">
<path fill="#E5BA93" stroke="none" d="
M 210.85 330.6
L 112.5 307
Q 139.05 373.2 151.2 460.5 157.3 504.15 158.05 534.55
L 191.55 539.15 210.85 330.6 Z"/>
</g>

<g id="Symbol_24_0_Layer0_12_MEMBER_0_MEMBER_0_FILL">
<path fill="#F4A8B2" stroke="none" d="
M 229.4 420.2
Q 229.95 414.45 228.15 410.1 226.35 405.8 223.25 405.45 220.1 405.15 217.5 409 214.85 412.85 214.25 418.65 213.65 424.45 215.45 428.8 217.25 433.1 220.4 433.45 223.5 433.75 226.15 429.9 228.8 426 229.4 420.2 Z"/>
</g>

<g id="Symbol_24_0_Layer0_13_MEMBER_0_MEMBER_0_FILL">
<path fill="#F4A8B2" stroke="none" d="
M 254.3 423.1
Q 254.3 417.25 252.1 413.15 249.85 409 246.7 409 243.55 409 241.35 413.15 239.1 417.25 239.1 423.1 239.1 428.9 241.35 433.05 243.55 437.15 246.7 437.15 249.85 437.15 252.1 433.05 254.3 428.9 254.3 423.1 Z"/>
</g>

<g id="Symbol_24_0_Layer0_14_MEMBER_0_MEMBER_0_FILL">
<path fill="#F4A8B2" stroke="none" d="
M 279.45 417.6
Q 278 411.95 274.9 408.5 271.75 405.05 268.7 405.8 265.65 406.55 264.45 411.1 263.3 415.65 264.7 421.25 266.1 426.9 269.25 430.4 272.4 433.85 275.45 433.1 278.5 432.35 279.65 427.8 280.85 423.25 279.45 417.6 Z"/>
</g>

<g id="Symbol_24_0_Layer0_15_MEMBER_0_MEMBER_0_FILL">
<path fill="#F4A8B2" stroke="none" d="
M 290.75 394.2
Q 286.45 392.3 284 394.25 281.5 396.15 282.25 400.8 283 405.4 286.55 410 290.1 414.6 294.35 416.55 298.65 418.45 301.15 416.55 303.6 414.6 302.9 410 302.15 405.35 298.6 400.75 295.05 396.15 290.75 394.2 Z"/>
</g>

<g id="Symbol_24_0_Layer0_16_MEMBER_0_MEMBER_0_FILL">
<path fill="#847060" stroke="none" d="
M 30.3 286.7
Q 27.05 284.1 25.5 284.3 21.8 284.3 17.3 286 8.2 289.35 4 297.7 -0.55 306.75 0.05 320.35 0.55 330.75 3.75 341.3 7.15 352.45 7.85 354.4
L 17.25 344.15 16.45 331.55 19.65 341.5 26.15 334.35 22.9 323.85 28.25 331.55
Q 29.95 329.9 32.1 327.25 36.45 321.9 38.75 316.9 43.95 305.55 36.55 293.85 33.85 289.6 30.3 286.7 Z"/>
</g>

<g id="Symbol_24_0_Layer0_17_MEMBER_0_MEMBER_0_FILL">
<path fill="#847060" stroke="none" d="
M 173.3 541.25
L 196.5 549.05 193.3 520.2 157.05 516 158.4 545.25 173.3 541.25 Z"/>
</g>

<g id="Symbol_24_0_Layer0_18_MEMBER_0_MEMBER_0_FILL">
<path fill="#847060" stroke="none" d="
M 285.25 515.55
L 292.7 543.85 308 536.85 330.75 539.5 321.85 512 285.25 515.55 Z"/>
</g>

<g id="Symbol_24_0_Layer0_19_MEMBER_0_MEMBER_0_FILL">
<path fill="#E8C19E" stroke="none" d="
M 658.75 192.85
Q 668.2 165.6 658.4 126.25 645.4 74.35 626 56.95 608.1 40.85 578.05 49.1 558.5 54.45 547.25 62.4 535.8 70.45 531.2 82.4 526.75 94.05 528.1 111.3 529.4 127.3 536.1 151.3 541.15 169.35 550.6 185.05 559.9 200.4 571.9 211.1 584.1 222 597.1 226.25 610.75 230.7 623.35 227.2 649.25 220 658.75 192.85 Z"/>
</g>

<g id="Symbol_24_0_Layer0_20_FILL">
<path fill="#E5D8C5" stroke="none" d="
M 614.3 73.8
Q 616.6 61.65 619.55 52.45 616.3 50.2 612.3 48.6 598.25 43.6 578.05 49.1 562.25 53.45 552 59.35 541.55 65.4 535.8 73.7 545.65 77.55 556.15 85.75 575.05 100.65 584.6 122.7 590.25 135.65 593.2 153.95 594.65 163.1 595 169.65
L 610.8 165.2
Q 621.6 162.65 630.45 161.1 627.05 153.1 623.2 143.1 615.5 123.15 613.15 113.25 609.7 98.2 614.3 73.8 Z"/>
</g>

<g id="Symbol_24_0_Layer0_21_MEMBER_0_MEMBER_0_FILL">
<path fill="#FFFFFF" stroke="none" d="
M 557 126.5
Q 554.6 130.75 555.9 135.45 557.1 139.9 561.1 141.3 564.7 142.5 569.75 141.1 574.8 139.7 577.15 136.8 579.8 133.6 578.55 129.15 577.3 124.45 573.05 122.05 568.75 119.65 564.05 120.95 559.35 122.25 557 126.5 Z"/>
</g>

<g id="Symbol_24_0_Layer0_22_MEMBER_0_MEMBER_0_FILL">
<path fill="#FFFFFF" stroke="none" d="
M 621.1 108.65
Q 618.7 112.9 620 117.6 621.25 122.05 625.3 123.35 628.9 124.5 633.95 123.1 639 121.7 641.35 118.9 643.95 115.75 642.7 111.3 641.4 106.6 637.15 104.2 632.9 101.8 628.2 103.1 623.5 104.4 621.1 108.65 Z"/>
</g>

<g id="Symbol_24_0_Layer0_23_MEMBER_0_MEMBER_0_FILL">
<path fill="#53453D" stroke="none" d="
M 635.8 112.65
Q 634.85 109.35 631.9 107.65 628.9 105.95 625.6 106.9 622.3 107.8 620.65 110.8 618.95 113.75 619.85 117.05 620.8 120.35 623.75 122.05 626.75 123.75 630.05 122.8 633.35 121.9 635.05 118.95 636.7 115.95 635.8 112.65 Z"/>
</g>

<g id="Symbol_24_0_Layer0_24_MEMBER_0_MEMBER_0_FILL">
<path fill="#53453D" stroke="none" d="
M 561.35 124.9
Q 558.05 125.8 556.35 128.8 554.65 131.75 555.6 135.05 556.5 138.35 559.5 140.05 562.5 141.75 565.8 140.8 569.1 139.9 570.75 136.95 572.45 133.95 571.5 130.65 570.6 127.35 567.65 125.65 564.65 123.95 561.35 124.9 Z"/>
</g>

<g id="Symbol_24_0_Layer0_25_MEMBER_0_MEMBER_0_FILL">
<path fill="#FFFFFF" stroke="none" d="
M 565.5 125.1
Q 565.15 123.85 564.05 123.2 562.9 122.55 561.65 122.9 560.35 123.25 559.75 124.4 559.1 125.55 559.45 126.8 559.8 128.05 560.95 128.7 562.05 129.35 563.3 128.95 564.6 128.6 565.25 127.5 565.9 126.35 565.5 125.1 Z"/>
</g>

<g id="Symbol_24_0_Layer0_26_MEMBER_0_MEMBER_0_FILL">
<path fill="#FFFFFF" stroke="none" d="
M 629.55 106.8
Q 629.2 105.55 628.05 104.9 626.95 104.25 625.65 104.6 624.4 104.95 623.75 106.1 623.1 107.2 623.45 108.5 623.85 109.75 624.95 110.4 626.1 111.05 627.35 110.7 628.6 110.35 629.25 109.2 629.9 108.1 629.55 106.8 Z"/>
</g>

<g id="Symbol_24_0_Layer0_27_MEMBER_0_MEMBER_0_FILL">
<path fill="#99826E" stroke="none" d="
M 556.6 106.9
Q 550.9 108.8 549.3 116.6 548.7 119.4 549.4 120.15 550.15 120.95 551.8 118.15 554.7 113.2 561.85 111.85 565.45 111.2 568.45 111.5 570.1 110.7 569.7 109.45 569.35 108.25 567.4 107.3 562.6 104.9 556.6 106.9 Z"/>
</g>

<g id="Symbol_24_0_Layer0_28_MEMBER_0_MEMBER_0_FILL">
<path fill="#99826E" stroke="none" d="
M 616.95 97
Q 617.3 98.25 619.1 98.05
L 624.85 94.8
Q 631.6 92.05 636.7 94.65 639.6 96.15 639.8 95.05 640 94.05 637.95 92 632.4 86.3 626.6 87.8 620.5 89.35 617.75 94 616.65 95.8 616.95 97 Z"/>
</g>

<g id="Symbol_24_0_Layer0_29_MEMBER_0_FILL">
<path fill="#D39D6C" stroke="none" d="
M 519.2 383.05
L 523.25 383.25
Q 528.55 383.4 534.7 383.05 554.4 381.9 575.25 376.2 600.65 369.3 615.7 344.85 623.2 332.6 625.65 321.75 624.45 325.7 616.8 331.8 605.6 340.7 586.25 348.1 528.45 370.2 418.65 371.65 340.75 372.3 266.7 365.55 243.55 363.4 223.6 360.8
L 208.25 358.65 207.6 365.9
Q 208 366 207.55 366.15 207.1 366.25 207.55 366.35
L 258.1 373.75
Q 349.2 383.05 443 381.05 461.2 380.7 486.15 381.9 511.75 383.15 519.2 383.05 Z"/>
</g>

<g id="Symbol_24_0_Layer0_30_MEMBER_0_FILL">
<path fill="#E5BA93" stroke="none" d="
M 522.8 347.35
L 466.05 355.85
Q 470.5 414.95 474.75 466.45 479.3 521.5 480.95 534.75
L 515.7 534.85 522.8 347.35 Z"/>
</g>

<g id="Symbol_24_0_Layer0_31_MEMBER_0_FILL">
<path fill="#E5D8C5" stroke="none" d="
M 174.1 172.4
Q 180.35 172.8 194.1 170.65 207.05 168.6 214.05 169.5 221.9 170.5 233.2 176.1 248.25 183.45 251.9 184.75 257.65 186.75 265.3 188 269.55 188.7 279.05 189.75 304.9 192.4 310.5 179.65 313.1 173.65 310.25 165.95 308.2 160.5 302.8 153
L 283.7 126.45 278.35 125.55
Q 237.95 118.65 209.4 117 183.05 115.4 165.2 118.2 159.65 123.75 152.7 134.75 148.85 141 147.95 144.75 146.75 149.9 148.6 155.35 150.4 160.55 154.4 164.4 158.2 168 163.5 170.1 168.45 172 174.1 172.4 Z"/>
</g>

<g id="Symbol_24_0_Layer0_32_MEMBER_0_FILL">
<path fill="#E5D8C5" stroke="none" d="
M 333.1 294.6
Q 331.4 288.35 327.15 266.7 324.3 251.95 320.55 245.05 315.4 235.45 304.95 231.1 293.15 226.25 271.85 226.5 264.25 226.6 254.4 233.55 245.3 239.9 236.65 250.35 228.1 260.6 222.9 271.15 217.45 282.3 217.6 290.05 218.05 310.45 238.75 323.8 251.5 332 278.35 340.05 300.25 346.55 307.35 347.7 327.85 351.05 336.65 343.1 343.7 336.7 345.4 330.95 346.8 326.1 344.65 320.25 343.8 318 339 308.85 334.8 300.85 333.1 294.6 Z"/>
</g>

<g id="Symbol_24_0_Layer0_33_MEMBER_0_FILL">
<path fill="#E5D8C5" stroke="none" d="
M 351.4 137.25
Q 349.45 139.7 349.15 140.15 344.55 146.25 342.7 153.8 340.8 161.35 342.05 168.85 343 174.7 345.55 178.35 349.2 183.7 356.7 185.95 362.85 187.85 370.85 187.45 377.8 187.2 382.55 187.85 384.35 188.1 390.35 189.45 398.25 191.25 404.25 194.5 410.55 197.85 415.2 202.25 420.3 207.05 422.6 212.5 425.95 220.4 433.2 224.6 435.7 226.05 437.7 226.7 439.7 227.3 442.5 227.5 445 227.65 448.8 227.25 452.6 227.05 457.5 228.3 464.35 230 469.8 228.4 475.95 226.6 479.95 220.65 482.25 217.3 483.05 213.15 483.85 209.1 483.1 204.95 481.85 197.55 476.5 190.5 472.4 185.15 465.05 179.1 457.5 173.15 453.85 170.05 447.55 164.7 443.9 159.9 443.75 159.7 439.65 153.85 437.05 150.15 434.95 148.2 397.45 144.1 351.4 137.25 Z"/>
</g>

<g id="Symbol_24_0_Layer0_34_MEMBER_0_FILL">
<path fill="#E5D8C5" stroke="none" d="
M 423.55 262.45
Q 414.15 259.7 407.85 262.85 402 265.8 397.55 276.25 396.35 279.05 394.1 284.75 392.1 289.55 390.2 292.2 381.7 304.1 390.75 314.4 398.75 323.55 417 328.35 434.8 333 451.7 330.8 470.15 328.4 477.65 318.6 491.8 300.2 473.7 285.45 463.85 277.45 438.95 268.3 428.95 264 423.55 262.45 Z"/>
</g>

<g id="Symbol_24_0_Layer0_35_MEMBER_0_FILL">
<path fill="#E5D8C5" stroke="none" d="
M 115.95 276.55
Q 117.15 280.8 119.05 283.4 120.25 285 123.5 289.2 125.15 291.65 129.7 305.5 134.15 319.05 136.85 322.6 139.6 326.3 145.85 329.9 160.8 338.45 170.75 333.6 177.3 330.4 179.9 322.25 182.2 314.8 180.3 306.85 178.85 300.8 174.6 292.7 169.6 283.7 167.4 279.05 164.95 273.6 163.6 270.95 161.3 266.35 158.75 263.6 150.65 254.85 138.15 252.95 126.4 251.2 120.25 256.4 115.2 260.7 114.7 266.8 114.45 270.05 115.95 276.55 Z"/>
</g>

<g id="Symbol_24_0_Layer0_36_MEMBER_0_MEMBER_0_FILL">
<path fill="#847060" stroke="none" d="
M 499.2 540.5
L 520 546.65 516.3 518.4 479.4 515.45 481.7 544.65 499.2 540.5 Z"/>
</g>

<g id="Symbol_24_0_Layer0_37_MEMBER_0_MEMBER_0_FILL">
<path fill="#847060" stroke="none" d="
M 619.55 537.15
L 640.9 540.55 633.65 513 596.25 514.85 602.7 543.5 619.55 537.15 Z"/>
</g>

<g id="Symbol_24_0_Layer0_38_MEMBER_0_MEMBER_0_FILL">
<path fill="#F4A8B2" stroke="none" d="
M 663.1 185.8
Q 663.4 176.9 657 169.65 644.25 155.25 610.8 163.85 577.35 172.45 573.65 192.05 571.8 201.85 576.65 209.9
L 579.05 214.7
Q 582.4 220.35 587.35 224.4 603.2 237.5 628.9 230.35 654.6 223.2 661.45 203.8 663.55 197.7 663.55 191.15
L 663.1 185.8 Z"/>
</g>

<g id="Symbol_24_0_Layer0_39_MEMBER_0_MEMBER_0_FILL">
<path fill="#D17581" stroke="none" d="
M 606.4 184.7
Q 603.95 184 600.95 184.85 597.95 185.7 596.15 187.55 594.4 189.4 594.9 191.15 595.4 192.95 597.85 193.6 600.3 194.3 603.3 193.45 606.3 192.6 608.1 190.75 609.9 188.9 609.4 187.15 608.9 185.35 606.4 184.7 Z"/>
</g>

<g id="Symbol_24_0_Layer0_40_MEMBER_0_MEMBER_0_FILL">
<path fill="#D17581" stroke="none" d="
M 643.75 177.55
Q 643.25 175.8 640.8 175.1 638.3 174.45 635.3 175.3 632.3 176.15 630.55 177.95 628.75 179.8 629.25 181.6 629.75 183.35 632.2 184 634.7 184.7 637.7 183.85 640.7 183.05 642.45 181.15 644.25 179.3 643.75 177.55 Z"/>
</g>

<g id="Symbol_24_0_Layer0_41_MEMBER_0_MEMBER_0_FILL">
<path fill="#D17581" stroke="none" d="
M 649 204.95
Q 652.1 201.1 652.7 198.15 639.8 207.7 620.15 211.9 604.5 215.25 597.45 213.7 595.7 213.35 597.75 215 599.95 216.8 603.9 218.15 616 222.2 630.1 217.3 642.75 212.7 649 204.95 Z"/>
</g>
</defs>

<g transform="matrix( 1, 0, 0, 1, 187.05,112.55) ">
<g transform="matrix( 0.8674774169921875, 0, 0, 0.8674774169921875, 0,0) ">
<g transform="matrix( -0.417205810546875, 0.0252685546875, 0.0252685546875, 0.417205810546875, 140.2,-129.1) ">
<use xlink:href="#Symbol_24_0_Layer0_0_MEMBER_0_MEMBER_0_FILL"/>
</g>

<g transform="matrix( -0.417205810546875, 0.0252685546875, 0.0252685546875, 0.417205810546875, 140.2,-129.1) ">
<use xlink:href="#Symbol_24_0_Layer0_1_MEMBER_0_MEMBER_0_FILL"/>
</g>

<g transform="matrix( -0.417205810546875, 0.0252685546875, 0.0252685546875, 0.417205810546875, 140.2,-129.1) ">
<use xlink:href="#Symbol_24_0_Layer0_2_MEMBER_0_MEMBER_0_FILL"/>
</g>

<g transform="matrix( -0.417205810546875, 0.0252685546875, 0.0252685546875, 0.417205810546875, 140.2,-129.1) ">
<use xlink:href="#Symbol_24_0_Layer0_3_MEMBER_0_MEMBER_0_FILL"/>
</g>

<g transform="matrix( -0.417205810546875, 0.0252685546875, 0.0252685546875, 0.417205810546875, 140.2,-129.1) ">
<use xlink:href="#Symbol_24_0_Layer0_4_MEMBER_0_MEMBER_0_FILL"/>
</g>

<g transform="matrix( -0.417205810546875, 0.0252685546875, 0.0252685546875, 0.417205810546875, 140.2,-129.1) ">
<use xlink:href="#Symbol_24_0_Layer0_5_MEMBER_0_MEMBER_0_FILL"/>
</g>

<g transform="matrix( -0.417205810546875, 0.0252685546875, 0.0252685546875, 0.417205810546875, 140.2,-129.1) ">
<use xlink:href="#Symbol_24_0_Layer0_6_MEMBER_0_MEMBER_0_MEMBER_0_FILL"/>
</g>

<g transform="matrix( -0.417205810546875, 0.0252685546875, 0.0252685546875, 0.417205810546875, 140.2,-129.1) ">
<use xlink:href="#Symbol_24_0_Layer0_6_MEMBER_1_MEMBER_0_MEMBER_0_FILL"/>
</g>

<g transform="matrix( -0.417205810546875, 0.0252685546875, 0.0252685546875, 0.417205810546875, 140.2,-129.1) ">
<use xlink:href="#Symbol_24_0_Layer0_7_MEMBER_0_FILL"/>
</g>

<g transform="matrix( -0.417205810546875, 0.0252685546875, 0.0252685546875, 0.417205810546875, 140.2,-129.1) ">
<use xlink:href="#Symbol_24_0_Layer0_8_MEMBER_0_FILL"/>
</g>

<g transform="matrix( -0.417205810546875, 0.0252685546875, 0.0252685546875, 0.417205810546875, 140.2,-129.1) ">
<use xlink:href="#Symbol_24_0_Layer0_9_MEMBER_0_MEMBER_0_FILL"/>
</g>

<g transform="matrix( -0.417205810546875, 0.0252685546875, 0.0252685546875, 0.417205810546875, 140.2,-129.1) ">
<use xlink:href="#Symbol_24_0_Layer0_10_MEMBER_0_FILL"/>
</g>

<g transform="matrix( -0.417205810546875, 0.0252685546875, 0.0252685546875, 0.417205810546875, 140.2,-129.1) ">
<use xlink:href="#Symbol_24_0_Layer0_11_MEMBER_0_MEMBER_0_FILL"/>
</g>

<g transform="matrix( -0.417205810546875, 0.0252685546875, 0.0252685546875, 0.417205810546875, 140.2,-129.1) ">
<use xlink:href="#Symbol_24_0_Layer0_12_MEMBER_0_MEMBER_0_FILL"/>
</g>

<g transform="matrix( -0.417205810546875, 0.0252685546875, 0.0252685546875, 0.417205810546875, 140.2,-129.1) ">
<use xlink:href="#Symbol_24_0_Layer0_13_MEMBER_0_MEMBER_0_FILL"/>
</g>

<g transform="matrix( -0.417205810546875, 0.0252685546875, 0.0252685546875, 0.417205810546875, 140.2,-129.1) ">
<use xlink:href="#Symbol_24_0_Layer0_14_MEMBER_0_MEMBER_0_FILL"/>
</g>

<g transform="matrix( -0.417205810546875, 0.0252685546875, 0.0252685546875, 0.417205810546875, 140.2,-129.1) ">
<use xlink:href="#Symbol_24_0_Layer0_15_MEMBER_0_MEMBER_0_FILL"/>
</g>

<g transform="matrix( -0.417205810546875, 0.0252685546875, 0.0252685546875, 0.417205810546875, 140.2,-129.1) ">
<use xlink:href="#Symbol_24_0_Layer0_16_MEMBER_0_MEMBER_0_FILL"/>
</g>

<g transform="matrix( -0.417205810546875, 0.0252685546875, 0.0252685546875, 0.417205810546875, 140.2,-129.1) ">
<use xlink:href="#Symbol_24_0_Layer0_17_MEMBER_0_MEMBER_0_FILL"/>
</g>

<g transform="matrix( -0.417205810546875, 0.0252685546875, 0.0252685546875, 0.417205810546875, 140.2,-129.1) ">
<use xlink:href="#Symbol_24_0_Layer0_18_MEMBER_0_MEMBER_0_FILL"/>
</g>

<g transform="matrix( -0.417205810546875, 0.0252685546875, 0.0252685546875, 0.417205810546875, 140.2,-129.1) ">
<use xlink:href="#Symbol_24_0_Layer0_19_MEMBER_0_MEMBER_0_FILL"/>
</g>

<g transform="matrix( -0.417205810546875, 0.0252685546875, 0.0252685546875, 0.417205810546875, 140.2,-129.1) ">
<use xlink:href="#Symbol_24_0_Layer0_20_FILL"/>
</g>

<g transform="matrix( -0.417205810546875, 0.0252685546875, 0.0252685546875, 0.417205810546875, 140.2,-129.1) ">
<use xlink:href="#Symbol_24_0_Layer0_21_MEMBER_0_MEMBER_0_FILL"/>
</g>

<g transform="matrix( -0.417205810546875, 0.0252685546875, 0.0252685546875, 0.417205810546875, 140.2,-129.1) ">
<use xlink:href="#Symbol_24_0_Layer0_22_MEMBER_0_MEMBER_0_FILL"/>
</g>

<g transform="matrix( -0.417205810546875, 0.0252685546875, 0.0252685546875, 0.417205810546875, 140.2,-129.1) ">
<use xlink:href="#Symbol_24_0_Layer0_23_MEMBER_0_MEMBER_0_FILL"/>
</g>

<g transform="matrix( -0.417205810546875, 0.0252685546875, 0.0252685546875, 0.417205810546875, 140.2,-129.1) ">
<use xlink:href="#Symbol_24_0_Layer0_24_MEMBER_0_MEMBER_0_FILL"/>
</g>

<g transform="matrix( -0.417205810546875, 0.0252685546875, 0.0252685546875, 0.417205810546875, 140.2,-129.1) ">
<use xlink:href="#Symbol_24_0_Layer0_25_MEMBER_0_MEMBER_0_FILL"/>
</g>

<g transform="matrix( -0.417205810546875, 0.0252685546875, 0.0252685546875, 0.417205810546875, 140.2,-129.1) ">
<use xlink:href="#Symbol_24_0_Layer0_26_MEMBER_0_MEMBER_0_FILL"/>
</g>

<g transform="matrix( -0.417205810546875, 0.0252685546875, 0.0252685546875, 0.417205810546875, 140.2,-129.1) ">
<use xlink:href="#Symbol_24_0_Layer0_27_MEMBER_0_MEMBER_0_FILL"/>
</g>

<g transform="matrix( -0.417205810546875, 0.0252685546875, 0.0252685546875, 0.417205810546875, 140.2,-129.1) ">
<use xlink:href="#Symbol_24_0_Layer0_28_MEMBER_0_MEMBER_0_FILL"/>
</g>

<g transform="matrix( -0.417205810546875, 0.0252685546875, 0.0252685546875, 0.417205810546875, 140.2,-129.1) ">
<use xlink:href="#Symbol_24_0_Layer0_29_MEMBER_0_FILL"/>
</g>

<g transform="matrix( -0.417205810546875, 0.0252685546875, 0.0252685546875, 0.417205810546875, 140.2,-129.1) ">
<use xlink:href="#Symbol_24_0_Layer0_30_MEMBER_0_FILL"/>
</g>

<g transform="matrix( -0.417205810546875, 0.0252685546875, 0.0252685546875, 0.417205810546875, 140.2,-129.1) ">
<use xlink:href="#Symbol_24_0_Layer0_31_MEMBER_0_FILL"/>
</g>

<g transform="matrix( -0.417205810546875, 0.0252685546875, 0.0252685546875, 0.417205810546875, 140.2,-129.1) ">
<use xlink:href="#Symbol_24_0_Layer0_32_MEMBER_0_FILL"/>
</g>

<g transform="matrix( -0.417205810546875, 0.0252685546875, 0.0252685546875, 0.417205810546875, 140.2,-129.1) ">
<use xlink:href="#Symbol_24_0_Layer0_33_MEMBER_0_FILL"/>
</g>

<g transform="matrix( -0.417205810546875, 0.0252685546875, 0.0252685546875, 0.417205810546875, 140.2,-129.1) ">
<use xlink:href="#Symbol_24_0_Layer0_34_MEMBER_0_FILL"/>
</g>

<g transform="matrix( -0.417205810546875, 0.0252685546875, 0.0252685546875, 0.417205810546875, 140.2,-129.1) ">
<use xlink:href="#Symbol_24_0_Layer0_35_MEMBER_0_FILL"/>
</g>

<g transform="matrix( -0.417205810546875, 0.0252685546875, 0.0252685546875, 0.417205810546875, 140.2,-129.1) ">
<use xlink:href="#Symbol_24_0_Layer0_36_MEMBER_0_MEMBER_0_FILL"/>
</g>

<g transform="matrix( -0.417205810546875, 0.0252685546875, 0.0252685546875, 0.417205810546875, 140.2,-129.1) ">
<use xlink:href="#Symbol_24_0_Layer0_37_MEMBER_0_MEMBER_0_FILL"/>
</g>

<g transform="matrix( -0.417205810546875, 0.0252685546875, 0.0252685546875, 0.417205810546875, 140.2,-129.1) ">
<use xlink:href="#Symbol_24_0_Layer0_38_MEMBER_0_MEMBER_0_FILL"/>
</g>

<g transform="matrix( -0.417205810546875, 0.0252685546875, 0.0252685546875, 0.417205810546875, 140.2,-129.1) ">
<use xlink:href="#Symbol_24_0_Layer0_39_MEMBER_0_MEMBER_0_FILL"/>
</g>

<g transform="matrix( -0.417205810546875, 0.0252685546875, 0.0252685546875, 0.417205810546875, 140.2,-129.1) ">
<use xlink:href="#Symbol_24_0_Layer0_40_MEMBER_0_MEMBER_0_FILL"/>
</g>

<g transform="matrix( -0.417205810546875, 0.0252685546875, 0.0252685546875, 0.417205810546875, 140.2,-129.1) ">
<use xlink:href="#Symbol_24_0_Layer0_41_MEMBER_0_MEMBER_0_FILL"/>
</g>
</g>
</g>
</svg>
