
<svg xmlns="http://www.w3.org/2000/svg" version="1.1" xmlns:xlink="http://www.w3.org/1999/xlink" preserveAspectRatio="none" x="0px" y="0px" width="374px" height="225px" viewBox="0 0 374 225">
<defs>
<g id="Symbol_10_0_Layer0_0_MEMBER_0_FILL">
<path fill="#FFFFFF" stroke="none" d="
M 5.9 37
Q 12 43.85 21.1 44.5 30.15 45.1 36.9 39.1 43.65 33.1 44.1 24 44.6 14.9 38.5 8.05 32.45 1.2 23.35 0.6 14.25 0 7.5 6 0.75 11.95 0.3 21.05 -0.2 30.15 5.9 37 Z"/>
</g>

<g id="Symbol_10_0_Layer0_0_MEMBER_1_FILL">
<path fill="#CCCCCC" stroke="none" d="
M 42.35 32.25
Q 44.15 28.35 44.4 24 44.6 19.65 43.2 15.55 41.7 11.3 38.7 7.9 35.7 4.5 31.6 2.5 27.7 0.6 23.35 0.35 19 0.05 14.9 1.4 10.7 2.8 7.3 5.8 3.95 8.8 2.05 12.8 0.25 16.7 0 21.05 -0.2 25.4 1.2 29.5 2.7 33.8 5.7 37.2 8.7 40.6 12.8 42.55 16.7 44.45 21.05 44.75 25.45 45 29.5 43.7 33.75 42.3 37.1 39.3 40.45 36.3 42.35 32.25
M 42.7 15.75
Q 44.1 19.75 43.85 24 43.65 28.25 41.9 32.05 40.05 36 36.75 38.9 33.45 41.8 29.35 43.2 25.35 44.5 21.1 44.2 16.85 43.95 13 42.1 9.05 40.15 6.1 36.85 3.15 33.5 1.7 29.35 0.3 25.35 0.55 21.1 0.8 16.85 2.55 13.05 4.4 9.05 7.65 6.15 10.95 3.25 15.05 1.9 19.05 0.6 23.3 0.85 27.55 1.15 31.4 3 35.35 4.9 38.3 8.25 41.25 11.55 42.7 15.75 Z"/>
</g>

<g id="Mask_flash0_ai_Assets_ROOM__Clip_Group__3_0_2_MASK_0_FILL">
<path fill="#FFFFFF" stroke="none" d="
M 6.3 13.5
Q 11 12.6 14.95 9.15 16.15 4.85 15.1 1.55
L 4.85 0
Q 1.3 5 0 7.9 2.35 11.5 6.3 13.5 Z"/>
</g>

<g id="flash0_ai_Assets_ROOM__Clip_Group__3_0_Layer2_0_FILL">
<path fill="#333333" stroke="none" d="
M 0 0
L 0 13.5 15.8 13.5 15.8 0 0 0 Z"/>
</g>

<g id="Symbol_10_0_Layer0_0_MEMBER_3_FILL">
<path fill="#CCCCCC" stroke="none" d="
M 19.1 34.55
L 19.15 34.8
Q 20.25 36.55 21.9 38.05 23.45 39.4 25.5 40.5
L 25.7 40.5
Q 28.35 40 30.5 38.85 32.5 37.85 34.45 36.1
L 34.55 35.95
Q 35.1 33.9 35.2 31.85 35.25 30.05 34.7 28.2 34.55 28.05 34.5 28.05
L 24.25 26.5
Q 24.05 26.5 24 26.6 22.05 29.35 21.4 30.4 20.15 32.35 19.1 34.55
M 30.95 28.05
L 34.25 28.55
Q 34.75 30.15 34.65 31.85 34.65 33.75 34.05 35.75 32.2 37.35 30.25 38.4 28.2 39.5 25.7 40 23.8 39.05 22.25 37.65 20.95 36.55 19.65 34.65 20.5 32.75 21.85 30.65 22.9 28.9 24.35 27.05 26.2 27.35 30.95 28.05 Z"/>
</g>

<g id="Mask_flash0_ai_Assets_ROOM__Clip_Group__2_0_2_MASK_0_FILL">
<path fill="#FFFFFF" stroke="none" d="
M 2.6 10.5
Q 3.9 12.6 6.6 14.05 7.95 11.55 9.75 10 6.85 5.7 5.75 1.2 5.7 1.2 2.95 0.7 1.45 0.4 0.65 0 -0.05 4.2 0.7 6.85 1.2 8.85 2.6 10.5 Z"/>
</g>

<g id="flash0_ai_Assets_ROOM__Clip_Group__2_0_Layer2_0_FILL">
<path fill="#333333" stroke="none" d="
M 0 0
L 0 14.05 9.75 14.05 9.75 0 0 0 Z"/>
</g>

<g id="Symbol_10_0_Layer0_0_MEMBER_5_FILL">
<path fill="#CCCCCC" stroke="none" d="
M 7.25 24.4
L 7.05 24.2 5.2 23.85
Q 2.9 23.45 2.05 23.05 1.8 22.95 1.7 23.15
L 1.65 23.25
Q 1.3 25.8 1.3 26.55 1.2 28.4 1.7 30.2 2.25 32.35 3.65 33.95 4.3 35 5.4 36 6.55 37 7.7 37.6 7.95 37.7 8.05 37.5
L 8.05 37.45
Q 8.95 35.95 9.45 35.3 10.15 34.3 11.2 33.5 11.35 33.35 11.25 33.15 9.7 30.85 8.75 28.8 7.8 26.7 7.25 24.4
M 2.1 23.65
Q 3 24 5.1 24.4
L 6.8 24.7
Q 7.3 26.75 8.3 29 9.35 31.3 10.65 33.25 10.05 33.75 9.05 34.95 8.4 35.85 7.75 37 6.6 36.4 5.75 35.6 4.8 34.8 4.1 33.65
L 4.05 33.6
Q 2.7 32.1 2.2 30.1
L 2.2 30.05
Q 1.7 28.4 1.8 26.6 1.9 25.05 2.1 23.65 Z"/>
</g>

<g id="Symbol_10_0_Layer0_0_MEMBER_6_FILL">
<path fill="#333333" stroke="none" d="
M 24.15 44.6
Q 23.3 43.85 23.15 43.2 20.35 43.75 15.65 42.85 15.45 43.05 15.7 43.45 20.25 44.9 24.15 44.6 Z"/>
</g>

<g id="Symbol_10_0_Layer0_0_MEMBER_7_FILL">
<path fill="#CCCCCC" stroke="none" d="
M 19.45 43.15
Q 17.6 43 15.7 42.55 15.5 42.55 15.4 42.7
L 15.3 43.1
Q 15.3 43.4 15.5 43.6
L 15.6 43.7
Q 18.05 44.5 20.05 44.7 22.15 45 24.2 44.85 24.55 44.85 24.4 44.6
L 24.35 44.4
Q 23.9 44.05 23.75 43.8 23.45 43.4 23.4 43.1 23.3 42.85 23.1 42.95 21.7 43.25 19.45 43.15
M 15.85 43.25
L 15.8 43.15
Q 18.2 43.55 19.4 43.65 21.2 43.8 22.95 43.5
L 23.35 44.15 23.55 44.4
Q 22.2 44.45 20.1 44.2 17.85 43.85 15.85 43.25 Z"/>
</g>

<g id="Mask_flash0_ai_Assets_ROOM__Clip_Group__1_0_2_MASK_0_FILL">
<path fill="#FFFFFF" stroke="none" d="
M 8.1 13.05
Q 8.75 11.3 8.6 9.45 8.45 6.15 5.7 2.95 3.95 0.75 2.05 0 1.55 2.3 0 4 2.8 8.6 3.65 12.5 5.9 12.35 8.1 13.05 Z"/>
</g>

<g id="flash0_ai_Assets_ROOM__Clip_Group__1_0_Layer2_0_FILL">
<path fill="#333333" stroke="none" d="
M 0 0
L 0 13.05 8.7 13.05 8.7 0 0 0 Z"/>
</g>

<g id="Symbol_10_0_Layer0_0_MEMBER_9_FILL">
<path fill="#CCCCCC" stroke="none" d="
M 40.8 10.7
L 40.75 10.65
Q 39.85 9.6 39.05 8.9 38.05 8.05 37 7.65
L 36.95 7.65
Q 36.75 7.6 36.65 7.85 36.4 8.95 36 9.85 35.35 11.05 34.65 11.75 34.5 11.9 34.65 12.05 36.05 14.45 36.8 16.15 37.85 18.4 38.25 20.45 38.3 20.65 38.55 20.65 39.65 20.55 40.65 20.7 41.9 20.9 42.85 21.2 43.1 21.3 43.2 21.05 43.5 20.25 43.65 19.3 43.75 18.65 43.75 17.35 43.6 15.55 42.9 13.95 42.15 12.25 40.8 10.7
M 42.45 14.2
Q 43.15 15.8 43.2 17.35 43.25 18 43.15 19.2
L 42.8 20.65
Q 42.1 20.4 40.7 20.2 39.8 20.05 38.7 20.15 38.3 18.2 37.3 15.95 36.5 14.15 35.15 11.95 36 11.05 36.45 10.1 36.85 9.25 37.1 8.25 38 8.7 38.75 9.3 39.35 9.8 40.35 11
L 40.4 11
Q 41.65 12.5 42.45 14.2 Z"/>
</g>

<g id="Mask_flash0_ai_Assets_ROOM__Clip_Group__0_0_2_MASK_0_FILL">
<path fill="#FFFFFF" stroke="none" d="
M 10.3 13.1
Q 13 8.8 15.7 5.9 14.05 2.9 9.4 0 4.05 1.25 0.55 4.15 -0.25 8.1 1.15 12.2 4.45 11.75 10.3 13.1 Z"/>
</g>

<g id="flash0_ai_Assets_ROOM__Clip_Group__0_0_Layer2_0_FILL">
<path fill="#333333" stroke="none" d="
M 0 0
L 0 13.1 15.7 13.1 15.7 0 0 0 Z"/>
</g>

<g id="Symbol_10_0_Layer0_0_MEMBER_11_FILL">
<path fill="#CCCCCC" stroke="none" d="
M 20.8 18.15
L 21.1 18
Q 22.05 16.4 23.6 14.35 24.8 12.7 26.4 10.9 26.65 10.8 26.45 10.6 25.55 8.9 23.75 7.25 22.15 5.9 20.05 4.55
L 19.85 4.55
Q 17.35 5.1 15.2 6.1 12.8 7.15 10.9 8.75
L 10.8 8.9
Q 10.45 10.9 10.6 13.05 10.85 15.3 11.45 17.1 11.55 17.3 11.75 17.25 13.9 17 16.1 17.3 18.25 17.5 20.8 18.15
M 23.15 14
Q 21.6 16.2 20.75 17.6 18.2 17 16.15 16.75 13.7 16.5 11.9 16.7 11.3 14.9 11.15 13 11 11.05 11.3 9.05 13.05 7.65 15.4 6.55 17.2 5.75 19.9 5.05 22.05 6.4 23.4 7.65 25.1 9.2 25.9 10.7 24.2 12.6 23.15 14 Z"/>
</g>

<g id="Symbol_10_0_Layer0_0_MEMBER_12_FILL">
<path fill="#333333" stroke="none" d="
M -1045.5 278.85
Q -1049.75 284.55 -1048.9 287.6 -1044.9 280.85 -1039.4 276.95 -1039.4 273.95 -1037.8 271.5 -1041.55 273.4 -1045.5 278.85 Z"/>
</g>

<g id="Symbol_10_0_Layer0_0_MEMBER_13_FILL">
<path fill="#CCCCCC" stroke="none" d="
M 8.5 5
Q 8.35 4.9 8.25 5 5.8 6.25 3.35 9.8 1.15 13.1 1.6 14.7 1.6 14.75 1.55 15.1 1.5 15.4 1.6 15.35
L 2.2 14.7
Q 3.2 12.9 4.65 11.3 6.1 9.6 7.6 8.65 7.7 8.6 7.7 8.4 7.7 7.6 7.95 6.75 8.2 6 8.6 5.35 8.7 5.2 8.5 5
M 7.45 6.6
Q 7.2 7.45 7.2 8.3 5.55 9.4 4.25 10.95 3 12.35 2.15 13.75 2.3 12.3 3.8 10.1 5.6 7.4 7.7 5.95
L 7.45 6.6 Z"/>
</g>

<g id="Symbol_10_0_Layer0_0_MEMBER_14_FILL">
<path fill="#62402E" stroke="none" d="
M 41 34.45
Q 41.65 33.45 42.25 32.1 40.05 34.55 38.05 36 38.5 36.45 39.45 36.6 40.65 35 41 34.45 Z"/>
</g>

<g id="Symbol_10_0_Layer0_0_MEMBER_15_FILL">
<path fill="#CCCCCC" stroke="none" d="
M 42.45 32.2
Q 42.55 32.05 42.4 31.9 42.25 31.75 42.05 31.95 41.25 32.9 40.1 33.95 39.2 34.85 37.9 35.75
L 37.85 35.8
Q 37.7 36 37.85 36.15 38.15 36.5 38.5 36.65
L 39.45 36.85 39.65 36.75 39.85 36.5
Q 41.6 34.2 42.45 32.2 Z"/>
</g>

<g id="Symbol_10_0_Layer0_0_MEMBER_16_FILL">
<path fill="#CCCCCC" stroke="none" d="
M 7.2 24.6
Q 7.85 22.7 8.95 21 10.2 18.9 12.05 17 12.2 16.85 12 16.65 11.85 16.5 11.65 16.65 9.85 18.55 8.5 20.7 7.5 22.35 6.7 24.45 6.6 24.65 6.9 24.75 7.1 24.85 7.2 24.6 Z"/>
</g>

<g id="Symbol_10_0_Layer0_0_MEMBER_17_FILL">
<path fill="#CCCCCC" stroke="none" d="
M 24.55 26.8
Q 23.4 24.85 22.35 22.25 21.4 19.75 20.9 17.4 20.85 17.65 20.7 17.7 20.6 17.75 20.35 17.6 20.8 19.7 21.9 22.45 22.8 24.8 24.1 27.05 24.1 27.1 24.35 27 24.6 26.9 24.55 26.8 Z"/>
</g>

<g id="Symbol_10_0_Layer0_0_MEMBER_18_FILL">
<path fill="#CCCCCC" stroke="none" d="
M 19.5 34.45
Q 17.1 34.55 15 34.15 13 33.8 10.95 33 10.7 32.9 10.6 33.15 10.5 33.4 10.75 33.5 12.8 34.3 14.9 34.65 17.4 35.1 19.5 34.95 19.75 34.95 19.75 34.7 19.75 34.45 19.5 34.45 Z"/>
</g>

<g id="Symbol_10_0_Layer0_0_MEMBER_19_FILL">
<path fill="#CCCCCC" stroke="none" d="
M 16 42.75
Q 13.35 41.5 11.5 40.15 9.75 39 7.95 37.1 7.8 36.95 7.6 37.1 7.45 37.3 7.6 37.45 9.2 39.2 11.2 40.6 13.2 42 15.8 43.2 15.95 43.3 16.15 43.1 16.25 42.85 16 42.75 Z"/>
</g>

<g id="Symbol_10_0_Layer0_0_MEMBER_20_FILL">
<path fill="#CCCCCC" stroke="none" d="
M 2.25 23.3
L 1.25 21.95
Q 0.7 21.05 0.6 20.65 0.6 20.45 0.4 20.5 0.2 20.5 0.2 20.8 0.4 21.5 0.8 22.2 1.35 23.1 1.9 23.65 2.1 23.85 2.25 23.65 2.45 23.5 2.25 23.3 Z"/>
</g>

<g id="Symbol_10_0_Layer0_0_MEMBER_21_FILL">
<path fill="#CCCCCC" stroke="none" d="
M 35.15 11.75
Q 32.85 10.75 30.6 10.45 28.45 10.1 26.05 10.5 25.8 10.6 25.8 10.8 25.9 11.05 26.1 11.05 28.2 10.65 30.5 10.95 32.7 11.25 34.95 12.25 35.05 12.3 35.15 11.95 35.2 11.75 35.15 11.75 Z"/>
</g>

<g id="Symbol_10_0_Layer0_0_MEMBER_22_FILL">
<path fill="#CCCCCC" stroke="none" d="
M -992.45 311.8
Q -989.95 308.15 -988.25 304.6 -986.4 301.05 -985.2 297.55 -985.05 297.1 -985.45 296.9 -986 296.9 -986 297.25 -987.45 301.35 -989 304.25 -990.9 308 -993.25 311.25 -993.35 311.35 -992.9 311.6 -992.55 311.85 -992.45 311.8 Z"/>
</g>

<g id="Symbol_10_0_Layer0_0_MEMBER_23_FILL">
<path fill="#CCCCCC" stroke="none" d="
M 38.1 35.7
Q 37 35.95 36.2 35.95 35.15 35.95 34.25 35.6 34 35.5 33.9 35.75 33.8 36 34.05 36.1 35.25 36.5 36.2 36.5 37.2 36.5 38.25 36.2 38.45 36.15 38.45 35.85 38.35 35.6 38.1 35.7 Z"/>
</g>

<g id="Symbol_10_0_Layer0_0_MEMBER_24_FILL">
<path fill="#CCCCCC" stroke="none" d="
M 23.1 43.5
Q 24.15 42.9 24.8 42.1 25.4 41.45 25.95 40.25 26.05 40.1 25.85 39.9 25.6 39.8 25.5 40.05 24.95 41.15 24.4 41.75 23.8 42.5 22.85 43.05 22.65 43.25 22.75 43.4 22.95 43.65 23.1 43.5 Z"/>
</g>

<path id="Symbol_10_0_Layer0_0_MEMBER_25_1_STROKES" stroke="#CCCCCC" stroke-width="1" stroke-linejoin="round" stroke-linecap="round" fill="none" d="
M -28.79860839843741 -35.57795410156251
L -38.37554321289031 -36.93531494140632"/>

<path id="Symbol_10_0_Layer0_0_MEMBER_26_1_STROKES" stroke="#CCCCCC" stroke-width="1" stroke-linejoin="round" stroke-linecap="round" fill="none" d="
M -5.648065185546784 -46.81388549804683
L -2.857934570312409 -57.14490966796876"/>

<path id="Symbol_10_0_Layer0_0_MEMBER_27_1_STROKES" stroke="#CCCCCC" stroke-width="1" stroke-linejoin="round" stroke-linecap="round" fill="none" d="
M 38.31534423828134 -38.217266845703136
Q 33.47444405555734 -44.7560463428498 27.90891113281259 -49.60401611328126"/>

<path id="Symbol_10_0_Layer0_0_MEMBER_28_1_STROKES" stroke="#CCCCCC" stroke-width="1" stroke-linejoin="round" stroke-linecap="round" fill="none" d="
M 54.226629638671966 -4.283245849609386
Q 55.95867862701425 0.2828241109848477 56.941351318359466 5.9723693847656705"/>
</defs>

<g transform="matrix( 1, 0, 0, 1, 187.05,112.55) ">
<g transform="matrix( 1, 0, 0, 1, -0.05,0) ">
<g transform="matrix( 1.1575927734375, 0, 0, 1.1575927734375, 0,0) ">
<g transform="matrix( 2.6060791015625, 0, 0, 2.6060791015625, -57.85,-58.85) ">
<use xlink:href="#Symbol_10_0_Layer0_0_MEMBER_0_FILL"/>
</g>

<g transform="matrix( 2.6060791015625, 0, 0, 2.6060791015625, -57.85,-58.85) ">
<use xlink:href="#Symbol_10_0_Layer0_0_MEMBER_1_FILL"/>
</g>

<g transform="matrix( 2.6060791015625, 0, 0, 2.6060791015625, -7.45,10.9) ">
<mask id="Mask_Mask_1">
<g transform="matrix( 1, 0, 0, 1, 0,0) ">
<use xlink:href="#Mask_flash0_ai_Assets_ROOM__Clip_Group__3_0_2_MASK_0_FILL"/>
</g>
</mask>

<g mask="url(#Mask_Mask_1)">
<g transform="matrix( 1, 0, 0, 1, 0,0) ">
<use xlink:href="#flash0_ai_Assets_ROOM__Clip_Group__3_0_Layer2_0_FILL"/>
</g>
</g>
</g>

<g transform="matrix( 2.6060791015625, 0, 0, 2.6060791015625, -57.85,-58.85) ">
<use xlink:href="#Symbol_10_0_Layer0_0_MEMBER_3_FILL"/>
</g>

<g transform="matrix( 2.6060791015625, 0, 0, 2.6060791015625, -54.55,2.1) ">
<mask id="Mask_Mask_2">
<g transform="matrix( 1, 0, 0, 1, 0,0) ">
<use xlink:href="#Mask_flash0_ai_Assets_ROOM__Clip_Group__2_0_2_MASK_0_FILL"/>
</g>
</mask>

<g mask="url(#Mask_Mask_2)">
<g transform="matrix( 1, 0, 0, 1, 0,0) ">
<use xlink:href="#flash0_ai_Assets_ROOM__Clip_Group__2_0_Layer2_0_FILL"/>
</g>
</g>
</g>

<g transform="matrix( 2.6060791015625, 0, 0, 2.6060791015625, -57.85,-58.85) ">
<use xlink:href="#Symbol_10_0_Layer0_0_MEMBER_5_FILL"/>
</g>

<g transform="matrix( 2.6060791015625, 0, 0, 2.6060791015625, -57.85,-58.85) ">
<use xlink:href="#Symbol_10_0_Layer0_0_MEMBER_6_FILL"/>
</g>

<g transform="matrix( 2.6060791015625, 0, 0, 2.6060791015625, -57.85,-58.85) ">
<use xlink:href="#Symbol_10_0_Layer0_0_MEMBER_7_FILL"/>
</g>

<g transform="matrix( 2.6060791015625, 0, 0, 2.6060791015625, 32.85,-38.15) ">
<mask id="Mask_Mask_3">
<g transform="matrix( 1, 0, 0, 1, 0,0) ">
<use xlink:href="#Mask_flash0_ai_Assets_ROOM__Clip_Group__1_0_2_MASK_0_FILL"/>
</g>
</mask>

<g mask="url(#Mask_Mask_3)">
<g transform="matrix( 1, 0, 0, 1, 0,0) ">
<use xlink:href="#flash0_ai_Assets_ROOM__Clip_Group__1_0_Layer2_0_FILL"/>
</g>
</g>
</g>

<g transform="matrix( 2.6060791015625, 0, 0, 2.6060791015625, -57.85,-58.85) ">
<use xlink:href="#Symbol_10_0_Layer0_0_MEMBER_9_FILL"/>
</g>

<g transform="matrix( 2.6060791015625, 0, 0, 2.6060791015625, -30.4,-46.25) ">
<mask id="Mask_Mask_4">
<g transform="matrix( 1, 0, 0, 1, 0,0) ">
<use xlink:href="#Mask_flash0_ai_Assets_ROOM__Clip_Group__0_0_2_MASK_0_FILL"/>
</g>
</mask>

<g mask="url(#Mask_Mask_4)">
<g transform="matrix( 1, 0, 0, 1, 0,0) ">
<use xlink:href="#flash0_ai_Assets_ROOM__Clip_Group__0_0_Layer2_0_FILL"/>
</g>
</g>
</g>

<g transform="matrix( 2.6060791015625, 0, 0, 2.6060791015625, -57.85,-58.85) ">
<use xlink:href="#Symbol_10_0_Layer0_0_MEMBER_11_FILL"/>
</g>

<g transform="matrix( 1.5081787109375, 0, 0, 1.5081787109375, 1529.15,-454.55) ">
<use xlink:href="#Symbol_10_0_Layer0_0_MEMBER_12_FILL"/>
</g>

<g transform="matrix( 2.6060791015625, 0, 0, 2.6060791015625, -57.85,-58.85) ">
<use xlink:href="#Symbol_10_0_Layer0_0_MEMBER_13_FILL"/>
</g>

<g transform="matrix( 2.6060791015625, 0, 0, 2.6060791015625, -57.85,-58.85) ">
<use xlink:href="#Symbol_10_0_Layer0_0_MEMBER_14_FILL"/>
</g>

<g transform="matrix( 2.6060791015625, 0, 0, 2.6060791015625, -57.85,-58.85) ">
<use xlink:href="#Symbol_10_0_Layer0_0_MEMBER_15_FILL"/>
</g>

<g transform="matrix( 2.6060791015625, 0, 0, 2.6060791015625, -57.85,-58.85) ">
<use xlink:href="#Symbol_10_0_Layer0_0_MEMBER_16_FILL"/>
</g>

<g transform="matrix( 2.6060791015625, 0, 0, 2.6060791015625, -57.85,-58.85) ">
<use xlink:href="#Symbol_10_0_Layer0_0_MEMBER_17_FILL"/>
</g>

<g transform="matrix( 2.6060791015625, 0, 0, 2.6060791015625, -57.85,-58.85) ">
<use xlink:href="#Symbol_10_0_Layer0_0_MEMBER_18_FILL"/>
</g>

<g transform="matrix( 2.6060791015625, 0, 0, 2.6060791015625, -57.85,-58.85) ">
<use xlink:href="#Symbol_10_0_Layer0_0_MEMBER_19_FILL"/>
</g>

<g transform="matrix( 2.6060791015625, 0, 0, 2.6060791015625, -57.85,-58.85) ">
<use xlink:href="#Symbol_10_0_Layer0_0_MEMBER_20_FILL"/>
</g>

<g transform="matrix( 2.6060791015625, 0, 0, 2.6060791015625, -57.85,-58.85) ">
<use xlink:href="#Symbol_10_0_Layer0_0_MEMBER_21_FILL"/>
</g>

<g transform="matrix( 1.5081787109375, 0, 0, 1.5081787109375, 1529.15,-454.55) ">
<use xlink:href="#Symbol_10_0_Layer0_0_MEMBER_22_FILL"/>
</g>

<g transform="matrix( 2.6060791015625, 0, 0, 2.6060791015625, -57.85,-58.85) ">
<use xlink:href="#Symbol_10_0_Layer0_0_MEMBER_23_FILL"/>
</g>

<g transform="matrix( 2.6060791015625, 0, 0, 2.6060791015625, -57.85,-58.85) ">
<use xlink:href="#Symbol_10_0_Layer0_0_MEMBER_24_FILL"/>
</g>

<g transform="matrix( 1.5081787109375, 0, 0, 1.5081787109375, 1529.15,-454.55) ">
<use xlink:href="#Symbol_10_0_Layer0_0_MEMBER_25_1_STROKES" transform="matrix( 0.663055419921875, 0, 0, 0.663055419921875, -1013.9,301.4) "/>
</g>

<g transform="matrix( 1.5081787109375, 0, 0, 1.5081787109375, 1529.15,-454.55) ">
<use xlink:href="#Symbol_10_0_Layer0_0_MEMBER_26_1_STROKES" transform="matrix( 0.663055419921875, 0, 0, 0.663055419921875, -1013.9,301.4) "/>
</g>

<g transform="matrix( 1.5081787109375, 0, 0, 1.5081787109375, 1529.15,-454.55) ">
<use xlink:href="#Symbol_10_0_Layer0_0_MEMBER_27_1_STROKES" transform="matrix( 0.663055419921875, 0, 0, 0.663055419921875, -1013.9,301.4) "/>
</g>

<g transform="matrix( 1.5081787109375, 0, 0, 1.5081787109375, 1529.15,-454.55) ">
<use xlink:href="#Symbol_10_0_Layer0_0_MEMBER_28_1_STROKES" transform="matrix( 0.663055419921875, 0, 0, 0.663055419921875, -1013.9,301.4) "/>
</g>
</g>
</g>
</g>
</svg>
