
<svg xmlns="http://www.w3.org/2000/svg" version="1.1" xmlns:xlink="http://www.w3.org/1999/xlink" preserveAspectRatio="none" x="0px" y="0px" width="374px" height="225px" viewBox="0 0 374 225">
<defs>
<linearGradient id="Gradient_1" gradientUnits="userSpaceOnUse" x1="566.65" y1="327.01250000000005" x2="604.9499999999999" y2="299.1875" spreadMethod="pad">
<stop  offset="0%" stop-color="#9E624F"/>

<stop  offset="100%" stop-color="#B48D66"/>
</linearGradient>

<linearGradient id="Gradient_2" gradientUnits="userSpaceOnUse" x1="563.6750000000001" y1="300.975" x2="609.025" y2="268.025" spreadMethod="pad">
<stop  offset="0%" stop-color="#A55F4D"/>

<stop  offset="100%" stop-color="#85705A"/>
</linearGradient>

<linearGradient id="Gradient_3" gradientUnits="userSpaceOnUse" x1="555.8875" y1="301.33750000000003" x2="620.0125" y2="254.76250000000002" spreadMethod="pad">
<stop  offset="0%" stop-color="#C48878"/>

<stop  offset="100%" stop-color="#D3AE6D"/>
</linearGradient>

<linearGradient id="Gradient_4" gradientUnits="userSpaceOnUse" x1="568.0625" y1="294.2" x2="591.8375000000001" y2="272.8" spreadMethod="pad">
<stop  offset="0%" stop-color="#9F6758"/>

<stop  offset="100%" stop-color="#635344"/>
</linearGradient>

<linearGradient id="Gradient_5" gradientUnits="userSpaceOnUse" x1="85.38749999999993" y1="672.6375" x2="1155.9125" y2="-105.13750000000005" spreadMethod="pad">
<stop  offset="0%" stop-color="#9E624F"/>

<stop  offset="100%" stop-color="#B68860"/>
</linearGradient>

<linearGradient id="Gradient_6" gradientUnits="userSpaceOnUse" x1="437.1875" y1="430" x2="762.0125" y2="194" spreadMethod="pad">
<stop  offset="0%" stop-color="#C39075"/>

<stop  offset="42.35294117647059%" stop-color="#C19374"/>

<stop  offset="100%" stop-color="#BE9972"/>
</linearGradient>

<g id="Symbol_5_0_Layer2_0_MEMBER_0_MEMBER_0_FILL">
<path fill="url(#Gradient_1)" stroke="none" d="
M 600.5 291.4
Q 593.15 281.45 582.75 281.45 572.4 281.45 565.05 291.4 557.65 301.3 557.65 315.3 557.65 329.3 565.05 339.2 572.4 349.15 582.75 349.15 593.15 349.15 600.5 339.2 607.9 329.3 607.9 315.3 607.9 301.3 600.5 291.4 Z"/>
</g>

<g id="Symbol_5_0_Layer2_0_MEMBER_0_MEMBER_1_FILL">
<path fill="url(#Gradient_2)" stroke="none" d="
M 570.9 290.45
Q 575.85 291.85 582.75 291.85 589.65 291.85 594.6 290.45 599.55 289.05 599.55 287.15 599.55 285.2 594.6 283.85 589.7 282.45 582.75 282.45 575.8 282.45 570.9 283.85 566 285.2 566 287.15 566 289.05 570.9 290.45 Z"/>
</g>

<g id="Symbol_5_0_Layer2_0_MEMBER_0_MEMBER_2_FILL">
<path fill="url(#Gradient_3)" stroke="none" d="
M 567.65 286.35
Q 573.95 288.25 582.75 288.25 591.6 288.25 597.9 286.35 604.15 284.45 604.15 281.8 604.15 279.1 597.9 277.2 591.6 275.3 582.75 275.3 573.95 275.3 567.65 277.2 561.4 279.1 561.4 281.8 561.4 284.45 567.65 286.35 Z"/>
</g>

<g id="Symbol_5_0_Layer2_0_MEMBER_0_MEMBER_3_FILL">
<path fill="url(#Gradient_4)" stroke="none" d="
M 573 283.75
Q 577 284.9 582.85 284.9 588.65 284.9 592.65 283.75 596.75 282.6 596.75 280.9 596.75 279.2 592.8 278.15 589 277.15 583.1 277.15 577.1 277.15 573.1 278.15 568.9 279.2 568.9 280.9 568.9 282.6 573 283.75 Z"/>
</g>

<g id="Symbol_5_0_Layer2_0_MEMBER_1_FILL">
<path fill="url(#Gradient_5)" stroke="none" d="
M 569.45 290.25
Q 568.65 291.3 567.5 293.1 565.2 296.75 563.55 300.6 558.2 313 561.05 323.1 564 333.5 571.15 339.65 575.9 343.75 579.5 344.3 580.1 344.4 577.9 341.85 574.35 337.65 572.4 335 564.05 323.4 565.95 315 567.9 306.3 569 300.9
L 569.7 297.25 571.7 299
Q 574.2 301.05 576.7 302.35 584.85 306.6 590.45 302.25 596 297.95 597.1 295.8 597.65 294.75 597.05 294.55 596.75 293.9 596.1 293.2 594.7 291.85 592.75 291.85 589.2 292.05 586.9 292.15 582.6 292.35 579.05 291.85 575.45 291.4 572.1 290.75
L 569.45 290.25 Z"/>
</g>

<g id="Symbol_5_0_Layer2_0_MEMBER_2_FILL">
<path fill="url(#Gradient_6)" stroke="none" d="
M 598.9 291.05
L 598.2 295.45
Q 596.8 300.1 593.3 301.25 592.95 305.8 594.95 310.25 595.95 312.45 597.05 313.85 598.85 317.5 598 326.85 597.6 331.5 596.8 335.45 597.7 333.2 598.1 332.75 599.2 331.45 602.65 325.1 607.55 316.25 603.7 302.75 602.5 298.55 600.6 294.35
L 598.9 291.05 Z"/>
</g>

<path id="Symbol_5_0_Layer2_0_MEMBER_0_MEMBER_0_1_STROKES" stroke="#85705A" stroke-width="1" stroke-linejoin="miter" stroke-linecap="butt" stroke-miterlimit="2" fill="none" d="
M -0.07611846923828125 90.72573699951158
Q 25.478593444824128 90.72573699951158 43.53889465332031 66.27675781249991 61.72205505371085 41.95063781738281 61.72205505371085 7.5500640869140625 61.72205505371085 -26.850509643554688 43.53889465332031 -51.17662963867201 25.478593444824128 -75.62560882568368 -0.07611846923828125 -75.62560882568368 -25.50797119140634 -75.62560882568368 -43.568272399902526 -51.17662963867201 -61.75143280029306 -26.850509643554688 -61.75143280029306 7.5500640869140625 -61.75143280029306 41.95063781738281 -43.568272399902526 66.27675781249991 -25.50797119140634 90.72573699951158 -0.07611846923828125 90.72573699951158 Z"/>

<path id="Symbol_5_0_Layer2_0_MEMBER_0_MEMBER_1_1_STROKES" stroke="#85705A" stroke-width="1" stroke-linejoin="miter" stroke-linecap="butt" stroke-miterlimit="2" fill="none" d="
M -0.07611846923828125 -50.07089691162105
Q 16.87845001220694 -50.07089691162105 29.041510009765716 -53.51095428466806 41.20457000732404 -56.951011657714844 41.20457000732404 -61.61966094970717 41.20457000732404 -66.41116943359384 29.041510009765716 -69.72836761474605 17.001309204101744 -73.16842498779306 -0.07611846923828125 -73.16842498779306 -17.153546142578307 -73.16842498779306 -29.19374694824228 -69.72836761474605 -41.23394775390625 -66.41116943359384 -41.23394775390625 -61.61966094970717 -41.23394775390625 -56.951011657714844 -29.19374694824228 -53.51095428466806 -17.030686950683503 -50.07089691162105 -0.07611846923828125 -50.07089691162105 Z"/>

<path id="Symbol_5_0_Layer2_0_MEMBER_0_MEMBER_2_1_STROKES" stroke="#85705A" stroke-width="1" stroke-linejoin="miter" stroke-linecap="butt" stroke-miterlimit="2" fill="none" d="
M -0.07611846923828125 -58.91675872802739
Q 21.66995849609384 -58.91675872802739 37.1502166748046 -63.585408020019486 52.507615661621 -68.25405731201181 52.507615661621 -74.76559448242188 52.507615661621 -81.39999084472652 37.1502166748046 -86.06864013671884 21.66995849609384 -90.73728942871094 -0.07611846923828125 -90.73728942871094 -21.6993362426756 -90.73728942871094 -37.17959442138681 -86.06864013671884 -52.536993408203216 -81.39999084472652 -52.536993408203216 -74.76559448242188 -52.536993408203216 -68.25405731201181 -37.17959442138681 -63.585408020019486 -21.6993362426756 -58.91675872802739 -0.07611846923828125 -58.91675872802739 Z"/>

<path id="Symbol_5_0_Layer2_0_MEMBER_0_MEMBER_3_1_STROKES" stroke="#85705A" stroke-width="1" stroke-linejoin="miter" stroke-linecap="butt" stroke-miterlimit="2" fill="none" d="
M 0.1695999145508722 -67.14832458496107
Q 14.421266174316315 -67.14832458496107 24.250001525878815 -69.9740859985352 34.32445526123047 -72.79984741210933 34.32445526123047 -76.97705993652357 34.32445526123047 -81.15427246093759 24.618579101562318 -83.73431549072279 15.281280517578125 -86.19149932861342 0.7838958740235284 -86.19149932861342 -13.959207153320222 -86.19149932861342 -23.78794250488272 -83.73431549072279 -34.10811462402353 -81.15427246093759 -34.10811462402353 -76.97705993652357 -34.10811462402353 -72.79984741210933 -24.033660888671875 -69.9740859985352 -14.204925537109375 -67.14832458496107 0.1695999145508722 -67.14832458496107 Z"/>
</defs>

<g transform="matrix( 1, 0, 0, 1, 187.05,112.55) ">
<g transform="matrix( 2.457183837890625, 0, 0, 2.457183837890625, -1432,-767.2) ">
<use xlink:href="#Symbol_5_0_Layer2_0_MEMBER_0_MEMBER_0_FILL"/>

<use xlink:href="#Symbol_5_0_Layer2_0_MEMBER_0_MEMBER_0_1_STROKES" transform="matrix( 0.4069671630859375, 0, 0, 0.4069671630859375, 582.8,312.25) "/>
</g>

<g transform="matrix( 2.457183837890625, 0, 0, 2.457183837890625, -1432,-767.2) ">
<use xlink:href="#Symbol_5_0_Layer2_0_MEMBER_0_MEMBER_1_FILL"/>

<use xlink:href="#Symbol_5_0_Layer2_0_MEMBER_0_MEMBER_1_1_STROKES" transform="matrix( 0.4069671630859375, 0, 0, 0.4069671630859375, 582.8,312.25) "/>
</g>

<g transform="matrix( 2.457183837890625, 0, 0, 2.457183837890625, -1432,-767.2) ">
<use xlink:href="#Symbol_5_0_Layer2_0_MEMBER_0_MEMBER_2_FILL"/>

<use xlink:href="#Symbol_5_0_Layer2_0_MEMBER_0_MEMBER_2_1_STROKES" transform="matrix( 0.4069671630859375, 0, 0, 0.4069671630859375, 582.8,312.25) "/>
</g>

<g transform="matrix( 2.457183837890625, 0, 0, 2.457183837890625, -1432,-767.2) ">
<use xlink:href="#Symbol_5_0_Layer2_0_MEMBER_0_MEMBER_3_FILL"/>

<use xlink:href="#Symbol_5_0_Layer2_0_MEMBER_0_MEMBER_3_1_STROKES" transform="matrix( 0.4069671630859375, 0, 0, 0.4069671630859375, 582.8,312.25) "/>
</g>

<g transform="matrix( 2.457183837890625, 0, 0, 2.457183837890625, -1432,-767.2) ">
<use xlink:href="#Symbol_5_0_Layer2_0_MEMBER_1_FILL"/>
</g>

<g transform="matrix( 2.457183837890625, 0, 0, 2.457183837890625, -1432,-767.2) ">
<use xlink:href="#Symbol_5_0_Layer2_0_MEMBER_2_FILL"/>
</g>
</g>
</svg>
