
<svg xmlns="http://www.w3.org/2000/svg" version="1.1" xmlns:xlink="http://www.w3.org/1999/xlink" preserveAspectRatio="none" x="0px" y="0px" width="1884px" height="653px" viewBox="0 0 1884 653">
<defs>
<linearGradient id="Gradient_1" gradientUnits="userSpaceOnUse" x1="2.775" y1="2.425" x2="4.725" y2="12.375" spreadMethod="pad">
<stop  offset="0%" stop-color="#373435"/>

<stop  offset="100%" stop-color="#FF6600"/>
</linearGradient>

<linearGradient id="Gradient_2" gradientUnits="userSpaceOnUse" x1="24.875" y1="78.67500000000001" x2="24.424999999999997" y2="4.324999999999996" spreadMethod="pad">
<stop  offset="0%" stop-color="#000000"/>

<stop  offset="100%" stop-color="#BA8800"/>
</linearGradient>

<g id="Mask_Symbol_7_4_5_MASK_0_FILL">
<path fill="#FFFFFF" stroke="none" d="
M 1890 52.4
Q 1890 40.05 1881.25 31.3 1872.5 22.55 1860.15 22.55
L 59.9 22.55
Q 47.55 22.55 38.8 31.3 30.05 40.05 30.05 52.4
L 30.05 623.55
Q 30.05 635.9 38.8 644.65 47.55 653.4 59.9 653.4
L 1860.15 653.4
Q 1872.5 653.4 1881.25 644.65 1890 635.9 1890 623.55
L 1890 52.4 Z"/>
</g>

<g id="Mask_flash0_ai_Assets_Isolation_Mode__Clip_Group__1_0_2_MASK_0_FILL">
<path fill="#FFFFFF" stroke="none" d="
M 2.4 1.15
Q 2.25 2.1 2.75 4.6 3.15 6.7 3.15 7.65 3.15 9.2 2.3 9.9 2.1 10.05 2.05 10.3 2 10.55 2.2 10.75 2.35 11 2.6 11 2.85 11.05 3.05 10.85 4.3 9.9 4.4 7.95 4.45 6.75 3.95 4.35 3.55 1.9 3.6 1.3 3.65 1.05 3.5 0.85 3.3 0.65 3.1 0.65 2.85 0.6 2.6 0.75 2.4 0.95 2.4 1.15 Z"/>
</g>

<g id="flash0_ai_Assets_Isolation_Mode__Clip_Group__1_0_Layer2_0_FILL">
<path fill="url(#Gradient_1)" stroke="none" d="
M 4.85 0
L 0 1 2.1 11.65 6.95 10.7 4.85 0 Z"/>
</g>

<g id="Duplicate_Items_Folder_Symbol_1_0_Layer0_1_FILL">
<path fill="#91D8F7" stroke="none" d="
M 19.05 27.2
Q 19.05 30.55 15.8 35.3 12.55 40.1 12.45 44.6 12.3 50.3 16.15 54.3
L 35.05 55.05
Q 38.95 51.4 39.15 45.5 39.3 41.4 36.4 36.6 33.55 31.9 33.7 27.7
L 19.05 27.2
M 16.95 36
Q 18.1 34.35 18.55 33.55 20 31.1 20.3 28.6
L 32.35 29
Q 32.4 31.25 33.2 33.25 33.8 34.9 35.25 37.3 36.7 39.65 37.2 41.15 37.85 43.1 37.8 45.45 37.65 49.75 34.6 51.95 32.05 53.75 27.65 53.9 22.2 54.1 18.2 51.75 13.7 49.1 13.8 44.65 13.8 41.5 15.4 38.45 15.9 37.55 16.95 36 Z"/>
</g>

<g id="Mask_flash0_ai_Assets_Isolation_Mode__Clip_Group__0_2_MASK_0_FILL">
<path fill="#FFFFFF" stroke="none" d="
M 47.8 39.4
Q 47.15 33.05 45.95 28.85 45 25.7 43.55 23.25 42 20.65 39.7 19.3 38.7 18.7 37.1 18.2
L 37.05 18.2 36.8 17.55
Q 36.4 16.15 34.6 15 33.65 14.4 32.35 13.95 33 13.35 33.6 12.35 34.65 10.6 34.7 8.6 34.8 5.25 32.55 2.85 30.3 0.45 27.05 0.35 23.7 0.3 21.4 2.5 19.05 4.75 18.9 8.05
L 18.9 8.1
Q 18.85 10.05 19.7 11.85 20.2 12.8 20.8 13.5 19.3 13.95 18.55 14.4 16.85 15.35 16.2 16.85
L 16 17.25 15.2 17.35
Q 13.5 17.65 12 18.35 9.65 19.6 7.9 22.05 6.35 24.25 5.15 27.5 3.7 31.6 2.6 37.9 1.9 41.95 1.05 48.55 0.25 55.2 1.35 59.3 2.95 64.95 8.2 67.6 9.05 68.05 9.9 68.35
L 10.85 68.65 10.85 68.7
Q 10.55 70.8 8.7 71.9
L 8.5 72 7.35 72
Q 6.05 72.35 5.55 73.8 5.35 74.6 5.35 75 5.35 75.7 5.5 76.2 5.85 77.85 7.1 78.25
L 7.25 78.3 41.65 79.45 41.8 79.4
Q 42.95 79.05 43.55 77.6 43.7 77.2 43.8 76.3 43.8 75.6 43.65 75 43.2 73.65 42 73.2
L 41.85 73.15 40.35 73.1
Q 39.8 73 39.25 72.1 38.85 71.3 38.7 70.3
L 38.75 69.4 38.8 69.2 40.25 68.7
Q 45.7 66.35 47.6 60.85 48.95 56.85 48.6 50.15 48.35 44.35 47.8 39.4
M 30.4 7.6
L 30.4 7.9 30.45 7.9 30.45 8.65 30.4 8.75 30.4 9 30.35 9.1 30.35 9.25 30.3 9.25 30.3 9.4 30.25 9.45 30.25 9.5 30.2 9.65 30.2 9.7 30.1 9.9 30.05 9.95 30.05 10.05 29.95 10.15 29.95 10.2 29.9 10.25 29.85 10.35 29.8 10.4 29.75 10.5 29.65 10.6 29.6 10.7 29.5 10.75 29.5 10.8 29.3 11 29.3 11.05 29.25 11.05 29.1 11.2 29 11.25 28.95 11.3 28.85 11.35 28.8 11.4 28.7 11.45 28.65 11.5 28.55 11.55 28.5 11.6 28.4 11.65 28.35 11.65 28.3 11.7 28.2 11.75 28.1 11.75 28 11.8 27.95 11.85 27.85 11.85 27.75 11.9 27.65 11.9 27.6 11.95 27.35 11.95 27.2 12 26.3 12 26.2 11.95 26.05 11.95 25.95 11.9 25.85 11.9 25.75 11.85 25.65 11.85 25.6 11.8 25.5 11.8 25.4 11.75 25.35 11.7 25.25 11.65 25.2 11.65 25 11.55 24.9 11.45 24.7 11.35 24.55 11.2 24.45 11.15 23.95 10.65 23.9 10.55 23.8 10.45 23.75 10.35 23.75 10.3 23.7 10.3 23.6 10.1 23.6 10.05 23.55 9.95 23.5 9.9 23.45 9.8 23.45 9.75 23.4 9.65 23.4 9.6 23.35 9.55 23.35 9.5 23.3 9.4 23.3 9.3 23.25 9.2 23.25 9.15 23.2 9 23.2 8.85 23.15 8.75 23.15 7.9 23.2 7.8 23.2 7.65 23.25 7.55 23.25 7.35 23.3 7.25 23.3 7.2 23.4 7 23.4 6.95 23.5 6.75 23.5 6.7 23.6 6.5 23.7 6.4 23.75 6.3 23.8 6.25 23.85 6.15 23.9 6.1 23.95 6 24.25 5.7 24.3 5.6 24.35 5.55 24.45 5.5 24.65 5.3 24.7 5.3 24.85 5.15 24.95 5.15 25.05 5.1 25.05 5.05 25.1 5.05 25.2 5 25.25 4.95 25.3 4.95 25.4 4.9 25.45 4.9 25.5 4.85 25.6 4.85 25.65 4.8 25.75 4.8 25.85 4.75 25.95 4.75 25.95 4.7 26.1 4.7 26.2 4.65 26.55 4.65 26.65 4.6 26.9 4.6 27 4.65 27.4 4.65 27.45 4.7 27.55 4.7 27.65 4.75 27.65 4.7 27.75 4.75 27.85 4.75 27.9 4.8 28 4.8 28.2 4.9 28.25 4.9 28.35 4.95 28.4 5 28.6 5.1 28.65 5.1 28.7 5.15 28.8 5.2 28.85 5.25 28.9 5.25 28.95 5.3 29 5.4 29.05 5.4 29.2 5.55 29.3 5.6 29.35 5.65 29.4 5.75 29.45 5.8 29.55 5.85 29.6 5.95 29.75 6.1 29.85 6.3 29.95 6.4 29.95 6.5 30.05 6.6 30.05 6.65 30.15 6.85 30.15 6.9 30.25 7.1 30.25 7.15 30.3 7.25 30.3 7.3 30.35 7.45 30.35 7.5 30.4 7.6
M 34.7 24.5
L 35.05 24.65
Q 35.7 24.85 36.2 25.2 37.15 25.75 38.05 27.8 39 29.95 39.5 32.95 40.55 38.1 41.25 44.65 41.8 50.05 41.65 53.55 41.5 56.55 40.45 58.5 39.4 60.65 37.15 61.6
L 33.45 62.8
Q 33.2 62.3 32.7 62.15
L 32.55 62.1 31.4 62.05
Q 30.85 61.15 30.85 59.55 30.95 58.3 31.45 57.55
L 34.9 57.65 35.1 57.55
Q 35.8 57.15 35.95 56.35
L 36.05 55.6
Q 35.95 55.05 35.8 54.8 35.5 54.25 34.95 54.1
L 15.55 53.45
Q 14.85 53.65 14.5 54.5
L 14.4 55.15 14.45 55.8
Q 14.6 56.65 15.4 56.95
L 15.55 57 18.75 57.1
Q 19.15 58.2 19.1 59.35 19.1 60.55 18.55 61.65
L 17.35 61.6 17.15 61.7 17.1 61.7
Q 16.75 61.9 16.35 62.45 15.4 62.25 14.4 61.85 12.85 61.35 11.75 60.75 9.6 59.7 8.65 57.45 7.8 55.55 7.8 52.4 7.8 49.2 8.8 43.55 10.05 36.45 11.3 32 12.1 28.9 13.1 26.95 14.05 25 15.1 24.5 15.9 24.1 16.7 23.9
L 17.85 23.7 17.8 24.4 19.4 24.45 19.35 26.4 15.65 26.3
Q 14.85 26.6 14.45 27.35 14.2 27.8 14.2 28.55 14.2 29.1 14.45 29.7 14.85 30.45 15.6 30.6
L 15.7 30.65 36.45 31.35 36.55 31.3
Q 37.25 31.1 37.7 30.3 37.95 29.8 37.95 29.35 38 28.85 37.85 28.35 37.6 27.45 36.8 27.1
L 36.6 27 33 26.85 33.1 24.9 34.65 24.95 34.7 24.5 Z"/>
</g>

<g id="flash0_ai_Assets_Isolation_Mode__Clip_Group__0_Layer2_0_FILL">
<path fill="url(#Gradient_2)" stroke="none" d="
M 0.45 79.75
L 49.3 79.45 48.8 0 0 0.3 0.45 79.75 Z"/>
</g>

<g id="Duplicate_Items_Folder_Symbol_1_0_Layer0_3_FILL">
<path fill="#4D4D4D" stroke="none" d="
M 40.65 32.65
Q 41.55 37.25 42.25 43.15 43 50 42.8 53.5 42.35 60.45 37.7 62.35 32.75 64.4 26.9 64.25
L 26.7 69.2
Q 35.75 69.55 40.1 67.7 45.15 65.6 46.95 60.45 48.25 56.55 47.9 50.1 47.1 35.2 45.25 29 43.35 22.3 39.45 20 37.45 18.85 34.3 18.5 31.6 18.2 26.8 18.4
L 27 22.8
Q 34 22.5 36.9 24.3 39.3 25.75 40.65 32.65 Z"/>
</g>

<g id="Duplicate_Items_Folder_Symbol_1_0_Layer0_4_FILL">
<path fill="#4D4D4D" stroke="none" d="
M 24.9 22.7
L 25.4 18.35
Q 20.65 17.8 17.9 17.95 14.7 18.05 12.65 19.1 8.7 21.1 6.25 27.7 4.1 33.75 2.2 48.55 1.45 55.05 2.5 58.95 3.95 64.2 8.85 66.65 13.2 68.85 22.05 69.05
L 22.25 64.1
Q 16.3 63.85 11.55 61.5 7 59.15 7.1 52.3 7.1 48.8 8.35 42.05 9.4 36.2 10.6 31.65 12.5 24.75 14.9 23.55 17.95 22 24.9 22.7 Z"/>
</g>

<g id="Duplicate_Items_Folder_Symbol_1_0_Layer0_5_FILL">
<path fill="#1A1A1A" stroke="none" d="
M 34 8.45
Q 34.1 5.55 32.1 3.4 30.15 1.25 27.25 1.15 24.35 1.1 22.25 3.05 20.15 5.05 20.05 7.95 19.95 10.85 21.95 13 23.9 15.15 26.8 15.25 29.7 15.35 31.8 13.35 33.9 11.35 34 8.45
M 23.9 4.85
Q 25.25 3.5 27.15 3.55 29.05 3.65 30.35 5.05 31.7 6.45 31.6 8.35 31.55 10.25 30.15 11.6 28.75 12.9 26.85 12.85 24.95 12.8 23.7 11.35 22.4 9.95 22.45 8.05 22.5 6.15 23.9 4.85 Z"/>
</g>

<g id="Duplicate_Items_Folder_Symbol_1_0_Layer0_6_FILL">
<path fill="#333333" stroke="none" d="
M 19.55 56.1
Q 20.3 57.4 20.25 59.25 20.2 61.1 19.35 62.4
L 31.05 62.8
Q 30.15 61.55 30.15 59.55 30.2 57.45 31.25 56.45
L 19.55 56.1 Z"/>
</g>

<g id="Duplicate_Items_Folder_Symbol_1_0_Layer0_7_FILL">
<path fill="#4D4D4D" stroke="none" d="
M 17.35 63.05
Q 17.3 63.55 17.7 63.8
L 32.55 64.3
Q 32.95 64.2 32.95 63.65 33 63.05 32.6 62.95
L 17.75 62.45
Q 17.35 62.6 17.35 63.05 Z"/>
</g>

<g id="Duplicate_Items_Folder_Symbol_1_0_Layer0_8_FILL">
<path fill="#4D4D4D" stroke="none" d="
M 6.5 75.05
Q 6.5 76.9 7.6 77.25
L 41.75 78.4
Q 42.95 78.05 43.1 76.25 43.2 74.4 41.9 73.95
L 7.75 72.8
Q 6.5 73.15 6.5 75.05 Z"/>
</g>

<g id="Duplicate_Items_Folder_Symbol_1_0_Layer0_9_FILL">
<path fill="#666666" stroke="none" d="
M 12.05 68.4
Q 11.8 70.75 10.25 72 9.5 72.6 9.15 72.85
L 40.55 73.9
Q 39.45 73.8 38.7 72.5 37.9 71.1 37.95 69.25
L 12.05 68.4 Z"/>
</g>

<g id="Duplicate_Items_Folder_Symbol_1_0_Layer0_10_FILL">
<path fill="#1A1A1A" stroke="none" d="
M 14.05 65.85
Q 12.2 67 12.05 68.35
L 38.05 69.2
Q 38.15 68.05 36.3 66.95 34.4 65.8 34.4 64.25
L 15.9 63.65
Q 15.85 64.75 14.05 65.85 Z"/>
</g>

<g id="Duplicate_Items_Folder_Symbol_1_0_Layer0_11_FILL">
<path fill="#808080" stroke="none" d="
M 15.55 55.1
Q 15.55 55.8 15.95 55.95
L 34.85 56.6
Q 35.25 56.35 35.3 55.7 35.35 55 34.95 54.9
L 16 54.25
Q 15.55 54.35 15.55 55.1 Z"/>
</g>

<g id="Duplicate_Items_Folder_Symbol_1_0_Layer0_12_FILL">
<path fill="#000000" stroke="none" d="
M 20.6 23.45
L 20.45 27.25 32.25 27.65 32.4 23.8 20.6 23.45 Z"/>
</g>

<g id="Duplicate_Items_Folder_Symbol_1_0_Layer0_13_FILL">
<path fill="#4D4D4D" stroke="none" d="
M 16.15 27.1
Q 15.35 27.3 15.35 28.35 15.3 29.4 16.05 29.6
L 36.5 30.3
Q 37.2 30.05 37.25 29.1 37.3 28.15 36.6 27.8
L 16.15 27.1 Z"/>
</g>

<g id="Duplicate_Items_Folder_Symbol_1_0_Layer0_14_FILL">
<path fill="#1A1A1A" stroke="none" d="
M 26.95 13.75
Q 18.85 13.4 17.25 17.1
L 36.15 17.75
Q 34.95 14.15 26.95 13.75 Z"/>
</g>

<g id="Duplicate_Items_Folder_Symbol_1_0_Layer0_15_FILL">
<path fill="#000000" stroke="none" d="
M 14.15 36.35
L 14.2 36.35
Q 15.45 36.2 19 38 22.5 39.8 26.35 42.5 30.6 45.5 33.35 48.3 36.5 51.5 36.9 53.7
L 36.9 53.8
Q 37.1 54.45 37.65 54.35 38.25 54.25 38.15 53.6
L 38.15 53.5
Q 37.7 51.05 34.4 47.65 31.5 44.6 27.1 41.5 23.1 38.65 19.35 36.8 15.55 34.95 14.05 35.1
L 13.95 35.1
Q 13.35 35.2 13.45 35.85 13.55 36.45 14.15 36.35 Z"/>
</g>

<g id="Duplicate_Items_Folder_Symbol_1_0_Layer0_16_FILL">
<path fill="#000000" stroke="none" d="
M 37.95 37.55
L 37.85 37.55
Q 36.45 37.2 32.65 38.55 28.95 39.85 24.9 42.1 20.45 44.55 17.5 47.05 14.1 49.95 13.5 52.35
L 13.5 52.4 13.45 52.5
Q 13.35 53.1 13.95 53.25 14.55 53.35 14.7 52.75
L 14.7 52.65
Q 15.25 50.55 18.45 47.85 21.25 45.5 25.5 43.15 29.4 41.05 32.85 39.75 36.35 38.5 37.6 38.75
L 37.65 38.75
Q 38.2 38.9 38.4 38.3 38.5 37.65 37.95 37.55 Z"/>
</g>

<g id="Duplicate_Items_Folder_Symbol_1_0_Layer0_17_FILL">
<path fill="#333333" stroke="none" d="
M 19.2 17.15
L 19 23.35 34 23.9 34.2 17.65 19.2 17.15 Z"/>
</g>

<g id="Duplicate_Items_Folder_Symbol_1_0_Layer0_18_FILL">
<path fill="#FFFFFF" stroke="none" d="
M 16.2 69.2
Q 14.1 69.3 14.15 69.9 14.25 70.35 18.15 70.5 22 70.7 21.5 69.9 21.25 69.45 19.15 69.25 17.55 69.1 16.2 69.2 Z"/>
</g>

<g id="Duplicate_Items_Folder_Symbol_1_0_Layer0_19_FILL">
<path fill="#FFFFFF" stroke="none" d="
M 12.75 73.3
Q 10.65 73.4 10.75 74 10.8 74.45 14.7 74.6 18.55 74.8 18.05 74 17.85 73.55 15.7 73.35 14.2 73.2 12.75 73.3 Z"/>
</g>

<g id="Duplicate_Items_Folder_Symbol_1_0_Layer0_20_FILL">
<path fill="#FFFFFF" stroke="none" d="
M 18.5 64.3
Q 16.75 64.45 16.8 65.05 16.8 65.45 20.1 65.65 23.35 65.85 22.95 65.05 22.65 64.55 20.95 64.35 19.7 64.2 18.5 64.3 Z"/>
</g>

<g id="Duplicate_Items_Folder_Symbol_1_0_Layer0_21_FILL">
<path fill="#FFFFFF" stroke="none" d="
M 25.6 2.15
Q 25.55 1.95 25.25 1.95 24.65 1.95 24 2.3 23.2 2.7 23.2 3.2 23.45 3.2 24.45 2.95 25.4 2.7 25.5 2.6 25.7 2.35 25.6 2.15 Z"/>
</g>

<g id="Duplicate_Items_Folder_Symbol_1_0_Layer0_22_FILL">
<path fill="#FFFFFF" stroke="none" d="
M 30.1 13.2
Q 30.25 13.3 30.5 13.15 31 12.85 31.4 12.2 31.85 11.45 31.6 11 31.35 11.15 30.7 11.85 30 12.6 29.95 12.75 29.9 13.05 30.1 13.2 Z"/>
</g>

<g id="Duplicate_Items_Folder_Symbol_1_0_Layer0_23_FILL">
<path fill="#FFFFFF" stroke="none" d="
M 17.95 37.95
Q 17.6 37.75 17.3 37.95 15.95 38.8 15.3 41 14.6 43.35 15.85 44.35 16.7 45.05 17.4 43.7 17.85 42.75 18 41.65 18.2 40.65 18.25 40.15 18.4 39.3 18.35 38.65 18.3 38.15 17.95 37.95 Z"/>
</g>

<g id="Duplicate_Items_Folder_Symbol_1_0_Layer0_24_FILL">
<path fill="#FFFFFF" stroke="none" d="
M 20.4 32.75
Q 20.15 32.95 20.05 32.95
L 19.8 33.2
Q 18.5 34.75 19.35 35.6 20.25 36.5 20.85 35.1 21.4 34 21.5 33.5 21.65 32.6 20.4 32.75 Z"/>
</g>

<g id="Duplicate_Items_Folder_Symbol_1_0_Layer0_25_FILL">
<path fill="#FFFFFF" stroke="none" d="
M 13.15 19.55
L 12.75 19.7
Q 9.6 21.15 10.35 23.35 10.6 24.15 11.2 24.05 11.85 23.95 12.3 22.7 13.6 21.5 14.25 20.75 15.45 19.45 13.15 19.55 Z"/>
</g>

<g id="Symbol_31_0_Layer0_1_FILL">
<path fill="#54472D" stroke="none" d="
M 358.5 -249.35
Q 361.3 -251.8 361.3 -255.15 361.3 -258.55 358.5 -260.95 357.6361328125 -261.7177734375 356.65 -262.25 354.536328125 -263.35 351.85 -263.35 347.95 -263.35 345.15 -260.95 342.45 -258.55 342.45 -255.15 342.45 -251.8 345.15 -249.35 347.95 -246.95 351.85 -246.95 352.72578125 -246.95 353.55 -247.1 354.1453125 -247.16015625 354.7 -247.3 356.8376953125 -247.8724609375 358.5 -249.35 Z"/>

<path fill="#463617" stroke="none" d="
M 364.55 -249.35
Q 367.759765625 -250.726953125 368.3 -253.1 369.16328125 -257.0025390625 364.05 -259.35
L 356.65 -262.25
Q 357.6361328125 -261.7177734375 358.5 -260.95 361.3 -258.55 361.3 -255.15 361.3 -251.8 358.5 -249.35 356.8376953125 -247.8724609375 354.7 -247.3
L 364.55 -249.35 Z"/>
</g>

<path id="Symbol_31_0_Layer0_1_1_STROKES" stroke="#333333" stroke-width="3" stroke-linejoin="round" stroke-linecap="round" fill="none" d="
M 356.65 -262.25
L 364.05 -259.35
Q 369.16328125 -257.0025390625 368.3 -253.1 367.759765625 -250.726953125 364.55 -249.35
L 354.7 -247.3
Q 354.1453125 -247.16015625 353.55 -247.075 352.72578125 -246.95 351.85 -246.95 347.95 -246.95 345.15 -249.35 342.45 -251.8 342.45 -255.15 342.45 -258.55 345.15 -260.95 347.95 -263.35 351.85 -263.35 354.536328125 -263.35 356.65 -262.25 357.6361328125 -261.7177734375 358.5 -260.95 361.3 -258.55 361.3 -255.15 361.3 -251.8 358.5 -249.35 356.8376953125 -247.8724609375 354.7 -247.3"/>
</defs>

<g transform="matrix( 1, 0, 0, 1, 942,326.5) ">
<mask id="Mask_Mask_1">
<g transform="matrix( 1, 0, 0, 1, -960,-337.95) ">
<use xlink:href="#Mask_Symbol_7_4_5_MASK_0_FILL"/>
</g>
</mask>

<g mask="url(#Mask_Mask_1)"/>

<g mask="url(#Mask_Mask_1)"/>

<g mask="url(#Mask_Mask_1)"/>

<g mask="url(#Mask_Mask_1)">
<g transform="matrix( 0.933624267578125, 0, 0, 0.933624267578125, 331.9,-200.3) ">
<g transform="matrix( 1.96466064453125, 0, 0, 1.96466064453125, -0.05,0) ">
<g transform="matrix( 1, 0, 0, 1, -2.35,8.2) ">
<mask id="Mask_Mask_2">
<g transform="matrix( 1, 0, 0, 1, 0,0) ">
<use xlink:href="#Mask_flash0_ai_Assets_Isolation_Mode__Clip_Group__1_0_2_MASK_0_FILL"/>
</g>
</mask>

<g mask="url(#Mask_Mask_2)">
<g transform="matrix( 1, 0, 0, 1, 0,0) ">
<use xlink:href="#flash0_ai_Assets_Isolation_Mode__Clip_Group__1_0_Layer2_0_FILL"/>
</g>
</g>
</g>

<g transform="matrix( 1, 0, 0, 1, -24.65,-39.9) ">
<use xlink:href="#Duplicate_Items_Folder_Symbol_1_0_Layer0_1_FILL"/>
</g>

<g transform="matrix( 1, 0, 0, 1, -24.65,-39.9) ">
<mask id="Mask_Mask_3">
<g transform="matrix( 1, 0, 0, 1, 0,0) ">
<use xlink:href="#Mask_flash0_ai_Assets_Isolation_Mode__Clip_Group__0_2_MASK_0_FILL"/>
</g>
</mask>

<g mask="url(#Mask_Mask_3)">
<g transform="matrix( 1, 0, 0, 1, 0,0) ">
<use xlink:href="#flash0_ai_Assets_Isolation_Mode__Clip_Group__0_Layer2_0_FILL"/>
</g>
</g>
</g>

<g transform="matrix( 1, 0, 0, 1, -24.65,-39.9) ">
<use xlink:href="#Duplicate_Items_Folder_Symbol_1_0_Layer0_3_FILL"/>
</g>

<g transform="matrix( 1, 0, 0, 1, -24.65,-39.9) ">
<use xlink:href="#Duplicate_Items_Folder_Symbol_1_0_Layer0_4_FILL"/>
</g>

<g transform="matrix( 1, 0, 0, 1, -24.65,-39.9) ">
<use xlink:href="#Duplicate_Items_Folder_Symbol_1_0_Layer0_5_FILL"/>
</g>

<g transform="matrix( 1, 0, 0, 1, -24.65,-39.9) ">
<use xlink:href="#Duplicate_Items_Folder_Symbol_1_0_Layer0_6_FILL"/>
</g>

<g transform="matrix( 1, 0, 0, 1, -24.65,-39.9) ">
<use xlink:href="#Duplicate_Items_Folder_Symbol_1_0_Layer0_7_FILL"/>
</g>

<g transform="matrix( 1, 0, 0, 1, -24.65,-39.9) ">
<use xlink:href="#Duplicate_Items_Folder_Symbol_1_0_Layer0_8_FILL"/>
</g>

<g transform="matrix( 1, 0, 0, 1, -24.65,-39.9) ">
<use xlink:href="#Duplicate_Items_Folder_Symbol_1_0_Layer0_9_FILL"/>
</g>

<g transform="matrix( 1, 0, 0, 1, -24.65,-39.9) ">
<use xlink:href="#Duplicate_Items_Folder_Symbol_1_0_Layer0_10_FILL"/>
</g>

<g transform="matrix( 1, 0, 0, 1, -24.65,-39.9) ">
<use xlink:href="#Duplicate_Items_Folder_Symbol_1_0_Layer0_11_FILL"/>
</g>

<g transform="matrix( 1, 0, 0, 1, -24.65,-39.9) ">
<use xlink:href="#Duplicate_Items_Folder_Symbol_1_0_Layer0_12_FILL"/>
</g>

<g transform="matrix( 1, 0, 0, 1, -24.65,-39.9) ">
<use xlink:href="#Duplicate_Items_Folder_Symbol_1_0_Layer0_13_FILL"/>
</g>

<g transform="matrix( 1, 0, 0, 1, -24.65,-39.9) ">
<use xlink:href="#Duplicate_Items_Folder_Symbol_1_0_Layer0_14_FILL"/>
</g>

<g transform="matrix( 1, 0, 0, 1, -24.65,-39.9) ">
<use xlink:href="#Duplicate_Items_Folder_Symbol_1_0_Layer0_15_FILL"/>
</g>

<g transform="matrix( 1, 0, 0, 1, -24.65,-39.9) ">
<use xlink:href="#Duplicate_Items_Folder_Symbol_1_0_Layer0_16_FILL"/>
</g>

<g transform="matrix( 1, 0, 0, 1, -24.65,-39.9) ">
<use xlink:href="#Duplicate_Items_Folder_Symbol_1_0_Layer0_17_FILL"/>
</g>

<g transform="matrix( 1, 0, 0, 1, -24.65,-39.9) ">
<use xlink:href="#Duplicate_Items_Folder_Symbol_1_0_Layer0_18_FILL"/>
</g>

<g transform="matrix( 1, 0, 0, 1, -24.65,-39.9) ">
<use xlink:href="#Duplicate_Items_Folder_Symbol_1_0_Layer0_19_FILL"/>
</g>

<g transform="matrix( 1, 0, 0, 1, -24.65,-39.9) ">
<use xlink:href="#Duplicate_Items_Folder_Symbol_1_0_Layer0_20_FILL"/>
</g>

<g transform="matrix( 1, 0, 0, 1, -24.65,-39.9) ">
<use xlink:href="#Duplicate_Items_Folder_Symbol_1_0_Layer0_21_FILL"/>
</g>

<g transform="matrix( 1, 0, 0, 1, -24.65,-39.9) ">
<use xlink:href="#Duplicate_Items_Folder_Symbol_1_0_Layer0_22_FILL"/>
</g>

<g transform="matrix( 1, 0, 0, 1, -24.65,-39.9) ">
<use xlink:href="#Duplicate_Items_Folder_Symbol_1_0_Layer0_23_FILL"/>
</g>

<g transform="matrix( 1, 0, 0, 1, -24.65,-39.9) ">
<use xlink:href="#Duplicate_Items_Folder_Symbol_1_0_Layer0_24_FILL"/>
</g>

<g transform="matrix( 1, 0, 0, 1, -24.65,-39.9) ">
<use xlink:href="#Duplicate_Items_Folder_Symbol_1_0_Layer0_25_FILL"/>
</g>
</g>

<g transform="matrix( 1, 0, 0, 1, -355.85,187.25) ">
<use xlink:href="#Symbol_31_0_Layer0_1_FILL"/>

<use xlink:href="#Symbol_31_0_Layer0_1_1_STROKES"/>
</g>
</g>
</g>
</g>
</svg>
