
<svg xmlns="http://www.w3.org/2000/svg" version="1.1" xmlns:xlink="http://www.w3.org/1999/xlink" preserveAspectRatio="none" x="0px" y="0px" width="1884px" height="653px" viewBox="0 0 1884 653">
<defs>
<linearGradient id="Gradient_1" gradientUnits="userSpaceOnUse" x1="566.65" y1="327.01250000000005" x2="604.9499999999999" y2="299.1875" spreadMethod="pad">
<stop  offset="0%" stop-color="#9E624F"/>

<stop  offset="100%" stop-color="#B48D66"/>
</linearGradient>

<linearGradient id="Gradient_2" gradientUnits="userSpaceOnUse" x1="563.6750000000001" y1="300.975" x2="609.025" y2="268.025" spreadMethod="pad">
<stop  offset="0%" stop-color="#A55F4D"/>

<stop  offset="100%" stop-color="#85705A"/>
</linearGradient>

<linearGradient id="Gradient_3" gradientUnits="userSpaceOnUse" x1="555.8875" y1="301.33750000000003" x2="620.0125" y2="254.76250000000002" spreadMethod="pad">
<stop  offset="0%" stop-color="#C48878"/>

<stop  offset="100%" stop-color="#D3AE6D"/>
</linearGradient>

<linearGradient id="Gradient_4" gradientUnits="userSpaceOnUse" x1="568.0625" y1="294.2" x2="591.8375000000001" y2="272.8" spreadMethod="pad">
<stop  offset="0%" stop-color="#9F6758"/>

<stop  offset="100%" stop-color="#635344"/>
</linearGradient>

<linearGradient id="Gradient_5" gradientUnits="userSpaceOnUse" x1="85.38749999999993" y1="672.6375" x2="1155.9125" y2="-105.13750000000005" spreadMethod="pad">
<stop  offset="0%" stop-color="#9E624F"/>

<stop  offset="100%" stop-color="#B68860"/>
</linearGradient>

<linearGradient id="Gradient_6" gradientUnits="userSpaceOnUse" x1="437.1875" y1="430" x2="762.0125" y2="194" spreadMethod="pad">
<stop  offset="0%" stop-color="#C39075"/>

<stop  offset="42.35294117647059%" stop-color="#C19374"/>

<stop  offset="100%" stop-color="#BE9972"/>
</linearGradient>

<g id="Mask_Symbol_7_3_5_MASK_0_FILL">
<path fill="#FFFFFF" stroke="none" d="
M 1890 52.4
Q 1890 40.05 1881.25 31.3 1872.5 22.55 1860.15 22.55
L 59.9 22.55
Q 47.55 22.55 38.8 31.3 30.05 40.05 30.05 52.4
L 30.05 623.55
Q 30.05 635.9 38.8 644.65 47.55 653.4 59.9 653.4
L 1860.15 653.4
Q 1872.5 653.4 1881.25 644.65 1890 635.9 1890 623.55
L 1890 52.4 Z"/>
</g>

<g id="Symbol_7_3_Layer2_0_MEMBER_0_MEMBER_0_FILL">
<path fill="url(#Gradient_1)" stroke="none" d="
M 600.5 291.4
Q 593.15 281.45 582.75 281.45 572.4 281.45 565.05 291.4 557.65 301.3 557.65 315.3 557.65 329.3 565.05 339.2 572.4 349.15 582.75 349.15 593.15 349.15 600.5 339.2 607.9 329.3 607.9 315.3 607.9 301.3 600.5 291.4 Z"/>
</g>

<g id="Symbol_7_3_Layer2_0_MEMBER_0_MEMBER_1_FILL">
<path fill="url(#Gradient_2)" stroke="none" d="
M 570.9 290.45
Q 575.85 291.85 582.75 291.85 589.65 291.85 594.6 290.45 599.55 289.05 599.55 287.15 599.55 285.2 594.6 283.85 589.7 282.45 582.75 282.45 575.8 282.45 570.9 283.85 566 285.2 566 287.15 566 289.05 570.9 290.45 Z"/>
</g>

<g id="Symbol_7_3_Layer2_0_MEMBER_0_MEMBER_2_FILL">
<path fill="url(#Gradient_3)" stroke="none" d="
M 567.65 286.35
Q 573.95 288.25 582.75 288.25 591.6 288.25 597.9 286.35 604.15 284.45 604.15 281.8 604.15 279.1 597.9 277.2 591.6 275.3 582.75 275.3 573.95 275.3 567.65 277.2 561.4 279.1 561.4 281.8 561.4 284.45 567.65 286.35 Z"/>
</g>

<g id="Symbol_7_3_Layer2_0_MEMBER_0_MEMBER_3_FILL">
<path fill="url(#Gradient_4)" stroke="none" d="
M 573 283.75
Q 577 284.9 582.85 284.9 588.65 284.9 592.65 283.75 596.75 282.6 596.75 280.9 596.75 279.2 592.8 278.15 589 277.15 583.1 277.15 577.1 277.15 573.1 278.15 568.9 279.2 568.9 280.9 568.9 282.6 573 283.75 Z"/>
</g>

<g id="Symbol_7_3_Layer2_0_MEMBER_1_FILL">
<path fill="url(#Gradient_5)" stroke="none" d="
M 569.45 290.25
Q 568.65 291.3 567.5 293.1 565.2 296.75 563.55 300.6 558.2 313 561.05 323.1 564 333.5 571.15 339.65 575.9 343.75 579.5 344.3 580.1 344.4 577.9 341.85 574.35 337.65 572.4 335 564.05 323.4 565.95 315 567.9 306.3 569 300.9
L 569.7 297.25 571.7 299
Q 574.2 301.05 576.7 302.35 584.85 306.6 590.45 302.25 596 297.95 597.1 295.8 597.65 294.75 597.05 294.55 596.75 293.9 596.1 293.2 594.7 291.85 592.75 291.85 589.2 292.05 586.9 292.15 582.6 292.35 579.05 291.85 575.45 291.4 572.1 290.75
L 569.45 290.25 Z"/>
</g>

<g id="Symbol_7_3_Layer2_0_MEMBER_2_FILL">
<path fill="url(#Gradient_6)" stroke="none" d="
M 598.9 291.05
L 598.2 295.45
Q 596.8 300.1 593.3 301.25 592.95 305.8 594.95 310.25 595.95 312.45 597.05 313.85 598.85 317.5 598 326.85 597.6 331.5 596.8 335.45 597.7 333.2 598.1 332.75 599.2 331.45 602.65 325.1 607.55 316.25 603.7 302.75 602.5 298.55 600.6 294.35
L 598.9 291.05 Z"/>
</g>

<path id="Symbol_7_3_Layer2_0_MEMBER_0_MEMBER_0_1_STROKES" stroke="#85705A" stroke-width="1" stroke-linejoin="miter" stroke-linecap="butt" stroke-miterlimit="2" fill="none" d="
M 296.67432403564453 207.42012481689449
Q 318.19129180908203 207.42012481689449 333.3979949951172 186.83417968749995 348.70814514160156 166.35168151855464 348.70814514160156 137.3865325927734 348.70814514160156 108.42138366699214 333.3979949951172 87.93888549804683 318.19129180908203 67.3529403686523 296.67432403564453 67.3529403686523 275.26080322265625 67.3529403686523 260.0541000366211 87.93888549804683 244.74394989013672 108.42138366699214 244.74394989013672 137.3865325927734 244.74394989013672 166.35168151855464 260.0541000366211 186.83417968749995 275.26080322265625 207.42012481689449 296.67432403564453 207.42012481689449 Z"/>

<path id="Symbol_7_3_Layer2_0_MEMBER_0_MEMBER_1_1_STROKES" stroke="#85705A" stroke-width="1" stroke-linejoin="miter" stroke-linecap="butt" stroke-miterlimit="2" fill="none" d="
M 296.67432403564453 88.8699081420898
Q 310.9500045776367 88.8699081420898 321.1912536621094 85.97339324951167 331.43250274658203 83.07687835693355 331.43250274658203 79.14589385986324 331.43250274658203 75.1114624023437 321.1912536621094 72.3183944702148 311.05345153808594 69.42187957763667 296.67432403564453 69.42187957763667 282.2951965332031 69.42187957763667 272.1573944091797 72.3183944702148 262.01959228515625 75.1114624023437 262.01959228515625 79.14589385986324 262.01959228515625 83.07687835693355 272.1573944091797 85.97339324951167 282.39864349365234 88.8699081420898 296.67432403564453 88.8699081420898 Z"/>

<path id="Symbol_7_3_Layer2_0_MEMBER_0_MEMBER_2_1_STROKES" stroke="#85705A" stroke-width="1" stroke-linejoin="miter" stroke-linecap="butt" stroke-miterlimit="2" fill="none" d="
M 296.67432403564453 81.42172698974605
Q 314.98443603515625 81.42172698974605 328.0187530517578 77.49074249267574 340.94962310791016 73.55975799560542 340.94962310791016 68.07706909179683 340.94962310791016 62.49093322753902 328.0187530517578 58.559948730468705 314.98443603515625 54.62896423339839 296.67432403564453 54.62896423339839 278.46765899658203 54.62896423339839 265.43334197998047 58.559948730468705 252.50247192382812 62.49093322753902 252.50247192382812 68.07706909179683 252.50247192382812 73.55975799560542 265.43334197998047 77.49074249267574 278.46765899658203 81.42172698974605 296.67432403564453 81.42172698974605 Z"/>

<path id="Symbol_7_3_Layer2_0_MEMBER_0_MEMBER_3_1_STROKES" stroke="#85705A" stroke-width="1" stroke-linejoin="miter" stroke-linecap="butt" stroke-miterlimit="2" fill="none" d="
M 296.88121795654297 74.49078063964839
Q 308.88106536865234 74.49078063964839 317.15682220458984 72.11150054931636 325.6394729614258 69.73222045898433 325.6394729614258 66.21502380371089 325.6394729614258 62.697827148437455 317.4671630859375 60.52544097900386 309.6051940917969 58.456501770019486 297.39845275878906 58.456501770019486 284.9848175048828 58.456501770019486 276.7090606689453 60.52544097900386 268.01951599121094 62.697827148437455 268.01951599121094 66.21502380371089 268.01951599121094 69.73222045898433 276.5021667480469 72.11150054931636 284.7779235839844 74.49078063964839 296.88121795654297 74.49078063964839 Z"/>
</defs>

<g transform="matrix( 1, 0, 0, 1, 942,326.5) ">
<mask id="Mask_Mask_1">
<g transform="matrix( 1, 0, 0, 1, -960,-337.95) ">
<use xlink:href="#Mask_Symbol_7_3_5_MASK_0_FILL"/>
</g>
</mask>

<g mask="url(#Mask_Mask_1)"/>

<g mask="url(#Mask_Mask_1)"/>

<g mask="url(#Mask_Mask_1)"/>

<g mask="url(#Mask_Mask_1)">
<g transform="matrix( 2.068939208984375, 0, 0, 2.068939208984375, -909,-514.95) ">
<use xlink:href="#Symbol_7_3_Layer2_0_MEMBER_0_MEMBER_0_FILL"/>

<use xlink:href="#Symbol_7_3_Layer2_0_MEMBER_0_MEMBER_0_1_STROKES" transform="matrix( 0.48333740234375, 0, 0, 0.48333740234375, 439.35,248.9) "/>
</g>

<g transform="matrix( 2.068939208984375, 0, 0, 2.068939208984375, -909,-514.95) ">
<use xlink:href="#Symbol_7_3_Layer2_0_MEMBER_0_MEMBER_1_FILL"/>

<use xlink:href="#Symbol_7_3_Layer2_0_MEMBER_0_MEMBER_1_1_STROKES" transform="matrix( 0.48333740234375, 0, 0, 0.48333740234375, 439.35,248.9) "/>
</g>

<g transform="matrix( 2.068939208984375, 0, 0, 2.068939208984375, -909,-514.95) ">
<use xlink:href="#Symbol_7_3_Layer2_0_MEMBER_0_MEMBER_2_FILL"/>

<use xlink:href="#Symbol_7_3_Layer2_0_MEMBER_0_MEMBER_2_1_STROKES" transform="matrix( 0.48333740234375, 0, 0, 0.48333740234375, 439.35,248.9) "/>
</g>

<g transform="matrix( 2.068939208984375, 0, 0, 2.068939208984375, -909,-514.95) ">
<use xlink:href="#Symbol_7_3_Layer2_0_MEMBER_0_MEMBER_3_FILL"/>

<use xlink:href="#Symbol_7_3_Layer2_0_MEMBER_0_MEMBER_3_1_STROKES" transform="matrix( 0.48333740234375, 0, 0, 0.48333740234375, 439.35,248.9) "/>
</g>

<g transform="matrix( 2.068939208984375, 0, 0, 2.068939208984375, -909,-514.95) ">
<use xlink:href="#Symbol_7_3_Layer2_0_MEMBER_1_FILL"/>
</g>

<g transform="matrix( 2.068939208984375, 0, 0, 2.068939208984375, -909,-514.95) ">
<use xlink:href="#Symbol_7_3_Layer2_0_MEMBER_2_FILL"/>
</g>
</g>
</g>
</svg>
