
<svg xmlns="http://www.w3.org/2000/svg" version="1.1" xmlns:xlink="http://www.w3.org/1999/xlink" preserveAspectRatio="none" x="0px" y="0px" width="690px" height="549px" viewBox="0 0 690 549">
<defs>
<g id="Symbol_1_0_Layer2_0_FILL">
<path fill="#000000" fill-opacity="0.4" stroke="none" d="
M 33.85 -8.6
L 27.95 -11.5 27.95 -23.85 46.25 -23.85 46.25 -29.75 -38.7 -29.75 -38.7 -23.85 -23.6 -23.7
Q -24.9 -22.9 -25.85 -21.55
L -27.85 -18.8 -29.2 -15.2
Q -29.2 -14.35 -29.2 -11.35 -29.2 -4.65 -22.55 0.3
L -21.4 1.25 -15.9 3.65
Q -23.6 10.05 -23.6 19.65 -23.6 29.15 -17.55 34.7 -11.5 40.25 -1.55 40.25 5.65 40.25 13.1 37.5 29.7 31.35 36.2 18.2 38.1 14.45 38.8 11.15 39.5 7.85 39.5 3.65 39.5 -4.25 33.85 -8.6
M 18.7 -2.7
Q 21.2 -5.7 24.5 -5.7 31.35 -5.7 32.05 0.3
L 32.45 3.65
Q 32.45 5.95 32.2 7.55 31.9 9.25 31.45 10.8 29 17 27.4 19.05
L 25.65 21.2 24.8 21.9 22.35 19.3 20.8 17
Q 18.8 13.95 17.9 11.45 17.05 8.85 16.9 7.65 16.8 6.5 16.8 4.2
L 17.2 0.45 18.7 -2.7
M 20.65 -23.85
L 20.65 -11.05 15.15 -8.2
Q 9.95 -3.55 9.95 3.65
L 10.65 9.7 13 16.05 16.15 21.85 19.75 26.15 13.55 30.65
Q 7.05 34.9 -0.75 34.9 -6.65 34.9 -11.9 30.3 -16.55 25.3 -16.55 19.1 -16.55 13.05 -11.85 8.7 -7.15 4.4 -1.1 4.4
L 0.55 4.4 1.1 4.55 1.5 4.4 -1.2 -1.1 -2.05 -0.65 -10.95 -0.65
Q -14.1 -1.2 -17.1 -3.25 -21.9 -7.55 -21.9 -11.9
L -21.35 -14.8 -19.55 -18.25
Q -16.7 -23.85 -14.25 -23.85
L 20.65 -23.85 Z"/>
</g>

<g id="Symbol_1_0_Layer1_0_FILL">
<path fill="#000000" stroke="none" d="
M 35.75 -0.1
Q 35.75 -8 30.1 -12.35
L 24.2 -15.25 24.2 -27.6 42.5 -27.6 42.5 -33.5 -42.45 -33.5 -42.45 -27.6 -27.35 -27.45
Q -28.65 -26.65 -29.6 -25.3
L -31.6 -22.55 -32.95 -18.95
Q -32.95 -18.1 -32.95 -15.1 -32.95 -8.4 -26.3 -3.45
L -25.15 -2.5 -19.65 -0.1
Q -27.35 6.3 -27.35 15.9 -27.35 25.4 -21.3 30.95 -15.25 36.5 -5.3 36.5 1.9 36.5 9.35 33.75 25.95 27.6 32.45 14.45 34.35 10.7 35.05 7.4 35.75 4.1 35.75 -0.1
M 11.4 -11.95
Q 6.2 -7.3 6.2 -0.1
L 6.9 5.95 9.25 12.3 12.4 18.1 16 22.4 9.8 26.9
Q 3.3 31.15 -4.5 31.15 -10.4 31.15 -15.65 26.55 -20.3 21.55 -20.3 15.35 -20.3 9.3 -15.6 4.95 -10.9 0.65 -4.85 0.65
L -3.2 0.65 -2.65 0.8 -2.25 0.65 -4.95 -4.85 -5.8 -4.4 -14.7 -4.4
Q -17.85 -4.95 -20.85 -7 -25.65 -11.3 -25.65 -15.65
L -25.1 -18.55 -23.3 -22
Q -20.45 -27.6 -18 -27.6
L 16.9 -27.6 16.9 -14.8 11.4 -11.95
M 13.45 -3.3
L 14.95 -6.45
Q 17.45 -9.45 20.75 -9.45 27.6 -9.45 28.3 -3.45
L 28.7 -0.1
Q 28.7 2.2 28.45 3.8 28.15 5.5 27.7 7.05 25.25 13.25 23.65 15.3
L 21.9 17.45 21.05 18.15 18.6 15.55 17.05 13.25
Q 15.05 10.2 14.15 7.7 13.3 5.1 13.15 3.9 13.05 2.75 13.05 0.45
L 13.45 -3.3 Z"/>
</g>

<g id="Symbol_1_2_Layer2_0_FILL">
<path fill="#000000" fill-opacity="0.4" stroke="none" d="
M 28.95 -23.05
L 28.95 -4.1 25.65 -4.1 18.75 -1.85 12.85 2.25 11.6 3.3
Q 11.45 2.3 10.1 1.4
L 6.25 -1.6
Q 3.35 -3.85 -0.25 -4.8 -2.85 -5.75 -4.5 -5.85 -6.3 -5.9 -7.55 -5.9 -16.9 -5.9 -22.8 -0.35 -28.7 5.2 -28.7 14 -28.7 24.2 -20 33.4 -7.9 45.9 -0.6 45.9
L 3 39.85 -4.3 36.4 -9.3 33.25
Q -21.7 25.3 -21.7 14.55 -21.7 9.5 -17.8 4.45 -15.35 2.2 -13.5 1.35 -11.75 0.55 -10.9 0.4 -10.15 0.3 -8.2 0.3
L -3.7 1 1.25 3
Q 6.65 5.35 7.55 8.1
L 6.65 10.2 2.8 16.5 2.8 18.3 9 21.85 10.1 18.55 14.45 10.9 16.85 8 20.8 4.85 25.2 2.75 28.95 1.7 28.95 45.35 36.45 45.35 36.45 -23.05 48.4 -23.05 48.4 -28.95 -39.4 -28.95 -39.4 -23.05 28.95 -23.05 Z"/>
</g>

<g id="Symbol_1_2_Layer1_0_FILL">
<path fill="#000000" stroke="none" d="
M 25.2 -26.8
L 25.2 -7.85 21.9 -7.85 15 -5.6 7.85 -0.45
Q 7.7 -1.45 6.35 -2.35
L 2.5 -5.35
Q -0.4 -7.6 -4 -8.55 -6.6 -9.5 -8.25 -9.6 -10.05 -9.65 -11.3 -9.65 -20.65 -9.65 -26.55 -4.1 -32.45 1.45 -32.45 10.25 -32.45 20.45 -23.75 29.65 -11.65 42.15 -4.35 42.15
L -0.75 36.1 -8.05 32.65 -13.05 29.5
Q -25.45 21.55 -25.45 10.8 -25.45 5.75 -21.55 0.7 -19.1 -1.55 -17.25 -2.4 -15.5 -3.2 -14.65 -3.35 -13.9 -3.45 -11.95 -3.45
L -7.45 -2.75 -2.5 -0.75
Q 2.9 1.6 3.8 4.35
L 2.9 6.45 -0.95 12.75 -0.95 14.55 5.25 18.1 6.35 14.8 10.7 7.15 13.1 4.25 17.05 1.1 21.45 -1 25.2 -2.05 25.2 41.6 32.7 41.6 32.7 -26.8 44.65 -26.8 44.65 -32.7 -43.15 -32.7 -43.15 -26.8 25.2 -26.8 Z"/>
</g>

<g id="Symbol_1_4_Layer2_0_FILL">
<path fill="#000000" fill-opacity="0.4" stroke="none" d="
M 14.2 -24.6
L 26.25 -24.6 26.25 -30.4 12.55 -30.4 7.45 -39.45 3.2 -45.9
Q -1.35 -52.95 -8.2 -57.6 -13.75 -61.45 -18.8 -61.45 -30.6 -61.45 -34.85 -49.2 -35.8 -46.35 -35.95 -45.35 -36.1 -44.3 -36.1 -42.2
L -36.1 -38.9 -35.05 -35.7 -33.55 -32.85 -31.8 -30.5 -23.3 -30.4 -24.3 -31.8 -26.1 -35.45
Q -26.6 -36.3 -26.95 -37.35 -27.3 -38.45 -27.8 -40 -28.3 -41.65 -28.3 -43.45
L -28.3 -46.2
Q -27.15 -50.2 -25.85 -52.25 -23.25 -55.85 -18.6 -55.85 -13.4 -55.85 -6.5 -47.75 5.1 -34.45 5.1 -30.95
L 4.95 -30.4 -6 -30.4 -6 -24.6 6.65 -24.6 6.65 43.8 14.2 43.8 14.2 -24.6 Z"/>
</g>

<g id="Symbol_1_4_Layer1_0_FILL">
<path fill="#000000" stroke="none" d="
M 9.7 -28.35
L 21.75 -28.35 21.75 -34.15 8.05 -34.15 2.95 -43.2 -1.3 -49.65
Q -5.85 -56.7 -12.7 -61.35 -18.25 -65.2 -23.3 -65.2 -35.1 -65.2 -39.35 -52.95 -40.3 -50.1 -40.45 -49.1 -40.6 -48.05 -40.6 -45.95
L -40.6 -42.65 -39.55 -39.45 -38.05 -36.6 -36.3 -34.25 -27.8 -34.15 -28.8 -35.55 -30.6 -39.2
Q -31.1 -40.05 -31.45 -41.1 -31.8 -42.2 -32.3 -43.75 -32.8 -45.4 -32.8 -47.2
L -32.8 -49.95
Q -31.65 -53.95 -30.35 -56 -27.75 -59.6 -23.1 -59.6 -17.9 -59.6 -11 -51.5 0.6 -38.2 0.6 -34.7
L 0.45 -34.15 -10.5 -34.15 -10.5 -28.35 2.15 -28.35 2.15 40.05 9.7 40.05 9.7 -28.35 Z"/>
</g>

<g id="Symbol_1_1_Layer2_0_FILL">
<path fill="#000000" fill-opacity="0.4" stroke="none" d="
M 20.95 -21.5
L 35.75 -21.5 35.75 -27.4 -35.1 -27.4 -35.1 -21.5 13.6 -21.5 13.6 -5.5 -6.4 -5.5
Q -13.95 -5.5 -19.65 -0.05 -25.35 5.35 -25.35 13.35 -25.35 25.15 -15.7 34.15 -6 43.15 7.1 43.15 16.45 43.15 24.25 37.55 28.65 34.25 31.55 29.45
L 25.35 26 21.5 30.95
Q 15.15 37.25 5.95 37.25 -3.8 37.25 -10.8 29.9 -17.65 22.45 -17.65 13.9 -17.65 10.75 -16.8 9.05 -14.2 3.85 -10 1.95 -8.45 1.25 -7.6 1.05 -6.7 0.85 -4.75 0.85
L 20.95 0.85 20.95 -21.5 Z"/>
</g>

<g id="Symbol_1_1_Layer1_0_FILL">
<path fill="#000000" stroke="none" d="
M 17.2 -25.25
L 32 -25.25 32 -31.15 -38.85 -31.15 -38.85 -25.25 9.85 -25.25 9.85 -9.25 -10.15 -9.25
Q -17.7 -9.25 -23.4 -3.8 -29.1 1.6 -29.1 9.6 -29.1 21.4 -19.45 30.4 -9.75 39.4 3.35 39.4 12.7 39.4 20.5 33.8 24.9 30.5 27.8 25.7
L 21.6 22.25 17.75 27.2
Q 11.4 33.5 2.2 33.5 -7.55 33.5 -14.55 26.15 -21.4 18.7 -21.4 10.15 -21.4 7 -20.55 5.3 -17.95 0.1 -13.75 -1.8 -12.2 -2.5 -11.35 -2.7 -10.45 -2.9 -8.5 -2.9
L 17.2 -2.9 17.2 -25.25 Z"/>
</g>

<g id="Symbol_1_3_Layer2_0_FILL">
<path fill="#000000" fill-opacity="0.4" stroke="none" d="
M 28.35 -38.5
Q 34.15 -36.6 38.65 -33.55
L 50.6 -25.35
Q 53.1 -23.45 55.7 -20.85
L 62.8 -14.2 72.45 -14.1 63.95 -22.6 53.6 -31.25
Q 49.15 -34.8 43.55 -38.25 29.9 -46.65 19 -46.65 14.35 -46.65 9.95 -45 3.75 -42.4 -0.1 -37.05 -2.15 -34.35 -2.8 -31.75 -3.4 -29.15 -3.4 -25.2
L -3.4 -22.95 -1.6 -15.4 -1.15 -14.1 -14.25 -14.1 -14.25 -8.3 -1.6 -8.3 -1.6 60.1 6.05 60.1 6.05 -8.3 18.3 -8.3 18.3 -14.1 6.05 -14.1 5.35 -15.2 3.45 -21.25 3.45 -24.15
Q 3.45 -27.35 4.45 -30.95 7.5 -37.55 12.7 -39.3 15 -40.45 18.45 -40.45 22.6 -40.45 28.35 -38.5 Z"/>
</g>

<g id="Symbol_1_3_Layer1_0_FILL">
<path fill="#000000" stroke="none" d="
M 2.3 -12.05
L 14.55 -12.05 14.55 -17.85 2.3 -17.85 1.6 -18.95 -0.3 -25 -0.3 -27.9
Q -0.3 -31.1 0.7 -34.7 3.75 -41.3 8.95 -43.05 11.25 -44.2 14.7 -44.2 18.85 -44.2 24.6 -42.25 30.4 -40.35 34.9 -37.3
L 46.85 -29.1
Q 49.35 -27.2 51.95 -24.6
L 59.05 -17.95 68.7 -17.85 60.2 -26.35 49.85 -35
Q 45.4 -38.55 39.8 -42 26.15 -50.4 15.25 -50.4 10.6 -50.4 6.2 -48.75 0 -46.15 -3.85 -40.8 -5.9 -38.1 -6.55 -35.5 -7.15 -32.9 -7.15 -28.95
L -7.15 -26.7 -5.35 -19.15 -4.9 -17.85 -18 -17.85 -18 -12.05 -5.35 -12.05 -5.35 56.35 2.3 56.35 2.3 -12.05 Z"/>
</g>

<path id="Blank_P1_0_Layer0_0_1_STROKES" stroke="#000000" stroke-width="2" stroke-linejoin="round" stroke-linecap="round" fill="none" d="
M 65.4 26.55
Q 65.4 122 3.45 191.8 15.8 95.05 -65.4 0.65 -29.8 -129.95 -60.5 -191.8 -32.65 -175.5 -8.15 -151 65.4 -77.45 65.4 26.55 Z"/>

<path id="Symbol_1_0_Layer1_0_1_STROKES" stroke="#FFFFFF" stroke-width="1" stroke-linejoin="round" stroke-linecap="round" fill="none" d="
M 16.9 -27.6
L -18 -27.6
Q -20.45 -27.6 -23.3 -22
L -25.1 -18.55 -25.65 -15.65
Q -25.65 -11.3 -20.85 -7 -17.85 -4.95 -14.7 -4.4
L -5.8 -4.4 -4.95 -4.85 -2.25 0.65 -2.65 0.8 -3.2 0.65 -4.85 0.65
Q -10.9 0.65 -15.6 4.95 -20.3 9.3 -20.3 15.35 -20.3 21.55 -15.65 26.55 -10.4 31.15 -4.5 31.15 3.3 31.15 9.8 26.9
L 16 22.4 12.4 18.1 9.25 12.3 6.9 5.95 6.2 -0.1
Q 6.2 -7.3 11.4 -11.95
L 16.9 -14.8 16.9 -27.6 Z
M 28.3 -3.45
Q 27.6 -9.45 20.75 -9.45 17.45 -9.45 14.95 -6.45
L 13.45 -3.3 13.05 0.45
Q 13.05 2.75 13.15 3.9 13.3 5.1 14.15 7.7 15.05 10.2 17.05 13.25
L 18.6 15.55 21.05 18.15 21.9 17.45 23.65 15.3
Q 25.25 13.25 27.7 7.05 28.15 5.5 28.45 3.8 28.7 2.2 28.7 -0.1
L 28.3 -3.45 Z
M 24.2 -27.6
L 24.2 -15.25 30.1 -12.35
Q 35.75 -8 35.75 -0.1 35.75 4.1 35.05 7.4 34.35 10.7 32.45 14.45 25.95 27.6 9.35 33.75 1.9 36.5 -5.3 36.5 -15.25 36.5 -21.3 30.95 -27.35 25.4 -27.35 15.9 -27.35 6.3 -19.65 -0.1
L -25.15 -2.5 -26.3 -3.45
Q -32.95 -8.4 -32.95 -15.1 -32.95 -18.1 -32.95 -18.95
L -31.6 -22.55 -29.6 -25.3
Q -28.65 -26.65 -27.35 -27.45
L -42.45 -27.6 -42.45 -33.5 42.5 -33.5 42.5 -27.6 24.2 -27.6 Z"/>

<path id="Blank_P2_0_Layer0_0_1_STROKES" stroke="#000000" stroke-width="2" stroke-linejoin="round" stroke-linecap="round" fill="none" d="
M 107.8 64.95
Q 34.3 138.5 -69.7 138.5 -96.4 138.5 -121.05 133.65 25.5 46.1 50.55 -138.45 131.75 -44.05 119.4 52.7 113.85 58.9 107.8 64.95 Z"/>

<path id="Symbol_1_2_Layer1_0_1_STROKES" stroke="#FFFFFF" stroke-width="1" stroke-linejoin="round" stroke-linecap="round" fill="none" d="
M 25.2 -2.05
L 21.45 -1 17.05 1.1 13.1 4.25 10.7 7.15 6.35 14.8 5.25 18.1 -0.95 14.55 -0.95 12.75 2.9 6.45 3.8 4.35
Q 2.9 1.6 -2.5 -0.75
L -7.45 -2.75 -11.95 -3.45
Q -13.9 -3.45 -14.65 -3.35 -15.5 -3.2 -17.25 -2.4 -19.1 -1.55 -21.55 0.7 -25.45 5.75 -25.45 10.8 -25.45 21.55 -13.05 29.5
L -8.05 32.65 -0.75 36.1 -4.35 42.15
Q -11.65 42.15 -23.75 29.65 -32.45 20.45 -32.45 10.25 -32.45 1.45 -26.55 -4.1 -20.65 -9.65 -11.3 -9.65 -10.05 -9.65 -8.25 -9.6 -6.6 -9.5 -4 -8.55 -0.4 -7.6 2.5 -5.35
L 6.35 -2.35
Q 7.7 -1.45 7.85 -0.45
L 15 -5.6 21.9 -7.85 25.2 -7.85 25.2 -26.8 -43.15 -26.8 -43.15 -32.7 44.65 -32.7 44.65 -26.8 32.7 -26.8 32.7 41.6 25.2 41.6 25.2 -2.05 Z"/>

<path id="Blank_P3_0_Layer0_0_1_STROKES" stroke="#000000" stroke-width="2" stroke-linejoin="round" stroke-linecap="round" fill="none" d="
M -114.6 67.35
Q -169.2 12.7 -183.2 -58.75 -12.75 -42.65 183.2 -136.05 158.15 48.5 11.6 136.05 -59.9 122.05 -114.6 67.35 Z"/>

<path id="Symbol_1_4_Layer1_0_1_STROKES" stroke="#FFFFFF" stroke-width="1" stroke-linejoin="round" stroke-linecap="round" fill="none" d="
M 9.7 -28.35
L 9.7 40.05 2.15 40.05 2.15 -28.35 -10.5 -28.35 -10.5 -34.15 0.45 -34.15 0.6 -34.7
Q 0.6 -38.2 -11 -51.5 -17.9 -59.6 -23.1 -59.6 -27.75 -59.6 -30.35 -56 -31.65 -53.95 -32.8 -49.95
L -32.8 -47.2
Q -32.8 -45.4 -32.3 -43.75 -31.8 -42.2 -31.45 -41.1 -31.1 -40.05 -30.6 -39.2
L -28.8 -35.55 -27.8 -34.15 -36.3 -34.25 -38.05 -36.6 -39.55 -39.45 -40.6 -42.65 -40.6 -45.95
Q -40.6 -48.05 -40.45 -49.1 -40.3 -50.1 -39.35 -52.95 -35.1 -65.2 -23.3 -65.2 -18.25 -65.2 -12.7 -61.35 -5.85 -56.7 -1.3 -49.65
L 2.95 -43.2 8.05 -34.15 21.75 -34.15 21.75 -28.35 9.7 -28.35 Z"/>

<path id="Blank_P4_0_Layer0_0_1_STROKES" stroke="#000000" stroke-width="2" stroke-linejoin="round" stroke-linecap="round" fill="none" d="
M -185.6 68
Q -185.6 -36 -112.15 -109.55 -105.75 -115.95 -99.15 -121.75 75.25 -106.05 185.65 42.1 -10.3 135.5 -180.75 119.4 -185.6 94.7 -185.6 68 Z"/>

<path id="Symbol_1_1_Layer1_0_1_STROKES" stroke="#FFFFFF" stroke-width="1" stroke-linejoin="round" stroke-linecap="round" fill="none" d="
M 17.2 -25.25
L 17.2 -2.9 -8.5 -2.9
Q -10.45 -2.9 -11.35 -2.7 -12.2 -2.5 -13.75 -1.8 -17.95 0.1 -20.55 5.3 -21.4 7 -21.4 10.15 -21.4 18.7 -14.55 26.15 -7.55 33.5 2.2 33.5 11.4 33.5 17.75 27.2
L 21.6 22.25 27.8 25.7
Q 24.9 30.5 20.5 33.8 12.7 39.4 3.35 39.4 -9.75 39.4 -19.45 30.4 -29.1 21.4 -29.1 9.6 -29.1 1.6 -23.4 -3.8 -17.7 -9.25 -10.15 -9.25
L 9.85 -9.25 9.85 -25.25 -38.85 -25.25 -38.85 -31.15 32 -31.15 32 -25.25 17.2 -25.25 Z"/>

<path id="Blank_P5_0_Layer0_0_1_STROKES" stroke="#000000" stroke-width="2" stroke-linejoin="round" stroke-linecap="round" fill="none" d="
M 12.6 -112.55
Q 81.95 -112.55 137.75 -79.85 168.45 -18 132.85 112.6 22.45 -35.55 -151.95 -51.25 -82.35 -112.55 12.6 -112.55 Z"/>

<path id="Symbol_1_3_Layer1_0_1_STROKES" stroke="#FFFFFF" stroke-width="1" stroke-linejoin="round" stroke-linecap="round" fill="none" d="
M 59.05 -17.95
L 51.95 -24.6
Q 49.35 -27.2 46.85 -29.1
L 34.9 -37.3
Q 30.4 -40.35 24.6 -42.25 18.85 -44.2 14.7 -44.2 11.25 -44.2 8.95 -43.05 3.75 -41.3 0.7 -34.7 -0.3 -31.1 -0.3 -27.9
L -0.3 -25 1.6 -18.95 2.3 -17.85 14.55 -17.85 14.55 -12.05 2.3 -12.05 2.3 56.35 -5.35 56.35 -5.35 -12.05 -18 -12.05 -18 -17.85 -4.9 -17.85 -5.35 -19.15 -7.15 -26.7 -7.15 -28.95
Q -7.15 -32.9 -6.55 -35.5 -5.9 -38.1 -3.85 -40.8 0 -46.15 6.2 -48.75 10.6 -50.4 15.25 -50.4 26.15 -50.4 39.8 -42 45.4 -38.55 49.85 -35
L 60.2 -26.35 68.7 -17.85 59.05 -17.95 Z"/>
</defs>

<g transform="matrix( 1, 0, 0, 1, 530.65,247.95) ">
<g transform="matrix( 1, 0, 0, 1, 0,0) ">
<use xlink:href="#Blank_P1_0_Layer0_0_1_STROKES"/>
</g>

<g transform="matrix( 1, 0, 0, 1, -0.25,-6.65) ">
<g transform="matrix( 1, 0, 0, 1, 0,0) ">
<use xlink:href="#Symbol_1_0_Layer2_0_FILL"/>
</g>

<g transform="matrix( 1, 0, 0, 1, 0,0) ">
<use xlink:href="#Symbol_1_0_Layer1_0_FILL"/>

<use xlink:href="#Symbol_1_0_Layer1_0_1_STROKES"/>
</g>
</g>
</g>

<g transform="matrix( 1, 0, 0, 1, 414.7,387.05) ">
<g transform="matrix( 1, 0, 0, 1, 0,0) ">
<use xlink:href="#Blank_P2_0_Layer0_0_1_STROKES"/>
</g>

<g transform="matrix( 1, 0, 0, 1, 64.3,18.6) ">
<g transform="matrix( 1, 0, 0, 1, 0,0) ">
<use xlink:href="#Symbol_1_2_Layer2_0_FILL"/>
</g>

<g transform="matrix( 1, 0, 0, 1, 0,0) ">
<use xlink:href="#Symbol_1_2_Layer1_0_FILL"/>

<use xlink:href="#Symbol_1_2_Layer1_0_1_STROKES"/>
</g>
</g>
</g>

<g transform="matrix( 1, 0, 0, 1, 282.05,384.65) ">
<g transform="matrix( 1, 0, 0, 1, 0,0) ">
<use xlink:href="#Blank_P3_0_Layer0_0_1_STROKES"/>
</g>

<g transform="matrix( 1, 0, 0, 1, 32.5,14.75) ">
<g transform="matrix( 1, 0, 0, 1, 0,0) ">
<use xlink:href="#Symbol_1_4_Layer2_0_FILL"/>
</g>

<g transform="matrix( 1, 0, 0, 1, 0,0) ">
<use xlink:href="#Symbol_1_4_Layer1_0_FILL"/>

<use xlink:href="#Symbol_1_4_Layer1_0_1_STROKES"/>
</g>
</g>
</g>

<g transform="matrix( 1, 0, 0, 1, 279.6,206.5) ">
<g transform="matrix( 1, 0, 0, 1, 0,0) ">
<use xlink:href="#Blank_P4_0_Layer0_0_1_STROKES"/>
</g>

<g transform="matrix( 1, 0, 0, 1, -23.15,8.35) ">
<g transform="matrix( 1, 0, 0, 1, 0,0) ">
<use xlink:href="#Symbol_1_1_Layer2_0_FILL"/>
</g>

<g transform="matrix( 1, 0, 0, 1, 0,0) ">
<use xlink:href="#Symbol_1_1_Layer1_0_FILL"/>

<use xlink:href="#Symbol_1_1_Layer1_0_1_STROKES"/>
</g>
</g>
</g>

<g transform="matrix( 1, 0, 0, 1, 332.4,136) ">
<g transform="matrix( 1, 0, 0, 1, 0,0) ">
<use xlink:href="#Blank_P5_0_Layer0_0_1_STROKES"/>
</g>

<g transform="matrix( 1, 0, 0, 1, 60.3,-39.55) ">
<g transform="matrix( 1, 0, 0, 1, 0,0) ">
<use xlink:href="#Symbol_1_3_Layer2_0_FILL"/>
</g>

<g transform="matrix( 1, 0, 0, 1, 0,0) ">
<use xlink:href="#Symbol_1_3_Layer1_0_FILL"/>

<use xlink:href="#Symbol_1_3_Layer1_0_1_STROKES"/>
</g>
</g>
</g>
</svg>
