
<svg xmlns="http://www.w3.org/2000/svg" version="1.1" xmlns:xlink="http://www.w3.org/1999/xlink" preserveAspectRatio="none" x="0px" y="0px" width="1920px" height="1080px" viewBox="0 0 1920 1080">
<defs>
<g id="Symbol_1_13_Layer1_0_FILL">
<path fill="#FFFFFF" stroke="none" d="
M -319.8 -34.75
L -319.8 -28.8 -271.75 -28.8 -271.75 9.1
Q -274.1 13.1 -278.8 15.3 -280.65 16.95 -283.15 17.35
L -285.9 17.95 -287.45 17.95
Q -289.65 17.95 -293.25 16.95 -300.9 13 -300.9 2.7 -300.9 0.1 -300.2 -2.5 -297.6 -8.75 -293.95 -10.1 -291.8 -11.1 -288.6 -11.1
L -284.7 -10.65 -280.8 -9.45 -277.9 -8.05 -279.55 -15.9
Q -280.1 -15.9 -281.5 -15.9
L -286.9 -16.9 -289.5 -16.9
Q -297.6 -16.9 -303.3 -10.6 -309.05 -4.3 -309.05 4.05 -309.05 6.55 -308.65 8.45 -308.2 10.45 -307.5 12 -305.75 15.45 -302.25 18.5 -295.75 24.15 -287.25 24.15
L -282.7 23.75 -278.25 22.1 -271.75 17.5 -271.75 40.1 -264 40.1 -264 -28.8 -241.1 -28.8 -241.1 40.1 -233.35 40.1 -233.35 -28.8 -178.55 -28.8 -178.55 7.3
Q -178.55 10.1 -181.6 13.1 -187 18.5 -192.15 18.5 -193.8 18.5 -194.8 18.2 -195.75 17.95 -197.1 17.35 -199.65 16.05 -201.3 14.05 -204.9 9.8 -204.9 3.7 -203.8 -2.65 -200.3 -6.15 -196.85 -9.6 -191.6 -9.6
L -188.4 -9.2 -185.1 -8.05 -185.1 -14.15 -188.7 -15.25 -192.6 -15.7 -196.55 -15.25
Q -202.65 -13.65 -206.8 -9.75 -212.9 -3.65 -212.9 4 -212.9 12.7 -206.8 18.35 -200.75 24.05 -192 24.05 -183.95 24.05 -178.55 18.65
L -178.55 40.1 -171 40.1 -171 9.1
Q -171 6.6 -170.15 4 -166.7 -5.7 -159.4 -7.5
L -155.65 -8.35 -153.15 -8.6 -150.95 -8.35 -151.75 -13.55
Q -153.7 -14.55 -156.35 -14.55
L -158.4 -14.4 -160.25 -14 -164.35 -12.1 -171 -6.9 -171 -28.8 -141.4 -28.8 -137.8 -24.2
Q -134.15 -18.05 -134.15 -14.15 -134.15 -7.95 -137.8 -4.85 -141.75 -1.8 -146.75 -1.8
L -148.25 -1.8
Q -148.55 -1.8 -149.55 -1.8
L -152 -2.65
Q -152 9.3 -143.45 17.15 -135.8 24.3 -124.35 24.3 -114.35 24.3 -106.65 17.8
L -106.65 40.1 -98.9 40.1 -98.9 -28.8 -88.5 -28.8 -88.5 -34.75 -319.8 -34.75
M -126.15 -13.55
L -126.85 -18.05 -129.2 -23.7 -132.1 -28.8 -106.65 -28.8 -106.65 7.3 -109.8 11.85
Q -112 14.1 -114.5 15.75 -119.25 19.05 -125.3 19.05 -136.1 19.05 -141.25 8.65
L -141.75 7.75 -142.15 6.6 -142.75 5.4 -143.15 4 -138.2 2.7 -134.6 1.25
Q -126.15 -4 -126.15 -13.55
M 304.05 -50.95
L 314.05 -50.95 314.05 -60.35 304.05 -60.35 304.05 -50.95
M 171.05 -34.75
L 171.05 -28.8 215.3 -28.8 215.3 7.3
Q 215.3 10.1 212.25 13.1 206.9 18.5 201.7 18.5 199.35 18.5 196.35 17.5 189.25 13.9 189.25 4.75 189.25 -1.2 192.7 -5.55 196.2 -9.9 202.25 -9.9
L 204.45 -9.9 206.6 -9.05 207.35 -8.4 208.8 -8.05 208.8 -14.35
Q 207.8 -15 204.9 -15.35
L 200.95 -15.7 197.05 -15.25
Q 191.25 -13.9 186.9 -10.05 180.95 -4.65 180.95 4 180.95 12.55 187.35 18.3 193.7 24.05 201.85 24.05 209.9 24.05 215.3 18.65
L 215.3 40.1 222.9 40.1 222.9 9.1
Q 222.9 6.8 224 3.65 225.65 0.15 227.2 -2.05 232.3 -8.4 238.25 -8.4 245.2 -8.4 247.8 -3.3 249.2 -0.35 249.2 3.8 249.2 6.7 247.65 10.7 244.35 18.2 238.25 24.3 236.9 25.6 235.9 25.95
L 242.15 30.7 249.7 22
Q 257.2 12.55 257.2 4.35 257.2 -3.8 251.55 -8.8 245.45 -14.35 237.4 -14.35 231.75 -14.35 227.2 -10.8
L 222.9 -6.9 222.9 -28.8 300.5 -28.8 300.5 -10.5
Q 299.65 -5.3 297.4 -3.25 295.1 -1.1 290.4 -1.1 284.45 -1.1 282.1 -4.7
L 276.15 -14.85 270.2 -10.5 280.4 6.9 284.85 13.55
Q 291.8 24.05 298.95 32.25 304.9 39.4 307.1 40.1
L 312.4 35.15 301.7 23.75 297.6 18.65 287.2 3.7
Q 287.75 4.15 289.8 4.4
L 292.55 4.4
Q 295.45 4.4 298.4 3.45 308.2 -0.45 308.2 -9.9
L 308.2 -28.8 319.85 -28.8 319.85 -34.75 304.95 -34.75 275.2 -71.25 270.15 -65.75 300.15 -34.75 171.05 -34.75
M 68.1 -28.8
L 68.1 -10.5
Q 67.25 -5.3 65 -3.25 62.7 -1.1 58 -1.1 52.05 -1.1 49.7 -4.7
L 43.75 -14.85 37.8 -10.5 48 6.9 52.45 13.55
Q 59.4 24.05 66.55 32.25 72.5 39.4 74.7 40.1
L 80 35.15 69.3 23.75 65.2 18.65 54.8 3.7
Q 55.35 4.15 57.4 4.4
L 60.15 4.4
Q 63.05 4.4 66 3.45 75.8 -0.45 75.8 -9.9
L 75.8 -28.8 97.75 -28.8 97.75 40.1 105.5 40.1 105.5 -28.8 119.55 -28.8 119.55 -34.75 -33.8 -34.75 -33.8 -28.8 -22.45 -28.8 -22.45 -1.95
Q -22.45 1.5 -21.05 5.9 -14.95 18.2 -2.35 18.2 3.6 18.2 8.7 14.75
L 13.15 11.2 13.15 40.1 14.8 40.1
Q 8.45 40.3 3.15 44.75 -2.1 50.2 -2.1 56.15 -2.1 63.05 2.95 67.45 7.9 71.9 14.75 71.9
L 19.35 71.4 24.05 70.1 25.9 69.25 22 63.3 19.8 64.75 17.4 65.85 15.05 65.85 11.45 65.15
Q 6.35 62.85 6.35 56.6 6.9 51.85 9.1 49.25 11.3 46.6 15.6 46.6 21.3 46.6 26.15 49.75 31 52.85 35.8 59.65
L 41.3 67.9
Q 43.15 71.25 43.15 73
L 49.65 69.6 45.5 62.05
Q 43.45 58.1 39.7 53.85 28.15 40.5 16.05 40.1
L 20.85 40.1 20.85 -28.8 68.1 -28.8
M 13.15 2.6
L 8.95 7.6 6.2 9.8
Q 1.65 12.55 -2.65 12.55
L -6.95 11.85
Q -15.1 7.3 -15.1 -0.95
L -15.1 -28.8 13.15 -28.8 13.15 2.6 Z"/>
</g>
</defs>

<g transform="matrix( 1, 0, 0, 1, 960,540) ">
<g transform="matrix( 1, 0, 0, 1, 0,0) ">
<use xlink:href="#Symbol_1_13_Layer1_0_FILL"/>
</g>
</g>
</svg>
