
<svg xmlns="http://www.w3.org/2000/svg" version="1.1" xmlns:xlink="http://www.w3.org/1999/xlink" preserveAspectRatio="none" x="0px" y="0px" width="1129px" height="241px" viewBox="0 0 1129 241">
<defs>
<g id="Symbol_69_2_Layer1_0_FILL">
<path fill="#000000" fill-opacity="0.8980392156862745" stroke="none" d="
M -35 -51.35
Q -36 -51.2 -36 -50.85 -35.85 -50.35 -33.8 -46.9 -33.15 -45.7 -31.7 -43.45 -31.2 -43.75 -30.65 -44.1 -29.9 -44.1 -29.3 -44.1 -28.1 -44.1 -26.3 -42.85 -24.5 -41.65 -23.45 -39.85 -22.35 -38.05 -21.15 -35.15 -19.6 -31.3 -17.95 -27.5
L -68.85 -27.5 -65.75 -21.85 -52.6 -21.85 -52.6 -6.55
Q -52.6 -5.45 -53.3 -5.45
L -57.95 -5.45
Q -58.45 -5.45 -59.1 -4.8 -59.75 -4.1 -59.75 -3.3 -59.75 -1.15 -56.05 2.6 -55.25 3.45 -53.35 5.35 -50.9 7.6 -50.1 7.6 -48.65 7.6 -47.65 6.45 -46.6 5.35 -46.6 3.8
L -46.6 -21.85 -37.4 -21.85 -37.4 21.7 -31.55 25.3 -31.55 -21.85 -19.95 -21.85 -19.95 21.8 -13.75 25.3 -13.75 -21.85 -6.1 -21.85 -9.05 -27.5 -15.45 -27.5
Q -15.9 -29.25 -19.15 -36.75 -22.35 -44.25 -24 -46.75 -25.6 -49.25 -27.95 -50.35 -30.25 -51.45 -32.4 -51.45 -34.05 -51.45 -35 -51.35
M 34.35 -46.45
Q 31.4 -43.75 31.4 -39.05 31.4 -37.9 32.2 -35.85 33.05 -33.7 33.65 -33.1
L 35.9 -33.95
Q 35.9 -43.55 42.1 -43.55 46.55 -43.55 49.9 -39.8 53.55 -35.5 54.7 -27.5
L 17.7 -27.5 20.7 -21.85 33.2 -21.85 33.2 -1.9 16.6 -1.9 16.6 -12.9
Q 16.6 -20.9 13 -24.95 9.95 -28.35 5 -28.35 0.8 -28.35 -1.35 -25.45 -3.1 -23.2 -3.1 -19.9 -3.1 -16.15 -0.65 -13.5 2.6 -10.1 10.85 -7.65
L 10.5 -1.9 6.1 -1.9
Q 5.25 -1.9 4.7 -1.15 4.15 -0.35 4.15 0.35 4.15 1.95 8.85 6.05 13.6 10.1 14.8 10.1 15.35 10.1 16 9.65 16.6 9.15 16.6 8.45
L 16.6 3.25 33.2 3.25 33.2 21.8 39.25 25.3 39.25 -21.85 53.5 -21.85 53.5 21.8 59.4 25.3 59.4 -21.85 68.85 -21.85 65.8 -27.5 57.8 -27.5
Q 56.35 -38.35 51.85 -44 47.7 -49.25 41.8 -49.25 37.25 -49.25 34.35 -46.45
M 10.45 -22.5
Q 11.6 -21.15 11.6 -17.2 11.6 -14.05 11.2 -11.25 8.25 -11.6 5.6 -13.7 3.05 -15.75 3.05 -18.55 3.05 -20.6 4.15 -22.25 5.25 -23.85 7.25 -23.85 9.35 -23.85 10.45 -22.5 Z"/>
</g>
</defs>

<g transform="matrix( 2.303741455078125, 0, 0, 2.303741455078125, 563.45,127.3) ">
<g transform="matrix( 1, 0, 0, 1, 0,0) ">
<use xlink:href="#Symbol_69_2_Layer1_0_FILL"/>
</g>
</g>
</svg>
