
<svg xmlns="http://www.w3.org/2000/svg" version="1.1" xmlns:xlink="http://www.w3.org/1999/xlink" preserveAspectRatio="none" x="0px" y="0px" width="290px" height="57px" viewBox="0 0 290 57">
<defs>
<g id="Mask_Symbol_55_2_3_MASK_0_FILL">
<path fill="#FFFFFF" stroke="none" d="
M 238.6 -150
Q 238.6 -161.4 230.5 -169.5 222.45 -177.55 211.05 -177.55
L -211.05 -177.55
Q -222.45 -177.55 -230.55 -169.5 -238.6 -161.4 -238.6 -150
L -238.6 150
Q -238.6 161.4 -230.55 169.45 -222.45 177.55 -211.05 177.55
L 211.05 177.55
Q 222.45 177.55 230.5 169.45 238.6 161.4 238.6 150
L 238.6 -150 Z"/>
</g>

<g id="Duplicate_Items_Folder_Symbol_69_1_Layer1_0_FILL">
<path fill="#000000" stroke="none" d="
M 15.85 -21.2
Q 15.95 -19.6 16.1 -18.05 16.25 -16.5 16.25 -14.6 16.25 -10.65 15.7 -9.4 15.15 -8.05 13.85 -7.9
L 1.65 -4.9
Q -1.95 -3.85 -3.6 -2 -5.3 -0.15 -5.3 3.55 -5.3 10.3 0.5 15.95 6.3 21.55 13.8 21.55 18.4 21.55 22.9 20.05 27.35 18.55 30.55 16.75
L 27.85 11.3
Q 22 14.1 17.85 15.3 13.8 16.5 9.85 16.5 6.05 16.5 3.2 13.75 0.3 10.9 0.3 7.05 0.3 1.2 6.15 0 14.45 -1.5 18.85 -2.75 20.9 -3.4 21.6 -4.6 22.25 -5.8 22.25 -9.5 22.2 -12.2 22.05 -15.15 21.95 -18.05 21.95 -21.2
L 44.5 -21.2
Q 44.5 -20.6 44.8 -19.05 44.85 -17.85 44.85 -15.2 44.85 -7.1 44.55 -4.8 44.25 -2.5 43.6 -2.5 43.15 -2.5 40.5 -4 37.75 -5.45 37.3 -5.45 36.2 -5.45 35.35 -4.3 34.4 -3.15 34.4 -1.95 34.4 -1.1 35.25 0.45 36.4 2.6 38.95 5.8 42.3 9.95 47.65 15.8 52.95 21.65 57.85 26.7
L 60.6 23.45
Q 56.55 19.4 52.5 15.35 44.35 7.05 44.35 6.35 44.35 5.7 44.85 5.2 45.3 4.7 47.4 3.35 48.75 2.55 49.85 0.45 51 -1.65 51 -3.85
L 51 -21.2 63 -21.2 60 -26.85 -62.2 -26.85 -59.1 -21.2 -46.7 -21.2 -46.7 -1.2 -51.1 -1.2
Q -51.95 -1.2 -52.5 -0.45 -53.1 0.35 -53.1 1.05 -53.1 2.2 -48.6 6.95 -44.1 11.7 -42.65 11.7 -40.6 11.7 -40.6 9.1
L -40.6 4.55 -22.1 4.55 -22.35 22.45 -16.1 25.95 -16.1 -21.2 15.85 -21.2
M -40.6 -1.2
L -40.6 -21.2 -22.1 -21.2 -22.1 -1.2 -40.6 -1.2 Z"/>
</g>
</defs>

<g transform="matrix( 0.549713134765625, 0, 0, 0.549713134765625, 144.8,-36.1) ">
<mask id="Mask_Mask_1">
<g transform="matrix( 1, 0, 0, 1, 0,0) ">
<use xlink:href="#Mask_Symbol_55_2_3_MASK_0_FILL"/>
</g>
</mask>

<g mask="url(#Mask_Mask_1)"/>

<g mask="url(#Mask_Mask_1)">
<g transform="matrix( 1, 0, 0, 1, 4.4,119.55) ">
<g transform="matrix( 1, 0, 0, 1, 0,0) ">
<use xlink:href="#Duplicate_Items_Folder_Symbol_69_1_Layer1_0_FILL"/>
</g>
</g>
</g>
</g>
</svg>
