
<svg xmlns="http://www.w3.org/2000/svg" version="1.1" xmlns:xlink="http://www.w3.org/1999/xlink" preserveAspectRatio="none" x="0px" y="0px" width="40px" height="40px" viewBox="0 0 40 40">
<defs>
<radialGradient id="Gradient_1" gradientUnits="userSpaceOnUse" cx="0" cy="0" r="17.35" fx="0" fy="0" gradientTransform="matrix( 0.9999999999999999, 0, 0, 0.9999999999999999, 2.15,-2.7) " spreadMethod="pad">
<stop  offset="0%" stop-color="#C2FF9A"/>

<stop  offset="34.90196078431372%" stop-color="#66FF00"/>

<stop  offset="81.56862745098039%" stop-color="#47CC00"/>

<stop  offset="95.29411764705883%" stop-color="#31A800"/>

<stop  offset="100%" stop-color="#218E00"/>
</radialGradient>

<linearGradient id="Gradient_2" gradientUnits="userSpaceOnUse" x1="3.8249999999999997" y1="-6.825000000000001" x2="7.775" y2="-10.775" spreadMethod="pad">
<stop  offset="0%" stop-color="#FFFFFF" stop-opacity="0.4117647058823529"/>

<stop  offset="100%" stop-color="#FFFFFF" stop-opacity="0"/>
</linearGradient>

<filter id="Filter_1" x="-20%" y="-20%" width="140%" height="140%" color-interpolation-filters="sRGB">
<feFlood flood-color="#000000" flood-opacity="1" in="SourceGraphic" result="result1"/>

<feComposite in2="SourceGraphic" in="result1" operator="in" result="result2"/>

<feGaussianBlur in="result2" stdDeviation="0.6666666666666666,0.6666666666666666" result="result3"/>

<feOffset dx="1.2855752193730787" dy="1.532088886237956" in="result3" result="result4"/>

<feComposite in2="result4" in="SourceGraphic" operator="over" result="result5"/>

<feColorMatrix in="result5" type="matrix" values="0.1035126788025108 0.3023981326461388 0.34408918855135034 0 -0.23186274509803917 0.25471305283287055 0.5199562577239369 -0.024669310556807468 0 -0.23186274509803917 -0.028478858125500016 0.7378437591735258 0.04063509895197418 0 -0.23186274509803922 0 0 0 1 0 " result="result6"/>
</filter>

<g id="Symbol_6_copy_3_0_Layer0_0_FILL">
<path fill="url(#Gradient_1)" stroke="none" d="
M -0.05 -14.2
Q -5.9 -14.2 -10.1 -10.05 -14.25 -5.85 -14.25 0 -14.25 5.9 -10.1 10.05 -5.9 14.25 -0.05 14.25 5.85 14.25 10 10.05 14.2 5.9 14.2 0 14.2 -5.85 10 -10.05 5.85 -14.2 -0.05 -14.2 Z"/>
</g>

<path id="Duplicate_Items_Folder_Question_Dot_Green_0_Layer0_0_1_STROKES" stroke="url(#Gradient_2)" stroke-width="2" stroke-linejoin="round" stroke-linecap="round" fill="none" d="
M 9.6 -3.75
Q 9.85 -3.2 10.15 -2.55
M 4.15 -9.65
Q 6.2 -8.55 7.75 -6.65"/>
</defs>

<g filter="url(#Filter_1)" transform="matrix( 1, 0, 0, 1, 0,0) ">
<g transform="matrix( 1.29022216796875, 0, 0, 1.29022216796875, 18.75,18.6) ">
<g transform="matrix( 1, 0, 0, 1, 0,0) ">
<g transform="matrix( 1, 0, 0, 1, 0,0) ">
<use xlink:href="#Symbol_6_copy_3_0_Layer0_0_FILL"/>
</g>
</g>

<g transform="matrix( 1, 0, 0, 1, 0,0) ">
<use xlink:href="#Duplicate_Items_Folder_Question_Dot_Green_0_Layer0_0_1_STROKES"/>
</g>
</g>
</g>
</svg>
