
<svg xmlns="http://www.w3.org/2000/svg" version="1.1" xmlns:xlink="http://www.w3.org/1999/xlink" preserveAspectRatio="none" x="0px" y="0px" width="278px" height="216px" viewBox="0 0 278 216">
<defs>
<g id="Symbol_4_6_Layer0_0_FILL">
<path fill="#000000" stroke="none" d="
M 200.95 89.6
L 198.2 81.8 194.85 74.55 190.4 69.3
Q 188.4 66.95 185.15 65.4 182 63.2 178.7 63.2 176.5 62.25 171.05 62.25 161.15 62.25 153.35 67.9
L 150.05 71.2 144.7 79.4 142.8 84.25
Q 141.85 86.85 141.35 89.4 140.8 91.9 140.05 96.75
L 139.25 105.3 139.25 112.15
Q 139.25 125.4 141.85 136.15 148.2 161.65 171.05 161.65 182.95 161.65 189.15 155.85 199.15 146.45 202 128.55 202.7 125.4 202.85 121.8 203.05 118.15 203.05 114.35
L 202.5 99.3 200.95 89.6
M 170.9 72.15
Q 174.6 72.15 178.6 74.1 186.9 79.4 189.15 92.25 190.8 99.9 190.8 112.15 190.8 135.95 184.95 144.15 182 148.45 178.5 150.35 174.95 152.15 171.05 152.15 167.35 152.15 163.35 149.75 159.35 147.5 157 143.75 151.55 135.95 151.55 112.15
L 151.55 100.65
Q 153.15 85.2 157.85 78.75 162.6 72.15 170.9 72.15
M 117.8 69.9
Q 109.3 62.25 95.9 62.25 81.6 62.25 73.5 69.7 65.4 77.1 64.25 90.35
L 76.55 91.9
Q 76.55 87.8 77.9 83.7 82.2 72.15 95.7 72.15 104.45 72.15 109.2 77.3 114 82.55 114 89.1
L 114 92.85
Q 112.35 98.95 108.45 103.95
L 100 112.9 77.6 132.25 71.3 139.1
Q 65.05 146.55 63.5 151.95
L 62.3 156.05
Q 61.9 157 61.9 160.15
L 126.45 160.15 126.45 148.65 78.45 148.65 83.5 142.35 88.65 137.5 97.6 130.15 108.05 120.75 118.25 110.05 122.55 103.6 125.1 97.8
Q 125.9 96.35 125.9 95.2
L 126.25 89.4
Q 126.25 77.5 117.8 69.9 Z"/>
</g>
</defs>

<g transform="matrix( 1, 0, 0, 1, -0.8,-1.45) ">
<g transform="matrix( 1, 0, 0, 1, 0,0) ">
<use xlink:href="#Symbol_4_6_Layer0_0_FILL"/>
</g>
</g>
</svg>
