
<svg xmlns="http://www.w3.org/2000/svg" version="1.1" xmlns:xlink="http://www.w3.org/1999/xlink" preserveAspectRatio="none" x="0px" y="0px" width="197px" height="135px" viewBox="0 0 197 135">
<defs>
<g id="Symbol_1_1_Layer1_0_FILL">
<path fill="#000000" stroke="none" d="
M 43.2 -14.05
L 72.25 -14.05
Q 72.25 -13.2 72.65 -11.05 72.75 -9.4 72.75 -5.7 72.75 5.55 72.3 8.75 71.9 11.95 71 11.95 70.35 11.95 66.65 9.9 62.85 7.8 62.25 7.8 60.75 7.8 59.5 9.45 58.2 11.05 58.2 12.7 58.2 13.9 59.4 16.05 60.95 19.05 64.5 23.45 69.2 29.25 76.6 37.35 84 45.45 90.75 52.5
L 94.6 47.95
Q 89 42.35 83.35 36.75 72 25.2 72 24.25 72 23.3 72.7 22.65 73.35 21.95 76.25 20.1 78.1 19 79.65 16.05 81.25 13.1 81.25 10.05
L 81.25 -14.05 97.95 -14.05 93.75 -21.9 -52.6 -21.9 -48.65 -14.05 -31.75 -14.05 -31.75 8.6
Q -32.85 10.15 -37 11.85 -41.15 13.6 -43.5 13.6 -51.3 13.6 -60.95 6.2 -58.2 4.8 -56.4 1.95 -54.5 -0.9 -54.5 -3.9 -54.5 -7 -55.9 -9.95 -57.25 -12.8 -60.8 -16.1 -64.4 -19.45 -68.65 -21.25 -72.85 -23.05 -75.5 -23.05 -78.6 -23.05 -82.75 -21.75 -86.9 -20.35 -91.1 -18.2
L -88.35 -12.35
Q -87.25 -10.6 -86.1 -10.6 -82.15 -12.7 -78 -14.95 -73.9 -16.85 -70.5 -16.85 -66.75 -16.85 -64.4 -14.6 -62 -12.35 -62 -8.2 -62 -3.85 -65.25 -0.3 -67.85 2.45 -69.75 2.45 -70.75 2.45 -75.25 3.05 -79.75 3.7 -80.85 3.7 -83.25 3.7 -83.25 6.15 -83.25 7.45 -79.45 11.15 -77.65 13.05 -76.85 13.05 -76 13.05 -71.35 11.3 -68.95 10.45 -64.75 8.8 -61.45 9.75 -59.45 12.5 -57.35 15.2 -57.35 19.15 -57.35 24.7 -61.15 28.75 -65 32.85 -71 32.85 -78.25 32.85 -83.75 27.7 -89.3 22.6 -94.1 11.6
L -98 13.75
Q -91.9 26.95 -84.6 33.8 -77.25 40.7 -68.7 40.7 -60.35 40.7 -55.05 36.15 -49.75 31.5 -49.75 23.7 -49.75 19.9 -51.85 16.5
L -51.65 16.5
Q -48.9 18.6 -45.7 19.55 -42.6 20.45 -40.35 20.45 -38.4 20.45 -35.9 20.15 -33.4 19.85 -31.25 19
L -31.75 46.55 -23 51.45 -23 -14.05 0.65 -14.05 0.65 13.75 -5.45 13.75
Q -6.6 13.75 -7.4 14.75 -8.2 15.85 -8.2 16.85 -8.2 18.5 -1.95 25.1 4.25 31.65 6.3 31.65 9.15 31.65 9.15 28.05
L 9.15 21.75 34.85 21.75 34.5 46.55 43.2 51.45 43.2 -14.05
M 9.15 -14.05
L 34.85 -14.05 34.85 13.75 9.15 13.75 9.15 -14.05 Z"/>
</g>
</defs>

<g transform="matrix( 1, 0, 0, 1, 98.5,55.75) ">
<g transform="matrix( 1, 0, 0, 1, 0,0) ">
<use xlink:href="#Symbol_1_1_Layer1_0_FILL"/>
</g>
</g>
</svg>
