
<svg xmlns="http://www.w3.org/2000/svg" version="1.1" xmlns:xlink="http://www.w3.org/1999/xlink" preserveAspectRatio="none" x="0px" y="0px" width="485px" height="195px" viewBox="0 0 485 195">
<defs>
<linearGradient id="Gradient_1" gradientUnits="userSpaceOnUse" x1="0" y1="-81.95" x2="0" y2="81.95" spreadMethod="pad">
<stop  offset="0%" stop-color="#6070CF"/>

<stop  offset="100%" stop-color="#294576"/>
</linearGradient>

<linearGradient id="Gradient_2" gradientUnits="userSpaceOnUse" x1="-2.55" y1="67.875" x2="-2.55" y2="-69.475" spreadMethod="pad">
<stop  offset="0%" stop-color="#96E0B0"/>

<stop  offset="65.09803921568627%" stop-color="#69BC7D"/>

<stop  offset="100%" stop-color="#2F9152"/>
</linearGradient>

<linearGradient id="Gradient_3" gradientUnits="userSpaceOnUse" x1="54.45" y1="20.85" x2="54.45" y2="1.549999999999999" spreadMethod="pad">
<stop  offset="66.27450980392157%" stop-color="#FFFFFF" stop-opacity="0.18823529411764706"/>

<stop  offset="100%" stop-color="#FFFFFF"/>
</linearGradient>

<linearGradient id="Gradient_4" gradientUnits="userSpaceOnUse" x1="-2.35" y1="-57.4" x2="-2.35" y2="69.6" spreadMethod="pad">
<stop  offset="45.88235294117647%" stop-color="#FFFFFF"/>

<stop  offset="100%" stop-color="#D3D3D3"/>
</linearGradient>

<filter id="Filter_1" x="-20%" y="-20%" width="140%" height="140%" color-interpolation-filters="sRGB">
<feFlood flood-color="#000000" flood-opacity="1" in="SourceGraphic" result="result1"/>

<feComposite in2="SourceGraphic" in="result1" operator="in" result="result2"/>

<feGaussianBlur in="result2" stdDeviation="3.6666666666666665,3.6666666666666665" result="result3"/>

<feOffset dx="0" dy="0" in="result3" result="result4"/>

<feComposite in2="result4" in="SourceGraphic" operator="over" result="result5"/>
</filter>

<filter id="Filter_2" x="-20%" y="-20%" width="140%" height="140%" color-interpolation-filters="sRGB">
<feGaussianBlur in="SourceGraphic" stdDeviation="1,1" result="result1"/>

<feColorMatrix in="result1" type="matrix" values="1 0 0 0 0 0 1 0 0 0 0 0 1 0 0 0 0 0 0.81 0" result="result2"/>
</filter>

<g id="Symbol_5_4_Layer1_1_MEMBER_0_FILL">
<path fill="url(#Gradient_2)" stroke="none" d="
M 186.9 -3.5
Q 185.76796875 -31.3916015625 168.85 -50.55 153.95 -70.5 132.6 -70.5
L -135.2 -70.5
Q -159.357421875 -67.3318359375 -174.25 -49.1 -189.14765625 -30.80625 -189.15 -2.55 -189.15 25.75 -174.1 45.65 -159.05 65.6 -137.7 65.6
L 132.6 65.6
Q 153.9544921875 65.601953125 171 45 188.0365234375 24.4435546875 186.9 -3.5 Z"/>
</g>

<g id="Duplicate_Items_Folder__Path__copy_0_Layer0_0_FILL">
<path fill="url(#Gradient_3)" stroke="none" d="
M 128.4 9.85
Q 128.4 5.9 123.95 2.9 119.7 0 114.75 0
L 13.6 0
Q 8.65 0 4.45 2.9 0 5.9 0 9.85 0 14 3.3 16.85 6.65 19.75 11.35 19.75
L 117 19.75
Q 121.75 19.75 125.05 16.85 128.4 13.95 128.4 9.85 Z"/>
</g>

<path id="Symbol_6_0_Layer0_0_1_STROKES" stroke="url(#Gradient_1)" stroke-width="9.1" stroke-linejoin="miter" stroke-linecap="square" stroke-miterlimit="3" fill="none" d="
M -122.05 -69.1
L 122 -69.1
Q 149.95 -69.1 169.7 -48.9 189.5 -28.65 189.5 -0.05
L 189.5 0
Q 189.5 28.6 169.7 48.8 149.95 69.05 122 69.05
L -122.05 69.05
Q -150 69.05 -169.75 48.8 -189.55 28.6 -189.55 0
L -189.55 -0.05
Q -189.55 -28.65 -169.75 -48.9 -150 -69.1 -122.05 -69.1 Z"/>

<path id="Symbol_5_4_Layer1_0_1_STROKES" stroke="#6DB164" stroke-width="9.1" stroke-linejoin="miter" stroke-linecap="square" stroke-miterlimit="3" fill="none" d="
M -118.95 -65.8
L 118.9 -65.8
Q 146.15 -65.8 165.4 -46.55 184.65 -27.3 184.65 -0.05
L 184.65 0
Q 184.65 27.25 165.4 46.5 146.15 65.75 118.9 65.75
L -118.95 65.75
Q -146.2 65.75 -165.45 46.5 -184.7 27.25 -184.7 0
L -184.7 -0.05
Q -184.7 -27.3 -165.45 -46.55 -146.2 -65.8 -118.95 -65.8 Z"/>

<path id="Symbol_5_4_Layer1_2_MEMBER_0_1_STROKES" stroke="url(#Gradient_4)" stroke-width="9.1" stroke-linejoin="miter" stroke-linecap="square" stroke-miterlimit="3" fill="none" d="
M -122.05 -69.1
L 122 -69.1
Q 149.95 -69.1 169.7 -48.9 189.5 -28.65 189.5 -0.05
L 189.5 0
Q 189.5 28.6 169.7 48.8 149.95 69.05 122 69.05
L -122.05 69.05
Q -150 69.05 -169.75 48.8 -189.55 28.6 -189.55 0
L -189.55 -0.05
Q -189.55 -28.65 -169.75 -48.9 -150 -69.1 -122.05 -69.1 Z"/>
</defs>

<g transform="matrix( 1.1999969482421875, 0, 0, 1.1999969482421875, 242.55,98.4) ">
<g filter="url(#Filter_1)" transform="matrix( 0.8333282470703125, 0, 0, 0.8333282470703125, -202.1,-82) ">
<g transform="matrix( 1.1999969482421875, 0, 0, 1.1999969482421875, 242.55,98.4) ">
<g transform="matrix( 1, 0, 0, 1, 0,0) ">
<use xlink:href="#Symbol_6_0_Layer0_0_1_STROKES"/>
</g>
</g>
</g>

<g transform="matrix( 1, 0, 0, 1, 0,0) ">
<use xlink:href="#Symbol_5_4_Layer1_0_1_STROKES"/>
</g>

<g transform="matrix( 1, 0, 0, 1, 0,0) ">
<use xlink:href="#Symbol_5_4_Layer1_1_MEMBER_0_FILL"/>
</g>

<g filter="url(#Filter_2)" transform="matrix( 0.8333282470703125, 0, 0, 0.8333282470703125, -202.1,-82) ">
<g transform="matrix( 3.140380859375, 0, 0, 4.161956787109375, 38.2,21.4) ">
<g transform="matrix( 1, 0, 0, 1, 0,0) ">
<use xlink:href="#Duplicate_Items_Folder__Path__copy_0_Layer0_0_FILL"/>
</g>
</g>
</g>

<g transform="matrix( 1, 0, 0, 1, 0,0) ">
<use xlink:href="#Symbol_5_4_Layer1_2_MEMBER_0_1_STROKES"/>
</g>
</g>
</svg>
