
<svg xmlns="http://www.w3.org/2000/svg" version="1.1" xmlns:xlink="http://www.w3.org/1999/xlink" preserveAspectRatio="none" x="0px" y="0px" width="705px" height="703px" viewBox="0 0 705 703">
<defs>
<g id="Symbol_60_copy_2_2_Layer2_0_FILL">
<path fill="#FFFFFF" stroke="none" d="
M 45.65 -1.95
Q 37.95 -13.95 16.4 -35.5
L 93.25 -35.5 93.25 116.15 125.85 134.9 125.85 -116.6 181.15 -116.6 164.75 -146.8 -156.35 -146.8 -139.5 -116.6 93.25 -116.6 93.25 -65.7 -32.15 -65.7 -36.85 -54.7
Q -10.35 -38.75 3.95 -24.95 24.6 -4.8 24.6 14.45 24.6 27.8 17.3 36.45 10.3 45.15 -3.8 45.15 -15.25 45.15 -30.25 35.55 -45.5 25.9 -55.1 12.55 -67.55 -4.8 -73.85 -16.25 -82.05 -31.05 -90.05 -50.7
L -108.3 -43.2
Q -91.2 -6.2 -79 13.5 -60.95 44.2 -42.2 58.95 -19.5 77.25 6.75 77.25 24.6 77.25 39.35 65.75 56.2 52.85 56.2 32.25 56.2 14.45 45.65 -1.95 Z"/>
</g>

<g id="Symbol_60_copy_2_2_Layer1_0_FILL">
<path fill="#000000" stroke="none" d="
M 35.15 -1.95
Q 27.45 -13.95 5.9 -35.5
L 82.75 -35.5 82.75 116.15 115.35 134.9 115.35 -116.6 170.65 -116.6 154.25 -146.8 -166.85 -146.8 -150 -116.6 82.75 -116.6 82.75 -65.7 -42.65 -65.7 -47.35 -54.7
Q -20.85 -38.75 -6.55 -24.95 14.1 -4.8 14.1 14.45 14.1 27.8 6.8 36.45 -0.2 45.15 -14.3 45.15 -25.75 45.15 -40.75 35.55 -56 25.9 -65.6 12.55 -78.05 -4.8 -84.35 -16.25 -92.55 -31.05 -100.55 -50.7
L -118.8 -43.2
Q -101.7 -6.2 -89.5 13.5 -71.45 44.2 -52.7 58.95 -30 77.25 -3.75 77.25 14.1 77.25 28.85 65.75 45.7 52.85 45.7 32.25 45.7 14.45 35.15 -1.95 Z"/>
</g>
</defs>

<g transform="matrix( 1, 0, 0, 1, 358.5,342.6) ">
<g transform="matrix( 0.9599761962890625, 0, 0, 0.9599761962890625, -3.55,5.7) ">
<g transform="matrix( 1, 0, 0, 1, 0,0) ">
<use xlink:href="#Symbol_60_copy_2_2_Layer2_0_FILL"/>
</g>

<g transform="matrix( 1, 0, 0, 1, 0,0) ">
<use xlink:href="#Symbol_60_copy_2_2_Layer1_0_FILL"/>
</g>
</g>
</g>
</svg>
