
<svg xmlns="http://www.w3.org/2000/svg" version="1.1" xmlns:xlink="http://www.w3.org/1999/xlink" preserveAspectRatio="none" x="0px" y="0px" width="567px" height="257px" viewBox="0 0 567 257">
<defs>
<g id="Symbol_59_copy_2_7_Layer2_0_FILL">
<path fill="#FFFFFF" stroke="none" d="
M 21.6 -24.85
Q 15 -24.85 11.85 -21.55 8.7 -18.25 8.7 -12.7 8.7 -9.7 11.25 -5 13.85 -0.25 18.15 4.05 15.45 6.75 14 10.05 12.45 13.35 12.45 17.85 12.45 29.25 24.45 37 34.05 43.3 51.9 47.7
L 53.1 43.6
Q 37.2 38.4 29.65 32.25 22.9 26.7 22.9 20.55 22.9 14.55 28.5 8.7 34.8 2.1 43.5 2.1 47.25 2.1 50.7 4.85 54.1 7.65 54.1 11.55 54.1 19.5 43.2 21.55
L 48.75 30.15
Q 56.7 27.7 59.9 24.05 63.15 20.4 63.15 14.85 63.15 7.65 55.45 1.2 47.65 -5.25 40.8 -5.25 35.95 -5.25 31.1 -4.05 26.2 -2.8 21.9 0.2 19.45 -1.65 17.85 -4 16.3 -6.4 16.3 -8.85 16.3 -11.7 18.65 -13.6 21 -15.55 23.5 -15.55
L 53.1 -15.55
Q 56.4 -15.55 56.4 -18.85
L 56.4 -36.45 83.85 -36.45 83.85 36.3 93.9 42.15 93.9 -36.45 106.65 -36.45 101.65 -45.9 -98.4 -45.9 -93.3 -36.45 -20.25 -36.45 -20.25 -0.6
Q -29.4 7.35 -36.45 11.4 -42.6 14.85 -46.1 14.85 -50.7 14.85 -53.65 11.9 -56.6 8.95 -56.6 4.05 -56.6 -0.05 -54.45 -3.7 -52.4 -7.35 -50 -8.7 -47.55 -10.05 -44.55 -10.35 -41.55 -10.65 -33 -10.65
L -23.4 -10.5 -28.55 -19.5 -83.25 -19.5 -78.2 -10.05 -61.8 -10.05
Q -63.75 -7.65 -64.8 -5.25 -65.75 -2.9 -65.75 0.25 -65.75 8.1 -59.15 14.1 -51.6 20.85 -39.6 20.85 -28.8 20.85 -19.8 12.25
L -20.25 36.3 -10.6 41.8
Q -14.808203125 39.6 -18.2 39.6 -24.5 39.6 -29.35 44 -34.25 48.45 -34.25 56.2 -34.25 61.8 -28.45 67.7 -22.75 73.65 -16.6 73.65 -10.85 73.65 -6.4 71.8 -3.7 70.8 -1.15 69.3
L -6.4 61.05
Q -8.9 63 -13.05 64.85 -17.15 66.75 -20.15 66.75 -23.05 66.75 -24.8 64.85 -26.6 63 -26.6 60 -26.6 54.45 -23.55 51.25 -20.45 48 -17 48 -10 48 -2.15 54.3 4.15 59.45 22.45 78.6
L 26.35 74.4
Q 2.85 51.6 -4.95 45.6 -7.6302734375 43.511328125 -10.05 42.15
L -10.05 -36.45 46.35 -36.45 46.35 -24.85 21.6 -24.85 Z"/>
</g>

<g id="Symbol_59_copy_2_7_Layer1_0_FILL">
<path fill="#000000" stroke="none" d="
M 17.35 -24.85
Q 10.75 -24.85 7.6 -21.55 4.45 -18.25 4.45 -12.7 4.45 -9.7 7 -5 9.6 -0.25 13.9 4.05 11.2 6.75 9.75 10.05 8.2 13.35 8.2 17.85 8.2 29.25 20.2 37 29.8 43.3 47.65 47.7
L 48.85 43.6
Q 32.95 38.4 25.4 32.25 18.65 26.7 18.65 20.55 18.65 14.55 24.25 8.7 30.55 2.1 39.25 2.1 43 2.1 46.45 4.85 49.85 7.65 49.85 11.55 49.85 19.5 38.95 21.55
L 44.5 30.15
Q 52.45 27.7 55.65 24.05 58.9 20.4 58.9 14.85 58.9 7.65 51.2 1.2 43.4 -5.25 36.55 -5.25 31.7 -5.25 26.85 -4.05 21.95 -2.8 17.65 0.2 15.2 -1.65 13.6 -4 12.05 -6.4 12.05 -8.85 12.05 -11.7 14.4 -13.6 16.75 -15.55 19.25 -15.55
L 48.85 -15.55
Q 52.15 -15.55 52.15 -18.85
L 52.15 -36.45 79.6 -36.45 79.6 36.3 89.65 42.15 89.65 -36.45 102.4 -36.45 97.4 -45.9 -102.65 -45.9 -97.55 -36.45 -24.5 -36.45 -24.5 -0.6
Q -33.65 7.35 -40.7 11.4 -46.85 14.85 -50.35 14.85 -54.95 14.85 -57.9 11.9 -60.85 8.95 -60.85 4.05 -60.85 -0.05 -58.7 -3.7 -56.65 -7.35 -54.25 -8.7 -51.8 -10.05 -48.8 -10.35 -45.8 -10.65 -37.25 -10.65
L -27.65 -10.5 -32.8 -19.5 -87.5 -19.5 -82.45 -10.05 -66.05 -10.05
Q -68 -7.65 -69.05 -5.25 -70 -2.9 -70 0.25 -70 8.1 -63.4 14.1 -55.85 20.85 -43.85 20.85 -33.05 20.85 -24.05 12.25
L -24.5 36.3 -14.85 41.8
Q -19.058203125 39.6 -22.45 39.6 -28.75 39.6 -33.6 44 -38.5 48.45 -38.5 56.2 -38.5 61.8 -32.7 67.7 -27 73.65 -20.85 73.65 -15.1 73.65 -10.65 71.8 -7.95 70.8 -5.4 69.3
L -10.65 61.05
Q -13.15 63 -17.3 64.85 -21.4 66.75 -24.4 66.75 -27.3 66.75 -29.05 64.85 -30.85 63 -30.85 60 -30.85 54.45 -27.8 51.25 -24.7 48 -21.25 48 -14.25 48 -6.4 54.3 -0.1 59.45 18.2 78.6
L 22.1 74.4
Q -1.4 51.6 -9.2 45.6 -11.8802734375 43.511328125 -14.3 42.15
L -14.3 -36.45 42.1 -36.45 42.1 -24.85 17.35 -24.85 Z"/>
</g>
</defs>

<g transform="matrix( 1, 0, 0, 1, 284.8,118.55) ">
<g transform="matrix( 1.1999969482421875, 0, 0, 1.1999969482421875, -1.4,2.25) ">
<g transform="matrix( 1, 0, 0, 1, 0,0) ">
<use xlink:href="#Symbol_59_copy_2_7_Layer2_0_FILL"/>
</g>

<g transform="matrix( 1, 0, 0, 1, 0,0) ">
<use xlink:href="#Symbol_59_copy_2_7_Layer1_0_FILL"/>
</g>
</g>
</g>
</svg>
