
<svg xmlns="http://www.w3.org/2000/svg" version="1.1" xmlns:xlink="http://www.w3.org/1999/xlink" preserveAspectRatio="none" x="0px" y="0px" width="567px" height="257px" viewBox="0 0 567 257">
<defs>
<g id="Symbol_59_copy_2_8_Layer2_0_FILL">
<path fill="#FFFFFF" stroke="none" d="
M -6.15 45.6
Q -13.85 39.6 -19.4 39.6 -25.7 39.6 -30.55 44 -35.45 48.45 -35.45 56.2 -35.45 61.8 -29.65 67.7 -23.95 73.65 -17.8 73.65 -12.05 73.65 -7.6 71.8 -4.9 70.8 -2.35 69.3
L -7.6 61.05
Q -10.1 63 -14.25 64.85 -18.35 66.75 -21.35 66.75 -24.25 66.75 -26 64.85 -27.8 63 -27.8 60 -27.8 54.45 -24.75 51.25 -21.65 48 -18.2 48 -11.2 48 -3.35 54.3 2.95 59.45 21.25 78.6
L 25.15 74.4
Q 1.65 51.6 -6.15 45.6
M 25.4 -20.85
Q 18.4 -20.85 13.45 -16.95 7.5 -12.25 7.5 -3.35 7.5 4.95 12.4 14.75 17.25 24.55 29.55 39.9
L 34.95 35.4
Q 24.95 23.4 20.85 15.95 16.8 8.4 16.8 2.25 16.8 -4.95 20.45 -8.15 24.15 -11.4 31.95 -11.4
L 50 -11.4 49.4 36.3 59.75 42.15 59.75 -36.45 80.25 -36.45 80.25 36.3 90.3 42.15 90.3 -36.45 103.05 -36.45 98.05 -45.9 -98.6 -45.9 -93.35 -36.45 -20.6 -36.45 -20.6 -20.55 -59.8 -20.55 -61.25 -17.1
Q -53 -12.1 -48.5 -7.8 -42.05 -1.5 -42.05 4.5 -42.05 8.7 -44.35 11.4 -46.55 14.1 -50.95 14.1 -54.5 14.1 -59.2 11.1 -63.95 8.1 -66.95 3.9 -70.85 -1.5 -72.85 -5.1 -75.4 -9.7 -77.9 -15.85
L -83.6 -13.5
Q -78.25 -1.95 -74.45 4.2 -68.8 13.8 -62.95 18.4 -55.85 24.15 -47.65 24.15 -42.05 24.15 -37.45 20.55 -32.2 16.5 -32.2 10.05 -32.2 4.5 -35.5 -0.6 -37.9 -4.35 -44.65 -11.1
L -20.6 -11.1 -20.6 36.3 -10.45 42.15 -10.45 -36.45 49.4 -36.45 49.4 -20.85 25.4 -20.85 Z"/>
</g>

<g id="Symbol_59_copy_2_8_Layer1_0_FILL">
<path fill="#000000" stroke="none" d="
M 17 78.6
L 20.9 74.4
Q -2.6 51.6 -10.4 45.6 -18.1 39.6 -23.65 39.6 -29.95 39.6 -34.8 44 -39.7 48.45 -39.7 56.2 -39.7 61.8 -33.9 67.7 -28.2 73.65 -22.05 73.65 -16.3 73.65 -11.85 71.8 -9.15 70.8 -6.6 69.3
L -11.85 61.05
Q -14.35 63 -18.5 64.85 -22.6 66.75 -25.6 66.75 -28.5 66.75 -30.25 64.85 -32.05 63 -32.05 60 -32.05 54.45 -29 51.25 -25.9 48 -22.45 48 -15.45 48 -7.6 54.3 -1.3 59.45 17 78.6
M 21.15 -20.85
Q 14.15 -20.85 9.2 -16.95 3.25 -12.25 3.25 -3.35 3.25 4.95 8.15 14.75 13 24.55 25.3 39.9
L 30.7 35.4
Q 20.7 23.4 16.6 15.95 12.55 8.4 12.55 2.25 12.55 -4.95 16.2 -8.15 19.9 -11.4 27.7 -11.4
L 45.75 -11.4 45.15 36.3 55.5 42.15 55.5 -36.45 76 -36.45 76 36.3 86.05 42.15 86.05 -36.45 98.8 -36.45 93.8 -45.9 -102.85 -45.9 -97.6 -36.45 -24.85 -36.45 -24.85 -20.55 -64.05 -20.55 -65.5 -17.1
Q -57.25 -12.1 -52.75 -7.8 -46.3 -1.5 -46.3 4.5 -46.3 8.7 -48.6 11.4 -50.8 14.1 -55.2 14.1 -58.75 14.1 -63.45 11.1 -68.2 8.1 -71.2 3.9 -75.1 -1.5 -77.1 -5.1 -79.65 -9.7 -82.15 -15.85
L -87.85 -13.5
Q -82.5 -1.95 -78.7 4.2 -73.05 13.8 -67.2 18.4 -60.1 24.15 -51.9 24.15 -46.3 24.15 -41.7 20.55 -36.45 16.5 -36.45 10.05 -36.45 4.5 -39.75 -0.6 -42.15 -4.35 -48.9 -11.1
L -24.85 -11.1 -24.85 36.3 -14.7 42.15 -14.7 -36.45 45.15 -36.45 45.15 -20.85 21.15 -20.85 Z"/>
</g>
</defs>

<g transform="matrix( 1, 0, 0, 1, 284.8,118.55) ">
<g transform="matrix( 1.1999969482421875, 0, 0, 1.1999969482421875, -1.4,2.25) ">
<g transform="matrix( 1, 0, 0, 1, 0,0) ">
<use xlink:href="#Symbol_59_copy_2_8_Layer2_0_FILL"/>
</g>

<g transform="matrix( 1, 0, 0, 1, 0,0) ">
<use xlink:href="#Symbol_59_copy_2_8_Layer1_0_FILL"/>
</g>
</g>
</g>
</svg>
