
<svg xmlns="http://www.w3.org/2000/svg" version="1.1" xmlns:xlink="http://www.w3.org/1999/xlink" preserveAspectRatio="none" x="0px" y="0px" width="567px" height="257px" viewBox="0 0 567 257">
<defs>
<g id="Symbol_59_copy_2_6_Layer2_0_FILL">
<path fill="#FFFFFF" stroke="none" d="
M 32.15 -36.45
L 32.15 -14.25 1.25 -14.25
Q -5.5 -14.25 -7.95 -13.15 -10.35 -12 -10.35 -9.25 -10.35 -6.9 -4.65 1.3 1.15 9.5 3.45 9.5 4.65 9.5 5.55 8.7 6.5 7.8 6.5 5.9
L 6.5 -3.1
Q 6.5 -4.2 7.3 -4.5 8.1 -4.8 10.25 -4.8
L 32.15 -4.8 32.15 36.3 42.3 42.15 42.3 -36.45 62.85 -36.45 62.85 36.3 72.9 42.15 72.9 -36.45 107.6 -36.45
Q 107.6 -35.4 108.05 -32.85 108.2 -30.85 108.2 -26.4 108.2 -12.95 107.7 -9.1 107.15 -5.25 106.05 -5.25 105.35 -5.25 100.85 -7.75 96.3 -10.2 95.6 -10.2 93.75 -10.2 92.3 -8.25 90.75 -6.35 90.75 -4.35 90.75 -2.9 92.15 -0.35 94.05 3.25 98.3 8.55 103.95 15.5 112.8 25.25 121.65 34.95 129.8 43.4
L 134.4 38
Q 127.65 31.25 120.95 24.5 107.3 10.65 107.3 9.5 107.3 8.4 108.1 7.6 108.9 6.75 112.35 4.5 114.65 3.2 116.45 -0.35 118.35 -3.85 118.35 -7.5
L 118.35 -36.45 138.45 -36.45 133.4 -45.9 -63.65 -45.9 -58.9 -36.45 -38.6 -36.45 -38.6 -9.25
Q -39.95 -7.45 -44.9 -5.4 -49.9 -3.25 -52.75 -3.25 -62.1 -3.25 -73.7 -12.1 -70.4 -13.8 -68.2 -17.25 -65.95 -20.7 -65.95 -24.3 -65.95 -28 -67.6 -31.55 -69.2 -34.95 -73.45 -38.95 -77.8 -42.95 -82.9 -45.1 -87.95 -47.3 -91.1 -47.3 -94.85 -47.3 -99.85 -45.65 -104.8 -44 -109.85 -41.4
L -106.6 -34.4
Q -105.25 -32.35 -103.85 -32.35 -99.1 -34.85 -94.15 -37.55 -89.2 -39.8 -85.1 -39.8 -80.65 -39.8 -77.8 -37.1 -74.95 -34.4 -74.95 -29.4 -74.95 -24.2 -78.8 -19.95 -81.95 -16.65 -84.25 -16.65 -85.4 -16.65 -90.85 -15.95 -96.25 -15.15 -97.55 -15.15 -100.45 -15.15 -100.45 -12.2 -100.45 -10.65 -95.9 -6.2 -93.7 -3.9 -92.75 -3.9 -91.7 -3.9 -86.15 -6.05 -83.3 -7.05 -78.25 -9.05 -74.3 -7.85 -71.85 -4.6 -69.35 -1.35 -69.35 3.4 -69.35 10.05 -73.9 14.9 -78.55 19.8 -85.7 19.8 -94.4 19.8 -101 13.65 -107.7 7.5 -113.45 -5.7
L -118.15 -3.1
Q -110.85 12.8 -102.05 21 -93.25 29.25 -83 29.25 -72.95 29.25 -66.6 23.75 -60.2 18.2 -60.2 8.8 -60.2 4.3 -62.8 0.2
L -62.5 0.2
Q -59.2 2.75 -55.4 3.85 -51.65 4.95 -48.95 4.95 -46.6 4.95 -43.6 4.6 -40.6 4.2 -38 3.2
L -38.6 36.3 -28.15 42.15 -28.15 -36.45 32.15 -36.45 Z"/>
</g>

<g id="Symbol_59_copy_2_6_Layer1_0_FILL">
<path fill="#000000" stroke="none" d="
M 27.9 -36.45
L 27.9 -14.25 -3 -14.25
Q -9.75 -14.25 -12.2 -13.15 -14.6 -12 -14.6 -9.25 -14.6 -6.9 -8.9 1.3 -3.1 9.5 -0.8 9.5 0.4 9.5 1.3 8.7 2.25 7.8 2.25 5.9
L 2.25 -3.1
Q 2.25 -4.2 3.05 -4.5 3.85 -4.8 6 -4.8
L 27.9 -4.8 27.9 36.3 38.05 42.15 38.05 -36.45 58.6 -36.45 58.6 36.3 68.65 42.15 68.65 -36.45 103.35 -36.45
Q 103.35 -35.4 103.8 -32.85 103.95 -30.85 103.95 -26.4 103.95 -12.95 103.45 -9.1 102.9 -5.25 101.8 -5.25 101.1 -5.25 96.6 -7.75 92.05 -10.2 91.35 -10.2 89.5 -10.2 88.05 -8.25 86.5 -6.35 86.5 -4.35 86.5 -2.9 87.9 -0.35 89.8 3.25 94.05 8.55 99.7 15.5 108.55 25.25 117.4 34.95 125.55 43.4
L 130.15 38
Q 123.4 31.25 116.7 24.5 103.05 10.65 103.05 9.5 103.05 8.4 103.85 7.6 104.65 6.75 108.1 4.5 110.4 3.2 112.2 -0.35 114.1 -3.85 114.1 -7.5
L 114.1 -36.45 134.2 -36.45 129.15 -45.9 -67.9 -45.9 -63.15 -36.45 -42.85 -36.45 -42.85 -9.25
Q -44.2 -7.45 -49.15 -5.4 -54.15 -3.25 -57 -3.25 -66.35 -3.25 -77.95 -12.1 -74.65 -13.8 -72.45 -17.25 -70.2 -20.7 -70.2 -24.3 -70.2 -28 -71.85 -31.55 -73.45 -34.95 -77.7 -38.95 -82.05 -42.95 -87.15 -45.1 -92.2 -47.3 -95.35 -47.3 -99.1 -47.3 -104.1 -45.65 -109.05 -44 -114.1 -41.4
L -110.85 -34.4
Q -109.5 -32.35 -108.1 -32.35 -103.35 -34.85 -98.4 -37.55 -93.45 -39.8 -89.35 -39.8 -84.9 -39.8 -82.05 -37.1 -79.2 -34.4 -79.2 -29.4 -79.2 -24.2 -83.05 -19.95 -86.2 -16.65 -88.5 -16.65 -89.65 -16.65 -95.1 -15.95 -100.5 -15.15 -101.8 -15.15 -104.7 -15.15 -104.7 -12.2 -104.7 -10.65 -100.15 -6.2 -97.95 -3.9 -97 -3.9 -95.95 -3.9 -90.4 -6.05 -87.55 -7.05 -82.5 -9.05 -78.55 -7.85 -76.1 -4.6 -73.6 -1.35 -73.6 3.4 -73.6 10.05 -78.15 14.9 -82.8 19.8 -89.95 19.8 -98.65 19.8 -105.25 13.65 -111.95 7.5 -117.7 -5.7
L -122.4 -3.1
Q -115.1 12.8 -106.3 21 -97.5 29.25 -87.25 29.25 -77.2 29.25 -70.85 23.75 -64.45 18.2 -64.45 8.8 -64.45 4.3 -67.05 0.2
L -66.75 0.2
Q -63.45 2.75 -59.65 3.85 -55.9 4.95 -53.2 4.95 -50.85 4.95 -47.85 4.6 -44.85 4.2 -42.25 3.2
L -42.85 36.3 -32.4 42.15 -32.4 -36.45 27.9 -36.45 Z"/>
</g>
</defs>

<g transform="matrix( 1, 0, 0, 1, 284.8,118.55) ">
<g transform="matrix( 1.1999969482421875, 0, 0, 1.1999969482421875, -1.4,2.25) ">
<g transform="matrix( 1, 0, 0, 1, 0,0) ">
<use xlink:href="#Symbol_59_copy_2_6_Layer2_0_FILL"/>
</g>

<g transform="matrix( 1, 0, 0, 1, 0,0) ">
<use xlink:href="#Symbol_59_copy_2_6_Layer1_0_FILL"/>
</g>
</g>
</g>
</svg>
