
<svg xmlns="http://www.w3.org/2000/svg" version="1.1" xmlns:xlink="http://www.w3.org/1999/xlink" preserveAspectRatio="none" x="0px" y="0px" width="505px" height="350px" viewBox="0 0 505 350">
<defs>
<g id="Duplicate_Items_Folder_Symbol_13_6_Layer2_0_FILL">
<path fill="#666666" stroke="none" d="
M 148.8 -121.45
L 131.7 -152.95 -142.7 -152.95 -125.6 -121.45 51.9 -121.45
Q 56.5 -112.9 58.25 -104.6 59.95 -96.55 59.95 -86.05 59.95 -66.05 47.5 -55.55 37.5 -47 21.85 -47 -92.15 -47 -92.15 15 -92.15 58.45 -54.3 92.15 -16.7 125.6 27.7 125.6 63.85 125.6 92.4 101.7 121.2 77.5 121.2 42.6 121.2 17.45 104.35 -1.35 92.4 -15 65.8 -30.4 75.8 -38.45 83.4 -48.45 93.9 -62.85 93.9 -78 93.9 -88.5 89.95 -101.45 85.8 -114.4 80.7 -121.45
L 148.8 -121.45
M 45.3 -18.45
Q 65.8 -18.45 78.5 -3.55 91.2 11.6 91.2 32.1 91.2 59.45 66.55 78.5 41.65 97.55 13.8 97.55 -19.15 97.55 -40.15 79.45 -61.15 61.65 -61.15 29.65 -61.15 4.05 -22.6 -8.9 5.75 -18.45 45.3 -18.45 Z"/>
</g>

<g id="Duplicate_Items_Folder_Symbol_13_6_Layer1_0_FILL">
<path fill="#FFFFFF" stroke="none" d="
M 148.8 -121.45
L 131.7 -152.95 -142.7 -152.95 -125.6 -121.45 51.9 -121.45
Q 56.5 -112.9 58.25 -104.6 59.95 -96.55 59.95 -86.05 59.95 -66.05 47.5 -55.55 37.5 -47 21.85 -47 -92.15 -47 -92.15 15 -92.15 58.45 -54.3 92.15 -16.7 125.6 27.7 125.6 63.85 125.6 92.4 101.7 121.2 77.5 121.2 42.6 121.2 17.45 104.35 -1.35 92.4 -15 65.8 -30.4 75.8 -38.45 83.4 -48.45 93.9 -62.85 93.9 -78 93.9 -88.5 89.95 -101.45 85.8 -114.4 80.7 -121.45
L 148.8 -121.45
M 45.3 -18.45
Q 65.8 -18.45 78.5 -3.55 91.2 11.6 91.2 32.1 91.2 59.45 66.55 78.5 41.65 97.55 13.8 97.55 -19.15 97.55 -40.15 79.45 -61.15 61.65 -61.15 29.65 -61.15 4.05 -22.6 -8.9 5.75 -18.45 45.3 -18.45 Z"/>
</g>
</defs>

<g transform="matrix( 1, 0, 0, 1, 248.25,171.95) ">
<g transform="matrix( 0.5904541015625, 0, 0, 0.5904541015625, -1.8,-1.8) ">
<g transform="matrix( 1, 0, 0, 1, 14.5,0) ">
<use xlink:href="#Duplicate_Items_Folder_Symbol_13_6_Layer2_0_FILL"/>
</g>

<g transform="matrix( 1, 0, 0, 1, 0,0) ">
<use xlink:href="#Duplicate_Items_Folder_Symbol_13_6_Layer1_0_FILL"/>
</g>
</g>
</g>
</svg>
