
<svg xmlns="http://www.w3.org/2000/svg" version="1.1" xmlns:xlink="http://www.w3.org/1999/xlink" preserveAspectRatio="none" x="0px" y="0px" width="505px" height="350px" viewBox="0 0 505 350">
<defs>
<g id="Duplicate_Items_Folder_Symbol_13_7_Layer2_0_FILL">
<path fill="#666666" stroke="none" d="
M 133.8 -121.45
L 116.7 -152.95 -127.7 -152.95 -111.1 -121.45 40.75 -121.45
Q 41.25 -112.45 42.25 -103.9 42.95 -95.35 42.95 -84.85 42.95 -62.85 40.05 -55.8 36.85 -48.45 29.55 -47.5
L -38.1 -30.9
Q -58.1 -25.05 -67.4 -14.75 -76.65 -4.5 -76.65 16 -76.65 53.6 -44.45 84.85 -12.2 116.1 29.3 116.1 54.95 116.1 79.85 107.8 104.75 99.5 122.3 89.45
L 107.4 59.2
Q 74.95 74.6 52 81.4 29.3 88 7.35 88 -13.65 88 -29.55 72.65 -45.65 57 -45.65 35.5 -45.65 3.05 -13.2 -3.55 32.95 -12.1 57.35 -18.9 68.85 -22.6 72.75 -29.2 76.4 -36 76.4 -56.5 75.95 -71.4 75.2 -87.75 74.7 -103.9 74.7 -121.45
L 133.8 -121.45 Z"/>
</g>

<g id="Duplicate_Items_Folder_Symbol_13_7_Layer1_0_FILL">
<path fill="#FFFFFF" stroke="none" d="
M 133.8 -121.45
L 116.7 -152.95 -127.7 -152.95 -111.1 -121.45 40.75 -121.45
Q 41.25 -112.45 42.25 -103.9 42.95 -95.35 42.95 -84.85 42.95 -62.85 40.05 -55.8 36.85 -48.45 29.55 -47.5
L -38.1 -30.9
Q -58.1 -25.05 -67.4 -14.75 -76.65 -4.5 -76.65 16 -76.65 53.6 -44.45 84.85 -12.2 116.1 29.3 116.1 54.95 116.1 79.85 107.8 104.75 99.5 122.3 89.45
L 107.4 59.2
Q 74.95 74.6 52 81.4 29.3 88 7.35 88 -13.65 88 -29.55 72.65 -45.65 57 -45.65 35.5 -45.65 3.05 -13.2 -3.55 32.95 -12.1 57.35 -18.9 68.85 -22.6 72.75 -29.2 76.4 -36 76.4 -56.5 75.95 -71.4 75.2 -87.75 74.7 -103.9 74.7 -121.45
L 133.8 -121.45 Z"/>
</g>
</defs>

<g transform="matrix( 1, 0, 0, 1, 248.25,171.95) ">
<g transform="matrix( 0.5904541015625, 0, 0, 0.5904541015625, -1.8,-1.8) ">
<g transform="matrix( 1, 0, 0, 1, 14.5,0) ">
<use xlink:href="#Duplicate_Items_Folder_Symbol_13_7_Layer2_0_FILL"/>
</g>

<g transform="matrix( 1, 0, 0, 1, 0,0) ">
<use xlink:href="#Duplicate_Items_Folder_Symbol_13_7_Layer1_0_FILL"/>
</g>
</g>
</g>
</svg>
