
<svg xmlns="http://www.w3.org/2000/svg" version="1.1" xmlns:xlink="http://www.w3.org/1999/xlink" preserveAspectRatio="none" x="0px" y="0px" width="505px" height="350px" viewBox="0 0 505 350">
<defs>
<g id="Duplicate_Items_Folder_Symbol_13_8_Layer2_0_FILL">
<path fill="#666666" stroke="none" d="
M 154.3 -121.45
L 137.7 -152.95 -124.3 -152.95 -107.9 -121.45 -57.85 -121.45 -57.85 -31.6
Q -57.85 -6.95 -26.85 17.95 1.2 40.4 21.7 40.4 32.2 40.4 47.1 36 61.75 31.35 68.85 27.45
L 67.35 119.5 101.3 140.5 101.3 -121.45 154.3 -121.45
M 67.35 -121.45
L 67.35 -10.6
Q 53.2 -2.1 35.9 5 18.3 12.35 5.6 12.35 -8.8 12.35 -16.6 2.05 -24.4 -8.2 -24.4 -30.65
L -24.4 -121.45 67.35 -121.45 Z"/>
</g>

<g id="Duplicate_Items_Folder_Symbol_13_8_Layer1_0_FILL">
<path fill="#FFFFFF" stroke="none" d="
M 139.8 -121.45
L 123.2 -152.95 -138.8 -152.95 -122.4 -121.45 -72.35 -121.45 -72.35 -31.6
Q -72.35 -6.95 -41.35 17.95 -13.3 40.4 7.2 40.4 17.7 40.4 32.6 36 47.25 31.35 54.35 27.45
L 52.85 119.5 86.8 140.5 86.8 -121.45 139.8 -121.45
M 52.85 -121.45
L 52.85 -10.6
Q 38.7 -2.1 21.4 5 3.8 12.35 -8.9 12.35 -23.3 12.35 -31.1 2.05 -38.9 -8.2 -38.9 -30.65
L -38.9 -121.45 52.85 -121.45 Z"/>
</g>
</defs>

<g transform="matrix( 1, 0, 0, 1, 249.75,171.95) ">
<g transform="matrix( 0.5904541015625, 0, 0, 0.5904541015625, -1.8,-1.8) ">
<g transform="matrix( 1, 0, 0, 1, 0,0) ">
<use xlink:href="#Duplicate_Items_Folder_Symbol_13_8_Layer2_0_FILL"/>
</g>

<g transform="matrix( 1, 0, 0, 1, 0,0) ">
<use xlink:href="#Duplicate_Items_Folder_Symbol_13_8_Layer1_0_FILL"/>
</g>
</g>
</g>
</svg>
