
<svg xmlns="http://www.w3.org/2000/svg" version="1.1" xmlns:xlink="http://www.w3.org/1999/xlink" preserveAspectRatio="none" x="0px" y="0px" width="676px" height="605px" viewBox="0 0 676 605">
<defs>
<g id="Symbol_66_2_Layer1_0_FILL">
<path fill="#000000" stroke="none" d="
M 0.65 -161.8
L 72.3 -161.8 72.3 177.9 117.85 206 117.85 -161.8 178.2 -161.8 154.2 -206 -172.8 -206 -148.8 -161.8 -46.3 -161.8 -46.3 -42.5
Q -46.3 -33.95 -51.8 -33.95
L -87.8 -33.95
Q -91.9 -33.95 -97.05 -28.8 -101.85 -23.3 -101.85 -17.15 -101.85 -0.35 -73.05 29.15 -66.9 35.65 -52.15 50.4 -32.95 67.85 -26.8 67.85 -15.45 67.85 -7.6 58.95 0.65 50.4 0.65 38.4
L 0.65 -161.8 Z"/>
</g>
</defs>

<g transform="matrix( 1, 0, 0, 1, 338,302.5) ">
<g transform="matrix( 1, 0, 0, 1, 0,0) ">
<use xlink:href="#Symbol_66_2_Layer1_0_FILL"/>
</g>
</g>
</svg>
