
<svg xmlns="http://www.w3.org/2000/svg" version="1.1" xmlns:xlink="http://www.w3.org/1999/xlink" preserveAspectRatio="none" x="0px" y="0px" width="278px" height="216px" viewBox="0 0 278 216">
<defs>
<g id="Symbol_4_1_Layer0_0_FILL">
<path fill="#000000" stroke="none" d="
M 173.05 69.3
L 192 69.3 192 61.3 82.25 61.3 82.25 69.3 162.7 69.3 162.7 109.5
Q 162.3 110.05 161.85 110.65
L 155 119.65
Q 144.5 133.3 132.25 133.3
L 126.8 132.55
Q 119.2 129.2 119.2 119.5 119.2 110.55 128.7 102.75
L 138.25 95.7 151.3 95.7 151.3 87.7 91.75 87.7 91.75 95.7 123.75 95.85
Q 120.9 97.6 118.7 99.75 109 109.5 109 119.85 109 124.7 110.8 128.9 112.7 133.1 115.65 135.65 122.05 141.3 131.75 141.3
L 137.45 140.7
Q 146.6 138.7 154.25 132.55
L 161 126.8
Q 162 125.85 162.7 125
L 162.7 161.95 173.05 161.95 173.05 69.3 Z"/>
</g>
</defs>

<g transform="matrix( 1, 0, 0, 1, -0.6,-1.45) ">
<g transform="matrix( 1, 0, 0, 1, 0,0) ">
<use xlink:href="#Symbol_4_1_Layer0_0_FILL"/>
</g>
</g>
</svg>
