
<svg xmlns="http://www.w3.org/2000/svg" version="1.1" xmlns:xlink="http://www.w3.org/1999/xlink" preserveAspectRatio="none" x="0px" y="0px" width="1355px" height="357px" viewBox="0 0 1355 357">
<defs>
<radialGradient id="Gradient_1" gradientUnits="userSpaceOnUse" cx="0" cy="0" r="0" fx="0" fy="0" gradientTransform="matrix( NaN, NaN, NaN, NaN, 0,0) " spreadMethod="pad">
<stop  offset="25.098039215686274%" stop-color="#FFFFFF"/>

<stop  offset="37.64705882352941%" stop-color="#F7F8F8"/>

<stop  offset="54.11764705882353%" stop-color="#EAEAEB"/>

<stop  offset="72.54901960784314%" stop-color="#D4D5D7"/>

<stop  offset="92.94117647058823%" stop-color="#B6B8BA"/>

<stop  offset="100%" stop-color="#AAACAE"/>
</radialGradient>

<radialGradient id="Gradient_2" gradientUnits="userSpaceOnUse" cx="0" cy="0" r="187.48751041736088" fx="0" fy="0" gradientTransform="matrix( -0.00033335553851491465, -0.9999999444370409, -6.052269815061384, 0.0010000666155447438, -37.95,-45.9) " spreadMethod="pad">
<stop  offset="25.098039215686274%" stop-color="#FFFFFF"/>

<stop  offset="37.64705882352941%" stop-color="#F7F8F8"/>

<stop  offset="54.11764705882353%" stop-color="#EAEAEB"/>

<stop  offset="72.54901960784314%" stop-color="#D4D5D7"/>

<stop  offset="92.94117647058823%" stop-color="#B6B8BA"/>

<stop  offset="100%" stop-color="#AAACAE"/>
</radialGradient>

<radialGradient id="Gradient_3" gradientUnits="userSpaceOnUse" cx="0" cy="0" r="2094.4875" fx="0" fy="0" gradientTransform="matrix( 0.9999999999999999, 0, 0, -0.14203952040773696, 185.65,-92.15) " spreadMethod="pad">
<stop  offset="25.098039215686274%" stop-color="#FFFFFF"/>

<stop  offset="37.64705882352941%" stop-color="#F7F8F8"/>

<stop  offset="54.11764705882353%" stop-color="#EAEAEB"/>

<stop  offset="72.54901960784314%" stop-color="#D4D5D7"/>

<stop  offset="92.94117647058823%" stop-color="#B6B8BA"/>

<stop  offset="100%" stop-color="#AAACAE"/>
</radialGradient>

<radialGradient id="Gradient_4" gradientUnits="userSpaceOnUse" cx="0" cy="0" r="386.3125" fx="0" fy="0" gradientTransform="matrix( 0, -1, 3.619867335382624, 0, -66.3,113.15) " spreadMethod="pad">
<stop  offset="34.90196078431372%" stop-color="#FDF2DE"/>

<stop  offset="85.09803921568627%" stop-color="#F4E2DB"/>
</radialGradient>

<filter id="Filter_1" x="-20%" y="-20%" width="140%" height="140%" color-interpolation-filters="sRGB">
<feFlood flood-color="#000000" flood-opacity="1" in="SourceGraphic" result="result1"/>

<feComposite in2="SourceGraphic" in="result1" operator="in" result="result2"/>

<feGaussianBlur in="result2" stdDeviation="1.3333333333333333,1.3333333333333333" result="result3"/>

<feOffset dx="2.8284271247461903" dy="2.8284271247461903" in="result3" result="result4"/>

<feComposite in2="result4" in="SourceGraphic" operator="over" result="result5"/>
</filter>

<g id="Duplicate_Items_Folder_Symbol_11_copy_0_Layer0_0_FILL">
<path fill="#FFFFFF" stroke="none" d="
M 656.4 -124.45
Q 656.4 -133.95 651.45 -141.6 649.3 -144.9 646.2 -147.85 635.8 -157.5 621.35 -157.5
L -621.35 -157.5
Q -633.45 -157.5 -642.6 -150.75 -644.4 -149.45 -646.1 -147.85 -656.4 -138.2 -656.4 -124.45
L -656.4 124.45
Q -656.4 127.05 -656.05 129.35 -655.5 133.75 -653.55 137.7 -651.1 143.25 -646.1 147.85 -635.9 157.5 -621.35 157.5
L 621.35 157.5
Q 635.8 157.5 646.2 147.85 650.65 143.55 653.25 138.5
L 656.1 128.5
Q 656.4 126.55 656.4 124.45
L 656.4 -124.45 Z"/>
</g>

<g id="Duplicate_Items_Folder_Symbol_8_copy_2_0_Layer0_1_FILL">
<path fill="url(#Gradient_1)" stroke="none" d="
M 621.35 120
Q 627.69609375 119.8361328125 633.25 118.9
L -609.1 114.3
Q -669.24140625 117.2236328125 -670.4 62.7
L -670.4 72.95
Q -667.6486328125 116.1337890625 -621.35 120
L 621.35 120 Z"/>

<path fill="url(#Gradient_2)" stroke="none" d="
M 670.4 -175.95
Q 667.332421875 -220.932421875 621.35 -223
L -621.35 -223
Q -660.75390625 -219.4642578125 -668.6 -188.65 -670.0548828125 -182.788671875 -670.4 -175.95
L -670.4 62.7
Q -669.24140625 117.2236328125 -609.1 114.3
L 633.25 118.9
Q 634.3427734375 118.7552734375 635.4 118.55 654.6607421875 114.4986328125 663.3 100.75 670.17890625 89.9109375 670.4 72.95
L 670.4 -175.95 Z"/>

<path fill="url(#Gradient_3)" stroke="none" d="
M 674.9 -185.15
Q 669.66875 -223.3806640625 629.5 -227.95
L -612.7 -227.95
Q -662.8978515625 -227.73125 -668.6 -188.65 -660.75390625 -219.4642578125 -621.35 -223
L 621.35 -223
Q 667.332421875 -220.932421875 670.4 -175.95
L 670.4 72.95
Q 670.17890625 89.9109375 663.3 100.75 654.6607421875 114.4986328125 635.4 118.55 673.0099609375 111.790625 674.9 69.35
L 674.9 -185.15 Z"/>
</g>

<g id="Duplicate_Items_Folder_Symbol_1_copy_3_0_Layer0_0_FILL">
<path fill="url(#Gradient_4)" stroke="none" d="
M 656.4 -124.45
Q 656.4 -133.95 651.45 -141.6 649.3 -144.9 646.2 -147.85 635.8 -157.5 621.35 -157.5
L -621.35 -157.5
Q -633.45 -157.5 -642.6 -150.75 -644.4 -149.45 -646.1 -147.85 -656.4 -138.2 -656.4 -124.45
L -656.4 124.45
Q -656.4 127.05 -656.05 129.35 -655.5 133.75 -653.55 137.7 -651.1 143.25 -646.1 147.85 -635.9 157.5 -621.35 157.5
L 621.35 157.5
Q 635.8 157.5 646.2 147.85 650.65 143.55 653.25 138.5
L 656.1 128.5
Q 656.4 126.55 656.4 124.45
L 656.4 -124.45 Z"/>
</g>

<g id="Duplicate_Items_Folder_Symbol_8_copy_2_0_Layer0_3_FILL">
<path fill="#2573B4" stroke="none" d="
M 656.25 15.05
Q 656 14.85 655.7 14.85
L -655.6 14.85
Q -655.9 14.85 -656.15 15.05 -656.35 15.2 -656.35 15.45 -656.35 15.7 -656.15 15.9 -655.9 16.05 -655.6 16.05
L 655.7 16.05
Q 656 16.05 656.25 15.9 656.5 15.7 656.5 15.45 656.5 15.2 656.25 15.05 Z"/>
</g>

<g id="Duplicate_Items_Folder_Symbol_8_copy_2_0_Layer0_4_FILL">
<path fill="#2573B4" stroke="none" d="
M 656.25 -107.35
Q 656 -107.55 655.7 -107.55
L -655.6 -107.55
Q -655.9 -107.55 -656.15 -107.35 -656.35 -107.2 -656.35 -106.95 -656.35 -106.7 -656.15 -106.5 -655.9 -106.35 -655.6 -106.35
L 655.7 -106.35
Q 656 -106.35 656.25 -106.5 656.5 -106.7 656.5 -106.95 656.5 -107.2 656.25 -107.35 Z"/>
</g>

<g id="Symbol_2_1_Layer1_0_FILL">
<path fill="#000000" stroke="none" d="
M 428.7 -34.25
L 420.2 -39.6 420.2 30.4 428.7 35.75 428.7 -34.25
M 373.9 -51.15
Q 371.9 -54 369.25 -55.25 366.65 -56.5 364.4 -56.5 364 -56.5 362.2 -56.4 360.4 -56.3 360.4 -55.9
L 365.2 -46.6
Q 365.9 -46.9 366.3 -47.25 367.15 -47.25 367.95 -47.25 369.15 -47.25 371.3 -46.25 373.4 -45.25 374.5 -43.45 375.1423828125 -42.3630859375 377.85 -38.2
L 332.75 -38.2 336.9 -30.35 376.9 -30.35 376.9 -20.7 356.25 -20.7
Q 350.75 -20.7 348.15 -17.95 345.5 -15.2 345.5 -10.55 345.5 -8.05 347.65 -4.15 349.8 -0.2 353.4 3.4 351.15 5.65 349.9 8.4 348.65 11.15 348.65 14.9 348.65 24.4 358.65 30.9 366.65 36.15 381.55 39.8
L 382.5 36.35
Q 369.25 32.05 363 26.9 357.35 22.25 357.35 17.15 357.35 12.15 362 7.25 367.25 1.75 374.5 1.75 377.65 1.75 380.5 4.1 383.35 6.4 383.35 9.65 383.35 16.3 374.25 18
L 378.9 25.15
Q 385.5 23.15 388.2 20.05 390.85 17 390.85 12.4 390.85 6.4 384.45 1.05 378 -4.35 372.25 -4.35 368.25 -4.35 364.2 -3.35 360.1 -2.35 356.5 0.2 354.5 -1.35 353.15 -3.3 351.85 -5.3 351.85 -7.35 351.85 -9.7 353.8 -11.3 355.8 -12.95 357.85 -12.95
L 382.5 -12.95
Q 385.25 -12.95 385.25 -15.7
L 385.25 -30.35 403.25 -30.35 399 -38.2 387.95 -38.2
Q 386.8236328125 -41.4396484375 382.9 -50.65 378.2 -61.85 375.95 -65.2 373.65 -68.6 369.9 -70.45 367 -71.85 364.15 -71.85 362 -71.85 360.6 -71.7 359.15 -71.6 359.15 -71.1 359.25 -70.75 362.3 -65.6 363.15 -63.95 365.2 -60.75 365.9 -61.1 366.55 -61.6 367.55 -61.6 368.55 -61.6 370.2 -61.6 372.65 -59.9 375.15 -58.25 376.8 -55.6 378.05 -53.35 380.1 -48.45 381.8298828125 -44.357421875 384.2 -38.2
L 381.35 -38.2
Q 380.482421875 -39.8873046875 379.15 -42.25 375.45 -48.9 373.9 -51.15
M 129.85 -59.9
Q 132.35 -58.25 134 -55.6 135.25 -53.35 137.3 -48.45 139.0298828125 -44.357421875 141.4 -38.2
L 138.55 -38.2
Q 137.682421875 -39.8873046875 136.35 -42.25 132.65 -48.9 131.1 -51.15 129.1 -54 126.45 -55.25 123.85 -56.5 121.6 -56.5 121.2 -56.5 119.4 -56.4 117.6 -56.3 117.6 -55.9
L 122.4 -46.6
Q 123.1 -46.9 123.5 -47.25 124.35 -47.25 125.15 -47.25 126.35 -47.25 128.5 -46.25 130.6 -45.25 131.7 -43.45 132.3423828125 -42.3630859375 135.05 -38.2
L 82.2 -38.2 86.45 -30.35 108.85 -30.35
Q 108.85 -29.5 109.25 -27.35 109.35 -25.7 109.35 -22 109.35 -10.75 108.9 -7.55 108.5 -4.35 107.6 -4.35 106.95 -4.35 103.25 -6.4 99.45 -8.5 98.85 -8.5 97.35 -8.5 96.1 -6.85 94.8 -5.25 94.8 -3.6 94.8 -2.4 96 -0.25 97.55 2.75 101.1 7.15 105.8 12.95 113.2 21.05 120.6 29.15 127.35 36.2
L 131.2 31.65
Q 125.6 26.05 119.95 20.45 108.6 8.9 108.6 7.95 108.6 7 109.3 6.35 109.95 5.65 112.85 3.8 114.7 2.7 116.25 -0.25 117.85 -3.2 117.85 -6.25
L 117.85 -30.35 139.7 -30.35 139.7 30.25 148.05 35.15 148.05 -30.35 199.1 -30.35 199.1 -11.85 173.35 -11.85
Q 167.75 -11.85 165.75 -10.95 163.7 -9.95 163.7 -7.7 163.7 -5.75 168.5 1.1 173.3 7.95 175.2 7.95 176.25 7.95 176.95 7.25 177.75 6.5 177.75 4.95
L 177.75 -2.55
Q 177.75 -3.5 178.45 -3.75 179.1 -3.95 180.85 -3.95
L 199.1 -3.95 199.1 30.25 207.6 35.15 207.6 -30.35 252.9 -30.35 252.65 -7.1
Q 251 -9.45 249.25 -11.65 247.4 -13.85 245.25 -15.65 243.1 -17.35 240.2 -18 237.25 -18.6 233.85 -18.6 225 -18.6 220.5 -12.75 217.5 -8.85 217.5 -4.65 217.5 3.6 223.55 9.6 229.5 15.5 237.65 15.5 241.85 15.5 245.55 13.75 247.15 13 252.9 9.4
L 253.25 30.25 261.35 35.15 261.35 3.8
Q 265.65 0.2 269.9 -2.2 274.25 -4.6 276.65 -4.6 279.75 -4.6 281.7 -2.75 283.65 -1 283.65 2.3 283.65 6.3 281.35 11.55 279 16.8 275.35 21.8
L 282.5 28.25
Q 290 16.8 290 9.25 290 -1.25 284.15 -7.55 279.5 -12.6 274.5 -12.6 271.25 -12.6 268.05 -10.8 265.5 -9.45 261.35 -6.25
L 261.35 -30.35 300.4 -30.35 296 -38.2 145.15 -38.2
Q 144.0236328125 -41.4396484375 140.1 -50.65 135.4 -61.85 133.15 -65.2 130.85 -68.6 127.1 -70.45 124.2 -71.85 121.35 -71.85 119.2 -71.85 117.8 -71.7 116.35 -71.6 116.35 -71.1 116.45 -70.75 119.5 -65.6 120.35 -63.95 122.4 -60.75 123.1 -61.1 123.75 -61.6 124.75 -61.6 125.75 -61.6 127.4 -61.6 129.85 -59.9
M 227.4 -8
Q 231 -10.85 235.5 -10.85 241.5 -10.85 245.2 -8.65 248.85 -6.5 252.9 -0.85 247.3 3.45 242.1 6 236.85 8.5 233 8.5 229.1 8.5 226.45 6.2 223.85 3.95 223.85 0.1 223.85 -5.15 227.4 -8
M 11.6 -60.5
Q 17.75 -60.5 22.4 -55.25 27.55 -49.3 29.1 -38.2
L -76.1 -38.2 -71.75 -30.35 -28.2 -30.35 -28.45 -7.1
Q -30.1 -9.45 -31.85 -11.65 -33.7 -13.85 -35.85 -15.65 -38 -17.35 -40.9 -18 -43.85 -18.6 -47.25 -18.6 -56.1 -18.6 -60.6 -12.75 -63.6 -8.85 -63.6 -4.65 -63.6 3.6 -57.55 9.6 -51.6 15.5 -43.45 15.5 -39.25 15.5 -35.55 13.75 -33.95 13 -28.2 9.4
L -27.85 30.25 -19.75 35.15 -19.75 3.8
Q -15.45 0.2 -11.2 -2.2 -6.85 -4.6 -4.45 -4.6 -1.35 -4.6 0.6 -2.75 2.55 -1 2.55 2.3 2.55 6.3 0.25 11.55 -2.1 16.8 -5.75 21.8
L 1.4 28.25
Q 8.9 16.8 8.9 9.25 8.9 -1.25 3.05 -7.55 -1.6 -12.6 -6.6 -12.6 -9.85 -12.6 -13.05 -10.8 -15.6 -9.45 -19.75 -6.25
L -19.75 -30.35 27.4 -30.35 27.4 30.25 35.65 35.15 35.65 -30.35 48.75 -30.35 44.5 -38.2 33.4 -38.2
Q 31.35 -53.25 25.15 -61.1 19.4 -68.35 11.15 -68.35 4.9 -68.35 0.85 -64.5 -3.25 -60.75 -3.25 -54.2 -3.25 -52.6 -2.15 -49.75 -1 -46.8 -0.1 -45.95
L 3 -47.15
Q 3 -60.5 11.6 -60.5
M -53.7 -8
Q -50.1 -10.85 -45.6 -10.85 -39.6 -10.85 -35.9 -8.65 -32.25 -6.5 -28.2 -0.85 -33.8 3.45 -39 6 -44.25 8.5 -48.1 8.5 -52 8.5 -54.65 6.2 -57.25 3.95 -57.25 0.1 -57.25 -5.15 -53.7 -8
M -223.8 -38.2
L -219.65 -30.35 -211.05 -30.35 -211.05 -27.25
Q -211.05 -24.5 -208.65 -21.35 -205.55 -17.2 -198.95 -13.2 -203.8 -10.45 -205.45 -8 -207.2 -5.5 -207.2 -1.85 -207.2 4.75 -200.15 10.25 -193.7 15.35 -186.8 15.35 -180.25 15.35 -175.2 13.1 -171.0376953125 11.2455078125 -166.4 6.6
L -166.4 30.25 -158.05 35.15 -158.05 -30.35 -129.1 -30.35
Q -129.1 -29.5 -128.7 -27.35 -128.6 -25.7 -128.6 -22 -128.6 -10.75 -129.05 -7.55 -129.45 -4.35 -130.35 -4.35 -131 -4.35 -134.7 -6.4 -138.5 -8.5 -139.1 -8.5 -140.6 -8.5 -141.85 -6.85 -143.15 -5.25 -143.15 -3.6 -143.15 -2.4 -141.95 -0.25 -140.4 2.75 -136.85 7.15 -132.15 12.95 -124.75 21.05 -117.35 29.15 -110.6 36.2
L -106.75 31.65
Q -112.35 26.05 -118 20.45 -129.35 8.9 -129.35 7.95 -129.35 7 -128.65 6.35 -128 5.65 -125.1 3.8 -123.25 2.7 -121.7 -0.25 -120.1 -3.2 -120.1 -6.25
L -120.1 -30.35 -103.4 -30.35 -107.6 -38.2 -223.8 -38.2
M -200.95 -27.85
Q -200.2 -29.35 -199.15 -30.35
L -166.4 -30.35 -166.4 -3.45
Q -174.466796875 3.7349609375 -179.95 6.9 -186.2 10.35 -191.7 10.35 -195.3 10.35 -197.5 7.8 -199.65 5.25 -199.65 1.5 -199.65 -2.75 -196.3 -4.7 -193.8 -6.25 -189.9 -6.25 -188.95 -6.25 -184.55 -5.15 -180.15 -3.95 -179.3 -3.95 -178.8 -3.95 -178.3 -4.2 -177.75 -4.45 -177.75 -5.15
L -180.25 -11.85
Q -182.3 -13.35 -186.3 -14 -190.4 -14.6 -194.5 -14.6 -197.5 -16.6 -199.55 -19.15 -201.65 -21.75 -201.65 -23.7 -201.65 -26.3 -200.95 -27.85
M -414.95 -39.35
Q -420.8 -39.35 -423.8 -35.35 -426.2 -32.25 -426.2 -27.65 -426.2 -22.4 -422.85 -18.75 -418.3 -14 -406.85 -10.65
L -407.35 -2.65 -413.45 -2.65
Q -414.6 -2.65 -415.4 -1.6 -416.2 -0.5 -416.2 0.5 -416.2 2.75 -409.65 8.4 -403.05 14.05 -401.35 14.05 -400.6 14.05 -399.7 13.4 -398.85 12.75 -398.85 11.75
L -398.85 4.5 -375.5 4.5 -375.5 30.25 -367.15 35.15 -367.15 -30.35 -349.85 -30.35 -349.85 30.25 -341.5 35.15 -341.5 -30.35 -311.8 -30.35
Q -311.8 -29.5 -311.4 -27.35 -311.3 -25.7 -311.3 -22 -311.3 -10.75 -311.75 -7.55 -312.15 -4.35 -313.05 -4.35 -313.7 -4.35 -317.4 -6.4 -321.2 -8.5 -321.8 -8.5 -323.3 -8.5 -324.55 -6.85 -325.85 -5.25 -325.85 -3.6 -325.85 -2.4 -324.65 -0.25 -323.1 2.75 -319.55 7.15 -314.85 12.95 -307.45 21.05 -300.05 29.15 -293.3 36.2
L -289.45 31.65
Q -295.05 26.05 -300.7 20.45 -312.05 8.9 -312.05 7.95 -312.05 7 -311.35 6.35 -310.7 5.65 -307.8 3.8 -305.95 2.7 -304.4 -0.25 -302.8 -3.2 -302.8 -6.25
L -302.8 -30.35 -278.45 -30.35 -278.45 30.25 -270.2 35.15 -270.2 -30.35 -257.1 -30.35 -261.35 -38.2 -272.45 -38.2
Q -274.5 -53.25 -280.7 -61.1 -286.45 -68.35 -294.7 -68.35 -300.95 -68.35 -305 -64.5 -309.1 -60.75 -309.1 -54.2 -309.1 -52.6 -308 -49.75 -306.85 -46.8 -305.95 -45.95
L -302.85 -47.15
Q -302.85 -60.5 -294.25 -60.5 -288.1 -60.5 -283.45 -55.25 -278.3 -49.3 -276.75 -38.2
L -344.4 -38.2
Q -345.5263671875 -41.4396484375 -349.45 -50.65 -354.15 -61.85 -356.4 -65.2 -358.7 -68.6 -362.45 -70.45 -365.35 -71.85 -368.2 -71.85 -370.35 -71.85 -371.75 -71.7 -373.2 -71.6 -373.2 -71.1 -373.1 -70.75 -370.05 -65.6 -369.2 -63.95 -367.15 -60.75 -366.45 -61.1 -365.8 -61.6 -364.8 -61.6 -363.8 -61.6 -362.15 -61.6 -359.7 -59.9 -357.2 -58.25 -355.55 -55.6 -354.3 -53.35 -352.25 -48.45 -350.5201171875 -44.357421875 -348.15 -38.2
L -351 -38.2
Q -351.867578125 -39.8873046875 -353.2 -42.25 -356.9 -48.9 -358.45 -51.15 -360.45 -54 -363.1 -55.25 -365.7 -56.5 -367.95 -56.5 -368.35 -56.5 -370.15 -56.4 -371.95 -56.3 -371.95 -55.9
L -367.15 -46.6
Q -366.45 -46.9 -366.05 -47.25 -365.2 -47.25 -364.4 -47.25 -363.2 -47.25 -361.05 -46.25 -358.95 -45.25 -357.85 -43.45 -357.2076171875 -42.3630859375 -354.5 -38.2
L -397.3 -38.2 -393.15 -30.35 -375.5 -30.35 -375.5 -2.65 -398.85 -2.65 -398.85 -17.9
Q -398.85 -29 -403.85 -34.6 -408.05 -39.35 -414.95 -39.35
M -417.7 -25.75
Q -417.7 -28.65 -416.1 -30.9 -414.6 -33.15 -411.85 -33.15 -408.9 -33.15 -407.4 -31.25 -405.8 -29.35 -405.8 -23.85 -405.8 -19.55 -406.35 -15.65 -410.45 -16.1 -414.1 -19 -417.7 -21.85 -417.7 -25.75 Z"/>
</g>
</defs>

<g transform="matrix( 1, 0, 0, 1, 675.25,232.5) ">
<g filter="url(#Filter_1)" transform="matrix( 1, 0, 0, 1, -675.25,-232.5) ">
<g transform="matrix( 1, 0, 0, 1, 675.25,181) ">
<g transform="matrix( 1, 0, 0, 1, 0,0) ">
<use xlink:href="#Duplicate_Items_Folder_Symbol_11_copy_0_Layer0_0_FILL"/>
</g>
</g>
</g>

<g transform="matrix( 1, 0, 0, 1, 0,0) ">
<use xlink:href="#Duplicate_Items_Folder_Symbol_8_copy_2_0_Layer0_1_FILL"/>
</g>

<g transform="matrix( 1, 0, 0, 1, 0,-51.5) ">
<g transform="matrix( 1, 0, 0, 1, 0,0) ">
<use xlink:href="#Duplicate_Items_Folder_Symbol_1_copy_3_0_Layer0_0_FILL"/>
</g>
</g>

<g transform="matrix( 1, 0, 0, 1, 0,0) ">
<use xlink:href="#Duplicate_Items_Folder_Symbol_8_copy_2_0_Layer0_3_FILL"/>
</g>

<g transform="matrix( 1, 0, 0, 1, 0,0) ">
<use xlink:href="#Duplicate_Items_Folder_Symbol_8_copy_2_0_Layer0_4_FILL"/>
</g>
</g>

<g transform="matrix( 1, 0, 0, 1, 677.5,163.75) ">
<g transform="matrix( 1, 0, 0, 1, 0,0) ">
<use xlink:href="#Symbol_2_1_Layer1_0_FILL"/>
</g>
</g>
</svg>
