
<svg xmlns="http://www.w3.org/2000/svg" version="1.1" xmlns:xlink="http://www.w3.org/1999/xlink" preserveAspectRatio="none" x="0px" y="0px" width="122px" height="135px" viewBox="0 0 122 135">
<defs>
<g id="Symbol_1_6_Layer1_0_FILL">
<path fill="#000000" stroke="none" d="
M 34.9 -11.05
Q 35 -9.4 35 -5.7 35 5.55 34.55 8.75 34.15 11.95 33.25 11.95 32.6 11.95 28.9 9.9 25.1 7.8 24.5 7.8 23 7.8 21.75 9.45 20.45 11.05 20.45 12.7 20.45 13.9 21.65 16.05 23.2 19.05 26.75 23.45 31.45 29.25 38.85 37.35 46.25 45.45 53 52.5
L 56.85 47.95
Q 51.25 42.35 45.6 36.75 34.25 25.2 34.25 24.25 34.25 23.3 34.95 22.65 35.6 21.95 38.5 20.1 40.35 19 41.9 16.05 43.5 13.1 43.5 10.05
L 43.5 -14.05 60.2 -14.05 56 -21.9 -60.2 -21.9 -56.05 -14.05 -47.45 -14.05 -47.45 -10.95
Q -47.45 -8.2 -45.05 -5.05 -41.95 -0.9 -35.35 3.1 -40.2 5.85 -41.85 8.3 -43.6 10.8 -43.6 14.45 -43.6 21.05 -36.55 26.55 -30.1 31.65 -23.2 31.65 -16.65 31.65 -11.6 29.4 -7.45 27.55 -2.8 22.9
L -2.8 46.55 5.55 51.45 5.55 -14.05 34.5 -14.05
Q 34.5 -13.2 34.9 -11.05
M -37.35 -11.55
Q -36.6 -13.05 -35.55 -14.05
L -2.8 -14.05 -2.8 12.85
Q -10.85 20.05 -16.35 23.2 -22.6 26.65 -28.1 26.65 -31.7 26.65 -33.9 24.1 -36.05 21.55 -36.05 17.8 -36.05 13.55 -32.7 11.6 -30.2 10.05 -26.3 10.05 -25.35 10.05 -20.95 11.15 -16.55 12.35 -15.7 12.35 -15.2 12.35 -14.7 12.1 -14.15 11.85 -14.15 11.15
L -16.65 4.45
Q -18.7 2.95 -22.7 2.3 -26.8 1.7 -30.9 1.7 -33.9 -0.3 -35.95 -2.85 -38.05 -5.45 -38.05 -7.4 -38.05 -10 -37.35 -11.55 Z"/>
</g>
</defs>

<g transform="matrix( 1, 0, 0, 1, 61,55.75) ">
<g transform="matrix( 1, 0, 0, 1, 0,0) ">
<use xlink:href="#Symbol_1_6_Layer1_0_FILL"/>
</g>
</g>
</svg>
