
<svg xmlns="http://www.w3.org/2000/svg" version="1.1" xmlns:xlink="http://www.w3.org/1999/xlink" preserveAspectRatio="none" x="0px" y="0px" width="385px" height="460px" viewBox="0 0 385 460">
<defs>
<radialGradient id="Gradient_1" gradientUnits="userSpaceOnUse" cx="0" cy="0" r="583.0125" fx="0" fy="0" gradientTransform="matrix( 0.9999999999999999, 0, 0, 0.34771981732810187, -11.55,113.5) " spreadMethod="pad">
<stop  offset="0%" stop-color="#FFFFFF"/>

<stop  offset="16.862745098039216%" stop-color="#F7F8F8"/>

<stop  offset="38.8235294117647%" stop-color="#EAEAEB"/>

<stop  offset="63.529411764705884%" stop-color="#D4D5D7"/>

<stop  offset="90.19607843137256%" stop-color="#B6B8BA"/>

<stop  offset="100%" stop-color="#AAACAE"/>
</radialGradient>

<radialGradient id="Gradient_2" gradientUnits="userSpaceOnUse" cx="0" cy="0" r="162.175" fx="0" fy="0" gradientTransform="matrix( 0, -0.9999999999999999, 2.038538615692924, 0, -13.35,213.3) " spreadMethod="pad">
<stop  offset="0%" stop-color="#FFFFFF"/>

<stop  offset="16.862745098039216%" stop-color="#F7F8F8"/>

<stop  offset="38.8235294117647%" stop-color="#EAEAEB"/>

<stop  offset="63.529411764705884%" stop-color="#D4D5D7"/>

<stop  offset="90.19607843137256%" stop-color="#B6B8BA"/>

<stop  offset="100%" stop-color="#AAACAE"/>
</radialGradient>

<radialGradient id="Gradient_3" gradientUnits="userSpaceOnUse" cx="0" cy="0" r="52.5125" fx="0" fy="0" gradientTransform="matrix( 1, 0, 0, 1, 8,67.7) " spreadMethod="pad">
<stop  offset="0%" stop-color="#FFFFFF"/>

<stop  offset="16.862745098039216%" stop-color="#F7F8F8"/>

<stop  offset="38.8235294117647%" stop-color="#EAEAEB"/>

<stop  offset="63.529411764705884%" stop-color="#D4D5D7"/>

<stop  offset="90.19607843137256%" stop-color="#B6B8BA"/>

<stop  offset="100%" stop-color="#AAACAE"/>
</radialGradient>

<linearGradient id="Gradient_4" gradientUnits="userSpaceOnUse" x1="-58.7375" y1="-12.099999999999994" x2="47.1375" y2="-164.6" spreadMethod="pad">
<stop  offset="0%" stop-color="#F8F8F9"/>

<stop  offset="22.352941176470587%" stop-color="#EFF0F1"/>

<stop  offset="60.78431372549019%" stop-color="#D9DBDC"/>

<stop  offset="100%" stop-color="#BEC0C2"/>
</linearGradient>

<g id="Mask_Cloud_copy_5_1_3_MASK_0_FILL">
<path fill="#FFFFFF" stroke="none" d="
M -228.85 -150.1
L -228.85 342.75 216.15 342.75 216.15 -150.1 -228.85 -150.1 Z"/>
</g>

<g id="Cloud_copy_5_1_Layer3_0_FILL">
<path fill="url(#Gradient_1)" stroke="none" d="
M 205.9 153.35
Q 205.999609375 124.666015625 181 104.35 156.643359375 84.5548828125 122.1 84.55 115.674609375 84.5521484375 109.55 85.25 101.412890625 71.2296875 85.7 59.6 53.5916015625 35.7533203125 8.2 35.75 -37.191796875 35.7533203125 -69.3 59.6 -80.03515625 67.534765625 -87.25 76.55 -90.5845703125 75.953125 -94.2 75.95 -107.646875 75.97734375 -117.2 84.45
L -117.25 84.5
Q -118.9140625 85.987890625 -120.3 87.6 -127.6966796875 86.2486328125 -135.75 86.25 -164.6216796875 86.2875 -185.05 103.6 -205.920703125 121.4033203125 -205.85 146.5 -205.9228515625 171.59921875 -185.05 189.3 -168.9216796875 203.0412109375 -147.5 205.95 -147.59765625 207.4900390625 -147.6 209.05 -147.749609375 230.021484375 -128 244.8 -109.0048828125 259.0005859375 -82.2 259 -66.39609375 258.9984375 -53.3 254.05 -52.6767578125 254.4236328125 -52.05 254.8
L -52 254.8
Q -23.727734375 270.998828125 16.3 271 56.327734375 270.998828125 84.6 254.8 102.2048828125 244.8037109375 109.25 232.25 110.7244140625 232.448046875 112.25 232.45 120.84453125 232.4392578125 126.9 226.5
L 126.9 226.5
Q 129.1677734375 224.3388671875 130.6 221.85 159.6587890625 219.6560546875 181 202.25 206.0013671875 182.0361328125 205.9 153.35
M 29.3 69.9
Q 29.3 73.5 27.9 76.6 26.4 79.95 23.3 82.65 17.3 87.95 8.8 87.95 0.3 87.95 -5.7 82.65 -8.45 80.25 -9.95 77.35 -11.7 73.95 -11.7 69.9 -11.7 62.4 -5.7 57.1 0.3 51.85 8.8 51.85 17.3 51.85 23.3 57.1 29.3 62.4 29.3 69.9 Z"/>
</g>

<g id="Cloud_copy_5_1_Layer2_0_FILL">
<path fill="url(#Gradient_2)" stroke="none" d="
M 201.35 153.35
Q 201.35 126.75 178.15 107.9 154.95 89.1 122.1 89.1 114.35 89.1 107.1 90.15 99.35 75.35 83 63.25 52 40.3 8.2 40.3 -35.6 40.3 -66.6 63.25 -78.15 71.8 -85.4 81.7 -89.55 80.5 -94.2 80.5 -105.9 80.5 -114.2 87.9 -116.7 90.1 -118.45 92.65 -126.65 90.8 -135.75 90.8 -162.9 90.8 -182.1 107.1 -201.3 123.45 -201.3 146.5 -201.3 169.55 -182.1 185.85 -165.3 200.15 -142.35 201.95 -143.05 205.4 -143.05 209.05 -143.05 227.85 -125.25 241.15 -107.4 254.45 -82.2 254.45 -66.05 254.45 -52.9 249 -51.4 249.9 -49.75 250.85 -22.4 266.45 16.3 266.45 55 266.45 82.35 250.85 100.75 240.4 106.8 227.05 109.35 227.9 112.25 227.9 119 227.9 123.75 223.25 126.45 220.65 127.65 217.5 156.9 216 178.15 198.75 201.35 179.95 201.35 153.35
M 23.3 82.65
Q 17.3 87.95 8.8 87.95 0.3 87.95 -5.7 82.65 -8.45 80.25 -9.95 77.35 -11.7 73.95 -11.7 69.9 -11.7 62.4 -5.7 57.1 0.3 51.85 8.8 51.85 17.3 51.85 23.3 57.1 29.3 62.4 29.3 69.9 29.3 73.5 27.9 76.6 26.4 79.95 23.3 82.65 Z"/>

<path fill="url(#Gradient_3)" stroke="none" d="
M 9 60.8
Q 16.9 60.8 22.5 66.2 27.05 70.65 27.9 76.6 29.3 73.5 29.3 69.9 29.3 62.4 23.3 57.1 17.3 51.85 8.8 51.85 0.3 51.85 -5.7 57.1 -11.7 62.4 -11.7 69.9 -11.7 73.95 -9.95 77.35 -9.3 70.95 -4.45 66.2 1.1 60.8 9 60.8 Z"/>
</g>

<g id="Cloud_copy_5_1_Layer2_1_FILL">
<path fill="url(#Gradient_4)" stroke="none" d="
M 9.2 -280.05
L 6.9 -280.05
Q 6 -212 7.6 -74.5 8.35 -4.85 9.45 58.65 9.5 59.55 9.85 60.2 10.15 60.8 10.65 60.8
L 10.7 60.8
Q 11.2 60.75 11.5 60.1 11.85 59.4 11.8 58.45 10.2 -36.1 9.35 -131.25 8.55 -224.25 9.2 -280.05 Z"/>
</g>
</defs>

<g transform="matrix( 0.92156982421875, 0, 0, 0.92156982421875, 192.45,138.35) ">
<mask id="Mask_Mask_1">
<g transform="matrix( 1, 0, 0, 1, 0,0) ">
<use xlink:href="#Mask_Cloud_copy_5_1_3_MASK_0_FILL"/>
</g>
</mask>

<g mask="url(#Mask_Mask_1)">
<g transform="matrix( 1, 0, 0, 1, 0,0) ">
<use xlink:href="#Cloud_copy_5_1_Layer3_0_FILL"/>
</g>
</g>

<g mask="url(#Mask_Mask_1)">
<g transform="matrix( 1, 0, 0, 1, 0,0) ">
<use xlink:href="#Cloud_copy_5_1_Layer2_0_FILL"/>
</g>

<g transform="matrix( 1, 0, 0, 1, 0,0) ">
<use xlink:href="#Cloud_copy_5_1_Layer2_1_FILL"/>
</g>
</g>

<g mask="url(#Mask_Mask_1)"/>
</g>
</svg>
