
<svg xmlns="http://www.w3.org/2000/svg" version="1.1" xmlns:xlink="http://www.w3.org/1999/xlink" preserveAspectRatio="none" x="0px" y="0px" width="278px" height="216px" viewBox="0 0 278 216">
<defs>
<g id="Symbol_4_4_Layer0_0_FILL">
<path fill="#000000" stroke="none" d="
M 185.15 70.6
L 200.95 70.6 200.95 62.7 76.7 62.7 76.7 70.6 174.9 70.6 174.9 95.05 128.9 95.25
Q 130.6 96.55 131.8 98.55
L 136.8 105.9
Q 140.1 110.1 142.45 117.25 144.15 122.8 144.15 127.25 144.15 133.45 140.95 137.75 137.75 142.1 132 142.1 121.55 142.1 112.15 128.65 104.45 117.8 100.2 104.75
L 96.75 93.95 96.35 91.4 96.35 89.9 88.05 96.1 88.85 100.35 92.5 110.3
Q 98.6 126.3 106.5 136 118.25 149.6 131.15 149.6 136.6 149.6 140.85 148.1 149.5 144.25 152.2 136 153.55 132.5 153.65 130.5 153.75 128.65 153.75 126.85
L 153 121.7 151 114.9 147.6 106.45
Q 146.2 103.15 145.1 102.6
L 174.9 102.6 174.9 162.15 185.15 162.15 185.15 70.6 Z"/>
</g>
</defs>

<g transform="matrix( 1, 0, 0, 1, -0.6,-1.45) ">
<g transform="matrix( 1, 0, 0, 1, 0,0) ">
<use xlink:href="#Symbol_4_4_Layer0_0_FILL"/>
</g>
</g>
</svg>
