
<svg xmlns="http://www.w3.org/2000/svg" version="1.1" xmlns:xlink="http://www.w3.org/1999/xlink" preserveAspectRatio="none" x="0px" y="0px" width="278px" height="216px" viewBox="0 0 278 216">
<defs>
<g id="Layer0_0_FILL">
<path fill="#000000" stroke="none" d="
M 181.5 69
L 195.5 69 195.5 61 152.75 61 152.75 69 171.6 69 171.6 108.7 169 109.75 162.25 111.45 153.2 111.45 146.65 108.9 135.1 102.9 133.3 102.5 132.35 102.7
Q 143.4 96.45 143.4 84.15 143.4 74.7 137.4 68.25 130.15 61 120.85 61 108.55 61 98.95 68.9
L 92.55 74.25
Q 91.15 75.6 90.85 75.95 90.55 76.35 90.35 77
L 98 83.1 101.9 78.9 109.15 72.8
Q 115.15 69 120.1 69 123.3 69 126.85 70.35 132.35 72.9 133.5 78.25 134.25 80.35 134.25 84.15 134.25 88.25 132.1 91.95 127.2 99.4 118.25 101.75 117.3 101.95 114.55 102.5 112.25 102.5 109.9 102.5
L 113.2 109.75 115.3 109.75
Q 117.15 108.6 119.5 108.6
L 122.85 108.6
Q 128.45 108.6 134.15 111.65 139.8 114.6 141.2 119.95 142.35 122.05 142.55 123.45 142.75 124.8 142.75 127.95 142.75 131 141.4 134.5 136.45 145.45 127.5 145.45 114.45 145.45 102.55 127.65
L 97.7 120.4 91.6 109.75 83.6 115
Q 83.6 120.25 96.3 135.1 103.8 144.15 111.4 148.6 115.7 151.1 119.2 152.15 122.85 153.1 126.95 153.1
L 132.35 153.1
Q 152.45 149.2 152.45 128.4
L 152.45 124.05 151.3 119.55 149.9 116.15 152.05 117.2 158.15 118.9 165.8 118.9 171.6 117.4 171.6 161.65 181.5 161.65 181.5 69 Z"/>
</g>
</defs>

<g transform="matrix( 1, 0, 0, 1, -0.6,-1.45) ">
<g transform="matrix( 1, 0, 0, 1, 0,0) ">
<use xlink:href="#Layer0_0_FILL"/>
</g>
</g>
</svg>
