
<svg xmlns="http://www.w3.org/2000/svg" version="1.1" xmlns:xlink="http://www.w3.org/1999/xlink" preserveAspectRatio="none" x="0px" y="0px" width="347px" height="249px" viewBox="0 0 347 249">
<defs>
<filter id="Filter_1" x="-20%" y="-20%" width="140%" height="140%" color-interpolation-filters="sRGB">
<feFlood flood-color="#250D09" flood-opacity="1" in="SourceGraphic" result="result1"/>

<feComposite in2="SourceGraphic" in="result1" operator="in" result="result2"/>

<feGaussianBlur in="result2" stdDeviation="1.6666666666666667,1.6666666666666667" result="result3"/>

<feOffset dx="0" dy="0" in="result3" result="result4"/>

<feComposite in2="result4" in="SourceGraphic" operator="over" result="result5"/>
</filter>

<g id="Symbol_9_0_Layer0_0_FILL">
<path fill="#FFFFFF" stroke="none" d="
M 34.6 -48.6
L 34.6 -27.4 -17.65 -27.4 -19.6 -22.8
Q -8.6 -16.15 -2.6 -10.4 5.95 -2 5.95 6 5.95 11.55 2.95 15.2 0 18.8 -5.85 18.8 -10.65 18.8 -16.9 14.8 -23.2 10.8 -27.25 5.2 -32.4 -2 -35.05 -6.8 -38.45 -12.95 -41.8 -21.15
L -49.4 -18
Q -42.25 -2.6 -37.2 5.6 -29.65 18.4 -21.85 24.55 -12.4 32.2 -1.45 32.2 5.95 32.2 12.15 27.4 19.15 22 19.15 13.45 19.15 6 14.75 -0.85 11.55 -5.8 2.55 -14.8
L 34.6 -14.8 34.6 48.4 48.15 56.2 48.15 -48.6 71.2 -48.6 64.35 -61.2 -69.4 -61.2 -62.4 -48.6 34.6 -48.6 Z"/>
</g>
</defs>

<g transform="matrix( 1, 0, 0, 1, 183.6,122.15) ">
<g transform="matrix( 1, 0, 0, 1, -0.9,0) ">
<g filter="url(#Filter_1)" transform="matrix( 1, 0, 0, 1, -182.7,-122.15) ">
<g transform="matrix( 1, 0, 0, 1, 182.7,122.15) ">
<g transform="matrix( 1, 0, 0, 1, 0,0) ">
<use xlink:href="#Symbol_9_0_Layer0_0_FILL"/>
</g>
</g>
</g>
</g>
</g>
</svg>
