
<svg xmlns="http://www.w3.org/2000/svg" version="1.1" xmlns:xlink="http://www.w3.org/1999/xlink" preserveAspectRatio="none" x="0px" y="0px" width="347px" height="249px" viewBox="0 0 347 249">
<defs>
<filter id="Filter_1" x="-20%" y="-20%" width="140%" height="140%" color-interpolation-filters="sRGB">
<feFlood flood-color="#250D09" flood-opacity="1" in="SourceGraphic" result="result1"/>

<feComposite in2="SourceGraphic" in="result1" operator="in" result="result2"/>

<feGaussianBlur in="result2" stdDeviation="1.6666666666666667,1.6666666666666667" result="result3"/>

<feOffset dx="0" dy="0" in="result3" result="result4"/>

<feComposite in2="result4" in="SourceGraphic" operator="over" result="result5"/>
</filter>

<g id="Symbol_10_0_Layer0_0_FILL">
<path fill="#FFFFFF" stroke="none" d="
M 27.9 -48.6
L 27.7 -14.6
Q 22.9 -22 15.7 -26.4 7.5 -31.4 -2.9 -31.4 -19.95 -31.4 -30.1 -22.4 -38.5 -15 -38.5 -5.6 -38.5 6.8 -27.4 17.35 -16.25 27.8 -0.25 27.8 17.85 27.8 27.9 16.85
L 27.9 48.4 41.25 56.2 41.25 -48.6 58.25 -48.6 51.7 -61.2 -59.3 -61.2 -52.3 -48.6 27.9 -48.6
M 5.4 -21.65
Q 12.15 -21.65 17.15 -17.25 22.9 -12.05 22.9 -2.6 22.9 6.6 11.65 11.95
L -8.35 -19.2
Q -2.2 -21.05 -0.25 -21.35 1.6 -21.65 5.4 -21.65
M -22.1 -9.05
Q -18.9 -13.8 -15 -15.85
L 5.05 15.4
Q 1.4 17.05 -1.5 17.55 -4.55 18 -8.15 18 -15.75 18 -20.35 14.8 -26.1 10.8 -26.1 2.2 -26.1 -3.15 -22.1 -9.05 Z"/>
</g>
</defs>

<g transform="matrix( 1, 0, 0, 1, 183.6,122.15) ">
<g transform="matrix( 1, 0, 0, 1, 0.5,0) ">
<g filter="url(#Filter_1)" transform="matrix( 1, 0, 0, 1, -184.1,-122.15) ">
<g transform="matrix( 1, 0, 0, 1, 184.1,122.15) ">
<g transform="matrix( 1, 0, 0, 1, 0,0) ">
<use xlink:href="#Symbol_10_0_Layer0_0_FILL"/>
</g>
</g>
</g>
</g>
</g>
</svg>
