
<svg xmlns="http://www.w3.org/2000/svg" version="1.1" xmlns:xlink="http://www.w3.org/1999/xlink" preserveAspectRatio="none" x="0px" y="0px" width="278px" height="216px" viewBox="0 0 278 216">
<defs>
<g id="Symbol_4_0_Layer0_0_FILL">
<path fill="#000000" stroke="none" d="
M 172.45 69.3
L 186.45 69.3 186.45 61.3 87.8 61.3 87.8 69.3 115.3 69.3 120.15 75.5
Q 125.05 83.8 125.05 89 125.05 97.3 120.15 101.5 114.85 105.6 108.1 105.6
L 106.1 105.6
Q 105.7 105.6 104.35 105.6
L 101.05 104.45
Q 101.05 120.55 112.55 131.1 122.85 140.7 138.25 140.7 151.7 140.7 162.05 131.95
L 162.05 161.95 172.45 161.95 172.45 69.3
M 162.05 69.3
L 162.05 117.85 157.8 123.95
Q 154.85 127 151.5 129.2 145.1 133.65 136.95 133.65 122.45 133.65 115.5 119.65
L 114.85 118.45 113.5 115.3 112.95 113.4 119.6 111.7 124.45 109.7
Q 135.8 102.65 135.8 89.8
L 134.85 83.8 131.7 76.15 127.8 69.3 162.05 69.3 Z"/>
</g>
</defs>

<g transform="matrix( 1, 0, 0, 1, -0.6,-1.45) ">
<g transform="matrix( 1, 0, 0, 1, 0,0) ">
<use xlink:href="#Symbol_4_0_Layer0_0_FILL"/>
</g>
</g>
</svg>
