
<svg xmlns="http://www.w3.org/2000/svg" version="1.1" xmlns:xlink="http://www.w3.org/1999/xlink" preserveAspectRatio="none" x="0px" y="0px" width="278px" height="216px" viewBox="0 0 278 216">
<defs>
<g id="Symbol_4_3_Layer0_0_FILL">
<path fill="#000000" stroke="none" d="
M 163 69.3
L 179.35 69.3 179.35 61.5 160.8 61.5 153.85 49.2 148.1 40.45
Q 141.95 30.95 132.7 24.65 125.2 19.4 118.3 19.4 102.3 19.4 96.6 36 95.3 39.9 95.1 41.2 94.9 42.65 94.9 45.5
L 94.9 50 96.35 54.25 98.35 58.15 100.7 61.3 112.25 61.5 110.9 59.6 108.4 54.65
Q 107.75 53.5 107.3 52.05 106.8 50.55 106.15 48.45 105.45 46.25 105.45 43.8
L 105.45 40.1
Q 107 34.65 108.8 31.9 112.3 27.05 118.6 27.05 125.65 27.05 135 38 150.7 56 150.7 60.75
L 150.5 61.5 135.65 61.5 135.65 69.3 152.8 69.3 152.8 161.95 163 161.95 163 69.3 Z"/>
</g>
</defs>

<g transform="matrix( 1, 0, 0, 1, -0.6,-1.45) ">
<g transform="matrix( 1, 0, 0, 1, 0,0) ">
<use xlink:href="#Symbol_4_3_Layer0_0_FILL"/>
</g>
</g>
</svg>
