
<svg xmlns="http://www.w3.org/2000/svg" version="1.1" xmlns:xlink="http://www.w3.org/1999/xlink" preserveAspectRatio="none" x="0px" y="0px" width="278px" height="216px" viewBox="0 0 278 216">
<defs>
<g id="Symbol_4_2_Layer0_0_FILL">
<path fill="#000000" stroke="none" d="
M 172.05 69.3
L 191 69.3 191 61.3 142.55 61.3 142.55 69.3 161.7 69.3 161.7 110.3 157.15 117.1 152.7 121.95
Q 141.55 133.85 125.75 133.85 117.55 133.85 109 129
L 102.2 123.85
Q 99.25 121 98.15 118.05
L 100.2 118.05
Q 108.2 118.05 115.45 116.15 136.5 109.7 136.5 89 136.5 83.85 134.6 78.45 129.45 67.3 119.15 63.9 114.3 61.7 108.2 61.7 106.1 61.7 104.3 62.05 102.6 62.45 100.2 63 85.85 67.95 85.85 80.25 85.85 86.85 88.6 90.75 94.05 98.75 105.65 98.75
L 108.2 98.75 108.2 90.55 104.5 89.95 102.05 89.2
Q 95.75 86.25 95.75 80.65
L 96.5 76.35
Q 97.45 73.95 99.45 72.45 102.8 69.7 108.2 69.7 116.2 69.7 121.45 75.8 126.6 81.95 126.6 89 126.6 100.25 118.4 105.95 110.2 111.6 99.25 111.6
L 90.7 110.8 83.25 108.15 88.3 118.05
Q 89.55 120.25 91.1 122.35 92.05 123.75 93 124.9 100.2 133.4 108.4 137.6 113.1 140.05 117.25 141 121.45 141.85 126.6 141.85
L 133 141.85 139.45 140.05 145.65 137.5 152.1 133.75 156.6 130.45 161.7 125.6 161.7 161.95 172.05 161.95 172.05 69.3 Z"/>
</g>
</defs>

<g transform="matrix( 1, 0, 0, 1, -0.6,-1.45) ">
<g transform="matrix( 1, 0, 0, 1, 0,0) ">
<use xlink:href="#Symbol_4_2_Layer0_0_FILL"/>
</g>
</g>
</svg>
