
<svg xmlns="http://www.w3.org/2000/svg" version="1.1" xmlns:xlink="http://www.w3.org/1999/xlink" preserveAspectRatio="none" x="0px" y="0px" width="1365px" height="350px" viewBox="0 0 1365 350">
<defs>
<linearGradient id="Gradient_1" gradientUnits="userSpaceOnUse" x1="20.05" y1="-125.95" x2="20.05" y2="123.55" spreadMethod="pad">
<stop  offset="0%" stop-color="#FFF1C6"/>

<stop  offset="100%" stop-color="#FFE89C"/>
</linearGradient>

<filter id="Filter_1" x="-20%" y="-20%" width="140%" height="140%" color-interpolation-filters="sRGB">
<feFlood flood-color="#000000" flood-opacity="1" in="SourceGraphic" result="result1"/>

<feComposite in2="SourceGraphic" in="result1" operator="in" result="result2"/>

<feGaussianBlur in="result2" stdDeviation="3.3333333333333335,3.3333333333333335" result="result3"/>

<feOffset dx="3.5355339059327378" dy="3.5355339059327378" in="result3" result="result4"/>

<feComposite in2="result4" in="SourceGraphic" operator="over" result="result5"/>
</filter>

<g id="Symbol_16_copy_2_0_Layer0_0_FILL">
<path fill="url(#Gradient_1)" stroke="none" d="
M 492.85 -106.5
Q 492.85 -112.95 488.25 -117.5 483.7 -122.1 477.25 -122.1
L -477.2 -122.1
Q -483.7 -122.1 -488.3 -117.5 -492.9 -112.95 -492.9 -106.5
L -492.9 106.45
Q -492.9 112.9 -488.3 117.5 -483.7 122.1 -477.2 122.1
L 477.25 122.1
Q 483.7 122.1 488.25 117.5 492.85 112.9 492.85 106.45
L 492.85 -106.5 Z"/>
</g>
</defs>

<g filter="url(#Filter_1)" transform="matrix( 1, 0, 0, 1, 0,0) ">
<g transform="matrix( 1.367706298828125, 0, 0, 1.367706298828125, 677.15,170) ">
<g transform="matrix( 1, 0, 0, 1, 0,0) ">
<use xlink:href="#Symbol_16_copy_2_0_Layer0_0_FILL"/>
</g>
</g>
</g>
</svg>
