
<svg xmlns="http://www.w3.org/2000/svg" version="1.1" xmlns:xlink="http://www.w3.org/1999/xlink" preserveAspectRatio="none" x="0px" y="0px" width="870px" height="591px" viewBox="0 0 870 591">
<defs>
<g id="Duplicate_Items_Folder_Symbol_55_2_Layer2_0_FILL">
<path fill="#666666" stroke="none" d="
M 57.95 -40.35
Q 58.35 -35.75 58.35 -30.1 58.35 -18.3 56.8 -14.5 55.05 -10.55 51.15 -10.05
L 14.8 -1.1
Q 4.05 2.05 -0.95 7.55 -5.95 13.05 -5.95 24.1 -5.95 44.3 11.4 61.1 28.7 77.9 51 77.9 64.8 77.9 78.15 73.4 91.55 68.95 101 63.6
L 93 47.3
Q 75.55 55.55 63.2 59.25 51 62.8 39.2 62.8 27.9 62.8 19.4 54.5 10.7 46.1 10.7 34.6 10.7 17.1 28.15 13.6 52.95 9 66.1 5.3 72.25 3.35 74.35 -0.2 76.35 -3.85 76.35 -14.9 76.05 -22.9 75.7 -31.7 75.4 -40.35 75.4 -49.8
L 178.2 -49.8 177.7 0.2
Q 174.15 -4.9 170.35 -9.65 166.4 -14.35 161.8 -18.15 157.2 -21.85 150.9 -23.3 144.65 -24.6 137.3 -24.6 118.25 -24.6 108.55 -12 102.1 -3.6 102.1 5.45 102.1 23.15 115.1 36 127.95 48.75 145.4 48.75 154.45 48.75 162.45 44.95 165.9 43.35 178.2 35.65
L 179 80.5 196.45 91 196.45 23.55
Q 205.65 15.8 214.85 10.7 224.15 5.6 229.25 5.6 235.95 5.6 240.15 9.5 244.35 13.3 244.35 20.4 244.35 28.95 239.35 40.2 234.4 51.5 226.5 62.25
L 241.85 76.15
Q 258 51.5 258 35.35 258 12.8 245.4 -0.85 235.45 -11.6 224.65 -11.6 217.7 -11.6 210.75 -7.8 205.4 -4.9 196.45 2.05
L 196.45 -49.8 280.3 -49.8 270.85 -66.7 -280 -66.7 -271.1 -49.8 -242.6 -49.8 -242.6 -1.4
Q -242.6 11.75 -225.95 25.5 -210.6 38.1 -199.85 38.1 -193.4 38.1 -189.35 36.95 -185.3 35.65 -178.05 31.8
L -178.05 80.5 -159.3 91 -159.3 21.7
Q -149.85 13.85 -137.4 7.55 -124.9 1.25 -119 1.25 -112.6 1.25 -108.4 5.2 -104.2 9 -104.2 16.05 -104.2 24.35 -109.15 35.75 -114.15 47.15 -121.65 57.95
L -106.4 71.95
Q -90.55 46.9 -90.55 31.45 -90.55 8.45 -103.15 -5.2 -113.1 -15.95 -123.85 -15.95 -130.8 -15.95 -140.95 -11.2 -151.05 -6.5 -159.3 0.2
L -159.3 -49.8 -55.9 -49.8 -55.9 80.5 -37.95 91 -37.95 -49.8 57.15 -49.8
Q 57.45 -44.95 57.95 -40.35
M 123.35 -1.75
Q 131.1 -7.95 140.8 -7.95 153.7 -7.95 161.7 -3.2 169.55 1.5 178.2 13.6 166.15 22.9 155 28.3 143.7 33.65 135.45 33.65 127.05 33.65 121.4 28.8 115.75 23.95 115.75 15.7 115.75 4.4 123.35 -1.75
M -224.65 -0.85
L -224.65 -49.8 -177.25 -49.8 -177.25 9.9
Q -182.9 14.25 -192.35 18.15 -201.8 22.25 -208.5 22.25 -216.25 22.25 -220.45 16.75 -224.65 11.2 -224.65 -0.85 Z"/>
</g>

<g id="Duplicate_Items_Folder_Symbol_55_2_Layer1_0_FILL">
<path fill="#FFFFFF" stroke="none" d="
M 57.95 -40.35
Q 58.35 -35.75 58.35 -30.1 58.35 -18.3 56.8 -14.5 55.05 -10.55 51.15 -10.05
L 14.8 -1.1
Q 4.05 2.05 -0.95 7.55 -5.95 13.05 -5.95 24.1 -5.95 44.3 11.4 61.1 28.7 77.9 51 77.9 64.8 77.9 78.15 73.4 91.55 68.95 101 63.6
L 93 47.3
Q 75.55 55.55 63.2 59.25 51 62.8 39.2 62.8 27.9 62.8 19.4 54.5 10.7 46.1 10.7 34.6 10.7 17.1 28.15 13.6 52.95 9 66.1 5.3 72.25 3.35 74.35 -0.2 76.35 -3.85 76.35 -14.9 76.05 -22.9 75.7 -31.7 75.4 -40.35 75.4 -49.8
L 178.2 -49.8 177.7 0.2
Q 174.15 -4.9 170.35 -9.65 166.4 -14.35 161.8 -18.15 157.2 -21.85 150.9 -23.3 144.65 -24.6 137.3 -24.6 118.25 -24.6 108.55 -12 102.1 -3.6 102.1 5.45 102.1 23.15 115.1 36 127.95 48.75 145.4 48.75 154.45 48.75 162.45 44.95 165.9 43.35 178.2 35.65
L 179 80.5 196.45 91 196.45 23.55
Q 205.65 15.8 214.85 10.7 224.15 5.6 229.25 5.6 235.95 5.6 240.15 9.5 244.35 13.3 244.35 20.4 244.35 28.95 239.35 40.2 234.4 51.5 226.5 62.25
L 241.85 76.15
Q 258 51.5 258 35.35 258 12.8 245.4 -0.85 235.45 -11.6 224.65 -11.6 217.7 -11.6 210.75 -7.8 205.4 -4.9 196.45 2.05
L 196.45 -49.8 280.3 -49.8 270.85 -66.7 -280 -66.7 -271.1 -49.8 -242.6 -49.8 -242.6 -1.4
Q -242.6 11.75 -225.95 25.5 -210.6 38.1 -199.85 38.1 -193.4 38.1 -189.35 36.95 -185.3 35.65 -178.05 31.8
L -178.05 80.5 -159.3 91 -159.3 21.7
Q -149.85 13.85 -137.4 7.55 -124.9 1.25 -119 1.25 -112.6 1.25 -108.4 5.2 -104.2 9 -104.2 16.05 -104.2 24.35 -109.15 35.75 -114.15 47.15 -121.65 57.95
L -106.4 71.95
Q -90.55 46.9 -90.55 31.45 -90.55 8.45 -103.15 -5.2 -113.1 -15.95 -123.85 -15.95 -130.8 -15.95 -140.95 -11.2 -151.05 -6.5 -159.3 0.2
L -159.3 -49.8 -55.9 -49.8 -55.9 80.5 -37.95 91 -37.95 -49.8 57.15 -49.8
Q 57.45 -44.95 57.95 -40.35
M 123.35 -1.75
Q 131.1 -7.95 140.8 -7.95 153.7 -7.95 161.7 -3.2 169.55 1.5 178.2 13.6 166.15 22.9 155 28.3 143.7 33.65 135.45 33.65 127.05 33.65 121.4 28.8 115.75 23.95 115.75 15.7 115.75 4.4 123.35 -1.75
M -224.65 -0.85
L -224.65 -49.8 -177.25 -49.8 -177.25 9.9
Q -182.9 14.25 -192.35 18.15 -201.8 22.25 -208.5 22.25 -216.25 22.25 -220.45 16.75 -224.65 11.2 -224.65 -0.85 Z"/>
</g>
</defs>

<g transform="matrix( 1.1999969482421875, 0, 0, 1.1999969482421875, 433.8,293) ">
<g transform="matrix( 1, 0, 0, 1, -2.5,-14.5) ">
<g transform="matrix( 1, 0, 0, 1, 6.75,0) ">
<use xlink:href="#Duplicate_Items_Folder_Symbol_55_2_Layer2_0_FILL"/>
</g>

<g transform="matrix( 1, 0, 0, 1, 0,0) ">
<use xlink:href="#Duplicate_Items_Folder_Symbol_55_2_Layer1_0_FILL"/>
</g>
</g>
</g>
</svg>
