
<svg xmlns="http://www.w3.org/2000/svg" version="1.1" xmlns:xlink="http://www.w3.org/1999/xlink" preserveAspectRatio="none" x="0px" y="0px" width="278px" height="216px" viewBox="0 0 278 216">
<defs>
<g id="Symbol_4_1_Layer0_0_FILL">
<path fill="#000000" stroke="none" d="
M 164.25 69.3
L 179.85 69.3 179.85 61.35 100.35 61.35 100.35 69.3 153.9 69.3 153.9 93.75
Q 152.75 100.8 149.75 103.55 146.7 106.35 140.35 106.35 132.4 106.35 129.25 101.6
L 121.3 87.95 113.3 93.75 126.95 117.1 132.95 126
Q 142.25 140.05 151.8 151.1 159.8 160.6 162.75 161.6
L 169.85 154.95 155.55 139.65 150 132.85 136.1 112.85
Q 136.85 113.4 139.6 113.8
L 143.3 113.8
Q 147.2 113.8 151.05 112.45 164.25 107.25 164.25 94.65
L 164.25 69.3 Z"/>
</g>
</defs>

<g transform="matrix( 1, 0, 0, 1, -4.25,-1.45) ">
<g transform="matrix( 1, 0, 0, 1, 0,0) ">
<use xlink:href="#Symbol_4_1_Layer0_0_FILL"/>
</g>
</g>
</svg>
