
<svg xmlns="http://www.w3.org/2000/svg" version="1.1" xmlns:xlink="http://www.w3.org/1999/xlink" preserveAspectRatio="none" x="0px" y="0px" width="278px" height="216px" viewBox="0 0 278 216">
<defs>
<g id="Symbol_4_4_Layer1_0_FILL">
<path fill="#000000" stroke="none" d="
M 108.65 62.1
L 100.95 62.1 96.55 68.75
Q 93.05 72.85 89.9 75.4
L 81.8 81.9
Q 76.25 85.2 72.55 86.55
L 72.55 98.35 81.9 94.25 91.7 88
Q 94.15 86.25 96.55 83.7
L 96.55 160.15 108.65 160.15 108.65 62.1 Z"/>
</g>

<g id="Symbol_4_4_Layer1_1_FILL">
<path fill="#000000" stroke="none" d="
M 26.35 -69.55
L 9.1 -69.55 9.1 0.2 -34.75 0.2 -34.75 -69.3 -51.5 -69.3 -51.5 16.55 9.1 16.55 9.1 70.1 26.35 70.1 26.35 -69.55 Z"/>
</g>
</defs>

<g transform="matrix( 1, 0, 0, 1, -0.8,-1.45) ">
<g transform="matrix( 1, 0, 0, 1, 0,0) ">
<use xlink:href="#Symbol_4_4_Layer1_0_FILL"/>
</g>

<g transform="matrix( 0.7219696044921875, 0, 0, 0.7219696044921875, 172.35,110.6) ">
<use xlink:href="#Symbol_4_4_Layer1_1_FILL"/>
</g>
</g>
</svg>
