
<svg xmlns="http://www.w3.org/2000/svg" version="1.1" xmlns:xlink="http://www.w3.org/1999/xlink" preserveAspectRatio="none" x="0px" y="0px" width="1725px" height="210px" viewBox="0 0 1725 210">
<defs>
<g id="Symbol_12_0_Layer2_0_FILL">
<path fill="#000000" stroke="none" d="
M -511.15 -51.55
L -519.9 -60.35 -528.5 -51.8 -519.9 -42.95 -511.15 -51.55
M -583.95 -25.4
L -567.4 -25.4 -567.4 1.25 -573.3 1.25
Q -574.4 1.25 -575.15 2.25 -575.9 3.3 -575.9 4.25 -575.9 5.8 -569.95 12.15 -566.8541015625 15.4005859375 -564.85 16.95 -562.9697265625 18.45 -562.05 18.45 -559.25 18.45 -559.25 15
L -559.25 8.9 -534.6 8.9 -534.95 32.75 -526.6 37.45 -526.6 -25.4 -516.25 -25.4 -520.35 -33 -527.95 -33
Q -529.1 -36.15 -532.85 -44.95 -537.35 -55.65 -539.5 -58.9 -541.7 -62.15 -545.3 -63.9 -548.05 -65.25 -550.8 -65.25 -551.35 -65.25 -551.8 -65.25 -552 -65.25 -552.2 -65.25 -554.3 -65.25 -555.6 -65.15 -557.05 -65.05 -557.05 -64.55 -556.9 -64.2 -554 -59.3 -553.15 -57.7 -551.25 -54.6 -550.7 -54.85 -550.2 -55.2 -550.05 -54.9 -549.85 -54.6 -549.15 -54.95 -548.55 -55.4 -548.25 -55.4 -548 -55.4
L -547.9 -55.4
Q -546.35 -55.35 -544.1 -53.8 -541.7 -52.2 -540.1 -49.7 -538.85 -47.5 -536.95 -42.8 -535.25 -38.9 -532.95 -33
L -588.05 -33 -583.95 -25.4
M -559.25 -25.4
L -534.6 -25.4 -534.6 1.25 -559.25 1.25 -559.25 -25.4
M -630.45 -25.15
L -620.1 -25.15 -624.25 -32.75 -690.05 -32.75
Q -691.1556640625 -35.9091796875 -694.9 -44.7 -699.4 -55.4 -701.55 -58.65 -703.75 -61.9 -707.35 -63.65 -710.1 -65 -712.85 -65 -714.95 -65 -716.25 -64.9 -717.7 -64.8 -717.7 -64.3 -717.55 -63.95 -714.65 -59.05 -713.8 -57.45 -711.9 -54.35 -711.2 -54.7 -710.6 -55.15 -709.6 -55.15 -708.65 -55.15 -707.05 -55.15 -704.75 -53.55 -702.35 -51.95 -700.75 -49.45 -699.5 -47.25 -697.6 -42.55 -695.918359375 -38.6400390625 -693.6 -32.75
L -771 -32.75 -766.8 -25.15 -746.15 -25.15
Q -746.05 -21.3 -745.85 -18 -745.7 -14.75 -745.7 -12.45 -745.7 -8.7 -746.15 -5.6 -746.65 -2.45 -747.6 -1.05 -754.85 -3.8 -755.65 -3.8 -756.25 -3.8 -757.4 -2.4 -758.5 -1.05 -758.5 -0.2 -758.5 1.5 -755.2 7.7 -752.65 12.4 -749.25 16.85 -741.1 26.8 -734.2 31.15 -727.3 35.55 -719.85 35.55 -708.5 35.55 -694.9 25.55
L -694.9 33 -687 37.7 -687 -25.15 -638.7 -25.15 -638.7 -12.7 -657.9 -12.7
Q -663.5 -12.7 -667.45 -9.6 -672.2 -5.85 -672.2 1.3 -672.2 7.95 -668.3 15.8 -664.4 23.65 -654.6 35.9
L -650.25 32.3
Q -658.25 22.7 -661.55 16.7 -664.75 10.7 -664.75 5.75 -664.75 0 -661.85 -2.55 -658.9 -5.15 -652.65 -5.15
L -638.25 -5.15 -638.7 33 -630.45 37.7 -630.45 -25.15
M -737.55 -3.6
Q -737.55 -7.2 -737.9 -13.9 -738.25 -20.6 -738.25 -25.15
L -694.9 -25.15 -695.1 -5.5
Q -697.55 -9.1 -699 -10.65 -700.45 -12.2 -702.25 -13.55 -704.55 -15.2 -707.45 -15.9 -710.25 -16.55 -713.3 -16.55 -721.95 -16.55 -726.25 -10.95 -729 -7.2 -729 -2.9 -729 5.05 -723.2 10.7 -717.4 16.3 -709.55 16.3 -704.8 16.3 -700.1 13.7 -698.05 12.5 -694.9 10.45
L -694.9 16.8
Q -703.1 22.5 -706.85 24.6 -714.8 28.8 -721.95 28.8 -729.25 28.8 -736.55 23.4 -742.6 18.95 -747.05 12.35 -742 8.65 -739.75 5 -737.55 1.45 -737.55 -3.6
M -719.25 -6.5
Q -716.15 -9 -711.65 -9 -706 -9 -702.4 -6.85 -698.75 -4.65 -694.9 0.75 -701.05 5.3 -705.6 7.4 -710.25 9.6 -714.1 9.6 -718.1 9.6 -720.55 7.35 -723 5.1 -723 1.45 -723 -3.5 -719.25 -6.5
M 589.8 -7.15
Q 591.7 -8.7 593.65 -8.7
L 617.35 -8.7
Q 620 -8.7 620 -11.35
L 620 -25.4 637.25 -25.4 633.15 -33 569.6 -33 573.55 -25.4 611.95 -25.4 611.95 -16.15 592.15 -16.15
Q 586.9 -16.15 584.35 -13.55 581.85 -10.9 581.85 -6.45 581.85 -4.05 583.9 -0.3 585.95 3.5 589.4 7 587.25 9.15 586.05 11.8 584.8 14.4 584.8 18 584.8 27.15 594.45 33.35 600.8 37.55 611.85 40.7 612.45 41.9 613.85 43.55 616.35 46.4 617.55 46.4 618.4 46.4 620.8 44.55 623.2 42.7 624.85 40.8 627.9 41.4 629.45 43.1 631 44.75 631 46.65 631 50.05 627.5 53.2 623.9 56.4 618.75 56.4 610.05 56.4 603.5 53.4 596.9 50.4 587.5 42
L 584.95 45.35
Q 595.4 54.35 603.3 58.45 612.45 63.1 621.75 63.1 629.1 63.1 633.55 58.55 637.1 54.85 637.1 49.95 637.1 43.9 632.15 39.7 627.15 35.4 620.3 35.4 616.7 35.4 614 36.7 613.55 36.95 613.2 37.15 603.6 33.6 598.6 29.55 593.2 25.1 593.2 20.15 593.2 15.35 597.65 10.65 602.7 5.4 609.65 5.4 612.65 5.4 615.4 7.65 618.15 9.85 618.15 12.95 618.15 19.35 609.45 21
L 613.9 27.85
Q 620.2 25.9 622.8 23 625.35 20.05 625.35 15.6 625.35 9.85 619.2 4.7 613 -0.45 607.5 -0.45 603.65 -0.45 599.75 0.5 595.85 1.45 592.4 3.9 590.45 2.4 589.15 0.55 587.95 -1.4 587.95 -3.35 587.95 -5.6 589.8 -7.15
M 302.55 -65.25
Q 300.45 -65.25 299.15 -65.15 297.7 -65.05 297.7 -64.55 297.85 -64.2 300.75 -59.3 301.6 -57.7 303.5 -54.6 304.2 -54.95 304.8 -55.4 305.8 -55.4 306.75 -55.4 308.35 -55.4 310.65 -53.8 313.05 -52.2 314.65 -49.7 315.9 -47.5 317.8 -42.8 319.5 -38.9 321.8 -33
L 319.05 -33
Q 318.2 -34.6 316.95 -36.85 313.35 -43.25 311.9 -45.4 309.95 -48.15 307.45 -49.35 304.95 -50.55 302.75 -50.55 302.4 -50.55 300.65 -50.45 298.95 -50.3 298.95 -49.95
L 303.5 -41
Q 304.2 -41.3 304.6 -41.65 305.4 -41.65 306.15 -41.65 307.35 -41.65 309.4 -40.7 311.45 -39.7 312.5 -38 313.05 -36.95 315.65 -33
L 271.65 -33 275.6 -25.4 288.35 -25.4 288.35 -3.8
Q 288.35 2.05 295.8 8.2 302.65 13.85 307.45 13.85 310.3 13.85 312.15 13.3 313.95 12.7 317.15 11
L 317.15 32.75 325.55 37.45 325.55 6.5
Q 329.75 3 335.35 0.2 340.9 -2.65 343.55 -2.65 346.4 -2.65 348.3 -0.85 350.15 0.85 350.15 4 350.15 7.7 347.95 12.8 345.7 17.9 342.35 22.7
L 349.15 28.95
Q 356.25 17.75 356.25 10.85 356.25 0.6 350.6 -5.5 346.15 -10.3 341.35 -10.3 338.25 -10.3 333.75 -8.2 329.25 -6.1 325.55 -3.1
L 325.55 -25.4 383.55 -25.4
Q 383.65 -24.25 383.9 -22.25 384.15 -20.25 384.15 -17.4 384.15 -6.4 383.75 -3.45 383.3 -0.45 382.3 -0.45 381.75 -0.45 378.15 -2.45 374.55 -4.45 373.95 -4.45 372.55 -4.45 371.3 -2.85 370.15 -1.35 370.15 0.25 370.15 3.35 376.5 11.25 382.05 18.25 399.35 37.45
L 403.25 33.75
Q 397.7 27.85 389.95 19.35 382.95 11.55 382.95 11.3 382.95 10.2 383.6 9.55 384.3 8.9 385.8 8.15 387.3 7.45 389.2 5.5 389.35 5.4 392 2.55 395.8 6.65 401.3 8.55 404.95 9.75 407.95 9.75 409.75 9.75 412.7 9.05 415.6 8.25 418.5 7.35
L 418.5 32.75 426.4 37.45 426.4 -25.4 494.6 -25.4 494.6 -8.15
Q 493.05 -9.6 490.25 -10.95 487.5 -12.35 485.1 -12.35 481.55 -12.35 478.45 -10.3 475.4 -8.3 471.95 -3.6 468.95 -7.3 464.85 -11.4 463.4 -12.8 460.8 -13.8 458.2 -14.75 455.45 -14.75 448.5 -14.75 444.15 -9 440.6 -4.2 440.6 1.35 440.6 11.1 449.65 21.5 457.15 30.15 469.95 38.45
L 473.35 34.35
Q 458.8 26.1 453.05 18.4 448.75 12.5 448.75 4.95 448.75 -0.95 452.6 -4.45 455.7 -7.3 459.7 -7.3 462.2 -7.3 465.25 -4.95 468.3 -2.65 470 0 469.4 0.85 468.55 2.4 467.7 3.95 466.7 5.75
L 473.35 10.2
Q 478.2 0.85 481.5 -2.4 484.8 -5.6 488.95 -5.6 492.05 -5.6 494.95 -3.6
L 494.6 32.75 502.75 37.45 502.75 -25.4 519.3 -25.4 519.3 32.75 527.35 37.45 527.35 -25.4 537.55 -25.4 533.55 -33 325.4 -33
Q 324.25 -36.15 320.5 -44.95 316 -55.65 313.85 -58.9 311.65 -62.15 308.05 -63.9 305.3 -65.25 302.55 -65.25
M 296.35 -25.4
L 317.5 -25.4 317.5 1.25
Q 315 3.15 310.8 4.95 306.55 6.75 303.55 6.75 300.1 6.75 298.25 4.3 296.35 1.85 296.35 -3.55
L 296.35 -25.4
M 392.15 -2.3
L 391.95 -25.4 418.5 -25.4 418.5 -2.75
Q 415.6 -0.7 411.9 0.7 408.2 2.2 405.35 2.2 401.95 2.2 397.95 0.6 395.05 -0.45 392.15 -2.3
M 139.25 -8.55
Q 136.4 -4.8 136.4 -0.75 136.4 7.15 142.2 12.9 147.95 18.6 155.75 18.6 159.8 18.6 163.35 16.9 164.9 16.2 170.4 12.7
L 170.75 32.75 178.55 37.45 178.55 7.35
Q 182.65 3.9 186.75 1.6 190.9 -0.7 193.2 -0.7 196.15 -0.7 198.05 1.05 199.9 2.75 199.9 5.95 199.9 9.75 197.7 14.75 195.45 19.8 191.95 24.6
L 198.8 30.85
Q 206 19.8 206 12.6 206 2.55 200.4 -3.55 195.95 -8.35 191.15 -8.35 188 -8.35 184.9 -6.65 182.5 -5.4 178.55 -2.3
L 178.55 -25.4 221.35 -25.4 221.35 32.75 229.4 37.45 229.4 -25.4 239.6 -25.4 235.6 -33 124.4 -33 128.6 -25.4 170.4 -25.4 170.15 -3.1
Q 168.55 -5.4 166.85 -7.5 165.1 -9.6 163.05 -11.3 161 -12.95 158.2 -13.6 155.4 -14.15 152.1 -14.15 143.6 -14.15 139.25 -8.55
M 145.9 -4
Q 149.35 -6.75 153.7 -6.75 159.45 -6.75 163 -4.6 166.5 -2.5 170.4 2.9 165 7.05 160 9.45 154.95 11.85 151.3 11.85 147.55 11.85 145 9.7 142.5 7.5 142.5 3.8 142.5 -1.2 145.9 -4
M 55.4 -64.55
Q 55.55 -64.2 58.45 -59.3 59.3 -57.7 61.2 -54.6 61.9 -54.95 62.5 -55.4 63.5 -55.4 64.45 -55.4 66.05 -55.4 68.35 -53.8 70.75 -52.2 72.35 -49.7 73.6 -47.5 75.5 -42.8 77.2 -38.9 79.5 -33
L -120.2 -33 -115.95 -25.4 -54.15 -25.4 -54.15 -8.15
Q -55.7 -9.6 -58.5 -10.95 -61.25 -12.35 -63.65 -12.35 -67.2 -12.35 -70.3 -10.3 -73.35 -8.3 -76.8 -3.6 -79.8 -7.3 -83.9 -11.4 -85.35 -12.8 -87.95 -13.8 -90.55 -14.75 -93.3 -14.75 -100.25 -14.75 -104.6 -9 -108.15 -4.2 -108.15 1.35 -108.15 11.1 -99.1 21.5 -91.6 30.15 -78.8 38.45
L -75.4 34.35
Q -89.95 26.1 -95.7 18.4 -100 12.5 -100 4.95 -100 -0.95 -96.15 -4.45 -93.05 -7.3 -89.05 -7.3 -86.55 -7.3 -83.5 -4.95 -80.45 -2.65 -78.75 0 -79.35 0.85 -80.2 2.4 -81.05 3.95 -82.05 5.75
L -75.4 10.2
Q -70.55 0.85 -67.25 -2.4 -63.95 -5.6 -59.8 -5.6 -56.7 -5.6 -53.8 -3.6
L -54.15 32.75 -46 37.45 -46 -25.4 -22.2 -25.4 -22.2 -5.05
Q -22.2 -3.55 -23.15 -3.55
L -29.3 -3.55
Q -30 -3.55 -30.9 -2.7 -31.7 -1.75 -31.7 -0.7 -31.7 2.2 -26.8 7.2 -25.75 8.35 -23.2 10.85 -19.95 13.85 -18.9 13.85 -16.95 13.85 -15.6 12.3 -14.2 10.85 -14.2 8.8
L -14.2 -25.4 -1.95 -25.4 -1.95 32.65 5.85 37.45 5.85 -25.4 21.55 -25.4 21.55 32.75 29.6 37.45 29.6 -25.4 77.85 -25.4 77.85 -7.65 53.15 -7.65
Q 47.75 -7.65 45.8 -6.8 43.9 -5.85 43.9 -3.7 43.9 -1.8 48.45 4.75 53.1 11.3 54.9 11.3 55.9 11.3 56.6 10.65 57.35 9.95 57.35 8.45
L 57.35 1.25
Q 57.35 0.35 58 0.15 58.65 -0.1 60.35 -0.1
L 77.85 -0.1 77.85 32.75 86 37.45 86 -25.4 96.2 -25.4 92.1 -33 83.1 -33
Q 81.95 -36.15 78.2 -44.95 73.7 -55.65 71.55 -58.9 69.35 -62.15 65.75 -63.9 63 -65.25 60.25 -65.25 58.15 -65.25 56.85 -65.15 55.4 -65.05 55.4 -64.55
M 768.55 -29.15
L 760.4 -34.35 760.4 32.9 768.55 38.05 768.55 -29.15
M 680.05 -33
L 683.85 -25.4 700.1 -25.4 700.1 -3.7
Q 699.05 -2.2 695.05 -0.6 691.05 1.1 688.8 1.1 681.3 1.1 672.05 -5.95 674.65 -7.3 676.4 -10.05 678.25 -12.8 678.25 -15.7 678.25 -18.7 676.9 -21.5 675.6 -24.25 672.2 -27.4 668.75 -30.65 664.65 -32.35 660.6 -34.1 658.1 -34.1 655.1 -34.1 651.1 -32.8 647.1 -31.45 643.1 -29.4
L 645.7 -23.8
Q 646.75 -22.15 647.9 -22.15 651.7 -24.15 655.7 -26.3 659.6 -28.1 662.9 -28.1 666.45 -28.1 668.75 -25.95 671.05 -23.8 671.05 -19.8 671.05 -15.65 667.95 -12.25 665.4 -9.6 663.6 -9.6 662.65 -9.6 658.3 -9 654 -8.35 652.95 -8.35 650.65 -8.35 650.65 -6.05 650.65 -4.8 654.25 -1.2 656.05 0.6 656.8 0.6 657.6 0.6 662.05 -1.1 664.35 -1.9 668.4 -3.5 671.55 -2.55 673.5 0.05 675.5 2.65 675.5 6.45 675.5 11.8 671.85 15.65 668.15 19.6 662.4 19.6 655.45 19.6 650.15 14.65 644.85 9.75 640.2 -0.8
L 636.45 1.25
Q 642.3 13.95 649.35 20.5 656.4 27.15 664.6 27.15 672.6 27.15 677.7 22.75 682.8 18.3 682.8 10.8 682.8 7.15 680.75 3.9
L 681 3.9
Q 683.65 5.95 686.7 6.8 689.65 7.7 691.85 7.7 693.7 7.7 696.1 7.4 698.5 7.1 700.55 6.3
L 700.1 32.75 708.45 37.45 708.45 -25.4 724.95 -25.4 724.95 32.75 733 37.45 733 -25.4 743.2 -25.4 739.2 -33 680.05 -33 Z"/>
</g>

<g id="Symbol_12_0_Layer2_0_MEMBER_0_FILL">
<path fill="#000000" stroke="none" d="
M -456.4 -2.25
Q -456.4 -2.1 -456.4 -1.95 -457.25 -1.95 -458 -1.95 -458.7 -1.65 -459.3 -1.35 -459.9 -0.9 -460.5 -0.45 -460.5 0 -460.5 0.5 -460.5 0.95 -460.5 1.4 -460.3 1.85 -460.1 2.3 -459.5 2.75 -458.9 3.25 -457.6 3.55 -456.4 3.85 -290.6 3.85 -124.85 3.85 -123.95 3.7 -123.15 3.55 -122.55 3.25 -121.95 2.9 -121.55 2.45 -121.1 2 -120.9 1.55 -120.65 1.1 -120.65 0.65 -120.65 0.15 -121.1 -0.3 -121.55 -0.75 -122.15 -1.2 -122.75 -1.65 -123.75 -1.95 -124.85 -2.25 -290.6 -2.25 -456.4 -2.25 Z"/>
</g>

<g id="Symbol_12_0_Layer1_0_FILL">
<path fill="#000000" stroke="none" d="
M -440.8 -32.75
L -436.85 -25.15 -400.4 -25.15
Q -400.25 -23 -400.05 -20.95 -399.85 -18.9 -399.85 -16.4 -399.85 -11.1 -400.55 -9.4 -401.3 -7.65 -403.1 -7.4
L -419.3 -3.45
Q -424.1 -2.05 -426.35 0.45 -428.55 2.9 -428.55 7.8 -428.55 16.85 -420.85 24.35 -413.1 31.85 -403.15 31.85 -397 31.85 -391 29.85 -385.05 27.85 -380.8 25.45
L -384.4 18.2
Q -392.2 21.9 -397.7 23.5 -403.15 25.1 -408.4 25.1 -413.45 25.1 -417.25 21.4 -421.1 17.65 -421.1 12.5 -421.1 4.7 -413.35 3.15 -402.25 1.1 -396.4 -0.55 -393.65 -1.45 -392.7 -3 -391.85 -4.65 -391.85 -9.6 -391.95 -13.15 -392.1 -17.1 -392.25 -20.95 -392.25 -25.15
L -367.15 -25.15 -367.15 1.5 -373.05 1.5
Q -374.15 1.5 -374.9 2.5 -375.65 3.55 -375.65 4.5 -375.65 6.05 -369.7 12.4 -363.7 18.7 -361.8 18.7 -359 18.7 -359 15.25
L -359 9.15 -334.35 9.15 -334.7 33 -326.35 37.7 -326.35 -25.15 -309.75 -25.15 -309.75 33 -301.7 37.7 -301.7 -25.15 -259.25 -25.15
Q -259.1 -23 -258.9 -20.95 -258.7 -18.9 -258.7 -16.4 -258.7 -11.1 -259.4 -9.4 -260.15 -7.65 -261.95 -7.4
L -278.15 -3.45
Q -282.95 -2.05 -285.2 0.45 -287.4 2.9 -287.4 7.8 -287.4 16.85 -279.7 24.35 -271.95 31.85 -262 31.85 -255.85 31.85 -249.85 29.85 -243.9 27.85 -239.65 25.45
L -243.25 18.2
Q -251.05 21.9 -256.55 23.5 -262 25.1 -267.25 25.1 -272.3 25.1 -276.1 21.4 -279.95 17.65 -279.95 12.5 -279.95 4.7 -272.2 3.15 -261.1 1.1 -255.25 -0.55 -252.5 -1.45 -251.55 -3 -250.7 -4.65 -250.7 -9.6 -250.8 -13.15 -250.95 -17.1 -251.1 -20.95 -251.1 -25.15
L -221.05 -25.15
Q -221.05 -24.35 -220.7 -22.3 -220.55 -20.7 -220.55 -17.15 -220.55 -6.35 -221 -3.3 -221.4 -0.2 -222.25 -0.2 -222.85 -0.2 -226.45 -2.2 -230.05 -4.2 -230.65 -4.2 -232.1 -4.2 -233.3 -2.6 -234.5 -1.1 -234.5 0.5 -234.5 1.65 -233.4 3.7 -231.9 6.6 -228.5 10.8 -223.95 16.35 -216.9 24.15 -209.8 31.95 -203.3 38.7
L -199.6 34.35
Q -205 28.95 -210.35 23.6 -221.25 12.5 -221.25 11.55 -221.25 10.7 -220.65 10.05 -220 9.4 -217.25 7.6 -215.4 6.55 -213.95 3.7 -212.4 0.9 -212.4 -2.05
L -212.4 -25.15 -196.35 -25.15 -200.4 -32.75 -440.8 -32.75
M -359 -25.15
L -334.35 -25.15 -334.35 1.5 -359 1.5 -359 -25.15 Z"/>
</g>
</defs>

<g transform="matrix( 1, 0, 0, 1, 862.5,105) ">
<g transform="matrix( 1, 0, 0, 1, 0,0) ">
<use xlink:href="#Symbol_12_0_Layer2_0_FILL"/>
</g>

<g transform="matrix( 0.8573760986328125, 0, 0, 0.8573760986328125, -68.65,74.75) ">
<use xlink:href="#Symbol_12_0_Layer2_0_MEMBER_0_FILL"/>
</g>

<g transform="matrix( 1, 0, 0, 1, 0,0) ">
<use xlink:href="#Symbol_12_0_Layer1_0_FILL"/>
</g>
</g>
</svg>
