
<svg xmlns="http://www.w3.org/2000/svg" version="1.1" xmlns:xlink="http://www.w3.org/1999/xlink" preserveAspectRatio="none" x="0px" y="0px" width="485px" height="195px" viewBox="0 0 485 195">
<defs>
<g id="Symbol_7_7_Layer2_0_FILL">
<path fill="#FFFFFF" stroke="none" d="
M 52.6 -21.35
Q 52.95 -19.7 52.95 -17.55 52.95 -13.5 50.4 -11.35 48.35 -9.6 45.2 -9.6 21.9 -9.6 21.9 3.05 21.9 11.9 29.65 18.8 37.3 25.6 46.4 25.6 53.75 25.6 59.6 20.75 65.45 15.8 65.45 8.7 65.45 3.55 62 -0.3 59.6 -3.1 54.15 -6.2 56.2 -7.85 57.75 -9.9 59.85 -12.85 59.85 -15.95 59.85 -18.05 59.1 -20.7 58.25 -23.35 57.2 -24.8
L 75.15 -24.8 75.15 24.65 82 28.65 82 -24.8 90.65 -24.8 87.25 -31.2 -92.2 -31.2 -88.85 -24.8 -78.65 -24.8 -78.65 -6.45
Q -78.65 -1.45 -72.3 3.65 -66.6 8.25 -62.4 8.25 -60.25 8.25 -57.2 7.35 -54.25 6.4 -52.8 5.6
L -53.1 24.35 -46.15 28.65 -46.15 -24.8 -22.15 -24.8
Q -22.15 -24.1 -21.85 -22.35 -21.75 -21 -21.75 -17.95 -21.75 -8.8 -22.1 -6.2 -22.45 -3.55 -23.2 -3.55 -23.7 -3.55 -26.75 -5.25 -29.85 -6.95 -30.35 -6.95 -31.6 -6.95 -32.6 -5.6 -33.65 -4.3 -33.65 -3 -33.65 -2 -32.7 -0.25 -31.4 2.2 -28.5 5.8 -24.65 10.5 -18.65 17.15 -12.6 23.75 -7.1 29.5
L -3.95 25.8
Q -8.55 21.25 -13.1 16.65 -22.35 7.25 -22.35 6.45 -22.35 5.7 -21.8 5.15 -21.3 4.6 -18.95 3.05 -17.4 2.15 -16.15 -0.25 -14.85 -2.65 -14.85 -5.1
L -14.85 -24.8 3 -24.8 3 24.65 9.85 28.65 9.85 -24.8 51.3 -24.8
Q 52.25 -23.05 52.6 -21.35
M 49.95 -3.75
Q 54.15 -3.75 56.75 -0.75 59.35 2.35 59.35 6.55 59.35 12.1 54.3 16 49.2 19.9 43.55 19.9 36.8 19.9 32.55 16.2 28.25 12.55 28.25 6.05 28.25 0.8 36.1 -1.85 41.9 -3.75 49.95 -3.75
M -53.1 -24.8
L -53.1 -2.2
Q -55.95 -0.45 -59.5 1 -63.1 2.5 -65.7 2.5 -68.6 2.5 -70.2 0.4 -71.8 -1.7 -71.8 -6.25
L -71.8 -24.8 -53.1 -24.8 Z"/>
</g>

<g id="Symbol_7_7_Layer1_0_FILL">
<path fill="#000000" stroke="none" d="
M 59.85 -15.95
Q 59.85 -18.05 59.1 -20.7 58.25 -23.35 57.2 -24.8
L 75.15 -24.8 75.15 24.65 82 28.65 82 -24.8 90.65 -24.8 87.25 -31.2 -92.2 -31.2 -88.85 -24.8 -78.65 -24.8 -78.65 -6.45
Q -78.65 -1.45 -72.3 3.65 -66.6 8.25 -62.4 8.25 -60.25 8.25 -57.2 7.35 -54.25 6.4 -52.8 5.6
L -53.1 24.35 -46.15 28.65 -46.15 -24.8 -22.15 -24.8
Q -22.15 -24.1 -21.85 -22.35 -21.75 -21 -21.75 -17.95 -21.75 -8.8 -22.1 -6.2 -22.45 -3.55 -23.2 -3.55 -23.7 -3.55 -26.75 -5.25 -29.85 -6.95 -30.35 -6.95 -31.6 -6.95 -32.6 -5.6 -33.65 -4.3 -33.65 -3 -33.65 -2 -32.7 -0.25 -31.4 2.2 -28.5 5.8 -24.65 10.5 -18.65 17.15 -12.6 23.75 -7.1 29.5
L -3.95 25.8
Q -8.55 21.25 -13.1 16.65 -22.35 7.25 -22.35 6.45 -22.35 5.7 -21.8 5.15 -21.3 4.6 -18.95 3.05 -17.4 2.15 -16.15 -0.25 -14.85 -2.65 -14.85 -5.1
L -14.85 -24.8 3 -24.8 3 24.65 9.85 28.65 9.85 -24.8 51.3 -24.8
Q 52.25 -23.05 52.6 -21.35 52.95 -19.7 52.95 -17.55 52.95 -13.5 50.4 -11.35 48.35 -9.6 45.2 -9.6 21.9 -9.6 21.9 3.05 21.9 11.9 29.65 18.8 37.3 25.6 46.4 25.6 53.75 25.6 59.6 20.75 65.45 15.8 65.45 8.7 65.45 3.55 62 -0.3 59.6 -3.1 54.15 -6.2 56.2 -7.85 57.75 -9.9 59.85 -12.85 59.85 -15.95
M -71.8 -6.25
L -71.8 -24.8 -53.1 -24.8 -53.1 -2.2
Q -55.95 -0.45 -59.5 1 -63.1 2.5 -65.7 2.5 -68.6 2.5 -70.2 0.4 -71.8 -1.7 -71.8 -6.25
M 49.95 -3.75
Q 54.15 -3.75 56.75 -0.75 59.35 2.35 59.35 6.55 59.35 12.1 54.3 16 49.2 19.9 43.55 19.9 36.8 19.9 32.55 16.2 28.25 12.55 28.25 6.05 28.25 0.8 36.1 -1.85 41.9 -3.75 49.95 -3.75 Z"/>
</g>
</defs>

<g transform="matrix( 1.1999969482421875, 0, 0, 1.1999969482421875, 242.55,98.4) ">
<g transform="matrix( 1.0010986328125, 0, 0, 1.0010986328125, 0.55,0) ">
<g transform="matrix( 1, 0, 0, 1, 2.75,0) ">
<use xlink:href="#Symbol_7_7_Layer2_0_FILL"/>
</g>

<g transform="matrix( 1, 0, 0, 1, 0,0) ">
<use xlink:href="#Symbol_7_7_Layer1_0_FILL"/>
</g>
</g>
</g>
</svg>
