
<svg xmlns="http://www.w3.org/2000/svg" version="1.1" xmlns:xlink="http://www.w3.org/1999/xlink" preserveAspectRatio="none" x="0px" y="0px" width="485px" height="195px" viewBox="0 0 485 195">
<defs>
<g id="Symbol_7_8_Layer2_0_FILL">
<path fill="#FFFFFF" stroke="none" d="
M 31.6 -16
Q 22.9 -16 17.7 -11.45 13.4 -7.65 13.4 -2.9 13.4 3.45 19.1 8.85 24.8 14.15 32.95 14.15 42.15 14.15 47.3 8.6
L 47.3 24.65 54.1 28.65 54.1 -24.8 62.8 -24.8 59.45 -31.2 -1.65 -31.2
Q -2.6 -33.85 -5.8 -41.4 -9.65 -50.5 -11.5 -53.25 -13.3 -56 -16.4 -57.5 -18.75 -58.65 -21.1 -58.65 -22.85 -58.65 -24 -58.55 -25.2 -58.45 -25.2 -58.05 -25.1 -57.75 -22.6 -53.6 -21.9 -52.25 -20.25 -49.6 -19.65 -49.9 -19.15 -50.3 -18.3 -50.3 -17.5 -50.3 -16.15 -50.3 -14.15 -48.9 -12.15 -47.55 -10.8 -45.4 -9.75 -43.55 -8.1 -39.6 -6.65 -36.25 -4.7 -31.2
L -57.35 -31.2 -53.85 -24.8 -35.6 -24.8
Q -35.5 -23.8 -35.3 -22.1 -35.1 -20.4 -35.1 -17.95 -35.1 -8.6 -35.45 -6.1 -35.8 -3.55 -36.65 -3.55 -37.15 -3.55 -40.2 -5.25 -43.3 -6.95 -43.8 -6.95 -45 -6.95 -46.05 -5.6 -47.05 -4.3 -47.05 -3 -47.05 -0.35 -41.6 6.4 -36.9 12.3 -22.15 28.65
L -18.9 25.5
Q -23.6 20.5 -30.2 13.25 -36.1 6.65 -36.1 6.45 -36.1 5.5 -35.55 4.95 -34.95 4.4 -33.75 3.75 -32.45 3.15 -30.85 1.5 -30.7 1.4 -28.45 -1.05 -25.2 2.45 -20.55 4.1 -17.45 5.1 -14.9 5.1 -13.35 5.1 -10.85 4.5 -8.4 3.85 -5.95 3.05
L -5.95 24.65 0.8 28.65 0.8 -24.8 47.3 -24.8 47.2 -7.45
Q 44.75 -11.25 41.05 -13.5 36.9 -16 31.6 -16
M 21.8 -4.6
Q 23.45 -7.05 25.45 -8.1
L 35.65 7.85
Q 33.8 8.7 32.3 8.95 30.75 9.2 28.9 9.2 25.05 9.2 22.7 7.55 19.75 5.5 19.75 1.1 19.75 -1.65 21.8 -4.6
M 28.8 -9.8
Q 31.95 -10.75 32.95 -10.9 33.9 -11.05 35.85 -11.05 39.25 -11.05 41.8 -8.8 44.75 -6.15 44.75 -1.35 44.75 3.35 39 6.1
L 28.8 -9.8
M -23.35 -2.7
Q -25.85 -3.55 -28.3 -5.1
L -28.5 -24.8 -5.95 -24.8 -5.95 -5.5
Q -8.4 -3.75 -11.5 -2.6 -14.65 -1.35 -17.1 -1.35 -20 -1.35 -23.35 -2.7 Z"/>
</g>

<g id="Symbol_7_8_Layer1_0_FILL">
<path fill="#000000" stroke="none" d="
M 14.95 -11.45
Q 10.65 -7.65 10.65 -2.9 10.65 3.45 16.35 8.85 22.05 14.15 30.2 14.15 39.4 14.15 44.55 8.6
L 44.55 24.65 51.35 28.65 51.35 -24.8 60.05 -24.8 56.7 -31.2 -4.4 -31.2
Q -5.3595703125 -33.8740234375 -8.55 -41.4 -12.4 -50.5 -14.25 -53.25 -16.05 -56 -19.15 -57.5 -21.5 -58.65 -23.85 -58.65 -25.6 -58.65 -26.75 -58.55 -27.95 -58.45 -27.95 -58.05 -27.85 -57.75 -25.35 -53.6 -24.65 -52.25 -23 -49.6 -22.4 -49.9 -21.9 -50.3 -21.05 -50.3 -20.25 -50.3 -18.9 -50.3 -16.9 -48.9 -14.9 -47.55 -13.55 -45.4 -12.5 -43.55 -10.85 -39.6 -9.4189453125 -36.2326171875 -7.45 -31.2
L -60.1 -31.2 -56.6 -24.8 -38.35 -24.8
Q -38.25 -23.8 -38.05 -22.1 -37.85 -20.4 -37.85 -17.95 -37.85 -8.6 -38.2 -6.1 -38.55 -3.55 -39.4 -3.55 -39.9 -3.55 -42.95 -5.25 -46.05 -6.95 -46.55 -6.95 -47.75 -6.95 -48.8 -5.6 -49.8 -4.3 -49.8 -3 -49.8 -0.35 -44.35 6.4 -39.65 12.3 -24.9 28.65
L -21.65 25.5
Q -26.35 20.5 -32.95 13.25 -38.85 6.65 -38.85 6.45 -38.85 5.5 -38.3 4.95 -37.7 4.4 -36.5 3.75 -35.2 3.15 -33.6 1.5 -33.45 1.4 -31.2 -1.05 -27.95 2.45 -23.3 4.1 -20.2 5.1 -17.65 5.1 -16.1 5.1 -13.6 4.5 -11.15 3.85 -8.7 3.05
L -8.7 24.65 -1.95 28.65 -1.95 -24.8 44.55 -24.8 44.45 -7.45
Q 42 -11.25 38.3 -13.5 34.15 -16 28.85 -16 20.15 -16 14.95 -11.45
M 33.1 -11.05
Q 36.5 -11.05 39.05 -8.8 42 -6.15 42 -1.35 42 3.35 36.25 6.1
L 26.05 -9.8
Q 29.2 -10.75 30.2 -10.9 31.15 -11.05 33.1 -11.05
M 19.05 -4.6
Q 20.7 -7.05 22.7 -8.1
L 32.9 7.85
Q 31.05 8.7 29.55 8.95 28 9.2 26.15 9.2 22.3 9.2 19.95 7.55 17 5.5 17 1.1 17 -1.65 19.05 -4.6
M -26.1 -2.7
Q -28.6 -3.55 -31.05 -5.1
L -31.25 -24.8 -8.7 -24.8 -8.7 -5.5
Q -11.15 -3.75 -14.25 -2.6 -17.4 -1.35 -19.85 -1.35 -22.75 -1.35 -26.1 -2.7 Z"/>
</g>
</defs>

<g transform="matrix( 1.1999969482421875, 0, 0, 1.1999969482421875, 242.55,98.4) ">
<g transform="matrix( 1.0010986328125, 0, 0, 1.0010986328125, 0.55,0) ">
<g transform="matrix( 1, 0, 0, 1, 0,0) ">
<use xlink:href="#Symbol_7_8_Layer2_0_FILL"/>
</g>

<g transform="matrix( 1, 0, 0, 1, 0,0) ">
<use xlink:href="#Symbol_7_8_Layer1_0_FILL"/>
</g>
</g>
</g>
</svg>
