
<svg xmlns="http://www.w3.org/2000/svg" version="1.1" xmlns:xlink="http://www.w3.org/1999/xlink" preserveAspectRatio="none" x="0px" y="0px" width="485px" height="195px" viewBox="0 0 485 195">
<defs>
<g id="Symbol_7_6_Layer2_0_FILL">
<path fill="#FFFFFF" stroke="none" d="
M 60.4 -57.65
Q 56.75 -57.65 53.85 -54.7 51 -51.75 51 -47.85 51 -43.65 54.15 -36.85 55.4583984375 -34.025 57.05 -31.2
L -56.5 -31.2
Q -57.65 -33.05 -57.65 -36.8 -57.65 -40.75 -54.05 -44.15 -50.5 -47.5 -45.1 -47.5 -40.8 -47.5 -30.7 -42.5 -21.15 -37.85 -15.1 -33.1
L -15.1 -37.2
Q -20.95 -42.1 -31.95 -47.5 -43.55 -53.25 -48.8 -53.25 -56.2 -53.25 -60.5 -48.45 -63.75 -44.75 -63.75 -40.5 -63.75 -37.85 -62.8 -35.75 -61.9 -33.65 -60.2 -31.2
L -74.85 -31.2 -71.35 -24.8 -60.4 -24.8 -60.4 24.3 -53.85 29.4 -53.85 -24.8 -34.2 -24.8 -34.2 -2.15 -39.2 -2.15
Q -40.15 -2.15 -40.8 -1.3 -41.45 -0.4 -41.45 0.4 -41.45 1.75 -36.35 7.15 -31.25 12.5 -29.6 12.5 -27.3 12.5 -27.3 9.55
L -27.3 4.4 -6.3 4.4 -6.6 24.65 0.5 28.65 0.5 -24.8 55.5 -24.8 55.5 -0.45
Q 49.3 5 44.5 7.75 40.3 10.05 37.9 10.05 34.8 10.05 32.8 8.1 30.8 6.1 30.8 2.75 30.8 -0.05 32.25 -2.55 33.65 -5 35.3 -5.9 36.95 -6.85 38.95 -7.05 41 -7.25 46.85 -7.25
L 53.35 -7.15 49.9 -13.3 12.65 -13.3 16.1 -6.85 27.25 -6.85
Q 25.9 -5.2 25.2 -3.55 24.6 -2 24.6 0.15 24.6 5.5 29.05 9.55 34.2 14.15 42.35 14.15 49.7 14.15 55.8 8.35
L 55.5 24.65 62.45 28.65 62.45 -24.8 71.1 -24.8 67.65 -31.2 60.05 -31.2
Q 58.766015625 -34.19296875 58.05 -36 56.1 -41.35 56.1 -44.45 56.1 -47.45 57.75 -49.7 59.4 -51.95 61.8 -51.95 63.65 -51.95 65.1 -50.6 66.5 -49.3 68.05 -46.2
L 70.3 -46.85
Q 68.65 -52.9 65.7 -55.6 63.45 -57.65 60.4 -57.65
M -6.3 -24.8
L -6.3 -2.15 -27.3 -2.15 -27.3 -24.8 -6.3 -24.8 Z"/>
</g>

<g id="Symbol_7_6_Layer1_0_FILL">
<path fill="#000000" stroke="none" d="
M 57.75 -49.7
Q 59.4 -51.95 61.8 -51.95 63.65 -51.95 65.1 -50.6 66.5 -49.3 68.05 -46.2
L 70.3 -46.85
Q 68.65 -52.9 65.7 -55.6 63.45 -57.65 60.4 -57.65 56.75 -57.65 53.85 -54.7 51 -51.75 51 -47.85 51 -43.65 54.15 -36.85 55.4583984375 -34.025 57.05 -31.2
L -56.5 -31.2
Q -57.65 -33.05 -57.65 -36.8 -57.65 -40.75 -54.05 -44.15 -50.5 -47.5 -45.1 -47.5 -40.8 -47.5 -30.7 -42.5 -21.15 -37.85 -15.1 -33.1
L -15.1 -37.2
Q -20.95 -42.1 -31.95 -47.5 -43.55 -53.25 -48.8 -53.25 -56.2 -53.25 -60.5 -48.45 -63.75 -44.75 -63.75 -40.5 -63.75 -37.85 -62.8 -35.75 -61.9 -33.65 -60.2 -31.2
L -74.85 -31.2 -71.35 -24.8 -60.4 -24.8 -60.4 24.3 -53.85 29.4 -53.85 -24.8 -34.2 -24.8 -34.2 -2.15 -39.2 -2.15
Q -40.15 -2.15 -40.8 -1.3 -41.45 -0.4 -41.45 0.4 -41.45 1.75 -36.35 7.15 -31.25 12.5 -29.6 12.5 -27.3 12.5 -27.3 9.55
L -27.3 4.4 -6.3 4.4 -6.6 24.65 0.5 28.65 0.5 -24.8 55.5 -24.8 55.5 -0.45
Q 49.3 5 44.5 7.75 40.3 10.05 37.9 10.05 34.8 10.05 32.8 8.1 30.8 6.1 30.8 2.75 30.8 -0.05 32.25 -2.55 33.65 -5 35.3 -5.9 36.95 -6.85 38.95 -7.05 41 -7.25 46.85 -7.25
L 53.35 -7.15 49.9 -13.3 12.65 -13.3 16.1 -6.85 27.25 -6.85
Q 25.9 -5.2 25.2 -3.55 24.6 -2 24.6 0.15 24.6 5.5 29.05 9.55 34.2 14.15 42.35 14.15 49.7 14.15 55.8 8.35
L 55.5 24.65 62.45 28.65 62.45 -24.8 71.1 -24.8 67.65 -31.2 60.05 -31.2
Q 58.766015625 -34.19296875 58.05 -36 56.1 -41.35 56.1 -44.45 56.1 -47.45 57.75 -49.7
M -6.3 -24.8
L -6.3 -2.15 -27.3 -2.15 -27.3 -24.8 -6.3 -24.8 Z"/>
</g>
</defs>

<g transform="matrix( 1.1999969482421875, 0, 0, 1.1999969482421875, 242.55,98.4) ">
<g transform="matrix( 1.0010986328125, 0, 0, 1.0010986328125, 0.55,0) ">
<g transform="matrix( 1, 0, 0, 1, 2.75,0) ">
<use xlink:href="#Symbol_7_6_Layer2_0_FILL"/>
</g>

<g transform="matrix( 1, 0, 0, 1, 0,0) ">
<use xlink:href="#Symbol_7_6_Layer1_0_FILL"/>
</g>
</g>
</g>
</svg>
