
<svg xmlns="http://www.w3.org/2000/svg" version="1.1" xmlns:xlink="http://www.w3.org/1999/xlink" preserveAspectRatio="none" x="0px" y="0px" width="705px" height="703px" viewBox="0 0 705 703">
<defs>
<g id="Symbol_60_copy_2_0_Layer2_0_FILL">
<path fill="#FFFFFF" stroke="none" d="
M 150.05 -116.6
L 134.3 -146.8 -132.15 -146.8 -115.3 -116.6 77.15 -116.6 76.65 -35
Q 65.2 -52.85 47.85 -63.4 28.15 -75.35 3.3 -75.35 -37.7 -75.35 -62.1 -53.75 -82.25 -35.95 -82.25 -13.45 -82.25 16.3 -55.5 41.6 -28.8 66.7 9.65 66.7 53 66.7 77.15 40.45
L 77.15 116.15 109.25 134.9 109.25 -116.6 150.05 -116.6
M 9.65 -51.2
Q 14.1 -51.9 23.25 -51.9 39.4 -51.9 51.35 -41.35 65.2 -28.95 65.2 -6.2 65.2 15.85 38.25 28.75
L -9.8 -46.05
Q 4.95 -50.5 9.65 -51.2
M 22.3 36.95
Q 13.6 40.9 6.6 42.1 -0.7 43.25 -9.35 43.25 -27.65 43.25 -38.65 35.55 -52.45 25.9 -52.45 5.3 -52.45 -7.6 -42.85 -21.65 -35.15 -33.15 -25.75 -38.05
L 22.3 36.95 Z"/>
</g>

<g id="Symbol_60_copy_2_0_Layer1_0_FILL">
<path fill="#000000" stroke="none" d="
M 139.55 -116.6
L 123.8 -146.8 -142.65 -146.8 -125.8 -116.6 66.65 -116.6 66.15 -35
Q 54.7 -52.85 37.35 -63.4 17.65 -75.35 -7.2 -75.35 -48.2 -75.35 -72.6 -53.75 -92.75 -35.95 -92.75 -13.45 -92.75 16.3 -66 41.6 -39.3 66.7 -0.85 66.7 42.5 66.7 66.65 40.45
L 66.65 116.15 98.75 134.9 98.75 -116.6 139.55 -116.6
M 40.85 -41.35
Q 54.7 -28.95 54.7 -6.2 54.7 15.85 27.75 28.75
L -20.3 -46.05
Q -5.55 -50.5 -0.85 -51.2 3.6 -51.9 12.75 -51.9 28.9 -51.9 40.85 -41.35
M -53.35 -21.65
Q -45.65 -33.15 -36.25 -38.05
L 11.8 36.95
Q 3.1 40.9 -3.9 42.1 -11.2 43.25 -19.85 43.25 -38.15 43.25 -49.15 35.55 -62.95 25.9 -62.95 5.3 -62.95 -7.6 -53.35 -21.65 Z"/>
</g>
</defs>

<g transform="matrix( 1, 0, 0, 1, 348.55,342.6) ">
<g transform="matrix( 0.9599761962890625, 0, 0, 0.9599761962890625, -3.55,5.7) ">
<g transform="matrix( 1, 0, 0, 1, 0,0) ">
<use xlink:href="#Symbol_60_copy_2_0_Layer2_0_FILL"/>
</g>

<g transform="matrix( 1, 0, 0, 1, 0,0) ">
<use xlink:href="#Symbol_60_copy_2_0_Layer1_0_FILL"/>
</g>
</g>
</g>
</svg>
