
<svg xmlns="http://www.w3.org/2000/svg" version="1.1" xmlns:xlink="http://www.w3.org/1999/xlink" preserveAspectRatio="none" x="0px" y="0px" width="567px" height="257px" viewBox="0 0 567 257">
<defs>
<g id="Symbol_59_copy_2_2_Layer2_0_FILL">
<path fill="#FFFFFF" stroke="none" d="
M 4.65 -36.45
L 4.65 -20.85 -19.35 -20.85
Q -26.35 -20.85 -31.3 -16.95 -37.25 -12.25 -37.25 -3.35 -37.25 4.95 -32.35 14.75 -27.5 24.55 -15.2 39.9
L -9.8 35.4
Q -19.8 23.4 -23.9 15.95 -27.95 8.4 -27.95 2.25 -27.95 -4.95 -24.3 -8.15 -20.6 -11.4 -12.8 -11.4
L 5.25 -11.4 4.65 36.3 15 42.15 15 -36.45 48.1 -36.45
Q 48.25 -31.6 48.5 -27.5 48.7 -23.4 48.7 -20.55 48.7 -15.85 48.1 -12 47.55 -8 46.3 -6.25 37.25 -9.7 36.25 -9.7 35.5 -9.7 34.05 -7.95 32.65 -6.25 32.65 -5.25 32.65 -3.1 36.85 4.5 40.15 10.5 44.25 15.5 54.25 27.8 63 33.3 71.6 38.85 80.9 38.85 91.2 38.85 99.9 35.35 106.684765625 32.612890625 115.55 27.15
L 115.55 36.3 125.6 42.15 125.6 -36.45 138.35 -36.45 133.35 -45.9 -130.6 -45.9 -125.35 -36.45 -65.2 -36.45 -65.35 -10.95
Q -68.95 -16.5 -74.35 -19.8 -80.5 -23.55 -88.3 -23.55 -101.1 -23.55 -108.7 -16.8 -115 -11.25 -115 -4.2 -115 5.1 -106.65 13 -98.3 20.85 -86.3 20.85 -72.75 20.85 -65.2 12.65
L -65.2 36.3 -55.2 42.15 -55.2 -36.45 4.65 -36.45
M 58.9 -9.4
Q 58.9 -13.95 58.45 -22.3 58 -30.75 58 -36.45
L 115.55 -36.45 115.55 16.8
Q 106.0619140625 23.3240234375 98.6 26.75 90.5 30.45 83.8 30.45 71.75 30.45 64.15 26.05 56.45 21.55 47 9.9 58.9 2.15 58.9 -9.4
M -92.4 -14.4
Q -87.75 -15.8 -86.3 -16 -84.9 -16.2 -82.05 -16.2 -77 -16.2 -73.25 -12.95 -68.95 -9.05 -68.95 -1.95 -68.95 4.95 -77.35 8.95
L -92.4 -14.4
M -102.7 -6.8
Q -100.3 -10.35 -97.35 -11.9
L -82.35 11.55
Q -85.05 12.8 -87.25 13.15 -89.55 13.5 -92.25 13.5 -97.95 13.5 -101.4 11.1 -105.7 8.1 -105.7 1.65 -105.7 -2.4 -102.7 -6.8
M 74.85 -19.9
Q 68.85 -15 68.85 -7.85 68.85 1.45 76.55 8.25 84.3 15.05 94.35 15.05 100.75 15.05 106.95 9.8 113.65 3.9 113.65 -3.85 113.65 -11.25 106.4 -18.05 99.1 -24.85 90.75 -24.85 80.85 -24.85 74.85 -19.9
M 81.8 -12.05
Q 87.1 -16.6 94.35 -16.6 101.05 -16.6 104.65 -13.75 107.8 -11.3 107.8 -7.3 107.8 -1.65 102.1 2.6 96.4 6.75 88.6 6.75 82.75 6.75 79.6 4.35 76.45 2 76.45 -2.55 76.45 -7.45 81.8 -12.05 Z"/>
</g>

<g id="Symbol_59_copy_2_2_Layer1_0_FILL">
<path fill="#000000" stroke="none" d="
M 0.4 -36.45
L 0.4 -20.85 -23.6 -20.85
Q -30.6 -20.85 -35.55 -16.95 -41.5 -12.25 -41.5 -3.35 -41.5 4.95 -36.6 14.75 -31.75 24.55 -19.45 39.9
L -14.05 35.4
Q -24.05 23.4 -28.15 15.95 -32.2 8.4 -32.2 2.25 -32.2 -4.95 -28.55 -8.15 -24.85 -11.4 -17.05 -11.4
L 1 -11.4 0.4 36.3 10.75 42.15 10.75 -36.45 43.85 -36.45
Q 44 -31.6 44.25 -27.5 44.45 -23.4 44.45 -20.55 44.45 -15.85 43.85 -12 43.3 -8 42.05 -6.25 33 -9.7 32 -9.7 31.25 -9.7 29.8 -7.95 28.4 -6.25 28.4 -5.25 28.4 -3.1 32.6 4.5 35.9 10.5 40 15.5 50 27.8 58.75 33.3 67.35 38.85 76.65 38.85 86.95 38.85 95.65 35.35 102.434765625 32.612890625 111.3 27.15
L 111.3 36.3 121.35 42.15 121.35 -36.45 134.1 -36.45 129.1 -45.9 -134.85 -45.9 -129.6 -36.45 -69.45 -36.45 -69.6 -10.95
Q -73.2 -16.5 -78.6 -19.8 -84.75 -23.55 -92.55 -23.55 -105.35 -23.55 -112.95 -16.8 -119.25 -11.25 -119.25 -4.2 -119.25 5.1 -110.9 13 -102.55 20.85 -90.55 20.85 -77 20.85 -69.45 12.65
L -69.45 36.3 -59.45 42.15 -59.45 -36.45 0.4 -36.45
M 54.65 -9.4
Q 54.65 -13.95 54.2 -22.3 53.75 -30.75 53.75 -36.45
L 111.3 -36.45 111.3 16.8
Q 101.8119140625 23.3240234375 94.35 26.75 86.25 30.45 79.55 30.45 67.5 30.45 59.9 26.05 52.2 21.55 42.75 9.9 54.65 2.15 54.65 -9.4
M -96.65 -14.4
Q -92 -15.8 -90.55 -16 -89.15 -16.2 -86.3 -16.2 -81.25 -16.2 -77.5 -12.95 -73.2 -9.05 -73.2 -1.95 -73.2 4.95 -81.6 8.95
L -96.65 -14.4
M -106.95 -6.8
Q -104.55 -10.35 -101.6 -11.9
L -86.6 11.55
Q -89.3 12.8 -91.5 13.15 -93.8 13.5 -96.5 13.5 -102.2 13.5 -105.65 11.1 -109.95 8.1 -109.95 1.65 -109.95 -2.4 -106.95 -6.8
M 70.6 -19.9
Q 64.6 -15 64.6 -7.85 64.6 1.45 72.3 8.25 80.05 15.05 90.1 15.05 96.5 15.05 102.7 9.8 109.4 3.9 109.4 -3.85 109.4 -11.25 102.15 -18.05 94.85 -24.85 86.5 -24.85 76.6 -24.85 70.6 -19.9
M 72.2 -2.55
Q 72.2 -7.45 77.55 -12.05 82.85 -16.6 90.1 -16.6 96.8 -16.6 100.4 -13.75 103.55 -11.3 103.55 -7.3 103.55 -1.65 97.85 2.6 92.15 6.75 84.35 6.75 78.5 6.75 75.35 4.35 72.2 2 72.2 -2.55 Z"/>
</g>
</defs>

<g transform="matrix( 1, 0, 0, 1, 284.8,118.55) ">
<g transform="matrix( 1.1999969482421875, 0, 0, 1.1999969482421875, -1.4,2.25) ">
<g transform="matrix( 1, 0, 0, 1, 0,0) ">
<use xlink:href="#Symbol_59_copy_2_2_Layer2_0_FILL"/>
</g>

<g transform="matrix( 1, 0, 0, 1, 0,0) ">
<use xlink:href="#Symbol_59_copy_2_2_Layer1_0_FILL"/>
</g>
</g>
</g>
</svg>
