
<svg xmlns="http://www.w3.org/2000/svg" version="1.1" xmlns:xlink="http://www.w3.org/1999/xlink" preserveAspectRatio="none" x="0px" y="0px" width="567px" height="257px" viewBox="0 0 567 257">
<defs>
<g id="Symbol_59_copy_2_1_Layer2_0_FILL">
<path fill="#FFFFFF" stroke="none" d="
M 36.05 -21.55
Q 33.4 -22.4 29.55 -22.4 25.85 -22.4 19.55 -21.35 16 -20.7 8.65 -19.35
L 15.7 -10.05
Q 22 -11.6 25.6 -12.2 29.15 -12.8 32.7 -12.8 36.1 -12.8 40.65 -10.65 45.3 -8.55 52.9 -3.1
L 14.8 22.35 22.8 29.35 54.75 6.9 54.75 37.1 64.6 42.15 64.6 -36.45 84.1 -36.45 79.1 -45.9 -77.5 -45.9 -72.55 -36.45 -57.55 -36.45 -57.55 -9.5
Q -57.55 -2.1 -48.25 5.4 -39.85 12.1 -33.7 12.1 -30.55 12.1 -26.05 10.8 -21.65 9.4 -19.55 8.25
L -20 35.85 -9.8 42.15 -9.8 -36.45 54.75 -36.45 54.75 -8.1 42.15 -18.2
Q 38.6 -20.7 36.05 -21.55
M -47.5 -9.2
L -47.5 -36.45 -20 -36.45 -20 -3.2
Q -24.25 -0.6 -29.45 1.5 -34.7 3.7 -38.5 3.7 -42.85 3.7 -45.2 0.6 -47.5 -2.45 -47.5 -9.2 Z"/>
</g>

<g id="Symbol_59_copy_2_1_Layer1_0_FILL">
<path fill="#000000" stroke="none" d="
M 37.9 -18.2
Q 34.35 -20.7 31.8 -21.55 29.15 -22.4 25.3 -22.4 21.6 -22.4 15.3 -21.35 11.75 -20.7 4.4 -19.35
L 11.45 -10.05
Q 17.75 -11.6 21.35 -12.2 24.9 -12.8 28.45 -12.8 31.85 -12.8 36.4 -10.65 41.05 -8.55 48.65 -3.1
L 10.55 22.35 18.55 29.35 50.5 6.9 50.5 37.1 60.35 42.15 60.35 -36.45 79.85 -36.45 74.85 -45.9 -81.75 -45.9 -76.8 -36.45 -61.8 -36.45 -61.8 -9.5
Q -61.8 -2.1 -52.5 5.4 -44.1 12.1 -37.95 12.1 -34.8 12.1 -30.3 10.8 -25.9 9.4 -23.8 8.25
L -24.25 35.85 -14.05 42.15 -14.05 -36.45 50.5 -36.45 50.5 -8.1 37.9 -18.2
M -51.75 -9.2
L -51.75 -36.45 -24.25 -36.45 -24.25 -3.2
Q -28.5 -0.6 -33.7 1.5 -38.95 3.7 -42.75 3.7 -47.1 3.7 -49.45 0.6 -51.75 -2.45 -51.75 -9.2 Z"/>
</g>
</defs>

<g transform="matrix( 1, 0, 0, 1, 284.8,118.55) ">
<g transform="matrix( 1.1999969482421875, 0, 0, 1.1999969482421875, -1.4,2.25) ">
<g transform="matrix( 1, 0, 0, 1, 0,0) ">
<use xlink:href="#Symbol_59_copy_2_1_Layer2_0_FILL"/>
</g>

<g transform="matrix( 1, 0, 0, 1, 0,0) ">
<use xlink:href="#Symbol_59_copy_2_1_Layer1_0_FILL"/>
</g>
</g>
</g>
</svg>
