
<svg xmlns="http://www.w3.org/2000/svg" version="1.1" xmlns:xlink="http://www.w3.org/1999/xlink" preserveAspectRatio="none" x="0px" y="0px" width="567px" height="257px" viewBox="0 0 567 257">
<defs>
<g id="Symbol_59_copy_2_0_Layer2_0_FILL">
<path fill="#FFFFFF" stroke="none" d="
M 34.45 -36.45
L 34.45 -20.55 -4.75 -20.55 -6.2 -17.1
Q 2.05 -12.1 6.55 -7.8 13 -1.5 13 4.5 13 8.7 10.7 11.4 8.5 14.1 4.1 14.1 0.55 14.1 -4.15 11.1 -8.9 8.1 -11.9 3.9 -15.8 -1.5 -17.8 -5.1 -20.35 -9.7 -22.85 -15.85
L -28.55 -13.5
Q -23.2 -1.95 -19.4 4.2 -13.75 13.8 -7.9 18.4 -0.8 24.15 7.4 24.15 13 24.15 17.6 20.55 22.85 16.5 22.85 10.05 22.85 4.5 19.55 -0.6 17.15 -4.35 10.4 -11.1
L 34.45 -11.1 34.45 36.3 44.6 42.15 44.6 -36.45 104.15 -36.45 104.15 -14.25 73.25 -14.25
Q 66.5 -14.25 64.05 -13.15 61.65 -12 61.65 -9.25 61.65 -6.9 67.35 1.3 73.15 9.5 75.45 9.5 76.65 9.5 77.55 8.7 78.5 7.8 78.5 5.9
L 78.5 -3.1
Q 78.5 -4.2 79.3 -4.5 80.1 -4.8 82.25 -4.8
L 104.15 -4.8 104.15 36.3 114.3 42.15 114.3 -36.45 127.05 -36.45 121.95 -45.9 -118.65 -45.9 -113.6 -36.45 -52.8 -36.45 -53.1 -8.85
Q -56.55 -13.65 -58.4 -15.55 -61.45 -19.15 -64.65 -21.15 -67.9 -23.1 -71.7 -23.7 -75.5 -24.3 -79.7 -24.3 -92 -24.3 -98.3 -18.15 -103.5 -13 -103.5 -5.1 -103.5 5.55 -94.2 13.35 -86 20.25 -77.25 20.25 -70.55 20.25 -64.45 17.4 -58.4 14.55 -52.35 9.25
L -52.8 36.3 -42.5 42.15 -42.5 -36.45 34.45 -36.45
M -94.2 -1.35
Q -94.2 -6.55 -89.7 -10.5 -84.6 -14.85 -76.3 -14.85 -70.4 -14.85 -63.15 -11.1 -57.4 -8.1 -52.8 -3.7 -59.1 3.5 -67 8.1 -75 12.8 -81 12.8 -87.3 12.8 -90.75 9.2 -94.2 5.6 -94.2 -1.35 Z"/>
</g>

<g id="Symbol_59_copy_2_0_Layer1_0_FILL">
<path fill="#000000" stroke="none" d="
M 30.2 -36.45
L 30.2 -20.55 -9 -20.55 -10.45 -17.1
Q -2.2 -12.1 2.3 -7.8 8.75 -1.5 8.75 4.5 8.75 8.7 6.45 11.4 4.25 14.1 -0.15 14.1 -3.7 14.1 -8.4 11.1 -13.15 8.1 -16.15 3.9 -20.05 -1.5 -22.05 -5.1 -24.6 -9.7 -27.1 -15.85
L -32.8 -13.5
Q -27.45 -1.95 -23.65 4.2 -18 13.8 -12.15 18.4 -5.05 24.15 3.15 24.15 8.75 24.15 13.35 20.55 18.6 16.5 18.6 10.05 18.6 4.5 15.3 -0.6 12.9 -4.35 6.15 -11.1
L 30.2 -11.1 30.2 36.3 40.35 42.15 40.35 -36.45 99.9 -36.45 99.9 -14.25 69 -14.25
Q 62.25 -14.25 59.8 -13.15 57.4 -12 57.4 -9.25 57.4 -6.9 63.1 1.3 68.9 9.5 71.2 9.5 72.4 9.5 73.3 8.7 74.25 7.8 74.25 5.9
L 74.25 -3.1
Q 74.25 -4.2 75.05 -4.5 75.85 -4.8 78 -4.8
L 99.9 -4.8 99.9 36.3 110.05 42.15 110.05 -36.45 122.8 -36.45 117.7 -45.9 -122.9 -45.9 -117.85 -36.45 -57.05 -36.45 -57.35 -8.85
Q -60.8 -13.65 -62.65 -15.55 -65.7 -19.15 -68.9 -21.15 -72.15 -23.1 -75.95 -23.7 -79.75 -24.3 -83.95 -24.3 -96.25 -24.3 -102.55 -18.15 -107.75 -13 -107.75 -5.1 -107.75 5.55 -98.45 13.35 -90.25 20.25 -81.5 20.25 -74.8 20.25 -68.7 17.4 -62.65 14.55 -56.6 9.25
L -57.05 36.3 -46.75 42.15 -46.75 -36.45 30.2 -36.45
M -98.45 -1.35
Q -98.45 -6.55 -93.95 -10.5 -88.85 -14.85 -80.55 -14.85 -74.65 -14.85 -67.4 -11.1 -61.65 -8.1 -57.05 -3.7 -63.35 3.5 -71.25 8.1 -79.25 12.8 -85.25 12.8 -91.55 12.8 -95 9.2 -98.45 5.6 -98.45 -1.35 Z"/>
</g>
</defs>

<g transform="matrix( 1, 0, 0, 1, 282.5,118.55) ">
<g transform="matrix( 1.1999969482421875, 0, 0, 1.1999969482421875, -1.4,2.25) ">
<g transform="matrix( 1, 0, 0, 1, 0,0) ">
<use xlink:href="#Symbol_59_copy_2_0_Layer2_0_FILL"/>
</g>

<g transform="matrix( 1, 0, 0, 1, 0,0) ">
<use xlink:href="#Symbol_59_copy_2_0_Layer1_0_FILL"/>
</g>
</g>
</g>
</svg>
