
<svg xmlns="http://www.w3.org/2000/svg" version="1.1" xmlns:xlink="http://www.w3.org/1999/xlink" preserveAspectRatio="none" x="0px" y="0px" width="455px" height="457px" viewBox="0 0 455 457">
<defs>
<linearGradient id="Gradient_1" gradientUnits="userSpaceOnUse" x1="338.73749999999995" y1="274.225" x2="585.1625" y2="144.77499999999998" spreadMethod="pad">
<stop  offset="0%" stop-color="#303B45"/>

<stop  offset="14.509803921568627%" stop-color="#384551"/>

<stop  offset="41.1764705882353%" stop-color="#4E6170"/>

<stop  offset="76.07843137254902%" stop-color="#718DA3"/>

<stop  offset="100%" stop-color="#8CAECA"/>
</linearGradient>

<linearGradient id="Gradient_2" gradientUnits="userSpaceOnUse" x1="334.7" y1="160.825" x2="358.09999999999997" y2="109.375" spreadMethod="pad">
<stop  offset="0%" stop-color="#EAEEEF"/>

<stop  offset="40.3921568627451%" stop-color="#DEE6EB"/>

<stop  offset="100%" stop-color="#C5D6E3"/>
</linearGradient>

<linearGradient id="Gradient_3" gradientUnits="userSpaceOnUse" x1="349.225" y1="227.125" x2="348.275" y2="54.875" spreadMethod="pad">
<stop  offset="0%" stop-color="#8CAECA"/>

<stop  offset="1.5686274509803921%" stop-color="#86A7C2"/>

<stop  offset="5.098039215686274%" stop-color="#7E9DB6"/>

<stop  offset="9.803921568627452%" stop-color="#7997AF"/>

<stop  offset="23.137254901960784%" stop-color="#7895AD"/>

<stop  offset="60.78431372549019%" stop-color="#809FB9"/>

<stop  offset="100%" stop-color="#8CAECA"/>
</linearGradient>

<linearGradient id="Gradient_4" gradientUnits="userSpaceOnUse" x1="555.6875" y1="51.5" x2="555.6125" y2="36.2" spreadMethod="pad">
<stop  offset="0%" stop-color="#8CAECA"/>

<stop  offset="1.5686274509803921%" stop-color="#86A7C2"/>

<stop  offset="5.098039215686274%" stop-color="#7E9DB6"/>

<stop  offset="9.803921568627452%" stop-color="#7997AF"/>

<stop  offset="23.137254901960784%" stop-color="#7895AD"/>

<stop  offset="60.78431372549019%" stop-color="#809FB9"/>

<stop  offset="100%" stop-color="#8CAECA"/>
</linearGradient>

<linearGradient id="Gradient_5" gradientUnits="userSpaceOnUse" x1="502.45000000000005" y1="30.424999999999983" x2="128.15" y2="240.975" spreadMethod="pad">
<stop  offset="0%" stop-color="#303B45"/>

<stop  offset="14.509803921568627%" stop-color="#384551"/>

<stop  offset="41.1764705882353%" stop-color="#4E6170"/>

<stop  offset="76.07843137254902%" stop-color="#718DA3"/>

<stop  offset="100%" stop-color="#8CAECA"/>
</linearGradient>

<linearGradient id="Gradient_6" gradientUnits="userSpaceOnUse" x1="481.325" y1="221.05" x2="490.675" y2="186.75" spreadMethod="pad">
<stop  offset="0%" stop-color="#C5D6E3"/>

<stop  offset="28.627450980392158%" stop-color="#B9CEDE"/>

<stop  offset="80.3921568627451%" stop-color="#9AB8D0"/>

<stop  offset="100%" stop-color="#8CAECA"/>
</linearGradient>

<linearGradient id="Gradient_7" gradientUnits="userSpaceOnUse" x1="287.4875" y1="131.66250000000002" x2="290.6125" y2="91.1375" spreadMethod="pad">
<stop  offset="0%" stop-color="#C5D6E3"/>

<stop  offset="28.627450980392158%" stop-color="#B9CEDE"/>

<stop  offset="80.3921568627451%" stop-color="#9AB8D0"/>

<stop  offset="100%" stop-color="#8CAECA"/>
</linearGradient>

<filter id="Filter_1" x="-20%" y="-20%" width="140%" height="140%" color-interpolation-filters="sRGB">
<feFlood flood-color="#000000" flood-opacity="1" in="SourceGraphic" result="result1"/>

<feComposite in2="SourceGraphic" in="result1" operator="in" result="result2"/>

<feGaussianBlur in="result2" stdDeviation="4.333333333333333,4.333333333333333" result="result3"/>

<feOffset dx="0" dy="0" in="result3" result="result4"/>

<feComposite in2="result4" in="SourceGraphic" operator="over" result="result5"/>
</filter>

<g id="Symbol_2_copy_4_0_Layer0_0_MEMBER_0_FILL">
<path fill="url(#Gradient_1)" stroke="none" d="
M 436.6 149.4
L 347.15 196 385.4 205.4
Q 428.95 217.2 455.75 228.9 493.85 245.55 577.75 278.55 580.05 279.45 582.45 279.05 584.8 278.65 586.7 277.05
L 588.7 275.35
Q 590.7 273.65 590.6 271.05 590.55 268.4 588.4 266.85 452.3 165.1 436.6 149.4 Z"/>
</g>

<g id="Symbol_2_copy_4_0_Layer0_0_MEMBER_1_FILL">
<path fill="#EAEEEF" stroke="none" d="
M 590.5 272.35
Q 590.8 270.8 590.3 269.35 589.7 267.8 588.4 266.85 452.3 165.1 436.6 149.4 441.1 159.9 511.5 213.7 549.4 242.65 590.5 272.35 Z"/>
</g>

<g id="Symbol_2_copy_4_0_Layer0_0_MEMBER_2_FILL">
<path fill="#EAEEEF" stroke="none" d="
M 539.8 241.8
Q 533.45 242.55 526.5 244.15 512.65 247.35 509.8 251.45 504.3 259.35 503.85 260.15 501.55 264.15 503.2 265.5 504.1 266.25 511.1 262.95 517.7 259.85 525.4 255.2 545.25 243.2 539.8 241.8 Z"/>
</g>

<g id="Symbol_2_copy_4_0_Layer0_0_MEMBER_3_FILL">
<path fill="#7895AD" stroke="none" d="
M 539.8 241.8
Q 533.45 242.55 526.5 244.15 512.65 247.35 509.8 251.45 511.7 252.2 510.75 255.6 510.3 257.3 509.45 258.85 511.95 258.45 539.8 241.8 Z"/>
</g>

<g id="Symbol_2_copy_4_0_Layer0_0_MEMBER_4_MEMBER_0_FILL">
<path fill="#EAEEEF" stroke="none" d="
M 461 242.7
Q 467.65 239.55 475.35 234.95 495.2 222.95 489.75 221.5 483.4 222.3 476.45 223.85 462.6 227.05 459.75 231.15 454.05 239.4 453.8 239.9 451.5 243.9 453.1 245.25 454 246 461 242.7 Z"/>
</g>

<g id="Symbol_2_copy_4_0_Layer0_0_MEMBER_4_MEMBER_1_FILL">
<path fill="#7895AD" stroke="none" d="
M 459.75 231.15
Q 461.65 231.95 460.7 235.35 460.2 237.05 459.35 238.6 461.85 238.15 489.75 221.5 483.4 222.3 476.45 223.85 462.6 227.05 459.75 231.15 Z"/>
</g>

<g id="Symbol_2_copy_4_0_Layer0_0_MEMBER_5_MEMBER_0_FILL">
<path fill="#EAEEEF" stroke="none" d="
M 425.25 215.8
Q 445.1 203.8 439.65 202.35 433.3 203.15 426.35 204.7 412.5 207.9 409.65 212 404.1 220.05 403.7 220.75 401.4 224.75 403.05 226.1 403.95 226.85 410.95 223.55 417.6 220.4 425.25 215.8 Z"/>
</g>

<g id="Symbol_2_copy_4_0_Layer0_0_MEMBER_5_MEMBER_1_FILL">
<path fill="#7895AD" stroke="none" d="
M 409.65 212
Q 411.55 212.8 410.6 216.15 410.15 217.85 409.3 219.4 411.8 219 439.65 202.35 433.3 203.15 426.35 204.7 412.5 207.9 409.65 212 Z"/>
</g>

<g id="Symbol_2_copy_4_0_Layer0_0_MEMBER_6_FILL">
<path fill="#EAEEEF" stroke="none" d="
M 247.25 245.35
Q 247.5 243.9 246.35 242.95
L 215.7 218.65 166.75 221.6 232.4 247.95
Q 233.85 248.55 235.4 248.55 241.85 248.55 245.6 247.3 247 246.8 247.25 245.35 Z"/>
</g>

<g id="Symbol_2_copy_4_0_Layer0_0_MEMBER_7_FILL">
<path fill="#7895AD" stroke="none" d="
M 243.4 247.3
Q 244.8 246.8 245.05 245.35 245.3 243.9 244.15 242.95
L 213.6 218.8 166.75 221.6 232.4 247.95
Q 233.6 248.45 234.75 248.5 240.1 248.4 243.4 247.3 Z"/>
</g>

<g id="Symbol_2_copy_4_0_Layer0_0_MEMBER_8_FILL">
<path fill="#7895AD" stroke="none" d="
M 213.25 160.4
L 180.7 71.6 158.65 81.35 151.55 197.85 213.25 160.4 Z"/>
</g>

<g id="Symbol_2_copy_4_0_Layer0_0_MEMBER_9_FILL">
<path fill="url(#Gradient_2)" stroke="none" d="
M 577.3 58.15
Q 574.05 54.95 569 52.9
L 564.6 51.55
Q 565 47.85 561.3 43.8 553.9 35.7 533.55 34 512.9 32.3 481.8 42.95 471.4 46.5 457.2 52.35 442.55 58.55 436.6 60.9
L 308.05 111.6
Q 254.15 133 203.3 156.85 101.6 204.5 116.95 216.6 119 218.2 133.15 220.65 148.95 223.35 168.25 224.9 221.4 229.15 257.75 221.5 292.6 214.2 309.65 209 318.15 206.35 319.7 205.2
L 322.2 205.7
Q 325.45 206.25 329.35 206.4 341.85 206.85 356 203.05 372.35 198.7 404.65 184.8 436.1 171.3 441 166.95 447.25 161.45 457.75 149.4
L 473.7 143.7
Q 493.05 136.5 510.15 129 564.85 104.95 576.3 86.65 587.75 68.35 577.3 58.15 Z"/>
</g>

<g id="Symbol_2_copy_4_0_Layer0_0_MEMBER_10_MEMBER_1_FILL">
<path fill="url(#Gradient_3)" stroke="none" d="
M 576.3 86.65
Q 583.4 75.3 582 66.85 580.85 60.4 574.9 56.1
L 575.55 58.7
Q 576.05 61.95 575.3 65.1 572.9 75.2 558.75 80.8
L 409 139.3
Q 409.6 136.75 409.65 133.6 409.75 127.25 407.05 124.1 405.4 128.7 398.55 134.55 384.8 146.35 358.7 152.95 358.3 149.9 359.8 145.5 362.7 136.7 371.95 130.05
L 364.95 119.8
Q 347.9 125.65 330.05 134.4 294.4 151.95 290.5 166.55 291.3 171.1 285.6 177.75 274.3 191.05 242.15 201.4 202.5 214.25 172.85 216.4 158.6 217.45 151.35 215.35 143.65 213.1 145.05 207.55 147.3 198.7 151.2 195.15 153.365625 193.18125 155.35 193.25 150.0697265625 192.9556640625 144.95 193.9 135.25 195.65 132.2 201.4
L 130.05 206.3
Q 128.1 212.05 129.05 216.6 127.6 217.15 125.15 217.1 120.25 217.05 115.25 214.3 115.75 215.65 116.95 216.6 119 218.2 133.15 220.65 148.95 223.35 168.25 224.9 221.4 229.15 257.75 221.5 292.6 214.2 309.65 209 318.15 206.35 319.7 205.2
L 322.2 205.7
Q 325.45 206.25 329.35 206.4 341.85 206.85 356 203.05 372.35 198.7 404.65 184.8 436.1 171.3 441 166.95 447.25 161.45 457.75 149.4
L 473.7 143.7
Q 493.05 136.5 510.15 129 564.85 104.95 576.3 86.65 Z"/>
</g>

<g id="Symbol_2_copy_4_0_Layer0_0_MEMBER_10_MEMBER_2_FILL">
<path fill="url(#Gradient_4)" stroke="none" d="
M 546.7 36.15
L 552.95 39.55
Q 559.2 44.15 559.15 50
L 564.6 51.55
Q 564.85 48.95 562.75 45.7 558.55 39.25 546.7 36.15 Z"/>
</g>

<g id="Symbol_2_copy_4_0_Layer0_0_MEMBER_11_FILL">
<path fill="#001B4B" stroke="none" d="
M 467.15 63.85
Q 468.75 63.25 468.75 61.55
L 468.85 57.4
Q 468.9 56.05 467.8 55.25 466.65 54.5 465.4 55
L 463.75 55.65
Q 462.15 56.3 462.15 58
L 462.15 62.1
Q 462.15 63.45 463.25 64.2 464.35 65 465.6 64.5
L 467.15 63.85 Z"/>
</g>

<g id="Symbol_2_copy_4_0_Layer0_0_MEMBER_12_FILL">
<path fill="#001B4B" stroke="none" d="
M 451.55 60.6
Q 450.85 60.85 450.4 61.5 449.95 62.15 449.95 62.95
L 449.95 67.05
Q 449.95 68.4 451.1 69.15 452.2 69.95 453.45 69.4
L 455 68.8
Q 456.5 68.15 456.6 66.5
L 456.7 62.35
Q 456.75 60.95 455.6 60.2 454.5 59.4 453.2 59.9
L 451.55 60.6 Z"/>
</g>

<g id="Symbol_2_copy_4_0_Layer0_0_MEMBER_13_FILL">
<path fill="#001B4B" stroke="none" d="
M 442.8 73.75
Q 444.4 73.1 444.4 71.45
L 444.55 67.3
Q 444.6 65.9 443.45 65.15 442.35 64.35 441.05 64.85
L 439.4 65.5
Q 437.8 66.15 437.8 67.9
L 437.8 72
Q 437.8 73.35 438.9 74.1 440.05 74.85 441.3 74.35
L 442.8 73.75 Z"/>
</g>

<g id="Symbol_2_copy_4_0_Layer0_0_MEMBER_14_FILL">
<path fill="#001B4B" stroke="none" d="
M 432.35 72.2
Q 432.4 70.85 431.25 70.05 430.1 69.3 428.85 69.8
L 427.2 70.45
Q 426.5 70.75 426.05 71.4 425.6 72.05 425.6 72.8
L 425.6 76.95
Q 425.6 78.3 426.75 79.05 427.85 79.8 429.1 79.3
L 430.65 78.7
Q 432.15 78.05 432.25 76.4
L 432.35 72.2 Z"/>
</g>

<g id="Symbol_2_copy_4_0_Layer0_0_MEMBER_15_FILL">
<path fill="#001B4B" stroke="none" d="
M 419.1 75
Q 417.95 74.25 416.7 74.75
L 415.05 75.4
Q 413.45 76.05 413.45 77.75
L 413.45 81.85
Q 413.45 83.2 414.55 83.95 415.7 84.75 416.95 84.25
L 418.5 83.6
Q 420 83 420.1 81.3
L 420.2 77.15
Q 420.25 75.8 419.1 75 Z"/>
</g>

<g id="Symbol_2_copy_4_0_Layer0_0_MEMBER_16_FILL">
<path fill="#001B4B" stroke="none" d="
M 408 82.1
Q 408.05 80.7 406.9 79.95 405.8 79.15 404.5 79.65
L 402.85 80.35
Q 402.15 80.6 401.7 81.25 401.25 81.9 401.25 82.7
L 401.25 86.8
Q 401.25 88.15 402.4 88.9 403.5 89.7 404.75 89.15
L 406.3 88.55
Q 407.9 87.9 407.9 86.25
L 408 82.1 Z"/>
</g>

<g id="Symbol_2_copy_4_0_Layer0_0_MEMBER_17_FILL">
<path fill="#001B4B" stroke="none" d="
M 392.35 84.6
L 390.7 85.25
Q 389.1 85.95 389.1 87.65
L 389.1 91.75
Q 389.1 93.1 390.2 93.85 391.35 94.6 392.6 94.1
L 394.15 93.5
Q 395.65 92.85 395.75 91.2
L 395.85 87.05
Q 395.9 85.65 394.75 84.85 393.65 84.1 392.35 84.6 Z"/>
</g>

<g id="Symbol_2_copy_4_0_Layer0_0_MEMBER_18_FILL">
<path fill="#001B4B" stroke="none" d="
M 383.65 91.95
Q 383.7 90.6 382.6 89.8 381.45 89.05 380.2 89.55
L 378.5 90.2
Q 377.8 90.5 377.35 91.15 376.9 91.8 376.9 92.55
L 376.9 96.7
Q 376.9 98.05 378.05 98.8 379.15 99.55 380.4 99.05
L 381.95 98.4
Q 383.55 97.8 383.55 96.1
L 383.65 91.95 Z"/>
</g>

<g id="Symbol_2_copy_4_0_Layer0_0_MEMBER_19_FILL">
<path fill="#001B4B" stroke="none" d="
M 365.2 96.05
Q 364.75 96.7 364.75 97.5
L 364.75 101.6
Q 364.75 102.95 365.85 103.7 367 104.5 368.25 104
L 369.8 103.35
Q 371.3 102.8 371.4 101.05
L 371.5 96.9
Q 371.55 95.55 370.4 94.75 369.25 94 368 94.5
L 366.35 95.15
Q 365.65 95.4 365.2 96.05 Z"/>
</g>

<g id="Symbol_2_copy_4_0_Layer0_0_MEMBER_20_FILL">
<path fill="#001B4B" stroke="none" d="
M 358.25 99.7
Q 357.15 98.9 355.85 99.4
L 354.2 100.05
Q 352.6 100.7 352.6 102.45
L 352.6 106.55
Q 352.6 107.9 353.7 108.65 354.8 109.45 356.05 108.9
L 357.6 108.3
Q 359.2 107.65 359.2 106
L 359.35 101.85
Q 359.4 100.45 358.25 99.7 Z"/>
</g>

<g id="Symbol_2_copy_4_0_Layer0_0_MEMBER_21_FILL">
<path fill="#001B4B" stroke="none" d="
M 345.45 113.25
Q 346.95 112.6 347.05 110.95
L 347.15 106.8
Q 347.2 105.4 346.05 104.6 344.95 103.85 343.65 104.35
L 342 105
Q 340.4 105.7 340.4 107.4
L 340.4 111.5
Q 340.4 112.85 341.55 113.6 342.65 114.35 343.9 113.85
L 345.45 113.25 Z"/>
</g>

<g id="Symbol_2_copy_4_0_Layer0_0_MEMBER_22_FILL">
<path fill="#001B4B" stroke="none" d="
M 331.5 109.3
L 329.85 109.95
Q 328.25 110.6 328.25 112.3
L 328.25 116.4
Q 328.25 117.75 329.35 118.5 330.5 119.3 331.75 118.8
L 333.3 118.15
Q 334.8 117.55 334.9 115.85
L 335 111.7
Q 335.05 110.35 333.9 109.55 332.75 108.8 331.5 109.3 Z"/>
</g>

<g id="Symbol_2_copy_4_0_Layer0_0_MEMBER_23_FILL">
<path fill="#001B4B" stroke="none" d="
M 322.8 116.65
Q 322.85 115.25 321.7 114.5 320.6 113.7 319.3 114.2
L 317.65 114.9
Q 316.95 115.15 316.5 115.8 316.05 116.45 316.05 117.25
L 316.05 121.35
Q 316.05 122.7 317.2 123.45 318.3 124.25 319.55 123.7
L 321.1 123.1
Q 321.8 122.85 322.25 122.2 322.7 121.55 322.7 120.8
L 322.8 116.65 Z"/>
</g>

<g id="Symbol_2_copy_4_0_Layer0_0_MEMBER_24_FILL">
<path fill="#001B4B" stroke="none" d="
M 310.65 121.6
Q 310.7 120.2 309.55 119.45 308.45 118.65 307.15 119.15
L 305.5 119.8
Q 303.9 120.45 303.9 122.2
L 303.9 126.3
Q 303.9 127.65 305 128.4 306.15 129.15 307.4 128.65
L 308.95 128.05
Q 310.45 127.4 310.55 125.75
L 310.65 121.6 Z"/>
</g>

<g id="Symbol_2_copy_4_0_Layer0_0_MEMBER_25_FILL">
<path fill="#001B4B" stroke="none" d="
M 297.35 124.35
Q 296.25 123.6 294.95 124.1
L 293.3 124.75
Q 292.6 125.05 292.15 125.7 291.7 126.35 291.7 127.1
L 291.7 131.25
Q 291.7 132.6 292.85 133.35 293.95 134.1 295.2 133.6
L 296.75 133
Q 298.35 132.35 298.35 130.7
L 298.45 126.55
Q 298.5 125.15 297.35 124.35 Z"/>
</g>

<g id="Symbol_2_copy_4_0_Layer0_0_MEMBER_26_FILL">
<path fill="#001B4B" stroke="none" d="
M 286.3 131.45
Q 286.35 130.1 285.2 129.3 284.05 128.55 282.8 129.05
L 281.15 129.7
Q 279.55 130.4 279.55 132.05
L 279.55 136.15
Q 279.55 137.5 280.65 138.25 281.8 139.05 283.05 138.55
L 284.6 137.9
Q 286.1 137.35 286.2 135.6
L 286.3 131.45 Z"/>
</g>

<g id="Symbol_2_copy_4_0_Layer0_0_MEMBER_27_FILL">
<path fill="#001B4B" stroke="none" d="
M 269 134.65
Q 268.25 134.9 267.8 135.55 267.35 136.2 267.35 137
L 267.35 141.1
Q 267.35 142.45 268.5 143.2 269.6 144 270.85 143.45
L 272.4 142.85
Q 274 142.2 274 140.55
L 274.1 136.4
Q 274.15 135 273.05 134.25 271.95 133.45 270.65 133.95
L 269 134.65 Z"/>
</g>

<g id="Symbol_2_copy_4_0_Layer0_0_MEMBER_28_FILL">
<path fill="#001B4B" stroke="none" d="
M 261.95 141.35
Q 262 139.95 260.85 139.15 259.75 138.4 258.45 138.9
L 256.8 139.55
Q 255.2 140.25 255.2 141.95
L 255.2 146.05
Q 255.2 147.4 256.35 148.15 257.45 148.95 258.7 148.4
L 260.25 147.8
Q 261.75 147.15 261.85 145.5
L 261.95 141.35 Z"/>
</g>

<g id="Symbol_2_copy_4_0_Layer0_0_MEMBER_29_FILL">
<path fill="#001B4B" stroke="none" d="
M 244.65 144.5
Q 243.05 145.15 243.05 146.85
L 243.05 151
Q 243.05 152.35 244.15 153.1 245.3 153.85 246.55 153.35
L 248.05 152.7
Q 249.65 152.1 249.65 150.4
L 249.8 146.25
Q 249.85 144.9 248.7 144.1 247.55 143.35 246.3 143.85
L 244.65 144.5 Z"/>
</g>

<g id="Symbol_2_copy_4_0_Layer0_0_MEMBER_30_FILL">
<path fill="#001B4B" stroke="none" d="
M 236.5 149.05
Q 235.35 148.3 234.1 148.8
L 232.45 149.45
Q 230.85 150.15 230.85 151.8
L 230.85 155.9
Q 230.85 157.25 232 158 233.1 158.8 234.35 158.3
L 235.9 157.65
Q 237.4 157.1 237.5 155.35
L 237.6 151.2
Q 237.65 149.85 236.5 149.05 Z"/>
</g>

<g id="Symbol_2_copy_4_0_Layer0_0_MEMBER_31_FILL">
<path fill="#001B4B" stroke="none" d="
M 223.75 162.6
Q 225.25 161.95 225.35 160.3
L 225.45 156.15
Q 225.5 154.75 224.35 154 223.25 153.2 221.95 153.7
L 220.3 154.35
Q 218.7 155 218.7 156.75
L 218.7 160.85
Q 218.7 162.2 219.8 162.95 220.95 163.7 222.2 163.2
L 223.75 162.6 Z"/>
</g>

<g id="Symbol_2_copy_4_0_Layer0_0_MEMBER_32_FILL">
<path fill="#001B4B" stroke="none" d="
M 209.75 158.65
L 208.1 159.3
Q 206.5 160 206.5 161.7
L 206.5 165.8
Q 206.5 167.15 207.65 167.9 208.75 168.65 210 168.15
L 211.55 167.55
Q 213.15 166.9 213.15 165.25
L 213.25 161.1
Q 213.3 159.7 212.15 158.9 211.05 158.15 209.75 158.65 Z"/>
</g>

<g id="Symbol_2_copy_4_0_Layer0_0_MEMBER_33_FILL">
<path fill="#001B4B" stroke="none" d="
M 201.1 166
Q 201.15 164.65 200 163.85 198.85 163.1 197.6 163.6
L 195.95 164.25
Q 194.35 164.95 194.35 166.6
L 194.35 170.7
Q 194.35 172.1 195.45 172.85 196.55 173.6 197.85 173.1
L 199.4 172.45
Q 200.9 171.9 201 170.15
L 201.1 166 Z"/>
</g>

<g id="Symbol_2_copy_4_0_Layer0_0_MEMBER_34_MEMBER_0_FILL">
<path fill="#001B4B" stroke="none" d="
M 520.95 46.65
L 526.2 39.2
Q 514.15 40.85 509 48.6
L 512.15 47.85
Q 516.25 47.05 520.95 46.65 Z"/>
</g>

<g id="Symbol_2_copy_4_0_Layer0_0_MEMBER_34_MEMBER_1_FILL">
<path fill="#001B4B" stroke="none" d="
M 540.1 39.15
L 540.4 46.65
Q 552.75 47.75 564.6 51.55 564.7 50.65 564.3 49.2 563.6 46.35 561.3 43.85 560.95 43.5 554.9 41.9 547.25 39.9 540.1 39.15 Z"/>
</g>

<g id="Symbol_2_copy_4_0_Layer0_0_MEMBER_34_MEMBER_2_FILL">
<path fill="#001B4B" stroke="none" d="
M 537 46.4
L 537.25 38.9
Q 533.2 38.65 529.9 38.85
L 524.75 46.35
Q 530.4 46.05 537 46.4 Z"/>
</g>

<g id="Symbol_2_copy_4_0_Layer0_0_MEMBER_35_FILL">
<path fill="url(#Gradient_5)" stroke="none" d="
M 365.7 119.6
L 364.75 114.05
Q 342.95 112.9 187.95 58.75 136.7 40.85 82.05 21.1 35.95 4.4 32.35 2.8 27 0.5 13.7 0.05 -0.3 -0.4 0 2.8 0.25 5.75 33.8 25.95 44.45 32.35 72.5 48.6 75.8 50.5 138.95 79.35 203.05 108.65 209.9 112.35 218.05 116.7 255.1 142.05 273.6 154.75 290.5 166.55
L 324.5 149.55
Q 359.2 131.95 362.6 128.85 366 125.75 365.7 119.6 Z"/>
</g>

<g id="Symbol_2_copy_4_0_Layer0_0_MEMBER_36_FILL">
<path fill="#EAEEEF" stroke="none" d="
M 365.7 119.1
L 364.75 114.05
Q 342.95 112.9 187.95 58.75 136.7 40.85 82.05 21.1 35.95 4.4 32.35 2.8 30.5 2.05 27.4 1.45 30.9 5.85 157.65 52.45 282.7 98.45 310.65 106.2 329.9 111.5 346.4 119.05 356.5 123.65 363.4 128 366.1 124.75 365.7 119.1 Z"/>
</g>

<g id="Symbol_2_copy_4_0_Layer0_0_MEMBER_37_FILL">
<path fill="#EAEEEF" stroke="none" d="
M 36.95 151.5
Q 31.85 152.45 27.4 153.55
L 127.1 201.05
Q 146.8 197.7 154.95 192.7 159 190.2 159.15 188.35 133.45 179.25 107.05 169.95 54.3 151.4 50.75 150.5 47.2 149.65 36.95 151.5 Z"/>
</g>

<g id="Symbol_2_copy_4_0_Layer0_0_MEMBER_38_FILL">
<path fill="#7895AD" stroke="none" d="
M 49.75 152.3
Q 45.3 151.2 29.6 154.55
L 127.1 201.05
Q 141.6 198.6 150 195.15 155.85 192.75 158.15 190.15 157 189.65 105.9 171.7 53.3 153.2 49.75 152.3 Z"/>
</g>

<g id="Symbol_2_copy_4_0_Layer0_0_MEMBER_39_MEMBER_0_FILL">
<path fill="url(#Gradient_6)" stroke="none" d="
M 520 194.85
L 515.65 179.8
Q 509.4 179 499.45 181.2 479.45 185.7 460.7 201
L 460.15 201.4
Q 457.2 203.95 455.5 207.85 453.7 211.95 453.7 216.6 453.7 223.75 457.55 229 461.35 234.2 466.9 234.8
L 473.75 235.3
Q 482.2 235.7 489.95 235.15 514.7 233.4 523.5 222.85 524.2 212.05 520 194.85 Z"/>
</g>

<g id="Symbol_2_copy_4_0_Layer0_0_MEMBER_39_MEMBER_1_FILL">
<path fill="#7895AD" stroke="none" d="
M 466.9 234.8
L 473.75 235.3
Q 482.2 235.7 489.95 235.15 514.7 233.4 523.5 222.85 524 215.2 521.9 203.7 489.55 227.45 459.75 231.15
L 459.5 231.2
Q 462.8 234.35 466.9 234.8 Z"/>
</g>

<g id="Symbol_2_copy_4_0_Layer0_0_MEMBER_39_MEMBER_2_FILL">
<path fill="#2D364D" stroke="none" d="
M 515.65 179.8
Q 508.25 179.8 503.05 186.45 497.8 193.1 497.8 202.45 497.8 211.85 503.05 218.5 508.25 225.15 515.65 225.15 523.1 225.15 528.3 218.5 533.55 211.85 533.55 202.45 533.55 193.05 528.3 186.45 523.05 179.8 515.65 179.8 Z"/>
</g>

<g id="Symbol_2_copy_4_0_Layer0_0_MEMBER_39_MEMBER_3_FILL">
<path fill="#000A22" stroke="none" d="
M 519.4 183.1
Q 513.55 183.1 509.45 188.45 505.3 193.8 505.3 201.4 505.3 209 509.45 214.4 513.55 219.75 519.4 219.75 525.3 219.75 529.4 214.4 533.55 209 533.55 201.4 533.55 193.8 529.4 188.45 525.3 183.1 519.4 183.1 Z"/>
</g>

<g id="Symbol_2_copy_4_0_Layer0_0_MEMBER_40_MEMBER_0_FILL">
<path fill="#EAEEEF" stroke="none" d="
M 231.35 145.6
Q 232.25 146.35 239.25 143.05 245.9 139.9 253.55 135.3 273.4 123.3 267.95 121.85 261.6 122.65 254.65 124.2 240.8 127.4 237.95 131.5 232.4 139.55 232 140.25 229.7 144.25 231.35 145.6 Z"/>
</g>

<g id="Symbol_2_copy_4_0_Layer0_0_MEMBER_40_MEMBER_1_FILL">
<path fill="#7895AD" stroke="none" d="
M 237.95 131.5
Q 239.85 132.3 238.9 135.65 238.4 137.35 237.55 138.9 240.05 138.5 267.95 121.85 261.6 122.65 254.65 124.2 240.8 127.4 237.95 131.5 Z"/>
</g>

<g id="Symbol_2_copy_4_0_Layer0_0_MEMBER_41_MEMBER_0_FILL">
<path fill="#EAEEEF" stroke="none" d="
M 187.25 88.5
Q 173.4 91.7 170.55 95.8 165.05 103.7 164.6 104.5 162.3 108.5 163.95 109.85 164.85 110.6 171.85 107.3 178.45 104.2 186.15 99.55 206 87.55 200.55 86.1 194.2 86.9 187.25 88.5 Z"/>
</g>

<g id="Symbol_2_copy_4_0_Layer0_0_MEMBER_41_MEMBER_1_FILL">
<path fill="#7895AD" stroke="none" d="
M 200.55 86.1
Q 194.2 86.9 187.25 88.5 173.4 91.7 170.55 95.8 172.45 96.55 171.5 99.95 171.05 101.65 170.2 103.2 172.7 102.75 200.55 86.1 Z"/>
</g>

<g id="Symbol_2_copy_4_0_Layer0_0_MEMBER_42_MEMBER_0_FILL">
<path fill="#EAEEEF" stroke="none" d="
M 97.4 72.75
Q 104.05 69.6 111.75 65 131.6 53 126.15 51.55 119.8 52.35 112.85 53.9 99 57.1 96.15 61.2 90.45 69.5 90.2 69.95 87.9 73.9 89.5 75.25 90.4 76 97.4 72.75 Z"/>
</g>

<g id="Symbol_2_copy_4_0_Layer0_0_MEMBER_42_MEMBER_1_FILL">
<path fill="#7895AD" stroke="none" d="
M 96.15 61.2
Q 98.05 62 97.1 65.35 96.6 67.05 95.75 68.6 98.25 68.2 126.15 51.55 119.8 52.35 112.85 53.9 99 57.1 96.15 61.2 Z"/>
</g>

<g id="Symbol_2_copy_4_0_Layer0_0_MEMBER_43_MEMBER_0_FILL">
<path fill="url(#Gradient_7)" stroke="none" d="
M 317.1 87.3
Q 310.85 86.5 300.9 88.7 280.9 93.2 262.15 108.5
L 261.6 108.95
Q 258.65 111.45 256.9 115.4 255.15 119.45 255.15 124.15 255.15 131.3 258.95 136.5 262.75 141.7 268.3 142.3
L 275.15 142.8
Q 283.6 143.2 291.35 142.65 316.15 140.9 324.95 130.35 325.65 119.55 321.45 102.35
L 317.1 87.3 Z"/>
</g>

<g id="Symbol_2_copy_4_0_Layer0_0_MEMBER_43_MEMBER_1_FILL">
<path fill="#7895AD" stroke="none" d="
M 268.3 142.3
L 275.15 142.8
Q 283.6 143.2 291.35 142.65 316.15 140.9 324.95 130.35 325.45 122.4 323.35 111.25 290.85 135 261.15 138.7
L 260.9 138.7
Q 264.2 141.85 268.3 142.3 Z"/>
</g>

<g id="Symbol_2_copy_4_0_Layer0_0_MEMBER_43_MEMBER_2_FILL">
<path fill="#2D364D" stroke="none" d="
M 329.75 126
Q 335 119.35 335 109.95 335 100.55 329.75 93.95 324.5 87.3 317.1 87.3 309.7 87.3 304.45 93.95 299.2 100.55 299.2 109.95 299.2 119.35 304.45 126 309.7 132.65 317.1 132.65 324.55 132.65 329.75 126 Z"/>
</g>

<g id="Symbol_2_copy_4_0_Layer0_0_MEMBER_43_MEMBER_3_FILL">
<path fill="#000A22" stroke="none" d="
M 330.85 121.9
Q 335 116.5 335 108.95 335 101.35 330.85 95.95 326.7 90.6 320.85 90.6 315 90.6 310.85 95.95 306.7 101.35 306.7 108.95 306.7 116.5 310.85 121.9 315 127.25 320.85 127.25 326.7 127.25 330.85 121.9 Z"/>
</g>
</defs>

<g transform="matrix( 1, 0, 0, 1, 227.5,135.9) ">
<g transform="matrix( 0.871978759765625, 0, 0, 0.871978759765625, 14.75,82.35) ">
<g transform="matrix( 1.5068359375, 0, 0, 1.5068359375, -14.85,14.7) ">
<g filter="url(#Filter_1)" transform="matrix( 0.761077880859375, 0, 0, 0.761077880859375, -174.5,-175.85) ">
<g transform="matrix( 1.7382965087890625, 0, 0, 1.7382965087890625, 229.3,231.05) ">
<g transform="matrix( 0.3600006103515625, 0, 0, 0.3600006103515625, -106.35,-50.25) ">
<use xlink:href="#Symbol_2_copy_4_0_Layer0_0_MEMBER_0_FILL"/>
</g>

<g transform="matrix( 0.3600006103515625, 0, 0, 0.3600006103515625, -106.35,-50.25) ">
<use xlink:href="#Symbol_2_copy_4_0_Layer0_0_MEMBER_1_FILL"/>
</g>

<g transform="matrix( 0.3600006103515625, 0, 0, 0.3600006103515625, -106.35,-50.25) ">
<use xlink:href="#Symbol_2_copy_4_0_Layer0_0_MEMBER_2_FILL"/>
</g>

<g transform="matrix( 0.3600006103515625, 0, 0, 0.3600006103515625, -106.35,-50.25) ">
<use xlink:href="#Symbol_2_copy_4_0_Layer0_0_MEMBER_3_FILL"/>
</g>

<g transform="matrix( 0.3600006103515625, 0, 0, 0.3600006103515625, -106.35,-50.25) ">
<use xlink:href="#Symbol_2_copy_4_0_Layer0_0_MEMBER_4_MEMBER_0_FILL"/>
</g>

<g transform="matrix( 0.3600006103515625, 0, 0, 0.3600006103515625, -106.35,-50.25) ">
<use xlink:href="#Symbol_2_copy_4_0_Layer0_0_MEMBER_4_MEMBER_1_FILL"/>
</g>

<g transform="matrix( 0.3600006103515625, 0, 0, 0.3600006103515625, -106.35,-50.25) ">
<use xlink:href="#Symbol_2_copy_4_0_Layer0_0_MEMBER_5_MEMBER_0_FILL"/>
</g>

<g transform="matrix( 0.3600006103515625, 0, 0, 0.3600006103515625, -106.35,-50.25) ">
<use xlink:href="#Symbol_2_copy_4_0_Layer0_0_MEMBER_5_MEMBER_1_FILL"/>
</g>

<g transform="matrix( 0.3600006103515625, 0, 0, 0.3600006103515625, -106.35,-50.25) ">
<use xlink:href="#Symbol_2_copy_4_0_Layer0_0_MEMBER_6_FILL"/>
</g>

<g transform="matrix( 0.3600006103515625, 0, 0, 0.3600006103515625, -106.35,-50.25) ">
<use xlink:href="#Symbol_2_copy_4_0_Layer0_0_MEMBER_7_FILL"/>
</g>

<g transform="matrix( 0.3600006103515625, 0, 0, 0.3600006103515625, -106.35,-50.25) ">
<use xlink:href="#Symbol_2_copy_4_0_Layer0_0_MEMBER_8_FILL"/>
</g>

<g transform="matrix( 0.3600006103515625, 0, 0, 0.3600006103515625, -106.35,-50.25) ">
<use xlink:href="#Symbol_2_copy_4_0_Layer0_0_MEMBER_9_FILL"/>
</g>

<g transform="matrix( 0.3600006103515625, 0, 0, 0.3600006103515625, -106.35,-50.25) ">
<use xlink:href="#Symbol_2_copy_4_0_Layer0_0_MEMBER_10_MEMBER_1_FILL"/>
</g>

<g transform="matrix( 0.3600006103515625, 0, 0, 0.3600006103515625, -106.35,-50.25) ">
<use xlink:href="#Symbol_2_copy_4_0_Layer0_0_MEMBER_10_MEMBER_2_FILL"/>
</g>

<g transform="matrix( 0.3600006103515625, 0, 0, 0.3600006103515625, -106.35,-50.25) ">
<use xlink:href="#Symbol_2_copy_4_0_Layer0_0_MEMBER_11_FILL"/>
</g>

<g transform="matrix( 0.3600006103515625, 0, 0, 0.3600006103515625, -106.35,-50.25) ">
<use xlink:href="#Symbol_2_copy_4_0_Layer0_0_MEMBER_12_FILL"/>
</g>

<g transform="matrix( 0.3600006103515625, 0, 0, 0.3600006103515625, -106.35,-50.25) ">
<use xlink:href="#Symbol_2_copy_4_0_Layer0_0_MEMBER_13_FILL"/>
</g>

<g transform="matrix( 0.3600006103515625, 0, 0, 0.3600006103515625, -106.35,-50.25) ">
<use xlink:href="#Symbol_2_copy_4_0_Layer0_0_MEMBER_14_FILL"/>
</g>

<g transform="matrix( 0.3600006103515625, 0, 0, 0.3600006103515625, -106.35,-50.25) ">
<use xlink:href="#Symbol_2_copy_4_0_Layer0_0_MEMBER_15_FILL"/>
</g>

<g transform="matrix( 0.3600006103515625, 0, 0, 0.3600006103515625, -106.35,-50.25) ">
<use xlink:href="#Symbol_2_copy_4_0_Layer0_0_MEMBER_16_FILL"/>
</g>

<g transform="matrix( 0.3600006103515625, 0, 0, 0.3600006103515625, -106.35,-50.25) ">
<use xlink:href="#Symbol_2_copy_4_0_Layer0_0_MEMBER_17_FILL"/>
</g>

<g transform="matrix( 0.3600006103515625, 0, 0, 0.3600006103515625, -106.35,-50.25) ">
<use xlink:href="#Symbol_2_copy_4_0_Layer0_0_MEMBER_18_FILL"/>
</g>

<g transform="matrix( 0.3600006103515625, 0, 0, 0.3600006103515625, -106.35,-50.25) ">
<use xlink:href="#Symbol_2_copy_4_0_Layer0_0_MEMBER_19_FILL"/>
</g>

<g transform="matrix( 0.3600006103515625, 0, 0, 0.3600006103515625, -106.35,-50.25) ">
<use xlink:href="#Symbol_2_copy_4_0_Layer0_0_MEMBER_20_FILL"/>
</g>

<g transform="matrix( 0.3600006103515625, 0, 0, 0.3600006103515625, -106.35,-50.25) ">
<use xlink:href="#Symbol_2_copy_4_0_Layer0_0_MEMBER_21_FILL"/>
</g>

<g transform="matrix( 0.3600006103515625, 0, 0, 0.3600006103515625, -106.35,-50.25) ">
<use xlink:href="#Symbol_2_copy_4_0_Layer0_0_MEMBER_22_FILL"/>
</g>

<g transform="matrix( 0.3600006103515625, 0, 0, 0.3600006103515625, -106.35,-50.25) ">
<use xlink:href="#Symbol_2_copy_4_0_Layer0_0_MEMBER_23_FILL"/>
</g>

<g transform="matrix( 0.3600006103515625, 0, 0, 0.3600006103515625, -106.35,-50.25) ">
<use xlink:href="#Symbol_2_copy_4_0_Layer0_0_MEMBER_24_FILL"/>
</g>

<g transform="matrix( 0.3600006103515625, 0, 0, 0.3600006103515625, -106.35,-50.25) ">
<use xlink:href="#Symbol_2_copy_4_0_Layer0_0_MEMBER_25_FILL"/>
</g>

<g transform="matrix( 0.3600006103515625, 0, 0, 0.3600006103515625, -106.35,-50.25) ">
<use xlink:href="#Symbol_2_copy_4_0_Layer0_0_MEMBER_26_FILL"/>
</g>

<g transform="matrix( 0.3600006103515625, 0, 0, 0.3600006103515625, -106.35,-50.25) ">
<use xlink:href="#Symbol_2_copy_4_0_Layer0_0_MEMBER_27_FILL"/>
</g>

<g transform="matrix( 0.3600006103515625, 0, 0, 0.3600006103515625, -106.35,-50.25) ">
<use xlink:href="#Symbol_2_copy_4_0_Layer0_0_MEMBER_28_FILL"/>
</g>

<g transform="matrix( 0.3600006103515625, 0, 0, 0.3600006103515625, -106.35,-50.25) ">
<use xlink:href="#Symbol_2_copy_4_0_Layer0_0_MEMBER_29_FILL"/>
</g>

<g transform="matrix( 0.3600006103515625, 0, 0, 0.3600006103515625, -106.35,-50.25) ">
<use xlink:href="#Symbol_2_copy_4_0_Layer0_0_MEMBER_30_FILL"/>
</g>

<g transform="matrix( 0.3600006103515625, 0, 0, 0.3600006103515625, -106.35,-50.25) ">
<use xlink:href="#Symbol_2_copy_4_0_Layer0_0_MEMBER_31_FILL"/>
</g>

<g transform="matrix( 0.3600006103515625, 0, 0, 0.3600006103515625, -106.35,-50.25) ">
<use xlink:href="#Symbol_2_copy_4_0_Layer0_0_MEMBER_32_FILL"/>
</g>

<g transform="matrix( 0.3600006103515625, 0, 0, 0.3600006103515625, -106.35,-50.25) ">
<use xlink:href="#Symbol_2_copy_4_0_Layer0_0_MEMBER_33_FILL"/>
</g>

<g transform="matrix( 0.3600006103515625, 0, 0, 0.3600006103515625, -106.35,-50.25) ">
<use xlink:href="#Symbol_2_copy_4_0_Layer0_0_MEMBER_34_MEMBER_0_FILL"/>
</g>

<g transform="matrix( 0.3600006103515625, 0, 0, 0.3600006103515625, -106.35,-50.25) ">
<use xlink:href="#Symbol_2_copy_4_0_Layer0_0_MEMBER_34_MEMBER_1_FILL"/>
</g>

<g transform="matrix( 0.3600006103515625, 0, 0, 0.3600006103515625, -106.35,-50.25) ">
<use xlink:href="#Symbol_2_copy_4_0_Layer0_0_MEMBER_34_MEMBER_2_FILL"/>
</g>

<g transform="matrix( 0.3600006103515625, 0, 0, 0.3600006103515625, -106.35,-50.25) ">
<use xlink:href="#Symbol_2_copy_4_0_Layer0_0_MEMBER_35_FILL"/>
</g>

<g transform="matrix( 0.3600006103515625, 0, 0, 0.3600006103515625, -106.35,-50.25) ">
<use xlink:href="#Symbol_2_copy_4_0_Layer0_0_MEMBER_36_FILL"/>
</g>

<g transform="matrix( 0.3600006103515625, 0, 0, 0.3600006103515625, -106.35,-50.25) ">
<use xlink:href="#Symbol_2_copy_4_0_Layer0_0_MEMBER_37_FILL"/>
</g>

<g transform="matrix( 0.3600006103515625, 0, 0, 0.3600006103515625, -106.35,-50.25) ">
<use xlink:href="#Symbol_2_copy_4_0_Layer0_0_MEMBER_38_FILL"/>
</g>

<g transform="matrix( 0.3600006103515625, 0, 0, 0.3600006103515625, -106.35,-50.25) ">
<use xlink:href="#Symbol_2_copy_4_0_Layer0_0_MEMBER_39_MEMBER_0_FILL"/>
</g>

<g transform="matrix( 0.3600006103515625, 0, 0, 0.3600006103515625, -106.35,-50.25) ">
<use xlink:href="#Symbol_2_copy_4_0_Layer0_0_MEMBER_39_MEMBER_1_FILL"/>
</g>

<g transform="matrix( 0.3600006103515625, 0, 0, 0.3600006103515625, -106.35,-50.25) ">
<use xlink:href="#Symbol_2_copy_4_0_Layer0_0_MEMBER_39_MEMBER_2_FILL"/>
</g>

<g transform="matrix( 0.3600006103515625, 0, 0, 0.3600006103515625, -106.35,-50.25) ">
<use xlink:href="#Symbol_2_copy_4_0_Layer0_0_MEMBER_39_MEMBER_3_FILL"/>
</g>

<g transform="matrix( 0.3600006103515625, 0, 0, 0.3600006103515625, -106.35,-50.25) ">
<use xlink:href="#Symbol_2_copy_4_0_Layer0_0_MEMBER_40_MEMBER_0_FILL"/>
</g>

<g transform="matrix( 0.3600006103515625, 0, 0, 0.3600006103515625, -106.35,-50.25) ">
<use xlink:href="#Symbol_2_copy_4_0_Layer0_0_MEMBER_40_MEMBER_1_FILL"/>
</g>

<g transform="matrix( 0.3600006103515625, 0, 0, 0.3600006103515625, -106.35,-50.25) ">
<use xlink:href="#Symbol_2_copy_4_0_Layer0_0_MEMBER_41_MEMBER_0_FILL"/>
</g>

<g transform="matrix( 0.3600006103515625, 0, 0, 0.3600006103515625, -106.35,-50.25) ">
<use xlink:href="#Symbol_2_copy_4_0_Layer0_0_MEMBER_41_MEMBER_1_FILL"/>
</g>

<g transform="matrix( 0.3600006103515625, 0, 0, 0.3600006103515625, -106.35,-50.25) ">
<use xlink:href="#Symbol_2_copy_4_0_Layer0_0_MEMBER_42_MEMBER_0_FILL"/>
</g>

<g transform="matrix( 0.3600006103515625, 0, 0, 0.3600006103515625, -106.35,-50.25) ">
<use xlink:href="#Symbol_2_copy_4_0_Layer0_0_MEMBER_42_MEMBER_1_FILL"/>
</g>

<g transform="matrix( 0.3600006103515625, 0, 0, 0.3600006103515625, -106.35,-50.25) ">
<use xlink:href="#Symbol_2_copy_4_0_Layer0_0_MEMBER_43_MEMBER_0_FILL"/>
</g>

<g transform="matrix( 0.3600006103515625, 0, 0, 0.3600006103515625, -106.35,-50.25) ">
<use xlink:href="#Symbol_2_copy_4_0_Layer0_0_MEMBER_43_MEMBER_1_FILL"/>
</g>

<g transform="matrix( 0.3600006103515625, 0, 0, 0.3600006103515625, -106.35,-50.25) ">
<use xlink:href="#Symbol_2_copy_4_0_Layer0_0_MEMBER_43_MEMBER_2_FILL"/>
</g>

<g transform="matrix( 0.3600006103515625, 0, 0, 0.3600006103515625, -106.35,-50.25) ">
<use xlink:href="#Symbol_2_copy_4_0_Layer0_0_MEMBER_43_MEMBER_3_FILL"/>
</g>
</g>
</g>
</g>
</g>
</g>
</svg>
