
<svg xmlns="http://www.w3.org/2000/svg" version="1.1" xmlns:xlink="http://www.w3.org/1999/xlink" preserveAspectRatio="none" x="0px" y="0px" width="347px" height="249px" viewBox="0 0 347 249">
<defs>
<filter id="Filter_1" x="-20%" y="-20%" width="140%" height="140%" color-interpolation-filters="sRGB">
<feFlood flood-color="#250D09" flood-opacity="1" in="SourceGraphic" result="result1"/>

<feComposite in2="SourceGraphic" in="result1" operator="in" result="result2"/>

<feGaussianBlur in="result2" stdDeviation="1.6666666666666667,1.6666666666666667" result="result3"/>

<feOffset dx="0" dy="0" in="result3" result="result4"/>

<feComposite in2="result4" in="SourceGraphic" operator="over" result="result5"/>
</filter>

<g id="Symbol_4_0_Layer0_0_FILL">
<path fill="#FFFFFF" stroke="none" d="
M 16.25 -48.6
Q 16.45 -44.95 16.85 -41.55 17.15 -38.15 17.15 -33.95 17.15 -25.15 15.95 -22.3 14.7 -19.4 11.75 -19
L -15.3 -12.35
Q -23.3 -10 -27 -5.9 -30.7 -1.8 -30.7 6.4 -30.7 21.45 -17.85 33.95 -4.95 46.45 11.65 46.45 21.9 46.45 31.85 43.1 41.85 39.8 48.85 35.8
L 42.9 23.7
Q 29.9 29.85 20.75 32.55 11.65 35.2 2.85 35.2 -5.55 35.2 -11.9 29.05 -18.3 22.8 -18.3 14.2 -18.3 1.2 -5.35 -1.4 13.1 -4.85 22.9 -7.55 27.5 -9.05 29.05 -11.65 30.5 -14.4 30.5 -22.6 30.3 -28.55 30 -35.1 29.8 -41.55 29.8 -48.6
L 53.45 -48.6 46.6 -61.2 -51.15 -61.2 -44.5 -48.6 16.25 -48.6 Z"/>
</g>
</defs>

<g transform="matrix( 1, 0, 0, 1, 183.6,122.15) ">
<g transform="matrix( 1, 0, 0, 1, -1.15,0) ">
<g filter="url(#Filter_1)" transform="matrix( 1, 0, 0, 1, -182.45,-122.15) ">
<g transform="matrix( 1, 0, 0, 1, 182.45,122.15) ">
<g transform="matrix( 1, 0, 0, 1, 0,0) ">
<use xlink:href="#Symbol_4_0_Layer0_0_FILL"/>
</g>
</g>
</g>
</g>
</g>
</svg>
