
<svg xmlns="http://www.w3.org/2000/svg" version="1.1" xmlns:xlink="http://www.w3.org/1999/xlink" preserveAspectRatio="none" x="0px" y="0px" width="347px" height="249px" viewBox="0 0 347 249">
<defs>
<filter id="Filter_1" x="-20%" y="-20%" width="140%" height="140%" color-interpolation-filters="sRGB">
<feFlood flood-color="#250D09" flood-opacity="1" in="SourceGraphic" result="result1"/>

<feComposite in2="SourceGraphic" in="result1" operator="in" result="result2"/>

<feGaussianBlur in="result2" stdDeviation="1.6666666666666667,1.6666666666666667" result="result3"/>

<feOffset dx="0" dy="0" in="result3" result="result4"/>

<feComposite in2="result4" in="SourceGraphic" operator="over" result="result5"/>
</filter>

<g id="Duplicate_Items_Folder_Symbol_2_0_Layer0_0_FILL">
<path fill="#FFFFFF" stroke="none" d="
M 35.9 -7.2
Q 29.25 -4.35 25.45 -4.35 12.95 -4.35 -2.5 -16.15 1.9 -18.4 4.85 -23 7.85 -27.6 7.85 -32.35 7.85 -37.35 5.6 -42.05 3.45 -46.65 -2.2 -51.9 -7.95 -57.3 -14.8 -60.1 -21.55 -63.05 -25.75 -63.05 -30.7 -63.05 -37.35 -60.9 -44 -58.65 -50.75 -55.25
L -46.35 -45.85
Q -44.6 -43.1 -42.7 -43.1 -36.4 -46.45 -29.75 -50.05 -23.2 -53.1 -17.7 -53.1 -11.75 -53.1 -7.95 -49.45 -4.15 -45.85 -4.15 -39.2 -4.15 -32.3 -9.3 -26.6 -13.5 -22.2 -16.55 -22.2 -18.1 -22.2 -25.35 -21.25 -32.55 -20.15 -34.3 -20.15 -38.15 -20.15 -38.15 -16.25 -38.15 -14.2 -32.1 -8.25 -29.15 -5.25 -27.9 -5.25 -26.5 -5.25 -19.1 -8.05 -15.3 -9.4 -8.55 -12.05 -3.25 -10.5 -0.05 -6.1 3.25 -1.8 3.25 4.55 3.25 13.45 -2.8 19.85 -8.95 26.4 -18.5 26.4 -30.15 26.4 -38.9 18.2 -47.8 10 -55.5 -7.55
L -61.75 -4.15
Q -52 17.05 -40.3 28 -28.55 39 -14.9 39 -1.5 39 7 31.7 15.5 24.25 15.5 11.75 15.5 5.7 12.05 0.25
L 12.45 0.25
Q 16.85 3.65 21.95 5.15 26.9 6.6 30.5 6.6 33.65 6.6 37.65 6.1 41.65 5.6 45.05 4.25
L 44.3 48.4 58.25 56.2 58.25 -48.6 75.25 -48.6 68.4 -61.2 10.9 -61.2 17.25 -48.6 44.3 -48.6 44.3 -12.35
Q 42.55 -9.9 35.9 -7.2 Z"/>
</g>
</defs>

<g transform="matrix( 1, 0, 0, 1, 183.6,122.15) ">
<g transform="matrix( 1, 0, 0, 1, -6.75,0) ">
<g filter="url(#Filter_1)" transform="matrix( 1, 0, 0, 1, -176.85,-122.15) ">
<g transform="matrix( 1, 0, 0, 1, 176.85,122.15) ">
<g transform="matrix( 1, 0, 0, 1, 0,0) ">
<use xlink:href="#Duplicate_Items_Folder_Symbol_2_0_Layer0_0_FILL"/>
</g>
</g>
</g>
</g>
</g>
</svg>
