
<svg xmlns="http://www.w3.org/2000/svg" version="1.1" xmlns:xlink="http://www.w3.org/1999/xlink" preserveAspectRatio="none" x="0px" y="0px" width="347px" height="249px" viewBox="0 0 347 249">
<defs>
<filter id="Filter_1" x="-20%" y="-20%" width="140%" height="140%" color-interpolation-filters="sRGB">
<feFlood flood-color="#250D09" flood-opacity="1" in="SourceGraphic" result="result1"/>

<feComposite in2="SourceGraphic" in="result1" operator="in" result="result2"/>

<feGaussianBlur in="result2" stdDeviation="1.6666666666666667,1.6666666666666667" result="result3"/>

<feOffset dx="0" dy="0" in="result3" result="result4"/>

<feComposite in2="result4" in="SourceGraphic" operator="over" result="result5"/>
</filter>

<g id="Symbol_3_0_Layer0_0_FILL">
<path fill="#FFFFFF" stroke="none" d="
M 15.35 -48.6
L 15.35 -33.15 -17.65 -33.15
Q -26.4 -33.15 -30.6 -28.75 -34.8 -24.35 -34.8 -16.95 -34.8 -12.95 -31.4 -6.7 -28 -0.35 -22.25 5.4 -25.85 9.05 -27.8 13.45 -29.85 17.8 -29.85 23.8 -29.85 39 -13.85 49.35 -1.05 57.75 22.8 63.6
L 24.35 58.15
Q 3.15 51.2 -6.9 43 -15.9 35.6 -15.9 27.4 -15.9 19.4 -8.45 11.55 -0.05 2.8 11.55 2.8 16.55 2.8 21.15 6.5 25.7 10.2 25.7 15.4 25.7 26 11.15 28.75
L 18.6 40.2
Q 29.15 36.95 33.45 32.1 37.75 27.2 37.75 19.75 37.75 10.2 27.5 1.6 17.15 -7 7.95 -7 1.5 -7 -4.95 -5.4 -11.5 -3.75 -17.25 0.25 -20.45 -2.2 -22.6 -5.3 -24.65 -8.55 -24.65 -11.75 -24.65 -15.6 -21.55 -18.1 -18.4 -20.75 -15.1 -20.75
L 24.35 -20.75
Q 28.75 -20.75 28.75 -25.15
L 28.75 -48.6 57.55 -48.6 50.7 -61.2 -55.25 -61.2 -48.6 -48.6 15.35 -48.6 Z"/>
</g>
</defs>

<g transform="matrix( 1, 0, 0, 1, 183.6,122.15) ">
<g transform="matrix( 1, 0, 0, 1, -1.15,0) ">
<g filter="url(#Filter_1)" transform="matrix( 1, 0, 0, 1, -182.45,-122.15) ">
<g transform="matrix( 1, 0, 0, 1, 182.45,122.15) ">
<g transform="matrix( 1, 0, 0, 1, 0,0) ">
<use xlink:href="#Symbol_3_0_Layer0_0_FILL"/>
</g>
</g>
</g>
</g>
</g>
</svg>
