
<svg xmlns="http://www.w3.org/2000/svg" version="1.1" xmlns:xlink="http://www.w3.org/1999/xlink" preserveAspectRatio="none" x="0px" y="0px" width="1782px" height="333px" viewBox="0 0 1782 333">
<defs>
<g id="text_with_blank_0_Layer0_0_FILL">
<path fill="#000000" stroke="none" d="
M -507.9 -59.15
L -507.75 -59.3 -507.9 -59.45 -507.9 -59.15 Z"/>
</g>

<g id="Symbol_7_0_Layer1_0_FILL">
<path fill="#000000" stroke="none" d="
M -150.55 -55.25
L -159.3 -64.05 -167.9 -55.5 -159.3 -46.65 -150.55 -55.25
M -175.65 -3.45
Q -175.65 -2.3 -174.55 -0.25 -173.05 2.65 -169.65 6.85 -165.1 12.4 -158.05 20.2 -150.95 28 -144.45 34.75
L -140.75 30.4
Q -146.15 25 -151.5 19.65 -162.4 8.55 -162.4 7.6 -162.4 6.75 -161.8 6.1 -161.15 5.45 -158.4 3.65 -156.55 2.6 -155.1 -0.25 -153.55 -3.05 -153.55 -6
L -153.55 -29.1 -124.65 -29.1 -124.65 -8.75
Q -124.65 -7.25 -125.6 -7.25
L -131.75 -7.25
Q -132.45 -7.25 -133.35 -6.4 -134.15 -5.45 -134.15 -4.4 -134.15 -1.5 -129.25 3.5 -128.2 4.65 -125.65 7.15 -122.4 10.15 -121.35 10.15 -119.4 10.15 -118.05 8.6 -116.65 7.15 -116.65 5.1
L -116.65 -29.1 -104.4 -29.1 -104.4 28.95 -96.6 33.75 -96.6 -29.1 -86.3 -29.1 -90.4 -36.7 -187.8 -36.7 -183.7 -29.1 -162.2 -29.1
Q -162.2 -28.3 -161.85 -26.25 -161.7 -24.65 -161.7 -21.1 -161.7 -10.3 -162.15 -7.25 -162.55 -4.15 -163.4 -4.15 -164 -4.15 -167.6 -6.15 -171.2 -8.15 -171.8 -8.15 -173.25 -8.15 -174.45 -6.55 -175.65 -5.05 -175.65 -3.45
M -374.25 -11
Q -371.75 -11 -368.7 -8.65 -365.65 -6.35 -363.95 -3.7 -364.55 -2.85 -365.4 -1.3 -366.25 0.25 -367.25 2.05
L -360.6 6.5
Q -355.75 -2.85 -352.45 -6.1 -349.15 -9.3 -345 -9.3 -341.9 -9.3 -339 -7.3
L -339.35 29.05 -331.2 33.75 -331.2 -29.1 -314.65 -29.1 -314.65 29.05 -306.6 33.75 -306.6 -29.1 -238.3 -29.1 -238.3 -11.85
Q -239.85 -13.3 -242.65 -14.65 -245.4 -16.05 -247.8 -16.05 -251.35 -16.05 -254.45 -14 -257.5 -12 -260.95 -7.3 -263.95 -11 -268.05 -15.1 -269.5 -16.5 -272.1 -17.5 -274.7 -18.45 -277.45 -18.45 -284.4 -18.45 -288.75 -12.7 -292.3 -7.9 -292.3 -2.35 -292.3 7.4 -283.25 17.8 -275.75 26.45 -262.95 34.75
L -259.55 30.65
Q -274.1 22.4 -279.85 14.7 -284.15 8.8 -284.15 1.25 -284.15 -4.65 -280.3 -8.15 -277.2 -11 -273.2 -11 -270.7 -11 -267.65 -8.65 -264.6 -6.35 -262.9 -3.7 -263.5 -2.85 -264.35 -1.3 -265.2 0.25 -266.2 2.05
L -259.55 6.5
Q -254.7 -2.85 -251.4 -6.1 -248.1 -9.3 -243.95 -9.3 -240.85 -9.3 -237.95 -7.3
L -238.3 29.05 -230.15 33.75 -230.15 -29.1 -219.95 -29.1 -223.95 -36.7 -405.4 -36.7 -401.15 -29.1 -339.35 -29.1 -339.35 -11.85
Q -340.9 -13.3 -343.7 -14.65 -346.45 -16.05 -348.85 -16.05 -352.4 -16.05 -355.5 -14 -358.55 -12 -362 -7.3 -365 -11 -369.1 -15.1 -370.55 -16.5 -373.15 -17.5 -375.75 -18.45 -378.5 -18.45 -385.45 -18.45 -389.8 -12.7 -393.35 -7.9 -393.35 -2.35 -393.35 7.4 -384.3 17.8 -376.8 26.45 -364 34.75
L -360.6 30.65
Q -375.15 22.4 -380.9 14.7 -385.2 8.8 -385.2 1.25 -385.2 -4.65 -381.35 -8.15 -378.25 -11 -374.25 -11
M 392.6 -32.85
L 384.45 -38.05 384.45 29.2 392.6 34.35 392.6 -32.85
M 318.9 -7.05
Q 318.9 -9.3 320.75 -10.85 322.65 -12.4 324.6 -12.4
L 348.3 -12.4
Q 350.95 -12.4 350.95 -15.05
L 350.95 -29.1 368.2 -29.1 364.1 -36.7 353.55 -36.7
Q 352.4232421875 -39.8322265625 348.65 -48.65 344.15 -59.35 342 -62.6 339.8 -65.85 336.2 -67.6 333.45 -68.95 330.7 -68.95 328.6 -68.95 327.3 -68.85 325.85 -68.75 325.85 -68.25 326 -67.9 328.9 -63 329.75 -61.4 331.65 -58.3 332.35 -58.65 332.95 -59.1 333.95 -59.1 334.9 -59.1 336.5 -59.1 338.8 -57.5 341.2 -55.9 342.8 -53.4 344.05 -51.2 345.95 -46.5 347.631640625 -42.5900390625 349.95 -36.7
L 347.2 -36.7
Q 346.3453125 -38.305078125 345.1 -40.55 341.5 -46.95 340.05 -49.1 338.1 -51.85 335.6 -53.05 333.1 -54.25 330.9 -54.25 330.55 -54.25 328.8 -54.15 327.1 -54 327.1 -53.65
L 331.65 -44.7
Q 332.35 -45 332.75 -45.35 333.55 -45.35 334.3 -45.35 335.5 -45.35 337.55 -44.4 339.6 -43.4 340.65 -41.7 341.18984375 -40.6693359375 343.8 -36.7
L 300.55 -36.7 304.5 -29.1 342.9 -29.1 342.9 -19.85 323.1 -19.85
Q 317.85 -19.85 315.3 -17.25 312.8 -14.6 312.8 -10.15 312.8 -7.75 314.85 -4 316.9 -0.2 320.35 3.3 318.2 5.45 317 8.1 315.75 10.7 315.75 14.3 315.75 23.45 325.4 29.65 333.05 34.7 347.35 38.2
L 348.3 34.9
Q 335.6 30.75 329.55 25.85 324.15 21.4 324.15 16.45 324.15 11.65 328.6 6.95 333.65 1.7 340.6 1.7 343.6 1.7 346.35 3.95 349.1 6.15 349.1 9.25 349.1 15.65 340.4 17.3
L 344.85 24.15
Q 351.15 22.2 353.75 19.3 356.3 16.35 356.3 11.9 356.3 6.15 350.15 1 343.95 -4.15 338.45 -4.15 334.6 -4.15 330.7 -3.2 326.8 -2.25 323.35 0.2 321.4 -1.3 320.1 -3.15 318.9 -5.1 318.9 -7.05
M 158.2 -62.6
Q 156 -65.85 152.4 -67.6 149.65 -68.95 146.9 -68.95 144.8 -68.95 143.5 -68.85 142.05 -68.75 142.05 -68.25 142.2 -67.9 145.1 -63 145.95 -61.4 147.85 -58.3 148.55 -58.65 149.15 -59.1 150.15 -59.1 151.1 -59.1 152.7 -59.1 155 -57.5 157.4 -55.9 159 -53.4 160.25 -51.2 162.15 -46.5 163.831640625 -42.5900390625 166.15 -36.7
L 92.15 -36.7 96.1 -29.1 134.5 -29.1 134.5 -19.85 114.7 -19.85
Q 109.45 -19.85 106.9 -17.25 104.4 -14.6 104.4 -10.15 104.4 -7.75 106.45 -4 108.5 -0.2 111.95 3.3 109.8 5.45 108.6 8.1 107.35 10.7 107.35 14.3 107.35 23.45 117 29.65 124.65 34.7 138.95 38.2
L 139.9 34.9
Q 127.2 30.75 121.15 25.85 115.75 21.4 115.75 16.45 115.75 11.65 120.2 6.95 125.25 1.7 132.2 1.7 135.2 1.7 137.95 3.95 140.7 6.15 140.7 9.25 140.7 15.65 132 17.3
L 136.45 24.15
Q 142.75 22.2 145.35 19.3 147.9 16.35 147.9 11.9 147.9 6.15 141.75 1 135.55 -4.15 130.05 -4.15 126.2 -4.15 122.3 -3.2 118.4 -2.25 114.95 0.2 113 -1.3 111.7 -3.15 110.5 -5.1 110.5 -7.05 110.5 -9.3 112.35 -10.85 114.25 -12.4 116.2 -12.4
L 139.9 -12.4
Q 142.55 -12.4 142.55 -15.05
L 142.55 -29.1 164.5 -29.1 164.5 29.05 172.55 33.75 172.55 -29.1 221.05 -29.1 221.05 -16.65 201.85 -16.65
Q 196.25 -16.65 192.3 -13.55 187.55 -9.8 187.55 -2.65 187.55 4 191.45 11.85 195.35 19.7 205.15 31.95
L 209.5 28.35
Q 201.5 18.75 198.2 12.75 195 6.75 195 1.8 195 -3.95 197.9 -6.5 200.85 -9.1 207.1 -9.1
L 221.5 -9.1 221.05 29.05 229.3 33.75 229.3 -29.1 248.1 -29.1 248.1 29.05 256.05 33.75 256.05 -29.1 268.65 -29.1 264.55 -36.7 253.85 -36.7
Q 251.95 -51.1 245.95 -58.65 240.45 -65.6 232.55 -65.6 226.5 -65.6 222.65 -61.95 218.7 -58.3 218.7 -52.05 218.7 -50.5 219.75 -47.75 220.9 -44.95 221.7 -44.1
L 224.7 -45.25
Q 224.7 -58.05 232.95 -58.05 238.85 -58.05 243.3 -53.05 248.25 -47.35 249.75 -36.7
L 169.7 -36.7
Q 168.5943359375 -39.8591796875 164.85 -48.65 160.35 -59.35 158.2 -62.6
M 24.55 -58.05
Q 30.45 -58.05 34.9 -53.05 39.85 -47.35 41.35 -36.7
L -59.65 -36.7 -55.45 -29.1 -13.65 -29.1 -13.9 -6.8
Q -15.5 -9.1 -17.2 -11.2 -18.95 -13.3 -21 -15 -23.05 -16.65 -25.85 -17.3 -28.65 -17.85 -31.95 -17.85 -40.45 -17.85 -44.8 -12.25 -47.65 -8.5 -47.65 -4.45 -47.65 3.45 -41.85 9.2 -36.1 14.9 -28.3 14.9 -24.25 14.9 -20.7 13.2 -19.15 12.5 -13.65 9
L -13.3 29.05 -5.5 33.75 -5.5 3.65
Q -1.4 0.2 2.7 -2.1 6.85 -4.4 9.15 -4.4 12.1 -4.4 14 -2.65 15.85 -0.95 15.85 2.25 15.85 6.05 13.65 11.05 11.4 16.1 7.9 20.9
L 14.75 27.15
Q 21.95 16.1 21.95 8.9 21.95 -1.15 16.35 -7.25 11.9 -12.05 7.1 -12.05 3.95 -12.05 0.85 -10.35 -1.55 -9.1 -5.5 -6
L -5.5 -29.1 39.7 -29.1 39.7 29.05 47.65 33.75 47.65 -29.1 60.25 -29.1 56.15 -36.7 45.45 -36.7
Q 43.55 -51.1 37.55 -58.65 32.05 -65.6 24.15 -65.6 18.1 -65.6 14.25 -61.95 10.3 -58.3 10.3 -52.05 10.3 -50.5 11.35 -47.75 12.5 -44.95 13.3 -44.1
L 16.3 -45.25
Q 16.3 -58.05 24.55 -58.05
M -30.35 -10.45
Q -24.6 -10.45 -21.05 -8.3 -17.55 -6.2 -13.65 -0.8 -19.05 3.35 -24.05 5.75 -29.1 8.15 -32.75 8.15 -36.5 8.15 -39.05 6 -41.55 3.8 -41.55 0.1 -41.55 -4.9 -38.15 -7.7 -34.7 -10.45 -30.35 -10.45 Z"/>
</g>

<g id="Symbol_6_0_Layer0_0_FILL">
<path fill="#000000" stroke="none" d="
M -456.4 -2.25
Q -456.4 -2.1 -456.4 -1.95 -457.25 -1.95 -458 -1.95 -458.7 -1.65 -459.3 -1.35 -459.9 -0.9 -460.5 -0.45 -460.5 0 -460.5 0.5 -460.5 0.95 -460.5 1.4 -460.3 1.85 -460.1 2.3 -459.5 2.75 -458.9 3.25 -457.6 3.55 -456.4 3.85 -290.6 3.85 -124.85 3.85 -123.95 3.7 -123.15 3.55 -122.55 3.25 -121.95 2.9 -121.55 2.45 -121.1 2 -120.9 1.55 -120.65 1.1 -120.65 0.65 -120.65 0.15 -121.1 -0.3 -121.55 -0.75 -122.15 -1.2 -122.75 -1.65 -123.75 -1.95 -124.85 -2.25 -290.6 -2.25 -456.4 -2.25 Z"/>
</g>
</defs>

<g transform="matrix( 1, 0, 0, 1, 969.2,189.7) ">
<g transform="matrix( 1, 0, 0, 1, 0,0) ">
<use xlink:href="#text_with_blank_0_Layer0_0_FILL"/>
</g>

<g transform="matrix( 1, 0, 0, 1, 188.6,-23.75) ">
<g transform="matrix( 1, 0, 0, 1, 0,0) ">
<use xlink:href="#Symbol_7_0_Layer1_0_FILL"/>
</g>
</g>

<g transform="matrix( 1, 0, 0, 1, -515.25,107.65) ">
<g transform="matrix( 1.4407958984375, 0, 0, 0.8573760986328125, 418.65,-0.65) ">
<use xlink:href="#Symbol_6_0_Layer0_0_FILL"/>
</g>
</g>
</g>
</svg>
