
<svg xmlns="http://www.w3.org/2000/svg" version="1.1" xmlns:xlink="http://www.w3.org/1999/xlink" preserveAspectRatio="none" x="0px" y="0px" width="278px" height="216px" viewBox="0 0 278 216">
<defs>
<g id="Symbol_4_5_Layer0_0_FILL">
<path fill="#000000" stroke="none" d="
M 198.7 94.05
Q 199.65 92.05 199.65 87.8 199.65 76.95 191.85 69.6 184.1 62.25 170.9 62.25 158.5 62.25 150.2 69.5
L 146.7 73.6 144.3 77.9 143 82.35
Q 143 83.5 143 87.4
L 143.75 93.9
Q 144.7 96.95 146.7 99.5 150.4 105.1 157.85 107.3 147.65 110.85 144.1 116.05
L 140.8 121.5 140.1 123.3
Q 139.25 124.85 139.25 127.4
L 139.25 132.05
Q 139.25 137.85 141.65 143.75 144.7 149.95 148.4 153.7 156.3 161.65 171.25 161.65 174.8 161.65 178.2 161.1 181.65 160.55 184.6 159.5 196.7 155.5 201.35 144.35 202.8 141.2 203.15 138.65 203.55 136.15 203.55 132.45 203.55 129.85 203.15 127.95 202.8 125.95 202.2 123.7 199.25 115.1 192.95 111.2 190 108.45 185.15 107.3 191.05 104.95 194.6 101.5 198.1 97.95 198.7 94.05
M 171.35 72.15
Q 174.8 72.15 177.15 73.3
L 182.7 76.65
Q 187.35 82 187.35 87.8 187.35 90.95 186.2 93.7
L 182.9 98.35
Q 178.3 102.85 171.55 102.85 168 102.85 164.5 101.7 159.15 99.9 156.2 93.5 155.25 90.95 155.25 87.05 156.4 80 159.75 76.65 164.5 72.15 171.35 72.15
M 170.95 112.55
Q 174.6 112.55 178.7 113.9 187.35 117.6 189.65 124.65 191.25 127.8 191.25 132.45 191.25 140.8 185.75 146.55 180.2 152.15 171.45 152.15
L 165.75 151.6 160.8 149.6 156.7 146.55 153.75 141.95 151.95 137.1 151.35 132.05
Q 151.35 129.1 152.7 124.65 156.1 116.45 163.15 114.05 166.3 112.55 170.95 112.55
M 108.65 62.1
L 100.95 62.1 96.55 68.75
Q 93.05 72.85 89.9 75.4
L 81.8 81.9
Q 76.25 85.2 72.55 86.55
L 72.55 98.35 81.9 94.25 91.7 88
Q 94.15 86.25 96.55 83.7
L 96.55 160.15 108.65 160.15 108.65 62.1 Z"/>
</g>
</defs>

<g transform="matrix( 1, 0, 0, 1, -0.8,-1.45) ">
<g transform="matrix( 1, 0, 0, 1, 0,0) ">
<use xlink:href="#Symbol_4_5_Layer0_0_FILL"/>
</g>
</g>
</svg>
