
<svg xmlns="http://www.w3.org/2000/svg" version="1.1" xmlns:xlink="http://www.w3.org/1999/xlink" preserveAspectRatio="none" x="0px" y="0px" width="1920px" height="1080px" viewBox="0 0 1920 1080">
<defs>
<g id="Symbol_1_14_Layer1_0_FILL">
<path fill="#FFFFFF" stroke="none" d="
M -343.1 -34.75
L -343.1 -28.8 -296.75 -28.8 -296.75 6.9 -297.6 10.1 -321.65 -6.4 -319.45 -8.35 -316.55 -9.75 -313.35 -10.65
Q -312.5 -10.65 -310.05 -10.65
L -306.3 -10.1
Q -304.1 -9.55 -303.5 -8.6
L -304.5 -15.25 -305.7 -15.55 -306.45 -15.85 -310.05 -16.45 -313.35 -16.45
Q -315.3 -16.45 -317.1 -16.2 -319.05 -15.9 -321.1 -15 -324.85 -13.3 -327.75 -10.4 -333.85 -4.3 -333.85 4 -333.85 8.45 -332.4 12.4 -330.65 16.05 -327.1 19.15 -323.55 22.25 -320 23.55 -316.4 24.75 -312.1 24.75
L -307.9 24.45
Q -305.6 24.05 -303.8 23.2
L -300.05 21.25
Q -298 19.85 -296.75 18.1
L -296.75 40.1 -289 40.1 -289 -28.8 -265.8 -28.8 -265.8 40.1 -258.05 40.1 -258.05 -28.8 -178.2 -28.8 -178.2 -9.65 -181.5 -9.65 -188.45 -7.4 -190.5 -6.15 -195.65 -2.25
Q -195.8 -3.25 -197.15 -4.15
L -201.05 -7.2
Q -203.95 -9.45 -207.55 -10.4 -210.2 -11.35 -211.9 -11.45 -213.65 -11.5 -214.95 -11.5 -224.35 -11.5 -230.3 -5.9 -236.25 -0.35 -236.25 8.5 -236.25 18.8 -227.45 28.05 -215.3 40.65 -207.9 40.65
L -204.3 34.6 -211.65 31.1 -216.7 27.9
Q -229.15 19.9 -229.15 9.1 -229.15 4 -225.25 -1.1 -222.8 -3.35 -220.95 -4.2 -219.2 -5 -218.35 -5.15 -217.55 -5.3 -215.55 -5.3
L -211.05 -4.6 -206.1 -2.5
Q -200.65 -0.2 -199.7 2.6
L -200.65 4.7 -204.5 11.05 -204.5 12.85 -198.3 16.45 -197.15 13.1 -192.75 5.4 -190.35 2.5 -188.3 0.65 -186.4 -0.7 -181.95 -2.8 -178.2 -3.85 -178.2 40.1 -170.6 40.1 -170.6 -28.8 -146.9 -28.8 -146.9 40.1 -139.15 40.1 -139.15 -28.8 -125.1 -28.8 -125.1 -34.75 -140.95 -34.75 -170.7 -71.25 -175.75 -65.75 -145.75 -34.75 -259.85 -34.75 -289.6 -71.25 -294.65 -65.75 -264.65 -34.75 -343.1 -34.75
M -325.35 -1.55
L -324.7 -2.95 -300.9 13.9 -302.65 15.45 -304.1 16.45
Q -305.45 17.5 -306.15 17.85 -306.85 18.2 -308.05 18.5
L -309.6 19.05 -311.95 19.05
Q -314.15 19.05 -317.45 18.1 -320.25 16.8 -322.3 14.6 -324.55 12.55 -325.55 10 -326.45 7.45 -326.45 4
L -326.45 2.15 -325.35 -1.55
M 149.85 -34.75
L 149.85 -28.8 184.05 -28.8 184.05 -3.5 183.05 -1.45
Q 182.4 -0.45 181.15 -0.05
L 177.85 0.4
Q 171.85 0.4 169.25 -4.7
L 165 -12.85 158.7 -8.8 167.95 7.05 185.65 32.75
Q 190 39.25 192.6 40.1
L 198.45 35.15 195.45 32.1 184.65 19.05 175.7 5.5
Q 176.8 6.05 177.75 6.05
L 179.35 6.2 180.75 5.95
Q 181.25 5.5 182.55 5.5
L 185.65 4.65
Q 189.6 2.85 190.55 -0.1
L 191.4 -3.3 191.4 -28.8 218.65 -28.8 218.65 -3.5 193.15 -3.5 198.25 2.45 218.65 2.45 218.65 40.1
Q 214.05 41 210.5 43.05
L 206.75 45.25 205.05 46.85 210.8 52 214.05 48.75
Q 218.1 45.9 221.55 45.9
L 224.9 46.55
Q 226.65 47.75 227.5 48.9
L 229.7 52
Q 230.4 53.7 230.7 55.55 230.7 58.25 229.7 60.3 225.15 67.35 214.6 67.35 205.75 67.35 195.8 60.7
L 186.3 54.05 181.4 60.3
Q 183.1 62 187.5 64.6
L 197.75 69.85
Q 207.2 73.75 214.25 73.75 223.25 73.75 230.05 69.55 237.9 64.75 237.9 55.6 237.9 52.85 236.9 49.1 235.7 46.35 233.45 44 230.15 40.75 225 40.1
L 226.35 40.1 226.35 -28.8 290.9 -28.8 290.9 -8.75 249.35 -8.75 248.05 -8.35
Q 245.7 -6.5 245.7 -3.95 246.15 -2.25 247.5 -0.05 249.9 3.85 252.1 6.35
L 257.45 11.9
Q 259.8 13.85 260.65 13.85
L 262.35 13.85
Q 263.55 12.7 263.7 12.4 263.85 12.2 263.85 11.5
L 263.85 -2.95 290.9 -2.95 290.9 40.1 298.6 40.1 298.6 -28.8 321.3 -28.8 321.3 40.1 329.05 40.1 329.05 -28.8 343.1 -28.8 343.1 -34.75 327.25 -34.75 297.5 -71.25 292.45 -65.75 322.45 -34.75 149.85 -34.75
M 9.55 -71.25
L 2.75 -67.5 27.7 -34.75 18.9 -34.75 -7.9 -59.8 -13.3 -53.85 15.25 -34.75 -21.2 -34.75 -21.2 -28.8 -7.15 -28.8 -7.15 0.75 -9.1 1.5 -14.1 2.8 -20.85 2.8 -25.7 0.9 -34.3 -3.6 -35.65 -3.85 -36.35 -3.75
Q -28.1 -8.4 -28.1 -17.55 -28.1 -24.55 -32.6 -29.35 -37.95 -34.75 -44.9 -34.75 -54.05 -34.75 -61.2 -28.85
L -65.95 -24.9
Q -67 -23.9 -67.2 -23.6 -67.4 -23.35 -67.55 -22.85
L -61.9 -18.3 -59 -21.45 -53.6 -25.95
Q -49.15 -28.8 -45.45 -28.8 -43.05 -28.8 -40.45 -27.8 -36.35 -25.9 -35.5 -21.9 -34.9 -20.35 -34.9 -17.55 -34.9 -14.5 -36.55 -11.75 -40.15 -6.2 -46.8 -4.45 -47.5 -4.3 -49.55 -3.85 -51.25 -3.85 -53.05 -3.85
L -50.55 1.5 -49 1.5
Q -47.65 0.65 -45.9 0.65
L -43.4 0.65
Q -39.25 0.65 -35 2.95 -30.8 5.1 -29.75 9.1 -28.9 10.65 -28.75 11.7 -28.6 12.7 -28.6 15.05 -28.6 17.3 -29.6 19.9 -33.3 28.05 -39.95 28.05 -49.65 28.05 -58.5 14.8
L -62.1 9.45 -66.65 1.5 -72.6 5.4
Q -72.6 9.3 -63.15 20.35 -57.55 27.05 -51.9 30.4 -48.7 32.25 -46.1 33 -43.4 33.75 -40.35 33.75
L -36.35 33.75
Q -21.4 30.85 -21.4 15.4
L -21.4 12.15 -22.25 8.8 -23.3 6.25 -21.7 7.05 -17.15 8.3 -11.5 8.3 -7.15 7.2 -7.15 40.1 0.2 40.1 0.2 -28.8 23.15 -28.8 23.15 40.1 30.9 40.1 30.9 -28.8 79.45 -28.8 79.45 -10.5
Q 78.6 -5.3 76.35 -3.25 74.05 -1.1 69.35 -1.1 63.4 -1.1 61.05 -4.7
L 55.1 -14.85 49.15 -10.5 59.35 6.9 63.8 13.55
Q 70.75 24.05 77.9 32.25 83.85 39.4 86.05 40.1
L 91.35 35.15 80.65 23.75 76.55 18.65 66.15 3.7
Q 66.7 4.15 68.75 4.4
L 71.5 4.4
Q 74.4 4.4 77.35 3.45 87.15 -0.45 87.15 -9.9
L 87.15 -28.8 98.8 -28.8 98.8 -34.75 32.8 -34.75 9.55 -71.25 Z"/>
</g>
</defs>

<g transform="matrix( 1, 0, 0, 1, 960,540) ">
<g transform="matrix( 1, 0, 0, 1, 0,0) ">
<use xlink:href="#Symbol_1_14_Layer1_0_FILL"/>
</g>
</g>
</svg>
