
<svg xmlns="http://www.w3.org/2000/svg" version="1.1" xmlns:xlink="http://www.w3.org/1999/xlink" preserveAspectRatio="none" x="0px" y="0px" width="686px" height="560px" viewBox="0 0 686 560">
<defs>
<g id="Duplicate_Items_Folder_Symbol_4_copy_2_9_Layer0_0_FILL">
<path fill="#0A0A0A" stroke="none" d="
M 35.5 -72.7
L 13.95 -90.75
Q 4.75 -98.2 -7 -105.4 -35.4 -122.8 -58.1 -122.8 -67.8 -122.8 -77 -119.45 -89.9 -114 -97.95 -102.9 -102.2 -97.2 -103.5 -91.75 -104.85 -86.35 -104.85 -78.15
L -104.85 -73.45 -101.05 -57.75 -100.15 -55 -127.4 -55 -127.4 -43 -101.05 -43 -101.05 99.55 -85.05 99.55 -85.05 -43 90.35 -43 90.35 -4.9 18.7 -4.6
Q 21.35 -2.55 23.25 0.55
L 31 11.95
Q 36.15 18.55 39.8 29.7 42.45 38.3 42.45 45.2 42.45 54.85 37.45 61.6 32.45 68.35 23.55 68.35 7.25 68.35 -7.4 47.4 -19.4 30.55 -26 10.2
L -31.4 -6.65 -32 -10.6 -32 -12.95 -44.9 -3.3 -43.7 3.3 -38 18.85
Q -28.45 43.75 -16.15 58.85 2.15 80.05 22.2 80.05 30.7 80.05 37.3 77.7 50.8 71.7 55.05 58.85 57.1 53.4 57.2 50.35 57.35 47.4 57.35 44.6
L 56.2 36.55 53.1 26 47.85 12.85
Q 45.65 7.7 43.9 6.85
L 90.35 6.85 90.35 99.55 106.3 99.55 106.3 -43 130.9 -43 130.9 -55.3 52.9 -55.3 35.5 -72.7
M 0.75 -83.55
L 7.65 -78.45
Q 12.95 -74.45 18.35 -69.05
L 33.15 -55.3 -62.6 -55.3 -62.6 -55 -85.05 -55 -86.55 -57.35 -88.75 -63.05 -90.5 -69.95 -90.5 -75.95
Q -90.5 -82.7 -88.45 -90.15 -82.15 -103.9 -71.3 -107.6 -66.45 -109.9 -59.3 -109.9 -50.65 -109.9 -38.65 -105.8 -26.6 -101.85 -17.25 -95.55
L 0.75 -83.55 Z"/>
</g>
</defs>

<g transform="matrix( 1.67596435546875, 0, 0, 1.67596435546875, 341.7,283.05) ">
<g transform="matrix( 1, 0, 0, 1, 0,0) ">
<use xlink:href="#Duplicate_Items_Folder_Symbol_4_copy_2_9_Layer0_0_FILL"/>
</g>
</g>
</svg>
