
<svg xmlns="http://www.w3.org/2000/svg" version="1.1" xmlns:xlink="http://www.w3.org/1999/xlink" preserveAspectRatio="none" x="0px" y="0px" width="870px" height="591px" viewBox="0 0 870 591">
<defs>
<g id="Duplicate_Items_Folder_Symbol_55_0_Layer2_0_FILL">
<path fill="#666666" stroke="none" d="
M 43.8 -49.8
L 71.2 -49.8 71.2 80.25 88.65 91 88.65 -49.8 224.5 -49.8 224.5 -21.3 154.3 -21.3 151.7 -15.15
Q 166.5 -6.25 174.55 1.5 186.05 12.8 186.05 23.55 186.05 31.05 182 35.9 178.05 40.75 170.2 40.75 163.75 40.75 155.35 35.35 146.85 30 141.45 22.5 134.5 12.8 130.95 6.35 126.35 -1.9 121.9 -12.9
L 111.65 -8.75
Q 121.25 12 128.05 23.05 138.2 40.2 148.7 48.5 161.4 58.7 176.1 58.7 186.05 58.7 194.35 52.3 203.8 45.05 203.8 33.55 203.8 23.55 197.9 14.35 193.55 7.7 181.5 -4.4
L 224.5 -4.4 224.5 80.5 242.75 91 242.75 -49.8 273.75 -49.8 264.55 -66.7 -262.65 -66.7 -253.2 -49.8 -159.65 -49.8 -160.15 0.2
Q -163.7 -4.9 -167.5 -9.65 -171.45 -14.35 -176.05 -18.15 -180.65 -21.85 -186.95 -23.3 -193.2 -24.6 -200.55 -24.6 -219.6 -24.6 -229.3 -12 -235.75 -3.6 -235.75 5.45 -235.75 23.15 -222.75 36 -209.9 48.75 -192.45 48.75 -183.4 48.75 -175.4 44.95 -171.95 43.35 -159.65 35.65
L -158.85 80.5 -141.4 91 -141.4 23.55
Q -132.2 15.8 -123 10.7 -113.7 5.6 -108.6 5.6 -101.9 5.6 -97.7 9.5 -93.5 13.3 -93.5 20.4 -93.5 28.95 -98.5 40.2 -103.45 51.5 -111.35 62.25
L -96 76.15
Q -79.85 51.5 -79.85 35.35 -79.85 12.8 -92.45 -0.85 -102.4 -11.6 -113.2 -11.6 -120.15 -11.6 -127.1 -7.8 -132.45 -4.9 -141.4 2.05
L -141.4 -49.8 -45.4 -49.8 -45.4 80.5 -27.45 91 -27.45 -49.8 25.8 -49.8 25.8 -4.15
Q 25.8 -0.85 23.7 -0.85
L 9.95 -0.85
Q 8.35 -0.85 6.4 1.1 4.55 3.2 4.55 5.6 4.55 12 15.6 23.3 17.95 25.8 23.6 31.45 30.95 38.1 33.3 38.1 37.65 38.1 40.65 34.7 43.8 31.45 43.8 26.85
L 43.8 -49.8
M -197.05 -7.95
Q -184.15 -7.95 -176.15 -3.2 -168.3 1.5 -159.65 13.6 -171.7 22.9 -182.85 28.3 -194.15 33.65 -202.4 33.65 -210.8 33.65 -216.45 28.8 -222.1 23.95 -222.1 15.7 -222.1 4.4 -214.5 -1.75 -206.75 -7.95 -197.05 -7.95 Z"/>
</g>

<g id="Duplicate_Items_Folder_Symbol_55_0_Layer1_0_FILL">
<path fill="#FFFFFF" stroke="none" d="
M 19.05 -4.15
Q 19.05 -0.85 16.95 -0.85
L 3.2 -0.85
Q 1.6 -0.85 -0.35 1.1 -2.2 3.2 -2.2 5.6 -2.2 12 8.85 23.3 11.2 25.8 16.85 31.45 24.2 38.1 26.55 38.1 30.9 38.1 33.9 34.7 37.05 31.45 37.05 26.85
L 37.05 -49.8 64.45 -49.8 64.45 80.25 81.9 91 81.9 -49.8 217.75 -49.8 217.75 -21.3 147.55 -21.3 144.95 -15.15
Q 159.75 -6.25 167.8 1.5 179.3 12.8 179.3 23.55 179.3 31.05 175.25 35.9 171.3 40.75 163.45 40.75 157 40.75 148.6 35.35 140.1 30 134.7 22.5 127.75 12.8 124.2 6.35 119.6 -1.9 115.15 -12.9
L 104.9 -8.75
Q 114.5 12 121.3 23.05 131.45 40.2 141.95 48.5 154.65 58.7 169.35 58.7 179.3 58.7 187.6 52.3 197.05 45.05 197.05 33.55 197.05 23.55 191.15 14.35 186.8 7.7 174.75 -4.4
L 217.75 -4.4 217.75 80.5 236 91 236 -49.8 267 -49.8 257.8 -66.7 -269.4 -66.7 -259.95 -49.8 -166.4 -49.8 -166.9 0.2
Q -170.45 -4.9 -174.25 -9.65 -178.2 -14.35 -182.8 -18.15 -187.4 -21.85 -193.7 -23.3 -199.95 -24.6 -207.3 -24.6 -226.35 -24.6 -236.05 -12 -242.5 -3.6 -242.5 5.45 -242.5 23.15 -229.5 36 -216.65 48.75 -199.2 48.75 -190.15 48.75 -182.15 44.95 -178.7 43.35 -166.4 35.65
L -165.6 80.5 -148.15 91 -148.15 23.55
Q -138.95 15.8 -129.75 10.7 -120.45 5.6 -115.35 5.6 -108.65 5.6 -104.45 9.5 -100.25 13.3 -100.25 20.4 -100.25 28.95 -105.25 40.2 -110.2 51.5 -118.1 62.25
L -102.75 76.15
Q -86.6 51.5 -86.6 35.35 -86.6 12.8 -99.2 -0.85 -109.15 -11.6 -119.95 -11.6 -126.9 -11.6 -133.85 -7.8 -139.2 -4.9 -148.15 2.05
L -148.15 -49.8 -52.15 -49.8 -52.15 80.5 -34.2 91 -34.2 -49.8 19.05 -49.8 19.05 -4.15
M -221.25 -1.75
Q -213.5 -7.95 -203.8 -7.95 -190.9 -7.95 -182.9 -3.2 -175.05 1.5 -166.4 13.6 -178.45 22.9 -189.6 28.3 -200.9 33.65 -209.15 33.65 -217.55 33.65 -223.2 28.8 -228.85 23.95 -228.85 15.7 -228.85 4.4 -221.25 -1.75 Z"/>
</g>
</defs>

<g transform="matrix( 1.1999969482421875, 0, 0, 1.1999969482421875, 435.4,293) ">
<g transform="matrix( 1, 0, 0, 1, -2.5,-14.5) ">
<g transform="matrix( 1, 0, 0, 1, 0,0) ">
<use xlink:href="#Duplicate_Items_Folder_Symbol_55_0_Layer2_0_FILL"/>
</g>

<g transform="matrix( 1, 0, 0, 1, 0,0) ">
<use xlink:href="#Duplicate_Items_Folder_Symbol_55_0_Layer1_0_FILL"/>
</g>
</g>
</g>
</svg>
