
<svg xmlns="http://www.w3.org/2000/svg" version="1.1" xmlns:xlink="http://www.w3.org/1999/xlink" preserveAspectRatio="none" x="0px" y="0px" width="278px" height="216px" viewBox="0 0 278 216">
<defs>
<g id="Symbol_4_3_Layer0_0_FILL">
<path fill="#000000" stroke="none" d="
M 181.75 75.55
L 181.75 67.8 96.85 67.8 96.85 75.55 150.45 75.55 150.45 76.5 150.45 92.55 117.7 92.55 114.5 93.3 111.55 95.2 109.45 97.8 108.9 100.65
Q 108.9 106.4 117.8 118.55 126.7 130.7 134.25 130.7
L 139.6 129.95 155.95 124.9 157.85 125.65
Q 158.25 126 158.8 126.85 159.25 127.75 159.25 130.15
L 159.25 133.7
Q 159.25 146.7 147.75 151.75 146.1 152.95 143.1 153.3 140.3 154.2 136.55 154.2
L 136.5 154.1 130.65 146.85 123.65 141.45
Q 122.3 140.75 121.1 140.3
L 117.25 139.5 117.2 139.5
Q 117.1 139.5 117 139.5
L 113.4 140.25 110.8 142.2
Q 110.4 142.55 110.1 142.95 109.85 143.25 109.65 143.6
L 109 145
Q 108.95 145 108.95 145.05 108.95 145.1 108.95 145.15 108.9 145.15 108.9 145.2
L 108.35 148.35
Q 108.35 157.6 117.15 160.45 118.65 161.4 120 161.4 123.6 162.3 126.15 162.3
L 132.55 162.3 132.75 162.3 132.8 162.4 134.25 164.25 142.55 172.15 152.1 180.4
Q 153.65 181.9 155.2 183.1 156.85 184.2 157.8 184.75
L 162.65 187.95 167.8 179.75 155.1 171.6 147.5 164.95 145.65 163.7 143.55 161.4
Q 147.3 161.4 152.55 159
L 157.25 155.6
Q 164.6 149.8 167.25 142.45 169.3 137.05 169.3 130.7
L 168.55 125.65
Q 167.25 122.05 166.5 120.95 163.65 116.8 159.25 116.8
L 155.2 116.8 145.55 120.15
Q 139.95 121.95 136.35 121.95
L 133.7 121.4 130.65 118.95 122.5 109.35 120.75 106.5 120 104.4 120 101.75 121.1 100.1 150.45 100.1 160.45 100.1 160.45 75.55 181.75 75.55
M 163.15 29.2
L 166.75 30.1 168.05 30.85 169.4 31.3 169.6 23.8 164.45 22.05 159.05 21.5
Q 150.75 21.5 144.6 26 138.55 30.5 138.55 38.4 138.55 42.8 140.2 47.85
L 145.15 58.2 149.5 64.9
Q 150.6 66.5 152.05 67.6
L 159.2 67.75 153.05 59.85
Q 150.2 56.1 148.55 51.4 147 46.75 147 42.5 147 36.9 150.4 33.05 153.8 29.2 159.2 29.2
L 163.15 29.2 Z"/>
</g>

<path id="Symbol_4_3_Layer0_0_1_STROKES" stroke="#CCCCCC" stroke-width="1" stroke-linejoin="round" stroke-linecap="round" fill="none" d="
M 132.55 162.3
Q 132.65 162.4 132.8 162.4"/>
</defs>

<g transform="matrix( 1, 0, 0, 1, -0.6,-1.45) ">
<g transform="matrix( 1, 0, 0, 1, 0,0) ">
<use xlink:href="#Symbol_4_3_Layer0_0_FILL"/>

<use xlink:href="#Symbol_4_3_Layer0_0_1_STROKES"/>
</g>
</g>
</svg>
