
<svg xmlns="http://www.w3.org/2000/svg" version="1.1" xmlns:xlink="http://www.w3.org/1999/xlink" preserveAspectRatio="none" x="0px" y="0px" width="109px" height="82px" viewBox="0 0 109 82">
<defs>
<linearGradient id="Gradient_1" gradientUnits="userSpaceOnUse" x1="-8.75" y1="41.475" x2="-8.75" y2="-41.37500000000001" spreadMethod="pad">
<stop  offset="0%" stop-color="#518E00"/>

<stop  offset="100%" stop-color="#89BB00"/>
</linearGradient>

<filter id="Filter_1" x="-20%" y="-20%" width="140%" height="140%" color-interpolation-filters="sRGB">
<feFlood flood-color="#A3F000" flood-opacity="1" in="SourceGraphic" result="result1"/>

<feComposite in2="SourceGraphic" in="result1" operator="in" result="result2"/>

<feGaussianBlur in="result2" stdDeviation="1.3333333333333333,1.3333333333333333" result="result3"/>

<feFlood flood-color="#2C4E00" flood-opacity="1" in="SourceGraphic" result="result4"/>

<feComposite in2="SourceGraphic" in="result4" operator="in" result="result5"/>

<feGaussianBlur in="result5" stdDeviation="1.3333333333333333,1.3333333333333333" result="result6"/>

<feOffset dx="2.8284271247461903" dy="2.8284271247461903" in="result3" result="result7"/>

<feOffset dx="-2.8284271247461903" dy="-2.8284271247461903" in="result3" result="result8"/>

<feOffset dx="-2.8284271247461903" dy="-2.8284271247461903" in="result6" result="result9"/>

<feOffset dx="2.8284271247461903" dy="2.8284271247461903" in="result6" result="result10"/>

<feColorMatrix in="SourceGraphic" type="matrix" values="0 0 0 0 255 0 0 0 0 255 0 0 0 0 255 0 0 0 255 0" result="result11"/>

<feFlood flood-color="#000000" flood-opacity="0" in="SourceGraphic" result="result12"/>

<feComposite in2="result8" in="result7" operator="arithmetic" k1="0" k2="-1" k3="1" k4="0" result="result13"/>

<feComposite in2="result10" in="result9" operator="arithmetic" k1="0" k2="-1" k3="1" k4="0" result="result14"/>

<feComposite in2="result12" in="result13" operator="xor" result="result15"/>

<feComposite in2="result15" in="result14" operator="xor" result="result16"/>

<feComposite in2="result11" in="result16" operator="in" result="result17"/>

<feBlend mode="normal" in2="SourceGraphic" in="result17" result="result18"/>
</filter>

<filter id="Filter_2" x="-20%" y="-20%" width="140%" height="140%" color-interpolation-filters="sRGB">
<feFlood flood-color="#000000" flood-opacity="1" in="SourceGraphic" result="result1"/>

<feComposite in2="SourceGraphic" in="result1" operator="in" result="result2"/>

<feGaussianBlur in="result2" stdDeviation="1.3333333333333333,1.3333333333333333" result="result3"/>

<feOffset dx="1.4142135623730951" dy="1.4142135623730951" in="result3" result="result4"/>

<feComposite in2="result4" in="SourceGraphic" operator="over" result="result5"/>
</filter>

<g id="Symbol_20_0_Layer0_0_FILL">
<path fill="url(#Gradient_1)" stroke="none" d="
M 46.2 -23.4
Q 46.2 -41.4 28.2 -41.4
L -45.7 -41.4
Q -63.7 -41.4 -63.7 -23.4
L -63.7 23.45
Q -63.7 41.45 -45.7 41.45
L 28.2 41.45
Q 46.2 41.45 46.2 23.45
L 46.2 -23.4 Z"/>
</g>

<g id="Symbol_12_copy_2_0_Layer1_0_FILL">
<path fill="#DBDBDB" stroke="none" d="
M 0.35 46.45
Q 3.15 46.45 5.15 44.45 7.15 42.45 7.15 39.65
L 7.15 39.3 4.15 39.3 4.15 39.45 -3.5 39.45 -3.5 39.3 -6.5 39.3 -6.5 39.65
Q -6.5 42.45 -4.5 44.45
L -4.5 44.5
Q -2.45 46.45 0.35 46.45 Z"/>
</g>

<g id="Symbol_12_copy_2_0_Layer1_1_FILL">
<path fill="#DBDBDB" stroke="none" d="
M -49.1 24.65
L -56.4 38.6 56.45 38.6 48.3 24.65 -49.1 24.65 Z"/>

<path fill="#EEEEEE" stroke="none" d="
M 56.45 -38.95
L 48.45 -52.65 -0.7 -3.6 -49.05 -52.85 -56.4 -39.15 -56.4 38.6 -49.1 24.65 48.3 24.65 56.45 38.6 56.45 -38.95 Z"/>
</g>

<g id="Symbol_12_copy_2_0_Layer1_2_FILL">
<path fill="#F7F7F7" stroke="none" d="
M 0.45 31.1
L 0.45 -37
Q -21.3302734375 -48.647265625 -49.05 -52.85
L -49.1 24.65
Q -24.55 25.6 0.45 31.1 Z"/>

<path fill="#FFFFFF" stroke="none" d="
M 48.3 -52.7
Q 22.456640625 -49.4599609375 0.45 -37
L 0.45 31.1
Q 26.4 24.1 48.3 24.65
L 48.3 -52.7 Z"/>
</g>

<g id="Symbol_12_copy_2_0_Layer1_3_FILL">
<path fill="#D7D7D7" stroke="none" d="
M -38.5 -35.7
Q -38.86484375 -35.8203125 -39.25 -35.65 -39.5853515625 -35.423828125 -39.7 -35.05 -39.820703125 -34.6345703125 -39.65 -34.3 -39.4244140625 -33.9150390625 -39.05 -33.8 -22.5189453125 -28.8794921875 -7.55 -19.1 -7.202734375 -18.8818359375 -6.8 -19 -6.3990234375 -19.056640625 -6.2 -19.4 -5.94375 -19.7466796875 -6.05 -20.15 -6.1072265625 -20.5505859375 -6.45 -20.8 -21.6810546875 -30.7080078125 -38.5 -35.7 Z"/>
</g>

<g id="Symbol_12_copy_2_0_Layer1_4_FILL">
<path fill="#D7D7D7" stroke="none" d="
M -38.45 -35.05
Q -38.838671875 -35.1708984375 -39.2 -35 -39.571484375 -34.7880859375 -39.7 -34.4 -39.8208984375 -34.0119140625 -39.65 -33.65 -39.4375 -33.278515625 -39.05 -33.15 -23.5982421875 -28.2734375 -7.5 -19.1 -7.130078125 -18.8671875 -6.75 -19 -6.32890625 -19.0873046875 -6.15 -19.45 -5.9171875 -19.81875 -6.05 -20.25 -6.138671875 -20.62109375 -6.5 -20.85 -22.8015625 -30.1265625 -38.45 -35.05 Z"/>
</g>

<g id="Symbol_12_copy_2_0_Layer1_5_FILL">
<path fill="#D7D7D7" stroke="none" d="
M -38.45 -35.7
Q -38.8083984375 -35.83359375 -39.2 -35.65 -39.555859375 -35.466796875 -39.7 -35.1 -39.8337890625 -34.6916015625 -39.65 -34.35 -39.466796875 -33.9443359375 -39.1 -33.8 -23.1634765625 -28.2892578125 -7.5 -19.1 -7.144921875 -18.8802734375 -6.75 -19 -6.3552734375 -19.0861328125 -6.15 -19.45 -5.930078125 -19.8041015625 -6.05 -20.2 -6.137109375 -20.5943359375 -6.5 -20.8 -22.33671875 -30.1107421875 -38.45 -35.7 Z"/>
</g>

<g id="Symbol_12_copy_2_0_Layer1_6_FILL">
<path fill="#D7D7D7" stroke="none" d="
M -38.05 -33.2
Q -38.447265625 -33.2697265625 -38.8 -33.05 -39.1646484375 -32.8435546875 -39.3 -32.45 -39.369921875 -32.0529296875 -39.15 -31.7 -38.943359375 -31.335546875 -38.55 -31.25 -23.5962890625 -27.4580078125 -7.45 -19.1 -7.086328125 -18.8791015625 -6.7 -19 -6.3115234375 -19.12890625 -6.15 -19.5 -5.9291015625 -19.8623046875 -6.05 -20.25 -6.1802734375 -20.6384765625 -6.55 -20.85 -22.90390625 -29.3421875 -38.05 -33.2 Z"/>
</g>

<g id="Symbol_12_copy_2_0_Layer1_7_FILL">
<path fill="#D7D7D7" stroke="none" d="
M -38.45 -35.7
Q -38.80703125 -35.8337890625 -39.2 -35.65 -39.5548828125 -35.4677734375 -39.7 -35.1 -39.833984375 -34.69296875 -39.65 -34.35 -39.4677734375 -33.9453125 -39.1 -33.8 -23.6111328125 -28.277734375 -7.5 -19.1 -7.130078125 -18.8671875 -6.75 -19 -6.32890625 -19.0873046875 -6.15 -19.45 -5.9171875 -19.81875 -6.05 -20.25 -6.138671875 -20.62109375 -6.5 -20.85 -22.7888671875 -30.122265625 -38.45 -35.7 Z"/>
</g>

<g id="Symbol_12_copy_2_0_Layer1_8_FILL">
<path fill="#D7D7D7" stroke="none" d="
M -38.45 -35.7
Q -38.821875 -35.83359375 -39.2 -35.65 -39.5689453125 -35.46640625 -39.7 -35.1 -39.8337890625 -34.678515625 -39.65 -34.3 -39.466015625 -33.9314453125 -39.1 -33.8 -22.4302734375 -28.0900390625 -7.55 -19.1 -7.159765625 -18.880859375 -6.75 -19 -6.35703125 -19.0724609375 -6.15 -19.45 -5.9302734375 -19.7896484375 -6.05 -20.2 -6.123046875 -20.592578125 -6.5 -20.8 -21.569921875 -29.91015625 -38.45 -35.7 Z"/>
</g>

<g id="Symbol_12_copy_2_0_Layer1_9_FILL">
<path fill="#D7D7D7" stroke="none" d="
M -38.45 -35.7
Q -38.8521484375 -35.820703125 -39.25 -35.65 -39.5849609375 -35.4369140625 -39.7 -35.05 -39.8208984375 -34.648046875 -39.65 -34.3 -39.4369140625 -33.915234375 -39.05 -33.8 -24.9890625 -29.5263671875 -7.5 -19.1 -7.1466796875 -18.880859375 -6.75 -19 -6.3564453125 -19.0853515625 -6.15 -19.45 -5.9302734375 -19.8029296875 -6.05 -20.2 -6.1357421875 -20.59296875 -6.5 -20.8 -24.2109375 -31.3736328125 -38.45 -35.7 Z"/>
</g>

<g id="Symbol_12_copy_2_0_Layer1_10_FILL">
<path fill="#D7D7D7" stroke="none" d="
M 3.9 -23.35
Q 3.5 -23.1 3.35 -22.7 3.3 -22.3 3.55 -22 3.85 -21.65 4.35 -21.6 4.85 -21.6 5.3 -21.85 23.75 -33.25 44.15 -40 44.65 -40.15 44.9 -40.5 45.15 -40.9 45.05 -41.25 44.9 -41.65 44.4 -41.8 44 -41.95 43.5 -41.8 22.8 -35 3.9 -23.35 Z"/>
</g>

<g id="Symbol_12_copy_2_0_Layer1_11_FILL">
<path fill="#D7D7D7" stroke="none" d="
M -38.45 -35.05
Q -38.838671875 -35.1708984375 -39.2 -35 -39.571484375 -34.7880859375 -39.7 -34.4 -39.8208984375 -34.0119140625 -39.65 -33.65 -39.4375 -33.278515625 -39.05 -33.15 -23.5982421875 -28.2734375 -7.5 -19.1 -7.130078125 -18.8671875 -6.75 -19 -6.32890625 -19.0873046875 -6.15 -19.45 -5.9171875 -19.81875 -6.05 -20.25 -6.138671875 -20.62109375 -6.5 -20.85 -22.8015625 -30.1265625 -38.45 -35.05 Z"/>
</g>

<g id="Symbol_12_copy_2_0_Layer1_12_FILL">
<path fill="#D7D7D7" stroke="none" d="
M -38.45 -35.7
Q -38.8083984375 -35.83359375 -39.2 -35.65 -39.555859375 -35.466796875 -39.7 -35.1 -39.8337890625 -34.6916015625 -39.65 -34.35 -39.466796875 -33.9443359375 -39.1 -33.8 -23.1634765625 -28.2892578125 -7.5 -19.1 -7.144921875 -18.8802734375 -6.75 -19 -6.3552734375 -19.0861328125 -6.15 -19.45 -5.930078125 -19.8041015625 -6.05 -20.2 -6.137109375 -20.5943359375 -6.5 -20.8 -22.33671875 -30.1107421875 -38.45 -35.7 Z"/>
</g>

<g id="Symbol_12_copy_2_0_Layer1_13_FILL">
<path fill="#D7D7D7" stroke="none" d="
M -38.05 -33.2
Q -38.447265625 -33.2697265625 -38.8 -33.05 -39.1646484375 -32.8435546875 -39.3 -32.45 -39.369921875 -32.0529296875 -39.15 -31.7 -38.943359375 -31.335546875 -38.55 -31.25 -23.5962890625 -27.4580078125 -7.45 -19.1 -7.086328125 -18.8791015625 -6.7 -19 -6.3115234375 -19.12890625 -6.15 -19.5 -5.9291015625 -19.8623046875 -6.05 -20.25 -6.1802734375 -20.6384765625 -6.55 -20.85 -22.90390625 -29.3421875 -38.05 -33.2 Z"/>
</g>

<g id="Symbol_12_copy_2_0_Layer1_14_FILL">
<path fill="#D7D7D7" stroke="none" d="
M -38.45 -35.7
Q -38.80703125 -35.8337890625 -39.2 -35.65 -39.5548828125 -35.4677734375 -39.7 -35.1 -39.833984375 -34.69296875 -39.65 -34.35 -39.4677734375 -33.9453125 -39.1 -33.8 -23.6111328125 -28.277734375 -7.5 -19.1 -7.130078125 -18.8671875 -6.75 -19 -6.32890625 -19.0873046875 -6.15 -19.45 -5.9171875 -19.81875 -6.05 -20.25 -6.138671875 -20.62109375 -6.5 -20.85 -22.7888671875 -30.122265625 -38.45 -35.7 Z"/>
</g>

<g id="Symbol_12_copy_2_0_Layer1_15_FILL">
<path fill="#D7D7D7" stroke="none" d="
M -38.45 -35.7
Q -38.821875 -35.83359375 -39.2 -35.65 -39.5689453125 -35.46640625 -39.7 -35.1 -39.8337890625 -34.678515625 -39.65 -34.3 -39.466015625 -33.9314453125 -39.1 -33.8 -22.4302734375 -28.0900390625 -7.55 -19.1 -7.159765625 -18.880859375 -6.75 -19 -6.35703125 -19.0724609375 -6.15 -19.45 -5.9302734375 -19.7896484375 -6.05 -20.2 -6.123046875 -20.592578125 -6.5 -20.8 -21.569921875 -29.91015625 -38.45 -35.7 Z"/>
</g>

<g id="Symbol_12_copy_2_0_Layer1_16_FILL">
<path fill="#D7D7D7" stroke="none" d="
M -38.45 -35.7
Q -38.8521484375 -35.820703125 -39.25 -35.65 -39.5849609375 -35.4369140625 -39.7 -35.05 -39.8208984375 -34.648046875 -39.65 -34.3 -39.4369140625 -33.915234375 -39.05 -33.8 -24.9890625 -29.5263671875 -7.5 -19.1 -7.1466796875 -18.880859375 -6.75 -19 -6.3564453125 -19.0853515625 -6.15 -19.45 -5.9302734375 -19.8029296875 -6.05 -20.2 -6.1357421875 -20.59296875 -6.5 -20.8 -24.2109375 -31.3736328125 -38.45 -35.7 Z"/>
</g>
</defs>

<g filter="url(#Filter_1)" transform="matrix( 1, 0, 0, 1, 0,0) ">
<g transform="matrix( 1, 0, 0, 1, 63.7,41.4) ">
<g transform="matrix( 1, 0, 0, 1, 0,0) ">
<use xlink:href="#Symbol_20_0_Layer0_0_FILL"/>
</g>
</g>
</g>

<g filter="url(#Filter_2)" transform="matrix( 1, 0, 0, 1, 0,0) ">
<g transform="matrix( 0.6085357666015625, -0.000244140625, 0.000244140625, 0.6085357666015625, 54.95,41.95) ">
<g transform="matrix( 1, 0, 0, 0.678314208984375, 0,10.25) ">
<use xlink:href="#Symbol_12_copy_2_0_Layer1_0_FILL"/>
</g>

<g transform="matrix( 1, 0, 0, 1, 0,0) ">
<use xlink:href="#Symbol_12_copy_2_0_Layer1_1_FILL"/>
</g>

<g transform="matrix( 1, 0, 0, 1, 0,0) ">
<use xlink:href="#Symbol_12_copy_2_0_Layer1_2_FILL"/>
</g>

<g transform="matrix( 1.1328125, -0.0705718994140625, 0, 1, 2.5,-9.05) ">
<use xlink:href="#Symbol_12_copy_2_0_Layer1_3_FILL"/>
</g>

<g transform="matrix( 1.1328125, -0.1683807373046875, 0, 1, 2.5,5.85) ">
<use xlink:href="#Symbol_12_copy_2_0_Layer1_4_FILL"/>
</g>

<g transform="matrix( 1.1328125, -0.3231658935546875, 0, 1, 2.5,37.65) ">
<use xlink:href="#Symbol_12_copy_2_0_Layer1_5_FILL"/>
</g>

<g transform="matrix( 1.1328125, -0.1838531494140625, 0, 1, 2.5,22.05) ">
<use xlink:href="#Symbol_12_copy_2_0_Layer1_6_FILL"/>
</g>

<g transform="matrix( 1.1328125, -0.240142822265625, 0, 1, 2.5,13.3) ">
<use xlink:href="#Symbol_12_copy_2_0_Layer1_7_FILL"/>
</g>

<g transform="matrix( 1.1328125, -0.2966156005859375, 0, 1, 2.5,29.5) ">
<use xlink:href="#Symbol_12_copy_2_0_Layer1_8_FILL"/>
</g>

<g transform="matrix( 1.1328125, -0.137847900390625, 0, 1, 2.5,-1.85) ">
<use xlink:href="#Symbol_12_copy_2_0_Layer1_9_FILL"/>
</g>

<g transform="matrix( 0.9282073974609375, 0.1351470947265625, 0, 1, 1.75,-6.1) ">
<use xlink:href="#Symbol_12_copy_2_0_Layer1_10_FILL"/>
</g>

<g transform="matrix( -1.1475830078125, -0.155059814453125, 0, 1, -2,6.35) ">
<use xlink:href="#Symbol_12_copy_2_0_Layer1_11_FILL"/>
</g>

<g transform="matrix( -1.1475830078125, -0.309844970703125, 0, 1, -2,38.15) ">
<use xlink:href="#Symbol_12_copy_2_0_Layer1_12_FILL"/>
</g>

<g transform="matrix( -1.1475830078125, -0.1705322265625, 0, 1, -2,22.55) ">
<use xlink:href="#Symbol_12_copy_2_0_Layer1_13_FILL"/>
</g>

<g transform="matrix( -1.1475830078125, -0.2268218994140625, 0, 1, -2,13.8) ">
<use xlink:href="#Symbol_12_copy_2_0_Layer1_14_FILL"/>
</g>

<g transform="matrix( -1.1475830078125, -0.283294677734375, 0, 1, -2,30) ">
<use xlink:href="#Symbol_12_copy_2_0_Layer1_15_FILL"/>
</g>

<g transform="matrix( -1.1475830078125, -0.1245269775390625, 0, 1, -2,-1.35) ">
<use xlink:href="#Symbol_12_copy_2_0_Layer1_16_FILL"/>
</g>
</g>
</g>
</svg>
