
<svg xmlns="http://www.w3.org/2000/svg" version="1.1" xmlns:xlink="http://www.w3.org/1999/xlink" preserveAspectRatio="none" x="0px" y="0px" width="298px" height="84px" viewBox="0 0 298 84">
<defs>
<linearGradient id="Gradient_1" gradientUnits="userSpaceOnUse" x1="10.5" y1="41.475" x2="10.5" y2="-41.37500000000001" spreadMethod="pad">
<stop  offset="0%" stop-color="#214F7C"/>

<stop  offset="100%" stop-color="#1F76CB"/>
</linearGradient>

<radialGradient id="Gradient_2" gradientUnits="userSpaceOnUse" cx="0" cy="0" r="27.012500000000003" fx="0" fy="0" gradientTransform="matrix( 0.9999999999999999, 0, 0, 0.9999999999999999, 0,0) " spreadMethod="pad">
<stop  offset="0%" stop-color="#FFFFFF"/>

<stop  offset="73.33333333333333%" stop-color="#ECECEC"/>

<stop  offset="100%" stop-color="#D6D6D6"/>
</radialGradient>

<filter id="Filter_1" x="-20%" y="-20%" width="140%" height="140%" color-interpolation-filters="sRGB">
<feFlood flood-color="#5AA8F5" flood-opacity="1" in="SourceGraphic" result="result1"/>

<feComposite in2="SourceGraphic" in="result1" operator="in" result="result2"/>

<feGaussianBlur in="result2" stdDeviation="1.3333333333333333,1.3333333333333333" result="result3"/>

<feFlood flood-color="#051E37" flood-opacity="1" in="SourceGraphic" result="result4"/>

<feComposite in2="SourceGraphic" in="result4" operator="in" result="result5"/>

<feGaussianBlur in="result5" stdDeviation="1.3333333333333333,1.3333333333333333" result="result6"/>

<feOffset dx="2.8284271247461903" dy="2.8284271247461903" in="result3" result="result7"/>

<feOffset dx="-2.8284271247461903" dy="-2.8284271247461903" in="result3" result="result8"/>

<feOffset dx="-2.8284271247461903" dy="-2.8284271247461903" in="result6" result="result9"/>

<feOffset dx="2.8284271247461903" dy="2.8284271247461903" in="result6" result="result10"/>

<feColorMatrix in="SourceGraphic" type="matrix" values="0 0 0 0 255 0 0 0 0 255 0 0 0 0 255 0 0 0 255 0" result="result11"/>

<feFlood flood-color="#000000" flood-opacity="0" in="SourceGraphic" result="result12"/>

<feComposite in2="result8" in="result7" operator="arithmetic" k1="0" k2="-1" k3="1" k4="0" result="result13"/>

<feComposite in2="result10" in="result9" operator="arithmetic" k1="0" k2="-1" k3="1" k4="0" result="result14"/>

<feComposite in2="result12" in="result13" operator="xor" result="result15"/>

<feComposite in2="result15" in="result14" operator="xor" result="result16"/>

<feComposite in2="result11" in="result16" operator="in" result="result17"/>

<feBlend mode="normal" in2="SourceGraphic" in="result17" result="result18"/>

<feColorMatrix in="result18" type="matrix" values="1.4878753999999998 -0.3418734 -0.046001999999999994 0 -0.0249019607843137 -0.1731246 1.3191266 -0.046001999999999994 0 -0.0249019607843137 -0.1731246 -0.3418734 1.614998 0 -0.0249019607843137 0 0 0 1 0 " result="result19"/>
</filter>

<filter id="Filter_2" x="-20%" y="-20%" width="140%" height="140%" color-interpolation-filters="sRGB">
<feFlood flood-color="#000000" flood-opacity="1" in="SourceGraphic" result="result1"/>

<feComposite in2="SourceGraphic" in="result1" operator="in" result="result2"/>

<feGaussianBlur in="result2" stdDeviation="1.3333333333333333,1.3333333333333333" result="result3"/>

<feOffset dx="1.4142135623730951" dy="1.4142135623730951" in="result3" result="result4"/>

<feComposite in2="result4" in="SourceGraphic" operator="over" result="result5"/>
</filter>

<filter id="Filter_3" x="-20%" y="-20%" width="140%" height="140%" color-interpolation-filters="sRGB">
<feFlood flood-color="#000000" flood-opacity="1" in="SourceGraphic" result="result1"/>

<feComposite in2="SourceGraphic" in="result1" operator="in" result="result2"/>

<feGaussianBlur in="result2" stdDeviation="1,1" result="result3"/>

<feOffset dx="1.4142135623730951" dy="1.4142135623730951" in="result3" result="result4"/>

<feComposite in2="result4" in="SourceGraphic" operator="over" result="result5"/>
</filter>

<g id="Symbol_19_copy_0_Layer0_0_FILL">
<path fill="url(#Gradient_1)" stroke="none" d="
M 140.9 -23.4
Q 137.65 -31.6 133.45 -35.3 126.55 -41.4 113.5 -41.4
L -120 -41.4
Q -138 -41.4 -138 -23.4
L -138 23.45
Q -138 41.45 -120 41.45
L 133.45 41.45
Q 148 41.5 153.8 38.35 161.45 34.15 158 23.05
L 140.9 -23.4 Z"/>
</g>

<g id="Symbol_18_0_Layer0_0_FILL">
<path fill="url(#Gradient_2)" stroke="none" d="
M 19.15 -19.2
Q 11.216015625 -27.1447265625 0 -27.15 -11.2650390625 -27.15546875 -19.25 -19.25
L -19.25 -19.2 -19.3 -19.2
Q -27.15390625 -11.2134765625 -27.15 0 -27.142578125 11.2681640625 -19.25 19.15 -11.265625 27.1451171875 0 27.15 11.211328125 27.1470703125 19.15 19.15
L 19.15 19.15
Q 27.147265625 11.2638671875 27.15 0 27.14609375 -11.2146484375 19.15 -19.2 Z"/>
</g>

<g id="Symbol_18_0_Layer0_1_STROKES_1_FILL">
<path fill="#151515" stroke="none" d="
M -65.6 -0.8
L -65.6 -7.2 -85.3 2.8 -65.6 12.8 -65.6 6.4 -45.85 6.4 -45.85 -0.8 -65.6 -0.8 Z"/>
</g>

<g id="Symbol_2_0_Layer0_0_FILL">
<path fill="#FFFFFF" stroke="none" d="
M -65.05 -7.7
L -66.75 -6.3
Q -67.15 -5.95 -67.2 -5.85 -67.3 -5.75 -67.35 -5.55
L -65.3 -3.95 -63.4 -5.85 -62.3 -6.7
Q -60.7 -7.7 -59.4 -7.7 -58.5 -7.7 -57.55 -7.35 -56.1 -6.65 -55.8 -5.25 -55.6 -4.65 -55.6 -3.65 -55.6 -2.55 -56.15 -1.55 -57.45 0.45 -59.85 1.05 -60.1 1.1 -60.85 1.25 -61.45 1.25 -62.1 1.25
L -61.2 3.2 -60.65 3.2
Q -60.15 2.9 -59.55 2.9
L -58.65 2.9
Q -57.15 2.9 -55.6 3.7 -54.1 4.5 -53.75 5.95 -53.4 6.5 -53.35 6.9 -53.3 7.25 -53.3 8.1 -53.3 8.9 -53.7 9.85 -55 12.75 -57.4 12.75 -60.9 12.75 -64.05 8
L -67 3.2 -69.15 4.6
Q -69.15 6 -65.75 10 -63.75 12.4 -61.7 13.6 -60.55 14.25 -59.6 14.55 -58.65 14.8 -57.55 14.8
L -56.1 14.8
Q -50.7 13.75 -50.7 8.2
L -50.7 7.05 -51 5.85 -51.2 5.45 -51.4 4.9 -50.8 5.2 -49.2 5.65 -47.15 5.65 -45.6 5.25 -45.6 17.1 -42.95 17.1 -42.95 -7.7 -34.7 -7.7 -34.7 17.1 -31.9 17.1 -31.9 -7.7 -19.6 -7.7 -19.6 0.7 -23.65 0.85 -23.95 1.1
Q -24.05 1.25 -24.05 1.65 -24.05 2.35 -23.5 3.35 -22.05 5.85 -19.7 7.55 -18.6 8.2 -18.1 8.2
L -17.35 8
Q -17.05 7.7 -16.95 7.2
L -16.95 -7.7 -8.7 -7.7 -8.7 17.1 -5.95 17.1 -5.95 -7.7 -0.05 -7.7 -0.05 -9.85 -5.25 -9.85 -15.95 -23 -17.8 -21 -7 -9.85 -50.65 -9.85 -50.65 -7.7 -45.6 -7.7 -45.6 2.95 -46.3 3.2 -48.1 3.65 -50.5 3.65 -52.25 3 -55.35 1.35 -55.85 1.25 -56.1 1.3
Q -53.15 -0.35 -53.15 -3.65 -53.15 -6.15 -54.75 -7.9 -56.7 -9.85 -59.2 -9.85 -62.45 -9.85 -65.05 -7.7
M 54.6 20.05
L 54.6 23 57.7 23 57.7 20.05 54.6 20.05
M 63.4 -19.05
L 63.4 -15.7 67 -15.7 67 -19.05 63.4 -19.05
M 42.4 -9.85
L 42.4 -7.7 59.7 -7.7 59.7 -1.7 52.55 -1.7
Q 49.6 -1.7 47.7 0.25 45.75 2.15 45.75 5.05 45.75 7.55 46.7 9.4 47.7 11.25 49.7 12.95 53.25 16.05 57.8 16.05 58.45 16.05 59.1 15.95 59.8 15.85 60.75 15.7 62.25 15.1 63.35 14.3 65.7 12.45 65.7 9.55
L 65.6 8.35
Q 65.2 6.5 63.7 5.5 62.2 4.45 60.3 4.45 58.15 4.45 56.65 5.7 55.25 6.95 55.25 9.35 55.25 10.15 55.6 11.5
L 56.65 13.4 56.9 13.7 57.3 14.05 54.7 13.4 52.9 12.55
Q 48.5 9.95 48.5 4.9 48.5 3.95 48.85 3 49.55 1.4 51.15 0.6 51.75 0.35 52.05 0.3 52.35 0.2 53.1 0.2
L 62.5 0.2 62.5 -7.7 69.15 -7.7 69.15 -9.85 63.7 -9.85 53 -23 51.15 -21 61.95 -9.85 42.4 -9.85
M 62.45 7.35
L 62.9 8.35 63.05 9.55 62.8 11.2
Q 61.95 13.8 59.9 13.8
L 59.2 13.4 58.75 12.95
Q 57.6 11.75 57.6 9.55
L 57.8 8.35 58.4 7.35
Q 58.8 6.8 59.3 6.65 59.8 6.45 60.6 6.45 61.8 6.45 62.45 7.35
M 19.2 -9.85
L 19.2 -7.7 35.9 -7.7 35.9 5.15 35.6 6.3 26.9 0.35 27.7 -0.35 28.75 -0.85 29.9 -1.15
Q 30.2 -1.15 31.1 -1.15
L 32.45 -0.95
Q 33.25 -0.75 33.45 -0.45
L 33.1 -2.85 32.65 -2.95 32.4 -3.05 31.1 -3.25 29.9 -3.25
Q 29.2 -3.25 28.55 -3.15 27.85 -3.05 27.15 -2.75 25.8 -2.1 24.75 -1.05 22.55 1.1 22.55 4.1 22.55 5.7 23.05 7.15 23.7 8.45 24.95 9.55 26.25 10.7 27.5 11.15 28.8 11.55 30.35 11.55
L 31.85 11.45
Q 32.7 11.3 33.35 11
L 34.7 10.3
Q 35.45 9.8 35.9 9.15
L 35.9 17.1 38.65 17.1 38.65 -7.7 42.4 -7.7 42.3 -9.85 19.2 -9.85
M 34.4 7.65
L 33.75 8.25 33.25 8.6
Q 32.75 8.95 32.5 9.1 32.25 9.2 31.8 9.35
L 31.25 9.55 30.4 9.55
Q 29.6 9.55 28.45 9.15 27.45 8.7 26.7 7.9 25.9 7.2 25.5 6.25 25.2 5.35 25.2 4.1
L 25.2 3.45 25.45 2.5 25.85 1.6 34.4 7.65 Z"/>
</g>
</defs>

<g transform="matrix( 1, 0, 0, 1, 138.55,42.2) ">
<g filter="url(#Filter_1)" transform="matrix( 1, 0, 0, 1, -138.55,-42.2) ">
<g transform="matrix( -1, 0, 0, 1, 159.55,42.2) ">
<g transform="matrix( 1, 0, 0, 1, 0,0) ">
<use xlink:href="#Symbol_19_copy_0_Layer0_0_FILL"/>
</g>
</g>
</g>

<g filter="url(#Filter_2)" transform="matrix( 1, 0, 0, 1, -138.55,-42.2) ">
<g transform="matrix( -1, 0, 0, 1, 243.4,39.65) ">
<g transform="matrix( 1, 0, 0, 1, 0,0) ">
<use xlink:href="#Symbol_18_0_Layer0_0_FILL"/>
</g>

<g transform="matrix( 1.1024627685546875, 0, 0, 1.1024627685546875, 72.2,-3) ">
<use xlink:href="#Symbol_18_0_Layer0_1_STROKES_1_FILL"/>
</g>
</g>
</g>

<g filter="url(#Filter_3)" transform="matrix( 1, 0, 0, 1, -138.55,-42.2) ">
<g transform="matrix( 1, 0, 0, 1, 111.6,39.5) ">
<g transform="matrix( 1, 0, 0, 1, 0,0) ">
<use xlink:href="#Symbol_2_0_Layer0_0_FILL"/>
</g>
</g>
</g>
</g>
</svg>
