
<svg xmlns="http://www.w3.org/2000/svg" version="1.1" xmlns:xlink="http://www.w3.org/1999/xlink" preserveAspectRatio="none" x="0px" y="0px" width="690px" height="718px" viewBox="0 0 690 718">
<defs>
<g id="right_knee_0_Layer0_0_FILL">
<path fill="#FFC19F" stroke="none" d="
M 270.45 586
Q 270.4787109375 586.9091796875 270.45 587.8 270.4365234375 616.3505859375 270.35 626.3 270.2 650.6 269.7 663.35
L 297.6 666.3
Q 299.6 654.4 310.95 590 311.1451171875 588.8953125 311.35 587.8 311.5078125 586.896875 311.65 586
L 270.45 586 Z"/>
</g>

<g id="right_thigh_0_Layer0_0_FILL">
<path fill="#FFB790" stroke="none" d="
M 270.5 578.45
Q 270.4904296875 585.3765625 270.45 591.4
L 310.7 591.4
Q 310.8259765625 590.703515625 310.95 590 321.3 531.4 326.5 499.4
L 271.65 482.75
Q 270.65 510.95 270.5 578.45 Z"/>
</g>

<g id="right_foot_0_Layer0_0_FILL">
<path fill="#FFC19F" stroke="none" d="
M 590.95 2469.15
Q 575.8 2466.15 574.7 2469.4 553.7 2483.55 512.9 2504.05 464.3 2527.75 441.35 2538.95 400.75 2558.85 382.75 2570.2 358.65 2585.35 359.75 2593.8 361.7 2608.8 392 2615 416.9 2620.1 465.95 2619.95 489.8 2619.85 559.9 2617.35 621.1 2615.1 652.1 2615.85 667.05 2616.25 679.3 2605.95 691.8 2595.35 694.05 2579.5 695.55 2569 694.55 2558.5 693.9 2551.1 691.35 2539.4 688.05 2524.1 687.15 2518.7 685 2505.75 684.75 2492.95 679.35 2493.3 661 2488.35 657.65 2487.45 624.7 2477.95 601.8 2471.35 590.95 2469.15 Z"/>
</g>

<g id="neck_0_Layer0_0_FILL">
<path fill="#E0956C" stroke="none" d="
M 923.15 1173.05
L 749.15 1175.95 751.4 1308.35
Q 751.6 1318.85 758.6 1328.3 765.35 1337.45 777.5 1344.35 803.3 1359.05 839.3 1358.4 875.35 1357.8 900.55 1342.25 912.45 1334.95 918.9 1325.55 925.6 1315.9 925.4 1305.4
L 923.15 1173.05 Z"/>
</g>

<g id="left_thigh_0_Layer0_0_FILL">
<path fill="#FFB790" stroke="none" d="
M 395.6 485.4
Q 395.571875 483.315625 395.5 481.35
L 344.7 493.6
Q 349.415625 522.6232421875 356.5 583.6 356.696484375 585.3373046875 356.9 587.1 357.0345703125 588.2640625 357.15 589.4 357.221484375 589.8017578125 357.25 590.2
L 395.1 590.2
Q 395.14296875 589.8021484375 395.15 589.4 395.196875 586.5943359375 395.25 583.6 395.2970703125 580.7599609375 395.35 577.75 395.9 545.2 396 526.7 396.1333984375 502.1923828125 395.6 485.4 Z"/>
</g>

<g id="left_knee_0_Layer0_0_FILL">
<path fill="#FFC19F" stroke="none" d="
M 395.1 590
L 357.2 590
Q 360.90390625 621.6982421875 362.1 631.65 364.9 654.15 366.9 666.3
L 394.8 663.35
Q 394.3 650.65 394.55 626.1 394.6734375 616.7126953125 395.1 590 Z"/>
</g>

<g id="left_foot_0_Layer0_0_FILL">
<path fill="#FFC19F" stroke="none" d="
M 1255.45 2562.5
Q 1238.55 2552.5 1198.2 2534.5 1135.1 2506.3 1127.4 2502.7 1087.1 2483.7 1065.85 2469.4 1064.75 2466.15 1049.6 2469.15 1038.75 2471.35 1015.85 2477.95 982.9 2487.45 979.6 2488.35 961.25 2493.3 955.85 2492.95 955.55 2505.75 953.4 2518.7 952.55 2524.05 949.25 2539.4 946.7 2551.1 946.05 2558.5 945.05 2569.05 946.55 2579.5 948.75 2595 961.3 2605.25 973.05 2614.85 988.45 2615.85 1059.5 2620.4 1063.3 2620.6 1116.7 2623.35 1155.4 2622.3 1267.3 2619.15 1276.45 2584.35 1278.6 2576.15 1255.45 2562.5 Z"/>
</g>

<g id="left_bicep_0_Layer0_0_FILL">
<path fill="#FFB790" stroke="none" d="
M 401.4 381.65
Q 392.15 373.1 381.35 360.8 372 368.65 369.05 378.95 366.65 387.55 368.85 396.95 380.25 408.15 391.2 415.85 402.25 423.6 414.3 428.9 414.9458984375 429.1857421875 415.6 429.45
L 415.6 393.55
Q 408.5 388.25234375 401.4 381.65 Z"/>
</g>

<g id="left_forearm_0_Layer0_0_FILL">
<path fill="#FFC19F" stroke="none" d="
M 472.25 443.8
Q 476.85 439.1 477.7 431.85 478.4 425.95 476.65 418.8 446.55 414.2 422.8 398.6 418.6 395.85234375 414.4 392.65
L 414.4 428.95
Q 426.1115234375 434.1154296875 440.55 437.75 453.85 441.1 472.25 443.8 Z"/>
</g>

<g id="Layer17_0_FILL">
<path fill="#FFC19F" stroke="none" d="
M 1413.35 1500.65
Q 1398.95 1512.8 1391.2 1530.65 1383.85 1547.75 1383.6 1567.5 1383.35 1587.05 1390.15 1605.75 1397.25 1625.05 1410.7 1640.05 1424.5 1657.6 1452.2 1688.45 1477 1716.05 1493.8 1733.25 1503.05 1742.75 1510.7 1743.9 1518.55 1745.15 1520.25 1736.55 1521.6 1729.45 1516.45 1715.35 1514.2 1709.2 1506.45 1692.3 1499.7 1677.5 1498.2 1673.1 1495.5 1664.95 1497.4 1660.6 1500.05 1654.55 1515.8 1662.5 1524.95 1667.15 1549.35 1683.15 1573.5 1699.05 1583.75 1704.15 1600.5 1712.5 1604.65 1707.05 1609.6 1700.55 1605.85 1690.65 1602.65 1682.15 1592.25 1669.35 1585.75 1661.35 1569.45 1643.75 1551.65 1624.5 1543.05 1614.4 1586.5 1630.45 1622.25 1632.95 1659.8 1635.55 1666.65 1621.05 1672.25 1609.2 1638.65 1592.75 1609.85 1578.65 1553.6 1561.85 1612.35 1556.35 1638.5 1550 1674.05 1541.35 1669.55 1527.75 1666.5 1521.3 1655.4 1518.4 1645.45 1515.8 1626.25 1515.5 1612.4 1515.3 1583.05 1516.4 1541.15 1517.9 1526.8 1518.25 1514.9 1518.55 1510.4 1512.7 1505.5 1506.45 1514.05 1497.75 1521.05 1490.65 1528.25 1483.85 1532.4 1479.9 1550.35 1463.2 1556.3 1457.65 1559.05 1450 1561.45 1443.3 1560.9 1436.7 1560.4 1430.55 1557.65 1427.45 1554.8 1424.2 1551.05 1426.25 1541.3 1431.65 1523.7 1438.7 1498 1449.05 1491.75 1451.8 1449 1470.65 1413.35 1500.65 Z"/>
</g>

<g id="right_bicep_0_Layer0_0_FILL">
<path fill="#FFB790" stroke="none" d="
M 257.2 392.65
Q 255.0080078125 394.3451171875 252.8 395.85
L 252.8 429.9
Q 253.731640625 429.5376953125 254.65 429.15 255.9310546875 428.609765625 257.2 428.05 268.2677734375 423.087109375 278.45 416 289.7 408.2 301.15 397 303.35 387.6 300.95 379 298 368.7 288.65 360.85 278.5 373.4 269.7 381.9 263.5158203125 387.869921875 257.2 392.65 Z"/>
</g>

<g id="right_forearm_0_Layer0_0_FILL">
<path fill="#FFC19F" stroke="none" d="
M 254.65 429.15
Q 254.9251953125 429.033984375 255.2 428.9
L 255.2 394.15
Q 252.18984375 396.365625 249.15 398.3 237.9 405.45 225 409.8 211.45 414.35 195.05 416.25 193.6 422.05 193.4 422.85 192.55 426.8 192.35 429.7 191.9 437.65 196.25 442.1 214.05 440.5 227.9 437.5 242.45 434.3 254.65 429.15 Z"/>
</g>

<g id="stomak_0_Layer0_0_FILL">
<path fill="#FFC19F" stroke="none" d="
M 280.65 422.4
Q 279.12734375 433.9416015625 277.65 444.95 275.05 464.3 273.6 474.6 288.15 482.1 309.8 483.35 316 483.7 326.2 483.65 335.9 483.6 339.2 483.85 347.65 484.5 356 483.75 361.9 483.2 370.15 481.65 381 479.65 383.3 479.35 390.7 478.25 397.15 478.35 396.7 478.25 395.2 463 393.1 440.85 391.75 427.45 391.4900390625 424.878515625 391.2 422.4
L 280.65 422.4 Z"/>
</g>

<g id="chest_0_Layer0_0_FILL">
<path fill="#FFC19F" stroke="none" d="
M 101.6 2.55
Q 95.1 1.35 82.7 0.65 70.7 0 56.6 0 42.1 0 29.65 0.7 16.2 1.45 8.2 2.9 3.95 36.25 0 66.05
L 110.95 66.05
Q 105.65 14.7 101.6 2.55 Z"/>
</g>

<g id="FL_3dot_0_Layer0_0_FILL">
<path fill="#BA7867" stroke="none" d="
M 846.4 1624.8
Q 842.1 1620.5 836 1620.5 829.95 1620.5 825.65 1624.8 821.35 1629.1 821.35 1635.2 821.35 1641.3 825.65 1645.6 829.95 1649.9 836 1649.9 842.1 1649.9 846.4 1645.6 850.7 1641.3 850.7 1635.2 850.7 1629.1 846.4 1624.8 Z"/>
</g>

<g id="FL_3dot_0_Layer0_1_FILL">
<path fill="#BA7867" stroke="none" d="
M 743.15 1432.05
Q 739.55 1428.4 734.4 1428.4 729.25 1428.4 725.6 1432.05 721.95 1435.7 721.95 1440.85 721.95 1446 725.6 1449.6 729.25 1453.25 734.4 1453.25 739.55 1453.25 743.15 1449.6 746.8 1446 746.8 1440.85 746.8 1435.7 743.15 1432.05 Z"/>
</g>

<g id="FL_3dot_0_Layer0_2_FILL">
<path fill="#BA7867" stroke="none" d="
M 953.2 1432.05
Q 949.6 1428.4 944.4 1428.4 939.25 1428.4 935.6 1432.05 931.95 1435.7 931.95 1440.85 931.95 1446 935.6 1449.6 939.25 1453.25 944.4 1453.25 949.55 1453.25 953.2 1449.6 956.85 1446 956.85 1440.85 956.85 1435.7 953.2 1432.05 Z"/>
</g>

<g id="hear_0_Layer0_0_FILL">
<path fill="#9B4734" stroke="none" d="
M 258.75 90.2
Q 252.05 85.25 243.65 81.75 236.408203125 78.690625 229.35 77.35 228.47265625 76.55390625 227.55 75.75 235.069921875 72.441015625 239.2 69.05 244.1 65 243.6 61.35 243.15 58.25 238.7 55.85 234.4 53.55 226.75 52.15 211.05 49.3 187.25 50.8 192.45 46 195.25 42.8 198.55 39.1 200.1 36 201.75 32.7 201.9 29.3 202.05 25.95 200.7 21.8 198.05 13.65 189.05 8.25 180.3 3.05 166.9 1.05 153.45 -0.9 137.4 0.7 120.8 2.4 103.7 7.65 86.2 13.05 72.45 19.65 58.5 26.35 49.4 33.8 40.05 41.45 36.45 49.4 32.7 57.7 35.3 65.8 25.05 67.25 17.3 73.6 14.2 76.15 11.9 79.2 11.2330078125 80.08359375 10.65 80.95 5.0783203125 85.8595703125 2.5 95.3 0 104.35 0 119.6 -0.05 124.15 0.2 132.3 0.45 140.8 0.45 144.15 0.6 197.5 36.05 223.95 52.55 236.25 76.35 242.3 99.1 248.1 127.95 248.05 157.45 248 180.7 240.9 205.95 233.2 222.65 217.6 240.7 200.7 248.15 175 255.9431640625 148.2322265625 252.05 112.4 260.38671875 109.6984375 267.15 105.25 270.05 103.35 267.5 99.05 265.1 94.9 258.75 90.2 Z"/>
</g>

<g id="right_ear_0_Layer0_0_MEMBER_0_FILL">
<path fill="#FFC19F" stroke="none" d="
M 1384.55 753.5
Q 1357.15 735.5 1319.9 730.15 1292.5 726.25 1265.5 736.7 1239.45 746.8 1217.35 768.8 1195.25 790.8 1180.6 821.3 1165.4 852.9 1160.35 889.05 1149.1 969.7 1164.6 1018.05 1182.5 1074 1234.95 1081.3 1262.75 1085.15 1293.95 1075.8 1324.95 1066.45 1353.2 1045.9 1382.55 1024.6 1403.6 995 1426.15 963.3 1435.95 926.4 1445.5 890.5 1442.85 857.45 1440.2 824.3 1425.65 797.85 1410.6 770.65 1384.55 753.5 Z"/>
</g>

<g id="right_ear_0_Layer0_0_MEMBER_1_FILL">
<path fill="#E0956C" stroke="none" d="
M 444.35 258.1
Q 440.95 257.6 437.65 258.7 434.45 259.7 431.8 262 429.1 264.25 427.4 267.5 425.6 270.8 425.05 274.65 424.5 278.5 425.35 282.2 426.15 285.75 428.05 288.7 430 291.6 432.8 293.45 435.7 295.4 439.05 295.85 442.45 296.35 445.75 295.25 448.95 294.25 451.6 291.95 457.25 287.1 458.35 279.3 458.9 275.45 458.05 271.75 457.3 268.2 455.35 265.25 453.4 262.35 450.6 260.5 447.7 258.55 444.35 258.1 Z"/>
</g>

<g id="left_ear_0_Layer0_0_MEMBER_0_FILL">
<path fill="#FFC19F" stroke="none" d="
M 469 768.8
Q 446.9 746.8 420.8 736.7 393.8 726.25 366.4 730.15 329.15 735.5 301.75 753.5 275.7 770.65 260.7 797.85 246.1 824.3 243.45 857.45 240.8 890.5 250.35 926.4 260.2 963.3 282.7 995 303.75 1024.6 333.1 1045.9 361.4 1066.45 392.35 1075.8 423.55 1085.15 451.4 1081.3 503.85 1074 521.75 1018.05 537.25 969.7 526 889.05 520.95 852.9 505.75 821.3 491.05 790.8 469 768.8 Z"/>
</g>

<g id="left_ear_0_Layer0_0_MEMBER_1_FILL">
<path fill="#E0956C" stroke="none" d="
M 449.75 876.55
Q 438.75 867.1 425.6 862.9 411.95 858.55 398 860.5 384 862.45 372.1 870.35 360.6 878 352.55 890.1 335.65 915.7 340.1 948 342.3 963.85 349.75 977.55 356.9 990.8 367.9 1000.25 378.95 1009.75 392.1 1013.95 405.7 1018.3 419.7 1016.35 433.7 1014.4 445.6 1006.5 457.1 998.85 465.1 986.75 482.05 961.1 477.55 928.8 473.05 896.55 449.75 876.55 Z"/>
</g>

<g id="Layer8_0_FILL">
<path fill="#FF9797" stroke="none" d="
M 493.95 946.45
Q 492.9 960.9 509.7 972.4 526.45 983.9 551.3 985.7 576.1 987.5 594.4 978.55 612.7 969.6 613.75 955.1 614.8 940.65 598 929.15 581.2 917.65 556.4 915.85 531.6 914.05 513.3 923 495 932 493.95 946.45 Z"/>
</g>

<g id="Layer8_1_FILL">
<path fill="#FF9797" stroke="none" d="
M 1189.15 977.9
Q 1206.05 966.45 1205.05 952 1204.1 937.5 1185.85 928.45 1167.55 919.4 1142.75 921.1 1117.95 922.8 1101.1 934.2 1084.25 945.65 1085.2 960.1 1086.2 974.6 1104.45 983.65 1122.7 992.7 1147.5 991 1172.3 989.3 1189.15 977.9 Z"/>
</g>

<g id="Layer8_2_FILL">
<path fill="#9B4734" stroke="none" d="
M 1142.1 593.65
Q 1147.7 593.65 1151.45 589.45 1154.9 585.6 1154.6 580.4 1154.3 575.25 1150.45 571.8 1122.4 546.7 1077.15 540.4 1032 534.1 990.55 549.5 985.7 551.3 983.55 556 981.4 560.7 983.2 565.6 985 570.45 989.75 572.6 994.45 574.75 999.3 572.95 1033.9 560 1072.45 565 1110.95 570 1133.8 590.45 1137.3 593.65 1142.1 593.65 Z"/>
</g>

<g id="Layer8_3_FILL">
<path fill="#9B4734" stroke="none" d="
M 696.55 572.6
Q 701.25 570.45 703.1 565.6 704.9 560.75 702.75 556.05 700.6 551.3 695.75 549.5 654.35 534.1 609.15 540.4 563.9 546.7 535.85 571.8 532 575.25 531.7 580.4 531.45 585.6 534.9 589.45 536.7 591.5 539.2 592.6 541.6 593.65 544.2 593.65 549 593.65 552.55 590.45 575.4 570.05 613.9 565.05 652.4 560.05 687 572.95 691.85 574.75 696.55 572.6 Z"/>
</g>

<g id="face_0_Layer0_0_FILL">
<path fill="#FFC19F" stroke="none" d="
M 838.35 349.05
Q 786.4 348.8 725.05 360.25 641.1 375.9 574.55 408.85 490.15 450.65 443.1 516.3 386.8 594.9 386.8 704.2 386.8 832.85 419.5 931.45 450.9 1026.3 511.6 1090.6 570.3 1152.75 654.2 1184.15 736.05 1214.75 838.35 1214.75 940.5 1214.75 1021.9 1183.95 1105.2 1152.45 1163.3 1089.95 1223.25 1025.5 1254.35 930.4 1286.6 831.7 1286.85 702.9 1287.1 589.35 1236.3 511 1193.15 444.45 1114.15 404.7 1004.95 349.7 838.35 349.05 Z"/>
</g>

<g id="nose_0_Layer0_0_MEMBER_0_FILL">
<path fill="#E0956C" stroke="none" d="
M 22 24.1
Q 22.05 22.7 21.55 21.2 21.45 20.8 20.75 19.85 19.85 18.6 19.35 17.85 17.3 15 17 13.15 16.45 9.65 15.9 7.1 14.9 2.25 13.8 1.1 12.7 0 11.05 0 9.55 0 8.45 0.9 7.4 1.75 6.65 4.85 6.2 6.75 5.3 11.8 4.75 14.35 3.1 17.4 2.7 18.05 1.85 19.55 1.1 20.7 0.9 21.25 -1 25.3 1.1 27.1 1.95 27.8 3.3 27.95 4.5 28.15 5.7 27.9 7.3 27.55 8.9 28.2 9.3 28.4 10.1 28.75 10.75 29 11.35 28.95 12 28.95 12.6 28.7 12.95 28.55 13.55 28.2 14.8 27.6 16.4 27.95 19.9 28.7 21.35 26.45 21.95 25.5 22 24.1 Z"/>
</g>

<g id="nose_0_Layer0_0_MEMBER_1_FILL">
<path fill="#77382A" stroke="none" d="
M 35.6 163.1
Q 29.7 162.3 26.2 164.45 23.35 166.2 23.15 168.9 22.9 173.1 32.7 174 35.3 174.25 40.65 174.5 45.05 174.85 46.8 175.55 48.9 176.4 52 178.7 53.8 180.05 57.7 182.95 65.25 188.25 72.45 188.25 79.3 188.25 86.3 182.95 89.85 180.05 91.55 178.7 94.45 176.4 96.55 175.55 98.3 174.85 102.75 174.5 105.25 174.35 110.7 174 120.45 173.1 120.2 168.9 120 166.2 117.15 164.45 113.65 162.3 107.75 163.1 102.65 163.75 97.45 167.65 94.3 170.05 88.8 175.75 83.4 181.4 80.7 183.4 76.2 186.75 72.05 186.6 67.75 186.45 63.1 183.05 60.35 181.05 54.75 175.45 49.2 169.9 45.95 167.55 40.7 163.75 35.6 163.1 Z"/>
</g>

<g id="mouth_0_Layer0_0_MEMBER_0_FILL">
<path fill="#560B04" stroke="none" d="
M 993.3 1050.95
Q 1006.3 1031.8 1006.35 1010.85 1006.4 990.35 994 978.5 982.7 967.7 959.85 963 940.5 959.05 908.7 958.9 889.55 958.8 845.1 960.6 842.1 960.7 780.35 961.9 745.1 962.6 726.7 965.5 702.05 969.4 690.1 979.05 676.6 990 676.55 1010.3 676.5 1031.25 689.45 1050.4 701.95 1068.95 724.75 1083.25 747.5 1097.55 777.1 1105.4 807.75 1113.55 841.3 1113.6 874.85 1113.65 905.5 1105.6 935.1 1097.85 957.95 1083.6 980.75 1069.4 993.3 1050.95 Z"/>
</g>

<g id="tung_0_Layer0_0_FILL">
<path fill="#DD7868" stroke="none" d="
M 733.9 1090.35
Q 756.15 1102 783.2 1108.3 811.15 1114.85 841.3 1114.9 875.2 1114.95 906.2 1106.85 936.1 1099 959.35 1084.7 939.8 1073.1 912.05 1066.55 883.3 1059.8 851.15 1059.75 814.9 1059.7 783.4 1068.1 752.9 1076.25 733.9 1090.35 Z"/>
</g>

<g id="teeth_0_Layer0_0_FILL">
<path fill="#FFFFFF" stroke="none" d="
M 920.75 959.2
Q 898.1 958.5 845.1 960.6 829.65 961.2 801.25 961.6 773.6 962 761.4 962.5 719.35 964.3 700.65 972.85 717.7 989.9 753.95 1000.35 791.2 1011.1 836.35 1011.15 885 1011.25 923.95 999.1 962.1 987.2 976.65 968.15 957.25 960.4 920.75 959.2 Z"/>
</g>

<g id="left_eye_0_Layer0_0_MEMBER_0_FILL">
<path fill="#F9FEFF" stroke="none" d="
M 1010.25 701.05
Q 989.5 714.3 976.2 734.7 945.3 782 958.85 858.95
L 981.45 864.75
Q 1009.25 870.8 1035.15 872.05 1118.05 875.95 1151.2 830.1 1174.05 798.5 1172.1 767.6 1170.4 740.45 1150.25 718.3 1131.8 698.05 1104.25 688.35 1076.8 678.75 1052.7 683.9 1029.25 688.95 1010.25 701.05 Z"/>
</g>

<g id="left_eye_0_Layer0_0_MEMBER_1_FILL">
<path fill="#9B4734" stroke="none" d="
M 1117.05 683
Q 1093.15 674.15 1063.55 677.1 1035.05 679.95 1009 697.65 983.45 715 975.1 736.4 988.85 715.3 1013.8 702.25 1031.25 693.15 1053.65 688.3 1080.85 682.45 1110.35 693.55 1140.9 705.05 1156.25 728.5 1170.35 750.15 1168.7 778.8 1167.05 808.1 1149.45 832.4 1159.85 824.15 1166.95 809.55 1173.95 795.3 1176.15 778.55 1178.45 761.2 1175.05 745.35 1171.35 728.25 1161.65 716 1143.05 692.6 1117.05 683 Z"/>
</g>

<g id="left_eye_0_Layer0_0_MEMBER_2_FILL">
<path fill="#63190D" stroke="none" d="
M 1018.55 732.75
Q 994.7 743 985.15 767.1 975.55 791.2 985.8 815 996.05 838.8 1020.15 848.4 1032 853.1 1044.6 852.85 1056.8 852.6 1068.05 847.75 1091.85 837.5 1101.45 813.4 1111.05 789.3 1100.8 765.45 1090.55 741.65 1066.45 732.05 1042.35 722.5 1018.55 732.75 Z"/>
</g>

<g id="left_eye_0_Layer0_0_MEMBER_3_FILL">
<path fill="#FEFFFE" stroke="none" d="
M 999.45 747.6
Q 992.85 750.45 990.2 757.15 987.55 763.8 990.4 770.45 993.25 777.05 999.9 779.7 1006.6 782.35 1013.2 779.5 1019.8 776.65 1022.45 769.95 1025.1 763.3 1022.25 756.65 1019.45 750.05 1012.75 747.4 1006.05 744.75 999.45 747.6 Z"/>
</g>

<g id="right_eye_0_Layer0_0_MEMBER_0_FILL">
<path fill="#F9FEFF" stroke="none" d="
M 710.1 734.7
Q 696.85 714.3 676.1 701.05 657.1 688.95 633.65 683.9 609.5 678.75 582.1 688.35 554.55 698.05 536.05 718.3 515.9 740.45 514.2 767.6 512.25 798.5 535.1 830.1 568.25 875.95 651.15 872.05 677.05 870.8 704.85 864.75 718.75 861.75 727.45 858.95 741 782 710.1 734.7 Z"/>
</g>

<g id="right_eye_0_Layer0_0_MEMBER_1_FILL">
<path fill="#9B4734" stroke="none" d="
M 672.55 702.25
Q 697.45 715.3 711.25 736.4 702.85 715 677.3 697.65 651.3 679.95 622.8 677.1 593.15 674.15 569.3 683 543.25 692.6 524.65 716 514.95 728.25 511.25 745.35 507.85 761.2 510.15 778.55 512.35 795.35 519.35 809.55 526.45 824.15 536.85 832.4 519.25 808.15 517.6 778.8 516 750.15 530.1 728.5 545.4 705.05 575.95 693.55 605.45 682.45 632.65 688.3 655.05 693.15 672.55 702.25 Z"/>
</g>

<g id="right_eye_0_Layer0_0_MEMBER_2_FILL">
<path fill="#63190D" stroke="none" d="
M 700.5 765.45
Q 690.25 741.65 666.2 732.05 642.1 722.5 618.25 732.75 594.45 743 584.85 767.1 575.3 791.2 585.55 815 595.8 838.8 619.9 848.4 631.75 853.1 644.35 852.85 656.55 852.6 667.8 847.75 691.6 837.5 701.2 813.4 710.75 789.3 700.5 765.45 Z"/>
</g>

<g id="right_eye_0_Layer0_0_MEMBER_3_FILL">
<path fill="#FEFFFE" stroke="none" d="
M 599.2 747.6
Q 592.6 750.45 589.95 757.15 587.3 763.8 590.15 770.45 593 777.05 599.65 779.7 606.35 782.35 612.95 779.5 619.55 776.65 622.2 769.95 624.85 763.3 622 756.65 619.2 750.05 612.5 747.4 605.8 744.75 599.2 747.6 Z"/>
</g>

<g id="pelvis_0_Layer0_0_FILL">
<path fill="#CE3030" stroke="none" d="
M 85.8 67.1
Q 86.85 69.1 87.9 73 88.65 75.95 90.05 82.4 104.4 82.05 124.9 78.65 145.8 75.2 157.35 71.15 155.35 62.9 149.9 34.3 144.55 6 143 -0.2 111.15 1.7 97.95 2 60.25 2.8 15.35 -0.05 5.25 42.55 0 68.2 10.95 73.95 30.8 78.35 50.65 82.75 65.6 82.75 68.3 72.75 71.65 67.9 75.05 62.9 79.2 63 81.65 63.1 83.1 64 84.65 64.95 85.8 67.1 Z"/>
</g>

<g id="pelvis_0_Layer0_1_FILL">
<path fill="#FFE7C5" stroke="none" d="
M 847.65 1769.65
Q 839.4 1764.25 833.2 1761.8 816.9 1755.35 802.7 1753.2 782.25 1750 769.8 1756.4 757.45 1762.8 753.85 1777.5 752.3 1783.95 753.95 1790.3 755.65 1796.6 760.05 1800.7 763.95 1804.35 771.5 1806.95 785.3 1811.8 797.2 1811.8 809.15 1811.75 818.3 1806.85 822.25 1804.8 826.35 1801.45 828.8 1799.5 833.35 1795.3
L 837.95 1791.15
Q 835.55 1795.5 828.95 1805.65 809.65 1835 802.35 1855.25 789.5 1890.7 796.3 1928.35 796.7 1930.6 798.45 1932.05 800.2 1933.5 802.45 1933.5
L 803.5 1933.4
Q 806.05 1932.95 807.55 1930.85 809 1928.7 808.55 1926.2 802.3 1891.75 814.35 1858.75 821.25 1840 839.35 1812.45 846.2 1802 849.5 1795.65 853.45 1804.75 854.6 1818 855.35 1826.4 855.25 1844.75 855.1 1871.85 856.9 1886.75 859.95 1911.9 869.8 1933.85 870.6 1935.6 872.15 1936.6 873.65 1937.55 875.45 1937.55 876.9 1937.55 878 1937 880.35 1935.95 881.25 1933.55 882.15 1931.2 881.15 1928.8 872.05 1908.5 869.2 1884.7 867.55 1870.7 867.65 1844.8 867.75 1827.8 866.95 1818.45 865.75 1804.85 862.15 1794.75 877.4 1805.45 887.45 1810.45 901.9 1817.65 913.4 1817.65 926.5 1817.65 936.75 1808.45 946.9 1799.35 949.75 1790 951.85 1782.95 949.7 1776.2 946.4 1766.1 934.55 1759.3 924.15 1753.35 911.7 1752.1 898.45 1750.65 880.1 1756 863.4 1760.85 847.65 1769.65
M 835.9 1776.95
Q 832.3 1779.6 830.4 1781.25 829.2 1782.25 824.95 1786.15 820.95 1789.85 818.85 1791.55 815.5 1794.35 812.5 1795.9 804.7 1800.05 793.65 1799.2 785.3 1798.6 775.65 1795.25 770.45 1793.4 768.55 1791.6 766.6 1789.8 765.9 1786.7 765.15 1783.65 765.95 1780.45 768.2 1771.15 775.5 1767.4 785.2 1762.3 803.5 1765.8 815.2 1768.05 828.65 1773.35 831.75 1774.6 835.9 1776.95
M 859.3 1777.6
Q 872.75 1770.85 886.1 1767.25 900.65 1763.3 910.45 1764.45 919.35 1765.35 927.35 1769.6 936 1774.2 937.9 1780.05 939.4 1784.7 936.1 1790.35 933.55 1794.65 928.45 1799.2 917.55 1809.05 900.35 1802.65 888 1798.05 862.9 1780.15
L 859.3 1777.6 Z"/>
</g>

<g id="Layer0_0_FILL">
<path fill="#FFC19F" stroke="none" d="
M 175.4 1379.8
Q 172.75 1376.55 169.3 1378.4 166.15 1380.15 163.5 1385.35 160.8 1390.65 159.9 1396.9 158.95 1403.75 160.6 1409.2 166 1426.9 175.55 1442.65 180.55 1450.8 181.7 1453.1 184.6 1458.75 185.85 1464.4 188.4 1476.1 180.5 1482 173.85 1487 160 1487.7 139.75 1483.05 105.85 1474.1 76.35 1466.35 64.6 1463.95 46 1460.1 35.55 1460.9 23.75 1461.8 17.95 1468.7 10.55 1481 43.35 1497.3 67.45 1509.25 123.5 1527.55 64.95 1531.55 33.75 1538.95 -2.65 1547.55 0.2 1560.35 3.7 1576 40.9 1581.75 76.25 1587.2 122.2 1581.15 111.6 1589.15 90 1603.95 70.3 1617.5 62.15 1623.9 49.2 1634.1 44.2 1641.65 38.4 1650.5 41.75 1657.9 44.6 1664.15 62.75 1659.7 73.95 1656.95 100.95 1646.85 128.25 1636.6 138.25 1634.05 155.3 1629.8 156.55 1636.25 157.45 1640.9 153 1648.2 150.65 1652.15 140.75 1665.2 129.35 1680.2 125.95 1685.45 117.8 1698.05 117.6 1705.3 117.3 1714.05 125.25 1714.6 132.95 1715.1 144.1 1707.9 164.15 1694.9 194.55 1673.35 228.3 1649.4 245.7 1635.3 262.15 1623.6 273.25 1606.3 284.05 1589.6 288.1 1570.45 292.25 1551.15 288.8 1532.9 285.2 1513.75 273.8 1498.75 246.1 1462.25 218.4 1430 178.75 1383.9 175.4 1379.8 Z"/>
</g>
</defs>

<g transform="matrix( 1, 0, 0, 1, 269.7,586) ">
<g transform="matrix( 1, 0, 0, 1, -269.7,-586) ">
<use xlink:href="#right_knee_0_Layer0_0_FILL"/>
</g>
</g>

<g transform="matrix( 1, 0, 0, 1, 270.5,482.75) ">
<g transform="matrix( 1, 0, 0, 1, -270.5,-482.75) ">
<use xlink:href="#right_thigh_0_Layer0_0_FILL"/>
</g>
</g>

<g transform="matrix( 1, 0, 0, 1, 220.65,647.5) ">
<g transform="matrix( 0.2422943115234375, 0, 0, 0.2422943115234375, -87.15,-597.9) ">
<use xlink:href="#right_foot_0_Layer0_0_FILL"/>
</g>
</g>

<g transform="matrix( 1, 0, 0, 1, 315,333.8) ">
<g transform="matrix( 0.2422943115234375, 0, 0, 0.2422943115234375, -181.5,-284.2) ">
<use xlink:href="#neck_0_Layer0_0_FILL"/>
</g>
</g>

<g transform="matrix( 1, 0, 0, 1, 344.7,481.35) ">
<g transform="matrix( 1, 0, 0, 1, -344.7,-481.35) ">
<use xlink:href="#left_thigh_0_Layer0_0_FILL"/>
</g>
</g>

<g transform="matrix( 1, 0, 0, 1, 357.25,590) ">
<g transform="matrix( 1, 0, 0, 1, -357.25,-590) ">
<use xlink:href="#left_knee_0_Layer0_0_FILL"/>
</g>
</g>

<g transform="matrix( 1, 0, 0, 1, 362.65,647.5) ">
<g transform="matrix( 0.2422943115234375, 0, 0, 0.2422943115234375, -229.15,-597.9) ">
<use xlink:href="#left_foot_0_Layer0_0_FILL"/>
</g>
</g>

<g transform="matrix( 1, 0, 0, 1, 367.8,360.8) ">
<g transform="matrix( 1, 0, 0, 1, -367.8,-360.8) ">
<use xlink:href="#left_bicep_0_Layer0_0_FILL"/>
</g>
</g>

<g transform="matrix( 1, 0, 0, 1, 414.4,392.65) ">
<g transform="matrix( 1, 0, 0, 1, -414.4,-392.65) ">
<use xlink:href="#left_forearm_0_Layer0_0_FILL"/>
</g>
</g>

<g transform="matrix( 0.2422943115234375, 0, 0, 0.2422943115234375, 133.5,49.6) ">
<use xlink:href="#Layer17_0_FILL"/>
</g>

<g transform="matrix( 1, 0, 0, 1, 252.8,360.85) ">
<g transform="matrix( 1, 0, 0, 1, -252.8,-360.85) ">
<use xlink:href="#right_bicep_0_Layer0_0_FILL"/>
</g>
</g>

<g transform="matrix( 1, 0, 0, 1, 192.3,394.2) ">
<g transform="matrix( 1, 0, 0, 1, -192.3,-394.2) ">
<use xlink:href="#right_forearm_0_Layer0_0_FILL"/>
</g>
</g>

<g transform="matrix( 1, 0, 0, 1, 273.6,422.4) ">
<g transform="matrix( 1, 0, 0, 1, -273.6,-422.4) ">
<use xlink:href="#stomak_0_Layer0_0_FILL"/>
</g>
</g>

<g transform="matrix( 1, 0, 0, 1, 280.45,357.95) ">
<g transform="matrix( 1, 0, 0, 1, 0,0) ">
<use xlink:href="#chest_0_Layer0_0_FILL"/>
</g>
</g>

<g transform="matrix( 1, 0, 0, 1, 308.4,395.7) ">
<g transform="matrix( 0.2422943115234375, 0, 0, 0.2422943115234375, -174.9,-346.1) ">
<use xlink:href="#FL_3dot_0_Layer0_0_FILL"/>
</g>

<g transform="matrix( 0.2422943115234375, 0, 0, 0.2422943115234375, -174.9,-346.1) ">
<use xlink:href="#FL_3dot_0_Layer0_1_FILL"/>
</g>

<g transform="matrix( 0.2422943115234375, 0, 0, 0.2422943115234375, -174.9,-346.1) ">
<use xlink:href="#FL_3dot_0_Layer0_2_FILL"/>
</g>
</g>

<g transform="matrix( 1, 0, 0, 1, 212.65,49.6) ">
<g transform="matrix( 1, 0, 0, 1, 0,0) ">
<use xlink:href="#hear_0_Layer0_0_FILL"/>
</g>
</g>

<g transform="matrix( 1, 0, 0, 1, 413.5,226.25) ">
<g transform="matrix( 0.2422943115234375, 0, 0, 0.2422943115234375, -280,-176.65) ">
<use xlink:href="#right_ear_0_Layer0_0_MEMBER_0_FILL"/>
</g>

<g transform="matrix( 1, 0, 0, 1, -413.5,-226.25) ">
<use xlink:href="#right_ear_0_Layer0_0_MEMBER_1_FILL"/>
</g>
</g>

<g transform="matrix( 1, 0, 0, 1, 192.35,226.25) ">
<g transform="matrix( 0.2422943115234375, 0, 0, 0.2422943115234375, -58.85,-176.65) ">
<use xlink:href="#left_ear_0_Layer0_0_MEMBER_0_FILL"/>
</g>

<g transform="matrix( 0.2422943115234375, 0, 0, 0.2422943115234375, -58.85,-176.65) ">
<use xlink:href="#left_ear_0_Layer0_0_MEMBER_1_FILL"/>
</g>
</g>

<g transform="matrix( 0.2422943115234375, 0, 0, 0.2422943115234375, 133.5,49.6) ">
<use xlink:href="#Layer8_0_FILL"/>
</g>

<g transform="matrix( 0.2422943115234375, 0, 0, 0.2422943115234375, 133.5,49.6) ">
<use xlink:href="#Layer8_1_FILL"/>
</g>

<g transform="matrix( 0.2422943115234375, 0, 0, 0.2422943115234375, 133.5,49.6) ">
<use xlink:href="#Layer8_2_FILL"/>
</g>

<g transform="matrix( 0.2422943115234375, 0, 0, 0.2422943115234375, 133.5,49.6) ">
<use xlink:href="#Layer8_3_FILL"/>
</g>

<g transform="matrix( 1, 0, 0, 1, 227.2,134.15) ">
<g transform="matrix( 0.2422943115234375, 0, 0, 0.2422943115234375, -93.7,-84.55) ">
<use xlink:href="#face_0_Layer0_0_FILL"/>
</g>
</g>

<g transform="matrix( 1.2758636474609375, 0, 0, 1.2758636474609375, 324.25,237.15) ">
<g transform="matrix( 1, 0, 0, 1, 0,0) ">
<use xlink:href="#nose_0_Layer0_0_MEMBER_0_FILL"/>
</g>

<g transform="matrix( 0.1540985107421875, 0, 0, 0.1540985107421875, 0,0) ">
<use xlink:href="#nose_0_Layer0_0_MEMBER_1_FILL"/>
</g>
</g>

<g transform="matrix( 1, 0, 0, 1, 297.4,281.9) ">
<g transform="matrix( 0.242279052734375, 0, 0, 0.242279052734375, -163.9,-232.3) ">
<use xlink:href="#mouth_0_Layer0_0_MEMBER_0_FILL"/>
</g>
</g>

<g transform="matrix( 1, 0, 0, 1, 311.3,306.35) ">
<g transform="matrix( 0.242279052734375, 0, 0, 0.242279052734375, -177.8,-256.75) ">
<use xlink:href="#tung_0_Layer0_0_FILL"/>
</g>
</g>

<g transform="matrix( 1, 0, 0, 1, 303.25,281.95) ">
<g transform="matrix( 0.242279052734375, 0, 0, 0.242279052734375, -169.75,-232.35) ">
<use xlink:href="#teeth_0_Layer0_0_FILL"/>
</g>
</g>

<g transform="matrix( 1, 0, 0, 1, 364.8,213.5) ">
<g transform="matrix( 0.2422637939453125, 0, 0, 0.2422637939453125, -231.3,-163.9) ">
<use xlink:href="#left_eye_0_Layer0_0_MEMBER_0_FILL"/>
</g>

<g transform="matrix( 0.2422637939453125, 0, 0, 0.2422637939453125, -231.3,-163.9) ">
<use xlink:href="#left_eye_0_Layer0_0_MEMBER_1_FILL"/>
</g>

<g transform="matrix( 0.2422637939453125, 0, 0, 0.2422637939453125, -231.3,-163.9) ">
<use xlink:href="#left_eye_0_Layer0_0_MEMBER_2_FILL"/>
</g>

<g transform="matrix( 0.2422637939453125, 0, 0, 0.2422637939453125, -231.3,-163.9) ">
<use xlink:href="#left_eye_0_Layer0_0_MEMBER_3_FILL"/>
</g>
</g>

<g transform="matrix( 1, 0, 0, 1, 256.9,213.5) ">
<g transform="matrix( 0.2422943115234375, 0, 0, 0.2422943115234375, -123.4,-163.9) ">
<use xlink:href="#right_eye_0_Layer0_0_MEMBER_0_FILL"/>
</g>

<g transform="matrix( 0.2422943115234375, 0, 0, 0.2422943115234375, -123.4,-163.9) ">
<use xlink:href="#right_eye_0_Layer0_0_MEMBER_1_FILL"/>
</g>

<g transform="matrix( 0.2422943115234375, 0, 0, 0.2422943115234375, -123.4,-163.9) ">
<use xlink:href="#right_eye_0_Layer0_0_MEMBER_2_FILL"/>
</g>

<g transform="matrix( 0.2422943115234375, 0, 0, 0.2422943115234375, -123.4,-163.9) ">
<use xlink:href="#right_eye_0_Layer0_0_MEMBER_3_FILL"/>
</g>
</g>

<g transform="matrix( 1, 0, 0, 1, 256.15,464.2) ">
<g transform="matrix( 1, 0, 0, 1, 0,0) ">
<use xlink:href="#pelvis_0_Layer0_0_FILL"/>
</g>

<g transform="matrix( 0.2422943115234375, 0, 0, 0.2422943115234375, -122.65,-414.6) ">
<use xlink:href="#pelvis_0_Layer0_1_FILL"/>
</g>
</g>

<g transform="matrix( 0.2422943115234375, 0, 0, 0.2422943115234375, 133.5,49.6) ">
<use xlink:href="#Layer0_0_FILL"/>
</g>
</svg>
