
<svg xmlns="http://www.w3.org/2000/svg" version="1.1" xmlns:xlink="http://www.w3.org/1999/xlink" preserveAspectRatio="none" x="0px" y="0px" width="686px" height="560px" viewBox="0 0 686 560">
<defs>
<g id="Duplicate_Items_Folder_Symbol_4_copy_2_3_Layer0_0_FILL">
<path fill="#0A0A0A" stroke="none" d="
M 77.65 -56
L 60.25 -73.4 38.7 -91.45
Q 29.5 -98.9 17.75 -106.1 -10.65 -123.5 -33.35 -123.5 -43.05 -123.5 -52.25 -120.15 -65.15 -114.7 -73.2 -103.6 -77.45 -97.9 -78.75 -92.45 -80.1 -87.05 -80.1 -78.85
L -80.1 -74.15 -75.4 -55.7 -102.65 -55.7 -102.65 -43.7 -76.3 -43.7 -76.3 98.85 -60.3 98.85 -60.3 -43.7 0.25 -43.7 0.25 9.8 -12.65 9.8 -15.75 10.65 -17.2 11.4
Q -19.25 12.55 -20.4 14.2
L -21.3 18.15
Q -21 22.1 -18.35 25.9 -8.4 38.5 -3.15 43.9 4.5 51.7 8.9 51.7
L 13 51.1 15.45 49.35 15.45 23.25 70.4 23.25 70.4 98.85 86.1 98.85 86.1 -43.7 108.5 -43.7 108.5 -56 77.65 -56
M 43.1 -69.75
L 57.9 -56 -37.85 -56 -37.85 -55.7 -60.3 -55.7 -61.8 -58.05 -64 -63.75 -65.75 -70.65 -65.75 -76.65
Q -65.75 -83.4 -63.7 -90.85 -57.4 -104.6 -46.55 -108.3 -41.7 -110.6 -34.55 -110.6 -25.9 -110.6 -13.9 -106.5 -1.85 -102.55 7.5 -96.25
L 25.5 -84.25 32.4 -79.15
Q 37.7 -75.15 43.1 -69.75
M 15.45 -43.7
L 70.4 -43.7 70.4 9.8 15.45 9.8 15.45 -43.7 Z"/>
</g>
</defs>

<g transform="matrix( 1.67596435546875, 0, 0, 1.67596435546875, 341.7,283.05) ">
<g transform="matrix( 1, 0, 0, 1, 0,0) ">
<use xlink:href="#Duplicate_Items_Folder_Symbol_4_copy_2_3_Layer0_0_FILL"/>
</g>
</g>
</svg>
