
<svg xmlns="http://www.w3.org/2000/svg" version="1.1" xmlns:xlink="http://www.w3.org/1999/xlink" preserveAspectRatio="none" x="0px" y="0px" width="686px" height="560px" viewBox="0 0 686 560">
<defs>
<g id="Duplicate_Items_Folder_Symbol_4_copy_2_4_Layer0_0_FILL">
<path fill="#0A0A0A" stroke="none" d="
M 34.55 -112.4
Q 23 -120.45 12.45 -120.45 -12.15 -120.45 -20.95 -94.95 -23 -88.95 -23.3 -86.9 -23.6 -84.7 -23.6 -80.3
L -23.6 -73.4 -21.4 -66.8 -18.3 -60.8 -14.65 -56 -102.5 -56 -102.5 -43.7 -64.4 -43.7 -64.4 9.8 -77.3 9.8 -80.4 10.65 -81.85 11.4
Q -83.9 12.55 -85.05 14.2
L -85.95 18.15
Q -85.65 22.1 -83 25.9 -73.05 38.5 -67.8 43.9 -60.15 51.7 -55.75 51.7
L -51.65 51.1 -49.2 49.35 -49.2 23.25 5.75 23.25 5.75 98.85 21.45 98.85 21.45 -43.7 65.45 -43.7 65.45 98.85 81.15 98.85 81.15 -43.7 106.35 -43.7 106.35 -55.7 77.75 -55.7 67.1 -74.6 58.3 -88.05
Q 48.75 -102.7 34.55 -112.4
M 61.95 -55.7
L 43.85 -55.7 43.85 -56 2.85 -56 1 -58.6 -2.8 -66.25
Q -3.8 -68 -4.55 -70.2 -5.3 -72.55 -6.3 -75.75 -7.35 -79.15 -7.35 -82.95
L -7.35 -88.65
Q -5 -97 -2.2 -101.25 3.2 -108.7 12.9 -108.7 23.7 -108.7 38.05 -91.85 62.25 -64.2 62.25 -56.85
L 61.95 -55.7
M 5.75 -43.7
L 5.75 9.8 -49.2 9.8 -49.2 -43.7 5.75 -43.7 Z"/>
</g>
</defs>

<g transform="matrix( 1.67596435546875, 0, 0, 1.67596435546875, 341.7,283.05) ">
<g transform="matrix( 1, 0, 0, 1, 0,0) ">
<use xlink:href="#Duplicate_Items_Folder_Symbol_4_copy_2_4_Layer0_0_FILL"/>
</g>
</g>
</svg>
