
<svg xmlns="http://www.w3.org/2000/svg" version="1.1" xmlns:xlink="http://www.w3.org/1999/xlink" preserveAspectRatio="none" x="0px" y="0px" width="278px" height="216px" viewBox="0 0 278 216">
<defs>
<g id="Layer0_0_FILL">
<path fill="#000000" stroke="none" d="
M 188.5 82.75
L 180.05 95.7 175.95 102.8
Q 172.4 108.9 168.5 118.65 163.1 131.95 161.4 142.45
L 159.95 149.85
Q 159.4 152.8 159.2 155.75 159 158.8 159 161.95
L 171.45 161.95 171.45 155.5 173.85 142.05 178.5 126.25 185.35 110.05 194.8 93.3 204.05 80.25 208.8 74.75 208.8 65.4 145.4 65.4 145.4 77.1 193.35 77.3 188.5 82.75
M 81.9 93.7
Q 81.9 89.6 83.25 85.5 87.55 73.95 101.05 73.95 109.8 73.95 114.55 79.1 119.35 84.35 119.35 90.9
L 119.35 94.65
Q 117.7 100.75 113.8 105.75
L 105.35 114.7 82.95 134.05 76.65 140.9
Q 70.4 148.35 68.85 153.75
L 67.65 157.85
Q 67.25 158.8 67.25 161.95
L 131.8 161.95 131.8 150.45 83.8 150.45 88.85 144.15 94 139.3 102.95 131.95 113.4 122.55 121.25 114.55 125.9 108.55 127.9 105.4 130.45 99.6
Q 131.25 98.15 131.25 97
L 131.6 91.2
Q 131.6 79.3 123.15 71.7 114.65 64.05 101.25 64.05 86.95 64.05 78.85 71.5 70.75 78.9 69.6 92.15
L 81.9 93.7 Z"/>
</g>
</defs>

<g transform="matrix( 1, 0, 0, 1, -0.6,-1.45) ">
<g transform="matrix( 1, 0, 0, 1, 0,0) ">
<use xlink:href="#Layer0_0_FILL"/>
</g>
</g>
</svg>
