
<svg xmlns="http://www.w3.org/2000/svg" version="1.1" xmlns:xlink="http://www.w3.org/1999/xlink" preserveAspectRatio="none" x="0px" y="0px" width="1725px" height="210px" viewBox="0 0 1725 210">
<defs>
<g id="Symbol_12_2_Layer2_0_FILL">
<path fill="#000000" stroke="none" d="
M 384.15 -28.9
L 376 -34.1 376 33.15 384.15 38.3 384.15 -28.9
M 322.45 -50.3
Q 322.1 -50.3 320.35 -50.2 318.65 -50.05 318.65 -49.7
L 323.2 -40.75
Q 323.9 -41.05 324.3 -41.4 325.1 -41.4 325.85 -41.4 327.05 -41.4 329.1 -40.45 331.15 -39.45 332.2 -37.75 332.73984375 -36.7193359375 335.35 -32.75
L 292.1 -32.75 296.05 -25.15 334.45 -25.15 334.45 -15.9 314.65 -15.9
Q 309.4 -15.9 306.85 -13.3 304.35 -10.65 304.35 -6.2 304.35 -3.8 306.4 -0.05 308.45 3.75 311.9 7.25 309.75 9.4 308.55 12.05 307.3 14.65 307.3 18.25 307.3 27.4 316.95 33.6 324.6 38.65 338.9 42.15
L 339.85 38.85
Q 327.15 34.7 321.1 29.8 315.7 25.35 315.7 20.4 315.7 15.6 320.15 10.9 325.2 5.65 332.15 5.65 335.15 5.65 337.9 7.9 340.65 10.1 340.65 13.2 340.65 19.6 331.95 21.25
L 336.4 28.1
Q 342.7 26.15 345.3 23.25 347.85 20.3 347.85 15.85 347.85 10.1 341.7 4.95 335.5 -0.2 330 -0.2 326.15 -0.2 322.25 0.75 318.35 1.7 314.9 4.15 312.95 2.65 311.65 0.8 310.45 -1.15 310.45 -3.1 310.45 -5.35 312.3 -6.9 314.2 -8.45 316.15 -8.45
L 339.85 -8.45
Q 342.5 -8.45 342.5 -11.1
L 342.5 -25.15 359.75 -25.15 355.65 -32.75 345.1 -32.75
Q 343.9732421875 -35.8822265625 340.2 -44.7 335.7 -55.4 333.55 -58.65 331.35 -61.9 327.75 -63.65 325 -65 322.25 -65 320.15 -65 318.85 -64.9 317.4 -64.8 317.4 -64.3 317.55 -63.95 320.45 -59.05 321.3 -57.45 323.2 -54.35 323.9 -54.7 324.5 -55.15 325.5 -55.15 326.45 -55.15 328.05 -55.15 330.35 -53.55 332.75 -51.95 334.35 -49.45 335.6 -47.25 337.5 -42.55 339.181640625 -38.6400390625 341.5 -32.75
L 338.75 -32.75
Q 337.8953125 -34.355078125 336.65 -36.6 333.05 -43 331.6 -45.15 329.65 -47.9 327.15 -49.1 324.65 -50.3 322.45 -50.3
M 89.9 -32.75
L 93.85 -25.15 106.6 -25.15 106.6 -3.55
Q 106.6 2.3 114.05 8.45 120.9 14.1 125.7 14.1 128.55 14.1 130.4 13.55 132.2 12.95 135.4 11.25
L 135.4 33 143.8 37.7 143.8 6.75
Q 148 3.25 153.6 0.45 159.15 -2.4 161.8 -2.4 164.65 -2.4 166.55 -0.6 168.4 1.1 168.4 4.25 168.4 7.95 166.2 13.05 163.95 18.15 160.6 22.95
L 167.4 29.2
Q 174.5 18 174.5 11.1 174.5 0.85 168.85 -5.25 164.4 -10.05 159.6 -10.05 156.5 -10.05 152 -7.95 147.5 -5.85 143.8 -2.85
L 143.8 -25.15 241.7 -25.15 241.7 -7.9
Q 240.15 -9.35 237.35 -10.7 234.6 -12.1 232.2 -12.1 228.65 -12.1 225.55 -10.05 222.5 -8.05 219.05 -3.35 216.05 -7.05 211.95 -11.15 210.5 -12.55 207.9 -13.55 205.3 -14.5 202.55 -14.5 195.6 -14.5 191.25 -8.75 187.7 -3.95 187.7 1.6 187.7 11.35 196.75 21.75 204.25 30.4 217.05 38.7
L 220.45 34.6
Q 205.9 26.35 200.15 18.65 195.85 12.75 195.85 5.2 195.85 -0.7 199.7 -4.2 202.8 -7.05 206.8 -7.05 209.3 -7.05 212.35 -4.7 215.4 -2.4 217.1 0.25 216.5 1.1 215.65 2.65 214.8 4.2 213.8 6
L 220.45 10.45
Q 225.3 1.1 228.6 -2.15 231.9 -5.35 236.05 -5.35 239.15 -5.35 242.05 -3.35
L 241.7 33 249.85 37.7 249.85 -25.15 260.05 -25.15 256.05 -32.75 89.9 -32.75
M 114.6 -3.3
L 114.6 -25.15 135.75 -25.15 135.75 1.5
Q 133.25 3.4 129.05 5.2 124.8 7 121.8 7 118.35 7 116.5 4.55 114.6 2.1 114.6 -3.3
M -77.2 -32.75
L -73 -25.3 -63.55 -25.3 -63.55 2.15
Q -63.55 7.25 -60 9.85
L -29.35 28.7
Q -26.35 30.85 -26.35 32.1 -26.35 32.9 -26.95 34 -27.5 35.05 -28.35 35.95
L -22.65 41
Q -18.8 35.7 -18.8 33.65 -18.8 32.15 -20.2 30.4 -21.55 28.6 -24.95 26.75
L -53.6 7.7
Q -54.4 7.35 -54.75 5.75
L -54.75 -25.3 -38.25 -25.3 -38.25 -0.8
Q -38.25 1.5 -41.45 1.5
L -47.9 0.95 -44 6.75 -38.2 7.95 -33.45 7.7
Q -29.35 7.35 -29.35 2.9
L -29.35 -25.3 -28.65 -25.3 -28.55 -25.15 13.25 -25.15 13 -2.85
Q 11.4 -5.15 9.7 -7.25 7.95 -9.35 5.9 -11.05 3.85 -12.7 1.05 -13.35 -1.75 -13.9 -5.05 -13.9 -13.55 -13.9 -17.9 -8.3 -20.75 -4.55 -20.75 -0.5 -20.75 7.4 -14.95 13.15 -9.2 18.85 -1.4 18.85 2.65 18.85 6.2 17.15 7.75 16.45 13.25 12.95
L 13.6 33 21.4 37.7 21.4 7.6
Q 25.5 4.15 29.6 1.85 33.75 -0.45 36.05 -0.45 39 -0.45 40.9 1.3 42.75 3 42.75 6.2 42.75 10 40.55 15 38.3 20.05 34.8 24.85
L 41.65 31.1
Q 48.85 20.05 48.85 12.85 48.85 2.8 43.25 -3.3 38.8 -8.1 34 -8.1 30.85 -8.1 27.75 -6.4 25.35 -5.15 21.4 -2.05
L 21.4 -25.15 58.8 -25.15 54.6 -32.75 -77.2 -32.75
M -11.25 -3.75
Q -7.8 -6.5 -3.45 -6.5 2.3 -6.5 5.85 -4.35 9.35 -2.25 13.25 3.15 7.85 7.3 2.85 9.7 -2.2 12.1 -5.85 12.1 -9.6 12.1 -12.15 9.95 -14.65 7.75 -14.65 4.05 -14.65 -0.95 -11.25 -3.75
M -100.5 74.9
Q -100.9 74.5 -101.25 74.1 -101.8 73.7 -102.3 73.35 -103.15 73.1 -104.1 72.8 -246.2 72.8 -388.35 72.8 -388.35 72.95 -388.35 73.1 -389.1 73.1 -389.75 73.1 -390.35 73.35 -390.85 73.6 -391.35 74 -391.85 74.35 -391.85 74.75 -391.85 75.2 -391.85 75.55 -391.85 75.95 -391.7 76.35 -391.55 76.7 -391 77.1 -390.5 77.55 -389.4 77.8 -388.35 78.05 -246.2 78.05 -104.1 78.05 -103.3 77.9 -102.65 77.8 -102.1 77.55 -101.6 77.25 -101.25 76.85 -100.9 76.45 -100.7 76.1 -100.5 75.7 -100.5 75.3 -100.5 74.9 Z"/>
</g>
</defs>

<g transform="matrix( 1, 0, 0, 1, 862.5,105) ">
<g transform="matrix( 1, 0, 0, 1, 0,0) ">
<use xlink:href="#Symbol_12_2_Layer2_0_FILL"/>
</g>
</g>
</svg>
