
<svg xmlns="http://www.w3.org/2000/svg" version="1.1" xmlns:xlink="http://www.w3.org/1999/xlink" preserveAspectRatio="none" x="0px" y="0px" width="1920px" height="1080px" viewBox="0 0 1920 1080">
<defs>
<g id="Symbol_1_0_Layer1_0_FILL">
<path fill="#FFFFFF" stroke="none" d="
M -133.05 -28.85
L -137.8 -24.9
Q -138.85 -23.9 -139.05 -23.6 -139.25 -23.35 -139.4 -22.85
L -133.75 -18.3 -128.5 -23.6 -125.45 -25.95
Q -121 -28.8 -117.3 -28.8 -114.9 -28.8 -112.3 -27.8 -108.2 -25.9 -107.35 -21.9 -106.75 -20.35 -106.75 -17.55 -106.75 -14.5 -108.4 -11.75 -112 -6.2 -118.65 -4.45 -119.35 -4.3 -121.4 -3.85 -123.1 -3.85 -124.9 -3.85
L -122.4 1.5 -120.85 1.5
Q -119.5 0.65 -117.75 0.65
L -115.25 0.65
Q -111.1 0.65 -106.85 2.95 -102.65 5.1 -101.6 9.1 -100.75 10.65 -100.6 11.7 -100.45 12.7 -100.45 15.05 -100.45 17.3 -101.45 19.9 -105.15 28.05 -111.8 28.05 -121.5 28.05 -130.35 14.8
L -133.95 9.45 -138.5 1.5 -144.45 5.4
Q -144.45 9.3 -135 20.35 -129.4 27.05 -123.75 30.4 -120.55 32.25 -117.95 33 -115.25 33.75 -112.2 33.75
L -108.2 33.75
Q -93.25 30.85 -93.25 15.4
L -93.25 12.15 -94.1 8.8 -95.15 6.25 -93.55 7.05 -89 8.3 -83.35 8.3 -79 7.2 -79 40.1 -71.65 40.1 -71.65 -28.8 -61.25 -28.8 -61.25 -34.75 -93.05 -34.75 -93.05 -28.8 -79 -28.8 -79 0.75 -80.95 1.5 -85.95 2.8 -92.7 2.8 -97.55 0.9 -106.15 -3.6 -107.5 -3.85 -108.2 -3.75
Q -99.95 -8.4 -99.95 -17.55 -99.95 -24.55 -104.45 -29.35 -109.8 -34.75 -116.75 -34.75 -125.9 -34.75 -133.05 -28.85
M -491.6 -71.25
L -496.65 -65.75 -466.65 -34.75 -517.2 -34.75 -517.2 -28.8 -468.5 -28.8 -468.5 -15.25 -489.95 -15.25
Q -496.05 -15.25 -500.3 -9.95 -504.45 -4.7 -504.45 2 -504.45 9.8 -501.35 15.05 -498.25 20.2 -491 23.65 -483.85 27.05 -472.4 27.05
L -471.4 27.05 -470.25 26.8 -462.25 43 -452.7 43 -457.3 36.9 -459.8 32.75 -463.4 24.75 -460.2 22.55
Q -457.75 19.9 -457.75 15.3
L -458.3 12.4
Q -459.8 8.95 -462.25 8.05 -463.45 7.3 -464.9 7.3 -469.15 7.3 -471.05 10.1
L -472.4 13
Q -472.4 13.7 -472.4 16.15
L -472.4 17.8
Q -472.4 18.35 -472.4 19.9
L -472.4 20.7 -471.8 21.55 -479.4 21 -484.65 19.8
Q -497.25 15.05 -497.25 1.85
L -496.55 -2.1 -494.2 -5.7
Q -490.45 -9.2 -486.9 -9.2
L -460.2 -9.2 -460.2 -28.8 -415.65 -28.8 -415.65 -8.45 -416.1 -5.7
Q -416.95 -3.25 -419.55 -2.4
L -422.45 -1.95 -425.2 -1.95 -427.55 -3 -428.4 -3.6 -429.35 -4.5 -431.75 -12.85 -438.3 -9.4 -434.2 2.35 -431.75 8.15
Q -428.7 14.95 -423.4 21.75 -415.65 31.4 -405.1 34.3 -401.15 35.45 -394.65 35.45
L -387 34.7 -378.85 32.4 -371.15 29.05 -364.6 24.9 -364.6 40.1 -356.85 40.1 -356.85 -28.8 -302 -28.8 -302 7.3
Q -302 10.1 -305.05 13.1 -310.4 18.5 -315.6 18.5 -317.95 18.5 -320.95 17.5 -328.05 13.9 -328.05 4.75 -328.05 -1.2 -324.6 -5.55 -321.1 -9.9 -315.05 -9.9
L -312.85 -9.9 -310.7 -9.05 -309.95 -8.4 -308.5 -8.05 -308.5 -14.35
Q -309.5 -15 -312.4 -15.35
L -316.35 -15.7 -320.25 -15.25
Q -326.05 -13.9 -330.4 -10.05 -336.35 -4.65 -336.35 4 -336.35 12.55 -329.95 18.3 -323.6 24.05 -315.45 24.05 -307.4 24.05 -302 18.65
L -302 40.1 -294.4 40.1 -294.4 9.1
Q -294.4 6.8 -293.3 3.65 -291.65 0.15 -290.1 -2.05 -285 -8.4 -279.05 -8.4 -272.1 -8.4 -269.5 -3.3 -268.1 -0.35 -268.1 3.8 -268.1 6.7 -269.65 10.7 -272.95 18.2 -279.05 24.3 -280.4 25.6 -281.4 25.95
L -275.15 30.7 -267.6 22
Q -260.1 12.55 -260.1 4.35 -260.1 -3.8 -265.75 -8.8 -271.85 -14.35 -279.9 -14.35 -285.55 -14.35 -290.1 -10.8
L -294.4 -6.9 -294.4 -28.8 -216.8 -28.8 -216.8 -10.5
Q -217.65 -5.3 -219.9 -3.25 -222.2 -1.1 -226.9 -1.1 -232.85 -1.1 -235.2 -4.7
L -241.15 -14.85 -247.1 -10.5 -236.9 6.9 -232.45 13.55
Q -225.5 24.05 -218.35 32.25 -212.4 39.4 -210.2 40.1
L -204.9 35.15 -215.6 23.75 -219.7 18.65 -230.1 3.7
Q -229.55 4.15 -227.5 4.4
L -224.75 4.4
Q -221.85 4.4 -218.9 3.45 -209.1 -0.45 -209.1 -9.9
L -209.1 -28.8 -197.45 -28.8 -197.45 -34.75 -461.85 -34.75 -491.6 -71.25
M -408.3 -8.05
L -408.3 -28.8 -364.6 -28.8 -364.6 -0.8
Q -365.95 1.35 -367.1 2.5 -371 6.45 -374.95 6.9 -376.5 7.45 -379.15 7.45
L -382.9 6.9
Q -388.7 4.7 -388.7 -2.25 -388.7 -5 -388 -6.85 -385.65 -11.35 -381.9 -11.8 -380.4 -12.5 -377.5 -12.5
L -373.9 -12.1 -370.55 -11.25 -372.35 -16.45 -375.65 -17.6 -378.85 -18.05 -382.15 -18.05
Q -388.1 -16.7 -392.1 -12.3 -396.05 -7.85 -396.05 -2.15 -396.05 1.15 -394.9 4.35 -389.7 13.7 -379.4 13.7
L -376.95 13.7 -374.3 13.1 -368.85 10.8 -366.95 9.65 -364.6 7.75 -364.6 17.3
Q -366.65 19.35 -370.4 21.85
L -379 26.15
Q -383.15 28.05 -386.65 28.75 -390.05 29.5 -394.05 29.5 -401.45 29.5 -408.35 26.1 -415.25 22.7 -419.15 16.45
L -422.6 11.05 -426.15 3.45 -419.5 2.95 -414.25 1.5
Q -408.3 -1.55 -408.3 -8.05
M -611.35 -15.25
Q -613.3 -15.25 -615.8 -14.4
L -635.7 -6.65 -640.15 -4.15 -635.7 1.65 -626 -3.45
Q -617.4 -7.9 -612.05 -7.9 -608.55 -7.9 -600.1 0.4
L -591.8 8.3 -627.7 27.05 -623.15 33.65 -588.55 13 -588.55 39.95 -581.05 40.1 -581.05 -28.8 -570.55 -28.8 -570.55 -34.75 -670.7 -34.75 -679.1 -43.15 -689.55 -51.85
Q -694 -55.5 -699.65 -58.95 -713.4 -67.4 -724.35 -67.4 -729.05 -67.4 -733.5 -65.75 -739.7 -63.15 -743.6 -57.75 -745.65 -55 -746.3 -52.35 -746.95 -49.75 -746.95 -45.8
L -746.95 -43.5 -744.7 -34.6 -757.85 -34.6 -757.85 -28.8 -745.1 -28.8 -745.1 40.1 -737.4 40.1 -737.4 -28.8 -665.4 -28.8 -665.4 1.65
Q -665.4 3.55 -669.25 7.75
L -672.3 10.65
Q -681.05 18.8 -689.4 18.8
L -693.4 18.2
Q -699.1 15.75 -699.1 8.5 -699.1 1.85 -692 -3.95
L -684.9 -9.2 -675.2 -9.2 -675.2 -15.1 -719.45 -15.1 -719.45 -9.2 -695.7 -9.05
Q -697.8 -7.75 -699.45 -6.15 -706.65 1.1 -706.65 8.8 -706.65 12.4 -705.3 15.55 -703.9 18.65 -701.7 20.55 -696.95 24.75 -689.75 24.75 -685.9 24.75 -681.6 22.95 -675.8 20.7 -672.9 18.35
L -667.7 14.1 -665.4 11.2 -665.4 40.1 -657.65 40.1 -657.65 -28.8 -588.55 -28.8 -588.55 3.85 -598.8 -7
Q -607.1 -15.25 -611.35 -15.25
M -739 -51.6
Q -735.95 -58.25 -730.75 -60 -728.4 -61.15 -724.95 -61.15 -720.75 -61.15 -714.95 -59.15 -709.15 -57.25 -704.6 -54.2
L -692.55 -45.9
Q -690 -44 -687.4 -41.4
L -680.25 -34.75 -726.55 -34.75 -726.55 -34.6 -737.4 -34.6 -738.1 -35.75 -740 -41.8 -740 -44.7
Q -740 -48 -739 -51.6
M 322.75 -58.95
Q 309 -67.4 298.05 -67.4 293.35 -67.4 288.9 -65.75 282.7 -63.15 278.8 -57.75 276.75 -55 276.1 -52.35 275.45 -49.75 275.45 -45.8
L 275.45 -43.5 277.7 -34.6 264.55 -34.6 264.55 -28.8 277.3 -28.8 277.3 40.1 285 40.1 285 -28.8 314.25 -28.8 314.25 -2.95 308.05 -2.95 306.55 -2.5 305.85 -2.15
Q 304.85 -1.6 304.3 -0.8
L 303.85 1.1
Q 304 3 305.25 4.85 310.1 10.95 312.65 13.55 316.3 17.3 318.45 17.3
L 320.4 17 321.6 16.15 321.6 3.55 348.15 3.55 348.15 40.1 355.75 40.1 355.75 -28.8 433.1 -28.8 433.1 -9.65 429.8 -9.65 422.85 -7.4 420.8 -6.15 415.65 -2.25
Q 415.5 -3.25 414.15 -4.15
L 410.25 -7.2
Q 407.35 -9.45 403.75 -10.4 401.1 -11.35 399.4 -11.45 397.65 -11.5 396.35 -11.5 386.95 -11.5 381 -5.9 375.05 -0.35 375.05 8.5 375.05 18.8 383.85 28.05 396 40.65 403.4 40.65
L 407 34.6 399.65 31.1 394.6 27.9
Q 382.15 19.9 382.15 9.1 382.15 4 386.05 -1.1 388.5 -3.35 390.35 -4.2 392.1 -5 392.95 -5.15 393.75 -5.3 395.75 -5.3
L 400.25 -4.6 405.2 -2.5
Q 410.65 -0.2 411.6 2.6
L 410.65 4.7 406.8 11.05 406.8 12.85 413 16.45 414.15 13.1 418.55 5.4 420.95 2.5 423 0.65 424.9 -0.7 429.35 -2.8 433.1 -3.85 433.1 40.1 440.7 40.1 440.7 -28.8 464.4 -28.8 464.4 40.1 472.15 40.1 472.15 -28.8 536.5 -28.8 536.5 -8.75 494.95 -8.75 493.65 -8.35
Q 491.3 -6.5 491.3 -3.95 491.75 -2.25 493.1 -0.05 495.5 3.85 497.7 6.35
L 503.05 11.9
Q 505.4 13.85 506.25 13.85
L 507.95 13.85
Q 509.15 12.7 509.3 12.4 509.45 12.2 509.45 11.5
L 509.45 -2.95 536.5 -2.95 536.5 40.1 544.2 40.1 544.2 -28.8 556.1 -28.8 556.1 -34.75 351.7 -34.75 343.3 -43.15 332.85 -51.85
Q 328.4 -55.5 322.75 -58.95
M 291.65 -60
Q 294 -61.15 297.45 -61.15 301.65 -61.15 307.45 -59.15 313.25 -57.25 317.8 -54.2
L 329.85 -45.9
Q 332.4 -44 335 -41.4
L 342.15 -34.75 295.85 -34.75 295.85 -34.6 285 -34.6 284.3 -35.75 282.4 -41.8 282.4 -44.7
Q 282.4 -48 283.4 -51.6 286.45 -58.25 291.65 -60
M 321.6 -2.95
L 321.6 -28.8 348.15 -28.8 348.15 -2.95 321.6 -2.95
M 122.5 -34.75
L 122.5 -28.8 156.7 -28.8 156.7 -3.5 155.7 -1.45
Q 155.05 -0.45 153.8 -0.05
L 150.5 0.4
Q 144.5 0.4 141.9 -4.7
L 137.65 -12.85 131.35 -8.8 140.6 7.05 158.3 32.75
Q 162.65 39.25 165.25 40.1
L 171.1 35.15 161.2 24.15 157.3 19.05 148.35 5.5
Q 149.45 6.05 150.4 6.05
L 152 6.2 153.4 5.95
Q 153.9 5.5 155.2 5.5
L 158.3 4.65
Q 162.25 2.85 163.2 -0.1
L 164.05 -3.3 164.05 -28.8 191.3 -28.8 191.3 -3.5 165.8 -3.5 170.9 2.45 191.3 2.45 191.3 40.1 199 40.1 199 -28.8 210.9 -28.8 210.9 -34.75 196.75 -34.75 167 -71.25 161.95 -65.75 191.95 -34.75 122.5 -34.75
M 33.7 -4.7
L 27.75 -14.85 21.8 -10.5 32 6.9 36.45 13.55
Q 43.4 24.05 50.55 32.25 56.5 39.4 58.7 40.1
L 64 35.15 53.3 23.75 49.2 18.65 38.8 3.7
Q 39.35 4.15 41.4 4.4
L 44.15 4.4
Q 47.05 4.4 50 3.45 59.8 -0.45 59.8 -9.9
L 59.8 -28.8 71.45 -28.8 71.45 -34.75 -19 -34.75 -19 -28.8 -3.35 -28.8 -3.35 -9.15
Q -5.35 -7.75 -7.4 -7.1
L -11.65 -5.65
Q -13.2 -4.85 -16.1 -4.85
L -27 -4.85 -32.85 -5.7 -34.1 -6.35 -31.05 -8.4 -26.6 -12.8
Q -23.85 -16.6 -23.85 -20.6 -23.85 -27.5 -28.85 -31.15 -33.8 -34.75 -40.2 -34.75 -46.65 -34.75 -50.95 -31.25 -55.25 -27.75 -55.25 -21.65
L -54.7 -17.3
Q -53.7 -14.4 -52.85 -12.95
L -49.95 -8.4
Q -48.05 -6.55 -47.05 -6.05
L -53.55 -1.3
Q -56.9 2.1 -58.45 4.9 -60.1 7.75 -60.1 11.2 -60.1 14.8 -58.6 19.2 -54.7 26.65 -47.5 29.25 -44.7 30.1 -43.35 30.35 -42.1 30.55 -39.35 30.55
L -37.3 30.55 -33.6 29.75 -32.1 29.2 -31.55 30.95 -28.65 36.75 -25.3 39.7 -23.85 40.65 -17.9 36.35 -20.95 34.15 -25.1 30 -26.75 27.2 -24.25 26.5 -22.55 25 -21.5 23.2 -21.05 20.7 -21.65 17.8 -23.15 15.3
Q -24.55 13.85 -25.6 13.4
L -28.65 13 -31.55 13.55
Q -32.4 13.75 -33.45 14.9
L -34.75 17.3 -35.15 20.9 -35.15 23.3 -34.9 23.9 -43.5 23.45 -47.4 21.85
Q -50.05 20.3 -50.95 18.45 -52.35 15.65 -52.35 12.05 -52.35 6.25 -47 1.25
L -43.65 -1.25
Q -42.25 -2.25 -41.3 -2.25
L -34.4 -0.2 -27.45 1.25 -16.25 1.25 -11.8 0.5 -7.75 -0.7 -3.35 -2.65 -3.35 40.1 4.4 40.1 4.4 -28.8 52.1 -28.8 52.1 -10.5
Q 51.25 -5.3 49 -3.25 46.7 -1.1 42 -1.1 36.05 -1.1 33.7 -4.7
M -45.55 -26.75
L -42.95 -28.1
Q -41.8 -28.65 -39.85 -28.65
L -36.8 -28.1 -34.05 -26.6
Q -32.55 -25.3 -32.1 -24.2 -31.55 -23 -31.55 -21.45 -31.55 -15.5 -36.3 -12
L -38.35 -10.8
Q -39.2 -10.1 -41.1 -9.65
L -43.3 -11.25 -44.6 -12.7
Q -47.9 -16.45 -47.9 -21.45
L -47.35 -24.45
Q -46.75 -25.9 -45.55 -26.75
M 742.05 -50.95
L 752.05 -50.95 752.05 -60.35 742.05 -60.35 742.05 -50.95
M 713.2 -71.25
L 708.15 -65.75 738.15 -34.75 609.05 -34.75 609.05 -28.8 653.3 -28.8 653.3 7.3
Q 653.3 10.1 650.25 13.1 644.9 18.5 639.7 18.5 637.35 18.5 634.35 17.5 627.25 13.9 627.25 4.75 627.25 -1.2 630.7 -5.55 634.2 -9.9 640.25 -9.9
L 642.45 -9.9 644.6 -9.05 645.35 -8.4 646.8 -8.05 646.8 -14.35
Q 645.8 -15 642.9 -15.35
L 638.95 -15.7 635.05 -15.25
Q 629.25 -13.9 624.9 -10.05 618.95 -4.65 618.95 4 618.95 12.55 625.35 18.3 631.7 24.05 639.85 24.05 647.9 24.05 653.3 18.65
L 653.3 40.1 660.9 40.1 660.9 9.1
Q 660.9 6.8 662 3.65 663.65 0.15 665.2 -2.05 670.3 -8.4 676.25 -8.4 683.2 -8.4 685.8 -3.3 687.2 -0.35 687.2 3.8 687.2 6.7 685.65 10.7 682.35 18.2 676.25 24.3 674.9 25.6 673.9 25.95
L 680.15 30.7 687.7 22
Q 695.2 12.55 695.2 4.35 695.2 -3.8 689.55 -8.8 683.45 -14.35 675.4 -14.35 669.75 -14.35 665.2 -10.8
L 660.9 -6.9 660.9 -28.8 738.5 -28.8 738.5 -10.5
Q 737.65 -5.3 735.4 -3.25 733.1 -1.1 728.4 -1.1 722.45 -1.1 720.1 -4.7
L 714.15 -14.85 708.2 -10.5 718.4 6.9 722.85 13.55
Q 729.8 24.05 736.95 32.25 742.9 39.4 745.1 40.1
L 750.4 35.15 739.7 23.75 735.6 18.65 725.2 3.7
Q 725.75 4.15 727.8 4.4
L 730.55 4.4
Q 733.45 4.4 736.4 3.45 746.2 -0.45 746.2 -9.9
L 746.2 -28.8 757.85 -28.8 757.85 -34.75 742.95 -34.75 713.2 -71.25 Z"/>
</g>
</defs>

<g transform="matrix( 1, 0, 0, 1, 960,540) ">
<g transform="matrix( 1, 0, 0, 1, 0,0) ">
<use xlink:href="#Symbol_1_0_Layer1_0_FILL"/>
</g>
</g>
</svg>
