
<svg xmlns="http://www.w3.org/2000/svg" version="1.1" xmlns:xlink="http://www.w3.org/1999/xlink" preserveAspectRatio="none" x="0px" y="0px" width="278px" height="216px" viewBox="0 0 278 216">
<defs>
<g id="Symbol_4_2_Layer0_0_FILL">
<path fill="#000000" stroke="none" d="
M 173.65 69.3
L 189.65 69.3 189.65 61.3 91 61.3 91 69.3 163.25 69.3 163.25 96.25 107.4 96.25 105.65 96.8
Q 102.5 99.3 102.5 102.75 103.1 105 104.9 107.95 108.15 113.2 111.1 116.55
L 118.35 124.05
Q 121.45 126.65 122.6 126.65
L 124.9 126.65
Q 126.5 125.1 126.7 124.7 126.9 124.45 126.9 123.5
L 126.9 104.05 163.25 104.05 163.25 161.95 173.65 161.95 173.65 69.3 Z"/>
</g>
</defs>

<g transform="matrix( 1, 0, 0, 1, -0.6,-1.45) ">
<g transform="matrix( 1, 0, 0, 1, 0,0) ">
<use xlink:href="#Symbol_4_2_Layer0_0_FILL"/>
</g>
</g>
</svg>
