
<svg xmlns="http://www.w3.org/2000/svg" version="1.1" xmlns:xlink="http://www.w3.org/1999/xlink" preserveAspectRatio="none" x="0px" y="0px" width="278px" height="216px" viewBox="0 0 278 216">
<defs>
<g id="Symbol_4_3_Layer0_0_FILL">
<path fill="#000000" stroke="none" d="
M 200.95 73.5
Q 193.25 66.8 181.2 66.8 165.1 66.8 155.6 78.45 144.7 91.85 144.7 121.35 144.7 147.75 154.55 159.3 164.4 170.75 180.05 170.75 189.2 170.75 196.45 166.35 203.65 162 207.8 153.8 211.9 145.55 211.9 135.95 211.9 121.35 203.15 112.2 194.35 102.95 181.85 102.95 174.7 102.95 168.15 106.3 161.65 109.65 157.15 116.5 157.25 101.2 160.65 92.95 164.05 84.7 169.95 80.4 174.5 77.05 180.45 77.05 187.9 77.05 192.95 82.4 196 85.75 197.7 93.1
L 210.1 92.15
Q 208.6 80.25 200.95 73.5
M 164.95 120.1
Q 170.9 114 179.35 114 187.9 114 193.5 120.1 199.15 126.15 199.15 136.7 199.15 147.7 193.45 154.05 187.75 160.45 179.85 160.45 174.4 160.45 169.5 157.4 164.55 154.3 161.85 148.4 159.05 142.45 159.05 136 159.05 126.15 164.95 120.1
M 85.25 82.55
Q 90.65 77.15 99.7 77.15 108.25 77.15 113.6 82.25 118.85 87.35 118.85 94.75 118.85 101.85 113.05 109.85 107.2 117.75 90.6 131.35 79.9 140.1 74.3 146.8 68.6 153.45 66 160.3 64.4 164.5 64.55 169
L 131.85 169 131.85 157 81.9 157
Q 84 153.6 87.2 150.25 90.4 146.85 101.65 137.4 115.1 126 120.95 119.5 126.7 112.95 129.2 107.05 131.7 101.15 131.7 95.05 131.7 83.05 123.15 74.9 114.6 66.8 99.95 66.8 85.45 66.8 76.85 74.35 68.25 81.85 66.9 96.2
L 79.75 97.55
Q 79.85 87.95 85.25 82.55 Z"/>
</g>
</defs>

<g transform="matrix( 1.1142425537109375, 0, 0, 1.1142425537109375, -19.55,-28.5) ">
<g transform="matrix( 1, 0, 0, 1, 0,0) ">
<use xlink:href="#Symbol_4_3_Layer0_0_FILL"/>
</g>
</g>
</svg>
