
<svg xmlns="http://www.w3.org/2000/svg" version="1.1" xmlns:xlink="http://www.w3.org/1999/xlink" preserveAspectRatio="none" x="0px" y="0px" width="217px" height="217px" viewBox="0 0 217 217">
<defs>
<g id="Symbol_76_6_Layer2_0_FILL">
<path fill="#FFFFFF" stroke="none" d="
M 3.45 -35.3
L 18.75 -35.3 18.75 37.3 28.5 43.3 28.5 -35.3 41.4 -35.3 36.25 -44.75 -33.6 -44.75 -28.5 -35.3 -6.6 -35.3 -6.6 -9.8
Q -6.6 -7.95 -7.75 -7.95
L -15.45 -7.95
Q -16.3 -7.95 -17.4 -6.85 -18.45 -5.7 -18.45 -4.4 -18.45 -0.8 -12.3 5.5 -10.95 6.9 -7.8 10.05 -3.7 13.8 -2.4 13.8 0 13.8 1.7 11.9 3.45 10.05 3.45 7.5
L 3.45 -35.3 Z"/>
</g>

<g id="Symbol_76_6_Layer1_0_FILL">
<path fill="#000000" stroke="none" d="
M 37.95 -35.35
L 32.8 -44.8 -37.05 -44.8 -31.95 -35.35 -10.05 -35.35 -10.05 -9.85
Q -10.05 -8 -11.2 -8
L -18.9 -8
Q -19.75 -8 -20.85 -6.9 -21.9 -5.75 -21.9 -4.45 -21.9 -0.85 -15.75 5.45 -14.4 6.85 -11.25 10 -7.15 13.75 -5.85 13.75 -3.45 13.75 -1.75 11.85 0 10 0 7.45
L 0 -35.35 15.3 -35.35 15.3 37.25 25.05 43.25 25.05 -35.35 37.95 -35.35 Z"/>
</g>
</defs>

<g transform="matrix( 1.18182373046875, 0, 0, 1.18182373046875, 105.95,107.2) ">
<g transform="matrix( 1, 0, 0, 1, 0,0) ">
<use xlink:href="#Symbol_76_6_Layer2_0_FILL"/>
</g>

<g transform="matrix( 1, 0, 0, 1, 0,0) ">
<use xlink:href="#Symbol_76_6_Layer1_0_FILL"/>
</g>
</g>
</svg>
