
<svg xmlns="http://www.w3.org/2000/svg" version="1.1" xmlns:xlink="http://www.w3.org/1999/xlink" preserveAspectRatio="none" x="0px" y="0px" width="1355px" height="357px" viewBox="0 0 1355 357">
<defs>
<radialGradient id="Gradient_1" gradientUnits="userSpaceOnUse" cx="0" cy="0" r="0" fx="0" fy="0" gradientTransform="matrix( NaN, NaN, NaN, NaN, 0,0) " spreadMethod="pad">
<stop  offset="25.098039215686274%" stop-color="#FFFFFF"/>

<stop  offset="37.64705882352941%" stop-color="#F7F8F8"/>

<stop  offset="54.11764705882353%" stop-color="#EAEAEB"/>

<stop  offset="72.54901960784314%" stop-color="#D4D5D7"/>

<stop  offset="92.94117647058823%" stop-color="#B6B8BA"/>

<stop  offset="100%" stop-color="#AAACAE"/>
</radialGradient>

<radialGradient id="Gradient_2" gradientUnits="userSpaceOnUse" cx="0" cy="0" r="187.48751041736088" fx="0" fy="0" gradientTransform="matrix( -0.00033335553851491465, -0.9999999444370409, -6.052269815061384, 0.0010000666155447438, -37.95,-45.9) " spreadMethod="pad">
<stop  offset="25.098039215686274%" stop-color="#FFFFFF"/>

<stop  offset="37.64705882352941%" stop-color="#F7F8F8"/>

<stop  offset="54.11764705882353%" stop-color="#EAEAEB"/>

<stop  offset="72.54901960784314%" stop-color="#D4D5D7"/>

<stop  offset="92.94117647058823%" stop-color="#B6B8BA"/>

<stop  offset="100%" stop-color="#AAACAE"/>
</radialGradient>

<radialGradient id="Gradient_3" gradientUnits="userSpaceOnUse" cx="0" cy="0" r="2094.4875" fx="0" fy="0" gradientTransform="matrix( 0.9999999999999999, 0, 0, -0.14203952040773696, 185.65,-92.15) " spreadMethod="pad">
<stop  offset="25.098039215686274%" stop-color="#FFFFFF"/>

<stop  offset="37.64705882352941%" stop-color="#F7F8F8"/>

<stop  offset="54.11764705882353%" stop-color="#EAEAEB"/>

<stop  offset="72.54901960784314%" stop-color="#D4D5D7"/>

<stop  offset="92.94117647058823%" stop-color="#B6B8BA"/>

<stop  offset="100%" stop-color="#AAACAE"/>
</radialGradient>

<radialGradient id="Gradient_4" gradientUnits="userSpaceOnUse" cx="0" cy="0" r="386.3125" fx="0" fy="0" gradientTransform="matrix( 0, -1, 3.619867335382624, 0, -66.3,113.15) " spreadMethod="pad">
<stop  offset="34.90196078431372%" stop-color="#FDF2DE"/>

<stop  offset="85.09803921568627%" stop-color="#F4E2DB"/>
</radialGradient>

<filter id="Filter_1" x="-20%" y="-20%" width="140%" height="140%" color-interpolation-filters="sRGB">
<feFlood flood-color="#000000" flood-opacity="1" in="SourceGraphic" result="result1"/>

<feComposite in2="SourceGraphic" in="result1" operator="in" result="result2"/>

<feGaussianBlur in="result2" stdDeviation="1.3333333333333333,1.3333333333333333" result="result3"/>

<feOffset dx="2.8284271247461903" dy="2.8284271247461903" in="result3" result="result4"/>

<feComposite in2="result4" in="SourceGraphic" operator="over" result="result5"/>
</filter>

<g id="Duplicate_Items_Folder_Symbol_11_copy_0_Layer0_0_FILL">
<path fill="#FFFFFF" stroke="none" d="
M 656.4 -124.45
Q 656.4 -133.95 651.45 -141.6 649.3 -144.9 646.2 -147.85 635.8 -157.5 621.35 -157.5
L -621.35 -157.5
Q -633.45 -157.5 -642.6 -150.75 -644.4 -149.45 -646.1 -147.85 -656.4 -138.2 -656.4 -124.45
L -656.4 124.45
Q -656.4 127.05 -656.05 129.35 -655.5 133.75 -653.55 137.7 -651.1 143.25 -646.1 147.85 -635.9 157.5 -621.35 157.5
L 621.35 157.5
Q 635.8 157.5 646.2 147.85 650.65 143.55 653.25 138.5
L 656.1 128.5
Q 656.4 126.55 656.4 124.45
L 656.4 -124.45 Z"/>
</g>

<g id="Duplicate_Items_Folder_Symbol_8_copy_2_0_Layer0_1_FILL">
<path fill="url(#Gradient_1)" stroke="none" d="
M 621.35 120
Q 627.69609375 119.8361328125 633.25 118.9
L -609.1 114.3
Q -669.24140625 117.2236328125 -670.4 62.7
L -670.4 72.95
Q -667.6486328125 116.1337890625 -621.35 120
L 621.35 120 Z"/>

<path fill="url(#Gradient_2)" stroke="none" d="
M 670.4 -175.95
Q 667.332421875 -220.932421875 621.35 -223
L -621.35 -223
Q -660.75390625 -219.4642578125 -668.6 -188.65 -670.0548828125 -182.788671875 -670.4 -175.95
L -670.4 62.7
Q -669.24140625 117.2236328125 -609.1 114.3
L 633.25 118.9
Q 634.3427734375 118.7552734375 635.4 118.55 654.6607421875 114.4986328125 663.3 100.75 670.17890625 89.9109375 670.4 72.95
L 670.4 -175.95 Z"/>

<path fill="url(#Gradient_3)" stroke="none" d="
M 674.9 -185.15
Q 669.66875 -223.3806640625 629.5 -227.95
L -612.7 -227.95
Q -662.8978515625 -227.73125 -668.6 -188.65 -660.75390625 -219.4642578125 -621.35 -223
L 621.35 -223
Q 667.332421875 -220.932421875 670.4 -175.95
L 670.4 72.95
Q 670.17890625 89.9109375 663.3 100.75 654.6607421875 114.4986328125 635.4 118.55 673.0099609375 111.790625 674.9 69.35
L 674.9 -185.15 Z"/>
</g>

<g id="Duplicate_Items_Folder_Symbol_1_copy_3_0_Layer0_0_FILL">
<path fill="url(#Gradient_4)" stroke="none" d="
M 656.4 -124.45
Q 656.4 -133.95 651.45 -141.6 649.3 -144.9 646.2 -147.85 635.8 -157.5 621.35 -157.5
L -621.35 -157.5
Q -633.45 -157.5 -642.6 -150.75 -644.4 -149.45 -646.1 -147.85 -656.4 -138.2 -656.4 -124.45
L -656.4 124.45
Q -656.4 127.05 -656.05 129.35 -655.5 133.75 -653.55 137.7 -651.1 143.25 -646.1 147.85 -635.9 157.5 -621.35 157.5
L 621.35 157.5
Q 635.8 157.5 646.2 147.85 650.65 143.55 653.25 138.5
L 656.1 128.5
Q 656.4 126.55 656.4 124.45
L 656.4 -124.45 Z"/>
</g>

<g id="Duplicate_Items_Folder_Symbol_8_copy_2_0_Layer0_3_FILL">
<path fill="#2573B4" stroke="none" d="
M 656.25 15.05
Q 656 14.85 655.7 14.85
L -655.6 14.85
Q -655.9 14.85 -656.15 15.05 -656.35 15.2 -656.35 15.45 -656.35 15.7 -656.15 15.9 -655.9 16.05 -655.6 16.05
L 655.7 16.05
Q 656 16.05 656.25 15.9 656.5 15.7 656.5 15.45 656.5 15.2 656.25 15.05 Z"/>
</g>

<g id="Duplicate_Items_Folder_Symbol_8_copy_2_0_Layer0_4_FILL">
<path fill="#2573B4" stroke="none" d="
M 656.25 -107.35
Q 656 -107.55 655.7 -107.55
L -655.6 -107.55
Q -655.9 -107.55 -656.15 -107.35 -656.35 -107.2 -656.35 -106.95 -656.35 -106.7 -656.15 -106.5 -655.9 -106.35 -655.6 -106.35
L 655.7 -106.35
Q 656 -106.35 656.25 -106.5 656.5 -106.7 656.5 -106.95 656.5 -107.2 656.25 -107.35 Z"/>
</g>

<g id="Symbol_2_0_Layer1_0_FILL">
<path fill="#000000" stroke="none" d="
M 445.2 -34.25
L 436.7 -39.6 436.7 30.4 445.2 35.75 445.2 -34.25
M 380.9 -56.5
Q 380.5 -56.5 378.7 -56.4 376.9 -56.3 376.9 -55.9
L 381.7 -46.6
Q 382.4 -46.9 382.8 -47.25 383.65 -47.25 384.45 -47.25 385.65 -47.25 387.8 -46.25 389.9 -45.25 391 -43.45 391.6423828125 -42.3630859375 394.35 -38.2
L 349.25 -38.2 353.4 -30.35 393.4 -30.35 393.4 -20.7 372.75 -20.7
Q 367.25 -20.7 364.65 -17.95 362 -15.2 362 -10.55 362 -8.05 364.15 -4.15 366.3 -0.2 369.9 3.4 367.65 5.65 366.4 8.4 365.15 11.15 365.15 14.9 365.15 24.4 375.15 30.9 383.15 36.15 398.05 39.8
L 399 36.35
Q 385.75 32.05 379.5 26.9 373.85 22.25 373.85 17.15 373.85 12.15 378.5 7.25 383.75 1.75 391 1.75 394.15 1.75 397 4.1 399.85 6.4 399.85 9.65 399.85 16.3 390.75 18
L 395.4 25.15
Q 402 23.15 404.7 20.05 407.35 17 407.35 12.4 407.35 6.4 400.95 1.05 394.5 -4.35 388.75 -4.35 384.75 -4.35 380.7 -3.35 376.6 -2.35 373 0.2 371 -1.35 369.65 -3.3 368.35 -5.3 368.35 -7.35 368.35 -9.7 370.3 -11.3 372.3 -12.95 374.35 -12.95
L 399 -12.95
Q 401.75 -12.95 401.75 -15.7
L 401.75 -30.35 419.75 -30.35 415.5 -38.2 404.45 -38.2
Q 403.3236328125 -41.4396484375 399.4 -50.65 394.7 -61.85 392.45 -65.2 390.15 -68.6 386.4 -70.45 383.5 -71.85 380.65 -71.85 378.5 -71.85 377.1 -71.7 375.65 -71.6 375.65 -71.1 375.75 -70.75 378.8 -65.6 379.65 -63.95 381.7 -60.75 382.4 -61.1 383.05 -61.6 384.05 -61.6 385.05 -61.6 386.7 -61.6 389.15 -59.9 391.65 -58.25 393.3 -55.6 394.55 -53.35 396.6 -48.45 398.3298828125 -44.357421875 400.7 -38.2
L 397.85 -38.2
Q 396.982421875 -39.8873046875 395.65 -42.25 391.95 -48.9 390.4 -51.15 388.4 -54 385.75 -55.25 383.15 -56.5 380.9 -56.5
M 22.6 -54.2
Q 22.6 -52.6 23.7 -49.75 24.85 -46.8 25.75 -45.95
L 28.85 -47.15
Q 28.85 -60.5 37.45 -60.5 43.6 -60.5 48.25 -55.25 53.4 -49.3 54.95 -38.2
L -50.25 -38.2 -45.9 -30.35 -2.35 -30.35 -2.6 -7.1
Q -4.25 -9.45 -6 -11.65 -7.85 -13.85 -10 -15.65 -12.15 -17.35 -15.05 -18 -18 -18.6 -21.4 -18.6 -30.25 -18.6 -34.75 -12.75 -37.75 -8.85 -37.75 -4.65 -37.75 3.6 -31.7 9.6 -25.75 15.5 -17.6 15.5 -13.4 15.5 -9.7 13.75 -8.1 13 -2.35 9.4
L -2 30.25 6.1 35.15 6.1 3.8
Q 10.4 0.2 14.65 -2.2 19 -4.6 21.4 -4.6 24.5 -4.6 26.45 -2.75 28.4 -1 28.4 2.3 28.4 6.3 26.1 11.55 23.75 16.8 20.1 21.8
L 27.25 28.25
Q 34.75 16.8 34.75 9.25 34.75 -1.25 28.9 -7.55 24.25 -12.6 19.25 -12.6 16 -12.6 12.8 -10.8 10.25 -9.45 6.1 -6.25
L 6.1 -30.35 53.25 -30.35 53.25 30.25 61.5 35.15 61.5 -30.35 74.6 -30.35 70.35 -38.2 59.25 -38.2
Q 57.2 -53.25 51 -61.1 45.25 -68.35 37 -68.35 30.75 -68.35 26.7 -64.5 22.6 -60.75 22.6 -54.2
M -10.05 -8.65
Q -6.4 -6.5 -2.35 -0.85 -7.95 3.45 -13.15 6 -18.4 8.5 -22.25 8.5 -26.15 8.5 -28.8 6.2 -31.4 3.95 -31.4 0.1 -31.4 -5.15 -27.85 -8 -24.25 -10.85 -19.75 -10.85 -13.75 -10.85 -10.05 -8.65
M 120.65 -30.35
L 120.65 -27.25
Q 120.65 -24.5 123.05 -21.35 126.15 -17.2 132.75 -13.2 127.9 -10.45 126.25 -8 124.5 -5.5 124.5 -1.85 124.5 4.75 131.55 10.25 138 15.35 144.9 15.35 151.45 15.35 156.5 13.1 160.6623046875 11.2455078125 165.3 6.6
L 165.3 30.25 173.65 35.15 173.65 -30.35 202.6 -30.35
Q 202.6 -29.5 203 -27.35 203.1 -25.7 203.1 -22 203.1 -10.75 202.65 -7.55 202.25 -4.35 201.35 -4.35 200.7 -4.35 197 -6.4 193.2 -8.5 192.6 -8.5 191.1 -8.5 189.85 -6.85 188.55 -5.25 188.55 -3.6 188.55 -2.4 189.75 -0.25 191.3 2.75 194.85 7.15 199.55 12.95 206.95 21.05 214.35 29.15 221.1 36.2
L 224.95 31.65
Q 219.35 26.05 213.7 20.45 202.35 8.9 202.35 7.95 202.35 7 203.05 6.35 203.7 5.65 206.6 3.8 208.45 2.7 210 -0.25 211.6 -3.2 211.6 -6.25
L 211.6 -30.35 266.45 -30.35 266.45 -11.85 240.7 -11.85
Q 235.1 -11.85 233.1 -10.95 231.05 -9.95 231.05 -7.7 231.05 -5.75 235.85 1.1 240.65 7.95 242.55 7.95 243.6 7.95 244.3 7.25 245.1 6.5 245.1 4.95
L 245.1 -2.55
Q 245.1 -3.5 245.8 -3.75 246.45 -3.95 248.2 -3.95
L 266.45 -3.95 266.45 30.25 274.95 35.15 274.95 -30.35 294.6 -30.35 294.6 30.25 302.85 35.15 302.85 -30.35 315.95 -30.35 311.7 -38.2 300.6 -38.2
Q 298.55 -53.25 292.35 -61.1 286.6 -68.35 278.35 -68.35 272.1 -68.35 268.05 -64.5 263.95 -60.75 263.95 -54.2 263.95 -52.6 265.05 -49.75 266.2 -46.8 267.1 -45.95
L 270.2 -47.15
Q 270.2 -60.5 278.8 -60.5 284.95 -60.5 289.6 -55.25 294.75 -49.3 296.3 -38.2
L 107.9 -38.2 112.05 -30.35 120.65 -30.35
M 130.75 -27.85
Q 131.5 -29.35 132.55 -30.35
L 165.3 -30.35 165.3 -3.45
Q 157.233203125 3.7349609375 151.75 6.9 145.5 10.35 140 10.35 136.4 10.35 134.2 7.8 132.05 5.25 132.05 1.5 132.05 -2.75 135.4 -4.7 137.9 -6.25 141.8 -6.25 142.75 -6.25 147.15 -5.15 151.55 -3.95 152.4 -3.95 152.9 -3.95 153.4 -4.2 153.95 -4.45 153.95 -5.15
L 151.45 -11.85
Q 149.4 -13.35 145.4 -14 141.3 -14.6 137.2 -14.6 134.2 -16.6 132.15 -19.15 130.05 -21.75 130.05 -23.7 130.05 -26.3 130.75 -27.85
M -244.15 -37.55
Q -248.35 -39.35 -251 -39.35 -254.1 -39.35 -258.25 -38.05 -262.4 -36.65 -266.6 -34.5
L -263.85 -28.65
Q -262.75 -26.9 -261.6 -26.9 -257.65 -29 -253.5 -31.25 -249.4 -33.15 -246 -33.15 -242.25 -33.15 -239.9 -30.9 -237.5 -28.65 -237.5 -24.5 -237.5 -20.15 -240.75 -16.6 -243.35 -13.85 -245.25 -13.85 -246.25 -13.85 -250.75 -13.25 -255.25 -12.6 -256.35 -12.6 -258.75 -12.6 -258.75 -10.15 -258.75 -8.85 -254.95 -5.15 -253.15 -3.25 -252.35 -3.25 -251.5 -3.25 -246.85 -5 -244.45 -5.85 -240.25 -7.5 -236.95 -6.55 -234.95 -3.8 -232.85 -1.1 -232.85 2.85 -232.85 8.4 -236.65 12.45 -240.5 16.55 -246.5 16.55 -253.75 16.55 -259.25 11.4 -264.8 6.3 -269.6 -4.7
L -273.5 -2.55
Q -267.4 10.65 -260.1 17.5 -252.75 24.4 -244.2 24.4 -235.85 24.4 -230.55 19.85 -225.25 15.2 -225.25 7.4 -225.25 3.6 -227.35 0.2
L -227.15 0.2
Q -224.4 2.3 -221.2 3.25 -218.1 4.15 -215.85 4.15 -213.9 4.15 -211.4 3.85 -208.9 3.55 -206.75 2.7
L -207.25 30.25 -198.5 35.15 -198.5 -30.35 -174.85 -30.35 -174.85 -2.55 -180.95 -2.55
Q -182.1 -2.55 -182.9 -1.55 -183.7 -0.45 -183.7 0.55 -183.7 2.2 -177.45 8.8 -171.25 15.35 -169.2 15.35 -166.35 15.35 -166.35 11.75
L -166.35 5.45 -140.65 5.45 -141 30.25 -132.3 35.15 -132.3 -30.35 -103.25 -30.35
Q -103.25 -29.5 -102.85 -27.35 -102.75 -25.7 -102.75 -22 -102.75 -10.75 -103.2 -7.55 -103.6 -4.35 -104.5 -4.35 -105.15 -4.35 -108.85 -6.4 -112.65 -8.5 -113.25 -8.5 -114.75 -8.5 -116 -6.85 -117.3 -5.25 -117.3 -3.6 -117.3 -2.4 -116.1 -0.25 -114.55 2.75 -111 7.15 -106.3 12.95 -98.9 21.05 -91.5 29.15 -84.75 36.2
L -80.9 31.65
Q -86.5 26.05 -92.15 20.45 -103.5 8.9 -103.5 7.95 -103.5 7 -102.8 6.35 -102.15 5.65 -99.25 3.8 -97.4 2.7 -95.85 -0.25 -94.25 -3.2 -94.25 -6.25
L -94.25 -30.35 -77.55 -30.35 -81.75 -38.2 -228.1 -38.2 -224.15 -30.35 -207.25 -30.35 -207.25 -7.7
Q -208.35 -6.15 -212.5 -4.45 -216.65 -2.7 -219 -2.7 -226.8 -2.7 -236.45 -10.1 -233.7 -11.5 -231.9 -14.35 -230 -17.2 -230 -20.2 -230 -23.3 -231.4 -26.25 -232.75 -29.1 -236.3 -32.4 -239.9 -35.75 -244.15 -37.55
M -166.35 -2.55
L -166.35 -30.35 -140.65 -30.35 -140.65 -2.55 -166.35 -2.55
M -426.35 -56.5
Q -426.75 -56.5 -428.55 -56.4 -430.35 -56.3 -430.35 -55.9
L -425.55 -46.6
Q -424.85 -46.9 -424.45 -47.25 -423.6 -47.25 -422.8 -47.25 -421.6 -47.25 -419.45 -46.25 -417.35 -45.25 -416.25 -43.45 -415.6076171875 -42.3630859375 -412.9 -38.2
L -455.7 -38.2 -451.55 -30.35 -433.9 -30.35 -433.9 -2.65 -457.25 -2.65 -457.25 -17.9
Q -457.25 -29 -462.25 -34.6 -466.45 -39.35 -473.35 -39.35 -479.2 -39.35 -482.2 -35.35 -484.6 -32.25 -484.6 -27.65 -484.6 -22.4 -481.25 -18.75 -476.7 -14 -465.25 -10.65
L -465.75 -2.65 -471.85 -2.65
Q -473 -2.65 -473.8 -1.6 -474.6 -0.5 -474.6 0.5 -474.6 2.75 -468.05 8.4 -461.45 14.05 -459.75 14.05 -459 14.05 -458.1 13.4 -457.25 12.75 -457.25 11.75
L -457.25 4.5 -433.9 4.5 -433.9 30.25 -425.55 35.15 -425.55 -30.35 -408.25 -30.35 -408.25 30.25 -399.9 35.15 -399.9 -30.35 -370.2 -30.35
Q -370.2 -29.5 -369.8 -27.35 -369.7 -25.7 -369.7 -22 -369.7 -10.75 -370.15 -7.55 -370.55 -4.35 -371.45 -4.35 -372.1 -4.35 -375.8 -6.4 -379.6 -8.5 -380.2 -8.5 -381.7 -8.5 -382.95 -6.85 -384.25 -5.25 -384.25 -3.6 -384.25 -2.4 -383.05 -0.25 -381.5 2.75 -377.95 7.15 -373.25 12.95 -365.85 21.05 -358.45 29.15 -351.7 36.2
L -347.85 31.65
Q -353.45 26.05 -359.1 20.45 -370.45 8.9 -370.45 7.95 -370.45 7 -369.75 6.35 -369.1 5.65 -366.2 3.8 -364.35 2.7 -362.8 -0.25 -361.2 -3.2 -361.2 -6.25
L -361.2 -30.35 -336.85 -30.35 -336.85 30.25 -328.6 35.15 -328.6 -30.35 -315.5 -30.35 -319.75 -38.2 -330.85 -38.2
Q -332.9 -53.25 -339.1 -61.1 -344.85 -68.35 -353.1 -68.35 -359.35 -68.35 -363.4 -64.5 -367.5 -60.75 -367.5 -54.2 -367.5 -52.6 -366.4 -49.75 -365.25 -46.8 -364.35 -45.95
L -361.25 -47.15
Q -361.25 -60.5 -352.65 -60.5 -346.5 -60.5 -341.85 -55.25 -336.7 -49.3 -335.15 -38.2
L -402.8 -38.2
Q -403.9263671875 -41.4396484375 -407.85 -50.65 -412.55 -61.85 -414.8 -65.2 -417.1 -68.6 -420.85 -70.45 -423.75 -71.85 -426.6 -71.85 -428.75 -71.85 -430.15 -71.7 -431.6 -71.6 -431.6 -71.1 -431.5 -70.75 -428.45 -65.6 -427.6 -63.95 -425.55 -60.75 -424.85 -61.1 -424.2 -61.6 -423.2 -61.6 -422.2 -61.6 -420.55 -61.6 -418.1 -59.9 -415.6 -58.25 -413.95 -55.6 -412.7 -53.35 -410.65 -48.45 -408.9201171875 -44.357421875 -406.55 -38.2
L -409.4 -38.2
Q -410.267578125 -39.8873046875 -411.6 -42.25 -415.3 -48.9 -416.85 -51.15 -418.85 -54 -421.5 -55.25 -424.1 -56.5 -426.35 -56.5
M -476.1 -25.75
Q -476.1 -28.65 -474.5 -30.9 -473 -33.15 -470.25 -33.15 -467.3 -33.15 -465.8 -31.25 -464.2 -29.35 -464.2 -23.85 -464.2 -19.55 -464.75 -15.65 -468.85 -16.1 -472.5 -19 -476.1 -21.85 -476.1 -25.75 Z"/>
</g>
</defs>

<g transform="matrix( 1, 0, 0, 1, 675.25,232.5) ">
<g filter="url(#Filter_1)" transform="matrix( 1, 0, 0, 1, -675.25,-232.5) ">
<g transform="matrix( 1, 0, 0, 1, 675.25,181) ">
<g transform="matrix( 1, 0, 0, 1, 0,0) ">
<use xlink:href="#Duplicate_Items_Folder_Symbol_11_copy_0_Layer0_0_FILL"/>
</g>
</g>
</g>

<g transform="matrix( 1, 0, 0, 1, 0,0) ">
<use xlink:href="#Duplicate_Items_Folder_Symbol_8_copy_2_0_Layer0_1_FILL"/>
</g>

<g transform="matrix( 1, 0, 0, 1, 0,-51.5) ">
<g transform="matrix( 1, 0, 0, 1, 0,0) ">
<use xlink:href="#Duplicate_Items_Folder_Symbol_1_copy_3_0_Layer0_0_FILL"/>
</g>
</g>

<g transform="matrix( 1, 0, 0, 1, 0,0) ">
<use xlink:href="#Duplicate_Items_Folder_Symbol_8_copy_2_0_Layer0_3_FILL"/>
</g>

<g transform="matrix( 1, 0, 0, 1, 0,0) ">
<use xlink:href="#Duplicate_Items_Folder_Symbol_8_copy_2_0_Layer0_4_FILL"/>
</g>
</g>

<g transform="matrix( 1, 0, 0, 1, 677.5,163.75) ">
<g transform="matrix( 1, 0, 0, 1, 0,0) ">
<use xlink:href="#Symbol_2_0_Layer1_0_FILL"/>
</g>
</g>
</svg>
