
<svg xmlns="http://www.w3.org/2000/svg" version="1.1" xmlns:xlink="http://www.w3.org/1999/xlink" preserveAspectRatio="none" x="0px" y="0px" width="385px" height="329px" viewBox="0 0 385 329">
<defs>
<radialGradient id="Gradient_1" gradientUnits="userSpaceOnUse" cx="0" cy="0" r="583.0125" fx="0" fy="0" gradientTransform="matrix( 0.9999999999999999, 0, 0, 0.34771981732810187, -11.55,113.5) " spreadMethod="pad">
<stop  offset="0%" stop-color="#FFFFFF"/>

<stop  offset="16.862745098039216%" stop-color="#F7F8F8"/>

<stop  offset="38.8235294117647%" stop-color="#EAEAEB"/>

<stop  offset="63.529411764705884%" stop-color="#D4D5D7"/>

<stop  offset="90.19607843137256%" stop-color="#B6B8BA"/>

<stop  offset="100%" stop-color="#AAACAE"/>
</radialGradient>

<radialGradient id="Gradient_2" gradientUnits="userSpaceOnUse" cx="0" cy="0" r="162.175" fx="0" fy="0" gradientTransform="matrix( 0, -0.9999999999999999, 2.038538615692924, 0, -13.35,213.3) " spreadMethod="pad">
<stop  offset="0%" stop-color="#FFFFFF"/>

<stop  offset="16.862745098039216%" stop-color="#F7F8F8"/>

<stop  offset="38.8235294117647%" stop-color="#EAEAEB"/>

<stop  offset="63.529411764705884%" stop-color="#D4D5D7"/>

<stop  offset="90.19607843137256%" stop-color="#B6B8BA"/>

<stop  offset="100%" stop-color="#AAACAE"/>
</radialGradient>

<radialGradient id="Gradient_3" gradientUnits="userSpaceOnUse" cx="0" cy="0" r="52.5125" fx="0" fy="0" gradientTransform="matrix( 1, 0, 0, 1, 8,67.7) " spreadMethod="pad">
<stop  offset="0%" stop-color="#FFFFFF"/>

<stop  offset="16.862745098039216%" stop-color="#F7F8F8"/>

<stop  offset="38.8235294117647%" stop-color="#EAEAEB"/>

<stop  offset="63.529411764705884%" stop-color="#D4D5D7"/>

<stop  offset="90.19607843137256%" stop-color="#B6B8BA"/>

<stop  offset="100%" stop-color="#AAACAE"/>
</radialGradient>

<linearGradient id="Gradient_4" gradientUnits="userSpaceOnUse" x1="-58.7375" y1="-12.099999999999994" x2="47.1375" y2="-164.6" spreadMethod="pad">
<stop  offset="0%" stop-color="#F8F8F9"/>

<stop  offset="22.352941176470587%" stop-color="#EFF0F1"/>

<stop  offset="60.78431372549019%" stop-color="#D9DBDC"/>

<stop  offset="100%" stop-color="#BEC0C2"/>
</linearGradient>

<g id="Mask_Cloud_copy_0_3_MASK_0_FILL">
<path fill="#FFFFFF" stroke="none" d="
M -228.85 -209.4
L -228.85 283.45 216.15 283.45 216.15 -209.4 -228.85 -209.4 Z"/>
</g>

<g id="Cloud_copy_0_Layer3_0_FILL">
<path fill="url(#Gradient_1)" stroke="none" d="
M 205.9 153.35
Q 205.999609375 124.666015625 181 104.35 156.643359375 84.5548828125 122.1 84.55 115.674609375 84.5521484375 109.55 85.25 101.412890625 71.2296875 85.7 59.6 53.5916015625 35.7533203125 8.2 35.75 -37.191796875 35.7533203125 -69.3 59.6 -80.03515625 67.534765625 -87.25 76.55 -90.5845703125 75.953125 -94.2 75.95 -107.646875 75.97734375 -117.2 84.45
L -117.25 84.5
Q -118.9140625 85.987890625 -120.3 87.6 -127.6966796875 86.2486328125 -135.75 86.25 -164.6216796875 86.2875 -185.05 103.6 -205.920703125 121.4033203125 -205.85 146.5 -205.9228515625 171.59921875 -185.05 189.3 -168.9216796875 203.0412109375 -147.5 205.95 -147.59765625 207.4900390625 -147.6 209.05 -147.749609375 230.021484375 -128 244.8 -109.0048828125 259.0005859375 -82.2 259 -66.39609375 258.9984375 -53.3 254.05 -52.6767578125 254.4236328125 -52.05 254.8
L -52 254.8
Q -23.727734375 270.998828125 16.3 271 56.327734375 270.998828125 84.6 254.8 102.2048828125 244.8037109375 109.25 232.25 110.7244140625 232.448046875 112.25 232.45 120.84453125 232.4392578125 126.9 226.5
L 126.9 226.5
Q 129.1677734375 224.3388671875 130.6 221.85 159.6587890625 219.6560546875 181 202.25 206.0013671875 182.0361328125 205.9 153.35
M 29.3 69.9
Q 29.3 73.5 27.9 76.6 26.4 79.95 23.3 82.65 17.3 87.95 8.8 87.95 0.3 87.95 -5.7 82.65 -8.45 80.25 -9.95 77.35 -11.7 73.95 -11.7 69.9 -11.7 62.4 -5.7 57.1 0.3 51.85 8.8 51.85 17.3 51.85 23.3 57.1 29.3 62.4 29.3 69.9 Z"/>
</g>

<g id="Cloud_copy_0_Layer2_0_FILL">
<path fill="url(#Gradient_2)" stroke="none" d="
M 201.35 153.35
Q 201.35 126.75 178.15 107.9 154.95 89.1 122.1 89.1 114.35 89.1 107.1 90.15 99.35 75.35 83 63.25 52 40.3 8.2 40.3 -35.6 40.3 -66.6 63.25 -78.15 71.8 -85.4 81.7 -89.55 80.5 -94.2 80.5 -105.9 80.5 -114.2 87.9 -116.7 90.1 -118.45 92.65 -126.65 90.8 -135.75 90.8 -162.9 90.8 -182.1 107.1 -201.3 123.45 -201.3 146.5 -201.3 169.55 -182.1 185.85 -165.3 200.15 -142.35 201.95 -143.05 205.4 -143.05 209.05 -143.05 227.85 -125.25 241.15 -107.4 254.45 -82.2 254.45 -66.05 254.45 -52.9 249 -51.4 249.9 -49.75 250.85 -22.4 266.45 16.3 266.45 55 266.45 82.35 250.85 100.75 240.4 106.8 227.05 109.35 227.9 112.25 227.9 119 227.9 123.75 223.25 126.45 220.65 127.65 217.5 156.9 216 178.15 198.75 201.35 179.95 201.35 153.35
M 29.3 69.9
Q 29.3 73.5 27.9 76.6 26.4 79.95 23.3 82.65 17.3 87.95 8.8 87.95 0.3 87.95 -5.7 82.65 -8.45 80.25 -9.95 77.35 -11.7 73.95 -11.7 69.9 -11.7 62.4 -5.7 57.1 0.3 51.85 8.8 51.85 17.3 51.85 23.3 57.1 29.3 62.4 29.3 69.9 Z"/>

<path fill="url(#Gradient_3)" stroke="none" d="
M 27.9 76.6
Q 29.3 73.5 29.3 69.9 29.3 62.4 23.3 57.1 17.3 51.85 8.8 51.85 0.3 51.85 -5.7 57.1 -11.7 62.4 -11.7 69.9 -11.7 73.95 -9.95 77.35 -9.3 70.95 -4.45 66.2 1.1 60.8 9 60.8 16.9 60.8 22.5 66.2 27.05 70.65 27.9 76.6 Z"/>
</g>

<g id="Cloud_copy_0_Layer2_1_FILL">
<path fill="url(#Gradient_4)" stroke="none" d="
M 9.2 -280.05
L 6.9 -280.05
Q 6 -212 7.6 -74.5 8.35 -4.85 9.45 58.65 9.5 59.55 9.85 60.2 10.15 60.8 10.65 60.8
L 10.7 60.8
Q 11.2 60.75 11.5 60.1 11.85 59.4 11.8 58.45 10.2 -36.1 9.35 -131.25 8.55 -224.25 9.2 -280.05 Z"/>
</g>

<g id="Cloud_copy_0_Layer1_0_FILL">
<path fill="#000000" fill-opacity="0.8980392156862745" stroke="none" d="
M 113 139.9
L 104.5 134.55 104.5 204.55 113 209.9 113 139.9
M 60.3 118.9
Q 65.45 124.85 67 135.95
L -17.35 135.95
Q -19.4 120.9 -25.6 113.05 -31.35 105.8 -39.6 105.8 -45.85 105.8 -49.9 109.65 -54 113.4 -54 119.95 -54 121.55 -52.9 124.4 -51.75 127.35 -50.85 128.2
L -47.75 127
Q -47.75 113.65 -39.15 113.65 -33 113.65 -28.35 118.9 -23.2 124.85 -21.65 135.95
L -115.95 135.95 -111.55 143.8 -50.95 143.8 -50.95 157.05 -83.6 157.05 -84.8 159.9
Q -77.9 164.05 -74.2 167.65 -68.8 172.9 -68.8 177.95 -68.8 181.4 -70.7 183.65 -72.55 185.9 -76.2 185.9 -79.2 185.9 -83.1 183.4 -87.05 180.9 -89.55 177.45 -92.8 172.9 -94.45 169.95 -96.6 166.1 -98.65 160.95
L -103.4 162.9
Q -98.95 172.55 -95.8 177.7 -91.1 185.7 -86.2 189.5 -80.3 194.3 -73.45 194.3 -68.8 194.3 -64.95 191.3 -60.6 187.95 -60.6 182.55 -60.6 177.95 -63.3 173.65 -65.35 170.55 -70.95 164.95
L -50.95 164.95 -50.95 204.4 -42.45 209.3 -42.45 143.8 -23.35 143.8 -23.35 204.4 -15.1 209.3 -15.1 143.8 37.1 143.8 37.1 156.8 17.05 156.8
Q 11.25 156.8 7.1 160.05 2.15 163.95 2.15 171.4 2.15 178.3 6.25 186.45 10.3 194.65 20.55 207.4
L 25.05 203.7
Q 16.7 193.7 13.3 187.45 9.9 181.15 9.9 176.05 9.9 170.05 13 167.35 16.05 164.7 22.55 164.7
L 37.55 164.7 37.1 204.4 45.7 209.3 45.7 143.8 65.3 143.8 65.3 204.4 73.55 209.3 73.55 143.8 86.65 143.8 82.4 135.95 71.3 135.95
Q 69.25 120.9 63.05 113.05 57.3 105.8 49.05 105.8 42.8 105.8 38.75 109.65 34.65 113.4 34.65 119.95 34.65 121.55 35.75 124.4 36.9 127.35 37.8 128.2
L 40.9 127
Q 40.9 113.65 49.5 113.65 55.65 113.65 60.3 118.9 Z"/>
</g>

<g id="Mask_Cloud_copy_2_1_3_MASK_0_FILL">
<path fill="#FFFFFF" stroke="none" d="
M -228.85 -82.9
L -228.85 409.95 216.15 409.95 216.15 -82.9 -228.85 -82.9 Z"/>
</g>

<g id="Cloud_copy_2_1_Layer3_0_FILL">
<path fill="url(#Gradient_1)" stroke="none" d="
M 205.9 153.35
Q 205.999609375 124.666015625 181 104.35 156.643359375 84.5548828125 122.1 84.55 115.674609375 84.5521484375 109.55 85.25 101.412890625 71.2296875 85.7 59.6 53.5916015625 35.7533203125 8.2 35.75 -37.191796875 35.7533203125 -69.3 59.6 -80.03515625 67.534765625 -87.25 76.55 -90.5845703125 75.953125 -94.2 75.95 -107.646875 75.97734375 -117.2 84.45
L -117.25 84.5
Q -118.9140625 85.987890625 -120.3 87.6 -127.6966796875 86.2486328125 -135.75 86.25 -164.6216796875 86.2875 -185.05 103.6 -205.920703125 121.4033203125 -205.85 146.5 -205.9228515625 171.59921875 -185.05 189.3 -168.9216796875 203.0412109375 -147.5 205.95 -147.59765625 207.4900390625 -147.6 209.05 -147.749609375 230.021484375 -128 244.8 -109.0048828125 259.0005859375 -82.2 259 -66.39609375 258.9984375 -53.3 254.05 -52.6767578125 254.4236328125 -52.05 254.8
L -52 254.8
Q -23.727734375 270.998828125 16.3 271 56.327734375 270.998828125 84.6 254.8 102.2048828125 244.8037109375 109.25 232.25 110.7244140625 232.448046875 112.25 232.45 120.84453125 232.4392578125 126.9 226.5
L 126.9 226.5
Q 129.1677734375 224.3388671875 130.6 221.85 159.6587890625 219.6560546875 181 202.25 206.0013671875 182.0361328125 205.9 153.35
M 29.3 69.9
Q 29.3 73.5 27.9 76.6 26.4 79.95 23.3 82.65 17.3 87.95 8.8 87.95 0.3 87.95 -5.7 82.65 -8.45 80.25 -9.95 77.35 -11.7 73.95 -11.7 69.9 -11.7 62.4 -5.7 57.1 0.3 51.85 8.8 51.85 17.3 51.85 23.3 57.1 29.3 62.4 29.3 69.9 Z"/>
</g>

<g id="Cloud_copy_2_1_Layer2_0_FILL">
<path fill="url(#Gradient_2)" stroke="none" d="
M 201.35 153.35
Q 201.35 126.75 178.15 107.9 154.95 89.1 122.1 89.1 114.35 89.1 107.1 90.15 99.35 75.35 83 63.25 52 40.3 8.2 40.3 -35.6 40.3 -66.6 63.25 -78.15 71.8 -85.4 81.7 -89.55 80.5 -94.2 80.5 -105.9 80.5 -114.2 87.9 -116.7 90.1 -118.45 92.65 -126.65 90.8 -135.75 90.8 -162.9 90.8 -182.1 107.1 -201.3 123.45 -201.3 146.5 -201.3 169.55 -182.1 185.85 -165.3 200.15 -142.35 201.95 -143.05 205.4 -143.05 209.05 -143.05 227.85 -125.25 241.15 -107.4 254.45 -82.2 254.45 -66.05 254.45 -52.9 249 -51.4 249.9 -49.75 250.85 -22.4 266.45 16.3 266.45 55 266.45 82.35 250.85 100.75 240.4 106.8 227.05 109.35 227.9 112.25 227.9 119 227.9 123.75 223.25 126.45 220.65 127.65 217.5 156.9 216 178.15 198.75 201.35 179.95 201.35 153.35
M 23.3 82.65
Q 17.3 87.95 8.8 87.95 0.3 87.95 -5.7 82.65 -8.45 80.25 -9.95 77.35 -11.7 73.95 -11.7 69.9 -11.7 62.4 -5.7 57.1 0.3 51.85 8.8 51.85 17.3 51.85 23.3 57.1 29.3 62.4 29.3 69.9 29.3 73.5 27.9 76.6 26.4 79.95 23.3 82.65 Z"/>

<path fill="url(#Gradient_3)" stroke="none" d="
M 9 60.8
Q 16.9 60.8 22.5 66.2 27.05 70.65 27.9 76.6 29.3 73.5 29.3 69.9 29.3 62.4 23.3 57.1 17.3 51.85 8.8 51.85 0.3 51.85 -5.7 57.1 -11.7 62.4 -11.7 69.9 -11.7 73.95 -9.95 77.35 -9.3 70.95 -4.45 66.2 1.1 60.8 9 60.8 Z"/>
</g>

<g id="Cloud_copy_2_1_Layer2_1_FILL">
<path fill="url(#Gradient_4)" stroke="none" d="
M 9.2 -280.05
L 6.9 -280.05
Q 6 -212 7.6 -74.5 8.35 -4.85 9.45 58.65 9.5 59.55 9.85 60.2 10.15 60.8 10.65 60.8
L 10.7 60.8
Q 11.2 60.75 11.5 60.1 11.85 59.4 11.8 58.45 10.2 -36.1 9.35 -131.25 8.55 -224.25 9.2 -280.05 Z"/>
</g>

<g id="Mask_Cloud_copy_3_0_3_MASK_0_FILL">
<path fill="#FFFFFF" stroke="none" d="
M -228.85 -225.1
L -228.85 277.8 216.15 277.8 216.15 -225.1 -228.85 -225.1 Z"/>
</g>

<g id="Cloud_copy_3_0_Layer3_0_FILL">
<path fill="url(#Gradient_1)" stroke="none" d="
M 205.9 153.35
Q 205.999609375 124.666015625 181 104.35 156.643359375 84.5548828125 122.1 84.55 115.674609375 84.5521484375 109.55 85.25 101.412890625 71.2296875 85.7 59.6 53.5916015625 35.7533203125 8.2 35.75 -37.191796875 35.7533203125 -69.3 59.6 -80.03515625 67.534765625 -87.25 76.55 -90.5845703125 75.953125 -94.2 75.95 -107.646875 75.97734375 -117.2 84.45
L -117.25 84.5
Q -118.9140625 85.987890625 -120.3 87.6 -127.6966796875 86.2486328125 -135.75 86.25 -164.6216796875 86.2875 -185.05 103.6 -205.920703125 121.4033203125 -205.85 146.5 -205.9228515625 171.59921875 -185.05 189.3 -168.9216796875 203.0412109375 -147.5 205.95 -147.59765625 207.4900390625 -147.6 209.05 -147.749609375 230.021484375 -128 244.8 -109.0048828125 259.0005859375 -82.2 259 -66.39609375 258.9984375 -53.3 254.05 -52.6767578125 254.4236328125 -52.05 254.8
L -52 254.8
Q -23.727734375 270.998828125 16.3 271 56.327734375 270.998828125 84.6 254.8 102.2048828125 244.8037109375 109.25 232.25 110.7244140625 232.448046875 112.25 232.45 120.84453125 232.4392578125 126.9 226.5
L 126.9 226.5
Q 129.1677734375 224.3388671875 130.6 221.85 159.6587890625 219.6560546875 181 202.25 206.0013671875 182.0361328125 205.9 153.35
M 29.3 69.9
Q 29.3 73.5 27.9 76.6 26.4 79.95 23.3 82.65 17.3 87.95 8.8 87.95 0.3 87.95 -5.7 82.65 -8.45 80.25 -9.95 77.35 -11.7 73.95 -11.7 69.9 -11.7 62.4 -5.7 57.1 0.3 51.85 8.8 51.85 17.3 51.85 23.3 57.1 29.3 62.4 29.3 69.9 Z"/>
</g>

<g id="Cloud_copy_3_0_Layer2_0_FILL">
<path fill="url(#Gradient_2)" stroke="none" d="
M 201.35 153.35
Q 201.35 126.75 178.15 107.9 154.95 89.1 122.1 89.1 114.35 89.1 107.1 90.15 99.35 75.35 83 63.25 52 40.3 8.2 40.3 -35.6 40.3 -66.6 63.25 -78.15 71.8 -85.4 81.7 -89.55 80.5 -94.2 80.5 -105.9 80.5 -114.2 87.9 -116.7 90.1 -118.45 92.65 -126.65 90.8 -135.75 90.8 -162.9 90.8 -182.1 107.1 -201.3 123.45 -201.3 146.5 -201.3 169.55 -182.1 185.85 -165.3 200.15 -142.35 201.95 -143.05 205.4 -143.05 209.05 -143.05 227.85 -125.25 241.15 -107.4 254.45 -82.2 254.45 -66.05 254.45 -52.9 249 -51.4 249.9 -49.75 250.85 -22.4 266.45 16.3 266.45 55 266.45 82.35 250.85 100.75 240.4 106.8 227.05 109.35 227.9 112.25 227.9 119 227.9 123.75 223.25 126.45 220.65 127.65 217.5 156.9 216 178.15 198.75 201.35 179.95 201.35 153.35
M 23.3 82.65
Q 17.3 87.95 8.8 87.95 0.3 87.95 -5.7 82.65 -8.45 80.25 -9.95 77.35 -11.7 73.95 -11.7 69.9 -11.7 62.4 -5.7 57.1 0.3 51.85 8.8 51.85 17.3 51.85 23.3 57.1 29.3 62.4 29.3 69.9 29.3 73.5 27.9 76.6 26.4 79.95 23.3 82.65 Z"/>

<path fill="url(#Gradient_3)" stroke="none" d="
M 9 60.8
Q 16.9 60.8 22.5 66.2 27.05 70.65 27.9 76.6 29.3 73.5 29.3 69.9 29.3 62.4 23.3 57.1 17.3 51.85 8.8 51.85 0.3 51.85 -5.7 57.1 -11.7 62.4 -11.7 69.9 -11.7 73.95 -9.95 77.35 -9.3 70.95 -4.45 66.2 1.1 60.8 9 60.8 Z"/>
</g>

<g id="Cloud_copy_3_0_Layer2_1_FILL">
<path fill="url(#Gradient_4)" stroke="none" d="
M 9.2 -280.05
L 6.9 -280.05
Q 6 -212 7.6 -74.5 8.35 -4.85 9.45 58.65 9.5 59.55 9.85 60.2 10.15 60.8 10.65 60.8
L 10.7 60.8
Q 11.2 60.75 11.5 60.1 11.85 59.4 11.8 58.45 10.2 -36.1 9.35 -131.25 8.55 -224.25 9.2 -280.05 Z"/>
</g>

<g id="Cloud_copy_3_0_Layer1_0_FILL">
<path fill="#000000" fill-opacity="0.8980392156862745" stroke="none" d="
M 20.85 173.35
L 20.85 167.05 46.55 167.05 46.2 191.85 54.9 196.75 54.9 131.25 104.85 131.25 104.85 144.25 84.8 144.25
Q 79 144.25 74.85 147.5 69.9 151.4 69.9 158.85 69.9 165.75 74 173.9 78.05 182.1 88.3 194.85
L 92.8 191.15
Q 84.45 181.15 81.05 174.9 77.65 168.6 77.65 163.5 77.65 157.5 80.75 154.8 83.8 152.15 90.3 152.15
L 105.3 152.15 104.85 191.85 113.45 196.75 113.45 131.25 124.2 131.25 119.9 123.4 -135.3 123.4 -130.9 131.25 -80.8 131.25 -80.9 152.5
Q -83.9 147.85 -88.4 145.1 -93.55 142 -100 142 -110.7 142 -117.05 147.6 -122.3 152.25 -122.3 158.1 -122.3 165.85 -115.35 172.45 -108.35 179 -98.35 179 -87.05 179 -80.8 172.15
L -80.8 191.85 -72.4 196.75 -72.4 131.25 -26.1 131.25 -26.1 140.9 -46.75 140.9
Q -52.25 140.9 -54.85 143.65 -57.5 146.4 -57.5 151.05 -57.5 153.55 -55.35 157.45 -53.2 161.4 -49.6 165 -51.85 167.25 -53.1 170 -54.35 172.75 -54.35 176.5 -54.35 186 -44.35 192.5 -37.7 196.85 -26.25 200.15 -25.65 201.4 -24.15 203.1 -21.5 206.1 -20.3 206.1 -19.4 206.1 -16.9 204.15 -14.4 202.25 -12.65 200.25 -9.5 200.85 -7.9 202.6 -6.25 204.4 -6.25 206.35 -6.25 209.85 -9.9 213.15 -13.65 216.45 -19 216.45 -28.1 216.45 -34.95 213.35 -41.8 210.25 -51.6 201.5
L -54.25 205
Q -43.35 214.35 -35.15 218.6 -25.6 223.5 -15.9 223.5 -8.25 223.5 -3.65 218.7 0.1 214.9 0.1 209.75 0.1 203.45 -5.1 199.05 -10.3 194.6 -17.45 194.6 -21.15 194.6 -23.95 195.95 -24.45 196.2 -24.85 196.45 -34.85 192.75 -40 188.5 -45.65 183.85 -45.65 178.75 -45.65 173.75 -41 168.85 -35.75 163.35 -28.5 163.35 -25.35 163.35 -22.5 165.7 -19.65 168 -19.65 171.25 -19.65 177.9 -28.75 179.6
L -24.1 186.75
Q -17.5 184.75 -14.8 181.65 -12.15 178.6 -12.15 174 -12.15 168 -18.55 162.65 -25 157.25 -30.75 157.25 -34.75 157.25 -38.8 158.25 -42.9 159.25 -46.5 161.8 -48.5 160.25 -49.85 158.3 -51.15 156.3 -51.15 154.25 -51.15 151.9 -49.2 150.3 -47.2 148.65 -45.15 148.65
L -20.5 148.65
Q -17.75 148.65 -17.75 145.9
L -17.75 131.25 12.35 131.25 12.35 159.05 6.25 159.05
Q 5.1 159.05 4.3 160.05 3.5 161.15 3.5 162.15 3.5 163.8 9.75 170.4 15.95 176.95 18 176.95 20.85 176.95 20.85 173.35
M 46.55 131.25
L 46.55 159.05 20.85 159.05 20.85 131.25 46.55 131.25
M -98.35 148.3
Q -97.2 148.1 -94.8 148.1 -90.6 148.1 -87.5 150.85 -83.9 154.1 -83.9 160 -83.9 165.75 -90.9 169.1
L -103.45 149.65
Q -99.6 148.45 -98.35 148.3
M -95.05 171.25
Q -97.3 172.25 -99.15 172.6 -101.05 172.9 -103.3 172.9 -108.05 172.9 -110.95 170.85 -114.55 168.35 -114.55 163 -114.55 159.65 -112.05 156 -110 153 -107.6 151.7
L -95.05 171.25 Z"/>
</g>

<g id="Mask_Cloud_copy_4_0_3_MASK_0_FILL">
<path fill="#FFFFFF" stroke="none" d="
M -228.85 -84.35
L -228.85 408.5 216.15 408.5 216.15 -84.35 -228.85 -84.35 Z"/>
</g>

<g id="Cloud_copy_4_0_Layer3_0_FILL">
<path fill="url(#Gradient_1)" stroke="none" d="
M 205.9 153.35
Q 205.999609375 124.666015625 181 104.35 156.643359375 84.5548828125 122.1 84.55 115.674609375 84.5521484375 109.55 85.25 101.412890625 71.2296875 85.7 59.6 53.5916015625 35.7533203125 8.2 35.75 -37.191796875 35.7533203125 -69.3 59.6 -80.03515625 67.534765625 -87.25 76.55 -90.5845703125 75.953125 -94.2 75.95 -107.646875 75.97734375 -117.2 84.45
L -117.25 84.5
Q -118.9140625 85.987890625 -120.3 87.6 -127.6966796875 86.2486328125 -135.75 86.25 -164.6216796875 86.2875 -185.05 103.6 -205.920703125 121.4033203125 -205.85 146.5 -205.9228515625 171.59921875 -185.05 189.3 -168.9216796875 203.0412109375 -147.5 205.95 -147.59765625 207.4900390625 -147.6 209.05 -147.749609375 230.021484375 -128 244.8 -109.0048828125 259.0005859375 -82.2 259 -66.39609375 258.9984375 -53.3 254.05 -52.6767578125 254.4236328125 -52.05 254.8
L -52 254.8
Q -23.727734375 270.998828125 16.3 271 56.327734375 270.998828125 84.6 254.8 102.2048828125 244.8037109375 109.25 232.25 110.7244140625 232.448046875 112.25 232.45 120.84453125 232.4392578125 126.9 226.5
L 126.9 226.5
Q 129.1677734375 224.3388671875 130.6 221.85 159.6587890625 219.6560546875 181 202.25 206.0013671875 182.0361328125 205.9 153.35
M 29.3 69.9
Q 29.3 73.5 27.9 76.6 26.4 79.95 23.3 82.65 17.3 87.95 8.8 87.95 0.3 87.95 -5.7 82.65 -8.45 80.25 -9.95 77.35 -11.7 73.95 -11.7 69.9 -11.7 62.4 -5.7 57.1 0.3 51.85 8.8 51.85 17.3 51.85 23.3 57.1 29.3 62.4 29.3 69.9 Z"/>
</g>

<g id="Cloud_copy_4_0_Layer2_0_FILL">
<path fill="url(#Gradient_2)" stroke="none" d="
M 201.35 153.35
Q 201.35 126.75 178.15 107.9 154.95 89.1 122.1 89.1 114.35 89.1 107.1 90.15 99.35 75.35 83 63.25 52 40.3 8.2 40.3 -35.6 40.3 -66.6 63.25 -78.15 71.8 -85.4 81.7 -89.55 80.5 -94.2 80.5 -105.9 80.5 -114.2 87.9 -116.7 90.1 -118.45 92.65 -126.65 90.8 -135.75 90.8 -162.9 90.8 -182.1 107.1 -201.3 123.45 -201.3 146.5 -201.3 169.55 -182.1 185.85 -165.3 200.15 -142.35 201.95 -143.05 205.4 -143.05 209.05 -143.05 227.85 -125.25 241.15 -107.4 254.45 -82.2 254.45 -66.05 254.45 -52.9 249 -51.4 249.9 -49.75 250.85 -22.4 266.45 16.3 266.45 55 266.45 82.35 250.85 100.75 240.4 106.8 227.05 109.35 227.9 112.25 227.9 119 227.9 123.75 223.25 126.45 220.65 127.65 217.5 156.9 216 178.15 198.75 201.35 179.95 201.35 153.35
M 23.3 82.65
Q 17.3 87.95 8.8 87.95 0.3 87.95 -5.7 82.65 -8.45 80.25 -9.95 77.35 -11.7 73.95 -11.7 69.9 -11.7 62.4 -5.7 57.1 0.3 51.85 8.8 51.85 17.3 51.85 23.3 57.1 29.3 62.4 29.3 69.9 29.3 73.5 27.9 76.6 26.4 79.95 23.3 82.65 Z"/>

<path fill="url(#Gradient_3)" stroke="none" d="
M 9 60.8
Q 16.9 60.8 22.5 66.2 27.05 70.65 27.9 76.6 29.3 73.5 29.3 69.9 29.3 62.4 23.3 57.1 17.3 51.85 8.8 51.85 0.3 51.85 -5.7 57.1 -11.7 62.4 -11.7 69.9 -11.7 73.95 -9.95 77.35 -9.3 70.95 -4.45 66.2 1.1 60.8 9 60.8 Z"/>
</g>

<g id="Cloud_copy_4_0_Layer2_1_FILL">
<path fill="url(#Gradient_4)" stroke="none" d="
M 9.2 -280.05
L 6.9 -280.05
Q 6 -212 7.6 -74.5 8.35 -4.85 9.45 58.65 9.5 59.55 9.85 60.2 10.15 60.8 10.65 60.8
L 10.7 60.8
Q 11.2 60.75 11.5 60.1 11.85 59.4 11.8 58.45 10.2 -36.1 9.35 -131.25 8.55 -224.25 9.2 -280.05 Z"/>
</g>

<g id="Cloud_copy_4_0_Layer1_0_FILL">
<path fill="#000000" fill-opacity="0.8980392156862745" stroke="none" d="
M 5.7 110.95
Q 3.55 110.95 2.15 111.1 0.7 111.2 0.7 111.7 0.8 112.05 3.85 117.2 4.7 118.85 6.75 122.05 7.45 121.7 8.1 121.2 9.1 121.2 10.1 121.2 11.75 121.2 14.2 122.9 16.7 124.55 18.35 127.2 19.6 129.45 21.65 134.35 23.4 138.45 25.8 144.6
L -38.7 144.6 -34.45 152.45 -12.1 152.45
Q -12 153.7 -11.75 155.75 -11.5 157.85 -11.5 160.8 -11.5 172.3 -11.9 175.35 -12.35 178.45 -13.4 178.45 -14 178.45 -17.7 176.4 -21.5 174.3 -22.1 174.3 -23.55 174.3 -24.85 175.95 -26.1 177.55 -26.1 179.2 -26.1 182.45 -19.4 190.65 -13.7 197.95 4.4 217.95
L 8.4 214.1
Q 2.6 207.95 -5.45 199.1 -12.7 190.95 -12.7 190.75 -12.7 189.55 -12.05 188.9 -11.3 188.25 -9.8 187.45 -8.2 186.7 -6.25 184.7 -6.05 184.55 -3.3 181.55 0.65 185.85 6.4 187.85 10.2 189.1 13.3 189.1 15.2 189.1 18.25 188.35 21.3 187.55 24.3 186.6
L 24.3 213.05 32.5 217.95 32.5 152.45 43.15 152.45 38.95 144.6 29.5 144.6
Q 28.35 141.35 24.45 132.15 19.75 120.95 17.5 117.6 15.2 114.2 11.45 112.35 8.55 110.95 5.7 110.95
M 24.3 152.45
L 24.3 176.1
Q 21.3 178.2 17.45 179.7 13.6 181.2 10.6 181.2 7.05 181.2 2.9 179.55 -0.15 178.45 -3.15 176.55
L -3.35 152.45 24.3 152.45 Z"/>
</g>

<g id="Mask_Cloud_copy_5_1_3_MASK_0_FILL">
<path fill="#FFFFFF" stroke="none" d="
M -228.85 -150.1
L -228.85 342.75 216.15 342.75 216.15 -150.1 -228.85 -150.1 Z"/>
</g>

<g id="Cloud_copy_5_1_Layer3_0_FILL">
<path fill="url(#Gradient_1)" stroke="none" d="
M 205.9 153.35
Q 205.999609375 124.666015625 181 104.35 156.643359375 84.5548828125 122.1 84.55 115.674609375 84.5521484375 109.55 85.25 101.412890625 71.2296875 85.7 59.6 53.5916015625 35.7533203125 8.2 35.75 -37.191796875 35.7533203125 -69.3 59.6 -80.03515625 67.534765625 -87.25 76.55 -90.5845703125 75.953125 -94.2 75.95 -107.646875 75.97734375 -117.2 84.45
L -117.25 84.5
Q -118.9140625 85.987890625 -120.3 87.6 -127.6966796875 86.2486328125 -135.75 86.25 -164.6216796875 86.2875 -185.05 103.6 -205.920703125 121.4033203125 -205.85 146.5 -205.9228515625 171.59921875 -185.05 189.3 -168.9216796875 203.0412109375 -147.5 205.95 -147.59765625 207.4900390625 -147.6 209.05 -147.749609375 230.021484375 -128 244.8 -109.0048828125 259.0005859375 -82.2 259 -66.39609375 258.9984375 -53.3 254.05 -52.6767578125 254.4236328125 -52.05 254.8
L -52 254.8
Q -23.727734375 270.998828125 16.3 271 56.327734375 270.998828125 84.6 254.8 102.2048828125 244.8037109375 109.25 232.25 110.7244140625 232.448046875 112.25 232.45 120.84453125 232.4392578125 126.9 226.5
L 126.9 226.5
Q 129.1677734375 224.3388671875 130.6 221.85 159.6587890625 219.6560546875 181 202.25 206.0013671875 182.0361328125 205.9 153.35
M 29.3 69.9
Q 29.3 73.5 27.9 76.6 26.4 79.95 23.3 82.65 17.3 87.95 8.8 87.95 0.3 87.95 -5.7 82.65 -8.45 80.25 -9.95 77.35 -11.7 73.95 -11.7 69.9 -11.7 62.4 -5.7 57.1 0.3 51.85 8.8 51.85 17.3 51.85 23.3 57.1 29.3 62.4 29.3 69.9 Z"/>
</g>

<g id="Cloud_copy_5_1_Layer2_0_FILL">
<path fill="url(#Gradient_2)" stroke="none" d="
M 201.35 153.35
Q 201.35 126.75 178.15 107.9 154.95 89.1 122.1 89.1 114.35 89.1 107.1 90.15 99.35 75.35 83 63.25 52 40.3 8.2 40.3 -35.6 40.3 -66.6 63.25 -78.15 71.8 -85.4 81.7 -89.55 80.5 -94.2 80.5 -105.9 80.5 -114.2 87.9 -116.7 90.1 -118.45 92.65 -126.65 90.8 -135.75 90.8 -162.9 90.8 -182.1 107.1 -201.3 123.45 -201.3 146.5 -201.3 169.55 -182.1 185.85 -165.3 200.15 -142.35 201.95 -143.05 205.4 -143.05 209.05 -143.05 227.85 -125.25 241.15 -107.4 254.45 -82.2 254.45 -66.05 254.45 -52.9 249 -51.4 249.9 -49.75 250.85 -22.4 266.45 16.3 266.45 55 266.45 82.35 250.85 100.75 240.4 106.8 227.05 109.35 227.9 112.25 227.9 119 227.9 123.75 223.25 126.45 220.65 127.65 217.5 156.9 216 178.15 198.75 201.35 179.95 201.35 153.35
M 23.3 82.65
Q 17.3 87.95 8.8 87.95 0.3 87.95 -5.7 82.65 -8.45 80.25 -9.95 77.35 -11.7 73.95 -11.7 69.9 -11.7 62.4 -5.7 57.1 0.3 51.85 8.8 51.85 17.3 51.85 23.3 57.1 29.3 62.4 29.3 69.9 29.3 73.5 27.9 76.6 26.4 79.95 23.3 82.65 Z"/>

<path fill="url(#Gradient_3)" stroke="none" d="
M 9 60.8
Q 16.9 60.8 22.5 66.2 27.05 70.65 27.9 76.6 29.3 73.5 29.3 69.9 29.3 62.4 23.3 57.1 17.3 51.85 8.8 51.85 0.3 51.85 -5.7 57.1 -11.7 62.4 -11.7 69.9 -11.7 73.95 -9.95 77.35 -9.3 70.95 -4.45 66.2 1.1 60.8 9 60.8 Z"/>
</g>

<g id="Cloud_copy_5_1_Layer2_1_FILL">
<path fill="url(#Gradient_4)" stroke="none" d="
M 9.2 -280.05
L 6.9 -280.05
Q 6 -212 7.6 -74.5 8.35 -4.85 9.45 58.65 9.5 59.55 9.85 60.2 10.15 60.8 10.65 60.8
L 10.7 60.8
Q 11.2 60.75 11.5 60.1 11.85 59.4 11.8 58.45 10.2 -36.1 9.35 -131.25 8.55 -224.25 9.2 -280.05 Z"/>
</g>
</defs>

<g transform="matrix( 0.92156982421875, 0, 0, 0.92156982421875, -401.5,193) ">
<mask id="Mask_Mask_1">
<g transform="matrix( 1, 0, 0, 1, 0,0) ">
<use xlink:href="#Mask_Cloud_copy_0_3_MASK_0_FILL"/>
</g>
</mask>

<g mask="url(#Mask_Mask_1)">
<g transform="matrix( 1, 0, 0, 1, 0,0) ">
<use xlink:href="#Cloud_copy_0_Layer3_0_FILL"/>
</g>
</g>

<g mask="url(#Mask_Mask_1)">
<g transform="matrix( 1, 0, 0, 1, 0,0) ">
<use xlink:href="#Cloud_copy_0_Layer2_0_FILL"/>
</g>

<g transform="matrix( 1, 0, 0, 1, 0,0) ">
<use xlink:href="#Cloud_copy_0_Layer2_1_FILL"/>
</g>
</g>

<g mask="url(#Mask_Mask_1)">
<g transform="matrix( 1, 0, 0, 1, 0,0) ">
<use xlink:href="#Cloud_copy_0_Layer1_0_FILL"/>
</g>
</g>
</g>

<g transform="matrix( 0.92156982421875, 0, 0, 0.92156982421875, -367.5,76.4) ">
<mask id="Mask_Mask_2">
<g transform="matrix( 1, 0, 0, 1, 0,0) ">
<use xlink:href="#Mask_Cloud_copy_2_1_3_MASK_0_FILL"/>
</g>
</mask>

<g mask="url(#Mask_Mask_2)">
<g transform="matrix( 1, 0, 0, 1, 0,0) ">
<use xlink:href="#Cloud_copy_2_1_Layer3_0_FILL"/>
</g>
</g>

<g mask="url(#Mask_Mask_2)">
<g transform="matrix( 1, 0, 0, 1, 0,0) ">
<use xlink:href="#Cloud_copy_2_1_Layer2_0_FILL"/>
</g>

<g transform="matrix( 1, 0, 0, 1, 0,0) ">
<use xlink:href="#Cloud_copy_2_1_Layer2_1_FILL"/>
</g>
</g>

<g mask="url(#Mask_Mask_2)"/>
</g>

<g transform="matrix( 0.92156982421875, 0, 0, 0.92156982421875, -280,207.45) ">
<mask id="Mask_Mask_3">
<g transform="matrix( 1, 0, 0, 1, 0,0) ">
<use xlink:href="#Mask_Cloud_copy_3_0_3_MASK_0_FILL"/>
</g>
</mask>

<g mask="url(#Mask_Mask_3)">
<g transform="matrix( 1, 0, 0, 1, 0,0) ">
<use xlink:href="#Cloud_copy_3_0_Layer3_0_FILL"/>
</g>
</g>

<g mask="url(#Mask_Mask_3)">
<g transform="matrix( 1, 0, 0, 1, 0,0) ">
<use xlink:href="#Cloud_copy_3_0_Layer2_0_FILL"/>
</g>

<g transform="matrix( 1, 0, 0, 1, 0,0) ">
<use xlink:href="#Cloud_copy_3_0_Layer2_1_FILL"/>
</g>
</g>

<g mask="url(#Mask_Mask_3)">
<g transform="matrix( 1, 0, 0, 1, 0,0) ">
<use xlink:href="#Cloud_copy_3_0_Layer1_0_FILL"/>
</g>
</g>
</g>

<g transform="matrix( 0.92156982421875, 0, 0, 0.92156982421875, 192.45,77.75) ">
<mask id="Mask_Mask_4">
<g transform="matrix( 1, 0, 0, 1, 0,0) ">
<use xlink:href="#Mask_Cloud_copy_4_0_3_MASK_0_FILL"/>
</g>
</mask>

<g mask="url(#Mask_Mask_4)">
<g transform="matrix( 1, 0, 0, 1, 0,0) ">
<use xlink:href="#Cloud_copy_4_0_Layer3_0_FILL"/>
</g>
</g>

<g mask="url(#Mask_Mask_4)">
<g transform="matrix( 1, 0, 0, 1, 0,0) ">
<use xlink:href="#Cloud_copy_4_0_Layer2_0_FILL"/>
</g>

<g transform="matrix( 1, 0, 0, 1, 0,0) ">
<use xlink:href="#Cloud_copy_4_0_Layer2_1_FILL"/>
</g>
</g>

<g mask="url(#Mask_Mask_4)">
<g transform="matrix( 1, 0, 0, 1, 0,0) ">
<use xlink:href="#Cloud_copy_4_0_Layer1_0_FILL"/>
</g>
</g>
</g>

<g transform="matrix( 0.92156982421875, 0, 0, 0.92156982421875, -266.55,138.35) ">
<mask id="Mask_Mask_5">
<g transform="matrix( 1, 0, 0, 1, 0,0) ">
<use xlink:href="#Mask_Cloud_copy_5_1_3_MASK_0_FILL"/>
</g>
</mask>

<g mask="url(#Mask_Mask_5)">
<g transform="matrix( 1, 0, 0, 1, 0,0) ">
<use xlink:href="#Cloud_copy_5_1_Layer3_0_FILL"/>
</g>
</g>

<g mask="url(#Mask_Mask_5)">
<g transform="matrix( 1, 0, 0, 1, 0,0) ">
<use xlink:href="#Cloud_copy_5_1_Layer2_0_FILL"/>
</g>

<g transform="matrix( 1, 0, 0, 1, 0,0) ">
<use xlink:href="#Cloud_copy_5_1_Layer2_1_FILL"/>
</g>
</g>

<g mask="url(#Mask_Mask_5)"/>
</g>
</svg>
