
<svg xmlns="http://www.w3.org/2000/svg" version="1.1" xmlns:xlink="http://www.w3.org/1999/xlink" preserveAspectRatio="none" x="0px" y="0px" width="380px" height="217px" viewBox="0 0 380 217">
<defs>
<g id="Symbol_1_3_Layer1_0_FILL">
<path fill="#000000" stroke="none" d="
M 66.9 -44.2
Q 73.05 -44.2 77.7 -38.95 82.85 -33 84.4 -21.9
L -104 -21.9 -99.85 -14.05 -91.25 -14.05 -91.25 -10.95
Q -91.25 -8.2 -88.85 -5.05 -85.75 -0.9 -79.15 3.1 -84 5.85 -85.65 8.3 -87.4 10.8 -87.4 14.45 -87.4 21.05 -80.35 26.55 -73.9 31.65 -67 31.65 -60.45 31.65 -55.4 29.4 -51.25 27.55 -46.6 22.9
L -46.6 46.55 -38.25 51.45 -38.25 -14.05 -9.3 -14.05
Q -9.3 -13.2 -8.9 -11.05 -8.8 -9.4 -8.8 -5.7 -8.8 5.55 -9.25 8.75 -9.65 11.95 -10.55 11.95 -11.2 11.95 -14.9 9.9 -18.7 7.8 -19.3 7.8 -20.8 7.8 -22.05 9.45 -23.35 11.05 -23.35 12.7 -23.35 13.9 -22.15 16.05 -20.6 19.05 -17.05 23.45 -12.35 29.25 -4.95 37.35 2.45 45.45 9.2 52.5
L 13.05 47.95
Q 7.45 42.35 1.8 36.75 -9.55 25.2 -9.55 24.25 -9.55 23.3 -8.85 22.65 -8.2 21.95 -5.3 20.1 -3.45 19 -1.9 16.05 -0.3 13.1 -0.3 10.05
L -0.3 -14.05 54.55 -14.05 54.55 4.45 28.8 4.45
Q 23.2 4.45 21.2 5.35 19.15 6.35 19.15 8.6 19.15 10.55 23.95 17.4 28.75 24.25 30.65 24.25 31.7 24.25 32.4 23.55 33.2 22.8 33.2 21.25
L 33.2 13.75
Q 33.2 12.8 33.9 12.55 34.55 12.35 36.3 12.35
L 54.55 12.35 54.55 46.55 63.05 51.45 63.05 -14.05 82.7 -14.05 82.7 46.55 90.95 51.45 90.95 -14.05 104.05 -14.05 99.8 -21.9 88.7 -21.9
Q 86.65 -36.95 80.45 -44.8 74.7 -52.05 66.45 -52.05 60.2 -52.05 56.15 -48.2 52.05 -44.45 52.05 -37.9 52.05 -36.3 53.15 -33.45 54.3 -30.5 55.2 -29.65
L 58.3 -30.85
Q 58.3 -44.2 66.9 -44.2
M -81.85 -7.4
Q -81.85 -10 -81.15 -11.55 -80.4 -13.05 -79.35 -14.05
L -46.6 -14.05 -46.6 12.85
Q -54.65 20.05 -60.15 23.2 -66.4 26.65 -71.9 26.65 -75.5 26.65 -77.7 24.1 -79.85 21.55 -79.85 17.8 -79.85 13.55 -76.5 11.6 -74 10.05 -70.1 10.05 -69.15 10.05 -64.75 11.15 -60.35 12.35 -59.5 12.35 -59 12.35 -58.5 12.1 -57.95 11.85 -57.95 11.15
L -60.45 4.45
Q -62.5 2.95 -66.5 2.3 -70.6 1.7 -74.7 1.7 -77.7 -0.3 -79.75 -2.85 -81.85 -5.45 -81.85 -7.4 Z"/>
</g>
</defs>

<g transform="matrix( 0.92156982421875, 0, 0, 0.92156982421875, 190,108.5) ">
<g transform="matrix( 1, 0, 0, 1, -0.05,4.5) ">
<g transform="matrix( 1, 0, 0, 1, 0,0) ">
<use xlink:href="#Symbol_1_3_Layer1_0_FILL"/>
</g>
</g>
</g>
</svg>
