
<svg xmlns="http://www.w3.org/2000/svg" version="1.1" xmlns:xlink="http://www.w3.org/1999/xlink" preserveAspectRatio="none" x="0px" y="0px" width="686px" height="560px" viewBox="0 0 686 560">
<defs>
<g id="Duplicate_Items_Folder_Symbol_4_copy_2_14_Layer0_0_FILL">
<path fill="#0A0A0A" stroke="none" d="
M 58.85 -56
L 41.45 -73.4 19.9 -91.45
Q 10.7 -98.9 -1.05 -106.1 -29.45 -123.5 -52.15 -123.5 -61.85 -123.5 -71.05 -120.15 -83.95 -114.7 -92 -103.6 -96.25 -97.9 -97.55 -92.45 -98.9 -87.05 -98.9 -78.85
L -98.9 -74.15 -95.1 -58.45 -94.2 -55.7 -121.45 -55.7 -121.45 -43.7 -95.1 -43.7 -95.1 98.85 -79.1 98.85 -79.1 -43.7 85.75 -43.7 85.75 -4.15 78.85 -4.15 64.5 0.55 54.55 7.3 49.55 11.25
Q 49.25 9.2 46.5 7.3
L 38.4 1
Q 32.4 -3.7 24.95 -5.6 19.5 -7.65 16 -7.8 12.35 -7.95 9.7 -7.95 -9.75 -7.95 -22.1 3.65 -34.4 15.2 -34.4 33.5 -34.4 54.75 -16.2 73.95 9 100 24.2 100
L 31.7 87.4 16.45 80.25 6.05 73.65
Q -19.75 57.1 -19.75 34.7 -19.75 24.15 -11.7 13.6 -6.55 8.9 -2.75 7.15 0.9 5.55 2.7 5.25 4.3 4.95 8.4 4.95
L 17.75 6.4 28 10.65
Q 39.3 15.5 41.2 21.2
L 39.3 25.6 31.25 38.8 31.25 42.45 44.15 49.9 46.5 43.05 51 34.4 55.55 27.05 60.55 21.05 64.8 17.25 68.75 14.5 77.95 10.1 85.75 7.9 85.75 98.85 101.4 98.85 101.4 -43.7 126.3 -43.7 126.3 -56 58.85 -56
M 6.7 -84.25
L 13.6 -79.15
Q 18.9 -75.15 24.3 -69.75
L 39.1 -56 -56.65 -56 -56.65 -55.7 -79.1 -55.7 -80.6 -58.05 -82.8 -63.75 -84.55 -70.65 -84.55 -76.65
Q -84.55 -83.4 -82.5 -90.85 -76.2 -104.6 -65.35 -108.3 -60.5 -110.6 -53.35 -110.6 -44.7 -110.6 -32.7 -106.5 -20.65 -102.55 -11.3 -96.25
L 6.7 -84.25 Z"/>
</g>
</defs>

<g transform="matrix( 1.67596435546875, 0, 0, 1.67596435546875, 341.7,283.05) ">
<g transform="matrix( 1, 0, 0, 1, 0,0) ">
<use xlink:href="#Duplicate_Items_Folder_Symbol_4_copy_2_14_Layer0_0_FILL"/>
</g>
</g>
</svg>
