
<svg xmlns="http://www.w3.org/2000/svg" version="1.1" xmlns:xlink="http://www.w3.org/1999/xlink" preserveAspectRatio="none" x="0px" y="0px" width="278px" height="216px" viewBox="0 0 278 216">
<defs>
<g id="Symbol_4_0_Layer0_0_FILL">
<path fill="#000000" stroke="none" d="
M 180.7 73.55
L 180.7 65.85 95.75 65.85 95.75 73.55 149.35 73.55 149.35 90.75 116.6 90.75 113.4 91.5 110.45 93.4 108.35 96 107.8 98.85
Q 107.8 104.65 116.7 116.75 125.6 128.9 133.15 128.9
L 138.5 128.15 154.85 123.1 156.8 123.85
Q 157.15 124.2 157.7 125.05 158.15 125.95 158.15 128.35
L 158.15 131.95
Q 158.15 144.9 146.65 149.95 145 151.15 142 151.5 139.25 152.45 135.45 152.45
L 129.6 145.1
Q 121.95 137.7 115.9 137.7
L 112.3 138.45 109.7 140.4
Q 108.35 141.7 107.8 143.4
L 107.25 146.55
Q 107.25 155.85 116.05 158.7 117.55 159.6 118.9 159.6 122.5 160.5 125.05 160.5
L 131.7 160.5 133.15 162.45 141.45 170.35 151 178.65
Q 152.55 180.1 154.1 181.3 155.75 182.4 156.7 182.95
L 161.55 186.15 166.7 178 154.05 169.8 146.4 163.2 144.55 161.9 142.45 159.6
Q 146.2 159.6 151.45 157.2
L 156.15 153.8
Q 163.5 148 166.15 140.65 168.2 135.25 168.2 128.9
L 167.45 123.85
Q 166.15 120.25 165.4 119.15 162.55 115 158.15 115
L 154.1 115 144.45 118.35
Q 138.85 120.15 135.25 120.15
L 132.6 119.6 129.6 117.15 121.4 107.55 119.65 104.7 118.9 102.6 118.9 99.95 120 98.3 159.35 98.3 159.35 73.55 180.7 73.55 Z"/>
</g>
</defs>

<g transform="matrix( 1, 0, 0, 1, -0.6,-1.45) ">
<g transform="matrix( 1, 0, 0, 1, 0,-4) ">
<use xlink:href="#Symbol_4_0_Layer0_0_FILL"/>
</g>
</g>
</svg>
