
<svg xmlns="http://www.w3.org/2000/svg" version="1.1" xmlns:xlink="http://www.w3.org/1999/xlink" preserveAspectRatio="none" x="0px" y="0px" width="686px" height="560px" viewBox="0 0 686 560">
<defs>
<g id="Duplicate_Items_Folder_Symbol_4_copy_2_8_Layer0_0_FILL">
<path fill="#0A0A0A" stroke="none" d="
M 58.15 -55.65
L 40.75 -73.05 19.2 -91.1
Q 10 -98.55 -1.75 -105.75 -30.15 -123.15 -52.85 -123.15 -62.55 -123.15 -71.75 -119.8 -84.65 -114.35 -92.7 -103.25 -96.95 -97.55 -98.25 -92.1 -99.6 -86.7 -99.6 -78.5
L -99.6 -73.8 -95.8 -58.1 -94.9 -55.35 -122.15 -55.35 -122.15 -43.35 -95.8 -43.35 -95.8 99.2 -79.8 99.2 -79.8 -43.35 85.05 -43.35 85.05 -3.8 78.15 -3.8 63.8 0.9 53.85 7.65 48.85 11.6
Q 48.55 9.55 45.8 7.65
L 37.7 1.35
Q 31.7 -3.35 24.25 -5.25 18.8 -7.3 15.3 -7.45 11.65 -7.6 9 -7.6 -10.45 -7.6 -22.8 4 -35.1 15.55 -35.1 33.85 -35.1 55.1 -16.9 74.3 8.3 100.35 23.5 100.35
L 31 87.75 15.75 80.6 5.35 74
Q -20.45 57.45 -20.45 35.05 -20.45 24.5 -12.4 13.95 -7.25 9.25 -3.45 7.5 0.2 5.9 2 5.6 3.6 5.3 7.7 5.3
L 17.05 6.75 27.3 11
Q 38.6 15.85 40.5 21.55
L 38.6 25.95 30.55 39.15 30.55 42.8 43.45 50.25 45.8 43.4 50.3 34.75 54.85 27.4 59.85 21.4 64.1 17.6 68.05 14.85 77.25 10.45 85.05 8.25 85.05 99.2 100.7 99.2 100.7 -43.35 125.6 -43.35 125.6 -55.65 58.15 -55.65
M 6 -83.9
L 12.9 -78.8
Q 18.2 -74.8 23.6 -69.4
L 38.4 -55.65 -57.35 -55.65 -57.35 -55.35 -79.8 -55.35 -81.3 -57.7 -83.5 -63.4 -85.25 -70.3 -85.25 -76.3
Q -85.25 -83.05 -83.2 -90.5 -76.9 -104.25 -66.05 -107.95 -61.2 -110.25 -54.05 -110.25 -45.4 -110.25 -33.4 -106.15 -21.35 -102.2 -12 -95.9
L 6 -83.9 Z"/>
</g>
</defs>

<g transform="matrix( 1.67596435546875, 0, 0, 1.67596435546875, 341.7,283.05) ">
<g transform="matrix( 1, 0, 0, 1, 0,0) ">
<use xlink:href="#Duplicate_Items_Folder_Symbol_4_copy_2_8_Layer0_0_FILL"/>
</g>
</g>
</svg>
