
<svg xmlns="http://www.w3.org/2000/svg" version="1.1" xmlns:xlink="http://www.w3.org/1999/xlink" preserveAspectRatio="none" x="0px" y="0px" width="152px" height="82px" viewBox="0 0 152 82">
<defs>
<linearGradient id="Gradient_1" gradientUnits="userSpaceOnUse" x1="0" y1="41.475" x2="0" y2="-41.37500000000001" spreadMethod="pad">
<stop  offset="0%" stop-color="#214F7C"/>

<stop  offset="100%" stop-color="#1F76CB"/>
</linearGradient>

<filter id="Filter_1" x="-20%" y="-20%" width="140%" height="140%" color-interpolation-filters="sRGB">
<feFlood flood-color="#5AA8F5" flood-opacity="1" in="SourceGraphic" result="result1"/>

<feComposite in2="SourceGraphic" in="result1" operator="in" result="result2"/>

<feGaussianBlur in="result2" stdDeviation="1.3333333333333333,1.3333333333333333" result="result3"/>

<feFlood flood-color="#051E37" flood-opacity="1" in="SourceGraphic" result="result4"/>

<feComposite in2="SourceGraphic" in="result4" operator="in" result="result5"/>

<feGaussianBlur in="result5" stdDeviation="1.3333333333333333,1.3333333333333333" result="result6"/>

<feOffset dx="2.8284271247461903" dy="2.8284271247461903" in="result3" result="result7"/>

<feOffset dx="-2.8284271247461903" dy="-2.8284271247461903" in="result3" result="result8"/>

<feOffset dx="-2.8284271247461903" dy="-2.8284271247461903" in="result6" result="result9"/>

<feOffset dx="2.8284271247461903" dy="2.8284271247461903" in="result6" result="result10"/>

<feColorMatrix in="SourceGraphic" type="matrix" values="0 0 0 0 255 0 0 0 0 255 0 0 0 0 255 0 0 0 255 0" result="result11"/>

<feFlood flood-color="#000000" flood-opacity="0" in="SourceGraphic" result="result12"/>

<feComposite in2="result8" in="result7" operator="arithmetic" k1="0" k2="-1" k3="1" k4="0" result="result13"/>

<feComposite in2="result10" in="result9" operator="arithmetic" k1="0" k2="-1" k3="1" k4="0" result="result14"/>

<feComposite in2="result12" in="result13" operator="xor" result="result15"/>

<feComposite in2="result15" in="result14" operator="xor" result="result16"/>

<feComposite in2="result11" in="result16" operator="in" result="result17"/>

<feBlend mode="normal" in2="SourceGraphic" in="result17" result="result18"/>

<feColorMatrix in="result18" type="matrix" values="2.1413414419556847 -2.2859045409899377 1.244563099034252 0 -0.0249019607843137 -0.4404016571591944 2.141133844780169 -0.6007321876209748 0 -0.0249019607843137 -1.8575152959613095 -0.10690184906840616 3.0644171450297155 0 -0.0249019607843137 0 0 0 1 0 " result="result19"/>
</filter>

<filter id="Filter_2" x="-20%" y="-21.81851020715688%" width="140%" height="143.63702041431375%" color-interpolation-filters="sRGB">
<feFlood flood-color="#000000" flood-opacity="1" in="SourceGraphic" result="result1"/>

<feComposite in2="SourceGraphic" in="result1" operator="in" result="result2"/>

<feGaussianBlur in="result2" stdDeviation="1,1" result="result3"/>

<feOffset dx="1.4142135623730951" dy="1.4142135623730951" in="result3" result="result4"/>

<feComposite in2="result4" in="SourceGraphic" operator="over" result="result5"/>
</filter>

<g id="Symbol_20_copyaaaa_0_Layer0_0_FILL">
<path fill="url(#Gradient_1)" stroke="none" d="
M 16.2 -41.4
L 2.4 -41.4 -14.65 -41.4 -17.8 -41.4 -47.75 -41.4 -58.4 -41.4
Q -76.4 -41.4 -76.4 -23.4
L -76.4 23.45
Q -76.4 41.45 -58.4 41.45
L -23.4 41.45 -17.8 41.45 -14.65 41.45 2.4 41.45 16.2 41.45 58.4 41.45
Q 76.4 41.45 76.4 23.45
L 76.4 -23.4
Q 76.4 -41.4 58.4 -41.4
L 16.2 -41.4 Z"/>
</g>

<g id="Symbol_4_0_Layer0_0_FILL">
<path fill="#FFFFFF" stroke="none" d="
M -56.15 -5.3
L -44.25 -5.3 -44.25 3.5 -44.6 4.2
Q -44.8 4.55 -45.25 4.7
L -46.4 4.85
Q -48.5 4.85 -49.4 3.05
L -50.9 0.25 -53.05 1.65 -43.7 16.1
Q -42.2 18.35 -41.3 18.65
L -39.25 16.95 -44.05 11.35 -47.15 6.6
Q -46.75 6.8 -46.45 6.8
L -45.9 6.85 -45.4 6.8
Q -45.2 6.6 -44.75 6.6
L -43.7 6.3
Q -42.3 5.7 -42 4.65
L -41.7 3.55 -41.7 -5.3 -32.2 -5.3 -32.2 3.5 -41.1 3.5 -39.3 5.55 -32.2 5.55 -32.2 18.65 -29.55 18.65 -29.55 -5.3 -9.9 -5.3 -9.9 7.1 -10.2 8.2 -18.55 2.5 -17.8 1.8 -15.65 1
Q -15.35 1 -14.5 1
L -13.2 1.2
Q -12.45 1.4 -12.25 1.7
L -12.6 -0.6 -13 -0.7 -13.25 -0.8 -14.5 -1 -15.65 -1
Q -16.35 -1 -16.95 -0.9 -17.65 -0.8 -18.35 -0.5 -19.65 0.1 -20.65 1.1 -22.8 3.2 -22.8 6.1 -22.8 7.65 -22.3 9.05 -21.65 10.3 -20.45 11.35 -19.2 12.45 -18 12.9 -16.7 13.3 -15.2 13.3
L -13.75 13.2
Q -12.95 13.05 -12.35 12.75
L -11.05 12.1
Q -10.3 11.6 -9.9 11
L -9.9 18.65 -7.2 18.65 -7.2 -5.3 -3.6 -5.3 -3.7 -7.35 -56.15 -7.35 -56.15 -5.3
M -20.2 6.1
L -20.2 5.45 -19.6 3.7 -11.35 9.55 -11.95 10.1 -12.45 10.45
Q -12.9 10.8 -13.15 10.9 -13.4 11.05 -13.8 11.15
L -14.35 11.35 -15.15 11.35
Q -15.95 11.35 -17.1 11 -18.05 10.55 -18.75 9.8 -19.55 9.1 -19.9 8.2 -20.2 7.3 -20.2 6.1
M 20.15 -13.3
Q 18.6 -14.55 16.65 -15.8 11.85 -18.7 8.05 -18.7 6.4 -18.7 4.85 -18.15 2.7 -17.25 1.35 -15.35 0.65 -14.4 0.4 -13.5 0.2 -12.6 0.2 -11.2
L 0.2 -10.4 1 -7.3 -3.6 -7.3 -3.6 -5.3 0.85 -5.3 0.85 18.65 3.5 18.65 3.5 -5.3 13.7 -5.3 13.7 3.7 11.55 3.7 11 3.85 10.75 3.95
Q 10.45 4.15 10.25 4.45
L 10.1 5.1
Q 10.15 5.75 10.55 6.4 12.25 8.5 13.15 9.4 14.4 10.75 15.15 10.75
L 15.85 10.65 16.25 10.35 16.25 5.95 25.5 5.95 25.5 18.65 28.1 18.65 28.1 -5.3 48.4 -5.3 48.4 0.3 41.4 0.3
Q 38.75 0.3 36.75 2.2 34.75 4.1 34.75 6.9 34.75 11.05 38.15 14.2 41.55 17.35 46.1 17.35 49.4 17.35 52.1 15.4 53.65 14.2 54.65 12.55
L 52.5 11.35 51.15 13.05
Q 48.95 15.3 45.7 15.3 42.3 15.3 39.85 12.7 37.45 10.1 37.45 7.1 37.45 6 37.75 5.4 38.65 3.6 40.15 2.95 40.65 2.7 40.95 2.6 41.3 2.55 42 2.55
L 50.95 2.55 50.95 -5.3 56.15 -5.3 56.15 -7.35 26.7 -7.35 20.15 -13.3
M 11.3 -15.85
Q 13.35 -15.2 14.9 -14.15
L 19.1 -11.25
Q 20 -10.6 20.9 -9.65
L 23.35 -7.35 7.3 -7.35 7.3 -7.3 3.5 -7.3 3.25 -7.7 2.6 -9.8 2.6 -10.85
Q 2.6 -11.95 2.95 -13.2 4 -15.55 5.85 -16.15 6.65 -16.55 7.85 -16.55 9.3 -16.55 11.3 -15.85
M 16.25 -5.3
L 25.5 -5.3 25.5 3.7 16.25 3.7 16.25 -5.3 Z"/>
</g>
</defs>

<g transform="matrix( 1, 0, 0, 1, 76.4,41.4) ">
<g filter="url(#Filter_1)" transform="matrix( 1, 0, 0, 1, 0,0) ">
<g transform="matrix( 1, 0, 0, 1, 0,0) ">
<g transform="matrix( 1, 0, 0, 1, 0,0) ">
<use xlink:href="#Symbol_20_copyaaaa_0_Layer0_0_FILL"/>
</g>
</g>
</g>

<g filter="url(#Filter_2)" transform="matrix( 1, 0, 0, 1, 0,0) ">
<g transform="matrix( 1, 0, 0, 1, -0.15,-1.9) ">
<g transform="matrix( 1, 0, 0, 1, 0,0) ">
<use xlink:href="#Symbol_4_0_Layer0_0_FILL"/>
</g>
</g>
</g>
</g>
</svg>
