
<svg xmlns="http://www.w3.org/2000/svg" version="1.1" xmlns:xlink="http://www.w3.org/1999/xlink" preserveAspectRatio="none" x="0px" y="0px" width="1365px" height="350px" viewBox="0 0 1365 350">
<defs>
<g id="Layer0_0_FILL">
<path fill="#000000" stroke="none" d="
M 79.25 118.2
L 79.25 130.35 129.75 130.35
Q 120.1 141.35 111.6 157.35 103.05 173.35 98.45 190.55 93.9 207.8 93.7 219.95
L 106.7 219.95
Q 107.75 204.55 111.55 191.6 116.8 173.25 126.5 155.9 136.15 138.55 146 128.05
L 146 118.2 79.25 118.2
M 242.85 145.05
Q 242.85 132.9 234.2 124.7 225.55 116.45 210.7 116.45 196 116.45 187.3 124.1 178.6 131.7 177.25 146.25
L 190.25 147.6
Q 190.35 137.9 195.8 132.4 201.3 126.95 210.45 126.95 219.1 126.95 224.5 132.15 229.85 137.25 229.85 144.8 229.85 151.95 223.95 160.05 218.05 168.05 201.25 181.85 190.4 190.7 184.7 197.45 178.95 204.2 176.35 211.15 174.7 215.4 174.85 219.95
L 243 219.95 243 207.8 192.45 207.8
Q 194.55 204.35 197.8 200.95 201 197.5 212.4 187.95 226.05 176.45 231.95 169.8 237.8 163.2 240.3 157.25 242.85 151.25 242.85 145.05
M 546.4 124.1
Q 537.7 131.7 536.35 146.25
L 549.35 147.6
Q 549.45 137.9 554.9 132.4 560.4 126.95 569.55 126.95 578.2 126.95 583.6 132.15 588.95 137.25 588.95 144.8 588.95 151.95 583.05 160.05 577.15 168.05 560.35 181.85 549.5 190.7 543.8 197.45 538.05 204.2 535.45 211.15 533.8 215.4 533.95 219.95
L 602.1 219.95 602.1 207.8 551.55 207.8
Q 553.65 204.35 556.9 200.95 560.1 197.5 571.5 187.95 585.15 176.45 591.05 169.8 596.9 163.2 599.4 157.25 601.95 151.25 601.95 145.05 601.95 132.9 593.3 124.7 584.65 116.45 569.8 116.45 555.1 116.45 546.4 124.1
M 686.85 116.85
L 676.5 116.85 629.5 183.65 629.5 195.25 674.2 195.25 674.2 219.95 686.85 219.95 686.85 195.25 700.75 195.25 700.75 183.65 686.85 183.65 686.85 116.85
M 674.2 137.2
L 674.2 183.65 641.9 183.65 674.2 137.2
M 870.65 158.25
L 870.65 141.45 779 141.45 779 158.25 870.65 158.25
M 870.65 196.75
L 870.65 179.9 779 179.9 779 196.75 870.65 196.75
M 981.65 119.1
L 973.9 119.1
Q 970.8 125.4 963.25 132.15 955.7 138.9 945.6 143.65
L 945.6 155.3
Q 951.2 153.2 958.3 149.05 965.3 144.95 969.65 140.8
L 969.65 217.4 981.65 217.4 981.65 119.1
M 1030.35 120.75
L 1030.35 132.3 1078.3 132.3
Q 1069.15 142.7 1061.05 157.95 1052.9 173.1 1048.55 189.5 1044.2 205.85 1044 217.4
L 1056.4 217.4
Q 1057.4 202.75 1061 190.5 1066 173.05 1075.2 156.55 1084.35 140.05 1093.7 130.1
L 1093.7 120.75 1030.35 120.75
M 1276.2 144.65
Q 1276.2 133.95 1268.4 126.55 1260.6 119.1 1247.75 119.1 1235 119.1 1227.3 126.35 1219.65 133.65 1219.65 144.35 1219.65 151.4 1223.25 156.5 1226.85 161.55 1234.35 164.3 1225.4 166.65 1220.55 173.1 1215.7 179.55 1215.7 189.1 1215.7 201.9 1224.6 210.5 1233.45 219.05 1247.95 219.05 1262.45 219.05 1271.35 210.5 1280.2 201.95 1280.2 189.4 1280.2 180.35 1275.55 173.8 1270.8 167.25 1261.8 164.3 1269.05 161.55 1272.65 156.55 1276.2 151.45 1276.2 144.65
M 1259.3 133.5
Q 1263.85 138 1263.85 144.6 1263.85 150.95 1259.45 155.35 1254.95 159.7 1248 159.7 1240.9 159.7 1236.4 155.3 1231.95 150.85 1231.95 143.95 1231.95 137.8 1236.45 133.35 1241 128.95 1247.9 128.95 1254.7 128.95 1259.3 133.5
M 1228.05 189.15
Q 1228.05 180.75 1233.65 175.1 1239.2 169.5 1247.7 169.5 1256.35 169.5 1262.2 175.2 1267.95 180.85 1267.95 189.55 1267.95 198.1 1262.3 203.65 1256.7 209.2 1248.1 209.2 1242.55 209.2 1237.75 206.6 1232.95 203.9 1230.5 199.1 1228.05 194.3 1228.05 189.15
M 1185.75 146.25
Q 1185.75 134.7 1177.5 126.9 1169.3 119.1 1155.2 119.1 1141.25 119.1 1132.95 126.35 1124.7 133.55 1123.4 147.4
L 1135.75 148.65
Q 1135.85 139.45 1141.05 134.25 1146.25 129.05 1154.95 129.05 1163.15 129.05 1168.3 133.95 1173.4 138.85 1173.4 146 1173.4 152.8 1167.75 160.5 1162.15 168.1 1146.2 181.2 1135.9 189.6 1130.5 196.05 1125 202.45 1122.55 209.05 1121 213.05 1121.15 217.4
L 1185.85 217.4 1185.85 205.85 1137.85 205.85
Q 1139.85 202.55 1142.9 199.35 1146 196.1 1156.8 187 1169.75 176.05 1175.4 169.75 1180.9 163.5 1183.35 157.8 1185.75 152.15 1185.75 146.25 Z"/>
</g>

<g id="Layer0_1_FILL">
<path fill="#000000" stroke="none" d="
M 54.75 -71.75
Q 48.5080078125 -71.194140625 42.4 -65.15
L 0 -22.7 -41.65 -64.35
Q -47.611328125 -70.30859375 -53.95 -70.8
L -53.85 -70.8
Q -60.730859375 -71.741796875 -66.3 -66.2
L -66.35 -66.2
Q -71.260546875 -61.3984375 -70.5 -53.8
L -70.5 -53.85
Q -70.026953125 -47.2279296875 -64.6 -41.8
L -22.75 0.05 -65.75 43
Q -70.8037109375 48.1140625 -71.55 54.9 -71.542578125 55.0109375 -71.55 55.1 -72.1470703125 62.525390625 -67.4 67.1
L -67.35 67.15
Q -61.841796875 72.626953125 -54.85 71.65
L -54.95 71.7
Q -48.7197265625 71.2150390625 -42.7 65.15
L -0.15 22.65 41.5 64.3
Q 47.50234375 70.2884765625 53.75 70.8
L 53.8 70.85
Q 60.83515625 71.467578125 66.05 66.2 70.996484375 61.3359375 70.4 54.05 69.858203125 47.1650390625 64.4 41.7
L 22.6 -0.1 65.3 -42.85 65.3 -42.85
Q 70.5724609375 -48.1580078125 71.2 -54.85 71.2439453125 -54.98046875 71.25 -55.1
L 71.25 -55
Q 71.8443359375 -62.6345703125 67 -67.3
L 67 -67.3
Q 61.7068359375 -72.56484375 55.05 -71.75 54.903515625 -71.7427734375 54.75 -71.75 Z"/>
</g>
</defs>

<g transform="matrix( 1, 0, 0, 1, 0,0) ">
<use xlink:href="#Layer0_0_FILL"/>
</g>

<g transform="matrix( 0.584075927734375, 0, 0, 0.584075927734375, 399.35,170.25) ">
<use xlink:href="#Layer0_1_FILL"/>
</g>
</svg>
