
<svg xmlns="http://www.w3.org/2000/svg" version="1.1" xmlns:xlink="http://www.w3.org/1999/xlink" preserveAspectRatio="none" x="0px" y="0px" width="278px" height="216px" viewBox="0 0 278 216">
<defs>
<g id="Symbol_4_3_Layer0_0_FILL">
<path fill="#000000" stroke="none" d="
M 176.7 72.55
Q 178 72.95 180.5 74 183.05 75.1 185.15 77.2
L 186.95 79.8 188.3 82.75 189.65 87.2 201.65 86.45 200.1 79.6
Q 195.85 67.9 184.9 64 179.65 62.25 173.85 62.25 158.05 62.25 149.25 73.4 138.9 86.25 138.9 114.75
L 139.45 126.8
Q 141.25 143.2 148.2 151.1 158.05 161.65 172.6 161.65 180.95 161.65 188.4 157.75
L 194.5 152.7
Q 200.5 146.25 202.3 137.7 202.85 135.4 203.05 133.1 203.25 130.8 203.25 128.75 203.25 125.2 202.7 121.95 202.1 118.75 201.05 116.25 197.65 107.5 190.4 102.15 183.15 96.95 174.4 96.95
L 167.55 97.9 160.9 100.25
Q 154.7 103.4 150.6 109.95
L 150.8 103.4 152.8 91.9 154.3 87.4 158.05 80.35
Q 164.4 72.15 173.15 72.15 175.25 72.15 176.7 72.55
M 164.3 109
Q 167.25 107.5 172 107.5 180.2 107.5 185.55 113.1 190.95 118.85 190.95 129.3
L 190.95 134.65
Q 187.65 152.15 172.5 152.15
L 167.05 151.4 162.1 149 157.95 145.3 155 140.65 153.55 137.7 152.8 134.8 152.8 124.25
Q 155.55 112.55 164.3 109
M 108.65 62.1
L 100.95 62.1 96.55 68.75
Q 93.05 72.85 89.9 75.4
L 81.8 81.9
Q 76.25 85.2 72.55 86.55
L 72.55 98.35 81.9 94.25 91.7 88
Q 94.15 86.25 96.55 83.7
L 96.55 160.15 108.65 160.15 108.65 62.1 Z"/>
</g>
</defs>

<g transform="matrix( 1, 0, 0, 1, -0.8,-1.45) ">
<g transform="matrix( 1, 0, 0, 1, 0,0) ">
<use xlink:href="#Symbol_4_3_Layer0_0_FILL"/>
</g>
</g>
</svg>
