
<svg xmlns="http://www.w3.org/2000/svg" version="1.1" xmlns:xlink="http://www.w3.org/1999/xlink" preserveAspectRatio="none" x="0px" y="0px" width="278px" height="216px" viewBox="0 0 278 216">
<defs>
<g id="Symbol_4_2_Layer0_0_FILL">
<path fill="#000000" stroke="none" d="
M 183.35 69.65
L 169.85 58.35
Q 164.05 53.7 156.7 49.15 138.9 38.25 124.65 38.25 118.6 38.25 112.8 40.35 104.7 43.75 99.65 50.75 97 54.3 96.15 57.7 95.35 61.1 95.35 66.25
L 95.35 69.2 98.25 80.8 81.15 80.8 81.15 88.3 97.7 88.3 97.7 177.75 107.7 177.75 107.7 88.3 123.75 88.3 123.75 80.8 107.7 80.8 106.8 79.3 105.45 75.75 104.35 71.4 104.35 67.65
Q 104.35 63.4 105.6 58.75 109.55 50.1 116.35 47.8 119.4 46.3 123.9 46.3 129.35 46.3 136.85 48.9 144.4 51.4 150.3 55.35
L 165.9 66.1
Q 169.2 68.55 172.6 71.95
L 181.9 80.6 194.5 80.8 183.35 69.65 Z"/>
</g>
</defs>

<g transform="matrix( 1, 0, 0, 1, -0.6,-1.45) ">
<g transform="matrix( 1, 0, 0, 1, 1.5,0) ">
<use xlink:href="#Symbol_4_2_Layer0_0_FILL"/>
</g>
</g>
</svg>
