
<svg xmlns="http://www.w3.org/2000/svg" version="1.1" xmlns:xlink="http://www.w3.org/1999/xlink" preserveAspectRatio="none" x="0px" y="0px" width="278px" height="216px" viewBox="0 0 278 216">
<defs>
<g id="Layer0_0_FILL">
<path fill="#000000" stroke="none" d="
M 197.2 71.4
Q 189.45 64.05 176.25 64.05 163.85 64.05 155.55 71.3
L 152.05 75.4 149.65 79.7 148.35 84.15
Q 148.35 85.3 148.35 89.2
L 149.1 95.7
Q 150.05 98.75 152.05 101.3 155.75 106.9 163.2 109.1 153 112.65 149.45 117.85
L 146.15 123.3 145.45 125.1
Q 144.6 126.65 144.6 129.2
L 144.6 133.85
Q 144.6 139.65 147 145.55 150.05 151.75 153.75 155.5 161.65 163.45 176.6 163.45 180.15 163.45 183.55 162.9 187 162.35 189.95 161.3 202.05 157.3 206.7 146.15 208.15 143 208.5 140.45 208.9 137.95 208.9 134.25 208.9 131.65 208.5 129.75 208.15 127.75 207.55 125.5 204.6 116.9 198.3 113 195.35 110.25 190.5 109.1 196.4 106.75 199.95 103.3 203.45 99.75 204.05 95.85 205 93.85 205 89.6 205 78.75 197.2 71.4
M 165.1 78.45
Q 169.85 73.95 176.7 73.95 180.15 73.95 182.5 75.1
L 188.05 78.45
Q 192.7 83.8 192.7 89.6 192.7 92.75 191.55 95.5
L 188.25 100.15
Q 183.65 104.65 176.9 104.65 173.35 104.65 169.85 103.5 164.5 101.7 161.55 95.3 160.6 92.75 160.6 88.85 161.75 81.8 165.1 78.45
M 168.5 115.85
Q 171.65 114.35 176.3 114.35 179.95 114.35 184.05 115.7 192.7 119.4 195 126.45 196.6 129.6 196.6 134.25 196.6 142.6 191.1 148.35 185.55 153.95 176.8 153.95
L 171.1 153.4 166.15 151.4 162.05 148.35 159.1 143.75 157.3 138.9 156.7 133.85
Q 156.7 130.9 158.05 126.45 161.45 118.25 168.5 115.85
M 81.9 93.7
Q 81.9 89.6 83.25 85.5 87.55 73.95 101.05 73.95 109.8 73.95 114.55 79.1 119.35 84.35 119.35 90.9
L 119.35 94.65
Q 117.7 100.75 113.8 105.75
L 105.35 114.7 82.95 134.05 76.65 140.9
Q 70.4 148.35 68.85 153.75
L 67.65 157.85
Q 67.25 158.8 67.25 161.95
L 131.8 161.95 131.8 150.45 83.8 150.45 88.85 144.15 94 139.3 102.95 131.95 113.4 122.55 121.25 114.55 125.9 108.55 127.9 105.4 130.45 99.6
Q 131.25 98.15 131.25 97
L 131.6 91.2
Q 131.6 79.3 123.15 71.7 114.65 64.05 101.25 64.05 86.95 64.05 78.85 71.5 70.75 78.9 69.6 92.15
L 81.9 93.7 Z"/>
</g>
</defs>

<g transform="matrix( 1, 0, 0, 1, -0.6,-1.45) ">
<g transform="matrix( 1, 0, 0, 1, 0,0) ">
<use xlink:href="#Layer0_0_FILL"/>
</g>
</g>
</svg>
