
<svg xmlns="http://www.w3.org/2000/svg" version="1.1" xmlns:xlink="http://www.w3.org/1999/xlink" preserveAspectRatio="none" x="0px" y="0px" width="1009px" height="103px" viewBox="0 0 1009 103">
<defs/>

<g id="Layer_1">
<g transform="matrix( 1, 0, 0, 1, 504.5,51.5) ">
<g id="Layer_2">
<g transform="matrix( 1.215423583984375, 0, 0, 1.215423583984375, -19.75,-1.5) ">
<g id="Layer_1">
<g transform="matrix( 1, 0, 0, 1, 0,0) ">
<g>
<g>
<path fill="#FFFFFF" stroke="none" d="
M 7.25 -16
Q 3.3 -18.45 0.1 -18.45 -1.25 -18.45 -2.55 -17.95 -4.35 -17.2 -5.5 -15.65 -6.05 -14.85 -6.25 -14.1 -6.45 -13.3 -6.45 -12.2
L -6.45 -11.5 -5.8 -8.95 -18.75 -9 -18.75 -7.25 -14.7 -7.25 -14.7 1.3 -16.7 1.9 -18.65 1.9 -20.05 1.35 -20.55 1.05 -20.95 0.9 -21.35 0.65 -22.55 0.05 -22.95 -0.05 -23.15 0
Q -20.75 -1.35 -20.75 -4 -20.75 -6 -22.05 -7.4 -23.6 -9 -25.6 -9 -28.25 -9 -30.35 -7.25
L -31.7 -6.15
Q -32 -5.85 -32.1 -5.75 -32.15 -5.65 -32.2 -5.55
L -30.55 -4.2 -29 -5.75 -28.15 -6.45
Q -26.85 -7.25 -25.8 -7.25 -25.1 -7.25 -24.35 -6.95 -23.15 -6.4 -22.9 -5.25 -22.75 -4.8 -22.75 -4 -22.75 -3.1 -23.2 -2.3 -24.25 -0.7 -26.15 -0.2 -26.4 -0.15 -26.95 -0.05 -27.45 -0.05 -28 -0.05
L -27.25 1.5 -26.8 1.5
Q -26.4 1.3 -25.9 1.3
L -25.2 1.3
Q -24 1.3 -22.75 1.95 -21.55 2.55 -21.25 3.7 -21 4.15 -20.95 4.5 -20.9 4.75 -20.9 5.45 -20.9 6.1 -21.2 6.85 -22.25 9.2 -24.2 9.2 -27 9.2 -29.55 5.4
L -31.9 1.5 -33.65 2.65
Q -33.65 3.8 -30.9 7 -29.3 8.95 -27.65 9.9 -26.7 10.4 -25.95 10.65 -25.2 10.85 -24.3 10.85
L -23.15 10.85
Q -18.8 10 -18.8 5.55
L -18.8 4.6 -19.05 3.65 -19.2 3.35 -19.35 2.9 -18.9 3.1 -17.6 3.5 -15.95 3.5 -14.7 3.15 -14.7 12.7 -12.55 12.7 -12.55 -7.25 -5.9 -7.25 -5.9 12.7 -3.65 12.7 -3.65 -7.25 -0.1 -7.25 -0.1 -8.95 -3.65 -8.95 -3.9 -9.25 -4.45 -11.05 -4.45 -11.85
Q -4.45 -12.8 -4.15 -13.85 -3.25 -15.8 -1.75 -16.3 -1.05 -16.65 -0.05 -16.65 1.15 -16.65 2.85 -16.05 4.5 -15.5 5.8 -14.6
L 8.35 -12.95 9.3 -12.2
Q 10.05 -11.65 10.8 -10.9
L 12.9 -9 10.15 -9 10.15 -7.4 10.15 -7.2 14.3 -7.25 14.3 3.15 12.35 5.1
Q 9.7 7.1 7.15 7.1
L 5.85 6.9
Q 3.65 6.05 3.65 4.25 3.65 1.75 6.25 1.15 6.65 0.95 7.9 0.95
L 10.7 0.85 9.75 -0.85 6.55 -0.75 5.1 -0.4
Q 4.5 -0.5 4.15 -0.8 3.75 -1.1 3.45 -1.35 3.2 -1.6 2.9 -2.1 2 -3.2 2 -4.8
L 2.15 -5.8 2.55 -6.6
Q 3.2 -7.4 4.1 -7.4 6 -7.4 6 -5.7
L 6 -4.35 7.9 -4.35 7.9 -5.65
Q 7.848046875 -6.0134765625 7.75 -6.35 7.69609375 -6.6615234375 7.6 -6.95 7.5080078125 -7.1484375 7.4 -7.35 6.3935546875 -9 4 -9 2.15 -9 0.95 -7.8 -0.2 -6.6 -0.2 -4.7 -0.15 -3.95 0.05 -3.15
L 0.9 -1.6
Q 2.2 -0.05 3.45 0.6
L 2.4 1.55
Q 1.35 2.9 1.35 4.3 1.35 6.25 3.05 7.5 4.8 8.8 6.75 8.8 9.8 8.8 12.25 7.1
L 13.75 6.1
Q 14.176953125 5.7796875 14.3 5.5
L 14.3 12.7 16.55 12.7 16.55 -7.25 32.45 -7.25 32.45 3.2
Q 32.45 4 31.6 4.9 30.05 6.45 28.55 6.45 27.85 6.45 26.95 6.15 24.9 5.1 24.9 2.45 24.9 0.75 25.95 -0.55 26.95 -1.8 28.7 -1.8
L 29.35 -1.8 29.95 -1.55 30.15 -1.35 30.6 -1.25 30.6 -3.05
Q 30.3 -3.25 29.45 -3.35
L 28.3 -3.45 27.2 -3.35
Q 25.5 -2.95 24.25 -1.8 22.5 -0.25 22.5 2.25 22.5 4.7 24.35 6.4 26.2 8.05 28.55 8.05 30.9 8.05 32.45 6.5
L 32.45 12.7 34.65 12.7 34.65 3.7
Q 34.65 3.05 35 2.15 35.45 1.15 35.9 0.5 37.4 -1.35 39.1 -1.35 41.1 -1.35 41.9 0.15 42.3 1 42.3 2.2 42.3 3 41.85 4.2 40.9 6.35 39.1 8.15 38.7 8.5 38.45 8.6
L 40.25 9.95 42.45 7.45
Q 44.6 4.7 44.6 2.35 44.6 0 42.95 -1.45 41.2 -3.05 38.85 -3.05 37.25 -3.05 35.9 -2.05
L 34.65 -0.9 34.65 -7.25 46.75 -7.25 46.75 -9 15.65 -9 10.2 -13.95
Q 8.9 -15 7.25 -16
M 362.95 -16.25
L 361.4 -14.5 369.65 -9 358.15 -9 358.15 -7.25 371.65 -7.25 371.65 -3.6 362.8 -3.6 362.05 -3.5 361.45 -3.15 360.95 -2.6 360.85 -1.85 361.25 -0.3
Q 361.5 0.5 362.3 1.55
L 363.75 3.2 362.75 4.2
Q 362.25 4.65 361.95 5.2 361.25 6.3 361.25 7.35 361.25 11.2 366.7 13.05
L 368.25 13.6
Q 370.25 14.25 371.5 14.25 372.1 14.2 372.25 14.1
L 373.05 12.6
Q 373 12.6 372.95 12.6 372.85 12.6 372.65 12.6
L 371.7 12.6 368.15 11.7
Q 365.9 11.05 364.7 9.95 363.6 8.8 363.6 7.6 363.6 6.65 363.95 5.9 365 3.45 368.9 3.45
L 370.6 3.6
Q 373.05 3.9 373.05 6.1 372.95 7.15 372.35 7.8
L 372.05 8 371.65 8.2 373.2 9.45 373.55 9.25 374.4 8.6
Q 374.9 8.05 375.1 7.5 375.3 6.95 375.3 6.1 375.3 5.15 374.85 4.2 374 2.7 371.65 2.05 370.9 1.9 370.3 1.85 369.75 1.8 369.05 1.8
L 368.1 1.8 365.55 2.3 365.25 2.15 364.1 0.7 363.9 0.35
Q 363.45 -0.1 363.35 -0.55
L 363.2 -1.25 363.35 -1.65
Q 363.5 -1.85 363.9 -1.85
L 373.9 -1.85 373.9 -7.25 378.1 -7.25 378.1 -9 374.75 -9 368 -19.55 366.05 -18.45 373.25 -9 370.7 -9 362.95 -16.25
M 376.4 -13.65
L 376.4 -16.4 373.5 -16.4 373.5 -13.65 376.4 -13.65
M 269.6 -9
L 269.6 -7.25 279.5 -7.25 279.5 0.05 279.2 0.65
Q 279 0.95 278.65 1.05
L 277.7 1.2
Q 275.95 1.2 275.2 -0.3
L 274 -2.65 272.15 -1.45 279.95 10.55
Q 281.2 12.45 282 12.7
L 283.7 11.25 282.8 10.4 277.1 2.65
Q 277.4 2.85 277.65 2.85
L 278.15 2.9 278.55 2.8
Q 278.7 2.65 279.05 2.65
L 279.95 2.45
Q 281.1 1.9 281.4 1.05
L 281.65 0.15 281.65 -7.25 289.5 -7.25 289.5 0.05 282.15 0.05 283.6 1.8 289.5 1.8 289.5 12.7 291.75 12.7 291.75 -7.25 307.5 -7.25 307.5 3.2
Q 307.5 4 306.65 4.9 305.1 6.45 303.6 6.45 302.9 6.45 302 6.15 299.95 5.1 299.95 2.45 299.95 0.75 301 -0.55 302 -1.8 303.75 -1.8
L 304.4 -1.8 305 -1.55 305.2 -1.35 305.65 -1.25 305.65 -3.05
Q 305.35 -3.25 304.5 -3.35
L 303.35 -3.45 302.25 -3.35
Q 300.55 -2.95 299.3 -1.8 297.55 -0.25 297.55 2.25 297.55 4.7 299.4 6.4 301.25 8.05 303.6 8.05 305.95 8.05 307.5 6.5
L 307.5 12.7 309.7 12.7 309.7 3.7
Q 309.7 3.05 310.05 2.15 310.5 1.15 310.95 0.5 312.45 -1.35 314.15 -1.35 316.15 -1.35 316.95 0.15 317.35 1 317.35 2.2 317.35 3 316.9 4.2 315.95 6.35 314.15 8.15 313.75 8.5 313.5 8.6
L 315.3 9.95 317.5 7.45
Q 319.65 4.7 319.65 2.35 319.65 0 318 -1.45 316.25 -3.05 313.9 -3.05 312.3 -3.05 310.95 -2.05
L 309.7 -0.9 309.7 -7.25 336.8 -7.25 336.8 -3 327.6 -3
Q 326.75 -3 325.95 -2.6 325.15 -2.15 324.8 -1.65 323.85 -0.4 323.85 1.5 323.85 3 324.25 4.35 324.65 5.75 325.55 7.25
L 326.85 9.3 329.8 12.35
Q 330 12.6 330.1 12.6 330.2 12.65 330.3 12.7
L 331.8 11.2
Q 331.4 11.2 331 10.95 329.6 10.05 327.85 7.2 326.05 4.35 326.05 1.5
L 326.2 0.45
Q 326.7 -0.85 327.65 -1 328.25 -1.25 328.95 -1.25
L 336.8 -1.25 336.8 12.7 339.05 12.7 339.05 -7.25 342.9 -7.25 342.9 -9 338.5 -9 329.9 -19.55 328.4 -17.95 337.1 -9 269.6 -9
M 211.75 -9
L 211.75 -7.25 224.55 -7.25 224.55 3.2
Q 224.55 4 223.7 4.9 222.15 6.45 220.65 6.45 219.95 6.45 219.05 6.15 217 5.1 217 2.45 217 0.75 218.05 -0.55 219.05 -1.8 220.8 -1.8
L 221.45 -1.8 222.05 -1.55 222.25 -1.35 222.7 -1.25 222.7 -3.05
Q 222.4 -3.25 221.55 -3.35
L 220.4 -3.45 219.3 -3.35
Q 217.6 -2.95 216.35 -1.8 214.6 -0.25 214.6 2.25 214.6 4.7 216.45 6.4 218.3 8.05 220.65 8.05 223 8.05 224.55 6.5
L 224.55 12.7 226.75 12.7 226.75 3.7
Q 226.75 3.05 227.1 2.15 227.55 1.15 228 0.5 229.5 -1.35 231.2 -1.35 233.2 -1.35 234 0.15 234.4 1 234.4 2.2 234.4 3 233.95 4.2 233 6.35 231.2 8.15 230.8 8.5 230.55 8.6
L 232.35 9.95 234.55 7.45
Q 236.7 4.7 236.7 2.35 236.7 0 235.05 -1.45 233.3 -3.05 230.95 -3.05 229.35 -3.05 228 -2.05
L 226.75 -0.9 226.75 -7.25 249.25 -7.25 249.25 -1.95
Q 249 -0.45 248.35 0.15 247.7 0.75 246.3 0.75 244.6 0.75 243.9 -0.3
L 242.2 -3.2 240.45 -1.95 244.7 5
Q 246.7 8.05 248.8 10.4 250.5 12.5 251.15 12.7
L 252.7 11.25 251.75 10.35 248.4 6.5 245.4 2.15
Q 245.55 2.3 246.15 2.35
L 246.95 2.35
Q 247.8 2.35 248.65 2.1 251.5 0.95 251.5 -1.8
L 251.5 -7.25 254.85 -7.25 254.85 -9 211.75 -9
M 140.55 -7.25
L 141.55 -5.9
Q 142.6 -4.15 142.6 -3 142.6 -1.2 141.55 -0.3 140.4 0.55 138.95 0.55
L 138.55 0.55
Q 138.45 0.55 138.15 0.55
L 137.8 0.45 137.45 0.3
Q 137.45 3.8 139.95 6.05 142.15 8.15 145.45 8.15 148.35 8.15 150.6 6.25
L 150.6 12.7 152.85 12.7 152.85 -7.25 159.45 -7.25 159.45 12.7 161.7 12.7 161.7 -7.25 182.05 -7.25 182.05 2.2 179.1 -0.95
Q 176.7 -3.35 175.45 -3.35 174.9 -3.35 174.15 -3.1
L 168.4 -0.85 167.1 -0.1 168.4 1.55 171.2 0.1
Q 173.7 -1.2 175.25 -1.2 176.25 -1.2 178.7 1.2
L 181.1 3.5 170.75 8.95 172.05 10.85 182.05 4.85 182.05 12.65 184.25 12.7 184.25 -7.25 190.5 -7.25 190.5 12.7 192.75 12.7 192.75 -7.25 196.85 -7.25 196.85 -9 134.6 -9 134.6 -7.25 140.55 -7.25
M 144.05 -5.8
L 143.2 -7.25 150.6 -7.25 150.6 3.2 149.65 4.5
Q 149.05 5.15 148.3 5.65 146.95 6.6 145.2 6.6 142.05 6.6 140.55 3.6
L 140.4 3.35 140.3 3 140 2.25 142.5 1.45
Q 144.95 -0.1 144.95 -2.85
L 144.75 -4.15 144.05 -5.8
M 62.3 -9
L 62.3 -7.25 82.25 -7.25 82.25 -1.7 81.25 -1.7 79.25 -1.05 78.65 -0.7 77.15 0.45
Q 77.15 0.15 76.75 -0.1
L 75.6 -1
Q 74.75 -1.65 73.7 -1.9 72.95 -2.2 72.45 -2.25 71.95 -2.25 71.6 -2.25 68.85 -2.25 67.15 -0.65 65.4 1 65.4 3.55 65.4 6.55 67.95 9.2 71.5 12.85 73.6 12.85
L 74.65 11.1 72.55 10.1 71.1 9.15
Q 67.45 6.85 67.45 3.7 67.45 2.25 68.6 0.75 69.3 0.1 69.85 -0.15 70.35 -0.35 70.6 -0.4 70.85 -0.45 71.4 -0.45
L 72.7 -0.25 74.15 0.35
Q 75.75 1.05 76 1.85
L 75.75 2.45 74.6 4.3 74.6 4.8 76.4 5.85 76.75 4.9 78 2.65 78.7 1.8 79.85 0.9 81.15 0.25 82.25 -0.05 82.25 12.7 84.45 12.7 84.45 -7.25 91.25 -7.25 91.25 12.7 93.5 12.7 93.5 -7.25 103.55 -7.25 103.55 -0.5 100.3 -0.35 100.05 -0.15
Q 99.95 -0.05 99.95 0.25 99.95 0.85 100.4 1.65 101.6 3.65 103.5 5 104.35 5.5 104.75 5.5
L 105.35 5.35
Q 105.6 5.15 105.7 4.7
L 105.7 -7.25 112.3 -7.25 112.3 12.7 114.55 12.7 114.55 -7.25 119.25 -7.25 119.25 -9 93 -9 84.4 -19.55 82.9 -17.95 91.6 -9 62.3 -9
M -62.15 -19.55
L -63.65 -17.95 -54.95 -9 -69.75 -9 -69.75 -7.25 -64.4 -7.25 -64.4 0.25 -66.2 0.25 -66.65 0.35 -66.85 0.45
Q -67.15 0.6 -67.3 0.85
L -67.45 1.4
Q -67.4 1.95 -67 2.5 -65.65 4.25 -64.9 5 -63.8 6.1 -63.2 6.1
L -62.65 6 -62.3 5.75 -62.3 2.1 -54.6 2.1 -54.6 12.7 -52.4 12.7 -52.4 -7.25 -49.25 -7.25 -49.25 -9 -53.55 -9 -62.15 -19.55
M -62.3 -7.25
L -54.6 -7.25 -54.6 0.25 -62.3 0.25 -62.3 -7.25
M -53.8 -16.4
L -53.8 -13.65 -50.9 -13.65 -50.9 -16.4 -53.8 -16.4
M -153.55 -9
L -153.55 -7.25 -139.65 -7.25 -139.65 3.7
Q -140.3 4.9 -141.7 5.5 -142.2 6 -142.95 6.1
L -143.75 6.3 -144.2 6.3
Q -144.8 6.3 -145.85 6 -148.1 4.85 -148.1 1.85 -148.1 1.1 -147.9 0.35 -147.1 -1.45 -146.05 -1.85 -145.45 -2.15 -144.5 -2.15
L -143.4 -2 -142.25 -1.65 -141.4 -1.25 -141.9 -3.5
Q -142.05 -3.5 -142.45 -3.5
L -143.2 -3.7 -144 -3.8 -144.8 -3.8
Q -147.1 -3.8 -148.8 -2 -150.45 -0.15 -150.45 2.25 -150.45 3 -150.3 3.55 -150.2 4.1 -150 4.55 -149.5 5.55 -148.45 6.45 -146.6 8.1 -144.15 8.1
L -142.8 7.95 -141.5 7.5 -139.65 6.15 -139.65 12.7 -137.4 12.7 -137.4 -7.25 -130.75 -7.25 -130.75 12.7 -128.5 12.7 -128.5 -7.25 -111.9 -7.25 -111.9 -3.6 -120.75 -3.6 -121.5 -3.5 -122.1 -3.15 -122.6 -2.6 -122.7 -1.85 -122.3 -0.3
Q -122.05 0.5 -121.25 1.55
L -119.8 3.2 -120.8 4.2
Q -121.3 4.65 -121.6 5.2 -122.3 6.3 -122.3 7.35 -122.3 11.2 -116.85 13.05
L -115.3 13.6
Q -113.3 14.25 -112.05 14.25 -111.45 14.2 -111.3 14.1
L -110.5 12.6
Q -110.55 12.6 -110.6 12.6 -110.7 12.6 -110.9 12.6
L -111.85 12.6 -115.4 11.7
Q -117.65 11.05 -118.85 9.95 -119.95 8.8 -119.95 7.6 -119.95 6.65 -119.6 5.9 -118.55 3.45 -114.65 3.45
L -112.95 3.6
Q -110.5 3.9 -110.5 6.1 -110.6 7.15 -111.2 7.8
L -111.5 8 -111.9 8.2 -110.35 9.45 -110 9.25 -109.15 8.6
Q -108.65 8.05 -108.45 7.5 -108.25 6.95 -108.25 6.1 -108.25 5.15 -108.7 4.2 -109.55 2.7 -111.9 2.05 -112.65 1.9 -113.25 1.85 -113.8 1.8 -114.5 1.8
L -115.45 1.8 -118 2.3 -118.3 2.15 -119.45 0.7 -119.65 0.35
Q -120.1 -0.1 -120.2 -0.55
L -120.35 -1.25 -120.2 -1.65
Q -120.05 -1.85 -119.65 -1.85
L -109.65 -1.85 -109.65 -7.25 -90.75 -7.25 -90.75 -1.45 -102.75 -1.45 -103.15 -1.35
Q -103.8 -0.8 -103.8 -0.05 -103.7 0.45 -103.3 1.05 -102.6 2.2 -101.95 2.9
L -100.4 4.55
Q -99.75 5.1 -99.5 5.1
L -99 5.1
Q -98.65 4.75 -98.6 4.7 -98.55 4.6 -98.55 4.4
L -98.55 0.25 -90.75 0.25 -90.75 12.7 -88.5 12.7 -88.5 -7.25 -85.05 -7.25 -85.05 -9 -153.55 -9
M -225.45 -15.65
Q -226 -14.85 -226.2 -14.1 -226.4 -13.3 -226.4 -12.2
L -226.4 -11.5 -225.75 -8.95 -229.55 -8.95 -229.55 -7.25 -225.85 -7.25 -225.85 12.7 -223.6 12.7 -223.6 -7.25 -207.7 -7.25 -207.7 3.2
Q -207.7 4 -208.55 4.9 -210.1 6.45 -211.6 6.45 -212.3 6.45 -213.2 6.15 -215.25 5.1 -215.25 2.45 -215.25 0.75 -214.2 -0.55 -213.2 -1.8 -211.45 -1.8
L -210.8 -1.8 -210.2 -1.55 -210 -1.35 -209.55 -1.25 -209.55 -3.05
Q -209.85 -3.25 -210.7 -3.35
L -211.85 -3.45 -212.95 -3.35
Q -214.65 -2.95 -215.9 -1.8 -217.65 -0.25 -217.65 2.25 -217.65 4.7 -215.8 6.4 -213.95 8.05 -211.6 8.05 -209.25 8.05 -207.7 6.5
L -207.7 12.7 -205.5 12.7 -205.5 3.7
Q -205.5 3.05 -205.15 2.15 -204.7 1.15 -204.25 0.5 -202.75 -1.35 -201.05 -1.35 -199.05 -1.35 -198.25 0.15 -197.85 1 -197.85 2.2 -197.85 3 -198.3 4.2 -199.25 6.35 -201.05 8.15 -201.45 8.5 -201.7 8.6
L -199.9 9.95 -197.7 7.45
Q -195.55 4.7 -195.55 2.35 -195.55 0 -197.2 -1.45 -198.95 -3.05 -201.3 -3.05 -202.9 -3.05 -204.25 -2.05
L -205.5 -0.9 -205.5 -7.25 -184.25 -7.25 -184.25 0.05 -184.55 0.65
Q -184.75 0.95 -185.1 1.05
L -186.05 1.2
Q -187.8 1.2 -188.55 -0.3
L -189.75 -2.65 -191.6 -1.45 -183.8 10.55
Q -182.55 12.45 -181.75 12.7
L -180.05 11.25 -180.95 10.4 -186.65 2.65
Q -186.35 2.85 -186.1 2.85
L -185.6 2.9 -185.2 2.8
Q -185.05 2.65 -184.7 2.65
L -183.8 2.45
Q -182.65 1.9 -182.35 1.05
L -182.1 0.15 -182.1 -7.25 -174.25 -7.25 -174.25 0.05 -181.6 0.05 -180.15 1.8 -174.25 1.8 -174.25 12.7 -172 12.7 -172 -7.25 -168.55 -7.25 -168.55 -9 -204.3 -9 -209.75 -13.95
Q -211.05 -15 -212.7 -16 -216.65 -18.45 -219.85 -18.45 -221.2 -18.45 -222.5 -17.95 -224.3 -17.2 -225.45 -15.65
M -223.85 -9.25
L -224.4 -11.05 -224.4 -11.85
Q -224.4 -12.8 -224.1 -13.85 -223.2 -15.8 -221.7 -16.3 -221 -16.65 -220 -16.65 -218.8 -16.65 -217.1 -16.05 -215.45 -15.5 -214.15 -14.6
L -211.6 -12.95 -210.65 -12.2
Q -209.9 -11.65 -209.15 -10.9
L -207.05 -9 -223.6 -8.95 -223.85 -9.25
M -266.3 -2.65
L -268.15 -1.45 -260.35 10.55
Q -259.1 12.45 -258.3 12.7
L -256.6 11.25 -257.5 10.4 -263.2 2.65
Q -262.9 2.85 -262.65 2.85
L -262.15 2.9 -261.75 2.8
Q -261.6 2.65 -261.25 2.65
L -260.35 2.45
Q -259.2 1.9 -258.9 1.05
L -258.65 0.15 -258.65 -7.25 -250.8 -7.25 -250.8 0.05 -258.15 0.05 -256.7 1.8 -250.8 1.8 -250.8 12.7 -248.55 12.7 -248.55 -7.25 -245.1 -7.25 -245.1 -9 -249.2 -9 -257.8 -19.55 -259.3 -17.95 -250.6 -9 -270.7 -9 -270.7 -7.25 -260.8 -7.25 -260.8 0.05 -261.1 0.65
Q -261.3 0.95 -261.65 1.05
L -262.6 1.2
Q -264.35 1.2 -265.1 -0.3
L -266.3 -2.65
M -290.3 -13.65
L -287.4 -13.65 -287.4 -16.4 -290.3 -16.4 -290.3 -13.65
M -345.6 -9
L -345.6 -7.25 -333.65 -7.25 -333.65 -3.4 -340.95 -3.4 -341.65 -3.25 -342.3 -2.8 -342.8 -2.25 -342.9 -1.6
Q -342.9 -0.3 -340.9 2.4 -338.95 5.1 -337.25 5.1
L -336.05 4.95 -333.1 3.95 -332.4 3.8 -332 3.95
Q -331.9 4.05 -331.8 4.25 -331.7 4.45 -331.7 4.95
L -331.7 5.75
Q -331.7 8.65 -334.25 9.8 -334.6 10.05 -335.3 10.15 -335.9 10.35 -336.75 10.35
L -338.05 8.7
Q -339.75 7.05 -341.1 7.05
L -341.9 7.2 -342.5 7.65
Q -342.8 7.95 -342.9 8.35
L -343.05 9.05
Q -343.05 11.1 -341.05 11.75 -340.75 11.95 -340.45 11.95 -339.65 12.15 -339.05 12.15
L -337.6 12.15 -337.25 12.6 -336.45 13.25 -335.4 14.35 -333.25 16.2
Q -332.95 16.5 -332.6 16.8 -332.2 17.05 -332 17.15
L -330.9 17.85 -329.75 16.05 -332.6 14.2 -334.7 12.45 -335.2 11.95
Q -334.35 11.95 -333.15 11.4
L -332.15 10.65
Q -330.5 9.35 -329.9 7.7 -329.45 6.5 -329.45 5.1
L -329.6 3.95
Q -329.9 3.15 -330.05 2.9 -330.7 2 -331.7 2
L -332.6 2 -334.75 2.75
Q -336 3.15 -336.8 3.15
L -337.4 3 -338.05 2.45 -339.9 0.35 -340.45 -0.75 -340.45 -1.35 -340.3 -1.55 -340.2 -1.75 -331.4 -1.75 -331.4 -7.25 -311.35 -7.25 -311.35 -1.45 -323.35 -1.45 -323.75 -1.35
Q -324.4 -0.8 -324.4 -0.05 -324.3 0.45 -323.9 1.05 -323.2 2.2 -322.55 2.9
L -321 4.55
Q -320.35 5.1 -320.1 5.1
L -319.6 5.1
Q -319.25 4.75 -319.2 4.7 -319.15 4.6 -319.15 4.4
L -319.15 0.25 -311.35 0.25 -311.35 12.7 -309.1 12.7 -309.1 -7.25 -300.9 -7.25 -300.9 0.25 -302.7 0.25 -303.15 0.35 -303.35 0.45
Q -303.65 0.6 -303.8 0.85
L -303.95 1.4
Q -303.9 1.95 -303.5 2.5 -302.15 4.25 -301.4 5 -300.3 6.1 -299.7 6.1
L -299.15 6 -298.8 5.75 -298.8 2.1 -291.1 2.1 -291.1 12.7 -288.9 12.7 -288.9 -7.25 -285.75 -7.25 -285.75 -9 -290.05 -9 -298.65 -19.55 -300.15 -17.95 -291.45 -9 -345.6 -9
M -298.8 -7.25
L -291.1 -7.25 -291.1 0.25 -298.8 0.25 -298.8 -7.25 Z"/>
</g>
</g>
</g>
</g>
</g>
</g>
</g>
</g>
</svg>
