
<svg xmlns="http://www.w3.org/2000/svg" version="1.1" xmlns:xlink="http://www.w3.org/1999/xlink" preserveAspectRatio="none" x="0px" y="0px" width="286px" height="81px" viewBox="0 0 286 81">
<defs>
<linearGradient id="Gradient_1" gradientUnits="userSpaceOnUse" x1="-70.85" y1="30.3375" x2="-70.85" y2="75.6625" spreadMethod="pad">
<stop  offset="0%" stop-color="#FFD98A"/>

<stop  offset="100%" stop-color="#B07700"/>
</linearGradient>

<linearGradient id="Gradient_2" gradientUnits="userSpaceOnUse" x1="10" y1="29.987499999999997" x2="10" y2="76.1125" spreadMethod="pad">
<stop  offset="0%" stop-color="#FFD275"/>

<stop  offset="100%" stop-color="#AE7600"/>
</linearGradient>
</defs>

<g id="Layer_1">
<g transform="matrix( 1.455230712890625, 0, 0, 1.455230712890625, 143,-95.5) ">
<g id="Layer_2">
<g transform="matrix( 1, 0, 0, 1, 0,0) ">
<g>
<g>
<path fill="#FFCC00" stroke="none" d="
M -65.6 71.3
Q -68.1 70.7 -70.85 70.7 -80.25 70.7 -86.85 77.35 -89.7 80.2 -91.3 83.55
L -91.85 84.8
Q -91.95 85 -92.05 85.2
L -92.05 85.25
Q -93.5 89 -93.5 93.4 -93.5 102.75 -86.85 109.4 -80.25 116.05 -70.85 116.05 -68.25 116.05 -65.85 115.55 -59.6 114.2 -54.8 109.4 -48.2 102.75 -48.2 93.4 -48.2 88.7 -49.8 84.7 -50.25 83.65 -50.75 82.7 -52.590625 79.5640625 -54.8 77.35 -59.5 72.65 -65.6 71.3
M 93.5 78.5
Q 93.5 70.4 85.4 70.4
L -57.9 70.4
Q -59.2 70.4 -60.15 70.65 -56.35 72.4 -53.1 75.65 -52.25 76.55 -51.35 77.6 -49.95 79.2 -48.9 81
L -47.55 83.85
Q -45.75 88.2 -45.75 93.4 -45.75 100.25 -49 105.75
L -51.35 109.25
Q -52.25 110.2 -53.1 111.1 -56.45 114.4 -60.4 116.3 -59.25 116.55 -57.9 116.55
L 85.4 116.55
Q 93.5 116.55 93.5 108.45
L 93.5 78.5 Z"/>
</g>
</g>

<g>
<path stroke="#FFCC00" stroke-width="7.55" stroke-linejoin="round" stroke-linecap="round" fill="none" d="
M 85.4 70.4
L -57.9 70.4
Q -59.2 70.4 -60.15 70.65 -56.35 72.4 -53.1 75.65 -52.25 76.55 -51.35 77.6 -49.95 79.2 -48.9 81
L -47.55 83.85
Q -45.75 88.2 -45.75 93.4 -45.75 100.25 -49 105.75
L -51.35 109.25
Q -52.25 110.2 -53.1 111.1 -56.45 114.4 -60.4 116.3 -59.25 116.55 -57.9 116.55
L 85.4 116.55
Q 93.5 116.55 93.5 108.45
L 93.5 78.5
Q 93.5 70.4 85.4 70.4 Z
M -91.3 83.55
Q -89.7 80.2 -86.85 77.35 -80.25 70.7 -70.85 70.7 -68.1 70.7 -65.6 71.3 -59.5 72.65 -54.8 77.35 -52.590625 79.5640625 -50.75 82.7 -50.25 83.65 -49.8 84.7 -48.2 88.7 -48.2 93.4 -48.2 102.75 -54.8 109.4 -59.6 114.2 -65.85 115.55 -68.25 116.05 -70.85 116.05 -80.25 116.05 -86.85 109.4 -93.5 102.75 -93.5 93.4 -93.5 89 -92.05 85.25
L -92.05 85.2
Q -91.95 85 -91.85 84.8
L -91.3 83.55 Z"/>
</g>
</g>
</g>

<g id="Face">
<g transform="matrix( 1, 0, 0, 1, 0,93.45) ">
<g id="Layer_1">
<g transform="matrix( 1, 0, 0, 1, 0,-53.05) ">
<g>
<g>
<path fill="#B57D09" stroke="none" d="
M -80.95 39.8
L -80.7 43.35
Q -76.35 42.05 -72 41.4 -70.45 41.15 -68.8 41
L -64.7 37.35 -59.6 40.7
Q -55.3 40.85 -49.85 44.25
L -49.8 44.3
Q -50.25 43.25 -50.75 42.3
L -54.8 36.95
Q -59.5 32.25 -65.6 30.9 -68.1 30.3 -70.85 30.3 -80.25 30.3 -86.85 36.95 -89.7 39.8 -91.3 43.15
L -91.85 44.4
Q -91.95 44.6 -92.05 44.8
L -92.05 44.85
Q -92.05 44.95 -92.05 45.15 -88.1 45.7 -83.4 44.15
L -80.95 39.8 Z"/>

<path fill="url(#Gradient_1)" stroke="none" d="
M -80.7 43.35
L -80.95 39.8 -83.4 44.15
Q -88.1 45.7 -92.05 45.15 -92.05 44.95 -92.05 44.85 -93.5 48.6 -93.5 53 -93.5 62.35 -86.85 69 -80.25 75.65 -70.85 75.65 -68.25 75.65 -65.85 75.15 -59.6 73.8 -54.8 69 -48.2 62.35 -48.2 53 -48.2 48.3 -49.8 44.3
L -49.85 44.25
Q -55.3 40.85 -59.6 40.7
L -64.7 37.35 -68.8 41
Q -70.45 41.15 -72 41.4 -76.35 42.05 -80.7 43.35 Z"/>

<path fill="url(#Gradient_2)" stroke="none" d="
M 93.5 38.1
Q 93.5 30 85.4 30
L -57.9 30
Q -59.2 30 -60.15 30.25 -56.35 32 -53.1 35.25 -52.25 36.15 -51.35 37.2 -49.95 38.8 -48.9 40.6
L -47.55 43.45
Q -45.75 47.8 -45.75 53 -45.75 59.85 -49 65.35
L -51.35 68.85
Q -52.25 69.8 -53.1 70.7 -56.45 74 -60.4 75.9 -59.25 76.15 -57.9 76.15
L 85.4 76.15
Q 93.5 76.15 93.5 68.05
L 93.5 38.1 Z"/>
</g>
</g>

<g>
<path stroke="#E09907" stroke-opacity="0.4" stroke-width="0.1" stroke-linejoin="round" stroke-linecap="round" fill="none" d="
M 85.4 30
L -57.9 30
Q -59.2 30 -60.15 30.25 -56.35 32 -53.1 35.25 -52.25 36.15 -51.35 37.2 -49.95 38.8 -48.9 40.6
L -47.55 43.45
Q -45.75 47.8 -45.75 53 -45.75 59.85 -49 65.35
L -51.35 68.85
Q -52.25 69.8 -53.1 70.7 -56.45 74 -60.4 75.9 -59.25 76.15 -57.9 76.15
L 85.4 76.15
Q 93.5 76.15 93.5 68.05
L 93.5 38.1
Q 93.5 30 85.4 30 Z"/>
</g>

<g>
<path stroke="#AA7506" stroke-opacity="0.4" stroke-width="0.1" stroke-linejoin="round" stroke-linecap="round" fill="none" d="
M -92.05 44.85
Q -93.5 48.6 -93.5 53 -93.5 62.35 -86.85 69 -80.25 75.65 -70.85 75.65 -68.25 75.65 -65.85 75.15 -59.6 73.8 -54.8 69 -48.2 62.35 -48.2 53 -48.2 48.3 -49.8 44.3
L -49.85 44.25
M -91.3 43.15
Q -89.7 39.8 -86.85 36.95 -80.25 30.3 -70.85 30.3 -68.1 30.3 -65.6 30.9 -59.5 32.25 -54.8 36.95"/>
</g>
</g>

<g transform="matrix( 1, 0, 0, 1, 6.35,-93.45) ">
<g>
<g>
<path fill="#000000" stroke="none" d="
M -86.8 88.85
Q -87.6 89.75 -87.6 90.85 -87.6 92 -86.8 92.8 -85.9 93.7 -84.75 93.7 -83.65 93.7 -82.8 92.8 -81.95 92 -81.95 90.85 -81.95 89.75 -82.8 88.85 -83.65 88.05 -84.75 88.05 -85.9 88.05 -86.8 88.85
M -73.85 92.8
Q -72.95 93.7 -71.8 93.7 -70.7 93.7 -69.85 92.8 -69 92 -69 90.85 -69 89.75 -69.85 88.85 -70.7 88.05 -71.8 88.05 -72.95 88.05 -73.85 88.85 -74.65 89.75 -74.65 90.85 -74.65 92 -73.85 92.8 Z"/>
</g>
</g>

<g>
<path stroke="#AA7506" stroke-opacity="0.4" stroke-width="0.1" stroke-linejoin="round" stroke-linecap="round" fill="none" d="
M -92.05 44.85
Q -93.5 48.6 -93.5 53 -93.5 62.35 -86.85 69 -80.25 75.65 -70.85 75.65 -68.25 75.65 -65.85 75.15 -59.6 73.8 -54.8 69 -48.2 62.35 -48.2 53 -48.2 48.3 -49.8 44.3
L -49.85 44.25
M -91.3 43.15
Q -89.7 39.8 -86.85 36.95 -80.25 30.3 -70.85 30.3 -68.1 30.3 -65.6 30.9 -59.5 32.25 -54.8 36.95"/>
</g>
</g>
</g>
</g>
</g>
</g>
</g>
</svg>
