
<svg xmlns="http://www.w3.org/2000/svg" version="1.1" xmlns:xlink="http://www.w3.org/1999/xlink" preserveAspectRatio="none" x="0px" y="0px" width="1920px" height="1080px" viewBox="0 0 1920 1080">
<defs>
<g id="Symbol_1_6_Layer1_0_FILL">
<path fill="#FFFFFF" stroke="none" d="
M -428.85 -34.75
L -428.85 -28.8 -394.65 -28.8 -394.65 -3.5 -395.65 -1.45
Q -396.3 -0.45 -397.55 -0.05
L -400.85 0.4
Q -406.85 0.4 -409.45 -4.7
L -413.7 -12.85 -420 -8.8 -410.75 7.05 -393.05 32.75
Q -388.7 39.25 -386.1 40.1
L -380.25 35.15 -383.25 32.1 -394.05 19.05 -403 5.5
Q -401.9 6.05 -400.95 6.05
L -399.35 6.2 -397.95 5.95
Q -397.45 5.5 -396.15 5.5
L -393.05 4.65
Q -389.1 2.85 -388.15 -0.1
L -387.3 -3.3 -387.3 -28.8 -360.05 -28.8 -360.05 -3.5 -385.55 -3.5 -380.45 2.45 -360.05 2.45 -360.05 40.1 -352.35 40.1 -352.35 -28.8 -295.55 -28.8 -295.55 -16.2 -326.15 -16.2 -328.75 -15.75 -330.85 -14.65 -332.5 -12.65 -332.95 -10.1 -331.45 -4.7
Q -330.6 -2.05 -327.85 1.6
L -322.85 7.3 -326.35 10.8
Q -327.95 12.35 -329.1 14.25 -331.45 18 -331.45 21.55 -331.45 34.85 -312.75 41.3
L -307.3 43.15
Q -300.5 45.5 -296.05 45.5 -294.05 45.2 -293.5 44.9
L -290.75 39.7
Q -290.85 39.7 -291.15 39.7 -291.45 39.7 -292.15 39.7
L -295.45 39.7 -307.65 36.65
Q -315.45 34.45 -319.55 30.6 -323.45 26.7 -323.45 22.45 -323.45 19.3 -322.15 16.6 -318.5 8.15 -305.05 8.15
L -299.15 8.75
Q -290.75 9.8 -290.75 17.3 -291.15 20.9 -293.2 23.1
L -293.65 23.55 -294.2 23.8 -294.85 24.25 -295.55 24.6 -290.15 28.9 -286.05 25.85
Q -284.35 24.1 -283.65 22.2 -283 20.2 -283 17.3 -283 13.95 -284.5 10.8 -287.4 5.55 -295.55 3.35 -298.25 2.8 -300.2 2.65 -302.2 2.5 -304.55 2.5
L -307.85 2.5 -316.7 4.25 -317.7 3.7 -321.75 -1.4 -322.3 -2.5
Q -323.95 -4.15 -324.2 -5.55
L -324.8 -8.05 -324.2 -9.4
Q -323.65 -10.1 -322.3 -10.1
L -287.8 -10.1 -287.8 -28.8 -263.5 -28.8 -263.5 40.1 -255.95 40.1 -255.95 -28.8 -243.75 -28.8 -243.75 -34.6 -257.55 -34.6 -262.75 -43.75 -267 -50.25
Q -271.6 -57.3 -278.45 -62 -284.05 -65.9 -289.15 -65.9 -301.05 -65.9 -305.3 -53.55 -306.25 -50.65 -306.4 -49.7 -306.55 -48.6 -306.55 -46.5
L -306.55 -43.15 -305.5 -40 -304 -37.05 -302.25 -34.75 -428.85 -34.75
M -298.7 -50.5
Q -297.55 -54.55 -296.2 -56.6 -293.6 -60.2 -288.9 -60.2 -283.7 -60.2 -276.75 -52.1 -265.05 -38.7 -265.05 -35.15
L -265.2 -34.6 -273.3 -34.6 -273.3 -34.75 -293.75 -34.75 -294.65 -36 -296.5 -39.7
Q -297 -40.55 -297.35 -41.6 -297.7 -42.75 -298.2 -44.3 -298.7 -45.9 -298.7 -47.75
L -298.7 -50.5
M 412.15 -60.35
L 412.15 -50.95 422.15 -50.95 422.15 -60.35 412.15 -60.35
M 269.45 -34.75
L 269.45 -28.8 309.45 -28.8 309.45 -10.5
Q 308.6 -5.3 306.35 -3.25 304.05 -1.1 299.35 -1.1 293.4 -1.1 291.05 -4.7
L 285.1 -14.85 279.15 -10.5 289.35 6.9 293.8 13.55
Q 300.75 24.05 307.9 32.25 313.85 39.4 316.05 40.1
L 321.35 35.15 310.65 23.75 306.55 18.65 296.15 3.7
Q 296.7 4.15 298.75 4.4
L 301.5 4.4
Q 304.4 4.4 307.35 3.45 317.15 -0.45 317.15 -9.9
L 317.15 -28.8 356.05 -28.8 356.05 -8.45 355.6 -5.7
Q 354.75 -3.25 352.15 -2.4
L 349.25 -1.95 346.5 -1.95 344.15 -3 343.3 -3.6 342.35 -4.5 339.95 -12.85 333.4 -9.4 337.5 2.35 339.95 8.15
Q 343 14.95 348.3 21.75 356.05 31.4 366.6 34.3 370.55 35.45 377.05 35.45
L 384.7 34.7 392.85 32.4 400.55 29.05 407.1 24.9 407.1 40.1 414.85 40.1 414.85 -28.8 428.9 -28.8 428.9 -34.75 413.05 -34.75 383.3 -71.25 378.25 -65.75 408.25 -34.75 269.45 -34.75
M 363.4 -8.05
L 363.4 -28.8 407.1 -28.8 407.1 -0.8
Q 405.75 1.35 404.6 2.5 400.7 6.45 396.75 6.9 395.2 7.45 392.55 7.45
L 388.8 6.9
Q 383 4.7 383 -2.25 383 -5 383.7 -6.85 386.05 -11.35 389.8 -11.8 391.3 -12.5 394.2 -12.5
L 397.8 -12.1 401.15 -11.25 399.35 -16.45 396.05 -17.6 392.85 -18.05 389.55 -18.05
Q 383.6 -16.7 379.6 -12.3 375.65 -7.85 375.65 -2.15 375.65 1.15 376.8 4.35 382 13.7 392.3 13.7
L 394.75 13.7 397.4 13.1 402.85 10.8 404.75 9.65 407.1 7.75 407.1 17.3
Q 405.05 19.35 401.3 21.85
L 392.7 26.15
Q 388.55 28.05 385.05 28.75 381.65 29.5 377.65 29.5 370.25 29.5 363.35 26.1 356.45 22.7 352.55 16.45
L 349.1 11.05 345.55 3.45 352.2 2.95 357.45 1.5
Q 363.4 -1.55 363.4 -8.05
M 98.95 -34.75
L 98.95 -28.8 110.3 -28.8 110.3 -1.95
Q 110.3 1.5 111.7 5.9 117.8 18.2 130.4 18.2 136.35 18.2 141.45 14.75
L 145.9 11.2 145.9 40.1 153.6 40.1 153.6 -28.8 200.55 -28.8 200.55 -10.5
Q 199.7 -5.3 197.45 -3.25 195.15 -1.1 190.45 -1.1 184.5 -1.1 182.15 -4.7
L 176.2 -14.85 170.25 -10.5 180.45 6.9 184.9 13.55
Q 191.85 24.05 199 32.25 204.95 39.4 207.15 40.1
L 212.45 35.15 201.75 23.75 197.65 18.65 187.25 3.7
Q 187.8 4.15 189.85 4.4
L 192.6 4.4
Q 195.5 4.4 198.45 3.45 208.25 -0.45 208.25 -9.9
L 208.25 -28.8 219.9 -28.8 219.9 -34.75 98.95 -34.75
M 117.65 -0.95
L 117.65 -28.8 145.9 -28.8 145.9 2.6 141.7 7.6 138.95 9.8
Q 134.4 12.55 130.1 12.55
L 125.8 11.85
Q 117.65 7.3 117.65 -0.95
M 24.7 -28.8
L 24.7 -16.2 -5.9 -16.2 -8.5 -15.75 -10.6 -14.65 -12.25 -12.65 -12.7 -10.1 -11.2 -4.7
Q -10.35 -2.05 -7.6 1.6
L -2.6 7.3 -6.1 10.8
Q -7.7 12.35 -8.85 14.25 -11.2 18 -11.2 21.55 -11.2 34.85 7.5 41.3
L 12.95 43.15
Q 19.75 45.5 24.2 45.5 26.2 45.2 26.75 44.9
L 29.5 39.7
Q 29.4 39.7 29.1 39.7 28.8 39.7 28.1 39.7
L 24.8 39.7 12.6 36.65
Q 4.8 34.45 0.7 30.6 -3.2 26.7 -3.2 22.45 -3.2 19.3 -1.9 16.6 1.75 8.15 15.2 8.15
L 21.1 8.75
Q 29.5 9.8 29.5 17.3 29.1 20.9 27.05 23.1
L 26.6 23.55 26.05 23.8 25.4 24.25 24.7 24.6 30.1 28.9 34.2 25.85
Q 35.9 24.1 36.6 22.2 37.25 20.2 37.25 17.3 37.25 13.95 35.75 10.8 32.85 5.55 24.7 3.35 22 2.8 20.05 2.65 18.05 2.5 15.7 2.5
L 12.4 2.5 3.55 4.25 2.55 3.7 -1.5 -1.4 -2.05 -2.5
Q -3.7 -4.15 -3.95 -5.55
L -4.55 -8.05 -3.95 -9.4
Q -3.4 -10.1 -2.05 -10.1
L 32.45 -10.1 32.45 -28.8 46.95 -28.8 46.95 -34.75 -190.15 -34.75 -190.15 -28.8 -116.25 -28.8 -116.25 -10.4 -150.85 -10.25
Q -149.6 -9.25 -148.65 -7.75
L -144.9 -2.25
Q -142.45 0.95 -140.65 6.35 -139.4 10.5 -139.4 13.85 -139.4 18.5 -141.8 21.75 -144.2 25 -148.5 25 -156.4 25 -163.45 14.9 -169.25 6.75 -172.45 -3.1
L -175.05 -11.25 -175.35 -13.15 -175.35 -14.25 -181.6 -9.6 -181 -6.4 -178.25 1.1
Q -173.65 13.1 -167.7 20.4 -158.85 30.7 -149.15 30.7 -145.05 30.7 -141.85 29.55 -135.35 26.65 -133.3 20.4 -132.3 17.8 -132.25 16.3 -132.15 14.9 -132.15 13.55
L -132.75 9.65 -134.2 4.55 -136.75 -1.8
Q -137.85 -4.3 -138.7 -4.7
L -116.25 -4.7 -116.25 40.1 -108.5 40.1 -108.5 -28.8 -74.3 -28.8 -74.3 -5.4 -85.6 -5 -86.45 -4.3
Q -86.75 -3.85 -86.75 -2.8 -86.75 -0.8 -85.2 1.95 -81.1 8.8 -74.6 13.55 -71.55 15.3 -70.1 15.3
L -68.05 14.75
Q -67.2 14.05 -66.95 12.55
L -66.95 -28.8 -44.05 -28.8 -44.05 40.1 -36.35 40.1 -36.35 -28.8 24.7 -28.8 Z"/>
</g>
</defs>

<g transform="matrix( 1, 0, 0, 1, 960,540) ">
<g transform="matrix( 1, 0, 0, 1, 0,0) ">
<use xlink:href="#Symbol_1_6_Layer1_0_FILL"/>
</g>
</g>
</svg>
