
<svg xmlns="http://www.w3.org/2000/svg" version="1.1" xmlns:xlink="http://www.w3.org/1999/xlink" preserveAspectRatio="none" x="0px" y="0px" width="1129px" height="241px" viewBox="0 0 1129 241">
<defs>
<g id="Symbol_69_1_Layer1_0_FILL">
<path fill="#000000" fill-opacity="0.8980392156862745" stroke="none" d="
M 30.8 -5.55
Q 27.2 -4.5 25.55 -2.65 23.85 -0.8 23.85 2.9 23.85 9.65 29.65 15.3 35.45 20.9 42.95 20.9 47.55 20.9 52.05 19.4 56.5 17.9 59.7 16.1
L 57 10.65
Q 51.15 13.45 47 14.65 42.95 15.85 39 15.85 35.2 15.85 32.35 13.1 29.45 10.25 29.45 6.4 29.45 0.55 35.3 -0.65 43.6 -2.15 48 -3.4 50.05 -4.05 50.75 -5.25 51.4 -6.45 51.4 -10.15 51.35 -12.85 51.2 -15.8 51.1 -18.7 51.1 -21.85
L 73.65 -21.85
Q 73.65 -21.25 73.95 -19.7 74 -18.5 74 -15.85 74 -7.75 73.7 -5.45 73.4 -3.15 72.75 -3.15 72.3 -3.15 69.65 -4.65 66.9 -6.1 66.45 -6.1 65.35 -6.1 64.5 -4.95 63.55 -3.8 63.55 -2.6 63.55 -1.75 64.4 -0.2 65.55 1.95 68.1 5.15 71.45 9.3 76.8 15.15 82.1 21 87 26.05
L 89.75 22.8
Q 85.7 18.75 81.65 14.7 73.5 6.4 73.5 5.7 73.5 5.05 74 4.55 74.45 4.05 76.55 2.7 77.9 1.9 79 -0.2 80.15 -2.3 80.15 -4.5
L 80.15 -21.85 92.15 -21.85 89.15 -27.5 -91.25 -27.5 -88.3 -21.85 -60.95 -21.85
Q -60.85 -20.25 -60.7 -18.7 -60.55 -17.15 -60.55 -15.25 -60.55 -11.3 -61.1 -10.05 -61.65 -8.7 -62.95 -8.55
L -75.15 -5.55
Q -78.75 -4.5 -80.4 -2.65 -82.1 -0.8 -82.1 2.9 -82.1 9.65 -76.3 15.3 -70.5 20.9 -63 20.9 -58.4 20.9 -53.9 19.4 -49.45 17.9 -46.25 16.1
L -48.95 10.65
Q -54.8 13.45 -58.95 14.65 -63 15.85 -66.95 15.85 -70.75 15.85 -73.6 13.1 -76.5 10.25 -76.5 6.4 -76.5 0.55 -70.65 -0.65 -62.35 -2.15 -57.95 -3.4 -55.9 -4.05 -55.2 -5.25 -54.55 -6.45 -54.55 -10.15 -54.6 -12.85 -54.75 -15.8 -54.85 -18.7 -54.85 -21.85
L -36 -21.85 -36 -1.85 -40.4 -1.85
Q -41.25 -1.85 -41.8 -1.1 -42.4 -0.3 -42.4 0.4 -42.4 1.55 -37.9 6.3 -33.4 11.05 -31.95 11.05 -29.9 11.05 -29.9 8.45
L -29.9 3.9 -11.4 3.9 -11.65 21.8 -5.4 25.3 -5.4 -21.85 7.15 -21.85 7.15 21.8 13.15 25.3 13.15 -21.85 45 -21.85
Q 45.1 -20.25 45.25 -18.7 45.4 -17.15 45.4 -15.25 45.4 -11.3 44.85 -10.05 44.3 -8.7 43 -8.55
L 30.8 -5.55
M -11.4 -1.85
L -29.9 -1.85 -29.9 -21.85 -11.4 -21.85 -11.4 -1.85 Z"/>
</g>
</defs>

<g transform="matrix( 2.303741455078125, 0, 0, 2.303741455078125, 563.45,127.3) ">
<g transform="matrix( 1, 0, 0, 1, 0,0) ">
<use xlink:href="#Symbol_69_1_Layer1_0_FILL"/>
</g>
</g>
</svg>
