
<svg xmlns="http://www.w3.org/2000/svg" version="1.1" xmlns:xlink="http://www.w3.org/1999/xlink" preserveAspectRatio="none" x="0px" y="0px" width="290px" height="57px" viewBox="0 0 290 57">
<defs>
<g id="Mask_Symbol_55_2_3_MASK_0_FILL">
<path fill="#FFFFFF" stroke="none" d="
M 238.6 -150
Q 238.6 -161.4 230.5 -169.5 222.45 -177.55 211.05 -177.55
L -211.05 -177.55
Q -222.45 -177.55 -230.55 -169.5 -238.6 -161.4 -238.6 -150
L -238.6 150
Q -238.6 161.4 -230.55 169.45 -222.45 177.55 -211.05 177.55
L 211.05 177.55
Q 222.45 177.55 230.5 169.45 238.6 161.4 238.6 150
L 238.6 -150 Z"/>
</g>

<g id="Duplicate_Items_Folder_Symbol_69_6_Layer1_0_FILL">
<path fill="#000000" fill-opacity="0.8980392156862745" stroke="none" d="
M 12.2 -5.1
Q 10.35 -6.05 9.25 -6.3 8.15 -6.55 6.7 -6.55 5.1 -6.55 3.15 -6 1.25 -5.35 -0.55 -4
L -0.55 -21.85 34.55 -21.85
Q 34.65 -20.25 34.8 -18.7 34.95 -17.15 34.95 -15.25 34.95 -11.3 34.4 -10.05 33.85 -8.7 32.55 -8.55
L 20.35 -5.55
Q 16.75 -4.5 15.1 -2.65 13.4 -0.8 13.4 2.9 13.4 9.65 19.2 15.3 25 20.9 32.5 20.9 37.1 20.9 41.6 19.4 46.05 17.9 49.25 16.1
L 46.55 10.65
Q 40.7 13.45 36.55 14.65 32.5 15.85 28.55 15.85 24.75 15.85 21.9 13.1 19 10.25 19 6.4 19 0.55 24.85 -0.65 33.15 -2.15 37.55 -3.4 39.6 -4.05 40.3 -5.25 40.95 -6.45 40.95 -10.15 40.9 -12.85 40.75 -15.8 40.65 -18.7 40.65 -21.85
L 63.2 -21.85
Q 63.2 -21.25 63.5 -19.7 63.55 -18.5 63.55 -15.85 63.55 -7.75 63.25 -5.45 62.95 -3.15 62.3 -3.15 61.85 -3.15 59.2 -4.65 56.45 -6.1 56 -6.1 54.9 -6.1 54.05 -4.95 53.1 -3.8 53.1 -2.6 53.1 -1.75 53.95 -0.2 55.1 1.95 57.65 5.15 61 9.3 66.35 15.15 71.65 21 76.55 26.05
L 79.3 22.8
Q 75.25 18.75 71.2 14.7 63.05 6.4 63.05 5.7 63.05 5.05 63.55 4.55 64 4.05 66.1 2.7 67.45 1.9 68.55 -0.2 69.7 -2.3 69.7 -4.5
L 69.7 -21.85 81.7 -21.85 78.7 -27.5 -46.4 -27.5
Q -47.2 -29.8 -50.05 -36.5 -53.5 -44.55 -55.1 -46.95 -56.75 -49.4 -59.4 -50.75 -61.5 -51.75 -63.55 -51.75 -65.1 -51.75 -66.15 -51.65 -67.15 -51.55 -67.15 -51.2 -67.05 -50.95 -64.9 -47.25 -64.3 -46.05 -62.85 -43.75 -62.3 -44 -61.85 -44.35 -61.15 -44.35 -60.45 -44.35 -59.25 -44.35 -57.45 -43.1 -55.65 -41.95 -54.45 -40.05 -53.55 -38.4 -52.1 -34.9 -50.85 -31.95 -49.1 -27.5
L -51.15 -27.5
Q -51.8 -28.7 -52.8 -30.4 -55.45 -35.2 -56.55 -36.85 -57.95 -38.9 -59.85 -39.8 -61.75 -40.7 -63.35 -40.7 -63.65 -40.7 -64.95 -40.6 -66.25 -40.55 -66.25 -40.25
L -62.85 -33.55
Q -62.3 -33.75 -62 -34.05 -61.4 -34.05 -60.85 -34.05 -59.95 -34.05 -58.45 -33.3 -56.9 -32.6 -56.1 -31.3 -55.65 -30.5 -53.65 -27.5
L -81.65 -27.5 -78.7 -21.85 -51.35 -21.85
Q -51.25 -20.25 -51.1 -18.7 -50.95 -17.15 -50.95 -15.25 -50.95 -11.3 -51.5 -10.05 -52.05 -8.7 -53.35 -8.55
L -65.55 -5.55
Q -69.15 -4.5 -70.8 -2.65 -72.5 -0.8 -72.5 2.9 -72.5 9.65 -66.7 15.3 -61.75 20.05 -55.55 20.8
L -65.15 35.25 -60.45 37.6 -51.75 23.75 -44.8 37.55 -37.85 37.55 -49.3 20.6
Q -46.8 20.25 -44.3 19.4 -39.85 17.9 -36.65 16.1
L -39.35 10.65
Q -45.2 13.45 -49.35 14.65 -53.4 15.85 -57.35 15.85 -61.15 15.85 -64 13.1 -66.9 10.25 -66.9 6.4 -66.9 0.55 -61.05 -0.65 -52.75 -2.15 -48.35 -3.4 -46.3 -4.05 -45.6 -5.25 -44.95 -6.45 -44.95 -10.15 -45 -12.85 -45.15 -15.8 -45.25 -18.7 -45.25 -21.85
L -6.85 -21.85 -7.05 -5.1
Q -8.85 -7.75 -9.95 -9.05 -11.15 -10.45 -12.3 -11.25 -14 -12.5 -16 -13 -17.95 -13.4 -20.45 -13.4 -26.8 -13.4 -30 -9.2 -32.15 -6.4 -32.15 -3.35 -32.15 2.5 -27.85 6.85 -23.5 11.15 -17.65 11.15 -14.5 11.15 -11.8 9.9 -10.65 9.35 -6.5 6.75
L -6.85 21.8 -0.55 25.3 -0.55 2.45
Q 1.85 0.75 3.2 0.1 5.2 -0.8 7.35 -0.8 8.45 -0.8 9.8 -0.45 11.1 -0.1 12.2 0.65
L 12.2 -5.1
M -19.15 -7.85
Q -14.85 -7.85 -12.15 -6.25 -9.5 -4.65 -6.5 -0.65 -10.75 2.6 -14.45 4.35 -18.2 6.1 -21 6.1 -23.75 6.1 -25.7 4.45 -27.6 2.85 -27.6 0.1 -27.6 -3.6 -25 -5.75 -22.45 -7.85 -19.15 -7.85 Z"/>
</g>
</defs>

<g transform="matrix( 0.549713134765625, 0, 0, 0.549713134765625, 144.8,-36.1) ">
<mask id="Mask_Mask_1">
<g transform="matrix( 1, 0, 0, 1, 0,0) ">
<use xlink:href="#Mask_Symbol_55_2_3_MASK_0_FILL"/>
</g>
</mask>

<g mask="url(#Mask_Mask_1)"/>

<g mask="url(#Mask_Mask_1)">
<g transform="matrix( 1, 0, 0, 1, 4.4,119.55) ">
<g transform="matrix( 1, 0, 0, 1, 0,0) ">
<use xlink:href="#Duplicate_Items_Folder_Symbol_69_6_Layer1_0_FILL"/>
</g>
</g>
</g>
</g>
</svg>
