
<svg xmlns="http://www.w3.org/2000/svg" version="1.1" xmlns:xlink="http://www.w3.org/1999/xlink" preserveAspectRatio="none" x="0px" y="0px" width="290px" height="57px" viewBox="0 0 290 57">
<defs>
<g id="Mask_Symbol_55_2_3_MASK_0_FILL">
<path fill="#FFFFFF" stroke="none" d="
M 238.6 -150
Q 238.6 -161.4 230.5 -169.5 222.45 -177.55 211.05 -177.55
L -211.05 -177.55
Q -222.45 -177.55 -230.55 -169.5 -238.6 -161.4 -238.6 -150
L -238.6 150
Q -238.6 161.4 -230.55 169.45 -222.45 177.55 -211.05 177.55
L 211.05 177.55
Q 222.45 177.55 230.5 169.45 238.6 161.4 238.6 150
L 238.6 -150 Z"/>
</g>

<g id="Duplicate_Items_Folder_Symbol_69_5_Layer1_0_FILL">
<path fill="#000000" fill-opacity="0.8980392156862745" stroke="none" d="
M -52.8 -27.5
L -49.85 -21.85 -22.5 -21.85
Q -22.4 -20.25 -22.25 -18.7 -22.1 -17.15 -22.1 -15.25 -22.1 -11.3 -22.65 -10.05 -23.2 -8.7 -24.5 -8.55
L -36.7 -5.55
Q -40.3 -4.5 -41.95 -2.65 -43.65 -0.8 -43.65 2.9 -43.65 9.65 -37.85 15.3 -32.9 20.05 -26.75 20.8
L -36.3 35.2 -31.6 37.55 -22.9 23.7 -15.95 37.5 -9 37.5 -20.45 20.6
Q -17.95 20.25 -15.45 19.4 -11 17.9 -7.8 16.1
L -10.5 10.65
Q -16.35 13.45 -20.5 14.65 -24.55 15.85 -28.5 15.85 -32.3 15.85 -35.15 13.1 -38.05 10.25 -38.05 6.4 -38.05 0.55 -32.2 -0.65 -23.9 -2.15 -19.5 -3.4 -17.45 -4.05 -16.75 -5.25 -16.1 -6.45 -16.1 -10.15 -16.15 -12.85 -16.3 -15.8 -16.4 -18.7 -16.4 -21.85
L 18.6 -21.85 18.4 -5.1
Q 17.2 -6.8 15.95 -8.4 14.65 -10 13.1 -11.25 11.55 -12.5 9.45 -13 7.35 -13.4 4.9 -13.4 -1.5 -13.4 -4.75 -9.2 -6.9 -6.4 -6.9 -3.35 -6.9 2.6 -2.55 6.9 1.75 11.15 7.6 11.15 10.65 11.15 13.3 9.9 14.45 9.35 18.6 6.75
L 18.85 21.8 24.7 25.3 24.7 2.7
Q 27.75 0.1 30.85 -1.6 33.95 -3.3 35.7 -3.3 37.9 -3.3 39.35 -2 40.75 -0.7 40.75 1.65 40.75 4.5 39.05 8.3 37.4 12.05 34.75 15.7
L 39.9 20.35
Q 45.3 12.05 45.3 6.65 45.3 -0.9 41.1 -5.45 37.75 -9.05 34.15 -9.05 31.8 -9.05 29.5 -7.8 27.7 -6.8 24.7 -4.5
L 24.7 -21.85 52.8 -21.85 49.6 -27.5 -52.8 -27.5
M 0.2 -5.75
Q 2.8 -7.85 6.05 -7.85 10.35 -7.85 13.05 -6.25 15.7 -4.65 18.6 -0.65 14.55 2.5 10.8 4.3 7.05 6.1 4.25 6.1 1.45 6.1 -0.45 4.45 -2.35 2.85 -2.35 0.1 -2.35 -3.7 0.2 -5.75 Z"/>
</g>
</defs>

<g transform="matrix( 0.549713134765625, 0, 0, 0.549713134765625, 144.8,-36.1) ">
<mask id="Mask_Mask_1">
<g transform="matrix( 1, 0, 0, 1, 0,0) ">
<use xlink:href="#Mask_Symbol_55_2_3_MASK_0_FILL"/>
</g>
</mask>

<g mask="url(#Mask_Mask_1)"/>

<g mask="url(#Mask_Mask_1)">
<g transform="matrix( 1, 0, 0, 1, 4.4,119.55) ">
<g transform="matrix( 1, 0, 0, 1, 0,0) ">
<use xlink:href="#Duplicate_Items_Folder_Symbol_69_5_Layer1_0_FILL"/>
</g>
</g>
</g>
</g>
</svg>
