
<svg xmlns="http://www.w3.org/2000/svg" version="1.1" xmlns:xlink="http://www.w3.org/1999/xlink" preserveAspectRatio="none" x="0px" y="0px" width="366px" height="278px" viewBox="0 0 366 278">
<defs>
<filter id="Filter_1" x="-20%" y="-20%" width="140%" height="140%" color-interpolation-filters="sRGB">
<feFlood flood-color="#000000" flood-opacity="1" in="SourceGraphic" result="result1"/>

<feComposite in2="SourceGraphic" in="result1" operator="in" result="result2"/>

<feGaussianBlur in="result2" stdDeviation="5.666666666666667,5.666666666666667" result="result3"/>

<feOffset dx="0" dy="0" in="result3" result="result4"/>

<feComposite in2="result4" in="SourceGraphic" operator="over" result="result5"/>
</filter>

<g id="Symbol_65_0_Layer0_0_FILL">
<path fill="#FFFFFF" stroke="none" d="
M 238.6 -150
Q 238.6 -161.4 230.5 -169.5 222.45 -177.55 211.05 -177.55
L -211.05 -177.55
Q -222.45 -177.55 -230.55 -169.5 -238.6 -161.4 -238.6 -150
L -238.6 150
Q -238.6 161.4 -230.55 169.45 -222.45 177.55 -211.05 177.55
L 211.05 177.55
Q 222.45 177.55 230.5 169.45 238.6 161.4 238.6 150
L 238.6 -150 Z"/>
</g>

<path id="Symbol_64_2_Layer0_0_1_STROKES" stroke="#77A3CB" stroke-width="10" stroke-linejoin="round" stroke-linecap="round" fill="none" d="
M -211.05 -177.55
L 211.05 -177.55
Q 222.45 -177.55 230.5 -169.5 238.6 -161.4 238.6 -150
L 238.6 150
Q 238.6 161.4 230.5 169.45 222.45 177.55 211.05 177.55
L -211.05 177.55
Q -222.45 177.55 -230.55 169.45 -238.6 161.4 -238.6 150
L -238.6 -150
Q -238.6 -161.4 -230.55 -169.5 -222.45 -177.55 -211.05 -177.55 Z"/>
</defs>

<g transform="matrix( 0.714385986328125, 0, 0, 0.714385986328125, 183,139) ">
<g filter="url(#Filter_1)" transform="matrix( 1.399810791015625, 0, 0, 1.399810791015625, -256.15,-194.55) ">
<g transform="matrix( 0.714385986328125, 0, 0, 0.714385986328125, 183,139) ">
<g transform="matrix( 1, 0, 0, 1, 0,0) ">
<use xlink:href="#Symbol_65_0_Layer0_0_FILL"/>
</g>
</g>
</g>

<g transform="matrix( 1, 0, 0, 1, 0,0) ">
<g transform="matrix( 1, 0, 0, 1, 0,0) ">
<use xlink:href="#Symbol_64_2_Layer0_0_1_STROKES"/>
</g>
</g>
</g>
</svg>
