
<svg xmlns="http://www.w3.org/2000/svg" version="1.1" xmlns:xlink="http://www.w3.org/1999/xlink" preserveAspectRatio="none" x="0px" y="0px" width="50px" height="50px" viewBox="0 0 50 50">
<defs>
<g id="Play_BTN_01_copy_1_Layer0_0_FILL">
<path fill="#FFFFFF" stroke="none" d="
M 30.05 -71.1
Q 15.7 -77.15 0 -77.15 -15.7 -77.15 -30 -71.1 -43.85 -65.25 -54.5 -54.55 -65.2 -43.85 -71.05 -30.05 -77.1 -15.7 -77.1 0 -77.1 15.7 -71.05 30.05 -65.2 43.85 -54.5 54.55 -43.85 65.25 -30 71.1 -15.7 77.15 0 77.15 15.7 77.15 30.05 71.1 43.85 65.25 54.55 54.55 65.25 43.85 71.1 30.05 77.15 15.7 77.15 0 77.15 -15.7 71.1 -30.05 65.25 -43.85 54.55 -54.55 43.85 -65.25 30.05 -71.1
M 0 -72.45
Q 14.75 -72.45 28.2 -66.75 41.2 -61.25 51.25 -51.2 61.25 -41.2 66.75 -28.2 72.45 -14.75 72.45 0 72.45 14.75 66.75 28.2 61.25 41.2 51.25 51.25 41.2 61.25 28.2 66.75 14.75 72.45 0 72.45 -14.75 72.45 -28.2 66.75 -41.2 61.25 -51.2 51.25 -61.25 41.2 -66.75 28.2 -72.45 14.75 -72.45 0 -72.45 -14.75 -66.75 -28.2 -61.25 -41.2 -51.2 -51.2 -41.2 -61.25 -28.2 -66.75 -14.75 -72.45 0 -72.45 Z"/>

<path fill="#414141" stroke="none" d="
M 28.2 -66.75
Q 14.75 -72.45 0 -72.45 -14.75 -72.45 -28.2 -66.75 -41.2 -61.25 -51.2 -51.2 -61.25 -41.2 -66.75 -28.2 -72.45 -14.75 -72.45 0 -72.45 14.75 -66.75 28.2 -61.25 41.2 -51.2 51.25 -41.2 61.25 -28.2 66.75 -14.75 72.45 0 72.45 14.75 72.45 28.2 66.75 41.2 61.25 51.25 51.25 61.25 41.2 66.75 28.2 72.45 14.75 72.45 0 72.45 -14.75 66.75 -28.2 61.25 -41.2 51.25 -51.2 41.2 -61.25 28.2 -66.75 Z"/>
</g>

<g id="Play_BTN_01_copy_1_Layer0_1_FILL">
<path fill="#FFFFFF" stroke="none" d="
M -26.3 39
L 41.3 0 -26.3 -39.05 -26.3 39 Z"/>
</g>
</defs>

<g transform="matrix( 0.3271331787109375, 0, 0, 0.3271331787109375, 25.2,25.25) ">
<g transform="matrix( 1, 0, 0, 1, 0,0) ">
<use xlink:href="#Play_BTN_01_copy_1_Layer0_0_FILL"/>
</g>

<g transform="matrix( 1, 0, 0, 1, 1.35,0) ">
<use xlink:href="#Play_BTN_01_copy_1_Layer0_1_FILL"/>
</g>
</g>
</svg>
