
<svg xmlns="http://www.w3.org/2000/svg" version="1.1" xmlns:xlink="http://www.w3.org/1999/xlink" preserveAspectRatio="none" x="0px" y="0px" width="325px" height="180px" viewBox="0 0 325 180">
<defs>
<filter id="Filter_1" x="-20%" y="-20%" width="140%" height="140%" color-interpolation-filters="sRGB">
<feFlood flood-color="#000000" flood-opacity="1" in="SourceGraphic" result="result1"/>

<feComposite in2="SourceGraphic" in="result1" operator="in" result="result2"/>

<feGaussianBlur in="result2" stdDeviation="3.3333333333333335,3.3333333333333335" result="result3"/>

<feOffset dx="3.5355339059327378" dy="3.5355339059327378" in="result3" result="result4"/>

<feComposite in2="result4" in="SourceGraphic" operator="over" result="result5"/>
</filter>

<g id="Symbol_1_copy_2_0_Layer0_0_FILL">
<path fill="#FFFFFF" stroke="none" d="
M 392.6 -204.5
Q 380.9 -216.2 364.35 -216.2
L -364.3 -216.2
Q -380.85 -216.2 -392.55 -204.5 -404.25 -192.8 -404.25 -176.25
L -404.25 176.3
Q -404.25 192.85 -392.55 204.55 -380.85 216.25 -364.3 216.25
L 364.35 216.25
Q 380.9 216.25 392.6 204.55 404.3 192.85 404.3 176.3
L 404.3 -176.25
Q 404.3 -192.8 392.6 -204.5 Z"/>
</g>

<g id="Paper_2_Layer0_0_FILL">
<path fill="#C4FFE9" stroke="none" d="
M 392.6 -204.5
Q 380.9 -216.2 364.35 -216.2
L -364.3 -216.2
Q -380.85 -216.2 -392.55 -204.5 -404.25 -192.8 -404.25 -176.25
L -404.25 176.3
Q -404.25 192.85 -392.55 204.55 -380.85 216.25 -364.3 216.25
L 364.35 216.25
Q 380.9 216.25 392.6 204.55 404.3 192.85 404.3 176.3
L 404.3 -176.25
Q 404.3 -192.8 392.6 -204.5 Z"/>
</g>
</defs>

<g transform="matrix( 0.719970703125, 0, 0, 0.719970703125, 157.2,84.75) ">
<g transform="matrix( 0.535491943359375, 0, 0, 0.535491943359375, -0.05,-0.05) ">
<g filter="url(#Filter_1)" transform="matrix( 2.593841552734375, 0, 0, 2.593841552734375, -407.6,-219.65) ">
<g transform="matrix( 0.385528564453125, 0, 0, 0.385528564453125, 157.15,84.7) ">
<g transform="matrix( 1, 0, 0, 1, 0,0) ">
<use xlink:href="#Symbol_1_copy_2_0_Layer0_0_FILL"/>
</g>
</g>
</g>

<g transform="matrix( 1, 0, 0, 1, 0,0) ">
<use xlink:href="#Paper_2_Layer0_0_FILL"/>
</g>
</g>
</g>
</svg>
