
<svg xmlns="http://www.w3.org/2000/svg" version="1.1" xmlns:xlink="http://www.w3.org/1999/xlink" preserveAspectRatio="none" x="0px" y="0px" width="325px" height="180px" viewBox="0 0 325 180">
<defs>
<g id="Symbol_14_0_Layer0_0_FILL">
<path fill="#000000" stroke="none" d="
M -11.95 -89.45
Q -15.95 -84.65 -15.95 -76.1
L -15.95 -16.05 -74.85 -16.05
Q -83.3 -16.05 -88.1 -11.95 -93.6 -7.75 -93.6 0.1 -93.7 6.95 -87.75 11.75 -82.75 16.1 -75.1 16.1
L -15.95 16.1 -15.95 76.85
Q -15.95 83.95 -11.8 89.2 -11.7 89.35 -11.55 89.55 -6.7 95.15 -0.1 95.05
L -0.05 95.05
Q 7.7 95.05 12.05 89.45
L 12 89.5
Q 16 84.75 16 76.25
L 16 16.1 74.9 16.1
Q 83.4 16.1 88.2 12.05 93.65 7.5 93.65 0.1 93.65 -6.9 88.05 -11.6 82.8 -16.05 75.15 -16.05
L 16 -16.05 16 -76.5
Q 16 -84 11.7 -89.2 11.6 -89.3 11.55 -89.35
L 11.5 -89.4
Q 6.5 -95.1 -0.1 -95 -7.6 -95 -11.7 -89.7 -11.85 -89.6 -11.95 -89.45 Z"/>
</g>
</defs>

<g transform="matrix( 0.719970703125, 0, 0, 0.719970703125, 157.2,84.75) ">
<g transform="matrix( 0.8099822998046875, 0, 0, 0.8099822998046875, 0,0) ">
<g transform="matrix( 1, 0, 0, 1, 0,0) ">
<use xlink:href="#Symbol_14_0_Layer0_0_FILL"/>
</g>
</g>
</g>
</svg>
