
<svg xmlns="http://www.w3.org/2000/svg" version="1.1" xmlns:xlink="http://www.w3.org/1999/xlink" preserveAspectRatio="none" x="0px" y="0px" width="1288px" height="848px" viewBox="0 0 1288 848">
<defs>
<linearGradient id="Gradient_1" gradientUnits="userSpaceOnUse" x1="379.6" y1="2.9749999999999996" x2="379.6" y2="28.325000000000003" spreadMethod="pad">
<stop  offset="0%" stop-color="#FFFFFF" stop-opacity="0.5019607843137255"/>

<stop  offset="100%" stop-color="#FFFFFF" stop-opacity="0"/>
</linearGradient>

<linearGradient id="Gradient_2" gradientUnits="userSpaceOnUse" x1="6.8" y1="-12.15" x2="6.8" y2="12.15" spreadMethod="pad">
<stop  offset="0%" stop-color="#999999"/>

<stop  offset="49.01960784313726%" stop-color="#484848"/>

<stop  offset="52.15686274509804%" stop-color="#262626"/>

<stop  offset="100%" stop-color="#3C3C3C"/>

<stop  offset="100%" stop-color="#636363"/>
</linearGradient>

<linearGradient id="Gradient_3" gradientUnits="userSpaceOnUse" x1="6.9" y1="-6.800000000000001" x2="6.9" y2="6.9" spreadMethod="pad">
<stop  offset="0%" stop-color="#FFFFFF"/>

<stop  offset="49.01960784313726%" stop-color="#D5D5D5"/>

<stop  offset="52.15686274509804%" stop-color="#AEAEAE"/>

<stop  offset="100%" stop-color="#9D9D9D"/>
</linearGradient>

<filter id="Filter_1" x="-20%" y="-25.44896087197712%" width="140%" height="150.89792174395424%" color-interpolation-filters="sRGB">
<feFlood flood-color="#000000" flood-opacity="1" in="SourceGraphic" result="result1"/>

<feGaussianBlur in="SourceGraphic" stdDeviation="1.6666666666666667,1.6666666666666667" result="result2"/>

<feComposite in2="result2" in="result1" operator="in" result="result3"/>

<feComposite in2="result3" in="SourceGraphic" operator="over" result="result4"/>
</filter>
</defs>

<g id="Layer_1">
<g transform="matrix( 2.363525390625, 0, 0, 2.363525390625, 644.55,423.4) ">
<g id="Layer_2">
<g transform="matrix( 0.79998779296875, 0, 0, 0.730560302734375, -161.35,-176.9) ">
<g id="Layer_1">
<g transform="matrix( 1, 0, 0, 1, 0,0) ">
<g>
<g>
<path fill="#FFFFFF" stroke="none" d="
M 528.7 482.6
Q 539.55 482.25 539.9 470.7
L 539.9 44.15 -136.5 44.15 -135 45.25 -135 467.9 -135.9 470.7
Q -135.5 482.15 -124.7 482.55
L 528.7 482.6 Z"/>

<path fill="#56770B" stroke="none" d="
M 539.9 11.2
Q 539.55 0.35 528.7 0
L -125.3 0
Q -136.1 0.35 -136.5 11.15
L -136.5 44.15 539.9 44.15 539.9 11.2 Z"/>
</g>
</g>
</g>
</g>
</g>

<g transform="matrix( 0.79998779296875, 0, 0, 0.79998779296875, -161,-176.3) ">
<g id="Layer_1">
<g transform="matrix( 1, 0, 0, 1, 0,0) ">
<g>
<g>
<path fill="#FFFFFF" fill-opacity="0.050980392156862744" stroke="none" d="
M -89.6 1.6
L -103.1 1.6 -131.75 17.65 -131.75 25.25 -89.6 1.6
M -112.8 1.6
L -116.3 1.6
Q -130.8 1.6 -131.7 12.25
L -112.8 1.6
M -43.2 1.6
L -56.7 1.6 -122.8 38.9 -109.4 38.9 -43.2 1.6
M -76.7 38.9
L -63.2 38.9 3.05 1.6 -10.35 1.6 -76.7 38.9
M -66.35 1.6
L -79.85 1.6 -131.75 30.75 -131.75 38.25 -66.35 1.6
M -20.1 1.6
L -33.55 1.6 -99.8 38.9 -86.25 38.9 -20.1 1.6
M 49.45 1.6
L 35.95 1.6 -30.2 38.9 -16.7 38.9 49.45 1.6
M 26.25 1.6
L 12.85 1.6 -53.4 38.9 -39.9 38.9 26.25 1.6
M 72.6 1.6
L 59.1 1.6 -7.05 38.9 6.35 38.9 72.6 1.6
M 85.5 38.9
L 99 38.9 165.2 1.6 151.8 1.6 85.5 38.9
M 95.8 1.6
L 82.15 1.6 16.05 38.9 29.45 38.9 95.8 1.6
M 119 1.6
L 105.5 1.6 39.25 38.9 52.7 38.9 119 1.6
M 142.25 1.6
L 128.65 1.6 62.35 38.9 75.9 38.9 142.25 1.6
M 211.6 1.6
L 198.25 1.6 131.95 38.9 145.4 38.9 211.6 1.6
M 188.4 1.6
L 174.85 1.6 108.7 38.9 122.15 38.9 188.4 1.6
M 234.9 1.6
L 221.3 1.6 155.1 38.9 168.55 38.9 234.9 1.6
M 281.15 1.6
L 267.6 1.6 201.45 38.9 214.85 38.9 281.15 1.6
M 247.75 38.9
L 261.3 38.9 327.5 1.6 314 1.6 247.75 38.9
M 257.95 1.6
L 244.4 1.6 178.25 38.9 191.7 38.9 257.95 1.6
M 304.4 1.6
L 290.8 1.6 224.65 38.9 238.1 38.9 304.4 1.6
M 373.85 1.6
L 360.5 1.6 294.15 38.9 307.7 38.9 373.85 1.6
M 350.7 1.6
L 337.2 1.6 271 38.9 284.55 38.9 350.7 1.6
M 397.05 1.6
L 383.5 1.6 317.3 38.9 330.8 38.9 397.05 1.6
M 409.85 38.9
L 423.5 38.9 489.65 1.6 476.2 1.6 409.85 38.9
M 420.15 1.6
L 406.75 1.6 340.45 38.9 353.95 38.9 420.15 1.6
M 443.45 1.6
L 429.95 1.6 363.65 38.9 377.15 38.9 443.45 1.6
M 466.6 1.6
L 453.05 1.6 386.9 38.9 400.4 38.9 466.6 1.6
M 536.1 1.6
L 522.65 1.6 456.35 38.9 469.95 38.9 536.1 1.6
M 512.85 1.6
L 499.4 1.6 433.1 38.9 446.7 38.9 512.85 1.6
M 537.75 26.75
L 537.75 19.15 502.6 38.9 516.2 38.9 537.75 26.75
M 537.75 38.9
L 537.75 32.2 525.85 38.9 537.75 38.9
M 537.75 13.7
L 537.75 6.1 479.55 38.9 493 38.9 537.75 13.7 Z"/>
</g>
</g>
</g>
</g>
</g>

<g transform="matrix( 0.79998779296875, 0, 0, 0.79998779296875, -161,-175.1) ">
<g id="Layer_1">
<g transform="matrix( 1, 0, 0, 1, 0,0) ">
<g>
<g>
<path fill="url(#Gradient_1)" stroke="none" d="
M 537.25 10.7
Q 536.95 2.05 530.05 0
L 197.7 0 -63.1 0 -122.7 0
Q -134.7 0 -134.7 12
L -134.7 21.6 -63.1 21.6 197.7 21.6 537.25 21.6 537.25 10.7 Z"/>
</g>
</g>
</g>
</g>
</g>

<g transform="matrix( 1, 0, 0, 1, 0,0) ">
<g>
<path stroke="#5E7D17" stroke-width="3" stroke-linejoin="round" stroke-linecap="square" fill="none" d="
M 260.65 -143.75
L 269.15 -143.75
M -269.1 166.4
L -269.1 -143.75"/>
</g>

<g>
<path stroke="#5E7D17" stroke-width="3" stroke-linejoin="round" stroke-linecap="round" fill="none" d="
M 269.15 -143.75
L 269.15 170.15
Q 268.9 177.3 261.05 176.9
L -19.5 176.9 -247 176.9 -260 176.9
Q -265.15 176.65 -267.45 174.6 -268.6 173.55 -268.9 171.25 -269.1 169.95 -269.1 166.4
M -269.1 -143.75
L -19.5 -143.75 260.65 -143.75"/>
</g>
</g>
</g>

<g id="Close_button">
<g transform="matrix( 0.79998779296875, 0, 0, 0.79998779296875, 247.25,-159.35) ">
<g id="hitarea">
<g transform="matrix( 1, 0, 0, 1, -102.1,-17.85) ">
<g id="Layer_1">
<g transform="matrix( 1, 0, 0, 1, 0,0) ">
<g>
<g>
<path fill="#FFFFFF" fill-opacity="0" stroke="none" d="
M 126.2 35.8
L 126.2 0 0 0 0 35.8 126.2 35.8 Z"/>
</g>
</g>
</g>
</g>
</g>
</g>

<g id="Layer_2">
<g transform="matrix( 0.8728179931640625, 0, 0, 1, 3.2,0) ">
<g>
<g>
<path fill="#3F5607" fill-opacity="0.6" stroke="none" d="
M 25.3 -8.3
Q 25.3 -18.3 15.3 -18.3
L -110.95 -18.3
Q -120.95 -18.3 -120.95 -8.3
L -120.95 9.7
Q -120.95 19.7 -110.95 19.7
L 15.3 19.7
Q 25.3 19.7 25.3 9.7
L 25.3 -8.3 Z"/>
</g>
</g>

<g transform="matrix( 1.1457061767578125, 0, 0, 1, -3.65,0) ">
<path stroke="#FFFFFF" stroke-opacity="0.6" stroke-width="1" stroke-linejoin="round" stroke-linecap="round" fill="none" d="
M 16.554115295410156 -18.3
L -93.63915634155273 -18.3
Q -102.36733627319336 -18.3 -102.36733627319336 -8.3
L -102.36733627319336 9.7
Q -102.36733627319336 19.7 -93.63915634155273 19.7
L 16.554115295410156 19.7
Q 25.28229522705078 19.7 25.28229522705078 9.7
L 25.28229522705078 -8.3
Q 25.28229522705078 -18.3 16.554115295410156 -18.3 Z"/>
</g>
</g>
</g>

<g id="base">
<g transform="matrix( 1, 0, 0, 1, 0,0) ">
<g>
<g>
<path fill="#3F5607" stroke="none" d="
M 18.15 -11.2
L 18.1 -11.2
Q 13.4 -15.95 6.85 -15.95 0.2 -15.95 -4.45 -11.2 -9.15 -6.55 -9.15 0.05 -9.15 6.6 -4.45 11.2
L -4.45 11.3
Q 0.2 16 6.85 16 13.4 16 18.1 11.3
L 18.15 11.2
Q 22.8 6.6 22.8 0.05 22.8 -6.55 18.15 -11.2 Z"/>
</g>
</g>
</g>

<g transform="matrix( 1, 0, 0, 1, 0,0) ">
<g>
<g>
<path fill="#FFFFFF" fill-opacity="0.7019607843137254" stroke="none" d="
M 16.2 -9.4
Q 12.4 -13.35 6.8 -13.35 1.25 -13.35 -2.6 -9.4 -6.55 -5.6 -6.55 0 -6.55 5.5 -2.6 9.4 1.25 13.35 6.8 13.35 12.4 13.35 16.2 9.4 20.15 5.5 20.15 0 20.15 -5.6 16.2 -9.4 Z"/>
</g>
</g>
</g>

<g transform="matrix( 1, 0, 0, 1, 0,0) ">
<g>
<g>
<path fill="url(#Gradient_2)" stroke="none" d="
M 15.35 -8.55
Q 11.85 -12.15 6.8 -12.15 1.8 -12.15 -1.75 -8.55 -5.35 -5.1 -5.35 0 -5.35 5 -1.75 8.55 1.8 12.15 6.8 12.15 11.85 12.15 15.35 8.55 18.95 5 18.95 0 18.95 -5.1 15.35 -8.55 Z"/>
</g>
</g>
</g>

<g transform="matrix( 1, 0, 0, 1, 0,0) ">
<g>
<g>
<path fill="url(#Gradient_3)" stroke="none" d="
M 3.95 -6.6
L 0.45 -6.6 5.05 -0.25 0 6.65 3.55 6.65 6.85 2.05 10.1 6.65 13.7 6.65 8.65 -0.15 13.25 -6.6 9.8 -6.6 6.9 -2.35 3.95 -6.6 Z"/>
</g>
</g>
</g>
</g>

<g id="Layer_6">
<g filter="url(#Filter_1)" transform="matrix( 0.52886962890625, 0, 0, 0.52886962890625, -649.9,-24.7) ">
<g transform="matrix( 1.890777587890625, 0, 0, 1.890777587890625, 1137.15,48.9) ">
<g id="Layer_1">
<g transform="matrix( 1, 0, 0, 1, 0,0) ">
<g>
<g>
<path fill="#FFFFFF" stroke="none" d="
M -46 -8.15
L -46 -6.75 -35.15 -6.75 -35.15 1.6 -35.35 2.35 -40.95 -1.5 -40.45 -1.95 -39.75 -2.3 -39.05 -2.5
Q -38.85 -2.5 -38.25 -2.5
L -37.35 -2.35
Q -36.85 -2.25 -36.7 -2
L -36.95 -3.6 -37.25 -3.65 -37.4 -3.7 -38.25 -3.85 -39.05 -3.85
Q -39.5 -3.85 -39.9 -3.8 -40.35 -3.75 -40.85 -3.5 -41.7 -3.1 -42.4 -2.45 -43.85 -1 -43.85 0.95 -43.85 2 -43.5 2.9 -43.1 3.75 -42.25 4.5 -41.4 5.2 -40.6 5.5 -39.75 5.8 -38.75 5.8
L -37.75 5.75
Q -37.2 5.65 -36.8 5.45
L -35.9 5
Q -35.4 4.65 -35.15 4.25
L -35.15 9.4 -33.3 9.4 -33.3 -6.75 -19.6 -6.75 -19.6 -3.6 -24.6 -3.6
Q -26.05 -3.6 -27.05 -2.35 -28 -1.1 -28 0.45 -28 2.3 -27.3 3.5 -26.55 4.75 -24.85 5.55 -23.2 6.35 -20.5 6.35
L -20.25 6.35 -20 6.3 -18.1 10.1 -15.9 10.1 -17.55 7.65 -18.4 5.8 -17.65 5.3
Q -17.05 4.65 -17.05 3.6
L -17.2 2.9
Q -17.55 2.1 -18.1 1.9 -18.4 1.7 -18.75 1.7 -19.75 1.7 -20.2 2.35
L -20.5 3.05
Q -20.5 3.2 -20.5 3.8
L -20.5 4.15
Q -20.5 4.3 -20.5 4.65
L -20.5 4.85 -20.35 5.05 -22.15 4.9 -23.35 4.65
Q -26.3 3.5 -26.3 0.45
L -26.15 -0.5 -25.6 -1.35
Q -24.7 -2.15 -23.9 -2.15
L -17.65 -2.15 -17.65 -6.75 -13.95 -6.75 -13.95 -8.15 -46 -8.15
M -41.85 -0.35
L -41.7 -0.7 -36.1 3.25 -36.85 3.85
Q -37.15 4.1 -37.35 4.2 -37.5 4.25 -37.8 4.35
L -38.15 4.45 -38.7 4.45
Q -39.2 4.45 -40 4.25 -40.65 3.95 -41.1 3.4 -41.65 2.95 -41.9 2.35 -42.1 1.75 -42.1 0.95
L -42.1 0.5 -41.9 -0.1 -41.85 -0.35
M -31.95 -14.15
L -34.25 -14.15 -34.25 -11.95 -31.95 -11.95 -31.95 -14.15
M 4.75 -3.6
Q 3.4 -3.25 2.35 -2.35 0.95 -1.1 0.95 0.95 0.95 2.95 2.45 4.3 3.95 5.65 5.85 5.65 7.75 5.65 9.05 4.35
L 9.05 9.4 10.8 9.4 10.8 2.15
Q 10.8 1.6 11.05 0.85 11.45 0.05 11.8 -0.5 13 -1.95 14.4 -1.95 16.05 -1.95 16.65 -0.8 17 -0.1 17 0.9 17 1.55 16.6 2.5 15.85 4.25 14.4 5.7 14.1 6 13.85 6.1
L 15.3 7.2 17.1 5.15
Q 18.85 2.95 18.85 1 18.85 -0.9 17.55 -2.05 16.1 -3.35 14.2 -3.35 12.9 -3.35 11.8 -2.55
L 10.8 -1.6 10.8 -6.75 29 -6.75 29 -2.45
Q 28.8 -1.25 28.25 -0.75 27.75 -0.25 26.65 -0.25 25.25 -0.25 24.7 -1.1
L 23.3 -3.5 21.9 -2.45 25.35 3.15
Q 26.95 5.65 28.65 7.55 30.05 9.25 30.55 9.4
L 31.8 8.25 28.3 4.35 25.9 0.85
Q 26 0.95 26.5 1.05
L 27.15 1.05
Q 27.8 1.05 28.5 0.8 30.8 -0.1 30.8 -2.3
L 30.8 -6.75 33.55 -6.75 33.55 -8.15 30 -8.15 23 -16.7 21.85 -15.4 28.85 -8.15 -1.35 -8.15 -1.35 -6.75 9.05 -6.75 9.05 1.7
Q 9.05 2.35 8.3 3.05 7.05 4.35 5.85 4.35 5.3 4.35 4.6 4.1 2.9 3.25 2.9 1.1 2.9 -0.3 3.75 -1.3 4.55 -2.3 5.95 -2.3
L 6.5 -2.3 7 -2.1 7.15 -1.95 7.5 -1.9 7.5 -3.35
Q 7.25 -3.5 6.6 -3.6
L 5.65 -3.7 4.75 -3.6
M 29.8 -14.15
L 29.8 -11.95 32.1 -11.95 32.1 -14.15 29.8 -14.15 Z"/>
</g>
</g>
</g>
</g>
</g>
</g>
</g>
</g>
</g>

<g id="Layer_3"/>
</g>
</g>
</svg>
