
<svg xmlns="http://www.w3.org/2000/svg" version="1.1" xmlns:xlink="http://www.w3.org/1999/xlink" preserveAspectRatio="none" x="0px" y="0px" width="278px" height="216px" viewBox="0 0 278 216">
<defs>
<g id="Symbol_4_2_Layer0_0_FILL">
<path fill="#000000" stroke="none" d="
M 170.4 108.8
Q 170.4 105.1 169.05 100.05 167.45 96.35 164.4 93.2 158.9 87.75 149.55 87.75
L 145.65 87.75
Q 138.7 88.9 133.55 91.95
L 128.5 94.9 126.2 97 133.95 103.95 138.3 99.55
Q 143.75 95.75 148.4 95.75
L 152.9 96.6
Q 155.25 98.25 156.4 99.75
L 159.35 103.95
Q 160.3 106.25 160.7 108.7 160.7 112.35 159.35 115.1 153.25 124.6 139.1 124.6 127.2 124.6 113.75 115.65
L 101 106.7 94.4 115.1
Q 96.7 117.35 102.6 120.9
L 108.8 124.4 116.4 127.95
Q 129.1 133.2 138.6 133.2 150.7 133.2 159.85 127.55 170.4 121.1 170.4 108.8 Z"/>
</g>
</defs>

<g transform="matrix( 1, 0, 0, 1, -0.6,-1.45) ">
<g transform="matrix( 1, 0, 0, 1, 0,0) ">
<use xlink:href="#Symbol_4_2_Layer0_0_FILL"/>
</g>
</g>
</svg>
