
<svg xmlns="http://www.w3.org/2000/svg" version="1.1" xmlns:xlink="http://www.w3.org/1999/xlink" preserveAspectRatio="none" x="0px" y="0px" width="278px" height="216px" viewBox="0 0 278 216">
<defs>
<g id="Layer0_0_FILL">
<path fill="#000000" stroke="none" d="
M 168.4 135.7
Q 173.15 122.65 173.15 100.7 173.15 79.6 168.4 68.5 163.55 57.35 154.35 51.3 145.05 45.3 133.85 45.3 118.4 45.3 108.15 55.95 97.85 66.55 97.85 83.95 97.85 100.85 107.7 111.15 117.55 121.45 131.75 121.45 140.25 121.45 147.6 117.35 154.85 113.1 159.1 106.4 159.15 108.25 159.15 109.2 159.15 117.95 157.05 126.4 154.95 134.85 151.85 139.85 148.7 144.75 143.85 147.7 138.95 150.7 132.45 150.7 124.85 150.7 120.05 146.4 115.2 142.1 113.45 132.55
L 99.95 133.8
Q 101.65 147.35 110.2 154.85 118.7 162.25 132.15 162.25 144.8 162.25 154.25 155.45 163.6 148.65 168.4 135.7
M 112.3 84.45
Q 112.3 72.25 119.25 64.6 126.2 56.95 135.6 56.95 144.65 56.95 151.1 64.05 157.55 71.15 157.55 83.25 157.55 95.4 151.3 102.25 144.95 109.05 135.2 109.05 125.5 109.05 118.95 102.25 112.3 95.4 112.3 84.45 Z"/>
</g>
</defs>

<g transform="matrix( 1, 0, 0, 1, 0,0) ">
<use xlink:href="#Layer0_0_FILL"/>
</g>
</svg>
