
<svg xmlns="http://www.w3.org/2000/svg" version="1.1" xmlns:xlink="http://www.w3.org/1999/xlink" preserveAspectRatio="none" x="0px" y="0px" width="1851px" height="873px" viewBox="0 0 1851 873">
<defs>
<linearGradient id="Gradient_1" gradientUnits="userSpaceOnUse" x1="2.05" y1="-432.70000000000005" x2="2.05" y2="420.6" spreadMethod="pad">
<stop  offset="0%" stop-color="#404D5D"/>

<stop  offset="100%" stop-color="#647791"/>
</linearGradient>

<filter id="Filter_1" x="-20%" y="-20%" width="140%" height="140%" color-interpolation-filters="sRGB">
<feFlood flood-color="#000000" flood-opacity="1" in="SourceGraphic" result="result1"/>

<feComposite in2="SourceGraphic" in="result1" operator="in" result="result2"/>

<feGaussianBlur in="result2" stdDeviation="10,10" result="result3"/>

<feOffset dx="7.778174593052023" dy="7.778174593052023" in="result3" result="result4"/>

<feComposite in2="result4" in="SourceGraphic" operator="over" result="result5"/>
</filter>

<g id="Symbol_92_0_Layer1_0_FILL">
<path fill="url(#Gradient_1)" stroke="none" d="
M 902.7 -413.1
Q 895.2 -420.6 884.55 -420.6
L -884.5 -420.6
Q -895.15 -420.6 -902.7 -413.1 -910.2 -405.55 -910.2 -394.9
L -910.2 394.95
Q -910.2 405.6 -902.7 413.1 -895.15 420.65 -884.5 420.65
L 884.55 420.65
Q 895.2 420.65 902.7 413.1 910.25 405.6 910.25 394.95
L 910.25 -394.9
Q 910.25 -405.55 902.7 -413.1 Z"/>
</g>

<path id="Symbol_92_0_Layer1_1_1_STROKES" stroke="#333333" stroke-opacity="0.3764705882352941" stroke-width="17.2" stroke-linejoin="round" stroke-linecap="round" fill="none" d="
M -876.2101257324218 -412.1631309509277
L 876.2118408203125 -412.1631309509277
Q 886.7617370605469 -412.1631309509277 894.1912414550782 -404.81316299438475 901.6702758789063 -397.41419525146483 901.6702758789063 -386.9772407531738
L 901.6702758789063 387.0723846435547
Q 901.6702758789063 397.5093391418457 894.1912414550782 404.8593070983887 886.7617370605469 412.2582748413086 876.2118408203125 412.2582748413086
L -876.2101257324218 412.2582748413086
Q -886.7600219726562 412.2582748413086 -894.2390563964843 404.8593070983887 -901.6685607910156 397.5093391418457 -901.6685607910156 387.0723846435547
L -901.6685607910156 -386.9772407531738
Q -901.6685607910156 -397.41419525146483 -894.2390563964843 -404.81316299438475 -886.7600219726562 -412.1631309509277 -876.2101257324218 -412.1631309509277 Z"/>

<path id="Symbol_92_0_Layer1_2_1_STROKES" stroke="#848B93" stroke-width="11.15" stroke-linejoin="round" stroke-linecap="round" fill="none" d="
M 75.55 30.65
L 1844.6 30.65
Q 1855.25 30.65 1862.75 38.15 1870.3 45.7 1870.3 56.35
L 1870.3 846.2
Q 1870.3 856.85 1862.75 864.35 1855.25 871.9 1844.6 871.9
L 75.55 871.9
Q 64.9 871.9 57.35 864.35 49.85 856.85 49.85 846.2
L 49.85 56.35
Q 49.85 45.7 57.35 38.15 64.9 30.65 75.55 30.65 Z"/>
</defs>

<g filter="url(#Filter_1)" transform="matrix( 1, 0, 0, 1, 0,0) ">
<g transform="matrix( 1, 0, 0, 1, 918.85,429.25) ">
<g transform="matrix( 1, 0, 0, 1, 0,0) ">
<use xlink:href="#Symbol_92_0_Layer1_0_FILL"/>
</g>

<g transform="matrix( 0.9906005859375, 0, 0, 0.9799957275390625, -951.05,-442.2) ">
<use xlink:href="#Symbol_92_0_Layer1_1_1_STROKES" transform="matrix( 1.009490966796875, 0, 0, 1.020416259765625, 960.1,451.25) "/>
</g>

<g transform="matrix( 1, 0, 0, 1, -960.05,-451.25) ">
<use xlink:href="#Symbol_92_0_Layer1_2_1_STROKES"/>
</g>
</g>
</g>
</svg>
