
<svg xmlns="http://www.w3.org/2000/svg" version="1.1" xmlns:xlink="http://www.w3.org/1999/xlink" preserveAspectRatio="none" x="0px" y="0px" width="686px" height="560px" viewBox="0 0 686 560">
<defs>
<g id="Duplicate_Items_Folder_Symbol_4_copy_2_1_Layer0_0_FILL">
<path fill="#0A0A0A" stroke="none" d="
M 69.15 -50.9
L 69.15 -63.2 -66.2 -63.2 -66.2 -50.9 19.2 -50.9 19.2 -23.5 -32.95 -23.5 -38.05 -22.3 -42.75 -19.25 -46.15 -15.15 -47 -10.6
Q -47 -1.35 -32.8 17.95 -18.6 37.3 -6.6 37.3
L 1.9 36.15 13.2 32.75 23.15 29.25 28 28.1 31.05 29.25
Q 31.65 29.85 32.55 31.15 33.25 32.6 33.25 36.45
L 33.25 42.15
Q 33.25 62.8 14.95 70.85 12.3 72.75 7.5 73.35 3.1 74.8 -2.9 74.8
L -12.3 63.1
Q -24.45 51.35 -34.1 51.35
L -39.85 52.55 -43.95 55.6
Q -46.15 57.65 -47 60.45
L -47.9 65.45
Q -47.9 80.2 -33.85 84.75 -31.5 86.25 -29.3 86.25 -23.55 87.7 -19.45 87.7
L -8.9 87.7 -6.6 90.75 -0.85 95.75 6.6 103.35 21.85 116.55
Q 24.35 118.9 26.8 120.8 29.45 122.55 30.9 123.45
L 38.7 128.55 46.9 115.55 26.65 102.5 14.5 91.95 11.6 89.9 8.2 86.25
Q 14.2 86.25 22.55 82.4
L 30.05 77
Q 41.75 67.75 46 56.05 49.25 47.4 49.25 37.3
L 48.05 29.25
Q 46 23.55 44.85 21.8 40.3 15.2 33.25 15.2
L 26.8 15.2 11.45 20.45
Q 2.5 23.4 -3.2 23.4
L -7.45 22.5 -12.3 18.55 -20.95 9.05 -25.35 3.3 -28.1 -1.2 -29.3 -4.6 -29.3 -8.85 -27.55 -11.45 35.15 -11.45 35.15 -50.9 69.15 -50.9 Z"/>
</g>
</defs>

<g transform="matrix( 1.67596435546875, 0, 0, 1.67596435546875, 341.7,283.05) ">
<g transform="matrix( 1, 0, 0, 1, 2.7,-23.7) ">
<use xlink:href="#Duplicate_Items_Folder_Symbol_4_copy_2_1_Layer0_0_FILL"/>
</g>
</g>
</svg>
