
<svg xmlns="http://www.w3.org/2000/svg" version="1.1" xmlns:xlink="http://www.w3.org/1999/xlink" preserveAspectRatio="none" x="0px" y="0px" width="686px" height="560px" viewBox="0 0 686 560">
<defs>
<g id="Duplicate_Items_Folder_Symbol_4_copy_2_2_Layer0_0_FILL">
<path fill="#0A0A0A" stroke="none" d="
M 68.75 -51.95
L 68.75 -64.25 -66.6 -64.25 -66.6 -51.95 18.8 -51.95 18.8 -24.55 -33.35 -24.55 -38.45 -23.35 -43.15 -20.3 -46.55 -16.2 -47.4 -11.65
Q -47.4 -2.4 -33.2 16.9 -19 36.25 -7 36.25
L 1.5 35.1 12.8 31.7 22.75 28.2 27.6 27.05 30.65 28.2
Q 31.25 28.8 32.15 30.1 32.85 31.55 32.85 35.4
L 32.85 41.1
Q 32.85 61.75 14.55 69.8 11.9 71.7 7.1 72.3 2.7 73.75 -3.3 73.75
L -12.7 62.05
Q -24.85 50.3 -34.5 50.3
L -40.25 51.5 -44.35 54.55
Q -46.55 56.6 -47.4 59.4
L -48.3 64.4
Q -48.3 79.15 -34.25 83.7 -31.9 85.2 -29.7 85.2 -23.95 86.65 -19.85 86.65
L -9.3 86.65 -7 89.7 -1.25 94.7 6.2 102.3 21.45 115.5
Q 23.95 117.85 26.4 119.75 29.05 121.5 30.5 122.4
L 38.3 127.5 46.5 114.5 26.25 101.45 14.1 90.9 11.2 88.85 7.8 85.2
Q 13.8 85.2 22.15 81.35
L 29.65 75.95
Q 41.35 66.7 45.6 55 48.85 46.35 48.85 36.25
L 47.65 28.2
Q 45.6 22.5 44.45 20.75 39.9 14.15 32.85 14.15
L 26.4 14.15 11.05 19.4
Q 2.1 22.35 -3.6 22.35
L -7.85 21.45 -12.7 17.5 -21.35 8 -25.75 2.25 -28.5 -2.25 -29.7 -5.65 -29.7 -9.9 -27.95 -12.5 34.75 -12.5 34.75 -51.95 68.75 -51.95 Z"/>
</g>

<g id="Duplicate_Items_Folder_Symbol_4_copy_2_2_Layer0_1_FILL">
<path fill="#0A0A0A" stroke="none" d="
M 20.1 -129.55
Q 10.45 -122.35 10.45 -109.75 10.45 -102.75 13.1 -94.7
L 21 -78.15 27.9 -67.45
Q 29.6251953125 -64.985546875 31.9 -63.25
L 32 -63.2 43.15 -63.2 43.1 -63.25 37.7 -69.8 33.6 -75.5
Q 29.05 -81.5 26.4 -88.95 23.9 -96.45 23.9 -103.15 23.9 -112.1 29.35 -118.25 34.75 -124.4 43.4 -124.4
L 49.7 -124.4 55.4 -122.95 57.45 -121.8 59.65 -121.05 59.95 -133.05 51.75 -135.85 43.1 -136.7
Q 29.95 -136.7 20.1 -129.55 Z"/>
</g>
</defs>

<g transform="matrix( 1.67596435546875, 0, 0, 1.67596435546875, 341.7,283.05) ">
<g transform="matrix( 1, 0, 0, 1, 0,0) ">
<use xlink:href="#Duplicate_Items_Folder_Symbol_4_copy_2_2_Layer0_0_FILL"/>
</g>

<g transform="matrix( 1, 0, 0, 1, -11.95,-1.05) ">
<use xlink:href="#Duplicate_Items_Folder_Symbol_4_copy_2_2_Layer0_1_FILL"/>
</g>
</g>
</svg>
