
<svg xmlns="http://www.w3.org/2000/svg" version="1.1" xmlns:xlink="http://www.w3.org/1999/xlink" preserveAspectRatio="none" x="0px" y="0px" width="250px" height="75px" viewBox="0 0 250 75">
<defs/>

<g id="btn">
<g transform="matrix( 1, 0, 0, 1, 125,37.5) ">
<g id="Layer_1">
<g transform="matrix( 1, 0, 0, 1, -0.05,0) ">
<g id="Layer_1">
<g transform="matrix( 1, 0, 0, 1, 0,0) ">
<g>
<g>
<path fill="#0A5495" fill-opacity="0.8" stroke="none" d="
M 120.65 -18.3
Q 120.65 -32.25 106.7 -32.25
L -106.6 -32.25
Q -120.6 -32.25 -120.6 -18.3
L -120.6 18.3
Q -120.6 32.3 -106.6 32.3
L 106.7 32.3
Q 120.65 32.3 120.65 18.3
L 120.65 -18.3 Z"/>
</g>
</g>

<g>
<path stroke="#FFFFFF" stroke-width="7.55" stroke-linejoin="round" stroke-linecap="round" fill="none" d="
M 106.7 -32.25
L -106.6 -32.25
Q -120.6 -32.25 -120.6 -18.3
L -120.6 18.3
Q -120.6 32.3 -106.6 32.3
L 106.7 32.3
Q 120.65 32.3 120.65 18.3
L 120.65 -18.3
Q 120.65 -32.25 106.7 -32.25 Z"/>
</g>
</g>
</g>
</g>

<g transform="matrix( 1.398590087890625, 0, 0, 1.398590087890625, 0,0) ">
<g id="Layer_1">
<g transform="matrix( 1, 0, 0, 1, 0,0) ">
<g>
<g>
<path fill="#3B76AA" stroke="none" d="
M -76.25 -23.05
Q -86.25 -23.05 -86.25 -13.05
L -86.25 13.1
Q -86.25 23.1 -76.25 23.1
L 76.25 23.1
Q 86.25 23.1 86.25 13.1
L 86.25 -13.05
Q 86.25 -23.05 76.25 -23.05
L -76.25 -23.05 Z"/>
</g>
</g>
</g>
</g>
</g>
</g>
</g>
</g>
</svg>
