
<svg xmlns="http://www.w3.org/2000/svg" version="1.1" xmlns:xlink="http://www.w3.org/1999/xlink" preserveAspectRatio="none" x="0px" y="0px" width="16px" height="23px" viewBox="0 0 16 23">
<defs/>

<g id="Layer_1">
<g transform="matrix( 1, 0, 0, 1, 8,11.5) ">
<g id="Layer_1">
<g transform="matrix( 1, 0, 0, 1, 0,0) ">
<g>
<g>
<path fill="#000000" stroke="none" d="
M 4.4 -4.95
Q 4.4 -3.45 3.15 -1.75 1.9 -0.05 -1.6 2.85 -3.9 4.75 -5.1 6.15 -6.3 7.6 -6.85 9.05 -7.2 9.95 -7.2 10.9
L 7.2 10.9 7.2 8.35 -3.45 8.35
Q -3.05 7.6 -2.35 6.9 -1.65 6.15 0.75 4.15 3.6 1.7 4.85 0.35 6.1 -1.05 6.6 -2.3 7.15 -3.6 7.15 -4.9 7.15 -7.45 5.35 -9.2 3.5 -10.9 0.4 -10.9 -2.7 -10.9 -4.55 -9.3 -6.4 -7.7 -6.7 -4.65
L -3.95 -4.35
Q -3.9 -6.4 -2.75 -7.55 -1.6 -8.7 0.3 -8.7 2.15 -8.7 3.3 -7.6 4.4 -6.55 4.4 -4.95 Z"/>
</g>
</g>
</g>
</g>
</g>
</g>
</svg>
