
<svg xmlns="http://www.w3.org/2000/svg" version="1.1" xmlns:xlink="http://www.w3.org/1999/xlink" preserveAspectRatio="none" x="0px" y="0px" width="690px" height="549px" viewBox="0 0 690 549">
<defs>
<g id="Symbol_1_0_Layer2_0_FILL">
<path fill="#000000" fill-opacity="0.4" stroke="none" d="
M 13.95 -0.05
Q 18.95 -6.3 24.8 -6.3 31.6 -6.3 34.15 -1.3 35.55 1.6 35.55 5.65 35.55 8.5 34.05 12.45 30.75 19.85 24.8 25.85 23.45 27.1 22.5 27.45
L 28.6 32.1 36.05 23.55
Q 43.45 14.3 43.45 6.2 43.45 -1.8 37.85 -6.75 31.9 -12.15 23.95 -12.15 18.4 -12.15 13.95 -8.7
L 9.7 -4.85 9.7 -26.35 50.75 -26.35 50.75 -32.2 -41.25 -32.2 -41.25 -26.35 2.25 -26.35 2.25 9.15
Q 2.25 11.85 -0.75 14.85 -6.05 20.15 -11.1 20.15 -13.4 20.15 -16.4 19.15 -23.35 15.6 -23.35 6.65 -23.35 0.8 -19.95 -3.55 -16.55 -7.75 -10.55 -7.75
L -8.4 -7.75 -6.3 -6.95 -5.55 -6.3 -4.15 -5.95 -4.15 -12.15
Q -5.15 -12.8 -8 -13.15
L -11.9 -13.5 -15.7 -13.05
Q -21.4 -11.75 -25.65 -7.9 -31.5 -2.6 -31.5 5.85 -31.5 14.3 -25.25 19.9 -19 25.55 -11 25.55 -3.05 25.55 2.25 20.25
L 2.25 41.35 9.7 41.35 9.7 10.85
Q 9.7 8.65 10.8 5.5 12.4 2.1 13.95 -0.05 Z"/>
</g>

<g id="Symbol_1_0_Layer1_0_FILL">
<path fill="#000000" stroke="none" d="
M 9.75 -2.05
Q 14.75 -8.3 20.6 -8.3 27.4 -8.3 29.95 -3.3 31.35 -0.4 31.35 3.65 31.35 6.5 29.85 10.45 26.55 17.85 20.6 23.85 19.25 25.1 18.3 25.45
L 24.4 30.1 31.85 21.55
Q 39.25 12.3 39.25 4.2 39.25 -3.8 33.65 -8.75 27.7 -14.15 19.75 -14.15 14.2 -14.15 9.75 -10.7
L 5.5 -6.85 5.5 -28.35 46.55 -28.35 46.55 -34.2 -45.45 -34.2 -45.45 -28.35 -1.95 -28.35 -1.95 7.15
Q -1.95 9.85 -4.95 12.85 -10.25 18.15 -15.3 18.15 -17.6 18.15 -20.6 17.15 -27.55 13.6 -27.55 4.65 -27.55 -1.2 -24.15 -5.55 -20.75 -9.75 -14.75 -9.75
L -12.6 -9.75 -10.5 -8.95 -9.75 -8.3 -8.35 -7.95 -8.35 -14.15
Q -9.35 -14.8 -12.2 -15.15
L -16.1 -15.5 -19.9 -15.05
Q -25.6 -13.75 -29.85 -9.9 -35.7 -4.6 -35.7 3.85 -35.7 12.3 -29.45 17.9 -23.2 23.55 -15.2 23.55 -7.25 23.55 -1.95 18.25
L -1.95 39.35 5.5 39.35 5.5 8.85
Q 5.5 6.65 6.6 3.5 8.2 0.1 9.75 -2.05 Z"/>
</g>

<g id="Symbol_1_2_Layer2_0_FILL">
<path fill="#000000" fill-opacity="0.4" stroke="none" d="
M 43.25 -26.35
L 43.25 -32.2 -33.15 -32.2 -33.15 -26.35 -10.05 -26.35 -10.05 -3.4 -21.2 -2.95 -22 -2.3
Q -22.3 -1.85 -22.3 -0.8 -22.3 1.15 -20.75 3.85 -16.75 10.6 -10.35 15.25 -7.35 17 -5.95 17
L -3.95 16.45
Q -3.1 15.75 -2.8 14.3
L -2.8 -26.35 19.65 -26.35 19.65 41.35 27.25 41.35 27.25 -26.35 43.25 -26.35 Z"/>
</g>

<g id="Symbol_1_2_Layer1_0_FILL">
<path fill="#000000" stroke="none" d="
M 23.05 -28.35
L 39.05 -28.35 39.05 -34.2 -37.35 -34.2 -37.35 -28.35 -14.25 -28.35 -14.25 -5.4 -25.4 -4.95 -26.2 -4.3
Q -26.5 -3.85 -26.5 -2.8 -26.5 -0.85 -24.95 1.85 -20.95 8.6 -14.55 13.25 -11.55 15 -10.15 15
L -8.15 14.45
Q -7.3 13.75 -7 12.3
L -7 -28.35 15.45 -28.35 15.45 39.35 23.05 39.35 23.05 -28.35 Z"/>
</g>

<g id="Symbol_1_3_Layer2_0_FILL">
<path fill="#000000" fill-opacity="0.4" stroke="none" d="
M 17.45 -30.05
L 10.2 -30.05 -22.35 16.3 -22.35 24.25 8.6 24.25 8.6 41.35 17.45 41.35 17.45 24.25 27.1 24.25 27.1 16.25 17.45 16.25 17.45 -30.05
M 8.6 16.25
L -13.8 16.25 8.6 -15.9 8.6 16.25 Z"/>
</g>

<g id="Symbol_1_3_Layer1_0_FILL">
<path fill="#000000" stroke="none" d="
M 13.25 -32.05
L 6 -32.05 -26.55 14.3 -26.55 22.25 4.4 22.25 4.4 39.35 13.25 39.35 13.25 22.25 22.9 22.25 22.9 14.25 13.25 14.25 13.25 -32.05
M 4.4 14.25
L -18 14.25 4.4 -17.9 4.4 14.25 Z"/>
</g>

<g id="Symbol_1_4_Layer2_0_FILL">
<path fill="#000000" fill-opacity="0.4" stroke="none" d="
M 42.45 -26.35
L 56.25 -26.35 56.25 -32.2 -44.6 -32.2 -44.6 -26.35 -15.4 -26.35 -15.4 -6.4 -15.8 -3.65
Q -16.65 -1.25 -19.2 -0.4
L -22.05 0 -24.75 0 -27.05 -1 -27.9 -1.6 -28.8 -2.5 -31.15 -10.7 -37.65 -7.3 -33.6 4.25 -31.15 9.95
Q -28.2 16.65 -22.95 23.35 -15.4 32.8 -5 35.65 -1.1 36.75 5.3 36.75
L 12.8 36.05 20.8 33.75 28.4 30.5 34.8 26.4 34.85 26.25 34.85 41.35 42.45 41.35 42.45 -26.35
M 11.25 -0.25
Q 11.25 -2.95 11.95 -4.8 14.2 -9.25 17.9 -9.65 19.35 -10.35 22.25 -10.35
L 25.8 -9.95 29.05 -9.1 27.3 -14.25 24.05 -15.35 20.9 -15.75 17.65 -15.75
Q 11.8 -14.45 7.9 -10.15 4 -5.75 4 -0.2 4 3.1 5.1 6.2 10.25 15.4 20.35 15.4
L 22.8 15.4 25.35 14.85 30.7 12.55 32.6 11.45 34.85 9.6 34.85 18.95
Q 31.7 21.65 29.1 23.4
L 25.55 25.5 20.65 27.65
Q 16.55 29.5 13.15 30.2 9.8 30.9 5.85 30.9 -1.4 30.9 -8.2 27.55 -14.95 24.25 -18.8 18.1
L -22.2 12.8 -25.65 5.3 -19.15 4.8 -14 3.45
Q -8.15 0.45 -8.15 -5.95
L -8.15 -26.35 34.85 -26.35 34.85 1.25
Q 33.55 3.3 32.45 4.4 28.65 8.3 24.75 8.7 23.2 9.25 20.65 9.25
L 16.95 8.7
Q 11.25 6.55 11.25 -0.25 Z"/>
</g>

<g id="Symbol_1_4_Layer1_0_FILL">
<path fill="#000000" stroke="none" d="
M 52.05 -28.35
L 52.05 -34.2 -48.8 -34.2 -48.8 -28.35 -19.6 -28.35 -19.6 -8.4 -20 -5.65
Q -20.85 -3.25 -23.4 -2.4
L -26.25 -2 -28.95 -2 -31.25 -3 -32.1 -3.6 -33 -4.5 -35.35 -12.7 -41.85 -9.3 -37.8 2.25 -35.35 7.95
Q -32.4 14.65 -27.15 21.35 -19.6 30.8 -9.2 33.65 -5.3 34.75 1.1 34.75
L 8.6 34.05 16.6 31.75 24.2 28.5 30.6 24.4 30.65 24.2 30.65 39.35 38.25 39.35 38.25 -28.35 52.05 -28.35
M 7.05 -2.25
Q 7.05 -4.95 7.75 -6.8 10 -11.25 13.7 -11.65 15.15 -12.35 18.05 -12.35
L 21.6 -11.95 24.85 -11.1 23.1 -16.25 19.85 -17.35 16.7 -17.75 13.45 -17.75
Q 7.6 -16.45 3.7 -12.15 -0.2 -7.75 -0.2 -2.2 -0.2 1.1 0.9 4.2 6.05 13.4 16.15 13.4
L 18.6 13.4 21.15 12.85 26.5 10.55 28.4 9.45 30.65 7.6 30.65 16.95
Q 27.4966796875 19.65703125 24.9 21.4
L 21.35 23.5 16.45 25.65
Q 12.35 27.5 8.95 28.2 5.6 28.9 1.65 28.9 -5.6 28.9 -12.4 25.55 -19.15 22.25 -23 16.1
L -26.4 10.8 -29.85 3.3 -23.35 2.8 -18.2 1.45
Q -12.35 -1.55 -12.35 -7.95
L -12.35 -28.35 30.65 -28.35 30.65 -0.8
Q 29.3296875 1.3205078125 28.25 2.4 24.45 6.3 20.55 6.7 19 7.25 16.45 7.25
L 12.75 6.7
Q 7.05 4.55 7.05 -2.25 Z"/>
</g>

<g id="Symbol_1_5_Layer2_0_FILL">
<path fill="#000000" fill-opacity="0.4" stroke="none" d="
M -12.1 -23.75
Q -18.05 -18.3 -18.85 -8.65
L -9.9 -7.55
Q -9.9 -10.55 -8.9 -13.5 -5.8 -21.95 4.1 -21.95 10.5 -21.95 13.95 -18.2 17.45 -14.35 17.45 -9.55
L 17.45 -6.85
Q 16.25 -2.4 13.4 1.3
L 7.2 7.85 -9.15 21.95 -13.7 26.95
Q -18.3 32.4 -19.45 36.35
L -20.35 39.35
Q -20.6 40.05 -20.6 42.35
L 26.55 42.35 26.55 33.95 -8.5 33.95 -4.8 29.35 13.15 13.55 20.6 5.75 24.85 -1.3 25.6 -3.2
Q 26.15 -4.25 26.15 -5.1
L 26.45 -9.35
Q 26.45 -18.05 20.25 -23.6 14.05 -29.2 4.25 -29.2 -6.2 -29.2 -12.1 -23.75 Z"/>
</g>

<g id="Symbol_1_5_Layer1_0_FILL">
<path fill="#000000" stroke="none" d="
M -16.3 -26.75
Q -22.25 -21.3 -23.05 -11.65
L -14.1 -10.55
Q -14.1 -13.55 -13.1 -16.5 -10 -24.95 -0.1 -24.95 6.3 -24.95 9.75 -21.2 13.25 -17.35 13.25 -12.55
L 13.25 -9.85
Q 12.05 -5.4 9.2 -1.7
L 3 4.85 -13.35 18.95 -17.9 23.95
Q -22.5 29.4 -23.65 33.35
L -24.55 36.35
Q -24.8 37.05 -24.8 39.35
L 22.35 39.35 22.35 30.95 -12.7 30.95 -9 26.35 8.95 10.55 16.4 2.75 20.65 -4.3 21.4 -6.2
Q 21.95 -7.25 21.95 -8.1
L 22.25 -12.35
Q 22.25 -21.05 16.05 -26.6 9.85 -32.2 0.05 -32.2 -10.4 -32.2 -16.3 -26.75 Z"/>
</g>

<path id="Blank_P1_0_Layer0_0_1_STROKES" stroke="#000000" stroke-width="2" stroke-linejoin="round" stroke-linecap="round" fill="none" d="
M 65.4 26.55
Q 65.4 122 3.45 191.8 15.8 95.05 -65.4 0.65 -29.8 -129.95 -60.5 -191.8 -32.65 -175.5 -8.15 -151 65.4 -77.45 65.4 26.55 Z"/>

<path id="Symbol_1_0_Layer1_0_1_STROKES" stroke="#FFFFFF" stroke-width="1" stroke-linejoin="round" stroke-linecap="round" fill="none" d="
M 5.5 -28.35
L 5.5 -6.85 9.75 -10.7
Q 14.2 -14.15 19.75 -14.15 27.7 -14.15 33.65 -8.75 39.25 -3.8 39.25 4.2 39.25 12.3 31.85 21.55
L 24.4 30.1 18.3 25.45
Q 19.25 25.1 20.6 23.85 26.55 17.85 29.85 10.45 31.35 6.5 31.35 3.65 31.35 -0.4 29.95 -3.3 27.4 -8.3 20.6 -8.3 14.75 -8.3 9.75 -2.05 8.2 0.1 6.6 3.5 5.5 6.65 5.5 8.85
L 5.5 39.35 -1.95 39.35 -1.95 18.25
Q -7.25 23.55 -15.2 23.55 -23.2 23.55 -29.45 17.9 -35.7 12.3 -35.7 3.85 -35.7 -4.6 -29.85 -9.9 -25.6 -13.75 -19.9 -15.05
L -16.1 -15.5 -12.2 -15.15
Q -9.35 -14.8 -8.35 -14.15
L -8.35 -7.95 -9.75 -8.3 -10.5 -8.95 -12.6 -9.75 -14.75 -9.75
Q -20.75 -9.75 -24.15 -5.55 -27.55 -1.2 -27.55 4.65 -27.55 13.6 -20.6 17.15 -17.6 18.15 -15.3 18.15 -10.25 18.15 -4.95 12.85 -1.95 9.85 -1.95 7.15
L -1.95 -28.35 -45.45 -28.35 -45.45 -34.2 46.55 -34.2 46.55 -28.35 5.5 -28.35 Z"/>

<path id="Blank_P2_0_Layer0_0_1_STROKES" stroke="#000000" stroke-width="2" stroke-linejoin="round" stroke-linecap="round" fill="none" d="
M 107.8 64.95
Q 34.3 138.5 -69.7 138.5 -96.4 138.5 -121.05 133.65 25.5 46.1 50.55 -138.45 131.75 -44.05 119.4 52.7 113.85 58.9 107.8 64.95 Z"/>

<path id="Symbol_1_2_Layer1_0_1_STROKES" stroke="#FFFFFF" stroke-width="1" stroke-linejoin="round" stroke-linecap="round" fill="none" d="
M 23.05 -28.35
L 23.05 39.35 15.45 39.35 15.45 -28.35 -7 -28.35 -7 12.3
Q -7.3 13.75 -8.15 14.45
L -10.15 15
Q -11.55 15 -14.55 13.25 -20.95 8.6 -24.95 1.85 -26.5 -0.85 -26.5 -2.8 -26.5 -3.85 -26.2 -4.3
L -25.4 -4.95 -14.25 -5.4 -14.25 -28.35 -37.35 -28.35 -37.35 -34.2 39.05 -34.2 39.05 -28.35 23.05 -28.35 Z"/>

<path id="Blank_P3_0_Layer0_0_1_STROKES" stroke="#000000" stroke-width="2" stroke-linejoin="round" stroke-linecap="round" fill="none" d="
M -114.6 67.35
Q -169.2 12.7 -183.2 -58.75 -12.75 -42.65 183.2 -136.05 158.15 48.5 11.6 136.05 -59.9 122.05 -114.6 67.35 Z"/>

<path id="Symbol_1_3_Layer1_0_1_STROKES" stroke="#FFFFFF" stroke-width="1" stroke-linejoin="round" stroke-linecap="round" fill="none" d="
M 4.4 22.25
L -26.55 22.25 -26.55 14.3 6 -32.05 13.25 -32.05 13.25 14.25 22.9 14.25 22.9 22.25 13.25 22.25 13.25 39.35 4.4 39.35 4.4 22.25 Z
M 4.4 -17.9
L -18 14.25 4.4 14.25 4.4 -17.9 Z"/>

<path id="Blank_P4_0_Layer0_0_1_STROKES" stroke="#000000" stroke-width="2" stroke-linejoin="round" stroke-linecap="round" fill="none" d="
M -185.6 68
Q -185.6 -36 -112.15 -109.55 -105.75 -115.95 -99.15 -121.75 75.25 -106.05 185.65 42.1 -10.3 135.5 -180.75 119.4 -185.6 94.7 -185.6 68 Z"/>

<path id="Symbol_1_4_Layer1_0_1_STROKES" stroke="#FFFFFF" stroke-width="1" stroke-linejoin="round" stroke-linecap="round" fill="none" d="
M 28.4 9.45
L 26.5 10.55 21.15 12.85 18.6 13.4 16.15 13.4
Q 6.05 13.4 0.9 4.2 -0.2 1.1 -0.2 -2.2 -0.2 -7.75 3.7 -12.15 7.6 -16.45 13.45 -17.75
L 16.7 -17.75 19.85 -17.35 23.1 -16.25 24.85 -11.1 21.6 -11.95 18.05 -12.35
Q 15.15 -12.35 13.7 -11.65 10 -11.25 7.75 -6.8 7.05 -4.95 7.05 -2.25 7.05 4.55 12.75 6.7
L 16.45 7.25
Q 19 7.25 20.55 6.7 24.45 6.3 28.25 2.4 29.3296875 1.3205078125 30.65 -0.775
L 30.65 -28.35 -12.35 -28.35 -12.35 -7.95
Q -12.35 -1.55 -18.2 1.45
L -23.35 2.8 -29.85 3.3 -26.4 10.8 -23 16.1
Q -19.15 22.25 -12.4 25.55 -5.6 28.9 1.65 28.9 5.6 28.9 8.95 28.2 12.35 27.5 16.45 25.65
L 21.35 23.5 24.9 21.4
Q 27.4966796875 19.65703125 30.65 16.95
L 30.65 7.6 28.4 9.45 Z
M 30.6 24.4
L 24.2 28.5 16.6 31.75 8.6 34.05 1.1 34.75
Q -5.3 34.75 -9.2 33.65 -19.6 30.8 -27.15 21.35 -32.4 14.65 -35.35 7.95
L -37.8 2.25 -41.85 -9.3 -35.35 -12.7 -33 -4.5 -32.1 -3.6 -31.25 -3 -28.95 -2 -26.25 -2 -23.4 -2.4
Q -20.85 -3.25 -20 -5.65
L -19.6 -8.4 -19.6 -28.35 -48.8 -28.35 -48.8 -34.2 52.05 -34.2 52.05 -28.35 38.25 -28.35 38.25 39.35 30.65 39.35 30.65 24.225"/>

<path id="Blank_P5_0_Layer0_0_1_STROKES" stroke="#000000" stroke-width="2" stroke-linejoin="round" stroke-linecap="round" fill="none" d="
M 12.6 -112.55
Q 81.95 -112.55 137.75 -79.85 168.45 -18 132.85 112.6 22.45 -35.55 -151.95 -51.25 -82.35 -112.55 12.6 -112.55 Z"/>

<path id="Symbol_1_5_Layer1_0_1_STROKES" stroke="#FFFFFF" stroke-width="1" stroke-linejoin="round" stroke-linecap="round" fill="none" d="
M 22.35 39.35
L -24.8 39.35
Q -24.8 37.05 -24.55 36.35
L -23.65 33.35
Q -22.5 29.4 -17.9 23.95
L -13.35 18.95 3 4.85 9.2 -1.7
Q 12.05 -5.4 13.25 -9.85
L 13.25 -12.55
Q 13.25 -17.35 9.75 -21.2 6.3 -24.95 -0.1 -24.95 -10 -24.95 -13.1 -16.5 -14.1 -13.55 -14.1 -10.55
L -23.05 -11.65
Q -22.25 -21.3 -16.3 -26.75 -10.4 -32.2 0.05 -32.2 9.85 -32.2 16.05 -26.6 22.25 -21.05 22.25 -12.35
L 21.95 -8.1
Q 21.95 -7.25 21.4 -6.2
L 20.65 -4.3 16.4 2.75 8.95 10.55 -9 26.35 -12.7 30.95 22.35 30.95 22.35 39.35 Z"/>
</defs>

<g transform="matrix( 1, 0, 0, 1, 530.65,247.95) ">
<g transform="matrix( 1, 0, 0, 1, 0,0) ">
<use xlink:href="#Blank_P1_0_Layer0_0_1_STROKES"/>
</g>

<g transform="matrix( 1, 0, 0, 1, -0.25,-5.65) ">
<g transform="matrix( 1, 0, 0, 1, 0,1) ">
<use xlink:href="#Symbol_1_0_Layer2_0_FILL"/>
</g>

<g transform="matrix( 1, 0, 0, 1, 0,0) ">
<use xlink:href="#Symbol_1_0_Layer1_0_FILL"/>

<use xlink:href="#Symbol_1_0_Layer1_0_1_STROKES"/>
</g>
</g>
</g>

<g transform="matrix( 1, 0, 0, 1, 414.7,387.05) ">
<g transform="matrix( 1, 0, 0, 1, 0,0) ">
<use xlink:href="#Blank_P2_0_Layer0_0_1_STROKES"/>
</g>

<g transform="matrix( 1, 0, 0, 1, 63.3,18.6) ">
<g transform="matrix( 1, 0, 0, 1, 0,1) ">
<use xlink:href="#Symbol_1_2_Layer2_0_FILL"/>
</g>

<g transform="matrix( 1, 0, 0, 1, 0,0) ">
<use xlink:href="#Symbol_1_2_Layer1_0_FILL"/>

<use xlink:href="#Symbol_1_2_Layer1_0_1_STROKES"/>
</g>
</g>
</g>

<g transform="matrix( 1, 0, 0, 1, 282.05,384.65) ">
<g transform="matrix( 1, 0, 0, 1, 0,0) ">
<use xlink:href="#Blank_P3_0_Layer0_0_1_STROKES"/>
</g>

<g transform="matrix( 1, 0, 0, 1, 36.5,-8.25) ">
<g transform="matrix( 1, 0, 0, 1, 0,1) ">
<use xlink:href="#Symbol_1_3_Layer2_0_FILL"/>
</g>

<g transform="matrix( 1, 0, 0, 1, 0,0) ">
<use xlink:href="#Symbol_1_3_Layer1_0_FILL"/>

<use xlink:href="#Symbol_1_3_Layer1_0_1_STROKES"/>
</g>
</g>
</g>

<g transform="matrix( 1, 0, 0, 1, 279.6,206.5) ">
<g transform="matrix( 1, 0, 0, 1, 0,0) ">
<use xlink:href="#Blank_P4_0_Layer0_0_1_STROKES"/>
</g>

<g transform="matrix( 1, 0, 0, 1, -23.15,8.35) ">
<g transform="matrix( 1, 0, 0, 1, 0,1) ">
<use xlink:href="#Symbol_1_4_Layer2_0_FILL"/>
</g>

<g transform="matrix( 1, 0, 0, 1, 0,0) ">
<use xlink:href="#Symbol_1_4_Layer1_0_FILL"/>

<use xlink:href="#Symbol_1_4_Layer1_0_1_STROKES"/>
</g>
</g>
</g>

<g transform="matrix( 1, 0, 0, 1, 332.4,136) ">
<g transform="matrix( 1, 0, 0, 1, 0,0) ">
<use xlink:href="#Blank_P5_0_Layer0_0_1_STROKES"/>
</g>

<g transform="matrix( 1, 0, 0, 1, 80,-41.55) ">
<g transform="matrix( 1, 0, 0, 1, 0,0) ">
<use xlink:href="#Symbol_1_5_Layer2_0_FILL"/>
</g>

<g transform="matrix( 1, 0, 0, 1, 0,0) ">
<use xlink:href="#Symbol_1_5_Layer1_0_FILL"/>

<use xlink:href="#Symbol_1_5_Layer1_0_1_STROKES"/>
</g>
</g>
</g>
</svg>
