
<svg xmlns="http://www.w3.org/2000/svg" version="1.1" xmlns:xlink="http://www.w3.org/1999/xlink" preserveAspectRatio="none" x="0px" y="0px" width="347px" height="249px" viewBox="0 0 347 249">
<defs>
<filter id="Filter_1" x="-20%" y="-20%" width="140%" height="140%" color-interpolation-filters="sRGB">
<feFlood flood-color="#250D09" flood-opacity="1" in="SourceGraphic" result="result1"/>

<feComposite in2="SourceGraphic" in="result1" operator="in" result="result2"/>

<feGaussianBlur in="result2" stdDeviation="1.6666666666666667,1.6666666666666667" result="result3"/>

<feOffset dx="0" dy="0" in="result3" result="result4"/>

<feComposite in2="result4" in="SourceGraphic" operator="over" result="result5"/>
</filter>

<g id="Symbol_5_0_Layer0_0_FILL">
<path fill="#FFFFFF" stroke="none" d="
M 0.1 -48.6
L 20.5 -48.6 20.5 48.2 33.45 56.2 33.45 -48.6 50.65 -48.6 43.85 -61.2 -49.35 -61.2 -42.5 -48.6 -13.3 -48.6 -13.3 -14.6
Q -13.3 -12.15 -14.85 -12.15
L -25.1 -12.15
Q -26.3 -12.15 -27.75 -10.7 -29.1 -9.15 -29.1 -7.35 -29.1 -2.6 -20.9 5.8 -19.15 7.65 -14.95 11.85 -9.5 16.85 -7.75 16.85 -4.5 16.85 -2.25 14.3 0.1 11.85 0.1 8.45
L 0.1 -48.6 Z"/>
</g>
</defs>

<g transform="matrix( 1, 0, 0, 1, 183.6,122.15) ">
<g transform="matrix( 1, 0, 0, 1, -0.65,0) ">
<g filter="url(#Filter_1)" transform="matrix( 1, 0, 0, 1, -182.95,-122.15) ">
<g transform="matrix( 1, 0, 0, 1, 182.95,122.15) ">
<g transform="matrix( 1, 0, 0, 1, 0,0) ">
<use xlink:href="#Symbol_5_0_Layer0_0_FILL"/>
</g>
</g>
</g>
</g>
</g>
</svg>
