
<svg xmlns="http://www.w3.org/2000/svg" version="1.1" xmlns:xlink="http://www.w3.org/1999/xlink" preserveAspectRatio="none" x="0px" y="0px" width="347px" height="249px" viewBox="0 0 347 249">
<defs>
<filter id="Filter_1" x="-20%" y="-20%" width="140%" height="140%" color-interpolation-filters="sRGB">
<feFlood flood-color="#250D09" flood-opacity="1" in="SourceGraphic" result="result1"/>

<feComposite in2="SourceGraphic" in="result1" operator="in" result="result2"/>

<feGaussianBlur in="result2" stdDeviation="1.6666666666666667,1.6666666666666667" result="result3"/>

<feOffset dx="0" dy="0" in="result3" result="result4"/>

<feComposite in2="result4" in="SourceGraphic" operator="over" result="result5"/>
</filter>

<g id="Symbol_7_0_Layer0_0_FILL">
<path fill="#FFFFFF" stroke="none" d="
M 61.2 -48.6
L 78.2 -48.6 71.35 -61.2 -78.8 -61.2 -71.8 -48.6 -37.4 -48.6
Q -37.2 -42.15 -36.95 -36.65 -36.65 -31.2 -36.65 -27.4 -36.65 -21.15 -37.4 -15.95 -38.2 -10.7 -39.85 -8.35 -51.85 -12.95 -53.25 -12.95 -54.2 -12.95 -56.15 -10.6 -58 -8.35 -58 -7 -58 -4.15 -52.45 6.2 -48.25 14 -42.6 21.45 -29 38.05 -17.5 45.25 -5.95 52.6 6.45 52.6 25.4 52.6 48.05 36
L 48.05 48.4 61.2 56.2 61.2 -48.6
M 35.75 -29.25
Q 31.9 -32 27.15 -33.15 22.45 -34.25 17.35 -34.25 2.9 -34.25 -4.2 -24.85 -8.8 -18.6 -8.8 -11.5 -8.8 1.8 0.85 11.2 10.55 20.55 23.6 20.55 31.55 20.55 39.35 16.15 42.75 14.2 48.05 10.8
L 48.05 21.35
Q 34.35 30.9 28.1 34.35 14.85 41.35 2.9 41.35 -9.2 41.35 -21.4 32.35 -31.45 24.95 -38.9 13.9 -30.5 7.75 -26.75 1.7 -23.05 -4.25 -23.05 -12.65 -23.05 -18.6 -23.65 -29.85 -24.25 -40.95 -24.25 -48.6
L 48.05 -48.6 47.65 -15.75
Q 43.65 -21.85 41.2 -24.35 38.75 -27 35.75 -29.25
M 1.15 -4.25
Q 1.15 -12.45 7.4 -17.45 12.6 -21.65 20.1 -21.65 29.5 -21.65 35.55 -18 41.6 -14.4 48.05 -5.4 37.8 2.2 30.15 5.7 22.45 9.35 16 9.35 9.35 9.35 5.25 5.6 1.15 1.9 1.15 -4.25 Z"/>
</g>
</defs>

<g transform="matrix( 1, 0, 0, 1, 183.6,122.15) ">
<g transform="matrix( 1, 0, 0, 1, 0.3,0) ">
<g filter="url(#Filter_1)" transform="matrix( 1, 0, 0, 1, -183.9,-122.15) ">
<g transform="matrix( 1, 0, 0, 1, 183.9,122.15) ">
<g transform="matrix( 1, 0, 0, 1, 0,0) ">
<use xlink:href="#Symbol_7_0_Layer0_0_FILL"/>
</g>
</g>
</g>
</g>
</g>
</svg>
