
<svg xmlns="http://www.w3.org/2000/svg" version="1.1" xmlns:xlink="http://www.w3.org/1999/xlink" preserveAspectRatio="none" x="0px" y="0px" width="347px" height="249px" viewBox="0 0 347 249">
<defs>
<filter id="Filter_1" x="-20%" y="-20%" width="140%" height="140%" color-interpolation-filters="sRGB">
<feFlood flood-color="#250D09" flood-opacity="1" in="SourceGraphic" result="result1"/>

<feComposite in2="SourceGraphic" in="result1" operator="in" result="result2"/>

<feGaussianBlur in="result2" stdDeviation="1.6666666666666667,1.6666666666666667" result="result3"/>

<feOffset dx="0" dy="0" in="result3" result="result4"/>

<feComposite in2="result4" in="SourceGraphic" operator="over" result="result5"/>
</filter>

<g id="Symbol_6_0_Layer0_0_FILL">
<path fill="#FFFFFF" stroke="none" d="
M 17.75 -48.6
L 35.05 -48.6 35.05 -16.15
Q 33.5 -15.75 25.3 -13.05 17.05 -10.8 8.6 -10.8 5.45 -10.8 1.35 -12.45 -2.75 -14 -5 -15.85 2.6 -21.65 5.45 -26.1 8.4 -30.6 8.4 -36.3 8.4 -46.65 -3.45 -55.4 -13.6 -63.05 -21.6 -63.05 -30.5 -63.05 -37.5 -57.3 -44.65 -51.4 -44.65 -42.65 -44.65 -33.85 -37.8 -27.2 -33.4 -23 -24.05 -18 -34.4 -12.05 -40.05 -6.6 -45.6 -1.2 -45.6 3.55 -45.6 9.5 -41.15 16.85 -36.65 24.15 -28.05 29.35 -14.75 37.35 -5.2 37.35 -4.4 37.35 -1.3 37.15 1.85 36.95 3 36.4
L 18.75 65.4 26.75 60.4 8.6 33.35
Q 11.7 30.9 13.95 27.4 16.2 23.9 16.2 21.35 16.2 18.5 9.65 13.7 3.2 8.95 -2.45 8.95 -4.7 8.95 -6.85 10.4 -9 11.95 -9 14.1 -9 19.2 -3.8 25.55 -7.05 26.8 -9.1 27.1 -11.15 27.4 -15.15 27.4 -21.1 27.4 -25.8 23.95 -32.05 19.4 -32.05 10.2 -32.05 4.75 -27.75 -0.05 -23.45 -4.85 -10.55 -12.25 -3.65 -6.2 4.2 -2.9 12 0.45 21.45 0.45 25 0.45 27.5 -0.35 30.05 -1.1 35.05 -3.35
L 35.05 47.8 48.4 56.2 48.4 -48.6 65.4 -48.6 58.75 -61.2 11 -61.2 17.75 -48.6
M -3.8 -39.4
Q -3.8 -34.6 -8 -30.05 -11.45 -26.4 -18 -22.4 -25.2 -24.65 -28.25 -28.55 -31.25 -32.45 -31.25 -38.6 -31.25 -45.25 -26.2 -49.15 -21 -53.1 -14.65 -53.1 -3.8 -53.1 -3.8 -39.4 Z"/>
</g>
</defs>

<g transform="matrix( 1, 0, 0, 1, 183.6,122.15) ">
<g transform="matrix( 1, 0, 0, 1, -9.9,0) ">
<g filter="url(#Filter_1)" transform="matrix( 1, 0, 0, 1, -173.7,-122.15) ">
<g transform="matrix( 1, 0, 0, 1, 173.7,122.15) ">
<g transform="matrix( 1, 0, 0, 1, 0,0) ">
<use xlink:href="#Symbol_6_0_Layer0_0_FILL"/>
</g>
</g>
</g>
</g>
</g>
</svg>
