
<svg xmlns="http://www.w3.org/2000/svg" version="1.1" xmlns:xlink="http://www.w3.org/1999/xlink" preserveAspectRatio="none" x="0px" y="0px" width="505px" height="350px" viewBox="0 0 505 350">
<defs>
<g id="Duplicate_Items_Folder_Symbol_13_4_Layer2_0_FILL">
<path fill="#666666" stroke="none" d="
M 67 -51.9
Q 56.75 -63.85 46 -70.45 35.25 -77.05 22.55 -79 9.85 -80.95 -4.05 -80.95 -45.1 -80.95 -66.05 -60.45 -83.4 -43.35 -83.4 -16.95 -83.4 18.45 -52.4 44.55 -25.05 67.5 4 67.5 26.45 67.5 46.7 58 67 48.45 87 30.9
L 85.55 120.95 119.95 140.5 119.95 -121.45 162.45 -121.45 146.1 -152.95 -133.95 -152.95 -117.1 -121.45 85.55 -121.45 84.55 -29.4
Q 73.1 -45.55 67 -51.9
M 7.15 -49.45
Q 26.95 -49.45 51.1 -37 70.15 -27 85.55 -12.35 64.55 11.6 38.15 26.95 11.55 42.6 -8.45 42.6 -29.45 42.6 -40.95 30.65 -52.4 18.65 -52.4 -4.5 -52.4 -21.85 -37.5 -35.05 -20.4 -49.45 7.15 -49.45 Z"/>
</g>

<g id="Duplicate_Items_Folder_Symbol_13_4_Layer1_0_FILL">
<path fill="#FFFFFF" stroke="none" d="
M 147.95 -121.45
L 131.6 -152.95 -148.45 -152.95 -131.6 -121.45 71.05 -121.45 70.05 -29.4
Q 58.6 -45.55 52.5 -51.9 42.25 -63.85 31.5 -70.45 20.75 -77.05 8.05 -79 -4.65 -80.95 -18.55 -80.95 -59.6 -80.95 -80.55 -60.45 -97.9 -43.35 -97.9 -16.95 -97.9 18.45 -66.9 44.55 -39.55 67.5 -10.5 67.5 11.95 67.5 32.2 58 52.5 48.45 72.5 30.9
L 71.05 120.95 105.45 140.5 105.45 -121.45 147.95 -121.45
M 36.6 -37
Q 55.65 -27 71.05 -12.35 50.05 11.6 23.65 26.95 -2.95 42.6 -22.95 42.6 -43.95 42.6 -55.45 30.65 -66.9 18.65 -66.9 -4.5 -66.9 -21.85 -52 -35.05 -34.9 -49.45 -7.35 -49.45 12.45 -49.45 36.6 -37 Z"/>
</g>
</defs>

<g transform="matrix( 1, 0, 0, 1, 250.2,171.95) ">
<g transform="matrix( 0.5904541015625, 0, 0, 0.5904541015625, -1.8,-1.8) ">
<g transform="matrix( 1, 0, 0, 1, 0,0) ">
<use xlink:href="#Duplicate_Items_Folder_Symbol_13_4_Layer2_0_FILL"/>
</g>

<g transform="matrix( 1, 0, 0, 1, 0,0) ">
<use xlink:href="#Duplicate_Items_Folder_Symbol_13_4_Layer1_0_FILL"/>
</g>
</g>
</g>
</svg>
