
<svg xmlns="http://www.w3.org/2000/svg" version="1.1" xmlns:xlink="http://www.w3.org/1999/xlink" preserveAspectRatio="none" x="0px" y="0px" width="505px" height="350px" viewBox="0 0 505 350">
<defs>
<g id="Duplicate_Items_Folder_Symbol_13_5_Layer2_0_FILL">
<path fill="#666666" stroke="none" d="
M 121.2 -121.45
L 163.7 -121.45 146.85 -152.95 -163.7 -152.95 -146.6 -121.45 -57.25 -121.45
Q -56.75 -116.6 -55.8 -108.3 -54.8 -100 -54.8 -88 -54.8 -42.1 -56.5 -29.9 -58.25 -17.45 -62.4 -17.45 -64.8 -17.45 -79.7 -25.75 -94.85 -34.05 -97.3 -34.05 -103.15 -34.05 -108.3 -27.45 -113.15 -21.1 -113.15 -14.55 -113.15 -1.6 -86.55 31.35 -63.6 60.4 8.65 140.5
L 24.8 125.1
Q 1.6 100.45 -30.65 65.05 -59.7 32.6 -59.7 31.6 -59.7 26.95 -57 24.3 -54.1 21.6 -47.95 18.45 -41.65 15.5 -33.8 7.45 -33.1 6.95 -22.1 -5 -6.2 12.1 16.7 20.15 31.85 25 44.3 25 51.9 25 64.1 22.1 76.3 18.9 88.25 15
L 88.25 120.95 121.2 140.5 121.2 -121.45
M 33.55 -6.45
Q 19.4 -6.45 2.8 -13.05 -9.4 -17.45 -21.35 -25.05
L -22.35 -121.45 88.25 -121.45 88.25 -27
Q 76.3 -18.45 60.9 -12.6 45.55 -6.45 33.55 -6.45 Z"/>
</g>

<g id="Duplicate_Items_Folder_Symbol_13_5_Layer1_0_FILL">
<path fill="#FFFFFF" stroke="none" d="
M 163.7 -121.45
L 146.85 -152.95 -163.7 -152.95 -146.6 -121.45 -57.25 -121.45
Q -56.75 -116.6 -55.8 -108.3 -54.8 -100 -54.8 -88 -54.8 -42.1 -56.5 -29.9 -58.25 -17.45 -62.4 -17.45 -64.8 -17.45 -79.7 -25.75 -94.85 -34.05 -97.3 -34.05 -103.15 -34.05 -108.3 -27.45 -113.15 -21.1 -113.15 -14.55 -113.15 -1.6 -86.55 31.35 -63.6 60.4 8.65 140.5
L 24.8 125.1
Q 1.6 100.45 -30.65 65.05 -59.7 32.6 -59.7 31.6 -59.7 26.95 -57 24.3 -54.1 21.6 -47.95 18.45 -41.65 15.5 -33.8 7.45 -33.1 6.95 -22.1 -5 -6.2 12.1 16.7 20.15 31.85 25 44.3 25 51.9 25 64.1 22.1 76.3 18.9 88.25 15
L 88.25 120.95 121.2 140.5 121.2 -121.45 163.7 -121.45
M 33.55 -6.45
Q 19.4 -6.45 2.8 -13.05 -9.4 -17.45 -21.35 -25.05
L -22.35 -121.45 88.25 -121.45 88.25 -27
Q 76.3 -18.45 60.9 -12.6 45.55 -6.45 33.55 -6.45 Z"/>
</g>
</defs>

<g transform="matrix( 1, 0, 0, 1, 250.05,171.95) ">
<g transform="matrix( 0.5904541015625, 0, 0, 0.5904541015625, -1.8,-1.8) ">
<g transform="matrix( 1, 0, 0, 1, 14.5,0) ">
<use xlink:href="#Duplicate_Items_Folder_Symbol_13_5_Layer2_0_FILL"/>
</g>

<g transform="matrix( 1, 0, 0, 1, 0,0) ">
<use xlink:href="#Duplicate_Items_Folder_Symbol_13_5_Layer1_0_FILL"/>
</g>
</g>
</g>
</svg>
