
<svg xmlns="http://www.w3.org/2000/svg" version="1.1" xmlns:xlink="http://www.w3.org/1999/xlink" preserveAspectRatio="none" x="0px" y="0px" width="505px" height="350px" viewBox="0 0 505 350">
<defs>
<g id="Duplicate_Items_Folder_Symbol_13_3_Layer2_0_FILL">
<path fill="#666666" stroke="none" d="
M 7.2 -28.95
Q 15.25 -33.55 25.25 -34.55 35.25 -35.55 63.8 -35.55
L 95.8 -35.05 78.7 -65.05 -103.65 -65.05 -86.8 -33.55 -32.15 -33.55
Q -38.7 -25.5 -42.15 -17.45 -45.3 -9.65 -45.3 0.85 -45.3 26.95 -23.35 47 1.8 69.45 41.85 69.45 77.75 69.45 107.75 40.9
L 106.3 120.95 140.25 140.5 140.25 -121.45 182.7 -121.45 165.85 -152.95 -154.2 -152.95 -137.1 -121.45 106.3 -121.45 106.3 -2.1
Q 75.8 24.55 52.35 37.95 31.85 49.45 20.1 49.45 4.75 49.45 -5.05 39.65 -14.8 29.9 -14.8 13.55 -14.8 -0.1 -7.7 -12.35 -0.9 -24.55 7.2 -28.95 Z"/>
</g>

<g id="Duplicate_Items_Folder_Symbol_13_3_Layer1_0_FILL">
<path fill="#FFFFFF" stroke="none" d="
M 10.75 -34.55
Q 20.75 -35.55 49.3 -35.55
L 81.3 -35.05 64.2 -65.05 -118.15 -65.05 -101.3 -33.55 -46.65 -33.55
Q -53.2 -25.5 -56.65 -17.45 -59.8 -9.65 -59.8 0.85 -59.8 26.95 -37.85 47 -12.7 69.45 27.35 69.45 63.25 69.45 93.25 40.9
L 91.8 120.95 125.75 140.5 125.75 -121.45 168.2 -121.45 151.35 -152.95 -168.7 -152.95 -151.6 -121.45 91.8 -121.45 91.8 -2.1
Q 61.3 24.55 37.85 37.95 17.35 49.45 5.6 49.45 -9.75 49.45 -19.55 39.65 -29.3 29.9 -29.3 13.55 -29.3 -0.1 -22.2 -12.35 -15.4 -24.55 -7.3 -28.95 0.75 -33.55 10.75 -34.55 Z"/>
</g>
</defs>

<g transform="matrix( 1, 0, 0, 1, 255.15,171.95) ">
<g transform="matrix( 0.5904541015625, 0, 0, 0.5904541015625, -1.8,-1.8) ">
<g transform="matrix( 1, 0, 0, 1, 0,0) ">
<use xlink:href="#Duplicate_Items_Folder_Symbol_13_3_Layer2_0_FILL"/>
</g>

<g transform="matrix( 1, 0, 0, 1, 0,0) ">
<use xlink:href="#Duplicate_Items_Folder_Symbol_13_3_Layer1_0_FILL"/>
</g>
</g>
</g>
</svg>
