
<svg xmlns="http://www.w3.org/2000/svg" version="1.1" xmlns:xlink="http://www.w3.org/1999/xlink" preserveAspectRatio="none" x="0px" y="0px" width="278px" height="216px" viewBox="0 0 278 216">
<defs>
<g id="Symbol_4_6_Layer0_0_FILL">
<path fill="#000000" stroke="none" d="
M 227.25 73.9
L 239.2 73.9 239.2 67.3 91.95 67.3 91.95 73.9 107.4 73.9 107.4 106.45 105.3 107.3 99.75 108.75 92.35 108.75 88.65 107.3 77.5 101.7 76 101.4 75.25 101.55
Q 84.3 96.4 84.3 86.3 84.3 78.55 79.35 73.25 73.45 67.3 65.75 67.3 55.7 67.3 47.8 73.8
L 42.55 78.2
Q 41.4 79.3 41.15 79.6 40.95 79.9 40.75 80.45
L 47 85.45 50.25 82 56.15 77
Q 61.1 73.9 65.15 73.9 67.8 73.9 70.7 75 75.25 77.1 76.15 81.45 76.8 83.2 76.8 86.3 76.8 89.65 75 92.7 71 98.8 63.65 100.75 62.9 100.9 60.6 101.4 58.75 101.4 56.8 101.4
L 59.5 107.3 61.25 107.3
Q 62.75 106.4 64.7 106.4
L 67.4 106.4
Q 72 106.4 76.7 108.9 81.3 111.3 82.5 115.7 83.45 117.4 83.6 118.55 83.75 119.65 83.75 122.25 83.75 124.75 82.65 127.65 78.6 136.6 71.25 136.6 60.55 136.6 50.75 122
L 46.8 116.05 41.8 107.3 35.25 111.6
Q 35.25 115.9 45.6 128.1 51.8 135.55 58.05 139.2 61.55 141.25 64.45 142.1 67.4 142.85 70.75 142.85
L 75.25 142.85
Q 91.7 139.65 91.7 122.65
L 91.7 119.05 90.75 115.35 89.6 112.55 91.4 113.4 96.4 114.8 102.65 114.8 107.4 113.55 107.4 149.9 115.55 149.9 115.55 73.9 140.9 73.9 140.9 149.9 149.4 149.9 149.4 73.9 181.45 73.9 181.45 102.4 174.6 102.4 172.95 102.85 172.15 103.25
Q 171.05 103.9 170.45 104.75
L 170 106.85
Q 170.15 108.95 171.55 111 176.85 117.7 179.65 120.6 183.75 124.75 186.05 124.75
L 188.25 124.45 189.6 123.5 189.6 109.6 218.9 109.6 218.9 149.9 227.25 149.9 227.25 73.9
M 189.6 73.9
L 218.9 73.9 218.9 102.4 189.6 102.4 189.6 73.9 Z"/>
</g>
</defs>

<g transform="matrix( 1, 0, 0, 1, -0.6,-1.45) ">
<g transform="matrix( 1, 0, 0, 1, 0,0) ">
<use xlink:href="#Symbol_4_6_Layer0_0_FILL"/>
</g>
</g>
</svg>
