
<svg xmlns="http://www.w3.org/2000/svg" version="1.1" xmlns:xlink="http://www.w3.org/1999/xlink" preserveAspectRatio="none" x="0px" y="0px" width="1563px" height="799px" viewBox="0 0 1563 799">
<defs>
<g id="Symbol_1_0_Layer1_0_FILL">
<path fill="#000000" stroke="none" d="
M 110.7 -31.85
Q 101.75 -19.85 101.75 -5.95 101.75 18.4 124.45 44.45 143.2 66 175.15 86.8
L 183.65 76.55
Q 147.3 55.9 132.95 36.7 122.15 21.9 122.15 3 122.15 -11.65 131.8 -20.45 139.55 -27.6 149.5 -27.6 155.8 -27.6 163.45 -21.75 171.05 -15.9 175.3 -9.3 173.85 -7.25 171.65 -3.3 169.6 0.5 167.1 5.05
L 183.65 16.2
Q 195.8 -7.25 204 -15.3 212.35 -23.35 222.6 -23.35 230.4 -23.35 237.7 -18.4
L 236.8 72.6 257.2 84.3 257.2 -72.9 282.65 -72.9 272.7 -91.75 -294.25 -91.75 -283.7 -72.9 -179.25 -72.9 -179.85 -17.05
Q -183.8 -22.8 -188.05 -28.05 -192.45 -33.35 -197.55 -37.55 -202.7 -41.7 -209.7 -43.3 -216.75 -44.75 -224.95 -44.75 -246.2 -44.75 -257.05 -30.7 -264.2 -21.3 -264.2 -11.2 -264.2 8.55 -249.7 22.9 -235.35 37.15 -215.85 37.15 -205.75 37.15 -196.8 32.9 -193 31.15 -179.25 22.5
L -178.35 72.6 -158.9 84.3 -158.9 9
Q -148.65 0.35 -138.35 -5.35 -127.95 -11.05 -122.25 -11.05 -114.8 -11.05 -110.1 -6.65 -105.4 -2.4 -105.4 5.5 -105.4 15 -111 27.6 -116.55 40.2 -125.35 52.2
L -108.2 67.75
Q -90.2 40.2 -90.2 22.2 -90.2 -3 -104.25 -18.25 -115.4 -30.25 -127.4 -30.25 -135.15 -30.25 -142.9 -26 -148.9 -22.8 -158.9 -15
L -158.9 -72.9 -36.3 -72.9 -36.3 -6.25 -50.95 -6.25
Q -53.75 -6.25 -55.65 -3.75 -57.55 -1.1 -57.55 1.25 -57.55 5.2 -42.6 21 -27.65 36.85 -22.8 36.85 -15.95 36.85 -15.95 28.2
L -15.95 12.95 45.75 12.95 44.85 72.6 65.8 84.3 65.8 -72.9 236.8 -72.9 236.8 -29.65
Q 232.85 -33.35 226 -36.7 219.1 -40.2 213.1 -40.2 204.15 -40.2 196.4 -35.1 188.8 -30.1 180.15 -18.4 172.65 -27.6 162.4 -37.85 158.75 -41.4 152.3 -43.85 145.85 -46.2 138.95 -46.2 121.55 -46.2 110.7 -31.85
M 45.75 -72.9
L 45.75 -6.25 -15.95 -6.25 -15.95 -72.9 45.75 -72.9
M -240.45 -19.25
Q -231.85 -26.15 -221 -26.15 -206.65 -26.15 -197.7 -20.9 -188.9 -15.6 -179.25 -2.15 -192.7 8.25 -205.15 14.3 -217.75 20.3 -227 20.3 -236.35 20.3 -242.65 14.85 -248.95 9.45 -248.95 0.2 -248.95 -12.4 -240.45 -19.25 Z"/>
</g>
</defs>

<g transform="matrix( 1, 0, 0, 1, 781.5,323.5) ">
<g transform="matrix( 1, 0, 0, 1, 5.8,0) ">
<use xlink:href="#Symbol_1_0_Layer1_0_FILL"/>
</g>
</g>
</svg>
