
<svg xmlns="http://www.w3.org/2000/svg" version="1.1" xmlns:xlink="http://www.w3.org/1999/xlink" preserveAspectRatio="none" x="0px" y="0px" width="278px" height="216px" viewBox="0 0 278 216">
<defs>
<g id="Symbol_4_2_Layer0_0_FILL">
<path fill="#000000" stroke="none" d="
M 201.75 95.2
L 202.1 89.4
Q 202.1 77.5 193.65 69.9 185.15 62.25 171.75 62.25 157.45 62.25 149.35 69.7 141.25 77.1 140.1 90.35
L 152.4 91.9
Q 152.4 87.8 153.75 83.7 158.05 72.15 171.55 72.15 180.3 72.15 185.05 77.3 189.85 82.55 189.85 89.1
L 189.85 92.85
Q 188.2 98.95 184.3 103.95
L 175.85 112.9 153.45 132.25 147.15 139.1
Q 140.9 146.55 139.35 151.95
L 138.15 156.05
Q 137.75 157 137.75 160.15
L 202.3 160.15 202.3 148.65 154.3 148.65 159.35 142.35 164.5 137.5 173.45 130.15 183.9 120.75 194.1 110.05 198.4 103.6 200.95 97.8
Q 201.75 96.35 201.75 95.2
M 108.65 62.1
L 100.95 62.1 96.55 68.75
Q 93.05 72.85 89.9 75.4
L 81.8 81.9
Q 76.25 85.2 72.55 86.55
L 72.55 98.35 81.9 94.25 91.7 88
Q 94.15 86.25 96.55 83.7
L 96.55 160.15 108.65 160.15 108.65 62.1 Z"/>
</g>
</defs>

<g transform="matrix( 1, 0, 0, 1, -0.8,-1.45) ">
<g transform="matrix( 1, 0, 0, 1, 0,0) ">
<use xlink:href="#Symbol_4_2_Layer0_0_FILL"/>
</g>
</g>
</svg>
