
<svg xmlns="http://www.w3.org/2000/svg" version="1.1" xmlns:xlink="http://www.w3.org/1999/xlink" preserveAspectRatio="none" x="0px" y="0px" width="741px" height="741px" viewBox="0 0 741 741">
<defs>
<radialGradient id="Gradient_1" gradientUnits="userSpaceOnUse" cx="0" cy="0" r="183.2375" fx="0" fy="0" gradientTransform="matrix( 1, 0, 0, 0.7293812674807286, 0,-18.75) " spreadMethod="pad">
<stop  offset="0%" stop-color="#FFCE95"/>

<stop  offset="54.509803921568626%" stop-color="#F1BC7F"/>

<stop  offset="81.96078431372548%" stop-color="#E0A765"/>

<stop  offset="97.25490196078431%" stop-color="#CE914A"/>

<stop  offset="100%" stop-color="#B87628"/>
</radialGradient>

<radialGradient id="Gradient_2" gradientUnits="userSpaceOnUse" cx="0" cy="0" r="220.72500000000002" fx="0" fy="0" gradientTransform="matrix( 1, 0, 0, 0.6572658285196511, -4.65,-18.75) " spreadMethod="pad">
<stop  offset="0%" stop-color="#FFCE95"/>

<stop  offset="54.509803921568626%" stop-color="#F1BC7F"/>

<stop  offset="81.96078431372548%" stop-color="#E0A765"/>

<stop  offset="97.25490196078431%" stop-color="#CE914A"/>

<stop  offset="100%" stop-color="#B87628"/>
</radialGradient>

<filter id="Filter_1" x="-20%" y="-20%" width="140%" height="140%" color-interpolation-filters="sRGB">
<feColorMatrix in="SourceGraphic" type="matrix" values="1.14 0 0 0 0.16631372549019607 0 1.14 0 0 0.16631372549019607 0 0 1.14 0 0.16631372549019607 0 0 0 1 0 " result="result1"/>
</filter>

<filter id="Filter_2" x="-20%" y="-20%" width="140%" height="140%" color-interpolation-filters="sRGB">
<feColorMatrix in="SourceGraphic" type="matrix" values="1 0 0 0 0 0 1 0 0 0 0 0 1 0 0 0 0 0 0.21 0" result="result1"/>
</filter>

<g id="Symbol_55_0_Layer3_0_FILL">
<path fill="url(#Gradient_1)" stroke="none" d="
M 173.15 -50.75
Q 101.45 -122.45 0.05 -122.45 -101.45 -122.45 -173.15 -50.75
L -173.2 -50.7 -0.05 122.45 173.15 -50.75 Z"/>
</g>

<g id="Symbol_53_0_Layer0_0_FILL">
<path fill="#D38E2D" stroke="none" d="
M -3.65 -158.3
L -1.95 -158.35
Q -89.2150390625 -160.0306640625 -154.3 -161.35
L -152.25 -159.3
Q -140.81953125 -159.1595703125 -128.65 -159.05 -29.6 -158.2 -3.65 -158.3
M 164.2 -171.4
L 165.1 -172.25
Q 121.83515625 -172.645703125 106 -172.55
L 164.2 -171.4
M 1 -8.15
L 4.25 -11.4
Q -0.0181640625 -11.4609375 -4.5 -11.55
L -1.15 -8.2
Q -0.053125 -8.166796875 1 -8.15
M 31.2 -38.35
L 33.65 -40.85
Q -1.199609375 -41.870703125 -35.85 -42.9
L -33.25 -40.3
Q 0.8361328125 -39.2662109375 31.2 -38.35
M 64.8 -95.75
L 78.9 -95.2
Q 82.6634765625 -95.016015625 87.65 -94.85
L 90.4 -97.6
Q 26.7765625 -99.0021484375 -94.15 -101.2
L -92.3 -99.35
Q 21.4025390625 -97.0083984375 64.8 -95.75
M 68.95 -76.1
L 73.05 -80.2
Q 10.41953125 -80.873046875 -74.6 -81.65
L -69.8 -76.85 -64.05 -76.8
Q -53.2763671875 -76.7138671875 68.95 -76.1
M 46.4 -53.55
L 49.4 -56.55
Q 30.359375 -57.2 2.7 -58 -26.955078125 -58.844921875 -52.5 -59.55
L -50.2 -57.25
Q -25.916796875 -56.2859375 -8.5 -55.25 4 -54.6 22.25 -54.2 31.3427734375 -53.9109375 46.4 -53.55
M 126.1 -133.3
L 130.15 -137.3
Q -66.4068359375 -138.2205078125 -95.05 -138.65
L -132.3 -139.35 -130.65 -137.7
Q 20.8552734375 -134.44140625 49.2 -134.15 85.692578125 -133.7296875 126.1 -133.3
M 109.65 -116.85
Q 97.23125 -117.1845703125 85.9 -117.5 56.15 -118.4 29.4 -119.75 22 -120.3 4.65 -120.75 -21.4419921875 -121.60078125 -116.45 -123.5
L -114.55 -121.6
Q -73.1412109375 -120.6515625 -53.15 -120.1
L -42 -119.8
Q -28.4 -119.1 20.5 -117.65 72.6623046875 -116.1955078125 108.15 -115.35
L 109.65 -116.85
M 155.1 -162.3
L 157.5 -164.65 -3.6 -169.55
Q 107.75 -163.65 144.2 -162.6 149.692578125 -162.4462890625 155.1 -162.3
M 159.45 -179.4
Q 158.4912109375 -180.2705078125 157.5 -181.15 108.5287109375 -182.745703125 34.6 -184.9 -81.79375 -188.22265625 -147.35 -189.7 -149.56328125 -187.8947265625 -151.8 -186.05 -119.9853515625 -184.8482421875 -116.3 -184.75 -8.6544921875 -183.8056640625 159.45 -179.4
M 127.4 -203.95
Q 126.7916015625 -203.95 126.2 -203.95 35 -205 -115.2 -206.4 -119.3501953125 -206.4423828125 -123.4 -206.45 -127.271484375 -204.0798828125 -131.1 -201.55
L -75.75 -201.25
Q 22.5 -200.8 99.35 -200.35 117.0716796875 -200.303515625 132.95 -200.25 130.2115234375 -202.1484375 127.4 -203.95
M 72.25 -212.8
L 70.55 -212.8
Q 92.952734375 -212.3322265625 113.9 -211.95 113.244921875 -212.3091796875 112.55 -212.7 84.2056640625 -212.8 72.25 -212.8
M 1.8 -239.95
Q 14.205078125 -239.3837890625 25.25 -238.75
L 25.75 -238.75
Q 14.0111328125 -239.8671875 1.8 -239.95
M 28.95 -227.75
L 17.75 -228.1
Q -3.05 -229.15 -44.65 -230.15 -56.8052734375 -230.5009765625 -68.05 -230.8 -70.866796875 -229.963671875 -73.7 -229.1 -63.45 -228.623828125 -53.65 -228.05 -41.1 -227.4 -28.9 -227.1 5.9732421875 -226.121875 86.9 -224.5 84.3373046875 -225.46875 81.7 -226.4 47.2125 -227.2294921875 28.95 -227.75 Z"/>
</g>

<g id="Symbol_55_copy_0_Layer3_0_FILL">
<path fill="url(#Gradient_2)" stroke="none" d="
M 173.15 -50.75
Q 101.45 -122.45 0.05 -122.45 -101.45 -122.45 -173.15 -50.75
L -173.2 -50.7 -0.05 122.45 173.15 -50.75 Z"/>
</g>

<g id="Symbol_53_copy_0_Layer0_0_FILL">
<path fill="#D38E2D" stroke="none" d="
M -88.45 -36.7
Q -87.0279296875 -36.6912109375 -85.65 -36.7 -31.0462890625 -36.3525390625 -11.4 -36.45
L -9.35 -36.5
Q -48.8458984375 -37.1734375 -84.55 -37.75 -85.951171875 -37.77734375 -87.35 -37.8
L -88.45 -36.7
M 39.75 151.15
Q 39.6984375 151.1734375 39.6 151.15
L 42.4 153.95
Q 42.4986328125 153.9734375 42.55 153.95 45.8232421875 154.0408203125 49.05 154.1 52.3146484375 154.174609375 55.55 154.25 56.726171875 152.9166015625 57.85 151.55 53.45546875 151.4673828125 49.05 151.35 44.4103515625 151.2697265625 39.75 151.15
M 2.5 114.05
Q 2.56484375 114.0748046875 2.6 114.05 22.169921875 114.1388671875 49.05 114.25 65.348828125 114.305859375 84.35 114.35 85.7189453125 112.039453125 87 109.65 68.5283203125 109.5583984375 49.05 109.4 24.1443359375 109.2740234375 -2.35 109.1 -2.407421875 109.0998046875 -2.5 109.1
L 2.5 114.05
M 71.35 134.35
Q 63.3427734375 134.1947265625 54.8 134.05 51.9080078125 133.9921875 49.05 133.9 35.1958984375 133.6546875 21.95 133.35 21.8818359375 133.3736328125 21.8 133.35
L 24.9 136.45
Q 24.98515625 136.47265625 25.05 136.45 31.5837890625 136.7240234375 37.6 137 42.9748046875 137.187109375 49.05 137.35 58.15703125 137.609765625 68.8 137.8 70.1111328125 136.1015625 71.35 134.35
M 95.8 92.05
Q 96.4388671875 90.703515625 97 89.3 73.0197265625 89.06796875 49 88.8 12.7853515625 88.437890625 -23.4 88.05 -23.4505859375 88.0744140625 -23.5 88.05
L -20.75 90.8
Q -20.6962890625 90.824609375 -20.65 90.8 14.893359375 91.2072265625 49 91.55 72.7669921875 91.82734375 95.8 92.05
M 104.3 74.1
Q 104.55 73.15 104.85 72.25 104.234375 72.238671875 103.6 72.2 78.7947265625 71.7708984375 49 71.3 46.9189453125 71.28203125 44.8 71.25 -0.696875 70.5521484375 -41.45 70.05 -41.46015625 70.074609375 -41.5 70.05
L -38.9 72.65
Q -38.86328125 72.67421875 -38.85 72.65 -4.7333984375 73.3751953125 21.75 74.2 34.015625 74.5333984375 49 74.8 65.529296875 75.1142578125 85.35 75.35 92.856640625 75.48984375 102.45 75.55 103.14453125 75.5931640625 103.85 75.6 104.05 74.85 104.3 74.1
M 113.2 30.2
Q 113.3 29.2 113.45 28.2 84.1212890625 27.7771484375 49 27.3 -10.2638671875 26.491015625 -86.05 25.5
L -86.05 25.5 -84.05 27.55 -84 27.55
Q -4.103125 28.7076171875 49 29.6 88.2396484375 30.2455078125 112.85 30.75
L 113.15 30.75
Q 113.15 30.45 113.2 30.2
M 114.95 7.85
Q 105.1 7.6 95.9 7.4 71.6005859375 6.718359375 48.95 5.8 38.4044921875 5.41171875 28.2 4.95 19.35 4.4 -1.45 3.9 -27.3556640625 3.1556640625 -109.9 1.65
L -109.95 1.65
Q -110.540234375 1.6609375 -111.15 1.65
L -109.2 3.75
Q -108.5123046875 3.762890625 -107.85 3.75
L -107.8 3.75
Q -84.8259765625 4.21171875 -70.7 4.6
L -57.35 4.9
Q -41.05 5.65 17.55 7.2 33.954296875 7.6037109375 48.95 7.95 86.097265625 8.88828125 114.85 9.6 114.85 9.5 114.85 9.4
L 114.85 9.35
Q 114.9 8.6 114.95 7.85
M 110.65 47.35
Q 110.5837890625 47.3494140625 110.5 47.35 81.250390625 47.12734375 49 46.9 -4.12890625 46.540625 -65.35 46.15
L -65.4 46.15 -60.35 51.2 -60.3 51.2
Q -26.6060546875 51.3333984375 49 51.6 76.4869140625 51.6853515625 109.5 51.8 109.6275390625 51.799609375 109.75 51.8 109.85 51.3 109.95 50.75
L 109.95 50.7
Q 110.3 49 110.65 47.35
M 112.75 -44.2
Q 112.7 -44.7 112.65 -45.1
L -11.35 -48.5
Q 21.528515625 -46.94453125 48.95 -45.7 85.8935546875 -44.0189453125 112.95 -42.9 112.85 -43.55 112.75 -44.2
M 104.45 -84.15
Q 104.15 -85 103.95 -85.8 103.5490234375 -85.8041015625 103.15 -85.8 77.5904296875 -86.070703125 48.95 -86.35 9.7537109375 -86.712109375 -35.25 -87.1
L -40 -82.35
Q 6.7353515625 -82.09375 48.95 -81.9 77.822265625 -81.739453125 104.55 -81.6 104.891796875 -81.6015625 105.2 -81.6 104.8 -82.9 104.45 -84.15
M 48.95 -64.6
Q 41.7970703125 -64.8017578125 34.45 -65 -14.0171875 -66.1810546875 -55.15 -67.2
L -58.55 -63.8
Q -8.698046875 -63.094921875 48.95 -62 78.4982421875 -61.42421875 110.1 -60.75 110 -61.3 109.9 -61.8
L 109.9 -61.7
Q 109.75 -62.35 109.65 -62.95 81.411328125 -63.7287109375 48.95 -64.6
M 48.95 -10.55
Q 50.579296875 -10.5119140625 51.95 -10.5 82.4 -10.15 115.2 -9.85 115.15 -11.85 115.1 -13.8 115.1 -13.95 115.1 -14 79.4017578125 -14.152734375 48.95 -14.3 -68.0974609375 -14.82265625 -107.15 -15.15 -107.8162109375 -15.1447265625 -108.45 -15.15
L -110.25 -13.25
Q -109.6603515625 -13.2388671875 -109.1 -13.25 17.0228515625 -10.8677734375 48.95 -10.55
M 79.55 -94.95
L 78.8 -94.95
Q 89.4357421875 -94.76171875 99.85 -94.55 100.500390625 -94.5146484375 101.15 -94.5 101.1 -94.75 101.05 -94.9 100.373046875 -94.9025390625 99.7 -94.9 86.9646484375 -94.95 79.55 -94.95
M 20.75 -143.15
L 16.05 -138.4
Q 32.79140625 -138.31328125 48.9 -138.25 62.93359375 -138.15234375 76.5 -138.1 74.940234375 -140.35 73.3 -142.6 61.379296875 -142.7357421875 48.9 -142.85 35.1521484375 -142.98828125 20.75 -143.15
M 1.5 -123.85
Q 12.8466796875 -123.349609375 23.25 -122.8 12.5833984375 -123.7275390625 1.65 -124
L 1.5 -123.85
M 56.05 -164.1
Q 52.504296875 -164.1654296875 48.9 -164.25 45.45234375 -164.276171875 41.95 -164.35
L 40.1 -162.45
Q 44.169921875 -162.7046875 48.9 -163.05 52.54296875 -163.2716796875 56.55 -163.55 56.3279296875 -163.82890625 56.05 -164.1
M 93.6 -108.7
Q 92.26875 -109.126953125 90.95 -109.55 66.5482421875 -110.08046875 48.9 -110.5 36.641796875 -110.77421875 27.65 -111
L 14.25 -111.35
Q 4.1107421875 -111.8251953125 -10.1 -112.3
L -12.75 -109.6
Q 12.7142578125 -109.050390625 48.9 -108.35 69.767578125 -107.948046875 94.15 -107.5 95.280859375 -107.4708984375 96.4 -107.45 96.3 -107.6 96.25 -107.75 94.91875 -108.22734375 93.6 -108.7 Z"/>
</g>

<g id="Layer0_0_MEMBER_1_FILL">
<path fill="#FFFFFF" stroke="none" d="
M 949.15 400.2
L 949.2 400.15
Q 917.9 403.5 895 426.6
L 894.95 426.6
Q 872.15 449.45 868.7 480.35 868 485.85 868 491.65 868 495.925 868.4 500.15 871.05 532.85 895 556.8 917.9 579.7 949.15 583.1
L 949.25 583.1
Q 954.5 583.65 960.05 583.65 964.6 583.65 968.95 583.25
L 968.95 583.3
Q 1001.4 580.5 1025.2 556.8
L 1025.2 556.75
Q 1049 532.85 1051.75 500.15
L 1051.75 500.1
Q 1052.05 495.9 1052.05 491.65 1052.05 485.9 1051.45 480.45
L 1051.45 480.4
Q 1048 449.45 1025.2 426.6 1001.4 402.8 968.95 399.95 964.6 399.6 960.05 399.6 954.45 399.6 949.15 400.2 Z"/>
</g>

<path id="Symbol_55_0_Layer1_0_1_STROKES" stroke="#683500" stroke-width="10" stroke-linejoin="round" stroke-linecap="round" fill="none" d="
M -166.3630187988281 -49.79864349365235
L -166.31499252319335 -49.84666976928711
Q -97.00294623970986 -117.07520114183426 0.504275894165039 -117.01141624450683 98.00924679636955 -116.95063298940657 166.31499252319335 -49.84666976928711
L -0.04802627563476563 116.51634902954102 -166.3630187988281 -49.79864349365235 Z"/>

<path id="Symbol_55_0_Layer0_0_1_STROKES" stroke="#9F5F1A" stroke-width="10" stroke-linejoin="round" stroke-linecap="round" fill="none" d="
M -173.2 -50.7
L -173.15 -50.75
Q -101.45 -122.45 0.05 -122.45 101.45 -122.45 173.15 -50.75
L -0.05 122.45 -173.2 -50.7 Z"/>

<path id="Symbol_55_copy_0_Layer1_0_1_STROKES" stroke="#683500" stroke-width="10" stroke-linejoin="round" stroke-linecap="round" fill="none" d="
M -166.36785888671875 -49.7025146484375
L -166.318359375 -49.75201416015625
Q -97.46453857421875 -118.6058349609375 0.04949951171875 -118.6058349609375 97.46453857421875 -118.6058349609375 166.318359375 -49.75201416015625
L -0.04949951171875 116.6158447265625 -166.36785888671875 -49.7025146484375 Z"/>

<path id="Symbol_55_copy_0_Layer0_0_1_STROKES" stroke="#9F5F1A" stroke-width="10" stroke-linejoin="round" stroke-linecap="round" fill="none" d="
M -173.2 -50.7
L -173.15 -50.75
Q -101.45 -122.45 0.05 -122.45 101.45 -122.45 173.15 -50.75
L -0.05 122.45 -173.2 -50.7 Z"/>

<path id="Layer0_0_MEMBER_1_1_STROKES" stroke="#A1672B" stroke-width="6" stroke-linejoin="round" stroke-linecap="round" fill="none" d="
M 457.6896865844726 378.9454193115235
Q 457.97396697998033 374.965493774414 457.97396697998033 370.9381881713867 457.97396697998033 365.4894805908203 457.4054061889649 360.3250534057617
L 457.4054061889649 360.2776733398437
Q 454.13618164062495 330.9494125366211 432.5308715820313 309.29672241210943 409.97796020507803 286.7438110351563 379.22829742431645 284.043147277832 375.1062316894531 283.7114868164063 370.79464569091783 283.7114868164063 365.4880783081055 283.7114868164063 360.4657913208007 284.28004760742186
L 360.5131713867188 284.2326675415039
Q 330.8532501220702 287.4071319580078 309.1531799316406 309.29672241210943
L 309.1057998657227 309.29672241210943
Q 287.5004898071288 330.9494125366211 284.2312652587891 360.23029327392584 283.56794433593745 365.4421005249024 283.56794433593745 370.9381881713867 283.56794433593745 374.9891838073731 283.94698486328116 378.9927993774414 286.45812835693346 409.979362487793 309.1531799316406 432.6744140624999 330.8532501220702 454.3744842529298 360.4657913208007 457.5963287353516
L 360.5605514526367 457.5963287353516
Q 365.5354583740234 458.1175094604492 370.79464569091783 458.1175094604492 375.1062316894531 458.1175094604492 379.22829742431645 457.7384689331055
L 379.22829742431645 457.78584899902336
Q 409.97796020507803 455.1325653076172 432.5308715820313 432.6744140624999
L 432.5308715820313 432.62703399658204
Q 455.08378295898433 409.979362487793 457.6896865844726 378.9927993774414
L 457.6896865844726 378.9454193115235 Z"/>
</defs>

<g id="Layer_1">
<g filter="url(#Filter_1)" transform="matrix( 1, 0, 0, 1, 0,0) ">
<g transform="matrix( 1.4793701171875, 0, 0, 1.4793701171875, 370.6,370.5) ">
<g id="Layer_6">
<g transform="matrix( 1, 0, 0, 1, 0,-122.5) ">
<g id="Layer_2">
<g transform="matrix( 1, 0, 0, 1, 0,0) ">
<use xlink:href="#Symbol_55_0_Layer3_0_FILL"/>
</g>
</g>

<g id="Symbol_53">
<g transform="matrix( 0.9593048095703125, 0, 0, 0.9727783203125, 5.4,-3.6) ">
<g transform="matrix( 1, 0, 0, 1, -5.4,124.05) ">
<use filter="url(#Filter_2)" xlink:href="#Symbol_53_0_Layer0_0_FILL"/>
</g>
</g>
</g>

<g transform="matrix( 0.9605255126953125, 0, 0, 0.9605255126953125, 0,-1.1) ">
<use xlink:href="#Symbol_55_0_Layer1_0_1_STROKES" transform="matrix( 1.0410919189453125, 0, 0, 1.0410919189453125, 0,1.1) "/>
</g>

<g id="Layer_3">
<g transform="matrix( 1, 0, 0, 1, 0,0) ">
<use xlink:href="#Symbol_55_0_Layer0_0_1_STROKES"/>
</g>
</g>
</g>

<g transform="matrix( 1, 0, 0, -1, 0,122.5) ">
<g transform="matrix( 1, 0, 0, 1, 0,0) ">
<use xlink:href="#Symbol_55_0_Layer3_0_FILL"/>
</g>

<g transform="matrix( 0.9593048095703125, 0, 0, 0.9727783203125, 5.4,-3.6) ">
<g transform="matrix( 1, 0, 0, 1, -5.4,124.05) ">
<use filter="url(#Filter_2)" xlink:href="#Symbol_53_0_Layer0_0_FILL"/>
</g>
</g>

<g transform="matrix( 0.9605255126953125, 0, 0, 0.9605255126953125, 0,-1.1) ">
<use xlink:href="#Symbol_55_0_Layer1_0_1_STROKES" transform="matrix( 1.0410919189453125, 0, 0, 1.0410919189453125, 0,1.1) "/>
</g>

<g transform="matrix( 1, 0, 0, 1, 0,0) ">
<use xlink:href="#Symbol_55_0_Layer0_0_1_STROKES"/>
</g>
</g>

<g transform="matrix( -0.000152587890625, 0.9999847412109375, -0.9999847412109375, -0.000152587890625, 122.4,0) ">
<g transform="matrix( 1, 0, 0, 1, 0,0) ">
<use xlink:href="#Symbol_55_copy_0_Layer3_0_FILL"/>
</g>

<g transform="matrix( 0, -1, 1, 0, 5.4,-1.55) ">
<g transform="matrix( 1, 0, 0, 1, 0,0) ">
<use filter="url(#Filter_2)" xlink:href="#Symbol_53_copy_0_Layer0_0_FILL"/>
</g>
</g>

<g id="Layer_4">
<g transform="matrix( 0.989990234375, 0, 0, 0.989990234375, 0,-0.5) ">
<use xlink:href="#Symbol_55_copy_0_Layer1_0_1_STROKES" transform="matrix( 1.010101318359375, 0, 0, 1.010101318359375, 0,0.5) "/>
</g>
</g>

<g transform="matrix( 1, 0, 0, 1, 0,0) ">
<use xlink:href="#Symbol_55_copy_0_Layer0_0_1_STROKES"/>
</g>
</g>

<g transform="matrix( 0.000152587890625, 0.9999847412109375, 0.9999847412109375, -0.000152587890625, -122.5,0) ">
<g transform="matrix( 1, 0, 0, 1, 0,0) ">
<use xlink:href="#Symbol_55_copy_0_Layer3_0_FILL"/>
</g>

<g transform="matrix( 0, -1, 1, 0, 5.4,-1.55) ">
<g transform="matrix( 1, 0, 0, 1, 0,0) ">
<use filter="url(#Filter_2)" xlink:href="#Symbol_53_copy_0_Layer0_0_FILL"/>
</g>
</g>

<g transform="matrix( 0.989990234375, 0, 0, 0.989990234375, 0,-0.5) ">
<use xlink:href="#Symbol_55_copy_0_Layer1_0_1_STROKES" transform="matrix( 1.010101318359375, 0, 0, 1.010101318359375, 0,0.5) "/>
</g>

<g transform="matrix( 1, 0, 0, 1, 0,0) ">
<use xlink:href="#Symbol_55_copy_0_Layer0_0_1_STROKES"/>
</g>
</g>
</g>
</g>
</g>

<g transform="matrix( 0.947601318359375, 0, 0, 0.947601318359375, -538.95,-94.95) ">
<use xlink:href="#Layer0_0_MEMBER_1_FILL"/>

<use xlink:href="#Layer0_0_MEMBER_1_1_STROKES" transform="matrix( 1.0552825927734375, 0, 0, 1.0552825927734375, 568.75,100.2) "/>
</g>
</g>
</svg>
