
<svg xmlns="http://www.w3.org/2000/svg" version="1.1" xmlns:xlink="http://www.w3.org/1999/xlink" preserveAspectRatio="none" x="0px" y="0px" width="414px" height="340px" viewBox="0 0 414 340">
<defs>
<filter id="Filter_1" x="-20%" y="-20%" width="140%" height="140%" color-interpolation-filters="sRGB">
<feFlood flood-color="#000000" flood-opacity="0.8" in="SourceGraphic" result="result1"/>

<feComposite in2="SourceGraphic" in="result1" operator="in" result="result2"/>

<feGaussianBlur in="result2" stdDeviation="3.3333333333333335,3.3333333333333335" result="result3"/>

<feOffset dx="0.6945927106677217" dy="3.939231012048832" in="result3" result="result4"/>

<feComposite in2="result4" in="SourceGraphic" operator="over" result="result5"/>
</filter>

<g id="Mask_5_MASK_0_FILL">
<path fill="#FFFFFF" stroke="none" d="
M 1183.85 735.55
L 1183.85 369.35 596.65 369.35 596.65 735.55 1183.85 735.55 Z"/>
</g>

<g id="Duplicate_Items_Folder_Symbol_16_0_Layer0_0_FILL">
<path fill="#B3FCFF" stroke="none" d="
M 666.05 82.8
L 666.05 311.7 950.85 311.7 950.85 82.8 666.05 82.8 Z"/>
</g>

<g id="Duplicate_Items_Folder_Symbol_4_copy_2_1_Layer0_0_FILL">
<path fill="#0A0A0A" stroke="none" d="
M 100.6 -79.45
L 100.6 -95.85 -94.5 -95.85 -94.5 -79.45 -43.7 -79.45 -43.7 -8.15 -60.9 -8.15 -65 -7 -66.95 -6
Q -69.7 -4.45 -71.25 -2.3
L -72.45 3
Q -72.05 8.25 -68.5 13.35 -55.25 30.15 -48.2 37.35 -38.05 47.7 -32.2 47.7
L -26.75 46.95 -23.4 44.6 -23.4 9.8 49.85 9.8 49.85 110.6 70.75 110.6 70.75 -79.45 100.6 -79.45
M 49.85 -79.45
L 49.85 -8.15 -23.4 -8.15 -23.4 -79.45 49.85 -79.45 Z"/>
</g>

<path id="Duplicate_Items_Folder_Symbol_16_0_Layer0_0_1_STROKES" stroke="#FFFFFF" stroke-width="10" stroke-linejoin="round" stroke-linecap="round" fill="none" d="
M 666.05 82.8
L 950.85 82.8 950.85 311.7 666.05 311.7 666.05 82.8 Z"/>
</defs>

<mask id="Mask_Mask_1">
<g transform="matrix( 3.2697601318359375, 0, 0, 2.9492034912109375, -2705.95,-1384.85) ">
<use xlink:href="#Mask_5_MASK_0_FILL"/>
</g>
</mask>

<g mask="url(#Mask_Mask_1)">
<g filter="url(#Filter_1)" transform="matrix( 1, 0, 0, 1, 0,0) ">
<g transform="matrix( 1.34991455078125, 0, 0, 1.34991455078125, 14.8,12.8) ">
<g transform="matrix( 1, 0, 0, 1, -666.05,-82.8) ">
<use xlink:href="#Duplicate_Items_Folder_Symbol_16_0_Layer0_0_FILL"/>

<use xlink:href="#Duplicate_Items_Folder_Symbol_16_0_Layer0_0_1_STROKES"/>
</g>
</g>
</g>
</g>

<g mask="url(#Mask_Mask_1)">
<g transform="matrix( 1.154144287109375, 0, 0, 1.154144287109375, 205,168.4) ">
<g transform="matrix( 1, 0, 0, 1, 0,0) ">
<use xlink:href="#Duplicate_Items_Folder_Symbol_4_copy_2_1_Layer0_0_FILL"/>
</g>
</g>
</g>

<g mask="url(#Mask_Mask_1)"/>
</svg>
