
<svg xmlns="http://www.w3.org/2000/svg" version="1.1" xmlns:xlink="http://www.w3.org/1999/xlink" preserveAspectRatio="none" x="0px" y="0px" width="40px" height="40px" viewBox="0 0 40 40">
<defs>
<radialGradient id="Gradient_1" gradientUnits="userSpaceOnUse" cx="0" cy="0" r="17.35" fx="0" fy="0" gradientTransform="matrix( 0.9999999999999999, 0, 0, 0.9999999999999999, 2.15,-2.7) " spreadMethod="pad">
<stop  offset="0%" stop-color="#FF9F9F"/>

<stop  offset="34.90196078431372%" stop-color="#FE0000"/>

<stop  offset="69.01960784313725%" stop-color="#E20000"/>

<stop  offset="83.52941176470588%" stop-color="#C40000"/>

<stop  offset="91.76470588235294%" stop-color="#B60000"/>

<stop  offset="100%" stop-color="#A10000"/>
</radialGradient>

<linearGradient id="Gradient_2" gradientUnits="userSpaceOnUse" x1="3.8249999999999997" y1="-6.825000000000001" x2="7.775" y2="-10.775" spreadMethod="pad">
<stop  offset="0%" stop-color="#FFFFFF" stop-opacity="0.4117647058823529"/>

<stop  offset="100%" stop-color="#FFFFFF" stop-opacity="0"/>
</linearGradient>

<filter id="Filter_1" x="-20%" y="-20%" width="140%" height="140%" color-interpolation-filters="sRGB">
<feFlood flood-color="#000000" flood-opacity="1" in="SourceGraphic" result="result1"/>

<feComposite in2="SourceGraphic" in="result1" operator="in" result="result2"/>

<feGaussianBlur in="result2" stdDeviation="0.6666666666666666,0.6666666666666666" result="result3"/>

<feOffset dx="1.2855752193730787" dy="1.532088886237956" in="result3" result="result4"/>

<feComposite in2="result4" in="SourceGraphic" operator="over" result="result5"/>
</filter>

<filter id="Filter_2" x="-20%" y="-20.8273339703601%" width="140%" height="141.6546679407202%" color-interpolation-filters="sRGB">
<feFlood flood-color="#FE6464" flood-opacity="1" in="SourceGraphic" result="result1"/>

<feComposite in2="SourceGraphic" in="result1" operator="in" result="result2"/>

<feGaussianBlur in="result2" stdDeviation="1,1" result="result3"/>

<feFlood flood-color="#940000" flood-opacity="1" in="SourceGraphic" result="result4"/>

<feComposite in2="SourceGraphic" in="result4" operator="in" result="result5"/>

<feGaussianBlur in="result5" stdDeviation="1,1" result="result6"/>

<feOffset dx="-0.22495105434386492" dy="0.9743700647852352" in="result3" result="result7"/>

<feOffset dx="0.22495105434386492" dy="-0.9743700647852352" in="result3" result="result8"/>

<feOffset dx="0.22495105434386492" dy="-0.9743700647852352" in="result6" result="result9"/>

<feOffset dx="-0.22495105434386492" dy="0.9743700647852352" in="result6" result="result10"/>

<feColorMatrix in="SourceGraphic" type="matrix" values="0 0 0 0 255 0 0 0 0 255 0 0 0 0 255 0 0 0 255 0" result="result11"/>

<feFlood flood-color="#000000" flood-opacity="0" in="SourceGraphic" result="result12"/>

<feComposite in2="result8" in="result7" operator="arithmetic" k1="0" k2="-1" k3="1" k4="0" result="result13"/>

<feComposite in2="result10" in="result9" operator="arithmetic" k1="0" k2="-1" k3="1" k4="0" result="result14"/>

<feComposite in2="result12" in="result13" operator="xor" result="result15"/>

<feComposite in2="result15" in="result14" operator="xor" result="result16"/>

<feComposite in2="result11" in="result16" operator="in" result="result17"/>

<feBlend mode="normal" in2="SourceGraphic" in="result17" result="result18"/>
</filter>

<g id="Duplicate_Items_Folder_Question_Dot_Red_0_Layer2_0_FILL">
<path fill="#FF0000" stroke="none" d="
M -332.3 464.15
Q -332.3 458.3 -336.5 454.1 -340.65 449.95 -346.55 449.95 -352.4 449.95 -356.6 454.1 -360.75 458.3 -360.75 464.15 -360.75 470.05 -356.6 474.2 -352.4 478.4 -346.55 478.4 -340.65 478.4 -336.5 474.2 -332.3 470.05 -332.3 464.15 Z"/>
</g>

<g id="Symbol_6_0_Layer0_0_FILL">
<path fill="url(#Gradient_1)" stroke="none" d="
M -0.05 -14.2
Q -5.9 -14.2 -10.1 -10.05 -14.25 -5.85 -14.25 0 -14.25 5.9 -10.1 10.05 -5.9 14.25 -0.05 14.25 5.85 14.25 10 10.05 14.2 5.9 14.2 0 14.2 -5.85 10 -10.05 5.85 -14.2 -0.05 -14.2 Z"/>
</g>

<path id="Duplicate_Items_Folder_Question_Dot_Red_0_Layer0_0_1_STROKES" stroke="url(#Gradient_2)" stroke-width="2" stroke-linejoin="round" stroke-linecap="round" fill="none" d="
M 4.15 -9.65
Q 6.2 -8.55 7.75 -6.65
M 9.6 -3.75
Q 9.85 -3.2 10.15 -2.55"/>
</defs>

<g filter="url(#Filter_1)" transform="matrix( 1, 0, 0, 1, 0,0) ">
<g transform="matrix( 1.29022216796875, 0, 0, 1.29022216796875, 18.75,18.6) ">
<g transform="matrix( 1, 0, 0, 1, 346.5,-464.15) ">
<use xlink:href="#Duplicate_Items_Folder_Question_Dot_Red_0_Layer2_0_FILL"/>
</g>

<g filter="url(#Filter_2)" transform="matrix( 0.775054931640625, 0, 0, 0.775054931640625, -14.5,-14.4) ">
<g transform="matrix( 1.29022216796875, 0, 0, 1.29022216796875, 18.75,18.6) ">
<g transform="matrix( 1, 0, 0, 1, 0,0) ">
<use xlink:href="#Symbol_6_0_Layer0_0_FILL"/>
</g>
</g>
</g>

<g transform="matrix( 1, 0, 0, 1, 0,0) ">
<use xlink:href="#Duplicate_Items_Folder_Question_Dot_Red_0_Layer0_0_1_STROKES"/>
</g>
</g>
</g>
</svg>
