
<svg xmlns="http://www.w3.org/2000/svg" version="1.1" xmlns:xlink="http://www.w3.org/1999/xlink" preserveAspectRatio="none" x="0px" y="0px" width="278px" height="216px" viewBox="0 0 278 216">
<defs>
<g id="Layer0_0_FILL">
<path fill="#000000" stroke="none" d="
M 168.25 143.2
Q 172.85 133.9 172.85 123.1 172.85 106.7 163 96.4 153.1 86 139 86 130.95 86 123.6 89.75 116.3 93.5 111.2 101.25 111.35 84.05 115.2 74.75 119 65.45 125.65 60.6 130.75 56.85 137.45 56.85 145.8 56.85 151.5 62.9 154.95 66.65 156.85 74.9
L 170.8 73.8
Q 169.1 60.45 160.5 52.9 151.85 45.3 138.3 45.3 120.2 45.3 109.5 58.45 97.2 73.5 97.2 106.7 97.2 136.4 108.3 149.35 119.4 162.25 137 162.25 147.3 162.25 155.4 157.35 163.55 152.4 168.25 143.2
M 152.15 105.3
Q 158.45 112.1 158.45 123.95 158.45 136.3 152.05 143.5 145.65 150.7 136.75 150.7 130.65 150.7 125.1 147.25 119.55 143.75 116.5 137.1 113.4 130.45 113.4 123.2 113.4 112.1 120.05 105.3 126.65 98.45 136.2 98.45 145.8 98.45 152.15 105.3 Z"/>
</g>
</defs>

<g transform="matrix( 1, 0, 0, 1, 0,0) ">
<use xlink:href="#Layer0_0_FILL"/>
</g>
</svg>
