
<svg xmlns="http://www.w3.org/2000/svg" version="1.1" xmlns:xlink="http://www.w3.org/1999/xlink" preserveAspectRatio="none" x="0px" y="0px" width="505px" height="350px" viewBox="0 0 505 350">
<defs>
<linearGradient id="Gradient_1" gradientUnits="userSpaceOnUse" x1="989.9" y1="511.0125" x2="989.9" y2="1129.6875" spreadMethod="pad">
<stop  offset="0%" stop-color="#2C2D2D"/>

<stop  offset="41.1764705882353%" stop-color="#292A2A"/>

<stop  offset="75.68627450980392%" stop-color="#1E1F1F"/>

<stop  offset="100%" stop-color="#121313"/>
</linearGradient>

<filter id="Filter_1" x="-20%" y="-20%" width="140%" height="140%" color-interpolation-filters="sRGB">
<feFlood flood-color="#333333" flood-opacity="1" in="SourceGraphic" result="result1"/>

<feComposite in2="SourceGraphic" in="result1" operator="in" result="result2"/>

<feGaussianBlur in="result2" stdDeviation="1.3333333333333333,1.3333333333333333" result="result3"/>

<feOffset dx="4.949747468305833" dy="4.949747468305833" in="result3" result="result4"/>

<feComposite in2="result4" in="SourceGraphic" operator="over" result="result5"/>
</filter>

<filter id="Filter_2" x="-20%" y="-20%" width="140%" height="140%" color-interpolation-filters="sRGB">
<feColorMatrix in="SourceGraphic" type="matrix" values="1 0 0 0 0 0 1 0 0 0 0 0 1 0 0 0 0 0 0.39 0" result="result1"/>
</filter>

<filter id="Filter_3" x="-20%" y="-20%" width="140%" height="140%" color-interpolation-filters="sRGB">
<feColorMatrix in="SourceGraphic" type="matrix" values="1 0 0 0 0 0 1 0 0 0 0 0 1 0 0 0 0 0 0.42 0" result="result1"/>
</filter>

<filter id="Filter_4" x="-20%" y="-20%" width="140%" height="140%" color-interpolation-filters="sRGB">
<feColorMatrix in="SourceGraphic" type="matrix" values="1 0 0 0 0 0 1 0 0 0 0 0 1 0 0 0 0 0 0.19 0" result="result1"/>
</filter>

<g id="Duplicate_Items_Folder_Symbol_14_copy_0_Layer1_0_FILL">
<path fill="#FFFFFF" stroke="none" d="
M 675.2 -380.7
Q 675.2 -406.55 656.9 -424.85 638.6 -443.15 612.75 -443.15
L -616.9 -443.15
Q -642.75 -443.15 -661.05 -424.85 -679.35 -406.55 -679.35 -380.7
L -679.35 380.4
Q -679.35 406.25 -661.05 424.55 -642.75 442.85 -616.9 442.85
L 612.75 442.85
Q 638.6 442.85 656.9 424.55 675.2 406.25 675.2 380.4
L 675.2 -380.7 Z"/>
</g>

<g id="Mask_Duplicate_Items_Folder_Symbol_15_copy_1_2_MASK_0_FILL">
<path fill="#FFFFFF" stroke="none" d="
M 675.2 -380.7
Q 675.2 -406.55 656.9 -424.85 638.6 -443.15 612.75 -443.15
L -616.9 -443.15
Q -642.75 -443.15 -661.05 -424.85 -679.35 -406.55 -679.35 -380.7
L -679.35 380.4
Q -679.35 406.25 -661.05 424.55 -642.75 442.85 -616.9 442.85
L 612.75 442.85
Q 638.6 442.85 656.9 424.55 675.2 406.25 675.2 380.4
L 675.2 -380.7 Z"/>
</g>

<g id="Duplicate_Items_Folder_Symbol_15_copy_1_Layer2_0_FILL">
<path fill="#A967B6" stroke="none" d="
M -726.55 -483.85
Q -746.7 -463 -746.7 -433.55
L -746.7 433.6
Q -746.7 463.05 -726.55 483.9 -706.35 504.75 -677.85 504.75
L 677.8 504.75
Q 706.3 504.75 726.45 483.9 746.65 463.05 746.65 433.6
L 746.65 -433.55
Q 746.65 -463 726.45 -483.85 706.3 -504.7 677.8 -504.7
L -677.85 -504.7
Q -706.35 -504.7 -726.55 -483.85 Z"/>
</g>

<g id="Duplicate_Items_Folder_Symbol_15_copy_1_Layer2_1_FILL">
<path fill="url(#Gradient_1)" stroke="none" d="
M 1667.2 1190.65
L 1667.2 304.65 312.65 304.65 312.65 1190.65 1667.2 1190.65 Z"/>
</g>

<g id="flash0_ai_0_Layer_1_Blend_0_Layer0_0_FILL">
<path fill="#000000" stroke="none" d="
M 1354.55 886
L 1354.55 0 0 0 0 886 1354.55 886
M 1352.3 0.95
Q 1352.75 0.95 1353.2 45.35 1353.4 67.6 1353.55 90.3
L 1353.55 795.75
Q 1353 885.1 1352.3 885.1
L 2.25 885.1
Q 1.55 885.1 1 795.75
L 1 90.3
Q 1.15 67.6 1.35 45.35 1.8 0.95 2.25 0.95
L 1352.3 0.95 Z"/>

<path fill="#010101" stroke="none" d="
M 1353.2 45.35
Q 1352.75 0.95 1352.3 0.95
L 2.25 0.95
Q 1.8 0.95 1.35 45.35 1.15 67.6 1 90.3
L 1 795.75
Q 1.55 885.1 2.25 885.1
L 1352.3 885.1
Q 1353 885.1 1353.55 795.75
L 1353.55 90.3
Q 1353.4 67.6 1353.2 45.35
M 1350.05 1.9
Q 1350.9 1.9 1351.8 45.7 1352.25 67.65 1352.55 90.5
L 1352.55 795.55
Q 1351.4 884.15 1350.05 884.15
L 4.5 884.15
Q 3.15 884.15 2 795.55
L 2 90.45
Q 2.3 67.65 2.75 45.65 3.65 1.9 4.5 1.9
L 1350.05 1.9 Z"/>

<path fill="#020202" stroke="none" d="
M 1351.8 45.7
Q 1350.9 1.9 1350.05 1.9
L 4.5 1.9
Q 3.65 1.9 2.75 45.65 2.3 67.65 2 90.45
L 2 795.55
Q 3.15 884.15 4.5 884.15
L 1350.05 884.15
Q 1351.4 884.15 1352.55 795.55
L 1352.55 90.5
Q 1352.25 67.65 1351.8 45.7
M 1347.8 2.8
Q 1349.1 2.8 1350.4 45.95 1351.5 81.05 1351.5 90.65
L 1351.5 795.4
Q 1351.5 805 1350.4 840.05 1349.1 883.2 1347.8 883.2
L 6.75 883.2
Q 5.45 883.2 4.1 840.05 3 804.8 3 795.35
L 3 90.65
Q 3 81.2 4.1 45.95 5.45 2.8 6.75 2.8
L 1347.8 2.8 Z"/>

<path fill="#030303" stroke="none" d="
M 1350.4 45.95
Q 1349.1 2.8 1347.8 2.8
L 6.75 2.8
Q 5.45 2.8 4.1 45.95 3 81.2 3 90.65
L 3 795.35
Q 3 804.8 4.1 840.05 5.45 883.2 6.75 883.2
L 1347.8 883.2
Q 1349.1 883.2 1350.4 840.05 1351.5 805 1351.5 795.4
L 1351.5 90.65
Q 1351.5 81.05 1350.4 45.95
M 1345.5 3.75
Q 1347.25 3.75 1349.05 46.25 1350.5 81 1350.5 90.85
L 1350.5 795.2
Q 1350.5 805.05 1349.05 839.8 1347.25 882.3 1345.5 882.3
L 9 882.3
Q 7.3 882.3 5.5 839.8 4.05 804.95 4.05 795.2
L 4.05 90.8
Q 4.05 81.1 5.5 46.25 7.3 3.75 9 3.75
L 1345.5 3.75 Z"/>

<path fill="#040404" stroke="none" d="
M 1349.05 46.25
Q 1347.25 3.75 1345.5 3.75
L 9 3.75
Q 7.3 3.75 5.5 46.25 4.05 81.1 4.05 90.8
L 4.05 795.2
Q 4.05 804.95 5.5 839.8 7.3 882.3 9 882.3
L 1345.5 882.3
Q 1347.25 882.3 1349.05 839.8 1350.5 805.05 1350.5 795.2
L 1350.5 90.85
Q 1350.5 81 1349.05 46.25
M 1343.25 4.7
Q 1345.45 4.7 1347.65 46.6 1349.5 80.8 1349.5 91
L 1349.5 795.05
Q 1349.5 805.25 1347.65 839.5 1345.45 881.35 1343.25 881.35
L 11.3 881.35
Q 9.1 881.35 6.9 839.45 5.05 805.2 5.05 795
L 5.05 91
Q 5.05 80.8 6.9 46.55 9.1 4.7 11.3 4.7
L 1343.25 4.7 Z"/>

<path fill="#050505" stroke="none" d="
M 1347.65 46.6
Q 1345.45 4.7 1343.25 4.7
L 11.3 4.7
Q 9.1 4.7 6.9 46.55 5.05 80.8 5.05 91
L 5.05 795
Q 5.05 805.2 6.9 839.45 9.1 881.35 11.3 881.35
L 1343.25 881.35
Q 1345.45 881.35 1347.65 839.5 1349.5 805.25 1349.5 795.05
L 1349.5 91
Q 1349.5 80.8 1347.65 46.6
M 1341 5.6
Q 1343.6 5.6 1346.3 46.85 1348.5 80.8 1348.5 91.2
L 1348.5 794.85
Q 1348.5 805.25 1346.3 839.15 1343.6 880.4 1341 880.4
L 13.55 880.4
Q 10.9 880.4 8.25 839.15 6.05 805.4 6.05 794.85
L 6.05 91.2
Q 6.05 80.6 8.25 46.85 10.9 5.6 13.55 5.6
L 1341 5.6 Z"/>

<path fill="#060606" stroke="none" d="
M 1346.3 46.85
Q 1343.6 5.6 1341 5.6
L 13.55 5.6
Q 10.9 5.6 8.25 46.85 6.05 80.6 6.05 91.2
L 6.05 794.85
Q 6.05 805.4 8.25 839.15 10.9 880.4 13.55 880.4
L 1341 880.4
Q 1343.6 880.4 1346.3 839.15 1348.5 805.25 1348.5 794.85
L 1348.5 91.2
Q 1348.5 80.8 1346.3 46.85
M 1338.75 6.55
Q 1341.8 6.55 1344.9 47.2 1347.45 80.55 1347.45 91.4
L 1347.45 794.65
Q 1347.45 805.5 1344.9 838.85 1341.8 879.45 1338.75 879.45
L 15.8 879.45
Q 12.75 879.45 9.65 838.85 7.05 805.45 7.05 794.65
L 7.05 91.35
Q 7.05 80.55 9.65 47.15 12.75 6.55 15.8 6.55
L 1338.75 6.55 Z"/>

<path fill="#070707" stroke="none" d="
M 1344.9 47.2
Q 1341.8 6.55 1338.75 6.55
L 15.8 6.55
Q 12.75 6.55 9.65 47.15 7.05 80.55 7.05 91.35
L 7.05 794.65
Q 7.05 805.45 9.65 838.85 12.75 879.45 15.8 879.45
L 1338.75 879.45
Q 1341.8 879.45 1344.9 838.85 1347.45 805.5 1347.45 794.65
L 1347.45 91.4
Q 1347.45 80.55 1344.9 47.2
M 1336.5 7.5
Q 1342 7.5 1346.45 91.55
L 1346.45 794.5
Q 1342 878.55 1336.5 878.55
L 18.05 878.55
Q 14.55 878.55 11 838.55 8.1 805.65 8.1 794.45
L 8.1 91.55
Q 8.1 80.35 11 47.45 14.55 7.5 18.05 7.5
L 1336.5 7.5 Z"/>

<path fill="#080808" stroke="none" d="
M 1346.45 91.55
Q 1342 7.5 1336.5 7.5
L 18.05 7.5
Q 14.55 7.5 11 47.45 8.1 80.35 8.1 91.55
L 8.1 794.45
Q 8.1 805.65 11 838.55 14.55 878.55 18.05 878.55
L 1336.5 878.55
Q 1342 878.55 1346.45 794.5
L 1346.45 91.55
M 1334.25 8.45
Q 1340.4 8.45 1345.45 91.75
L 1345.45 794.3
Q 1340.4 877.6 1334.25 877.6
L 20.3 877.6
Q 14.15 877.6 9.1 794.3
L 9.1 91.7
Q 14.15 8.45 20.3 8.45
L 1334.25 8.45 Z"/>

<path fill="#090909" stroke="none" d="
M 1345.45 91.75
Q 1340.4 8.45 1334.25 8.45
L 20.3 8.45
Q 14.15 8.45 9.1 91.7
L 9.1 794.3
Q 14.15 877.6 20.3 877.6
L 1334.25 877.6
Q 1340.4 877.6 1345.45 794.3
L 1345.45 91.75
M 1331.95 9.35
Q 1338.85 9.35 1344.45 91.9
L 1344.45 794.15
Q 1338.85 876.65 1331.95 876.65
L 22.55 876.65
Q 15.7 876.65 10.1 794.1
L 10.1 91.9
Q 15.7 9.35 22.55 9.35
L 1331.95 9.35 Z"/>

<path fill="#0A0A0A" stroke="none" d="
M 1344.45 91.9
Q 1338.85 9.35 1331.95 9.35
L 22.55 9.35
Q 15.7 9.35 10.1 91.9
L 10.1 794.1
Q 15.7 876.65 22.55 876.65
L 1331.95 876.65
Q 1338.85 876.65 1344.45 794.15
L 1344.45 91.9
M 1329.7 10.3
Q 1337.25 10.3 1343.45 92.1
L 1343.45 793.95
Q 1337.25 875.75 1329.7 875.75
L 24.85 875.75
Q 17.3 875.75 11.1 793.95
L 11.1 92.1
Q 17.3 10.3 24.85 10.3
L 1329.7 10.3 Z"/>

<path fill="#0B0B0B" stroke="none" d="
M 1343.45 92.1
Q 1337.25 10.3 1329.7 10.3
L 24.85 10.3
Q 17.3 10.3 11.1 92.1
L 11.1 793.95
Q 17.3 875.75 24.85 875.75
L 1329.7 875.75
Q 1337.25 875.75 1343.45 793.95
L 1343.45 92.1
M 1338 48.7
Q 1342.4 79.8 1342.4 92.25
L 1342.4 793.75
Q 1342.4 806.25 1338 837.35 1332.75 874.8 1327.45 874.8
L 27.1 874.8
Q 21.8 874.8 16.55 837.35 12.15 806.25 12.15 793.75
L 12.15 92.25
Q 12.15 79.8 16.55 48.7 21.8 11.25 27.1 11.25
L 1327.45 11.25
Q 1332.75 11.25 1338 48.7 Z"/>

<path fill="#0C0C0C" stroke="none" d="
M 1342.4 92.25
Q 1342.4 79.8 1338 48.7 1332.75 11.25 1327.45 11.25
L 27.1 11.25
Q 21.8 11.25 16.55 48.7 12.15 79.8 12.15 92.25
L 12.15 793.75
Q 12.15 806.25 16.55 837.35 21.8 874.8 27.1 874.8
L 1327.45 874.8
Q 1332.75 874.8 1338 837.35 1342.4 806.25 1342.4 793.75
L 1342.4 92.25
M 1336.65 48.95
Q 1341.4 79.7 1341.4 92.45
L 1341.4 793.6
Q 1341.4 806.35 1336.65 837.05 1330.95 873.85 1325.2 873.85
L 29.35 873.85
Q 23.6 873.85 17.9 837.05 13.15 806.35 13.15 793.6
L 13.15 92.45
Q 13.15 79.7 17.9 48.95 23.6 12.15 29.35 12.15
L 1325.2 12.15
Q 1330.95 12.15 1336.65 48.95 Z"/>

<path fill="#0D0D0D" stroke="none" d="
M 1341.4 92.45
Q 1341.4 79.7 1336.65 48.95 1330.95 12.15 1325.2 12.15
L 29.35 12.15
Q 23.6 12.15 17.9 48.95 13.15 79.7 13.15 92.45
L 13.15 793.6
Q 13.15 806.35 17.9 837.05 23.6 873.85 29.35 873.85
L 1325.2 873.85
Q 1330.95 873.85 1336.65 837.05 1341.4 806.35 1341.4 793.6
L 1341.4 92.45
M 1322.95 13.1
Q 1329.15 13.1 1335.3 49.3 1337.45 62.15 1339 76.15 1340.4 88.45 1340.4 92.65
L 1340.4 793.4
Q 1340.4 797.6 1339 809.9 1337.45 823.9 1335.3 836.8 1329.15 872.95 1322.95 872.95
L 31.6 872.95
Q 25.4 872.95 19.3 836.8 17.1 823.95 15.55 809.9 14.15 797.6 14.15 793.4
L 14.15 92.6
Q 14.15 88.4 15.55 76.15 17.1 62.1 19.3 49.25 25.4 13.1 31.6 13.1
L 1322.95 13.1 Z"/>

<path fill="#0E0E0E" stroke="none" d="
M 1335.3 49.3
Q 1329.15 13.1 1322.95 13.1
L 31.6 13.1
Q 25.4 13.1 19.3 49.25 17.1 62.1 15.55 76.15 14.15 88.4 14.15 92.6
L 14.15 793.4
Q 14.15 797.6 15.55 809.9 17.1 823.95 19.3 836.8 25.4 872.95 31.6 872.95
L 1322.95 872.95
Q 1329.15 872.95 1335.3 836.8 1337.45 823.9 1339 809.9 1340.4 797.6 1340.4 793.4
L 1340.4 92.65
Q 1340.4 88.45 1339 76.15 1337.45 62.15 1335.3 49.3
M 1337.9 76.15
Q 1339.4 88.4 1339.4 92.8
L 1339.4 793.25
Q 1339.4 797.65 1337.9 809.9 1336.25 823.8 1333.9 836.45 1327.35 872 1320.7 872
L 33.85 872
Q 27.2 872 20.65 836.45 18.3 823.7 16.65 809.85 15.15 797.6 15.15 793.2
L 15.15 92.8
Q 15.15 88.4 16.65 76.15 18.3 62.3 20.65 49.55 27.2 14.05 33.85 14.05
L 1320.7 14.05
Q 1327.35 14.05 1333.9 49.6 1336.25 62.3 1337.9 76.15 Z"/>

<path fill="#0F0F0F" stroke="none" d="
M 1339.4 92.8
Q 1339.4 88.4 1337.9 76.15 1336.25 62.3 1333.9 49.6 1327.35 14.05 1320.7 14.05
L 33.85 14.05
Q 27.2 14.05 20.65 49.55 18.3 62.3 16.65 76.15 15.15 88.4 15.15 92.8
L 15.15 793.2
Q 15.15 797.6 16.65 809.85 18.3 823.7 20.65 836.45 27.2 872 33.85 872
L 1320.7 872
Q 1327.35 872 1333.9 836.45 1336.25 823.8 1337.9 809.9 1339.4 797.65 1339.4 793.25
L 1339.4 92.8
M 1336.8 76.15
Q 1338.35 88.35 1338.35 93
L 1338.35 793.05
Q 1338.35 797.7 1336.8 809.85 1335 823.55 1332.5 836.15 1325.55 871.05 1318.4 871.05
L 36.1 871.05
Q 29 871.05 22.05 836.15 19.55 823.55 17.75 809.85 16.2 797.7 16.2 793.05
L 16.2 93
Q 16.2 88.35 17.75 76.15 19.55 62.5 22.05 49.85 29 14.95 36.1 14.95
L 1318.4 14.95
Q 1325.55 14.95 1332.5 49.85 1335 62.45 1336.8 76.15 Z"/>

<path fill="#101010" stroke="none" d="
M 1338.35 93
Q 1338.35 88.35 1336.8 76.15 1335 62.45 1332.5 49.85 1325.55 14.95 1318.4 14.95
L 36.1 14.95
Q 29 14.95 22.05 49.85 19.55 62.5 17.75 76.15 16.2 88.35 16.2 93
L 16.2 793.05
Q 16.2 797.7 17.75 809.85 19.55 823.55 22.05 836.15 29 871.05 36.1 871.05
L 1318.4 871.05
Q 1325.55 871.05 1332.5 836.15 1335 823.55 1336.8 809.85 1338.35 797.7 1338.35 793.05
L 1338.35 93
M 1331.1 50.15
Q 1333.8 62.6 1335.7 76.15 1337.35 88.25 1337.35 93.15
L 1337.35 792.85
Q 1337.35 797.75 1335.7 809.85 1333.8 823.4 1331.1 835.85 1323.75 870.1 1316.15 870.1
L 38.4 870.1
Q 30.8 870.1 23.45 835.85 20.75 823.35 18.85 809.85 17.2 797.7 17.2 792.85
L 17.2 93.15
Q 17.2 88.3 18.85 76.15 20.75 62.65 23.45 50.15 30.8 15.9 38.4 15.9
L 1316.15 15.9
Q 1323.75 15.9 1331.1 50.15 Z"/>

<path fill="#111111" stroke="none" d="
M 1335.7 76.15
Q 1333.8 62.6 1331.1 50.15 1323.75 15.9 1316.15 15.9
L 38.4 15.9
Q 30.8 15.9 23.45 50.15 20.75 62.65 18.85 76.15 17.2 88.3 17.2 93.15
L 17.2 792.85
Q 17.2 797.7 18.85 809.85 20.75 823.35 23.45 835.85 30.8 870.1 38.4 870.1
L 1316.15 870.1
Q 1323.75 870.1 1331.1 835.85 1333.8 823.4 1335.7 809.85 1337.35 797.75 1337.35 792.85
L 1337.35 93.15
Q 1337.35 88.25 1335.7 76.15
M 1334.6 76.2
Q 1336.35 88.25 1336.35 93.35
L 1336.35 792.7
Q 1336.35 797.8 1334.6 809.85 1332.6 823.3 1329.75 835.6 1322 869.2 1313.9 869.2
L 40.65 869.2
Q 32.6 869.2 24.8 835.55 21.95 823.2 19.95 809.85 18.2 797.8 18.2 792.7
L 18.2 93.35
Q 18.2 88.25 19.95 76.2 21.95 62.8 24.8 50.45 32.6 16.85 40.65 16.85
L 1313.9 16.85
Q 1322 16.85 1329.75 50.45 1332.6 62.8 1334.6 76.2 Z"/>

<path fill="#121212" stroke="none" d="
M 1336.35 93.35
Q 1336.35 88.25 1334.6 76.2 1332.6 62.8 1329.75 50.45 1322 16.85 1313.9 16.85
L 40.65 16.85
Q 32.6 16.85 24.8 50.45 21.95 62.8 19.95 76.2 18.2 88.25 18.2 93.35
L 18.2 792.7
Q 18.2 797.8 19.95 809.85 21.95 823.2 24.8 835.55 32.6 869.2 40.65 869.2
L 1313.9 869.2
Q 1322 869.2 1329.75 835.6 1332.6 823.3 1334.6 809.85 1336.35 797.8 1336.35 792.7
L 1336.35 93.35
M 1333.5 76.2
Q 1335.35 88.2 1335.35 93.55
L 1335.35 792.5
Q 1335.35 797.85 1333.5 809.85 1331.4 823.05 1328.4 835.25 1320.2 868.25 1311.65 868.25
L 42.9 868.25
Q 34.35 868.25 26.15 835.25 23.15 823.05 21.05 809.85 19.2 797.85 19.2 792.5
L 19.2 93.5
Q 19.2 88.15 21.05 76.2 23.15 62.95 26.15 50.8 34.35 17.8 42.9 17.8
L 1311.65 17.8
Q 1320.2 17.8 1328.4 50.8 1331.4 63 1333.5 76.2 Z"/>

<path fill="#131313" stroke="none" d="
M 1335.35 93.55
Q 1335.35 88.2 1333.5 76.2 1331.4 63 1328.4 50.8 1320.2 17.8 1311.65 17.8
L 42.9 17.8
Q 34.35 17.8 26.15 50.8 23.15 62.95 21.05 76.2 19.2 88.15 19.2 93.5
L 19.2 792.5
Q 19.2 797.85 21.05 809.85 23.15 823.05 26.15 835.25 34.35 868.25 42.9 868.25
L 1311.65 868.25
Q 1320.2 868.25 1328.4 835.25 1331.4 823.05 1333.5 809.85 1335.35 797.85 1335.35 792.5
L 1335.35 93.55
M 1332.35 76.2
Q 1334.3 88.1 1334.3 93.7
L 1334.3 792.35
Q 1334.3 797.95 1332.35 809.85 1330.2 822.9 1327 834.95 1318.4 867.3 1309.4 867.3
L 45.15 867.3
Q 36.15 867.3 27.55 834.95 24.35 822.9 22.2 809.8 20.25 797.9 20.25 792.3
L 20.25 93.7
Q 20.25 88.15 22.2 76.2 24.35 63.1 27.55 51.05 36.15 18.7 45.15 18.7
L 1309.4 18.7
Q 1318.4 18.7 1327 51.05 1330.2 63.15 1332.35 76.2 Z"/>

<path fill="#141414" stroke="none" d="
M 1334.3 93.7
Q 1334.3 88.1 1332.35 76.2 1330.2 63.15 1327 51.05 1318.4 18.7 1309.4 18.7
L 45.15 18.7
Q 36.15 18.7 27.55 51.05 24.35 63.1 22.2 76.2 20.25 88.15 20.25 93.7
L 20.25 792.3
Q 20.25 797.9 22.2 809.8 24.35 822.9 27.55 834.95 36.15 867.3 45.15 867.3
L 1309.4 867.3
Q 1318.4 867.3 1327 834.95 1330.2 822.9 1332.35 809.85 1334.3 797.95 1334.3 792.35
L 1334.3 93.7
M 1331.25 76.2
Q 1333.3 88.1 1333.3 93.9
L 1333.3 792.15
Q 1333.3 797.95 1331.25 809.85 1329 822.75 1325.65 834.7 1316.65 866.4 1307.15 866.4
L 47.4 866.4
Q 37.9 866.4 28.95 834.7 25.55 822.75 23.3 809.85 21.25 797.95 21.25 792.15
L 21.25 93.85
Q 21.25 88.05 23.3 76.2 25.55 63.25 28.95 51.35 37.9 19.65 47.4 19.65
L 1307.15 19.65
Q 1316.65 19.65 1325.65 51.4 1329 63.3 1331.25 76.2 Z"/>

<path fill="#151515" stroke="none" d="
M 1333.3 93.9
Q 1333.3 88.1 1331.25 76.2 1329 63.3 1325.65 51.4 1316.65 19.65 1307.15 19.65
L 47.4 19.65
Q 37.9 19.65 28.95 51.35 25.55 63.25 23.3 76.2 21.25 88.05 21.25 93.85
L 21.25 792.15
Q 21.25 797.95 23.3 809.85 25.55 822.75 28.95 834.7 37.9 866.4 47.4 866.4
L 1307.15 866.4
Q 1316.65 866.4 1325.65 834.7 1329 822.75 1331.25 809.85 1333.3 797.95 1333.3 792.15
L 1333.3 93.9
M 1330.15 76.2
Q 1332.3 88 1332.3 94.05
L 1332.3 792
Q 1332.3 798.05 1330.15 809.85 1327.8 822.6 1324.25 834.35 1314.85 865.45 1304.85 865.45
L 49.65 865.45
Q 39.7 865.45 30.3 834.35 26.75 822.6 24.4 809.8 22.25 798 22.25 791.95
L 22.25 94.05
Q 22.25 88 24.4 76.2 26.75 63.45 30.3 51.65 39.7 20.6 49.65 20.6
L 1304.85 20.6
Q 1314.85 20.6 1324.25 51.7 1327.8 63.45 1330.15 76.2 Z"/>

<path fill="#161616" stroke="none" d="
M 1332.3 94.05
Q 1332.3 88 1330.15 76.2 1327.8 63.45 1324.25 51.7 1314.85 20.6 1304.85 20.6
L 49.65 20.6
Q 39.7 20.6 30.3 51.65 26.75 63.45 24.4 76.2 22.25 88 22.25 94.05
L 22.25 791.95
Q 22.25 798 24.4 809.8 26.75 822.6 30.3 834.35 39.7 865.45 49.65 865.45
L 1304.85 865.45
Q 1314.85 865.45 1324.25 834.35 1327.8 822.6 1330.15 809.85 1332.3 798.05 1332.3 792
L 1332.3 94.05
M 1327.9 76.2
Q 1330.25 87.9 1330.25 94.4
L 1330.25 791.6
Q 1330.25 798.1 1327.9 809.8 1325.35 822.3 1321.45 833.75 1311.35 863.6 1300.35 863.6
L 54.2 863.6
Q 43.2 863.6 33.05 833.75 29.15 822.3 26.6 809.8 24.25 798.1 24.25 791.6
L 24.25 94.4
Q 24.25 87.9 26.6 76.2 29.15 63.75 33.05 52.25 43.2 22.45 54.2 22.45
L 1300.35 22.45
Q 1311.35 22.45 1321.45 52.25 1325.35 63.7 1327.9 76.2 Z"/>

<path fill="#171717" stroke="none" d="
M 1330.25 94.4
Q 1330.25 87.9 1327.9 76.2 1325.35 63.7 1321.45 52.25 1311.35 22.45 1300.35 22.45
L 54.2 22.45
Q 43.2 22.45 33.05 52.25 29.15 63.75 26.6 76.2 24.25 87.9 24.25 94.4
L 24.25 791.6
Q 24.25 798.1 26.6 809.8 29.15 822.3 33.05 833.75 43.2 863.6 54.2 863.6
L 1300.35 863.6
Q 1311.35 863.6 1321.45 833.75 1325.35 822.3 1327.9 809.8 1330.25 798.1 1330.25 791.6
L 1330.25 94.4
M 1326.8 76.25
Q 1329.25 87.85 1329.25 94.6
L 1329.25 791.45
Q 1329.25 798.2 1326.8 809.8 1324.2 822.2 1320.1 833.5 1309.6 862.65 1298.1 862.65
L 56.45 862.65
Q 44.95 862.65 34.45 833.45 30.35 822.15 27.75 809.8 25.3 798.15 25.3 791.45
L 25.3 94.6
Q 25.3 87.85 27.75 76.25 30.35 63.9 34.45 52.55 44.95 23.4 56.45 23.4
L 1298.1 23.4
Q 1309.6 23.4 1320.1 52.55 1324.2 63.85 1326.8 76.25 Z"/>

<path fill="#181818" stroke="none" d="
M 1329.25 94.6
Q 1329.25 87.85 1326.8 76.25 1324.2 63.85 1320.1 52.55 1309.6 23.4 1298.1 23.4
L 56.45 23.4
Q 44.95 23.4 34.45 52.55 30.35 63.9 27.75 76.25 25.3 87.85 25.3 94.6
L 25.3 791.45
Q 25.3 798.15 27.75 809.8 30.35 822.15 34.45 833.45 44.95 862.65 56.45 862.65
L 1298.1 862.65
Q 1309.6 862.65 1320.1 833.5 1324.2 822.2 1326.8 809.8 1329.25 798.2 1329.25 791.45
L 1329.25 94.6
M 1325.7 76.25
Q 1328.25 87.85 1328.25 94.8
L 1328.25 791.25
Q 1328.25 798.25 1325.7 809.8 1323 822 1318.75 833.15 1307.85 861.7 1295.85 861.7
L 58.7 861.7
Q 46.7 861.7 35.85 833.15 31.55 822 28.85 809.8 26.3 798.25 26.3 791.25
L 26.3 94.75
Q 26.3 87.8 28.85 76.25 31.55 64 35.85 52.85 46.75 24.3 58.7 24.3
L 1295.85 24.3
Q 1307.85 24.3 1318.75 52.85 1323 64 1325.7 76.25 Z"/>

<path fill="#191919" stroke="none" d="
M 1328.25 94.8
Q 1328.25 87.85 1325.7 76.25 1323 64 1318.75 52.85 1307.85 24.3 1295.85 24.3
L 58.7 24.3
Q 46.75 24.3 35.85 52.85 31.55 64 28.85 76.25 26.3 87.8 26.3 94.75
L 26.3 791.25
Q 26.3 798.25 28.85 809.8 31.55 822 35.85 833.15 46.7 861.7 58.7 861.7
L 1295.85 861.7
Q 1307.85 861.7 1318.75 833.15 1323 822 1325.7 809.8 1328.25 798.25 1328.25 791.25
L 1328.25 94.8
M 1324.6 76.25
Q 1327.25 87.75 1327.25 94.95
L 1327.25 791.1
Q 1327.25 798.3 1324.6 809.8 1321.8 821.9 1317.35 832.85 1306.1 860.75 1293.55 860.75
L 60.95 860.75
Q 48.45 860.75 37.2 832.85 32.75 821.85 29.95 809.75 27.3 798.25 27.3 791.05
L 27.3 94.95
Q 27.3 87.75 29.95 76.25 32.75 64.15 37.2 53.15 48.45 25.25 60.95 25.25
L 1293.55 25.25
Q 1306.1 25.25 1317.35 53.15 1321.8 64.15 1324.6 76.25 Z"/>

<path fill="#1A1A1A" stroke="none" d="
M 1327.25 94.95
Q 1327.25 87.75 1324.6 76.25 1321.8 64.15 1317.35 53.15 1306.1 25.25 1293.55 25.25
L 60.95 25.25
Q 48.45 25.25 37.2 53.15 32.75 64.15 29.95 76.25 27.3 87.75 27.3 94.95
L 27.3 791.05
Q 27.3 798.25 29.95 809.75 32.75 821.85 37.2 832.85 48.45 860.75 60.95 860.75
L 1293.55 860.75
Q 1306.1 860.75 1317.35 832.85 1321.8 821.9 1324.6 809.8 1327.25 798.3 1327.25 791.1
L 1327.25 94.95
M 1323.45 76.3
Q 1326.2 87.7 1326.2 95.15
L 1326.2 790.9
Q 1326.2 798.35 1323.45 809.75 1320.55 821.75 1315.95 832.6 1304.3 859.85 1291.3 859.85
L 63.25 859.85
Q 50.25 859.85 38.6 832.6 33.95 821.75 31.05 809.75 28.3 798.35 28.3 790.9
L 28.3 95.15
Q 28.3 87.75 31.05 76.3 33.95 64.3 38.6 53.5 50.25 26.2 63.25 26.2
L 1291.3 26.2
Q 1304.3 26.2 1315.95 53.5 1320.55 64.3 1323.45 76.3 Z"/>

<path fill="#1B1B1B" stroke="none" d="
M 1326.2 95.15
Q 1326.2 87.7 1323.45 76.3 1320.55 64.3 1315.95 53.5 1304.3 26.2 1291.3 26.2
L 63.25 26.2
Q 50.25 26.2 38.6 53.5 33.95 64.3 31.05 76.3 28.3 87.75 28.3 95.15
L 28.3 790.9
Q 28.3 798.35 31.05 809.75 33.95 821.75 38.6 832.6 50.25 859.85 63.25 859.85
L 1291.3 859.85
Q 1304.3 859.85 1315.95 832.6 1320.55 821.75 1323.45 809.75 1326.2 798.35 1326.2 790.9
L 1326.2 95.15
M 1322.35 76.3
Q 1325.2 87.65 1325.2 95.3
L 1325.2 790.7
Q 1325.2 798.35 1322.35 809.75 1319.4 821.6 1314.6 832.25 1302.6 858.9 1289.05 858.9
L 65.5 858.9
Q 51.95 858.9 39.95 832.25 35.15 821.6 32.2 809.75 29.35 798.35 29.35 790.7
L 29.35 95.3
Q 29.35 87.65 32.2 76.3 35.15 64.45 39.95 53.8 51.95 27.15 65.5 27.15
L 1289.05 27.15
Q 1302.6 27.15 1314.6 53.8 1319.4 64.45 1322.35 76.3 Z"/>

<path fill="#1C1C1C" stroke="none" d="
M 1325.2 95.3
Q 1325.2 87.65 1322.35 76.3 1319.4 64.45 1314.6 53.8 1302.6 27.15 1289.05 27.15
L 65.5 27.15
Q 51.95 27.15 39.95 53.8 35.15 64.45 32.2 76.3 29.35 87.65 29.35 95.3
L 29.35 790.7
Q 29.35 798.35 32.2 809.75 35.15 821.6 39.95 832.25 51.95 858.9 65.5 858.9
L 1289.05 858.9
Q 1302.6 858.9 1314.6 832.25 1319.4 821.6 1322.35 809.75 1325.2 798.35 1325.2 790.7
L 1325.2 95.3
M 1321.25 76.3
Q 1324.2 87.6 1324.2 95.5
L 1324.2 790.55
Q 1324.2 798.45 1321.25 809.75 1318.2 821.45 1313.2 831.95 1300.85 857.95 1286.8 857.95
L 67.75 857.95
Q 53.65 857.95 41.35 831.95 36.35 821.45 33.3 809.75 30.35 798.45 30.35 790.55
L 30.35 95.5
Q 30.35 87.6 33.3 76.25 36.35 64.55 41.35 54.05 53.65 28.05 67.75 28.05
L 1286.8 28.05
Q 1300.85 28.05 1313.2 54.05 1318.2 64.55 1321.25 76.3 Z"/>

<path fill="#1D1D1D" stroke="none" d="
M 1324.2 95.5
Q 1324.2 87.6 1321.25 76.3 1318.2 64.55 1313.2 54.05 1300.85 28.05 1286.8 28.05
L 67.75 28.05
Q 53.65 28.05 41.35 54.05 36.35 64.55 33.3 76.25 30.35 87.6 30.35 95.5
L 30.35 790.55
Q 30.35 798.45 33.3 809.75 36.35 821.45 41.35 831.95 53.65 857.95 67.75 857.95
L 1286.8 857.95
Q 1300.85 857.95 1313.2 831.95 1318.2 821.45 1321.25 809.75 1324.2 798.45 1324.2 790.55
L 1324.2 95.5
M 1320.15 76.3
Q 1323.2 87.55 1323.2 95.7
L 1323.2 790.35
Q 1323.2 798.5 1320.15 809.75 1317 821.35 1311.85 831.65 1299.15 857.05 1284.55 857.05
L 70 857.05
Q 55.4 857.05 42.7 831.65 37.55 821.35 34.4 809.75 31.35 798.45 31.35 790.35
L 31.35 95.65
Q 31.35 87.55 34.4 76.25 37.55 64.7 42.7 54.35 55.4 29 70 29
L 1284.55 29
Q 1299.15 29 1311.85 54.35 1317 64.7 1320.15 76.3 Z"/>

<path fill="#1E1E1E" stroke="none" d="
M 1323.2 95.7
Q 1323.2 87.55 1320.15 76.3 1317 64.7 1311.85 54.35 1299.15 29 1284.55 29
L 70 29
Q 55.4 29 42.7 54.35 37.55 64.7 34.4 76.25 31.35 87.55 31.35 95.65
L 31.35 790.35
Q 31.35 798.45 34.4 809.75 37.55 821.35 42.7 831.65 55.4 857.05 70 857.05
L 1284.55 857.05
Q 1299.15 857.05 1311.85 831.65 1317 821.35 1320.15 809.75 1323.2 798.5 1323.2 790.35
L 1323.2 95.7
M 1319 76.3
Q 1322.15 87.5 1322.15 95.85
L 1322.15 790.2
Q 1322.15 798.55 1319 809.75 1315.8 821.2 1310.45 831.35 1297.45 856.1 1282.3 856.1
L 72.25 856.1
Q 57.1 856.1 44.05 831.35 38.7 821.2 35.5 809.7 32.35 798.5 32.35 790.15
L 32.35 95.85
Q 32.35 87.5 35.5 76.3 38.7 64.85 44.05 54.65 57.1 29.95 72.25 29.95
L 1282.3 29.95
Q 1297.45 29.95 1310.45 54.65 1315.8 64.8 1319 76.3 Z"/>

<path fill="#1F1F1F" stroke="none" d="
M 1322.15 95.85
Q 1322.15 87.5 1319 76.3 1315.8 64.8 1310.45 54.65 1297.45 29.95 1282.3 29.95
L 72.25 29.95
Q 57.1 29.95 44.05 54.65 38.7 64.85 35.5 76.3 32.35 87.5 32.35 95.85
L 32.35 790.15
Q 32.35 798.5 35.5 809.7 38.7 821.2 44.05 831.35 57.1 856.1 72.25 856.1
L 1282.3 856.1
Q 1297.45 856.1 1310.45 831.35 1315.8 821.2 1319 809.75 1322.15 798.55 1322.15 790.2
L 1322.15 95.85
M 1317.9 76.3
Q 1321.15 87.45 1321.15 96.05
L 1321.15 790
Q 1321.15 798.6 1317.9 809.75 1314.6 821.1 1309.05 831.05 1295.75 855.15 1280 855.15
L 74.5 855.15
Q 58.8 855.15 45.5 831.05 39.95 821.05 36.65 809.7 33.4 798.6 33.4 790
L 33.4 96.05
Q 33.4 87.45 36.65 76.3 39.95 64.95 45.5 54.95 58.8 30.85 74.5 30.85
L 1280 30.85
Q 1295.75 30.85 1309.05 54.95 1314.6 64.95 1317.9 76.3 Z"/>

<path fill="#202020" stroke="none" d="
M 1321.15 96.05
Q 1321.15 87.45 1317.9 76.3 1314.6 64.95 1309.05 54.95 1295.75 30.85 1280 30.85
L 74.5 30.85
Q 58.8 30.85 45.5 54.95 39.95 64.95 36.65 76.3 33.4 87.45 33.4 96.05
L 33.4 790
Q 33.4 798.6 36.65 809.7 39.95 821.05 45.5 831.05 58.8 855.15 74.5 855.15
L 1280 855.15
Q 1295.75 855.15 1309.05 831.05 1314.6 821.1 1317.9 809.75 1321.15 798.6 1321.15 790
L 1321.15 96.05
M 1316.8 76.3
Q 1320.15 87.4 1320.15 96.2
L 1320.15 789.8
Q 1320.15 798.65 1316.8 809.7 1313.4 821 1307.7 830.8 1294.05 854.25 1277.75 854.25
L 76.8 854.25
Q 60.5 854.25 46.85 830.8 41.15 820.95 37.75 809.7 34.4 798.65 34.4 789.8
L 34.4 96.2
Q 34.4 87.4 37.75 76.3 41.15 65.1 46.85 55.25 60.5 31.8 76.8 31.8
L 1277.75 31.8
Q 1294.05 31.8 1307.7 55.25 1313.4 65.05 1316.8 76.3 Z"/>

<path fill="#212121" stroke="none" d="
M 1320.15 96.2
Q 1320.15 87.4 1316.8 76.3 1313.4 65.05 1307.7 55.25 1294.05 31.8 1277.75 31.8
L 76.8 31.8
Q 60.5 31.8 46.85 55.25 41.15 65.1 37.75 76.3 34.4 87.4 34.4 96.2
L 34.4 789.8
Q 34.4 798.65 37.75 809.7 41.15 820.95 46.85 830.8 60.5 854.25 76.8 854.25
L 1277.75 854.25
Q 1294.05 854.25 1307.7 830.8 1313.4 821 1316.8 809.7 1320.15 798.65 1320.15 789.8
L 1320.15 96.2
M 1315.7 76.35
Q 1319.15 87.35 1319.15 96.4
L 1319.15 789.65
Q 1319.15 798.7 1315.7 809.7 1312.25 820.85 1306.35 830.5 1292.35 853.3 1275.5 853.3
L 79.05 853.3
Q 62.2 853.3 48.25 830.5 42.3 820.85 38.85 809.7 35.4 798.7 35.4 789.65
L 35.4 96.4
Q 35.4 87.35 38.85 76.35 42.35 65.2 48.25 55.6 62.2 32.75 79.05 32.75
L 1275.5 32.75
Q 1292.35 32.75 1306.35 55.6 1312.25 65.2 1315.7 76.35 Z"/>

<path fill="#222222" stroke="none" d="
M 1319.15 96.4
Q 1319.15 87.35 1315.7 76.35 1312.25 65.2 1306.35 55.6 1292.35 32.75 1275.5 32.75
L 79.05 32.75
Q 62.2 32.75 48.25 55.6 42.35 65.2 38.85 76.35 35.4 87.35 35.4 96.4
L 35.4 789.65
Q 35.4 798.7 38.85 809.7 42.3 820.85 48.25 830.5 62.2 853.3 79.05 853.3
L 1275.5 853.3
Q 1292.35 853.3 1306.35 830.5 1312.25 820.85 1315.7 809.7 1319.15 798.7 1319.15 789.65
L 1319.15 96.4
M 1314.55 76.3
Q 1318.1 87.3 1318.1 96.55
L 1318.1 789.45
Q 1318.1 798.75 1314.55 809.7 1311 820.7 1304.95 830.15 1290.65 852.35 1273.25 852.35
L 81.3 852.35
Q 63.9 852.35 49.6 830.15 43.5 820.7 39.95 809.7 36.4 798.75 36.4 789.45
L 36.4 96.55
Q 36.4 87.3 39.95 76.3 43.5 65.3 49.6 55.85 63.9 33.65 81.3 33.65
L 1273.25 33.65
Q 1290.65 33.65 1304.95 55.85 1311 65.3 1314.55 76.3 Z"/>

<path fill="#232323" stroke="none" d="
M 1318.1 96.55
Q 1318.1 87.3 1314.55 76.3 1311 65.3 1304.95 55.85 1290.65 33.65 1273.25 33.65
L 81.3 33.65
Q 63.9 33.65 49.6 55.85 43.5 65.3 39.95 76.3 36.4 87.3 36.4 96.55
L 36.4 789.45
Q 36.4 798.75 39.95 809.7 43.5 820.7 49.6 830.15 63.9 852.35 81.3 852.35
L 1273.25 852.35
Q 1290.65 852.35 1304.95 830.15 1311 820.7 1314.55 809.7 1318.1 798.75 1318.1 789.45
L 1318.1 96.55
M 1313.45 76.35
Q 1317.1 87.25 1317.1 96.75
L 1317.1 789.3
Q 1317.1 798.8 1313.45 809.7 1309.8 820.6 1303.55 829.85 1289 851.4 1271 851.4
L 83.55 851.4
Q 65.55 851.4 51 829.85 44.7 820.6 41.1 809.7 37.45 798.8 37.45 789.3
L 37.45 96.75
Q 37.45 87.25 41.1 76.35 44.7 65.45 51 56.15 65.55 34.6 83.55 34.6
L 1271 34.6
Q 1289 34.6 1303.55 56.15 1309.8 65.45 1313.45 76.35 Z"/>

<path fill="#242424" stroke="none" d="
M 1317.1 96.75
Q 1317.1 87.25 1313.45 76.35 1309.8 65.45 1303.55 56.15 1289 34.6 1271 34.6
L 83.55 34.6
Q 65.55 34.6 51 56.15 44.7 65.45 41.1 76.35 37.45 87.25 37.45 96.75
L 37.45 789.3
Q 37.45 798.8 41.1 809.7 44.7 820.6 51 829.85 65.55 851.4 83.55 851.4
L 1271 851.4
Q 1289 851.4 1303.55 829.85 1309.8 820.6 1313.45 809.7 1317.1 798.8 1317.1 789.3
L 1317.1 96.75
M 1312.35 76.35
Q 1316.1 87.2 1316.1 96.95
L 1316.1 789.1
Q 1316.1 798.85 1312.35 809.7 1308.65 820.5 1302.2 829.55 1287.35 850.5 1268.75 850.5
L 85.8 850.5
Q 67.2 850.5 52.35 829.55 45.9 820.45 42.2 809.7 38.45 798.85 38.45 789.1
L 38.45 96.95
Q 38.45 87.2 42.2 76.35 45.9 65.55 52.35 56.45 67.2 35.55 85.8 35.55
L 1268.75 35.55
Q 1287.35 35.55 1302.2 56.45 1308.65 65.55 1312.35 76.35 Z"/>

<path fill="#252525" stroke="none" d="
M 1316.1 96.95
Q 1316.1 87.2 1312.35 76.35 1308.65 65.55 1302.2 56.45 1287.35 35.55 1268.75 35.55
L 85.8 35.55
Q 67.2 35.55 52.35 56.45 45.9 65.55 42.2 76.35 38.45 87.2 38.45 96.95
L 38.45 789.1
Q 38.45 798.85 42.2 809.7 45.9 820.45 52.35 829.55 67.2 850.5 85.8 850.5
L 1268.75 850.5
Q 1287.35 850.5 1302.2 829.55 1308.65 820.5 1312.35 809.7 1316.1 798.85 1316.1 789.1
L 1316.1 96.95
M 1311.25 76.35
Q 1315.1 87.1 1315.1 97.1
L 1315.1 788.9
Q 1315.1 798.9 1311.25 809.65 1307.45 820.35 1300.8 829.25 1285.65 849.55 1266.45 849.55
L 88.05 849.55
Q 68.85 849.55 53.75 829.25 47.1 820.35 43.3 809.65 39.45 798.9 39.45 788.9
L 39.45 97.1
Q 39.45 87.15 43.3 76.35 47.1 65.65 53.75 56.75 68.85 36.45 88.05 36.45
L 1266.45 36.45
Q 1285.65 36.45 1300.8 56.75 1307.45 65.65 1311.25 76.35 Z"/>

<path fill="#262626" stroke="none" d="
M 1315.1 97.1
Q 1315.1 87.1 1311.25 76.35 1307.45 65.65 1300.8 56.75 1285.65 36.45 1266.45 36.45
L 88.05 36.45
Q 68.85 36.45 53.75 56.75 47.1 65.65 43.3 76.35 39.45 87.15 39.45 97.1
L 39.45 788.9
Q 39.45 798.9 43.3 809.65 47.1 820.35 53.75 829.25 68.85 849.55 88.05 849.55
L 1266.45 849.55
Q 1285.65 849.55 1300.8 829.25 1307.45 820.35 1311.25 809.65 1315.1 798.9 1315.1 788.9
L 1315.1 97.1
M 1310.1 76.35
Q 1314.05 87.1 1314.05 97.3
L 1314.05 788.75
Q 1314.05 798.95 1310.1 809.65 1306.25 820.25 1299.4 828.95 1284.05 848.6 1264.2 848.6
L 90.35 848.6
Q 70.5 848.6 55.1 828.95 48.25 820.25 44.4 809.65 40.45 798.95 40.45 788.75
L 40.45 97.3
Q 40.45 87.1 44.4 76.35 48.25 65.8 55.1 57.05 70.5 37.4 90.35 37.4
L 1264.2 37.4
Q 1284.05 37.4 1299.4 57.05 1306.25 65.8 1310.1 76.35 Z"/>

<path fill="#272727" stroke="none" d="
M 1314.05 97.3
Q 1314.05 87.1 1310.1 76.35 1306.25 65.8 1299.4 57.05 1284.05 37.4 1264.2 37.4
L 90.35 37.4
Q 70.5 37.4 55.1 57.05 48.25 65.8 44.4 76.35 40.45 87.1 40.45 97.3
L 40.45 788.75
Q 40.45 798.95 44.4 809.65 48.25 820.25 55.1 828.95 70.5 848.6 90.35 848.6
L 1264.2 848.6
Q 1284.05 848.6 1299.4 828.95 1306.25 820.25 1310.1 809.65 1314.05 798.95 1314.05 788.75
L 1314.05 97.3
M 1309 76.35
Q 1313.05 87 1313.05 97.45
L 1313.05 788.55
Q 1313.05 799 1309 809.65 1305.05 820.15 1298.05 828.7 1282.4 847.7 1261.95 847.7
L 92.6 847.7
Q 72.15 847.7 56.5 828.65 49.5 820.1 45.55 809.65 41.5 799 41.5 788.55
L 41.5 97.45
Q 41.5 87 45.55 76.35 49.5 65.9 56.5 57.35 72.15 38.35 92.6 38.35
L 1261.95 38.35
Q 1282.4 38.35 1298.05 57.35 1305.05 65.9 1309 76.35 Z"/>

<path fill="#282828" stroke="none" d="
M 1313.05 97.45
Q 1313.05 87 1309 76.35 1305.05 65.9 1298.05 57.35 1282.4 38.35 1261.95 38.35
L 92.6 38.35
Q 72.15 38.35 56.5 57.35 49.5 65.9 45.55 76.35 41.5 87 41.5 97.45
L 41.5 788.55
Q 41.5 799 45.55 809.65 49.5 820.1 56.5 828.65 72.15 847.7 92.6 847.7
L 1261.95 847.7
Q 1282.4 847.7 1298.05 828.7 1305.05 820.15 1309 809.65 1313.05 799 1313.05 788.55
L 1313.05 97.45
M 1296.7 57.7
Q 1312.05 75.5 1312.05 97.65
L 1312.05 788.4
Q 1312.05 810.55 1296.7 828.4 1280.8 846.75 1259.7 846.75
L 94.85 846.75
Q 73.75 846.75 57.9 828.4 42.5 810.55 42.5 788.4
L 42.5 97.65
Q 42.5 75.5 57.9 57.7 73.75 39.3 94.85 39.3
L 1259.7 39.3
Q 1280.8 39.3 1296.7 57.7 Z"/>

<path fill="#292929" stroke="none" d="
M 1312.05 97.65
Q 1312.05 75.5 1296.7 57.7 1280.8 39.3 1259.7 39.3
L 94.85 39.3
Q 73.75 39.3 57.9 57.7 42.5 75.5 42.5 97.65
L 42.5 788.4
Q 42.5 810.55 57.9 828.4 73.75 846.75 94.85 846.75
L 1259.7 846.75
Q 1280.8 846.75 1296.7 828.4 1312.05 810.55 1312.05 788.4
L 1312.05 97.65
M 1311.05 97.8
L 1311.05 788.2
Q 1311.05 810.7 1295.3 828.05 1279.2 845.8 1257.45 845.8
L 97.1 845.8
Q 75.3 845.8 59.25 828.05 43.5 810.7 43.5 788.2
L 43.5 97.8
Q 43.5 75.35 59.25 57.95 75.35 40.2 97.1 40.2
L 1257.45 40.2
Q 1279.2 40.2 1295.3 57.95 1311.05 75.35 1311.05 97.8 Z"/>

<path fill="#2A2A2A" stroke="none" d="
M 1311.05 788.2
L 1311.05 97.8
Q 1311.05 75.35 1295.3 57.95 1279.2 40.2 1257.45 40.2
L 97.1 40.2
Q 75.35 40.2 59.25 57.95 43.5 75.35 43.5 97.8
L 43.5 788.2
Q 43.5 810.7 59.25 828.05 75.3 845.8 97.1 845.8
L 1257.45 845.8
Q 1279.2 845.8 1295.3 828.05 1311.05 810.7 1311.05 788.2
M 1310 98
L 1310 788.05
Q 1310 810.85 1293.9 827.8 1277.65 844.9 1255.2 844.9
L 99.35 844.9
Q 76.9 844.9 60.6 827.8 44.5 810.85 44.5 788.05
L 44.5 98
Q 44.5 75.2 60.6 58.25 76.9 41.15 99.35 41.15
L 1255.2 41.15
Q 1277.65 41.15 1293.9 58.25 1310 75.2 1310 98 Z"/>

<path fill="#2B2B2B" stroke="none" d="
M 1310 788.05
L 1310 98
Q 1310 75.2 1293.9 58.25 1277.65 41.15 1255.2 41.15
L 99.35 41.15
Q 76.9 41.15 60.6 58.25 44.5 75.2 44.5 98
L 44.5 788.05
Q 44.5 810.85 60.6 827.8 76.9 844.9 99.35 844.9
L 1255.2 844.9
Q 1277.65 844.9 1293.9 827.8 1310 810.85 1310 788.05
M 1309 98.2
L 1309 787.85
Q 1309 811 1292.5 827.45 1276.05 843.95 1252.9 843.95
L 101.6 843.95
Q 78.45 843.95 62 827.45 45.55 811 45.55 787.85
L 45.55 98.2
Q 45.55 75.05 62 58.6 78.45 42.1 101.6 42.1
L 1252.9 42.1
Q 1276.05 42.1 1292.5 58.6 1309 75.05 1309 98.2 Z"/>

<path fill="#2C2C2C" stroke="none" d="
M 1309 787.85
L 1309 98.2
Q 1309 75.05 1292.5 58.6 1276.05 42.1 1252.9 42.1
L 101.6 42.1
Q 78.45 42.1 62 58.6 45.55 75.05 45.55 98.2
L 45.55 787.85
Q 45.55 811 62 827.45 78.45 843.95 101.6 843.95
L 1252.9 843.95
Q 1276.05 843.95 1292.5 827.45 1309 811 1309 787.85 Z"/>
</g>

<g id="flash0_ai_0_Layer_1__Group__1_0_Layer0_0_FILL">
<path fill="#1F0000" stroke="none" d="
M 1552.1 887.65
L 1552.1 884.35 1481.6 884.35 1481.6 887.65 1552.1 887.65
M 1552.1 3.3
L 1552.1 0 1477.2 0 1477.2 3.3 1552.1 3.3
M 125.4 887.65
L 125.4 884.35 57.4 884.35 57.4 887.65 125.4 887.65
M 125.4 3.3
L 125.4 0 57.4 0 57.4 3.3 125.4 3.3 Z"/>
</g>

<g id="Mask_flash0_ai_0_Layer_1__Clip_Group__0_1_MASK_0_FILL">
<path fill="#FFFFFF" stroke="none" d="
M 1597.75 84.65
Q 1584.75 71.65 1567.85 64.5 1550.4 57.1 1531.25 57.1
L 110.7 57.1
Q 91.55 57.1 74.1 64.5 57.2 71.65 44.2 84.65 31.2 97.65 24.05 114.55 16.65 132 16.65 151.15
L 16.65 1083.35
Q 16.65 1102.5 24.05 1119.95 31.2 1136.85 44.2 1149.85 57.2 1162.85 74.1 1170 91.55 1177.4 110.7 1177.4
L 1531.25 1177.4
Q 1550.4 1177.4 1567.85 1170 1584.75 1162.85 1597.75 1149.85 1610.75 1136.85 1617.9 1119.95 1625.3 1102.5 1625.3 1083.35
L 1625.3 151.15
Q 1625.3 132 1617.9 114.55 1610.75 97.65 1597.75 84.65
M 1496.6 174.25
L 1496.6 1060.25 142.05 1060.25 142.05 174.25 1496.6 174.25 Z"/>
</g>

<g id="flash0_ai_0_Layer_1__Clip_Group__0_Layer1_0_FILL">
<path fill="#000000" stroke="none" d="
M 173.7 165.4
Q 202.40546875 170.584765625 230.35 174.15
L 293.6 174.15
Q 271.3708984375 172.9390625 250.35 170.9 193.9359375 165.421484375 125.05 151.05 124.15078125 150.888671875 123.25 150.7 112.55 148.65 112.55 147.15 112.55 146 118.9 145.05 121.2115234375 144.68671875 125.05 144.2 127.0232421875 143.938671875 129.4 143.65 134 142.95 131.1 142.35 129.0103515625 141.9021484375 125.05 141.35 117.071484375 140.3201171875 101.5 138.95 94.5896484375 138.3453125 88.5 137.75 88.0421875 138.0259765625 87.65 138.35 86 139.65 86.25 142.6
L 82.35 145.4 81.85 146.85 81.85 146.85
Q 87.065234375 147.940234375 92.4 149.05 110.47890625 152.82265625 125.05 155.8 158.758984375 162.7119140625 173.7 165.4
M 229 123.5
Q 233.65 121.15 238.6 117.6 241.4 115.6 246.65 111.6 246.7548828125 111.5244140625 246.85 111.45
L 212.1 111.45
Q 202.0548828125 115.8724609375 190.85 117.3 164.646484375 120.6072265625 125.05 119.05 118.4296875 118.8220703125 111.4 118.4 109.1474609375 120.8783203125 107.25 122.7
L 103.9 122.7 97.3 127.1 93.65 132.5
Q 110.3849609375 133.63125 125.05 134.2 169.5740234375 135.9041015625 195.35 132.6 216.25 129.95 229 123.5
M 75.3 161.45
L 74.65 162.7 74.65 166.9
Q 75.0169921875 166.8306640625 75.35 166.75 83.473828125 164.8228515625 75.3 161.45
M 80.55 150.8
L 79.6 153.65 78.45 155.75
Q 111.4103515625 165.02421875 99.1 170.45 92.6486328125 173.2767578125 74.65 174.6
L 74.65 181.45
Q 92.3650390625 181.0208984375 105.35 180.1 117.414453125 179.2666015625 125.05 178 135.7376953125 176.3080078125 137.75 173.8 139.8 171.3 126.3 165.6 125.6865234375 165.3419921875 125.05 165.05 112.6240234375 159.9884765625 91.6 153.9 86.0115234375 152.2830078125 80.55 150.8
M 1525.3 115.55
Q 1521.248828125 113.959765625 1517.5 112 1501.49296875 114.9841796875 1480.5 116.7 1440.15 120 1413.05 115.75 1403.15 113.5 1423.4 112.25 1426.1482421875 112.0939453125 1443.5 111.45
L 1371.6 111.45
Q 1362.943359375 113.3845703125 1365.15 115.15 1370.6 119.5 1411.95 120.65 1432.65 121.25 1452.25 120.95 1492.1953125 119.9544921875 1525.3 115.55
M 1534.55 118.6
Q 1533.6818359375 118.3646484375 1532.8 118.1 1526.580859375 118.8078125 1520.15 119.4 1524.383203125 119.4 1534.7 118.7 1534.640625 118.64765625 1534.55 118.6
M 1568 178.9
L 1568 173
Q 1533.2845703125 171.830859375 1499.45 170.3 1411.3 166.25 1398.65 162.4 1383.8 157.9 1421.05 154 1453.1 150.7 1501.9 149.55 1534.2541015625 148.638671875 1562.15 148.9
L 1560.15 143.15
Q 1517.41015625 143.5982421875 1453.7 146.6 1343.3 151.8 1339.45 159.3 1335.65 166.65 1435.8 173.05 1508.7509765625 176.754296875 1568 178.9
M 1555.9 138.75
Q 1553.94609375 135.9009765625 1551.65 133.25 1528.649609375 134.0126953125 1502.35 135.45 1394.5 142.55 1338 146.05 1329.6 146.65 1310.2 150.5 1291.25 154.5 1288.35 154.95 1244.65 161.8 1219.9 161.95 1212.2 162 1198.65 161.35 1183.6 160.65 1174.25 160.55 1156.85 160.35 1121.6 163.35 1074.65 167.7 1045.6 170.35 1023.159375 172.4072265625 1001.5 174.15
L 1059 174.15
Q 1073.286328125 172.9029296875 1088.45 171.55 1108.7 169.75 1130.45 170 1134.55 170.05 1168.15 171.2 1217 172.85 1263.1 166.7 1272.65 165.45 1323.2 155.7 1365.05 147.65 1387.5 146.45 1491.15 139.9 1554.6 138.8 1555.2587890625 138.787890625 1555.9 138.75
M 1547.8 129.05
Q 1546.5134765625 127.7677734375 1545.15 126.55 1474.1171875 130.6595703125 1415.25 133.15 1295.45 138.25 1263.35 136.4 1248.15 135.5 1245.25 132.95 1243 131 1247.65 126.75 1251.25 123.5 1245.8 122.65 1240.65 121.8 1224.55 122.85 1168.7 127.6 1117.9 131.6
L 1108.05 133.45
Q 1142.3 125.5 1153.25 117.8 1157.75 114.65 1157 112.3 1156.859375 111.8478515625 1156.55 111.45
L 1066.9 111.45
Q 1039.2849609375 114.2271484375 1009.95 118.9 949.45 127.95 894.05 133.6 847.9 138.25 816.25 139.55 802.7 140.1 795.5 142.2 788.5 144.25 791.45 146.55 799 152.4 851.65 152.4 911 152.4 976.75 145.2 1044.7 137.75 1049.85 129.75 1054.6 122.4 1029.7 126.25 1008.2 129.55 990.4 135.8 967.25 143.05 925.95 146.25 887.9 149.25 861.55 147.1 839.6 145.3 864.55 141.55 884 138.6 923.85 135.4 950.05 133.3 983.65 128.65 1002.4 126.05 1037.1 121.05 1063.95 117.5 1078.5 116.9 1094.65 116.25 1101.4 118.9 1106.2 120.8 1098.2 125.05 1089.95 129.45 1071.95 134.25 1026.5 146.4 962.05 150.9 819.95 161.4 698.6 151.4 647.85 147.2 594.4 139 553.95 132.85 499.1 122.2 474.2916015625 117.3947265625 444.9 111.45
L 397.9 111.45
Q 411.2734375 114.4568359375 427.1 118.05 494.3 132.55 553.3 141.5 730.65 168.45 909.1 158.1 949.75 155.85 986.15 152.05 1032.25 147.2 1067.05 141.4 1086.65 139.45 1108.15 137.6 1151.75 133.7 1168.5 132.85 1191.05 131.7 1191.05 134.3 1191.05 136.2 1188.7 139.9 1187.75 143.05 1193.9 144.45 1210.5 148.3 1299.85 144.2 1358.2 141.5 1453.5 134.95 1513.791015625 130.8005859375 1547.8 129.05
M 1464.05 161.3
Q 1476.75 163.5 1501.75 165.35 1531.189453125 167.5544921875 1568 168.65
L 1568 164.75
Q 1567.8400390625 164.75 1567.65 164.75
L 1566.4 161.25
Q 1559.2970703125 160.613671875 1552.8 159.85 1517.5 155.65 1489.5 155 1461.25 154.3 1455.1 157.6 1452.1 159.2 1464.05 161.3
M 1536.8 120.05
Q 1502.174609375 122.365234375 1463.1 123.3 1430.55 124.05 1404.3 123.5 1369.6 123.6 1355.35 119.4 1348 116.85 1343.75 115.5 1336.1 113.1 1326 111.65 1325.375 111.54765625 1324.75 111.45
L 1176.2 111.45
Q 1176.0990234375 112.218359375 1175.35 113.1 1170.6 118.7 1142.95 125.1 1192.55 119.4 1240.8 116.35 1292.05 113.15 1282.55 117.1 1250.55 130.5 1310.6 131.6 1331.6 131.95 1369.15 130.9 1389.95 130.3 1428.3 129.1 1469.3 127.85 1512.15 125.5 1525.07890625 124.8064453125 1541.95 123.85 1539.493359375 121.8619140625 1536.8 120.05
M 1344.15 1091.4
Q 1359.5 1093.35 1397.7 1099.3 1435.85 1105.15 1464.15 1108.8 1500.3380859375 1113.0708984375 1527.6 1115.85 1535.8984375 1111.1095703125 1543.5 1105.65 1518.7734375 1103.5841796875 1500.1 1101.05 1470.9 1097.15 1436.15 1091.4
L 1344.15 1091.4
M 1367.35 1116.05
Q 1359.1 1112.75 1362.6 1111.2 1366.1 1109.65 1379.65 1110.65 1390.8 1111.45 1417.95 1115.9 1431.471484375 1118.125 1460.15 1122.95
L 1514.2 1122.95
Q 1515.608203125 1122.2716796875 1517 1121.55 1495.309765625 1119.771484375 1472.75 1117.35 1423.35 1112 1388.4 1105.35 1346.7 1097.45 1320.65 1096.2 1298.1 1095.1 1295 1099 1292.55 1102.1 1319.5 1111.3 1336.305078125 1117.0478515625 1357.45 1122.95
L 1391.4 1122.95
Q 1375.76953125 1119.389453125 1367.35 1116.05
M 1552.35 1101.15
L 1556.6 1094.5
Q 1557.2078125 1093.78203125 1557.85 1093.1 1558.292578125 1092.2517578125 1558.7 1091.4
L 1484.35 1091.4
Q 1523 1097.6 1549.25 1100.8 1550.79375 1100.9873046875 1552.35 1101.15
M 1451.25 1078.65
Q 1383.45 1070.65 1349.7 1068.1 1279.55 1062.1 1205.6 1061.45 1134.5 1060.8 1056.85 1065.1 1034.7 1066.2 999.2 1069.15 957.35 1072.75 933.8 1074.6 844.85 1081.6 763.75 1082.45 632.3 1083.9 522.2 1075.35 504.5 1073.85 459.3 1074.45 411.15 1075.15 391.1 1073.95 405.9 1075.85 445.1 1076.35 487.25 1076.9 505.15 1078.55 524.65 1080.35 558.1 1084.05 589.35 1087.55 599.6 1088.4 621.6 1090.25 643.35 1091.3
L 774.5 1091.3
Q 792.4 1090.65 811.65 1089.65 884.7 1086.15 974.9 1080.55 1084.4 1073.75 1102.05 1072.8
L 1126.8 1071.5
Q 1167.05 1069.6 1195.1 1069.05 1246.85 1068.15 1309.3 1070.45 1359.75 1073.4 1407.05 1079.55 1431.1 1082.7 1484.3 1091.3
L 1558.75 1091.3
Q 1559.084765625 1090.6876953125 1559.4 1090.05 1513.287109375 1085.941015625 1451.25 1078.65
M 1417.3 1067.1
Q 1380.9587890625 1063.167578125 1356.3 1059.35
L 1250 1059.35
Q 1357.4490234375 1061.55 1467.55 1076.25 1513.243359375 1081.9978515625 1561.5 1085.7 1562.9435546875 1082.6146484375 1564.3 1079.4 1491.0099609375 1075.1244140625 1417.3 1067.1
M 1406.9 1059.35
L 1387.3 1059.35
Q 1449.5255859375 1067.6171875 1540.45 1073.3 1553.3107421875 1074.1107421875 1565.45 1074.75 1565.45 1074.6677734375 1565.45 1074.55 1567 1072.85 1568 1070.9
L 1568 1069.55
Q 1482.908203125 1066.515625 1406.9 1059.35
M 142.1 1091.4
Q 133.35390625 1092.194140625 125.05 1092.85 105.084375 1094.5326171875 87.65 1095.55 89.599609375 1099.3583984375 92.6 1102.5 93.4 1103.35 94 1104.45 94.0638671875 1104.465625 94.1 1104.45 109.1267578125 1103.2353515625 125.05 1101.6 139.2810546875 1100.1837890625 154.25 1098.45 197.4 1093.4 218.15 1091.4
L 142.1 1091.4
M 144.3 1064.65
Q 136.4771484375 1066.7462890625 125.05 1068.2 105.2572265625 1070.8072265625 74.65 1071.55
L 74.65 1073.85 75.6 1076.4
Q 88.975390625 1075.4208984375 111.6 1073.3 118.4015625 1072.346875 125.05 1071.5 164.78359375 1066.5568359375 199.05 1066 208 1065.85 217.75 1065.9 222.55 1065.8 220.35 1064.85 219.15 1064.35 194.05 1060.6 189.8259765625 1059.9798828125 185.8 1059.35
L 155.15 1059.35
Q 153.3720703125 1062.205859375 144.3 1064.65
M 326.35 1104.85
Q 340.2 1104.3 383.5 1101.6 431.95 1099.25 488.95 1099.7 465.15 1096.85 425.15 1097.75 375.55 1098.85 350.1 1097.65 338.45 1097.1 313.8 1095.2 294.85 1093.75 281.5 1093.65 243.1 1093.3 160.25 1102.9 142.5568359375 1104.9568359375 125.05 1106.5 112.196484375 1107.6666015625 99.45 1108.55 99.47578125 1108.6927734375 99.5 1108.85 110.0412109375 1110.5916015625 117.3 1117.25 121.175390625 1116.8376953125 125.05 1116.4 140.7615234375 1114.6212890625 156.55 1112.4 220.15 1103.45 265.2 1103.75 273.95 1103.8 297.2 1104.65 314.75 1105.3 326.35 1104.85
M 340.8 1075.5
Q 348.7 1076.3 358.55 1079.7 367.5 1082.8 383.6 1083.85 405.5 1085.1 450.3 1087.05 486.9 1088.95 499.6 1091.3
L 558.6 1091.3
Q 530.3 1083.85 512.6 1081.65 484.7 1078.2 437.15 1079.05 406.4 1079.6 376.85 1075.9 361.45 1073.8 354.05 1072.85 341.05 1071.1 331.2 1070.45 290.7 1067.7 237.75 1068.9 185 1070.15 143.4 1074.75 133.5029296875 1075.9009765625 125.05 1076.85 90.5421875 1080.806640625 80.1 1081.65 79.301953125 1081.7134765625 78.5 1081.75
L 79.6 1082.35
Q 79.55 1084.6 80.2 1085.9 81.05 1087.55 82.95 1087.85
L 83.5 1088.6
Q 99.6244140625 1087.6052734375 116.1 1086.15 118.4587890625 1085.9490234375 125.05 1085.3 143.0470703125 1083.4833984375 192.6 1078.25 235.5 1073.75 264.05 1072.85 303 1071.6 340.8 1075.5
M 762.2 1120.45
Q 772.66875 1121.1119140625 788.05 1122.95
L 899.55 1122.95
Q 890.404296875 1120.1697265625 881.4 1117 863.25 1117.85 839.3 1118.75 791.35 1120.45 762.2 1120.45
M 1251.55 1121.55
Q 1254.34296875 1122.2251953125 1257.3 1122.95
L 1318.1 1122.95
Q 1276.5029296875 1112.359765625 1256.65 1108.45 1212.65 1099.8 1167.25 1097.75 1120.8 1095.65 1069.25 1097.55 1035.2 1098.75 970.9 1103.25 894.95 1108.5 856.45 1110.5 783.7 1114.25 710.35 1114.95 767.65 1117.55 852.1 1114.7 900.65 1113.1 997.45 1108.65 1081.45 1105.5 1134.55 1107.4 1204.4 1109.95 1251.55 1121.55
M 1025.7 1122.95
Q 1032.2572265625 1122.2556640625 1042.1 1121.8 1081.0578125 1119.963671875 1125.7 1122.95
L 1217.4 1122.95
Q 1164.4935546875 1115.4197265625 1095.15 1113.3 1057.2 1112.15 1021 1112.85 990.65 1113.45 974.7 1114.95 944.3 1117.85 946.85 1121.85 947.17734375 1122.3814453125 948.05 1122.95
L 1025.7 1122.95
M 286.9 1109
Q 271.2 1106.75 246.3 1108.7 225.45 1110.35 188.05 1115.9 162.9580078125 1119.80703125 142.6 1122.95
L 192.7 1122.95
Q 238.4955078125 1115.062890625 286.9 1109
M 219.05 1122.45
Q 217.5091796875 1122.6974609375 215.95 1122.95
L 290.25 1122.95
Q 307.962109375 1120.0673828125 326.15 1117.8 489.10546875 1097.44921875 708 1122.95
L 741.15 1122.95
Q 722.5921875 1120.5712890625 706.7 1118.6 521.9 1094.4 356.6 1106.35 289.2 1111.25 219.05 1122.45
M 324 1122.95
L 376.9 1122.95
Q 398.0666015625 1121.033984375 420.85 1119.65 489.453125 1115.4498046875 565.4 1122.95
L 670.75 1122.95
Q 626.9384765625 1118.3666015625 583.4 1115.85 442.560546875 1107.729296875 324 1122.95
M 1568 1063.35
L 1568 1057.5
Q 1533.2845703125 1056.330859375 1499.45 1054.8 1497.5576171875 1054.7130859375 1495.7 1054.6
L 1495.7 1059.2 1480.6 1059.2 1480.6 1059.35 1472.8 1059.35
Q 1524.4318359375 1061.7953125 1568 1063.35
M 1568 1053.15
L 1568 1045.8
Q 1560.014453125 1045.14609375 1552.8 1044.3 1521.3150390625 1040.6037109375 1495.7 1039.7
L 1495.7 1049.4
Q 1498.6291015625 1049.6189453125 1501.75 1049.85 1531.189453125 1052.0544921875 1568 1053.15
M 1568 1033.45
L 1568 1027.55
Q 1537.66484375 1027.7359375 1495.7 1029.3
L 1495.7 1034.2
Q 1498.7654296875 1034.120703125 1501.9 1034.05 1537.6958984375 1033.042578125 1568 1033.45
M 1568 1023.1
L 1568 1017.25
Q 1538.2078125 1017.9404296875 1502.35 1019.9 1499.000390625 1020.1220703125 1495.7 1020.35
L 1495.7 1025.1
Q 1528.51875 1023.7513671875 1554.6 1023.3 1561.2041015625 1023.1775390625 1568 1023.1
M 1568 1006.75
L 1568 1002.05
Q 1534.2455078125 1005.1166015625 1495.7 1006.7
L 1495.7 1010.8
Q 1503.8904296875 1010.4029296875 1512.15 1009.95 1534.279296875 1008.762890625 1568 1006.75
M 1568 1012.6
L 1568 1009.7
Q 1530.2185546875 1011.9638671875 1495.7 1013.8
L 1495.7 1016.6
Q 1544.0853515625 1013.4857421875 1568 1012.6
M 1568 1000.4
L 1568 997.75
Q 1545.5548828125 1001.5111328125 1520.15 1003.85 1526.65 1003.85 1546.9 1002.3 1558.61640625 1001.380078125 1568 1000.4
M 1568 902.7
L 1568 896.65
Q 1528.4060546875 893.0533203125 1495.7 890.5
L 1495.7 896.4
Q 1548.966015625 901.2125 1568 902.7
M 1495.7 962.75
L 1495.7 966.7
Q 1509.9533203125 965.4841796875 1524.75 964.2 1548.1408203125 962.4373046875 1568 961.65
L 1568 955.8
Q 1521.2123046875 960.5591796875 1500.9 962.35 1498.289453125 962.55625 1495.7 962.75
M 1495.7 971.5
L 1495.7 978.35
Q 1535.2857421875 976.12890625 1549.1 978.75 1557.35 980.3 1554.85 983.5 1552.55 986.5 1541.45 990.35 1524.081640625 996.4447265625 1495.7 999.7
L 1495.7 1003.15
Q 1518.5244140625 1001.3083984375 1538.6 998.05 1554.81328125 995.4275390625 1568 992.15
L 1568 965.9
Q 1553.085546875 966.51875 1532.8 968.15 1513.0078125 969.9576171875 1495.7 971.5
M 1495.7 914.25
L 1495.7 921.3
Q 1526.5115234375 923.259375 1556.65 925.3 1562.318359375 925.619921875 1568 925.85
L 1568 919.5
Q 1545.920703125 918.1890625 1520.4 916.2 1507.0388671875 915.154296875 1495.7 914.25
M 1495.7 924.95
L 1495.7 936.45
Q 1500.8412109375 938.48828125 1501.15 940.65 1501.483203125 943.044921875 1495.7 945.3
L 1495.7 958.95
Q 1499.7404296875 958.6228515625 1503.75 958.25 1543.35 954.6 1566.7 950.5 1567.358984375 950.3841796875 1568 950.25
L 1568 933.75
Q 1552.4791015625 930.923828125 1526.75 928.05 1511.678515625 926.3591796875 1495.7 924.95
M 1495.7 903.2
L 1495.7 908.8
Q 1505.05625 909.907421875 1515.4 911.1 1540.8021484375 914.067578125 1568 915.75
L 1568 908.95
Q 1549.5142578125 907.794140625 1528.75 906.15 1511.2982421875 904.5822265625 1495.7 903.2
M 1495.7 882.55
L 1495.7 885.85
Q 1505.4646484375 886.5634765625 1515.8 887.35 1536.0361328125 888.88203125 1568 891.4
L 1568 887.8
Q 1544.8416015625 886.273046875 1514.95 884 1505.0435546875 883.2525390625 1495.7 882.55
M 1561.85 870.35
Q 1564.9568359375 870.5962890625 1568 870.8
L 1568 863.35
Q 1548.8169921875 860.92578125 1509.75 855.65 1502.5640625 854.6767578125 1495.7 853.8
L 1495.7 864.75
Q 1523.88671875 867.016015625 1561.85 870.35
M 1568 883.95
L 1568 876.3
Q 1536.3712890625 874.2916015625 1498.1 871.05 1496.89765625 870.946484375 1495.7 870.85
L 1495.7 879.05
Q 1520.4404296875 880.731640625 1551.45 882.9 1559.7392578125 883.4806640625 1568 883.95
M 1568 851.95
L 1568 844.3
Q 1532.4970703125 839.1419921875 1498.8 832.8 1497.3791015625 832.424609375 1495.7 832.1
L 1495.7 842.75
Q 1509.958203125 844.044921875 1524.3 845.95 1540.8572265625 848.1552734375 1568 851.95
M 1568 835.5
L 1568 814.9
Q 1546.137109375 817.4099609375 1540.15 820.9 1529.8669921875 826.884375 1568 835.5
M 1568 807.3
L 1568 795.9
Q 1567.0466796875 795.934765625 1566.1 795.95 1529.6201171875 796.375 1495.7 799.75
L 1495.7 815.3
Q 1516.6310546875 813.234375 1538.45 810.65 1554.58203125 808.644140625 1568 807.3
M 1568 788.5
L 1568 785.9
Q 1567.4900390625 786.2236328125 1567.2 786.55 1566.2095703125 787.68203125 1568 788.5
M 1495.7 765.55
L 1495.7 774
Q 1548.4138671875 766.4927734375 1568 764.1
L 1568 754.65
Q 1541.5890625 758.7591796875 1522.65 761.6 1509.1986328125 763.6193359375 1495.7 765.55
M 1495.7 780.55
L 1495.7 788.9
Q 1540.3380859375 781.6513671875 1567.05 778.3 1567.525 778.23984375 1568 778.15
L 1568 772.3
Q 1547.94765625 774.474609375 1516.2 778.2 1505.8513671875 779.416796875 1495.7 780.55
M 1495.7 756
L 1495.7 759.8
Q 1532.0916015625 756.8423828125 1568 751.7
L 1568 748.95
Q 1530.696875 753.2708984375 1495.7 756
M 1495.7 743.8
L 1495.7 753.05
Q 1524.6857421875 750.9484375 1554.5 747.85 1561.02109375 747.18359375 1568 746.4
L 1568 735.55 1549.6 735.55
Q 1533.6689453125 740.482421875 1495.7 743.8
M 1495.7 726
L 1495.7 731.2
Q 1535.9646484375 732.63984375 1568 732.7
L 1568 724.55
Q 1563.6685546875 724.7673828125 1559.2 724.95 1528.6365234375 726.2173828125 1495.7 726
M 1495.7 720.6
Q 1495.825 720.6001953125 1495.95 720.6 1529.3041015625 720.6 1568 717.15
L 1568 710.35
Q 1536.846484375 712.1669921875 1510.7 711.35 1503.148046875 711.1150390625 1495.7 710.75
L 1495.7 720.6
M 1495.7 696.35
L 1495.7 702.9
Q 1513.2951171875 704.25859375 1530.25 704.7 1548.616796875 705.1669921875 1568 704.5
L 1568 696.9
Q 1534.034765625 699.37421875 1495.7 696.35
M 1568 691.3
L 1568 683.25
Q 1558.4478515625 682.096875 1544.05 681.15 1520.13046875 679.5486328125 1495.7 677.2
L 1495.7 686.05
Q 1545.7283203125 693.1869140625 1566.45 691.45 1567.2412109375 691.38203125 1568 691.3
M 1562.75 676.75
Q 1565.38359375 676.96640625 1568 677.15
L 1568 665.05
Q 1527.52578125 662.3220703125 1500.1 658.6 1497.916015625 658.308203125 1495.7 658
L 1495.7 670
Q 1536.2154296875 674.5541015625 1562.75 676.75
M 1568 660.4
L 1568 648.75
Q 1535.8193359375 646.0322265625 1495.7 641.65
L 1495.7 650.75
Q 1527.14296875 655.6216796875 1549.25 658.3 1558.5517578125 659.4263671875 1568 660.4
M 1564.9 643.95
Q 1566.4533203125 644.0671875 1568 644.15
L 1568 637.6
Q 1531.8982421875 635.55234375 1495.7 632.6
L 1495.7 637.5
Q 1529.4962890625 641.275390625 1564.9 643.95
M 1568 621.35
L 1568 615.45
Q 1533.3142578125 614.301171875 1499.45 612.75 1497.5578125 612.6640625 1495.7 612.55
L 1495.7 618.4
Q 1534.29140625 620.15390625 1568 621.35
M 1568 632.9
L 1568 627.55
Q 1530.93515625 626.2193359375 1495.7 624.1
L 1495.7 628.15
Q 1517.130078125 629.8296875 1540.45 631.3 1554.6369140625 632.1962890625 1568 632.9
M 1568 611.15
L 1568 603.8
Q 1560.019921875 603.1451171875 1552.8 602.3 1521.2375 598.605078125 1495.7 597.65
L 1495.7 607.35
Q 1498.629296875 607.6126953125 1501.75 607.85 1531.2171875 610.0529296875 1568 611.15
M 1568 558.4
L 1568 555.75
Q 1545.5548828125 559.5111328125 1520.15 561.85 1526.65 561.85 1546.9 560.3 1558.61640625 559.380078125 1568 558.4
M 1495.7 578.3
L 1495.7 583.05
Q 1528.541796875 581.7017578125 1554.6 581.25 1561.21015625 581.128125 1568 581.05
L 1568 575.2
Q 1538.2078125 575.9404296875 1502.35 577.9 1499.000390625 578.1205078125 1495.7 578.3
M 1495.7 587.25
L 1495.7 592.15
Q 1498.765234375 592.073828125 1501.9 592 1537.7134765625 591.0244140625 1568 591.45
L 1568 585.5
Q 1537.6861328125 585.6861328125 1495.7 587.25
M 1495.7 571.75
L 1495.7 574.6
Q 1543.98203125 571.5181640625 1568 570.6
L 1568 567.65
Q 1530.21953125 569.9138671875 1495.7 571.75
M 1495.7 564.7
L 1495.7 568.8
Q 1503.890625 568.4029296875 1512.15 567.95 1534.279296875 566.762890625 1568 564.75
L 1568 560.05
Q 1534.2455078125 563.1166015625 1495.7 564.7
M 1495.7 529.5
L 1495.7 536.35
Q 1535.2857421875 534.093359375 1549.1 536.75 1557.35 538.3 1554.85 541.5 1552.55 544.45 1541.45 548.35 1524.0466796875 554.4033203125 1495.7 557.65
L 1495.7 561.1
Q 1518.5244140625 559.28203125 1538.6 556.05 1554.81328125 553.4275390625 1568 550.15
L 1568 523.85
Q 1553.085546875 524.4978515625 1532.8 526.15 1513.0083984375 527.9576171875 1495.7 529.5
M 1495.7 520.7
L 1495.7 524.65
Q 1509.9529296875 523.433984375 1524.75 522.15 1548.1345703125 520.4060546875 1568 519.6
L 1568 513.8
Q 1521.76328125 518.5103515625 1500.9 520.3 1498.2896484375 520.50703125 1495.7 520.7
M 1495.7 482.95
L 1495.7 494.4
Q 1500.8412109375 496.43828125 1501.15 498.6 1501.483203125 500.994921875 1495.7 503.25
L 1495.7 516.95
Q 1499.740234375 516.6228515625 1503.75 516.25 1543.35 512.6 1566.7 508.5 1567.358984375 508.3841796875 1568 508.25
L 1568 491.75
Q 1552.4791015625 488.923828125 1526.75 486.05 1511.680859375 484.3580078125 1495.7 482.95
M 1568 473.75
L 1568 466.95
Q 1549.5142578125 465.794140625 1528.75 464.15 1511.2984375 462.57265625 1495.7 461.15
L 1495.7 466.8
Q 1505.057421875 467.9033203125 1515.4 469.1 1540.819921875 472.0365234375 1568 473.75
M 1568 483.8
L 1568 477.45
Q 1545.920703125 476.1390625 1520.4 474.15 1507.0388671875 473.104296875 1495.7 472.2
L 1495.7 479.25
Q 1526.5115234375 481.2267578125 1556.65 483.25 1562.3177734375 483.5701171875 1568 483.8
M 1568 460.7
L 1568 454.6
Q 1528.4177734375 450.9994140625 1495.7 448.45
L 1495.7 454.4
Q 1548.8986328125 459.177734375 1568 460.7
M 1568 449.35
L 1568 445.8
Q 1544.8416015625 444.273046875 1514.95 442 1505.04453125 441.2474609375 1495.7 440.55
L 1495.7 443.8
Q 1505.4666015625 444.512890625 1515.8 445.3 1536.0361328125 446.83203125 1568 449.35
M 1568 441.95
L 1568 434.25
Q 1536.3712890625 432.266796875 1498.1 429 1496.89765625 428.89609375 1495.7 428.8
L 1495.7 437.05
Q 1520.441015625 438.731640625 1551.45 440.9 1559.7392578125 441.4806640625 1568 441.95
M 1568 428.8
L 1568 421.35
Q 1548.835546875 418.901953125 1509.75 413.6 1502.5634765625 412.6279296875 1495.7 411.75
L 1495.7 422.75
Q 1523.8890625 425.0162109375 1561.85 428.35 1564.9568359375 428.5962890625 1568 428.8
M 1568 393.5
L 1568 372.9
Q 1546.137109375 375.390234375 1540.15 378.85 1529.8669921875 384.8765625 1568 393.5
M 1568 346.45
L 1568 343.85
Q 1567.4900390625 344.21640625 1567.2 344.55 1566.2095703125 345.6583984375 1568 346.45
M 1495.7 338.5
L 1495.7 346.85
Q 1540.3380859375 339.6505859375 1567.05 336.25 1567.525 336.18984375 1568 336.1
L 1568 330.25
Q 1547.94765625 332.424609375 1516.2 336.15 1505.8529296875 337.3666015625 1495.7 338.5
M 1498.8 390.8
Q 1497.3791015625 390.424609375 1495.7 390.1
L 1495.7 400.7
Q 1509.95859375 402.0234375 1524.3 403.95 1540.8572265625 406.1552734375 1568 409.95
L 1568 402.3
Q 1532.528515625 397.1576171875 1498.8 390.8
M 1495.7 357.75
L 1495.7 373.25
Q 1516.6298828125 371.1845703125 1538.45 368.6 1554.5412109375 366.588671875 1568 365.25
L 1568 353.9
Q 1567.04609375 353.9345703125 1566.1 353.95 1529.6931640625 354.375390625 1495.7 357.75
M 1495.7 323.5
L 1495.7 331.95
Q 1548.4451171875 324.4853515625 1568 322.05
L 1568 312.6
Q 1541.5890625 316.7091796875 1522.65 319.55 1509.198828125 321.5693359375 1495.7 323.5
M 1495.7 314
L 1495.7 317.8
Q 1532.06640625 314.841015625 1568 309.7
L 1568 306.95
Q 1530.7408203125 311.2748046875 1495.7 314
M 1568 293.5
L 1549.6 293.5
Q 1533.666796875 298.433203125 1495.7 301.75
L 1495.7 311
Q 1524.6826171875 308.9283203125 1554.5 305.85 1561.029296875 305.172265625 1568 304.4
L 1568 293.5
M 1568 275.1
L 1568 268.3
Q 1536.846484375 270.126171875 1510.7 269.35 1503.1494140625 269.115234375 1495.7 268.75
L 1495.7 278.6
Q 1495.825 278.6001953125 1495.95 278.6 1529.3041015625 278.565625 1568 275.1
M 1568 290.65
L 1568 282.55
Q 1563.669140625 282.7640625 1559.2 282.95 1528.63828125 284.2171875 1495.7 284
L 1495.7 289.15
Q 1535.9646484375 290.58984375 1568 290.65
M 1568 262.45
L 1568 254.85
Q 1534.03046875 257.323828125 1495.7 254.25
L 1495.7 260.85
Q 1513.2966796875 262.20859375 1530.25 262.65 1548.616796875 263.1169921875 1568 262.45
M 1568 241.2
Q 1558.4478515625 240.0712890625 1544.05 239.1 1520.41640625 237.5244140625 1495.7 235.15
L 1495.7 244
Q 1545.727734375 251.1369140625 1566.45 249.4 1567.2412109375 249.33203125 1568 249.25
L 1568 241.2
M 1568 235.15
L 1568 223.05
Q 1527.5744140625 220.3220703125 1500.1 216.6 1497.9140625 216.3037109375 1495.7 216
L 1495.7 228
Q 1536.24921875 232.55390625 1562.75 234.75 1565.38359375 234.96640625 1568 235.15
M 1568 218.4
L 1568 206.9 1495.7 206.9 1495.7 208.7
Q 1526.949609375 213.5814453125 1549.25 216.3 1558.5484375 217.4275390625 1568 218.4
M 1568 206.8
L 1568 206.3
Q 1535.9021484375 203.576953125 1495.7 199.2
L 1495.7 206.8 1568 206.8
M 1495.7 181.65
L 1495.7 185.7
Q 1517.130078125 187.3796875 1540.45 188.85 1554.6369140625 189.7462890625 1568 190.45
L 1568 185.1
Q 1530.9669921875 183.7560546875 1495.7 181.65
M 1495.7 190.05
L 1495.7 195.05
Q 1529.5923828125 198.7720703125 1564.9 201.45 1566.4537109375 201.568359375 1568 201.65
L 1568 195.1
Q 1531.896875 193.0466796875 1495.7 190.05
M 899.4 119.2
Q 775.15 124.85 653.45 116.05 626.301171875 114.0814453125 600.15 111.45
L 544.8 111.45
Q 574.9798828125 115.013671875 606.4 117.75 761.15 131.25 899.4 119.2
M 871.45 111.45
Q 841.7740234375 113.3408203125 814.25 113.8 766.605859375 114.5798828125 717.65 111.45
L 640.5 111.45
Q 752.1060546875 120.84296875 866.75 115.75 896.86171875 113.965625 928.65 111.45
L 871.45 111.45
M 1001.45 111.45
Q 998.3173828125 111.84453125 995.15 112.25 824.9 135.55 641.75 123.85 575.455078125 119.626171875 513.75 111.45
L 471.7 111.45
Q 623.405078125 137.66328125 764.45 136.05 823.2 135.3 888.75 129.25 929.6 125.5 998.15 116.9 1023.02890625 113.76953125 1042.55 111.45
L 1001.45 111.45
M 1157.9 155.05
Q 1150.25 154.55 1140.5 154.05 1121.1 153.15 1110.9 153.45 1101.8 153.75 1067.75 157.4 1024.75 162 994.05 164.45 877.4 173.75 749.35 170.5 638.3 167.7 466.15 139.6 384 125.65 351.25 120.4 303.462890625 112.778515625 280.65 111.45
L 272.85 111.45
Q 267.9384765625 112.11484375 267.3 112.2 262.65 112.95 259 113.9 273.55 111.75 340.95 121.85 345.8 122.6 486.8 145.3 570.15 158.75 599.75 163 651.7833984375 170.51328125 694.2 174.15
L 915.6 174.15
Q 928.9841796875 173.4212890625 942.85 172.55 994.4 169.3 1061.7 163.5 1098.4 160.35 1157.9 155.05
M 1171.45 138.95
Q 1172.95 136.5 1160.9 137.3 1151.85 137.85 1121.6 141.45 1022.45 153.15 949.35 159.55 780.05 171.7 603.1 150.95 529.6 142.3 446 127.1 410.0263671875 120.5671875 365.2 111.45
L 320.55 111.45
Q 333.45 113.45 385.45 122.7 432.75 131.1 466.3 136.05 542.55 148.35 593.05 154.45 659.1 162.45 721.7 165.3 862.1 171.65 1062.6 153.9 1102.25 150.7 1136.3 151.7 1149.15 152.1 1188.25 155 1217.15 157.15 1238.7 156.35 1269.25 155.2 1308.05 148.3 1226.25 154.95 1192.3 150 1169.05 146.65 1171.45 138.95
M 757.7 146.45
Q 753.5 142.75 768.9 140 728.4 140.35 677.8 137.95 618.05 135.15 567.8 129.45 609.2 138 661.7 144.3 726.05 152 782.75 152.9 761.8 150.1 757.7 146.45
M 74.65 1045.65
L 74.65 1051.4
Q 75.0169921875 1051.3306640625 75.35 1051.25 83.801953125 1049.244921875 74.65 1045.65
M 126.3 1050.05
Q 125.6861328125 1049.7927734375 125.05 1049.5 112.580078125 1044.439453125 91.6 1038.35 82.9728515625 1035.862109375 74.65 1033.65
L 74.65 1039.2
Q 112.092578125 1049.2236328125 99.1 1054.95 92.6486328125 1057.7767578125 74.65 1059.1
L 74.65 1065.9
Q 92.384765625 1065.5037109375 105.35 1064.6 117.414453125 1063.745703125 125.05 1062.5 135.7376953125 1060.7580078125 137.75 1058.25 139.8 1055.75 126.3 1050.05
M 125.05 1018.7
Q 133.8951171875 1019.03203125 142 1019.15
L 142 1004
Q 133.856640625 1003.9123046875 125.05 1003.55 110.1712890625 1002.9701171875 93.4 1001.7 83.197265625 1000.855078125 74.65 1000.15
L 74.65 1015.6
Q 102.2982421875 1017.8173828125 125.05 1018.7
M 125.05 1028.65
Q 127.0232421875 1028.388671875 129.4 1028.1 134 1027.4 131.1 1026.8 129.02109375 1026.3509765625 125.05 1025.8 117.08359375 1024.784765625 101.5 1023.45 85.9857421875 1022.08359375 74.65 1020.9
L 74.65 1029.9
Q 83.3126953125 1031.6595703125 92.4 1033.55 110.484765625 1037.314453125 125.05 1040.3 134.223046875 1042.1638671875 142 1043.7
L 142 1039
Q 133.6240234375 1037.356640625 125.05 1035.55 124.1513671875 1035.38828125 123.25 1035.2 112.55 1033.15 112.55 1031.65 112.55 1030.5 118.9 1029.5 121.2115234375 1029.13671875 125.05 1028.65
M 74.65 961.5
L 74.65 970.8
Q 96.021484375 971.2548828125 119.9 970.65 122.4416015625 970.584765625 125.05 970.5 133.199609375 970.25859375 142 969.85
L 142 960.05
Q 133.308984375 960.415625 125.05 960.7 97.4333984375 961.6109375 74.65 961.5
M 74.65 978.45
L 74.65 989.2
Q 81.4546875 989.5833984375 88.15 990.15
L 88.15 990.1 104.55 978.4
Q 93.4 978.65 83.5 978.55
L 82.05 978.55
Q 78.312890625 978.5220703125 74.65 978.45
M 74.65 946.95
L 74.65 955.8
Q 94.19453125 956.244140625 125.05 955.3 133.1369140625 955.0658203125 142 954.7
L 142 947.2
Q 133.3177734375 947.3888671875 125.05 947.45 97.559765625 947.71875 74.65 946.95
M 74.65 920.45
L 74.65 929.85
Q 90.8767578125 931.9451171875 122.3 933.05 123.6724609375 933.0986328125 125.05 933.15 133.426953125 933.423046875 142 933.6
L 142 927.3
Q 129.9232421875 926.2986328125 125.05 924.7 122.1474609375 923.7837890625 121.8 922.65 121.3712890625 921.1494140625 125.05 920.05 127.377734375 919.4037109375 131.35 918.9 135.875390625 918.3126953125 142 918.05
L 142 912.95
Q 133.1041015625 913.477734375 125.05 914.1 93.2982421875 916.55390625 74.65 920.45
M 74.65 935.5
L 74.65 939.65
Q 86.3599609375 940.5931640625 99.45 941.25 111.56796875 941.8392578125 125.05 942.2 133.2712890625 942.432421875 142 942.55
L 142 938.2
Q 133.146875 938.1740234375 125.05 938.05 94.4470703125 937.5486328125 74.65 935.5
M 74.65 906.05
L 74.65 913.85
Q 87.578515625 912.65625 112.05 910.35 118.5341796875 909.73984375 125.05 909.2 133.4984375 908.503125 142 907.9
L 142 899.4
Q 138.62265625 899.7025390625 135.25 900 129.991796875 900.5306640625 125.05 901 93.3650390625 904.219921875 74.65 906.05
M 74.65 898.1
L 74.65 901.25
Q 104.710546875 898.6958984375 125.05 897.1 134.5955078125 896.3626953125 142 895.8
L 142 893.25
Q 133.5865234375 893.7244140625 125.05 894.3 124.3755859375 894.353125 123.7 894.4 93.5521484375 896.751171875 74.65 898.1
M 142 863.75
Q 133.48125 863.6572265625 125.05 863.45 99.44375 862.8396484375 74.65 861.45
L 74.65 867.9
Q 99.3548828125 868.81953125 125.05 868.9 133.471875 868.9146484375 142 868.85
L 142 863.75
M 142 879.55
L 142 873.95
Q 133.3591796875 874.1423828125 125.05 874.4 122.585546875 874.5083984375 120.15 874.6 113.8486328125 874.8158203125 74.65 876.75
L 74.65 883.15
Q 82.5568359375 882.6244140625 91.05 882 108.2677734375 880.7259765625 125.05 880.05 133.58125 879.7447265625 142 879.55
M 142 888.15
L 142 885.6
Q 133.58046875 885.848046875 125.05 886.2 100.316015625 887.3345703125 74.65 889.55
L 74.65 893.55
Q 75.789453125 893.4396484375 76.95 893.3 102.1115234375 890.2947265625 125.05 888.95 133.6828125 888.4271484375 142 888.15
M 126 870.85
Q 125.5263671875 870.8583984375 125.05 870.85 102.7787109375 871.2392578125 74.65 870.8
L 74.65 873.15
Q 104.126953125 872.8755859375 125.05 870.95 125.52734375 870.894921875 126 870.85
M 142 815.85
Q 133.069140625 815.3587890625 125.05 814.9 92.1783203125 813.137890625 74.65 812.25
L 74.65 819.1
Q 102.837890625 819.3373046875 125.05 820.3 134.0115234375 820.675 142 821.15
L 142 815.85
M 125.05 833.75
Q 124.3486328125 833.7443359375 123.65 833.7 108.4 832.75 75.35 828 74.9998046875 827.9498046875 74.65 827.9
L 74.65 842.05
Q 97.307421875 844.719140625 125.05 844.35 132.1103515625 844.2845703125 139.5 844 140.748046875 843.9517578125 142 843.9
L 142 834.25
Q 133.318359375 834.2671875 125.05 833.75
M 142 811
L 142 804.5
Q 133.8080078125 804.051171875 125.05 803.55 118.0318359375 803.16875 110.65 802.75 91.395703125 801.652734375 74.65 800.75
L 74.65 807.4
Q 90.7078125 808.2330078125 111.65 809.35 118.46953125 809.7134765625 125.05 810.05 133.7330078125 810.541015625 142 811
M 142 799.15
L 142 796.15
Q 133.1583984375 795.8083984375 125.05 795.45 94.710546875 794.2048828125 74.65 793.3
L 74.65 796.6
Q 90.9859375 797.2388671875 110.2 797.95 117.80546875 798.2404296875 125.05 798.5 133.7875 798.8556640625 142 799.15
M 74.65 763.55
L 74.65 768.7
Q 99.160546875 768.9203125 125.05 769.95 128.7115234375 770.133984375 132.4 770.3 136.9458984375 770.5203125 142 770.75
L 142 764.7
Q 133.403515625 764.4435546875 125.05 764.25 122.589453125 764.199609375 120.15 764.15 97.2080078125 763.5626953125 74.65 763.55
M 74.65 775.55
L 74.65 784.35
Q 97.6544921875 784.68828125 125.05 785.55 127.58125 785.6630859375 130.15 785.75 135.73828125 785.9421875 142 786.15
L 142 778.3
Q 133.3734375 777.894140625 125.05 777.5 98.2779296875 776.2947265625 74.65 775.55
M 74.65 751.7
L 74.65 758.6
Q 86.93046875 759.0314453125 100.45 759.6 113.277734375 760.1337890625 125.05 760.55 133.8177734375 760.8859375 142 761.15
L 142 758
Q 133.896875 757.3201171875 125.05 756.5 117.23984375 755.76953125 108.85 754.95 90.5037109375 753.1541015625 74.65 751.7
M 74.65 746.25
Q 77.28359375 746.5072265625 79.95 746.75 92.653125 747.8970703125 125.05 751.05 132.9408203125 751.8140625 142 752.7
L 142 746.3
Q 133.1619140625 745.2103515625 125.05 744.3 107.9931640625 742.4294921875 94.15 741.4 85.0404296875 740.5931640625 74.65 740.15
L 74.65 746.25
M 74.65 734.55
Q 76.9859375 734.34921875 79.55 734.1 93.65 732.75 105.25 733.45 113.9904296875 733.9607421875 125.05 735.65 132.9357421875 736.8791015625 142 738.7
L 142 724.95
Q 136.109765625 724.0529296875 131.45 723.55 128.1927734375 723.198828125 125.05 722.95 108.511328125 721.7171875 95.15 723.65 85.0693359375 725.1724609375 74.65 727.25
L 74.65 734.55
M 79.5 719
Q 77.3109375 719.2583984375 74.65 719.65
L 74.65 723.05
Q 81.6453125 721.4609375 83.95 721 96.45 718.55 104.55 718.6 91.35 717.65 79.5 719
M 74.65 706.3
L 74.65 713.85
Q 78.66171875 713.22734375 82.4 712.9 96.75 711.7 115.4 714 118.9990234375 714.4498046875 125.05 715.5 131.9369140625 716.6869140625 142 718.65
L 142 714.35
Q 137.363671875 713.6603515625 132.1 712.85 128.529296875 712.2505859375 125.05 711.7 96.8466796875 707.27109375 74.65 706.3
M 74.65 683.25
L 74.65 684.45
Q 84.07265625 682.896875 86.2 682.55 80.3892578125 682.9220703125 74.65 683.25
M 74.65 609.4
Q 75.0171875 609.329296875 75.35 609.25 83.760546875 607.2166015625 74.65 603.65
L 74.65 609.4
M 125.05 673.9
Q 133.5150390625 672.9759765625 142 671.9
L 142 662.45
Q 133.509765625 663.312890625 125.05 664.05 99.715234375 666.29296875 74.65 667.5
L 74.65 678.45
Q 99.7548828125 676.7603515625 125.05 673.9
M 142 689.9
L 142 680.6
Q 133.0669921875 681.978515625 125.05 683.2 115.644921875 684.6560546875 107.5 685.9 90.7380859375 688.483203125 74.65 690.85
L 74.65 699.4
Q 79.481640625 699.2880859375 83.35 699.4 92 699.65 93.35 700.65 105.96171875 697.4306640625 125.05 693.4 132.96796875 691.733984375 142 689.9
M 142 657.35
L 142 648.95
Q 133.3068359375 649.7408203125 125.05 650.4 97.4033203125 652.7203125 74.65 653.8
L 74.65 663.5
Q 98.569140625 661.8478515625 125.05 659.15 133.3982421875 658.3029296875 142 657.35
M 142 641.5
L 142 632.85
Q 132.8970703125 633.9287109375 125.05 634.8 90.16328125 638.794921875 80.1 639.6 77.38359375 639.81953125 74.65 640
L 74.65 647.1
Q 95.05234375 645.9572265625 116.1 644.1 118.4490234375 643.8986328125 125.05 643.25 131.4970703125 642.6005859375 142 641.5
M 142 627.55
L 142 623.2
Q 134.8453125 624.9306640625 125.05 626.2 105.246484375 628.7892578125 74.65 629.5
L 74.65 634.45
Q 87.7150390625 633.5060546875 111.6 631.3 118.40234375 630.34765625 125.05 629.5 133.6544921875 628.44375 142 627.55
M 126.3 608.05
Q 125.6861328125 607.7904296875 125.05 607.5 112.580078125 602.391796875 91.6 596.35 82.971484375 593.855859375 74.65 591.65
L 74.65 597.15
Q 112.092578125 607.1736328125 99.1 612.9 92.6486328125 615.7494140625 74.65 617.1
L 74.65 623.9
Q 92.3650390625 623.4708984375 105.35 622.55 117.414453125 621.7166015625 125.05 620.45 135.7376953125 618.7580078125 137.75 616.25 139.8 613.75 126.3 608.05
M 142 500.55
L 142 496.15
Q 133.146875 496.1283203125 125.05 496 94.4470703125 495.514453125 74.65 493.5
L 74.65 497.65
Q 86.3599609375 498.5931640625 99.45 499.25 111.56796875 499.8392578125 125.05 500.2 133.271484375 500.432421875 142 500.55
M 74.65 536.4
L 74.65 547.15
Q 81.45859375 547.5396484375 88.15 548.1 108.3357421875 549.787890625 125.05 550.7 134.0255859375 551.2021484375 142 551.45
L 142 535
Q 133.4017578125 535.4671875 125.05 535.75 113.8013671875 536.2064453125 103 536.4
L 82.05 536.5
Q 78.312109375 536.476171875 74.65 536.4
M 74.65 558.15
L 74.65 573.55
Q 102.298828125 575.7681640625 125.05 576.65 133.8951171875 577.0033203125 142 577.15
L 142 561.95
Q 133.855859375 561.87265625 125.05 561.5 110.16953125 560.95625 93.4 559.7 83.197265625 558.855078125 74.65 558.15
M 74.65 578.85
L 74.65 587.85
Q 83.3126953125 589.6095703125 92.4 591.5 110.484765625 595.264453125 125.05 598.25 134.223046875 600.129296875 142 601.7
L 142 596.95
Q 133.62265625 595.3126953125 125.05 593.5 124.151171875 593.338671875 123.25 593.15 112.55 591.1 112.55 589.6 112.55 588.45 118.9 587.5 121.2115234375 587.13671875 125.05 586.65 127.0232421875 586.388671875 129.4 586.1 134 585.4 131.1 584.8 129.02109375 584.3509765625 125.05 583.8 117.08359375 582.7681640625 101.5 581.4 85.97578125 580.0349609375 74.65 578.85
M 74.65 519.5
L 74.65 528.75
Q 96.0173828125 529.2212890625 119.9 528.6 122.441015625 528.5345703125 125.05 528.45 133.19296875 528.2080078125 142 527.8
L 142 518.05
Q 133.308984375 518.415625 125.05 518.7 97.4333984375 519.6109375 74.65 519.5
M 74.65 504.95
L 74.65 513.8
Q 94.19453125 514.244140625 125.05 513.3 133.1369140625 513.0658203125 142 512.7
L 142 505.2
Q 133.3177734375 505.380859375 125.05 505.45 97.559765625 505.6779296875 74.65 504.95
M 122.3 491
Q 123.6724609375 491.0486328125 125.05 491.1 133.426171875 491.373046875 142 491.55
L 142 485.3
Q 129.9232421875 484.2673828125 125.05 482.65 122.1474609375 481.7337890625 121.8 480.6 121.3712890625 479.0994140625 125.05 478 127.377734375 477.3537109375 131.35 476.85 135.8763671875 476.2798828125 142 476.05
L 142 470.95
Q 133.1041015625 471.4779296875 125.05 472.1 93.29765625 474.55390625 74.65 478.45
L 74.65 487.8
Q 90.9111328125 489.8947265625 122.3 491
M 142 465.85
L 142 457.35
Q 138.641796875 457.6521484375 135.25 457.95 129.991796875 458.4865234375 125.05 459 93.3650390625 462.2166015625 74.65 464.05
L 74.65 471.8
Q 87.5671875 470.618359375 112.05 468.3 118.533984375 467.689453125 125.05 467.15 133.498046875 466.4525390625 142 465.85
M 142 453.75
L 142 451.2
Q 133.588671875 451.674609375 125.05 452.25 124.3755859375 452.303125 123.7 452.35 93.5521484375 454.7390625 74.65 456.1
L 74.65 459.2
Q 104.7302734375 456.6802734375 125.05 455.05 134.60390625 454.32109375 142 453.75
M 142 443.55
Q 133.580078125 443.8240234375 125.05 444.2 100.312109375 445.3193359375 74.65 447.55
L 74.65 451.55
Q 75.789453125 451.4365234375 76.95 451.3 102.14375 448.2685546875 125.05 446.9 133.687890625 446.380859375 142 446.1
L 142 443.55
M 142 437.55
L 142 431.95
Q 133.360546875 432.142578125 125.05 432.4 122.585546875 432.5083984375 120.15 432.6 114.017578125 432.8158203125 74.65 434.75
L 74.65 441.15
Q 82.5587890625 440.6259765625 91.05 440 108.275 438.726953125 125.05 438.05 133.583203125 437.728515625 142 437.55
M 142 426.85
L 142 421.7
Q 133.483984375 421.6072265625 125.05 421.4 99.4703125 420.790234375 74.65 419.4
L 74.65 425.9
Q 99.057421875 426.812109375 125.05 426.85 133.4423828125 426.910546875 142 426.85
M 126 428.8
Q 125.5263671875 428.8083984375 125.05 428.8 102.873828125 429.189453125 74.65 428.75
L 74.65 431.1
Q 104.126953125 430.8255859375 125.05 428.9 125.52734375 428.844921875 126 428.8
M 142 416.15
L 142 409.15
Q 135.8962890625 409.3435546875 129.95 409.4 127.5 409.422265625 125.05 409.4 99.8181640625 409.458984375 74.65 407.45
L 74.65 414.85
Q 98.6494140625 416.1916015625 125.05 416.25 133.4048828125 416.2591796875 142 416.15
M 74.65 370.25
L 74.65 377.05
Q 102.837890625 377.306640625 125.05 378.25 134.0115234375 378.6291015625 142 379.1
L 142 373.8
Q 133.0556640625 373.336328125 125.05 372.9 91.6939453125 371.09609375 74.65 370.25
M 75.35 385.95
Q 74.9998046875 385.8998046875 74.65 385.85
L 74.65 400
Q 97.2765625 402.6794921875 125.05 402.3 132.1091796875 402.2341796875 139.5 401.95 140.748046875 401.9015625 142 401.85
L 142 392.2
Q 133.3171875 392.2169921875 125.05 391.7 124.3484375 391.6943359375 123.65 391.65 108.4 390.7 75.35 385.95
M 74.65 358.7
L 74.65 365.4
Q 91.70234375 366.2373046875 111.65 367.3 118.469921875 367.663671875 125.05 368 133.7337890625 368.5021484375 142 368.95
L 142 362.4
Q 133.811328125 361.9875 125.05 361.5 118.0337890625 361.116796875 110.65 360.7 91.408203125 359.612109375 74.65 358.7
M 74.65 351.3
L 74.65 354.6
Q 90.9859375 355.2388671875 110.2 355.95 117.8068359375 356.23984375 125.05 356.5 133.789453125 356.8548828125 142 357.15
L 142 354.15
Q 133.1576171875 353.8083984375 125.05 353.45 94.7107421875 352.2048828125 74.65 351.3
M 74.65 321.5
L 74.65 326.6
Q 99.24765625 326.8640625 125.05 327.9 128.7126953125 328.082421875 132.4 328.25 137.0201171875 328.483203125 142 328.75
L 142 322.65
Q 133.4017578125 322.39375 125.05 322.2 122.589453125 322.149609375 120.15 322.1 97.171484375 321.5337890625 74.65 321.5
M 74.65 333.55
L 74.65 342.3
Q 97.7818359375 342.6357421875 125.05 343.5 127.5822265625 343.6123046875 130.15 343.7 135.7359375 343.8921875 142 344.15
L 142 336.3
Q 133.3732421875 335.89453125 125.05 335.5 98.2720703125 334.2951171875 74.65 333.55
M 74.65 309.65
L 74.65 316.55
Q 86.9275390625 316.9822265625 100.45 317.55 113.2751953125 318.094140625 125.05 318.5 133.8162109375 318.8580078125 142 319.1
L 142 315.95
Q 133.896484375 315.2705078125 125.05 314.45 117.239453125 313.719921875 108.85 312.9 90.500390625 311.10625 74.65 309.65
M 74.65 304.25
Q 77.2845703125 304.5087890625 79.95 304.75 90.29921875 305.6775390625 125.05 309 132.901953125 309.792578125 142 310.65
L 142 304.25
Q 133.1705078125 303.173046875 125.05 302.25 108.0439453125 300.42734375 94.15 299.4 85.06171875 298.5912109375 74.65 298.15
L 74.65 304.25
M 74.65 241.25
L 74.65 242.45
Q 84.07265625 240.896875 86.2 240.55 80.3892578125 240.9220703125 74.65 241.25
M 131.45 281.55
Q 128.1927734375 281.198828125 125.05 280.95 108.511328125 279.7171875 95.15 281.65 85.0353515625 283.1712890625 74.65 285.25
L 74.65 292.55
Q 76.985546875 292.343359375 79.55 292.1 93.65 290.75 105.25 291.4 113.9716796875 291.911328125 125.05 293.6 132.929296875 294.8609375 142 296.7
L 142 282.95
Q 136.1013671875 282.0537109375 131.45 281.55
M 82.4 270.9
Q 96.8 269.65 115.4 271.95 119.0138671875 272.3982421875 125.05 273.4 131.944921875 274.62109375 142 276.55
L 142 272.35
Q 137.3638671875 271.657421875 132.1 270.85 128.529296875 270.2505859375 125.05 269.7 96.8466796875 265.2689453125 74.65 264.3
L 74.65 271.85
Q 78.6685546875 271.2109375 82.4 270.9
M 83.95 279
Q 96.45 276.5 104.55 276.55 91.4 275.65 79.5 277 77.3240234375 277.2451171875 74.65 277.65
L 74.65 281
Q 81.6453125 279.4337890625 83.95 279
M 142 238.55
Q 133.0673828125 239.928515625 125.05 241.15 115.6455078125 242.605859375 107.5 243.85 90.7419921875 246.434765625 74.65 248.8
L 74.65 257.35
Q 79.481640625 257.24921875 83.35 257.35 92 257.6 93.35 258.6 105.96171875 255.3806640625 125.05 251.35 132.96796875 249.7017578125 142 247.9
L 142 238.55
M 125.05 231.9
Q 133.514453125 230.9580078125 142 229.85
L 142 220.4
Q 133.5087890625 221.2720703125 125.05 222 99.7001953125 224.287890625 74.65 225.5
L 74.65 236.45
Q 99.7498046875 234.75703125 125.05 231.9
M 142 215.3
L 142 206.9
Q 133.3009765625 207.69765625 125.05 208.35 97.3158203125 210.7005859375 74.65 211.8
L 74.65 221.5
Q 98.521484375 219.8208984375 125.05 217.1 133.393359375 216.2751953125 142 215.3
M 80.1 197.15
Q 77.383984375 197.3662109375 74.65 197.55
L 74.65 204.65
Q 95.06171875 203.508203125 116.1 201.65 118.458984375 201.448828125 125.05 200.75 131.49921875 200.1390625 142 199.05
L 142 190.4
Q 132.9009765625 191.4572265625 125.05 192.35 90.4666015625 196.30625 80.1 197.15
M 74.65 187.05
L 74.65 192
Q 87.7150390625 191.0560546875 111.6 188.85 118.4025390625 187.89765625 125.05 187.05 133.655078125 185.99375 142 185.1
L 142 180.75
Q 134.8453125 182.4806640625 125.05 183.75 105.246484375 186.3392578125 74.65 187.05
M 142 709.2
L 142 693.9
Q 133.665234375 695.554296875 125.05 697.3 112.0919921875 699.9623046875 98.5 702.85
L 117.5 705.4
Q 121.351171875 705.948828125 125.05 706.5 133.965625 707.84453125 142 709.2
M 98.5 260.8
L 117.5 263.35
Q 121.351171875 263.907421875 125.05 264.45 133.965625 265.8298828125 142 267.2
L 142 251.9
Q 133.66484375 253.541015625 125.05 255.3 112.09140625 257.9224609375 98.5 260.8
M 142 791.65
L 142 790.8
Q 134.23828125 790.9873046875 140.6 791.6 141.3001953125 791.63515625 142 791.65
M 142 349.6
L 142 348.75
Q 134.23828125 348.9373046875 140.6 349.55 141.3 349.5853515625 142 349.6
M 901.25 1059.35
L 702.75 1059.35
Q 780.692578125 1065.3619140625 901.25 1059.35
M 545.2 1063.5
Q 557.723046875 1061.7361328125 560.3 1059.35
L 417.5 1059.35
Q 359.7615234375 1061.4947265625 308.2 1059.35
L 236.3 1059.35
Q 249.535546875 1060.955078125 262.6 1062.2 314.95 1067.2 377.95 1067.85 505.4 1069.15 545.2 1063.5
M 597.65 1059.35
Q 600.1859375 1061.93203125 595.65 1064.2 593.15 1065.5 583 1069.3 575.8 1072.9 583.8 1075 607.4 1081.25 766.85 1077.05 840.65 1075.1 906.9 1070.75 959.320703125 1067.283203125 1050.85 1059.35
L 992.7 1059.35
Q 904.2873046875 1066.2638671875 829.2 1067.85 755.1859375 1069.3078125 664.05 1059.35
L 597.65 1059.35
M 1513.15 985.7
Q 1511.3078125 984.7201171875 1495.7 985.1
L 1495.7 993
Q 1501.5775390625 992.274609375 1506.1 991.25 1518.3 988.45 1513.15 985.7
M 1495.7 818.35
L 1495.7 818.85
Q 1497.1685546875 818.430078125 1498.8 818 1497.240625 818.1779296875 1495.7 818.35
M 1495.7 735.55
L 1495.7 739.2
Q 1509.8373046875 737.9173828125 1503.75 736.6 1501.354296875 736.1001953125 1495.7 735.55
M 1495.7 543.1
L 1495.7 551
Q 1501.5685546875 550.240234375 1506.1 549.2 1518.3 546.4 1513.15 543.7 1511.3078125 542.7201171875 1495.7 543.1
M 1495.7 376.3
L 1495.7 376.8
Q 1497.1685546875 376.3875 1498.8 375.95 1497.240625 376.129296875 1495.7 376.3
M 1503.75 294.6
Q 1501.3541015625 294.1001953125 1495.7 293.55
L 1495.7 297.2
Q 1509.8373046875 295.9173828125 1503.75 294.6
M 155.6 173.65
Q 155.5751953125 173.9017578125 155.5 174.15
L 181.5 174.15
Q 160.7701171875 170.7552734375 146 167.15 155.9 170.2 155.6 173.65
M 535.95 159.2
Q 588.041796875 167.625 596.75 174.15
L 657.75 174.15
Q 642.542578125 172.432421875 626.85 170.4 584.3 164.9 518.95 154.6 441.7 142.25 399.25 135.65 323.75 124.55 318.85 123.9 275.4 118.1 253.25 118.15 250.55 119.8 248.1 122.35 245.65 125.2 244.2 126.6 238.95 131.6 227.6 133.95 271.95 130.25 354 136.7 440.25 143.5 535.95 159.2
M 489.05 165.6
Q 498.25 167.7 495.75 168.85 492.2142578125 170.5 431.45 174.15
L 560.85 174.15
Q 561.1640625 173.4962890625 560.75 172.8 558.7 169.25 538.75 165 467.4 152.15 410.1 145.95 359.75 140.45 302.45 138.3 259.1 135.35 199.5 140 174.3 142 161 144.5 146.85 147.2 152.4 149.5 171.3 157.3 241.55 163.9 305.95 169.95 357.7 170.4 383.1 170.4 395.9 168.2 406.95 166.3 405.65 163.35 404.4 160.6 393.2 158.6 381.2 156.5 364.6 156.6 313 156.95 274.55 155.3 215.2 152.7 228.6 146.15 242.85 139.25 334.6 145.95 371.4 148.65 407.5 152.75 443.05 156.75 461.35 160.25 486.6 165.1 489.05 165.6
M 1361.45 170.1
Q 1350 168.6 1358.45 170.35 1365.8603515625 171.884765625 1382.2 174.15
L 1399.6 174.15
Q 1380.232421875 172.2591796875 1361.45 170.1
M 1335.5 171.25
Q 1305.5 165.45 1313.3 161.65 1300.5 165.7 1270.25 169.9 1246.38984375 173.1763671875 1227.35 174.15
L 1351.85 174.15
Q 1342.825 172.6916015625 1335.5 171.25
M 708.7 1092.9
Q 738.65 1092.8 775.5 1091.4
L 642.55 1091.4
Q 674.65 1092.95 708.7 1092.9
M 1138.85 1073.65
Q 1132.6 1074 1040.25 1079.65 939.7 1085.8 855.5 1090.45
L 841.55 1091.3 926.15 1091.3
Q 1023.05 1085.15 1138.85 1073.65
M 1110.5 1092.35
Q 1109.55 1092.6 1114.4 1092.7 1120.75 1092.85 1151.05 1093.45 1227.1 1095.85 1270.25 1107 1283.55 1110 1283.15 1108.9 1283 1108.5 1275.4 1104.25 1267.75 1100 1266.9 1097.75 1265.65 1094.4 1277.7 1094.05 1297.45 1093.55 1300.9 1093.1 1305 1092.6 1295.15 1091.4
L 1119.5 1091.4
Q 1111.45 1092.1 1110.5 1092.35
M 578.2 1091.4
L 578 1091.4
Q 602.6 1098.15 625.55 1099.6 643.7 1100.7 706.15 1100.25 820.85 1098.05 925.7 1091.4
L 841.05 1091.4
Q 751.6 1096.6 688.95 1096.5 628.9 1096.4 578.2 1091.4
M 565.05 1093.05
L 558.6 1091.4 499.65 1091.4
Q 508.4 1093 508.7 1095.1 509 1097.4 499.2 1100.45 558.15 1101.95 604.15 1105.05 639.45 1107.45 676.9 1111.6 751 1109.15 858.25 1103.9 924.9 1100.6 982.4 1097.05 1020.15 1094.7 1066.45 1091.4
L 976.6 1091.4
Q 958.85 1092.65 952.1 1093.05 886.3 1097.1 815.15 1099.6 747.85 1101.95 665.25 1103.2 619.45 1103.95 594 1100 585.15 1098.65 576.95 1096.45 568.8 1094.05 565.05 1093.05
M 482.55 1097.5
Q 481.95 1096.6 476.65 1095.35 466.1 1092.9 442.75 1091.4
L 362.9 1091.4
Q 387.9 1093.8 429.85 1093.8 463.65 1093.85 482.55 1097.5
M 334.15 1082
L 330.75 1080.8
Q 292.6 1075.55 212.65 1084.15 168.75 1088.9 142.2 1091.3
L 218.2 1091.3
Q 257.2 1087.5 286.15 1087 320.4 1086.4 351.2 1090.05
L 362.8 1091.3 442.6 1091.3
Q 424.9 1090.15 401.5 1089.65 367.4 1088.95 345.65 1084.8 338.9 1083.5 334.15 1082
M 1436.6 1091.3
Q 1386.8 1083 1363 1080.2 1320.6 1075.1 1270.95 1073.85 1207.35 1073.05 1117.95 1079.7 1019.75 1088.1 976.7 1091.3
L 1064.45 1091.3
Q 1140.85 1085.8 1158.8 1084.75 1202.8 1082.25 1243.8 1082.2 1283.55 1082.7 1344.8 1091.3
L 1436.6 1091.3 Z"/>
</g>
</defs>

<g transform="matrix( 1, 0, 0, 1, 249.65,171.95) ">
<g transform="matrix( 1, 0, 0, 1, -0.05,0) ">
<g filter="url(#Filter_1)" transform="matrix( 1, 0, 0, 1, -249.6,-171.95) ">
<g transform="matrix( 0.57879638671875, 0, 0, 0.57879638671875, 249.35,171.9) ">
<g transform="matrix( 0.6125030517578125, 0, 0, 0.6329803466796875, 1.75,0.2) ">
<use xlink:href="#Duplicate_Items_Folder_Symbol_14_copy_0_Layer1_0_FILL"/>
</g>
</g>
</g>
</g>

<g transform="matrix( 1, 0, 0, 1, -0.05,0) ">
<g transform="matrix( 0.321563720703125, 0, 0, 0.321563720703125, 0.05,0) ">
<mask id="Mask_Mask_1">
<g transform="matrix( 1.10247802734375, 0, 0, 1.13934326171875, 2.25,0.2) ">
<use xlink:href="#Mask_Duplicate_Items_Folder_Symbol_15_copy_1_2_MASK_0_FILL"/>
</g>
</mask>

<g mask="url(#Mask_Mask_1)">
<g transform="matrix( 1, 0, 0, 1, 0,0) ">
<use xlink:href="#Duplicate_Items_Folder_Symbol_15_copy_1_Layer2_0_FILL"/>
</g>

<g transform="matrix( 1, 0, 0, 1, -992,-747.8) ">
<use xlink:href="#Duplicate_Items_Folder_Symbol_15_copy_1_Layer2_1_FILL"/>
</g>

<g transform="matrix( 1, 0, 0, 1, -679.35,-443.15) ">
<g transform="matrix( 1, 0, 0, 1, 0,0) ">
<use filter="url(#Filter_2)" xlink:href="#flash0_ai_0_Layer_1_Blend_0_Layer0_0_FILL"/>
</g>
</g>

<g transform="matrix( 1, 0, 0, 1, -804.75,-444.8) ">
<g transform="matrix( 1, 0, 0, 1, 0,0) ">
<use filter="url(#Filter_3)" xlink:href="#flash0_ai_0_Layer_1__Group__1_0_Layer0_0_FILL"/>
</g>
</g>
</g>

<g mask="url(#Mask_Mask_1)">
<g transform="matrix( 1, 0, 0, 1, -821.4,-617.4) ">
<mask id="Mask_Mask_2">
<g transform="matrix( 1, 0, 0, 1, 0,0) ">
<use xlink:href="#Mask_flash0_ai_0_Layer_1__Clip_Group__0_1_MASK_0_FILL"/>
</g>
</mask>

<g mask="url(#Mask_Mask_2)">
<g transform="matrix( 1, 0, 0, 1, 0,0) ">
<use filter="url(#Filter_4)" xlink:href="#flash0_ai_0_Layer_1__Clip_Group__0_Layer1_0_FILL"/>
</g>
</g>
</g>
</g>
</g>
</g>
</g>
</svg>
