
<svg xmlns="http://www.w3.org/2000/svg" version="1.1" xmlns:xlink="http://www.w3.org/1999/xlink" preserveAspectRatio="none" x="0px" y="0px" width="505px" height="350px" viewBox="0 0 505 350">
<defs>
<g id="Duplicate_Items_Folder_Symbol_13_copy_7_Layer2_0_FILL">
<path fill="#666666" stroke="none" d="
M 64.6 -72.9
Q 64.9 -67.45 65.5 -62.35 65.95 -57.2 65.95 -50.9 65.95 -37.7 64.2 -33.45 62.3 -29.1 57.9 -28.5
L 17.3 -18.55
Q 5.3 -15 -0.25 -8.85 -5.85 -2.7 -5.85 9.6 -5.85 32.15 13.5 50.9 32.85 69.65 57.75 69.65 73.1 69.65 88.05 64.65 103 59.7 113.55 53.7
L 104.6 35.5
Q 85.15 44.75 71.35 48.85 57.75 52.8 44.55 52.8 31.95 52.8 22.45 43.6 12.75 34.2 12.75 21.3 12.75 1.85 32.25 -2.15 59.95 -7.25 74.6 -11.35 81.45 -13.55 83.8 -17.5 86 -21.6 86 -33.9 85.7 -42.85 85.3 -52.65 85 -62.35 85 -72.9
L 199.7 -72.9 199.1 -17.05
Q 195.15 -22.8 190.9 -28.05 186.5 -33.35 181.4 -37.55 176.25 -41.7 169.25 -43.3 162.2 -44.75 154 -44.75 132.75 -44.75 121.9 -30.7 114.75 -21.3 114.75 -11.2 114.75 8.55 129.25 22.9 143.6 37.15 163.1 37.15 173.2 37.15 182.15 32.9 185.95 31.15 199.7 22.5
L 200.6 72.6 220.05 84.3 220.05 9
Q 230.3 0.35 240.6 -5.35 251 -11.05 256.7 -11.05 264.15 -11.05 268.85 -6.65 273.55 -2.4 273.55 5.5 273.55 15 267.95 27.6 262.4 40.2 253.6 52.2
L 270.75 67.75
Q 288.75 40.2 288.75 22.2 288.75 -3 274.7 -18.25 263.55 -30.25 251.55 -30.25 243.8 -30.25 236.05 -26 230.05 -22.8 220.05 -15
L 220.05 -72.9 313.65 -72.9 303.15 -91.75 -311.85 -91.75 -301.9 -72.9 -270.1 -72.9 -270.1 -18.8
Q -270.1 -4.2 -251.5 11.2 -234.35 25.25 -222.35 25.25 -215.15 25.25 -210.65 23.95 -206.1 22.5 -198.05 18.25
L -198.05 72.6 -177.1 84.3 -177.1 6.95
Q -166.55 -1.85 -152.6 -8.85 -138.7 -15.9 -132.1 -15.9 -124.95 -15.9 -120.25 -11.5 -115.55 -7.25 -115.55 0.65 -115.55 9.9 -121.15 22.65 -126.7 35.35 -135.05 47.4
L -118.05 63.05
Q -100.35 35.1 -100.35 17.8 -100.35 -7.85 -114.4 -23.05 -125.5 -35.1 -137.55 -35.1 -145.3 -35.1 -156.6 -29.8 -167.85 -24.55 -177.1 -17.05
L -177.1 -72.9 -61.6 -72.9 -61.6 72.6 -41.55 84.3 -41.55 -72.9 64.6 -72.9
M 138.5 -19.25
Q 147.1 -26.15 157.95 -26.15 172.3 -26.15 181.25 -20.9 190.05 -15.6 199.7 -2.15 186.25 8.25 173.8 14.3 161.2 20.3 151.95 20.3 142.6 20.3 136.3 14.85 130 9.45 130 0.2 130 -12.4 138.5 -19.25
M -250.05 -18.25
L -250.05 -72.9 -197.15 -72.9 -197.15 -6.25
Q -203.45 -1.4 -214 3 -224.55 7.55 -232 7.55 -240.65 7.55 -245.35 1.4 -250.05 -4.75 -250.05 -18.25 Z"/>
</g>

<g id="Duplicate_Items_Folder_Symbol_13_copy_7_Layer1_0_FILL">
<path fill="#FFFFFF" stroke="none" d="
M 64.6 -72.9
Q 64.9 -67.45 65.5 -62.35 65.95 -57.2 65.95 -50.9 65.95 -37.7 64.2 -33.45 62.3 -29.1 57.9 -28.5
L 17.3 -18.55
Q 5.3 -15 -0.25 -8.85 -5.85 -2.7 -5.85 9.6 -5.85 32.15 13.5 50.9 32.85 69.65 57.75 69.65 73.1 69.65 88.05 64.65 103 59.7 113.55 53.7
L 104.6 35.5
Q 85.15 44.75 71.35 48.85 57.75 52.8 44.55 52.8 31.95 52.8 22.45 43.6 12.75 34.2 12.75 21.3 12.75 1.85 32.25 -2.15 59.95 -7.25 74.6 -11.35 81.45 -13.55 83.8 -17.5 86 -21.6 86 -33.9 85.7 -42.85 85.3 -52.65 85 -62.35 85 -72.9
L 199.7 -72.9 199.1 -17.05
Q 195.15 -22.8 190.9 -28.05 186.5 -33.35 181.4 -37.55 176.25 -41.7 169.25 -43.3 162.2 -44.75 154 -44.75 132.75 -44.75 121.9 -30.7 114.75 -21.3 114.75 -11.2 114.75 8.55 129.25 22.9 143.6 37.15 163.1 37.15 173.2 37.15 182.15 32.9 185.95 31.15 199.7 22.5
L 200.6 72.6 220.05 84.3 220.05 9
Q 230.3 0.35 240.6 -5.35 251 -11.05 256.7 -11.05 264.15 -11.05 268.85 -6.65 273.55 -2.4 273.55 5.5 273.55 15 267.95 27.6 262.4 40.2 253.6 52.2
L 270.75 67.75
Q 288.75 40.2 288.75 22.2 288.75 -3 274.7 -18.25 263.55 -30.25 251.55 -30.25 243.8 -30.25 236.05 -26 230.05 -22.8 220.05 -15
L 220.05 -72.9 313.65 -72.9 303.15 -91.75 -311.85 -91.75 -301.9 -72.9 -270.1 -72.9 -270.1 -18.8
Q -270.1 -4.2 -251.5 11.2 -234.35 25.25 -222.35 25.25 -215.15 25.25 -210.65 23.95 -206.1 22.5 -198.05 18.25
L -198.05 72.6 -177.1 84.3 -177.1 6.95
Q -166.55 -1.85 -152.6 -8.85 -138.7 -15.9 -132.1 -15.9 -124.95 -15.9 -120.25 -11.5 -115.55 -7.25 -115.55 0.65 -115.55 9.9 -121.15 22.65 -126.7 35.35 -135.05 47.4
L -118.05 63.05
Q -100.35 35.1 -100.35 17.8 -100.35 -7.85 -114.4 -23.05 -125.5 -35.1 -137.55 -35.1 -145.3 -35.1 -156.6 -29.8 -167.85 -24.55 -177.1 -17.05
L -177.1 -72.9 -61.6 -72.9 -61.6 72.6 -41.55 84.3 -41.55 -72.9 64.6 -72.9
M 138.5 -19.25
Q 147.1 -26.15 157.95 -26.15 172.3 -26.15 181.25 -20.9 190.05 -15.6 199.7 -2.15 186.25 8.25 173.8 14.3 161.2 20.3 151.95 20.3 142.6 20.3 136.3 14.85 130 9.45 130 0.2 130 -12.4 138.5 -19.25
M -250.05 -18.25
L -250.05 -72.9 -197.15 -72.9 -197.15 -6.25
Q -203.45 -1.4 -214 3 -224.55 7.55 -232 7.55 -240.65 7.55 -245.35 1.4 -250.05 -4.75 -250.05 -18.25 Z"/>
</g>
</defs>

<g transform="matrix( 1, 0, 0, 1, 252.5,171.95) ">
<g transform="matrix( 0.5904541015625, 0, 0, 0.5904541015625, -2.7,2.15) ">
<g transform="matrix( 1, 0, 0, 1, 7.35,0) ">
<use xlink:href="#Duplicate_Items_Folder_Symbol_13_copy_7_Layer2_0_FILL"/>
</g>

<g transform="matrix( 1, 0, 0, 1, 0,0) ">
<use xlink:href="#Duplicate_Items_Folder_Symbol_13_copy_7_Layer1_0_FILL"/>
</g>
</g>
</g>
</svg>
