
<svg xmlns="http://www.w3.org/2000/svg" version="1.1" xmlns:xlink="http://www.w3.org/1999/xlink" preserveAspectRatio="none" x="0px" y="0px" width="505px" height="350px" viewBox="0 0 505 350">
<defs>
<g id="Duplicate_Items_Folder_Symbol_13_copy_6_Layer2_0_FILL">
<path fill="#666666" stroke="none" d="
M 4.85 -52.65
Q 4.55 -62.35 4.55 -72.9
L 57.15 -72.9 57.15 -18.8
Q 57.15 -4.2 75.75 11.2 92.9 25.25 104.9 25.25 112.1 25.25 116.6 23.95 121.15 22.5 129.2 18.25
L 129.2 72.6 150.15 84.3 150.15 6.95
Q 160.7 -1.85 174.65 -8.85 188.55 -15.9 195.15 -15.9 202.3 -15.9 207 -11.5 211.7 -7.25 211.7 0.65 211.7 9.9 206.1 22.65 200.55 35.35 192.2 47.4
L 209.2 63.05
Q 226.9 35.1 226.9 17.8 226.9 -7.85 212.85 -23.05 201.75 -35.1 189.7 -35.1 181.95 -35.1 170.65 -29.8 159.4 -24.55 150.15 -17.05
L 150.15 -72.9 265.65 -72.9 265.65 72.6 285.7 84.3 285.7 -72.9 311.2 -72.9 301.2 -91.75 -323 -91.75 -312.45 -72.9 -208 -72.9 -208.6 -17.05
Q -212.55 -22.8 -216.8 -28.05 -221.2 -33.35 -226.3 -37.55 -231.45 -41.7 -238.45 -43.3 -245.5 -44.75 -253.7 -44.75 -274.95 -44.75 -285.8 -30.7 -292.95 -21.3 -292.95 -11.2 -292.95 8.55 -278.45 22.9 -264.1 37.15 -244.6 37.15 -234.5 37.15 -225.55 32.9 -221.75 31.15 -208 22.5
L -207.1 72.6 -187.65 84.3 -187.65 9
Q -177.4 0.35 -167.1 -5.35 -156.7 -11.05 -151 -11.05 -143.55 -11.05 -138.85 -6.65 -134.15 -2.4 -134.15 5.5 -134.15 15 -139.75 27.6 -145.3 40.2 -154.1 52.2
L -136.95 67.75
Q -118.95 40.2 -118.95 22.2 -118.95 -3 -133 -18.25 -144.15 -30.25 -156.15 -30.25 -163.9 -30.25 -171.65 -26 -177.65 -22.8 -187.65 -15
L -187.65 -72.9 -15.85 -72.9
Q -15.55 -67.45 -14.95 -62.35 -14.5 -57.2 -14.5 -50.9 -14.5 -37.7 -16.25 -33.45 -18.15 -29.1 -22.55 -28.5
L -63.15 -18.55
Q -75.15 -15 -80.7 -8.85 -86.3 -2.7 -86.3 9.6 -86.3 32.15 -66.95 50.9 -47.6 69.65 -22.7 69.65 -7.35 69.65 7.6 64.65 22.55 59.7 33.1 53.7
L 24.15 35.5
Q 4.7 44.75 -9.1 48.85 -22.7 52.8 -35.9 52.8 -48.5 52.8 -58 43.6 -67.7 34.2 -67.7 21.3 -67.7 1.85 -48.2 -2.15 -20.5 -7.25 -5.85 -11.35 1 -13.55 3.35 -17.5 5.55 -21.6 5.55 -33.9 5.25 -42.85 4.85 -52.65
M 77.2 -18.25
L 77.2 -72.9 130.1 -72.9 130.1 -6.25
Q 123.8 -1.4 113.25 3 102.7 7.55 95.25 7.55 86.6 7.55 81.9 1.4 77.2 -4.75 77.2 -18.25
M -269.2 -19.25
Q -260.6 -26.15 -249.75 -26.15 -235.4 -26.15 -226.45 -20.9 -217.65 -15.6 -208 -2.15 -221.45 8.25 -233.9 14.3 -246.5 20.3 -255.75 20.3 -265.1 20.3 -271.4 14.85 -277.7 9.45 -277.7 0.2 -277.7 -12.4 -269.2 -19.25 Z"/>
</g>

<g id="Duplicate_Items_Folder_Symbol_13_copy_6_Layer1_0_FILL">
<path fill="#FFFFFF" stroke="none" d="
M 4.85 -52.65
Q 4.55 -62.35 4.55 -72.9
L 57.15 -72.9 57.15 -18.8
Q 57.15 -4.2 75.75 11.2 92.9 25.25 104.9 25.25 112.1 25.25 116.6 23.95 121.15 22.5 129.2 18.25
L 129.2 72.6 150.15 84.3 150.15 6.95
Q 160.7 -1.85 174.65 -8.85 188.55 -15.9 195.15 -15.9 202.3 -15.9 207 -11.5 211.7 -7.25 211.7 0.65 211.7 9.9 206.1 22.65 200.55 35.35 192.2 47.4
L 209.2 63.05
Q 226.9 35.1 226.9 17.8 226.9 -7.85 212.85 -23.05 201.75 -35.1 189.7 -35.1 181.95 -35.1 170.65 -29.8 159.4 -24.55 150.15 -17.05
L 150.15 -72.9 265.65 -72.9 265.65 72.6 285.7 84.3 285.7 -72.9 311.2 -72.9 301.2 -91.75 -323 -91.75 -312.45 -72.9 -208 -72.9 -208.6 -17.05
Q -212.55 -22.8 -216.8 -28.05 -221.2 -33.35 -226.3 -37.55 -231.45 -41.7 -238.45 -43.3 -245.5 -44.75 -253.7 -44.75 -274.95 -44.75 -285.8 -30.7 -292.95 -21.3 -292.95 -11.2 -292.95 8.55 -278.45 22.9 -264.1 37.15 -244.6 37.15 -234.5 37.15 -225.55 32.9 -221.75 31.15 -208 22.5
L -207.1 72.6 -187.65 84.3 -187.65 9
Q -177.4 0.35 -167.1 -5.35 -156.7 -11.05 -151 -11.05 -143.55 -11.05 -138.85 -6.65 -134.15 -2.4 -134.15 5.5 -134.15 15 -139.75 27.6 -145.3 40.2 -154.1 52.2
L -136.95 67.75
Q -118.95 40.2 -118.95 22.2 -118.95 -3 -133 -18.25 -144.15 -30.25 -156.15 -30.25 -163.9 -30.25 -171.65 -26 -177.65 -22.8 -187.65 -15
L -187.65 -72.9 -15.85 -72.9
Q -15.55 -67.45 -14.95 -62.35 -14.5 -57.2 -14.5 -50.9 -14.5 -37.7 -16.25 -33.45 -18.15 -29.1 -22.55 -28.5
L -63.15 -18.55
Q -75.15 -15 -80.7 -8.85 -86.3 -2.7 -86.3 9.6 -86.3 32.15 -66.95 50.9 -47.6 69.65 -22.7 69.65 -7.35 69.65 7.6 64.65 22.55 59.7 33.1 53.7
L 24.15 35.5
Q 4.7 44.75 -9.1 48.85 -22.7 52.8 -35.9 52.8 -48.5 52.8 -58 43.6 -67.7 34.2 -67.7 21.3 -67.7 1.85 -48.2 -2.15 -20.5 -7.25 -5.85 -11.35 1 -13.55 3.35 -17.5 5.55 -21.6 5.55 -33.9 5.25 -42.85 4.85 -52.65
M 77.2 -18.25
L 77.2 -72.9 130.1 -72.9 130.1 -6.25
Q 123.8 -1.4 113.25 3 102.7 7.55 95.25 7.55 86.6 7.55 81.9 1.4 77.2 -4.75 77.2 -18.25
M -269.2 -19.25
Q -260.6 -26.15 -249.75 -26.15 -235.4 -26.15 -226.45 -20.9 -217.65 -15.6 -208 -2.15 -221.45 8.25 -233.9 14.3 -246.5 20.3 -255.75 20.3 -265.1 20.3 -271.4 14.85 -277.7 9.45 -277.7 0.2 -277.7 -12.4 -269.2 -19.25 Z"/>
</g>
</defs>

<g transform="matrix( 1, 0, 0, 1, 252.5,171.95) ">
<g transform="matrix( 0.5904541015625, 0, 0, 0.5904541015625, 1.3,2.15) ">
<g transform="matrix( 1, 0, 0, 1, 7.35,0) ">
<use xlink:href="#Duplicate_Items_Folder_Symbol_13_copy_6_Layer2_0_FILL"/>
</g>

<g transform="matrix( 1, 0, 0, 1, 0,0) ">
<use xlink:href="#Duplicate_Items_Folder_Symbol_13_copy_6_Layer1_0_FILL"/>
</g>
</g>
</g>
</svg>
