
<svg xmlns="http://www.w3.org/2000/svg" version="1.1" xmlns:xlink="http://www.w3.org/1999/xlink" preserveAspectRatio="none" x="0px" y="0px" width="505px" height="350px" viewBox="0 0 505 350">
<defs>
<g id="Duplicate_Items_Folder_Symbol_13_copy_8_Layer2_0_FILL">
<path fill="#666666" stroke="none" d="
M 63.05 -72.9
L 63.05 -18.8
Q 63.05 -4.2 81.65 11.2 98.8 25.25 110.8 25.25 118 25.25 122.5 23.95 127.05 22.5 135.1 18.25
L 135.1 72.6 156.05 84.3 156.05 6.95
Q 166.6 -1.85 180.55 -8.85 194.45 -15.9 201.05 -15.9 208.2 -15.9 212.9 -11.5 217.6 -7.25 217.6 0.65 217.6 9.9 212 22.65 206.45 35.35 198.1 47.4
L 215.1 63.05
Q 232.8 35.1 232.8 17.8 232.8 -7.85 218.75 -23.05 207.65 -35.1 195.6 -35.1 187.85 -35.1 176.55 -29.8 165.3 -24.55 156.05 -17.05
L 156.05 -72.9 271.55 -72.9 271.55 72.6 291.6 84.3 291.6 -72.9 317.1 -72.9 307.1 -91.75 -305.95 -91.75 -296 -72.9 -204.9 -72.9
Q -204.6 -67.45 -204 -62.35 -203.55 -57.2 -203.55 -50.9 -203.55 -37.7 -205.3 -33.45 -207.2 -29.1 -211.6 -28.5
L -252.2 -18.55
Q -264.2 -15 -269.75 -8.85 -275.35 -2.7 -275.35 9.6 -275.35 32.15 -256 50.9 -236.65 69.65 -211.75 69.65 -196.4 69.65 -181.45 64.65 -166.5 59.7 -155.95 53.7
L -164.9 35.5
Q -184.35 44.75 -198.15 48.85 -211.75 52.8 -224.95 52.8 -237.55 52.8 -247.05 43.6 -256.75 34.2 -256.75 21.3 -256.75 1.85 -237.25 -2.15 -209.55 -7.25 -194.9 -11.35 -188.05 -13.55 -185.7 -17.5 -183.5 -21.6 -183.5 -33.9 -183.8 -42.85 -184.2 -52.65 -184.5 -62.35 -184.5 -72.9
L -69.8 -72.9 -70.4 -17.05
Q -74.35 -22.8 -78.6 -28.05 -83 -33.35 -88.1 -37.55 -93.25 -41.7 -100.25 -43.3 -107.3 -44.75 -115.5 -44.75 -136.75 -44.75 -147.6 -30.7 -154.75 -21.3 -154.75 -11.2 -154.75 8.55 -140.25 22.9 -125.9 37.15 -106.4 37.15 -96.3 37.15 -87.35 32.9 -83.55 31.15 -69.8 22.5
L -68.9 72.6 -49.45 84.3 -49.45 9
Q -39.2 0.35 -28.9 -5.35 -18.5 -11.05 -12.8 -11.05 -5.35 -11.05 -0.65 -6.65 4.05 -2.4 4.05 5.5 4.05 15 -1.55 27.6 -7.1 40.2 -15.9 52.2
L 1.25 67.75
Q 19.25 40.2 19.25 22.2 19.25 -3 5.2 -18.25 -5.95 -30.25 -17.95 -30.25 -25.7 -30.25 -33.45 -26 -39.45 -22.8 -49.45 -15
L -49.45 -72.9 63.05 -72.9
M 83.1 -18.25
L 83.1 -72.9 136 -72.9 136 -6.25
Q 129.7 -1.4 119.15 3 108.6 7.55 101.15 7.55 92.5 7.55 87.8 1.4 83.1 -4.75 83.1 -18.25
M -111.55 -26.15
Q -97.2 -26.15 -88.25 -20.9 -79.45 -15.6 -69.8 -2.15 -83.25 8.25 -95.7 14.3 -108.3 20.3 -117.55 20.3 -126.9 20.3 -133.2 14.85 -139.5 9.45 -139.5 0.2 -139.5 -12.4 -131 -19.25 -122.4 -26.15 -111.55 -26.15 Z"/>
</g>

<g id="Duplicate_Items_Folder_Symbol_13_copy_8_Layer1_0_FILL">
<path fill="#FFFFFF" stroke="none" d="
M 57.15 -72.9
L 57.15 -18.8
Q 57.15 -4.2 75.75 11.2 92.9 25.25 104.9 25.25 112.1 25.25 116.6 23.95 121.15 22.5 129.2 18.25
L 129.2 72.6 150.15 84.3 150.15 6.95
Q 160.7 -1.85 174.65 -8.85 188.55 -15.9 195.15 -15.9 202.3 -15.9 207 -11.5 211.7 -7.25 211.7 0.65 211.7 9.9 206.1 22.65 200.55 35.35 192.2 47.4
L 209.2 63.05
Q 226.9 35.1 226.9 17.8 226.9 -7.85 212.85 -23.05 201.75 -35.1 189.7 -35.1 181.95 -35.1 170.65 -29.8 159.4 -24.55 150.15 -17.05
L 150.15 -72.9 265.65 -72.9 265.65 72.6 285.7 84.3 285.7 -72.9 311.2 -72.9 301.2 -91.75 -311.85 -91.75 -301.9 -72.9 -210.8 -72.9
Q -210.5 -67.45 -209.9 -62.35 -209.45 -57.2 -209.45 -50.9 -209.45 -37.7 -211.2 -33.45 -213.1 -29.1 -217.5 -28.5
L -258.1 -18.55
Q -270.1 -15 -275.65 -8.85 -281.25 -2.7 -281.25 9.6 -281.25 32.15 -261.9 50.9 -242.55 69.65 -217.65 69.65 -202.3 69.65 -187.35 64.65 -172.4 59.7 -161.85 53.7
L -170.8 35.5
Q -190.25 44.75 -204.05 48.85 -217.65 52.8 -230.85 52.8 -243.45 52.8 -252.95 43.6 -262.65 34.2 -262.65 21.3 -262.65 1.85 -243.15 -2.15 -215.45 -7.25 -200.8 -11.35 -193.95 -13.55 -191.6 -17.5 -189.4 -21.6 -189.4 -33.9 -189.7 -42.85 -190.1 -52.65 -190.4 -62.35 -190.4 -72.9
L -75.7 -72.9 -76.3 -17.05
Q -80.25 -22.8 -84.5 -28.05 -88.9 -33.35 -94 -37.55 -99.15 -41.7 -106.15 -43.3 -113.2 -44.75 -121.4 -44.75 -142.65 -44.75 -153.5 -30.7 -160.65 -21.3 -160.65 -11.2 -160.65 8.55 -146.15 22.9 -131.8 37.15 -112.3 37.15 -102.2 37.15 -93.25 32.9 -89.45 31.15 -75.7 22.5
L -74.8 72.6 -55.35 84.3 -55.35 9
Q -45.1 0.35 -34.8 -5.35 -24.4 -11.05 -18.7 -11.05 -11.25 -11.05 -6.55 -6.65 -1.85 -2.4 -1.85 5.5 -1.85 15 -7.45 27.6 -13 40.2 -21.8 52.2
L -4.65 67.75
Q 13.35 40.2 13.35 22.2 13.35 -3 -0.7 -18.25 -11.85 -30.25 -23.85 -30.25 -31.6 -30.25 -39.35 -26 -45.35 -22.8 -55.35 -15
L -55.35 -72.9 57.15 -72.9
M 77.2 -18.25
L 77.2 -72.9 130.1 -72.9 130.1 -6.25
Q 123.8 -1.4 113.25 3 102.7 7.55 95.25 7.55 86.6 7.55 81.9 1.4 77.2 -4.75 77.2 -18.25
M -117.45 -26.15
Q -103.1 -26.15 -94.15 -20.9 -85.35 -15.6 -75.7 -2.15 -89.15 8.25 -101.6 14.3 -114.2 20.3 -123.45 20.3 -132.8 20.3 -139.1 14.85 -145.4 9.45 -145.4 0.2 -145.4 -12.4 -136.9 -19.25 -128.3 -26.15 -117.45 -26.15 Z"/>
</g>
</defs>

<g transform="matrix( 1, 0, 0, 1, 253.25,171.95) ">
<g transform="matrix( 0.5904541015625, 0, 0, 0.5904541015625, -2.7,2.15) ">
<g transform="matrix( 1, 0, 0, 1, 1.45,0) ">
<use xlink:href="#Duplicate_Items_Folder_Symbol_13_copy_8_Layer2_0_FILL"/>
</g>

<g transform="matrix( 1, 0, 0, 1, 0,0) ">
<use xlink:href="#Duplicate_Items_Folder_Symbol_13_copy_8_Layer1_0_FILL"/>
</g>
</g>
</g>
</svg>
