
<svg xmlns="http://www.w3.org/2000/svg" version="1.1" xmlns:xlink="http://www.w3.org/1999/xlink" preserveAspectRatio="none" x="0px" y="0px" width="1510px" height="90px" viewBox="0 0 1510 90">
<defs>
<linearGradient id="Gradient_1" gradientUnits="userSpaceOnUse" x1="-62.05" y1="-28.275000000000006" x2="-62.05" y2="37.575" spreadMethod="pad">
<stop  offset="0%" stop-color="#3B6FA2"/>

<stop  offset="100%" stop-color="#163054"/>
</linearGradient>

<filter id="Filter_1" x="-20%" y="-27.14443813291037%" width="140%" height="154.28887626582073%" color-interpolation-filters="sRGB">
<feFlood flood-color="#000000" flood-opacity="1" in="SourceGraphic" result="result1"/>

<feComposite in2="SourceGraphic" in="result1" operator="in" result="result2"/>

<feGaussianBlur in="result2" stdDeviation="3.3333333333333335,3.3333333333333335" result="result3"/>

<feOffset dx="3.5355339059327378" dy="3.5355339059327378" in="result3" result="result4"/>

<feComposite in2="result4" in="SourceGraphic" operator="over" result="result5"/>

<feColorMatrix in="result5" type="matrix" values="1 0 0 0 0 0 1 0 0 0 0 0 1 0 0 0 0 0 1 0 " result="result6"/>
</filter>

<g id="Instruction_bar_copy_0_Layer0_0_FILL">
<path fill="url(#Gradient_1)" stroke="none" d="
M 713.45 -20.45
Q 713.45 -37.55 696.35 -37.55
L -696.4 -37.55
Q -713.5 -37.55 -713.5 -20.45
L -713.5 20.5
Q -713.5 37.6 -696.4 37.6
L 696.35 37.6
Q 713.45 37.6 713.45 20.5
L 713.45 -20.45 Z"/>
</g>

<path id="Symbol_6_copy_2_Layer1_1_1_STROKES" stroke="#FFFFFF" stroke-width="2" stroke-linejoin="round" stroke-linecap="round" fill="none" d="
M 731.15 -39.45
L -731.2 -39.45
Q -749.15 -39.45 -749.15 -21.45
L -749.15 21.5
Q -749.15 39.5 -731.2 39.5
L 731.15 39.5
Q 749.1 39.5 749.1 21.5
L 749.1 -21.45
Q 749.1 -39.45 731.15 -39.45 Z"/>
</defs>

<g transform="matrix( 1, 0, 0, 1, 751.3,41.75) ">
<g filter="url(#Filter_1)" transform="matrix( 1, 0, 0, 1, -751.3,-41.75) ">
<g transform="matrix( 1.04998779296875, 0, 0, 1.04998779296875, 751.3,41.75) ">
<g transform="matrix( 1, 0, 0, 1, 0,0) ">
<use xlink:href="#Instruction_bar_copy_0_Layer0_0_FILL"/>
</g>
</g>
</g>

<g transform="matrix( 1, 0, 0, 1, 0,0) ">
<use xlink:href="#Symbol_6_copy_2_Layer1_1_1_STROKES"/>
</g>
</g>
</svg>
