
<svg xmlns="http://www.w3.org/2000/svg" version="1.1" xmlns:xlink="http://www.w3.org/1999/xlink" preserveAspectRatio="none" x="0px" y="0px" width="362px" height="280px" viewBox="0 0 362 280">
<defs>
<radialGradient id="Gradient_1" gradientUnits="userSpaceOnUse" cx="0" cy="0" r="482.375" fx="0" fy="0" gradientTransform="matrix( 1, 0, 0, 0.5607411246436901, -11.75,-10.65) " spreadMethod="pad">
<stop  offset="0%" stop-color="#FFF1C6"/>

<stop  offset="100%" stop-color="#FFE89C"/>
</radialGradient>

<filter id="Filter_1" x="-20%" y="-20%" width="140%" height="140%" color-interpolation-filters="sRGB">
<feFlood flood-color="#000000" flood-opacity="1" in="SourceGraphic" result="result1"/>

<feComposite in2="SourceGraphic" in="result1" operator="in" result="result2"/>

<feGaussianBlur in="result2" stdDeviation="3.3333333333333335,3.3333333333333335" result="result3"/>

<feOffset dx="3.5355339059327378" dy="3.5355339059327378" in="result3" result="result4"/>

<feComposite in2="result4" in="SourceGraphic" operator="over" result="result5"/>
</filter>

<g id="Duplicate_Items_Folder_Symbol_1_copy_5_0_Layer0_0_FILL">
<path fill="url(#Gradient_1)" stroke="none" d="
M 323.9 -105.05
Q 323.9 -121.6 312.2 -133.3 300.5 -145 283.95 -145
L -283.9 -145
Q -300.45 -145 -312.15 -133.3 -323.85 -121.6 -323.85 -105.05
L -323.85 105.1
Q -323.85 121.65 -312.15 133.35 -300.45 145.05 -283.9 145.05
L 283.95 145.05
Q 300.5 145.05 312.2 133.35 323.9 121.65 323.9 105.1
L 323.9 -105.05 Z"/>
</g>

<g id="Duplicate_Items_Folder_Symbol_1_copy_5_0_Layer0_1_FILL">
<path fill="#C4FFE9" stroke="none" d="
M 312.2 -208.55
Q 300.5 -220.25 283.95 -220.25
L -283.9 -220.25
Q -300.45 -220.25 -312.15 -208.55 -323.85 -196.85 -323.85 -180.3
L -323.85 236.25
Q -323.85 252.8 -312.15 264.5 -300.45 276.2 -283.9 276.2
L 283.95 276.2
Q 300.5 276.2 312.2 264.5 323.9 252.8 323.9 236.25
L 323.9 -180.3
Q 323.9 -196.85 312.2 -208.55 Z"/>
</g>

<path id="Duplicate_Items_Folder_Symbol_1_copy_5_0_Layer0_1_1_STROKES" stroke="#FF0000" stroke-width="15" stroke-linejoin="round" stroke-linecap="round" fill="none" d="
M 323.9 -180.3
L 323.9 236.25
Q 323.9 252.8 312.2 264.5 300.5 276.2 283.95 276.2
L -283.9 276.2
Q -300.45 276.2 -312.15 264.5 -323.85 252.8 -323.85 236.25
L -323.85 -180.3
Q -323.85 -196.85 -312.15 -208.55 -300.45 -220.25 -283.9 -220.25
L 283.95 -220.25
Q 300.5 -220.25 312.2 -208.55 323.9 -196.85 323.9 -180.3 Z"/>
</defs>

<g transform="matrix( 1, 0, 0, 1, 177.2,138.1) ">
<g transform="matrix( 0.5355224609375, 0, 0, 0.5355224609375, 0,-0.05) ">
<g filter="url(#Filter_1)" transform="matrix( 1.8673248291015625, 0, 0, 1.8673248291015625, -330.85,-257.75) ">
<g transform="matrix( 0.5355224609375, 0, 0, 0.5355224609375, 177.2,138.05) ">
<g transform="matrix( 1, 0, 0, 1, 0,0) ">
<use xlink:href="#Duplicate_Items_Folder_Symbol_1_copy_5_0_Layer0_0_FILL"/>
</g>

<g transform="matrix( 1, 0, 0, 1, 0,-27.95) ">
<use xlink:href="#Duplicate_Items_Folder_Symbol_1_copy_5_0_Layer0_1_FILL"/>

<use xlink:href="#Duplicate_Items_Folder_Symbol_1_copy_5_0_Layer0_1_1_STROKES"/>
</g>
</g>
</g>
</g>
</g>
</svg>
