
<svg xmlns="http://www.w3.org/2000/svg" version="1.1" xmlns:xlink="http://www.w3.org/1999/xlink" preserveAspectRatio="none" x="0px" y="0px" width="965px" height="415px" viewBox="0 0 965 415">
<defs>
<radialGradient id="Gradient_1" gradientUnits="userSpaceOnUse" cx="0" cy="0" r="374.75" fx="0" fy="0" gradientTransform="matrix( 1, 0, 0, 1, -4.75,0) " spreadMethod="pad">
<stop  offset="0%" stop-color="#FFF1C6"/>

<stop  offset="100%" stop-color="#FFE89C"/>
</radialGradient>

<filter id="Filter_1" x="-20%" y="-20%" width="140%" height="140%" color-interpolation-filters="sRGB">
<feFlood flood-color="#000000" flood-opacity="1" in="SourceGraphic" result="result1"/>

<feComposite in2="SourceGraphic" in="result1" operator="in" result="result2"/>

<feGaussianBlur in="result2" stdDeviation="3.3333333333333335,3.3333333333333335" result="result3"/>

<feOffset dx="3.5355339059327378" dy="3.5355339059327378" in="result3" result="result4"/>

<feComposite in2="result4" in="SourceGraphic" operator="over" result="result5"/>
</filter>

<g id="Duplicate_Items_Folder_Symbol_1_copy_0_Layer0_0_FILL">
<path fill="#FFFFFF" stroke="none" d="
M 345.75 -129.4
Q 345.75 -135.85 341.15 -140.4 336.6 -145 330.15 -145
L -330.05 -145
Q -336.55 -145 -341.15 -140.4 -345.75 -135.85 -345.75 -129.4
L -345.75 129.4
Q -345.75 135.85 -341.15 140.45 -336.55 145.05 -330.05 145.05
L 330.15 145.05
Q 336.6 145.05 341.15 140.45 345.75 135.85 345.75 129.4
L 345.75 -129.4 Z"/>
</g>

<g id="Paper_copy_0_Layer0_0_FILL">
<path fill="url(#Gradient_1)" stroke="none" d="
M 345.75 -129.4
Q 345.75 -135.85 341.15 -140.4 336.6 -145 330.15 -145
L -330.05 -145
Q -336.55 -145 -341.15 -140.4 -345.75 -135.85 -345.75 -129.4
L -345.75 129.4
Q -345.75 135.85 -341.15 140.45 -336.55 145.05 -330.05 145.05
L 330.15 145.05
Q 336.6 145.05 341.15 140.45 345.75 135.85 345.75 129.4
L 345.75 -129.4 Z"/>
</g>
</defs>

<g transform="matrix( 1.367706298828125, 0, 0, 1.367706298828125, 478.1,203.5) ">
<g filter="url(#Filter_1)" transform="matrix( 0.73114013671875, 0, 0, 0.73114013671875, -349.55,-148.75) ">
<g transform="matrix( 1.367706298828125, 0, 0, 1.367706298828125, 478.1,203.55) ">
<g transform="matrix( 1, 0, 0, 1, 0,0) ">
<use xlink:href="#Duplicate_Items_Folder_Symbol_1_copy_0_Layer0_0_FILL"/>
</g>
</g>
</g>

<g transform="matrix( 1, 0, 0, 1, 0,0) ">
<use xlink:href="#Paper_copy_0_Layer0_0_FILL"/>
</g>
</g>
</svg>
