
<svg xmlns="http://www.w3.org/2000/svg" version="1.1" xmlns:xlink="http://www.w3.org/1999/xlink" preserveAspectRatio="none" x="0px" y="0px" width="217px" height="217px" viewBox="0 0 217 217">
<defs>
<g id="Symbol_76_5_Layer2_0_FILL">
<path fill="#FFFFFF" stroke="none" d="
M 48.2 -35.3
L 43.1 -44.75 -41.5 -44.75 -36.4 -35.3 -15.7 -35.3 -15.7 -1.95 -23.05 -1.95
Q -24.45 -1.95 -25.4 -0.7 -26.35 0.6 -26.35 1.75 -26.35 3.75 -18.85 11.65 -11.4 19.55 -9 19.55 -5.55 19.55 -5.55 15.25
L -5.55 7.65 25.3 7.65 24.85 37.45 35.35 43.3 35.35 -35.3 48.2 -35.3
M 25.3 -35.3
L 25.3 -1.95 -5.55 -1.95 -5.55 -35.3 25.3 -35.3 Z"/>
</g>

<g id="Symbol_76_5_Layer1_0_FILL">
<path fill="#000000" stroke="none" d="
M 44.7 -35.35
L 39.6 -44.8 -45 -44.8 -39.9 -35.35 -19.2 -35.35 -19.2 -2 -26.55 -2
Q -27.95 -2 -28.9 -0.75 -29.85 0.55 -29.85 1.7 -29.85 3.7 -22.35 11.6 -14.9 19.5 -12.5 19.5 -9.05 19.5 -9.05 15.2
L -9.05 7.6 21.8 7.6 21.35 37.4 31.85 43.25 31.85 -35.35 44.7 -35.35
M 21.8 -35.35
L 21.8 -2 -9.05 -2 -9.05 -35.35 21.8 -35.35 Z"/>
</g>
</defs>

<g transform="matrix( 1.18182373046875, 0, 0, 1.18182373046875, 106.5,107.2) ">
<g transform="matrix( 1, 0, 0, 1, 0,0) ">
<use xlink:href="#Symbol_76_5_Layer2_0_FILL"/>
</g>

<g transform="matrix( 1, 0, 0, 1, 0,0) ">
<use xlink:href="#Symbol_76_5_Layer1_0_FILL"/>
</g>
</g>
</svg>
