
<svg xmlns="http://www.w3.org/2000/svg" version="1.1" xmlns:xlink="http://www.w3.org/1999/xlink" preserveAspectRatio="none" x="0px" y="0px" width="217px" height="217px" viewBox="0 0 217 217">
<defs>
<radialGradient id="Gradient_1" gradientUnits="userSpaceOnUse" cx="0" cy="0" r="93.9" fx="0" fy="0" gradientTransform="matrix( 1, 0, 0, 1, -45.45,-18.85) " spreadMethod="pad">
<stop  offset="0%" stop-color="#F5F5F5" stop-opacity="0.8470588235294118"/>

<stop  offset="100%" stop-color="#F5D057" stop-opacity="0.8196078431372549"/>
</radialGradient>

<radialGradient id="Gradient_2" gradientUnits="userSpaceOnUse" cx="0" cy="0" r="142.0625" fx="0" fy="0" gradientTransform="matrix( 1, 0, 0, 1, -13.45,3.8) " spreadMethod="pad">
<stop  offset="74.11764705882354%" stop-color="#E4E9EC" stop-opacity="0"/>

<stop  offset="100%" stop-color="#FFFFFF"/>
</radialGradient>

<radialGradient id="Gradient_3" gradientUnits="userSpaceOnUse" cx="0" cy="0" r="158.03750000000002" fx="0" fy="0" gradientTransform="matrix( 0.9999999999999998, 0, 0, 0.9999999999999998, 16.95,-1.95) " spreadMethod="pad">
<stop  offset="74.11764705882354%" stop-color="#FFFFFF" stop-opacity="0.00784313725490196"/>

<stop  offset="100%" stop-color="#FFFFFF" stop-opacity="0.6784313725490196"/>
</radialGradient>

<g id="Symbol_90_0_Layer0_0_FILL">
<path fill="url(#Gradient_1)" stroke="none" d="
M 76.2 -76.25
Q 44.65 -107.8 0 -107.8 -44.65 -107.8 -76.25 -76.25 -107.8 -44.65 -107.8 0 -107.8 44.65 -76.25 76.2 -44.65 107.8 0 107.8 44.65 107.8 76.2 76.2 107.8 44.65 107.8 0 107.8 -44.65 76.2 -76.25 Z"/>
</g>

<g id="Symbol_90_0_Layer0_0_MEMBER_0_FILL">
<path fill="url(#Gradient_2)" stroke="none" d="
M 42.85 -99.3
Q 23.15 -107.8 0 -107.8 -23.2 -107.8 -42.85 -99.3 -61.05 -91.4 -76.25 -76.25 -107.8 -44.65 -107.8 0 -107.8 44.65 -76.25 76.2 -44.65 107.8 0 107.8 44.65 107.8 76.2 76.2 107.8 44.65 107.8 0 107.8 -44.65 76.2 -76.25 61.05 -91.4 42.85 -99.3 Z"/>
</g>

<g id="Symbol_90_0_Layer0_0_MEMBER_1_FILL">
<path fill="url(#Gradient_3)" stroke="none" d="
M 42.85 -99.3
Q 23.15 -107.8 0 -107.8 -23.2 -107.8 -42.85 -99.3 -61.05 -91.4 -76.25 -76.25 -107.8 -44.65 -107.8 0 -107.8 44.65 -76.25 76.2 -44.65 107.8 0 107.8 44.65 107.8 76.2 76.2 107.8 44.65 107.8 0 107.8 -44.65 76.2 -76.25 61.05 -91.4 42.85 -99.3 Z"/>
</g>
</defs>

<g transform="matrix( 1, 0, 0, 1, 108.5,108.5) ">
<g transform="matrix( 1, 0, 0, 1, 0,0) ">
<g transform="matrix( 1, 0, 0, 1, 0,0) ">
<use xlink:href="#Symbol_90_0_Layer0_0_FILL"/>
</g>

<g transform="matrix( 1, 0, 0, 1, 0,0) ">
<use xlink:href="#Symbol_90_0_Layer0_0_MEMBER_0_FILL"/>
</g>

<g transform="matrix( 1, 0, 0, 1, 0,0) ">
<use xlink:href="#Symbol_90_0_Layer0_0_MEMBER_1_FILL"/>
</g>
</g>
</g>
</svg>
