
<svg xmlns="http://www.w3.org/2000/svg" version="1.1" xmlns:xlink="http://www.w3.org/1999/xlink" preserveAspectRatio="none" x="0px" y="0px" width="219px" height="135px" viewBox="0 0 219 135">
<defs>
<g id="Symbol_1_8_Layer1_0_FILL">
<path fill="#000000" stroke="none" d="
M 48.9 -1.7
Q 45.95 -2.3 42.55 -2.3 33.7 -2.3 29.2 3.55 26.2 7.45 26.2 11.65 26.2 19.9 32.25 25.9 38.2 31.8 46.35 31.8 50.55 31.8 54.25 30.05 55.85 29.3 61.6 25.7
L 61.95 46.55 70.05 51.45 70.05 20.1
Q 74.35 16.5 78.6 14.1 82.95 11.7 85.35 11.7 88.45 11.7 90.4 13.55 92.35 15.3 92.35 18.6 92.35 22.6 90.05 27.85 87.7 33.1 84.05 38.1
L 91.2 44.55
Q 98.7 33.1 98.7 25.55 98.7 15.05 92.85 8.75 88.2 3.7 83.2 3.7 79.95 3.7 76.75 5.5 74.2 6.85 70.05 10.05
L 70.05 -14.05 109.1 -14.05 104.7 -21.9 -46.15 -21.9
Q -47.3 -25.15 -51.2 -34.35 -55.9 -45.55 -58.15 -48.9 -60.45 -52.3 -64.2 -54.15 -67.1 -55.55 -69.95 -55.55 -72.1 -55.55 -73.5 -55.4 -74.95 -55.3 -74.95 -54.8 -74.85 -54.45 -71.8 -49.3 -70.95 -47.65 -68.9 -44.45 -68.2 -44.8 -67.55 -45.3 -66.55 -45.3 -65.55 -45.3 -63.9 -45.3 -61.45 -43.6 -58.95 -41.95 -57.3 -39.3 -56.05 -37.05 -54 -32.15 -52.25 -28.05 -49.85 -21.9
L -52.7 -21.9
Q -53.6 -23.6 -54.95 -25.95 -58.65 -32.6 -60.2 -34.85 -62.2 -37.7 -64.85 -38.95 -67.45 -40.2 -69.7 -40.2 -70.1 -40.2 -71.9 -40.1 -73.7 -40 -73.7 -39.6
L -68.9 -30.3
Q -68.2 -30.6 -67.8 -30.95 -66.95 -30.95 -66.15 -30.95 -64.95 -30.95 -62.8 -29.95 -60.7 -28.95 -59.6 -27.15 -58.95 -26.05 -56.2 -21.9
L -109.1 -21.9 -104.85 -14.05 -82.45 -14.05
Q -82.45 -13.2 -82.05 -11.05 -81.95 -9.4 -81.95 -5.7 -81.95 5.55 -82.4 8.75 -82.8 11.95 -83.7 11.95 -84.35 11.95 -88.05 9.9 -91.85 7.8 -92.45 7.8 -93.95 7.8 -95.2 9.45 -96.5 11.05 -96.5 12.7 -96.5 13.9 -95.3 16.05 -93.75 19.05 -90.2 23.45 -85.5 29.25 -78.1 37.35 -70.7 45.45 -63.95 52.5
L -60.1 47.95
Q -65.7 42.35 -71.35 36.75 -82.7 25.2 -82.7 24.25 -82.7 23.3 -82 22.65 -81.35 21.95 -78.45 20.1 -76.6 19 -75.05 16.05 -73.45 13.1 -73.45 10.05
L -73.45 -14.05 -51.6 -14.05 -51.6 46.55 -43.25 51.45 -43.25 -14.05 7.8 -14.05 7.8 4.45 -17.95 4.45
Q -23.55 4.45 -25.55 5.35 -27.6 6.35 -27.6 8.6 -27.6 10.55 -22.8 17.4 -18 24.25 -16.1 24.25 -15.05 24.25 -14.35 23.55 -13.55 22.8 -13.55 21.25
L -13.55 13.75
Q -13.55 12.8 -12.85 12.55 -12.2 12.35 -10.45 12.35
L 7.8 12.35 7.8 46.55 16.3 51.45 16.3 -14.05 61.6 -14.05 61.35 9.2
Q 59.7 6.85 57.95 4.65 56.1 2.45 53.95 0.65 51.8 -1.05 48.9 -1.7
M 44.2 5.45
Q 50.2 5.45 53.9 7.65 57.55 9.8 61.6 15.45 56 19.75 50.8 22.3 45.55 24.8 41.7 24.8 37.8 24.8 35.15 22.5 32.55 20.25 32.55 16.4 32.55 11.15 36.1 8.3 39.7 5.45 44.2 5.45 Z"/>
</g>
</defs>

<g transform="matrix( 1, 0, 0, 1, 109.5,55.75) ">
<g transform="matrix( 1, 0, 0, 1, 0,0) ">
<use xlink:href="#Symbol_1_8_Layer1_0_FILL"/>
</g>
</g>
</svg>
