
<svg xmlns="http://www.w3.org/2000/svg" version="1.1" xmlns:xlink="http://www.w3.org/1999/xlink" preserveAspectRatio="none" x="0px" y="0px" width="380px" height="217px" viewBox="0 0 380 217">
<defs>
<g id="Symbol_1_8_Layer1_0_FILL">
<path fill="#000000" stroke="none" d="
M 33.65 -33.45
Q 34.8 -30.5 35.7 -29.65
L 38.8 -30.85
Q 38.8 -44.2 47.4 -44.2 53.55 -44.2 58.2 -38.95 63.35 -33 64.9 -21.9
L -2.75 -21.9
Q -3.9 -25.15 -7.8 -34.35 -12.5 -45.55 -14.75 -48.9 -17.05 -52.3 -20.8 -54.15 -23.7 -55.55 -26.55 -55.55 -28.7 -55.55 -30.1 -55.4 -31.55 -55.3 -31.55 -54.8 -31.45 -54.45 -28.4 -49.3 -27.55 -47.65 -25.5 -44.45 -24.8 -44.8 -24.15 -45.3 -23.15 -45.3 -22.15 -45.3 -20.5 -45.3 -18.05 -43.6 -15.55 -41.95 -13.9 -39.3 -12.65 -37.05 -10.6 -32.15 -8.85 -28.05 -6.45 -21.9
L -9.3 -21.9
Q -10.2 -23.6 -11.55 -25.95 -15.25 -32.6 -16.8 -34.85 -18.8 -37.7 -21.45 -38.95 -24.05 -40.2 -26.3 -40.2 -26.7 -40.2 -28.5 -40.1 -30.3 -40 -30.3 -39.6
L -25.5 -30.3
Q -24.8 -30.6 -24.4 -30.95 -23.55 -30.95 -22.75 -30.95 -21.55 -30.95 -19.4 -29.95 -17.3 -28.95 -16.2 -27.15 -15.55 -26.05 -12.8 -21.9
L -55.65 -21.9 -51.5 -14.05 -33.85 -14.05 -33.85 13.65 -57.2 13.65 -57.2 -1.6
Q -57.2 -12.7 -62.2 -18.3 -66.4 -23.05 -73.3 -23.05 -79.15 -23.05 -82.15 -19.05 -84.55 -15.95 -84.55 -11.35 -84.55 -6.1 -81.2 -2.45 -76.65 2.3 -65.2 5.65
L -65.7 13.65 -71.8 13.65
Q -72.95 13.65 -73.75 14.7 -74.55 15.8 -74.55 16.8 -74.55 19.05 -68 24.7 -61.4 30.35 -59.7 30.35 -58.95 30.35 -58.05 29.7 -57.2 29.05 -57.2 28.05
L -57.2 20.8 -33.85 20.8 -33.85 46.55 -25.5 51.45 -25.5 -14.05 -8.2 -14.05 -8.2 46.55 0.15 51.45 0.15 -14.05 29.85 -14.05
Q 29.85 -13.2 30.25 -11.05 30.35 -9.4 30.35 -5.7 30.35 5.55 29.9 8.75 29.5 11.95 28.6 11.95 27.95 11.95 24.25 9.9 20.45 7.8 19.85 7.8 18.35 7.8 17.1 9.45 15.8 11.05 15.8 12.7 15.8 13.9 17 16.05 18.55 19.05 22.1 23.45 26.8 29.25 34.2 37.35 41.6 45.45 48.35 52.5
L 52.2 47.95
Q 46.6 42.35 40.95 36.75 29.6 25.2 29.6 24.25 29.6 23.3 30.3 22.65 30.95 21.95 33.85 20.1 35.7 19 37.25 16.05 38.85 13.1 38.85 10.05
L 38.85 -14.05 63.2 -14.05 63.2 46.55 71.45 51.45 71.45 -14.05 84.55 -14.05 80.3 -21.9 69.2 -21.9
Q 67.15 -36.95 60.95 -44.8 55.2 -52.05 46.95 -52.05 40.7 -52.05 36.65 -48.2 32.55 -44.45 32.55 -37.9 32.55 -36.3 33.65 -33.45
M -70.2 -16.85
Q -67.25 -16.85 -65.75 -14.95 -64.15 -13.05 -64.15 -7.55 -64.15 -3.25 -64.7 0.65 -68.8 0.2 -72.45 -2.7 -76.05 -5.55 -76.05 -9.45 -76.05 -12.35 -74.45 -14.6 -72.95 -16.85 -70.2 -16.85 Z"/>
</g>
</defs>

<g transform="matrix( 0.92156982421875, 0, 0, 0.92156982421875, 190,108.5) ">
<g transform="matrix( 1, 0, 0, 1, -0.05,4.5) ">
<g transform="matrix( 1, 0, 0, 1, 0,0) ">
<use xlink:href="#Symbol_1_8_Layer1_0_FILL"/>
</g>
</g>
</g>
</svg>
