
<svg xmlns="http://www.w3.org/2000/svg" version="1.1" xmlns:xlink="http://www.w3.org/1999/xlink" preserveAspectRatio="none" x="0px" y="0px" width="380px" height="217px" viewBox="0 0 380 217">
<defs>
<g id="Symbol_1_5_Layer1_0_FILL">
<path fill="#000000" stroke="none" d="
M 48 -17.95
L 39.5 -23.3 39.5 46.7 48 52.05 48 -17.95
M 4.55 -14.05
L 22.55 -14.05 18.3 -21.9 7.25 -21.9
Q 6.1 -25.15 2.2 -34.35 -2.5 -45.55 -4.75 -48.9 -7.05 -52.3 -10.8 -54.15 -13.7 -55.55 -16.55 -55.55 -18.7 -55.55 -20.1 -55.4 -21.55 -55.3 -21.55 -54.8 -21.45 -54.45 -18.4 -49.3 -17.55 -47.65 -15.5 -44.45 -14.8 -44.8 -14.15 -45.3 -13.15 -45.3 -12.15 -45.3 -10.5 -45.3 -8.05 -43.6 -5.55 -41.95 -3.9 -39.3 -2.65 -37.05 -0.6 -32.15 1.15 -28.05 3.55 -21.9
L 0.7 -21.9
Q -0.2 -23.6 -1.55 -25.95 -5.25 -32.6 -6.8 -34.85 -8.8 -37.7 -11.45 -38.95 -14.05 -40.2 -16.3 -40.2 -16.7 -40.2 -18.5 -40.1 -20.3 -40 -20.3 -39.6
L -15.5 -30.3
Q -14.8 -30.6 -14.4 -30.95 -13.55 -30.95 -12.75 -30.95 -11.55 -30.95 -9.4 -29.95 -7.3 -28.95 -6.2 -27.15 -5.55 -26.05 -2.8 -21.9
L -47.95 -21.9 -43.8 -14.05 -3.8 -14.05 -3.8 -4.4 -24.45 -4.4
Q -29.95 -4.4 -32.55 -1.65 -35.2 1.1 -35.2 5.75 -35.2 8.25 -33.05 12.15 -30.9 16.1 -27.3 19.7 -29.55 21.95 -30.8 24.7 -32.05 27.45 -32.05 31.2 -32.05 40.7 -22.05 47.2 -14.05 52.45 0.85 56.1
L 1.8 52.65
Q -11.45 48.35 -17.7 43.2 -23.35 38.55 -23.35 33.45 -23.35 28.45 -18.7 23.55 -13.45 18.05 -6.2 18.05 -3.05 18.05 -0.2 20.4 2.65 22.7 2.65 25.95 2.65 32.6 -6.45 34.3
L -1.8 41.45
Q 4.8 39.45 7.5 36.35 10.15 33.3 10.15 28.7 10.15 22.7 3.75 17.35 -2.7 11.95 -8.45 11.95 -12.45 11.95 -16.5 12.95 -20.6 13.95 -24.2 16.5 -26.2 14.95 -27.55 13 -28.85 11 -28.85 8.95 -28.85 6.6 -26.9 5 -24.9 3.35 -22.85 3.35
L 1.8 3.35
Q 4.55 3.35 4.55 0.6
L 4.55 -14.05 Z"/>
</g>
</defs>

<g transform="matrix( 0.92156982421875, 0, 0, 0.92156982421875, 190,108.5) ">
<g transform="matrix( 1, 0, 0, 1, -0.05,4.5) ">
<g transform="matrix( 1, 0, 0, 1, 0,0) ">
<use xlink:href="#Symbol_1_5_Layer1_0_FILL"/>
</g>
</g>
</g>
</svg>
