
<svg xmlns="http://www.w3.org/2000/svg" version="1.1" xmlns:xlink="http://www.w3.org/1999/xlink" preserveAspectRatio="none" x="0px" y="0px" width="278px" height="216px" viewBox="0 0 278 216">
<defs>
<g id="Symbol_4_5_Layer0_0_FILL">
<path fill="#000000" stroke="none" d="
M 187.55 70.15
L 187.55 62.25 90.1 62.25 90.1 70.15 161.5 70.15 161.5 96.75 106.3 96.75 104.6 97.35
Q 101.45 99.8 101.45 103.15 102.05 105.4 103.85 108.35 107 113.5 109.95 116.8
L 117.1 124.25
Q 120.2 126.8 121.35 126.8
L 123.6 126.8
Q 125.2 125.25 125.35 124.9 125.55 124.6 125.55 123.65
L 125.55 104.5 161.5 104.5 161.5 161.65 171.75 161.65 171.75 70.15 187.55 70.15 Z"/>
</g>
</defs>

<g transform="matrix( 1, 0, 0, 1, -0.6,-1.45) ">
<g transform="matrix( 1, 0, 0, 1, 0,0) ">
<use xlink:href="#Symbol_4_5_Layer0_0_FILL"/>
</g>
</g>
</svg>
