
<svg xmlns="http://www.w3.org/2000/svg" version="1.1" xmlns:xlink="http://www.w3.org/1999/xlink" preserveAspectRatio="none" x="0px" y="0px" width="278px" height="216px" viewBox="0 0 278 216">
<defs>
<g id="Symbol_4_2_Layer0_0_FILL">
<path fill="#000000" stroke="none" d="
M 183.75 69.4
L 183.4 61.3 96.5 61.3 96.5 69.4 159.2 69.4 159.2 117.65 158.1 121.95 125.55 99.65 128.5 97.05 132.4 95.1 136.7 93.9
Q 137.9 93.9 141.3 93.9
L 146.3 94.65
Q 149.25 95.4 150.05 96.7
L 148.7 87.7 147.05 87.3 146.1 86.95 141.3 86.05 136.7 86.05
Q 134.15 86.05 131.65 86.45 129.05 86.8 126.3 88.05 121.25 90.35 117.3 94.25 109.05 102.5 109.05 113.7 109.05 119.75 111 125.1 113.35 130 118.15 134.2 122.95 138.45 127.7 140.15 132.6 141.8 138.45 141.8
L 144.1 141.35
Q 147.25 140.8 149.65 139.7
L 154.75 137.1
Q 157.5 135.1 159.2 132.75
L 159.2 162.5 169.65 162.5 169.65 69.4 183.75 69.4
M 138.6 134.1
Q 135.7 134.1 131.2 132.75 127.45 131 124.7 128.1 121.6 125.3 120.25 121.85 119 118.4 119 113.7
L 119 111.2 120.6 106.3 121.45 104.35 153.6 127.15 149.25 130.55
Q 147.4 132 146.5 132.45 145.55 132.95 143.95 133.35
L 141.85 134.1 138.6 134.1 Z"/>
</g>
</defs>

<g transform="matrix( 1, 0, 0, 1, -4.25,-1.45) ">
<g transform="matrix( 1, 0, 0, 1, 0,0) ">
<use xlink:href="#Symbol_4_2_Layer0_0_FILL"/>
</g>
</g>
</svg>
