
<svg xmlns="http://www.w3.org/2000/svg" version="1.1" xmlns:xlink="http://www.w3.org/1999/xlink" preserveAspectRatio="none" x="0px" y="0px" width="1920px" height="1080px" viewBox="0 0 1920 1080">
<defs>
<radialGradient id="Gradient_1" gradientUnits="userSpaceOnUse" cx="0" cy="0" r="2812.925" fx="0" fy="0" gradientTransform="matrix( 0.9999999999999999, 0, 0, 0.18324786476710184, 950.65,606.35) " spreadMethod="pad">
<stop  offset="0%" stop-color="#FA885E"/>

<stop  offset="100%" stop-color="#AF4C27"/>
</radialGradient>

<g id="Layer2_0_FILL">
<path fill="#FFFF00" stroke="none" d="
M 1954.25 -24.15
Q 1954.1 -24.3 1953.9 -24.3
L -34 -24.3
Q -34.2 -24.3 -34.35 -24.15 -34.5 -24 -34.5 -23.8
L -34.5 1162.35
Q -34.5 1162.55 -34.35 1162.7 -34.2 1162.85 -34 1162.85
L 1953.9 1162.85
Q 1954.1 1162.85 1954.25 1162.7 1954.4 1162.55 1954.4 1162.35
L 1954.4 -23.8
Q 1954.4 -24 1954.25 -24.15
M 1953.4 -23.3
L 1953.4 1161.85 -33.45 1161.85 -33.5 -23.3 1953.4 -23.3 Z"/>

<path fill="url(#Gradient_1)" stroke="none" d="
M 1953.4 1161.85
L 1953.4 -23.3 -33.5 -23.3 -33.45 1161.85 1953.4 1161.85 Z"/>
</g>
</defs>

<g transform="matrix( 1, 0, 0, 1, 0,0) ">
<use xlink:href="#Layer2_0_FILL"/>
</g>
</svg>
