
<svg xmlns="http://www.w3.org/2000/svg" version="1.1" xmlns:xlink="http://www.w3.org/1999/xlink" preserveAspectRatio="none" x="0px" y="0px" width="485px" height="195px" viewBox="0 0 485 195">
<defs>
<g id="Symbol_7_1_Layer2_0_FILL">
<path fill="#FFFFFF" stroke="none" d="
M 37.55 -5.8
Q 33.45 -4.6 31.55 -2.55 29.65 -0.45 29.65 3.75 29.65 11.4 36.25 17.8 42.8 24.15 51.3 24.15 56.5 24.15 61.6 22.5 66.7 20.8 70.25 18.75
L 67.25 12.55
Q 60.6 15.7 55.9 17.1 51.3 18.45 46.8 18.45 42.5 18.45 39.3 15.3 36 12.1 36 7.75 36 1.1 42.6 -0.25 52.05 -2 57 -3.35 59.35 -4.1 60.15 -5.45 60.9 -6.85 60.9 -11.05 60.8 -14.1 60.65 -17.4 60.55 -20.7 60.55 -24.3
L 86.15 -24.3
Q 86.15 -23.6 86.45 -21.85 86.55 -20.5 86.55 -17.45 86.55 -8.3 86.2 -5.7 85.85 -3.05 85.1 -3.05 84.6 -3.05 81.55 -4.75 78.45 -6.45 77.95 -6.45 76.7 -6.45 75.7 -5.1 74.65 -3.8 74.65 -2.5 74.65 -1.5 75.6 0.25 76.9 2.7 79.8 6.3 83.65 11 89.65 17.65 95.7 24.25 101.2 30
L 104.35 26.3
Q 99.75 21.75 95.2 17.15 85.95 7.75 85.95 6.95 85.95 6.2 86.5 5.65 87 5.1 89.35 3.55 90.9 2.65 92.15 0.25 93.45 -2.15 93.45 -4.6
L 93.45 -24.3 107.1 -24.3 103.65 -30.7 -100.75 -30.7 -97.35 -24.3 -66.35 -24.3
Q -66.25 -22.45 -66.05 -20.7 -65.9 -18.95 -65.9 -16.8 -65.9 -12.35 -66.5 -10.9 -67.15 -9.4 -68.65 -9.2
L -82.45 -5.8
Q -86.55 -4.6 -88.45 -2.55 -90.35 -0.45 -90.35 3.75 -90.35 11.4 -83.75 17.8 -77.2 24.15 -68.7 24.15 -63.5 24.15 -58.4 22.5 -53.3 20.8 -49.75 18.75
L -52.75 12.55
Q -59.4 15.7 -64.1 17.1 -68.7 18.45 -73.2 18.45 -77.5 18.45 -80.7 15.3 -84 12.1 -84 7.75 -84 1.1 -77.4 -0.25 -67.95 -2 -63 -3.35 -60.65 -4.1 -59.85 -5.45 -59.1 -6.85 -59.1 -11.05 -59.2 -14.1 -59.35 -17.4 -59.45 -20.7 -59.45 -24.3
L -38.1 -24.3 -38.1 -1.65 -43.1 -1.65
Q -44.05 -1.65 -44.7 -0.8 -45.35 0.1 -45.35 0.9 -45.35 2.25 -40.25 7.65 -35.15 13 -33.5 13 -31.2 13 -31.2 10.05
L -31.2 4.9 -10.2 4.9 -10.5 25.15 -3.4 29.15 -3.4 -24.3 10.75 -24.3 10.75 25.15 17.6 29.15 17.6 -24.3 53.65 -24.3
Q 53.75 -22.45 53.95 -20.7 54.1 -18.95 54.1 -16.8 54.1 -12.35 53.5 -10.9 52.85 -9.4 51.35 -9.2
L 37.55 -5.8
M -10.2 -1.65
L -31.2 -1.65 -31.2 -24.3 -10.2 -24.3 -10.2 -1.65 Z"/>
</g>

<g id="Symbol_7_1_Layer1_0_FILL">
<path fill="#000000" stroke="none" d="
M 34.9 -6.3
Q 30.8 -5.1 28.9 -3.05 27 -0.95 27 3.25 27 10.9 33.6 17.3 40.15 23.65 48.65 23.65 53.85 23.65 58.95 22 64.05 20.3 67.6 18.25
L 64.6 12.05
Q 57.95 15.2 53.25 16.6 48.65 17.95 44.15 17.95 39.85 17.95 36.65 14.8 33.35 11.6 33.35 7.25 33.35 0.6 39.95 -0.75 49.4 -2.5 54.35 -3.85 56.7 -4.6 57.5 -5.95 58.25 -7.35 58.25 -11.55 58.15 -14.6 58 -17.9 57.9 -21.2 57.9 -24.8
L 83.5 -24.8
Q 83.5 -24.1 83.8 -22.35 83.9 -21 83.9 -17.95 83.9 -8.8 83.55 -6.2 83.2 -3.55 82.45 -3.55 81.95 -3.55 78.9 -5.25 75.8 -6.95 75.3 -6.95 74.05 -6.95 73.05 -5.6 72 -4.3 72 -3 72 -2 72.95 -0.25 74.25 2.2 77.15 5.8 81 10.5 87 17.15 93.05 23.75 98.55 29.5
L 101.7 25.8
Q 97.1 21.25 92.55 16.65 83.3 7.25 83.3 6.45 83.3 5.7 83.85 5.15 84.35 4.6 86.7 3.05 88.25 2.15 89.5 -0.25 90.8 -2.65 90.8 -5.1
L 90.8 -24.8 104.45 -24.8 101 -31.2 -103.4 -31.2 -100 -24.8 -69 -24.8
Q -68.9 -22.95 -68.7 -21.2 -68.55 -19.45 -68.55 -17.3 -68.55 -12.85 -69.15 -11.4 -69.8 -9.9 -71.3 -9.7
L -85.1 -6.3
Q -89.2 -5.1 -91.1 -3.05 -93 -0.95 -93 3.25 -93 10.9 -86.4 17.3 -79.85 23.65 -71.35 23.65 -66.15 23.65 -61.05 22 -55.95 20.3 -52.4 18.25
L -55.4 12.05
Q -62.05 15.2 -66.75 16.6 -71.35 17.95 -75.85 17.95 -80.15 17.95 -83.35 14.8 -86.65 11.6 -86.65 7.25 -86.65 0.6 -80.05 -0.75 -70.6 -2.5 -65.65 -3.85 -63.3 -4.6 -62.5 -5.95 -61.75 -7.35 -61.75 -11.55 -61.85 -14.6 -62 -17.9 -62.1 -21.2 -62.1 -24.8
L -40.75 -24.8 -40.75 -2.15 -45.75 -2.15
Q -46.7 -2.15 -47.35 -1.3 -48 -0.4 -48 0.4 -48 1.75 -42.9 7.15 -37.8 12.5 -36.15 12.5 -33.85 12.5 -33.85 9.55
L -33.85 4.4 -12.85 4.4 -13.15 24.65 -6.05 28.65 -6.05 -24.8 8.1 -24.8 8.1 24.65 14.95 28.65 14.95 -24.8 51 -24.8
Q 51.1 -22.95 51.3 -21.2 51.45 -19.45 51.45 -17.3 51.45 -12.85 50.85 -11.4 50.2 -9.9 48.7 -9.7
L 34.9 -6.3
M -12.85 -2.15
L -33.85 -2.15 -33.85 -24.8 -12.85 -24.8 -12.85 -2.15 Z"/>
</g>
</defs>

<g transform="matrix( 1.1999969482421875, 0, 0, 1.1999969482421875, 242.55,98.4) ">
<g transform="matrix( 1.0010986328125, 0, 0, 1.0010986328125, 0.55,0) ">
<g transform="matrix( 1, 0, 0, 1, 0,0) ">
<use xlink:href="#Symbol_7_1_Layer2_0_FILL"/>
</g>

<g transform="matrix( 1, 0, 0, 1, 0,0) ">
<use xlink:href="#Symbol_7_1_Layer1_0_FILL"/>
</g>
</g>
</g>
</svg>
