
<svg xmlns="http://www.w3.org/2000/svg" version="1.1" xmlns:xlink="http://www.w3.org/1999/xlink" preserveAspectRatio="none" x="0px" y="0px" width="505px" height="350px" viewBox="0 0 505 350">
<defs>
<g id="Duplicate_Items_Folder_Symbol_13_2_Layer2_0_FILL">
<path fill="#666666" stroke="none" d="
M 66.3 -43.35
Q 56.3 -37.95 39.7 -25.05
L 39.7 -121.45 195.7 -121.45 178.15 -152.95 -185.9 -152.95 -168.3 -121.45 5.75 -121.45 4.8 -28.45
Q -1.8 -37.95 -8.9 -46.75 -16.2 -55.55 -24.75 -62.6 -33.3 -69.45 -45 -72.15 -56.75 -74.6 -70.4 -74.6 -105.8 -74.6 -123.9 -51.15 -135.85 -35.55 -135.85 -18.7 -135.85 14.3 -111.65 38.2 -87.75 61.9 -55.25 61.9 -38.45 61.9 -23.55 54.8 -17.2 51.9 5.75 37.45
L 7.25 120.95 39.7 140.5 39.7 15
Q 56.8 0.6 73.9 -8.9 91.2 -18.45 100.75 -18.45 113.2 -18.45 121 -11.1 128.8 -4.05 128.8 9.15 128.8 25 119.55 46 110.25 67 95.6 87.05
L 124.15 112.9
Q 154.2 67 154.2 37 154.2 -5 130.75 -30.4 112.2 -50.4 92.2 -50.4 79.25 -50.4 66.3 -43.35
M -63.8 -43.6
Q -39.9 -43.6 -25 -34.8 -10.35 -26 5.75 -3.55 -16.7 13.8 -37.45 23.8 -58.45 33.8 -73.85 33.8 -89.45 33.8 -99.95 24.8 -110.45 15.75 -110.45 0.35 -110.45 -20.65 -96.3 -32.1 -81.9 -43.6 -63.8 -43.6 Z"/>
</g>

<g id="Duplicate_Items_Folder_Symbol_13_2_Layer1_0_FILL">
<path fill="#FFFFFF" stroke="none" d="
M 79.6 -50.4
Q 66.65 -50.4 53.7 -43.35 43.7 -37.95 27.1 -25.05
L 27.1 -121.45 183.1 -121.45 165.55 -152.95 -198.5 -152.95 -180.9 -121.45 -6.85 -121.45 -7.8 -28.45
Q -14.4 -37.95 -21.5 -46.75 -28.8 -55.55 -37.35 -62.6 -45.9 -69.45 -57.6 -72.15 -69.35 -74.6 -83 -74.6 -118.4 -74.6 -136.5 -51.15 -148.45 -35.55 -148.45 -18.7 -148.45 14.3 -124.25 38.2 -100.35 61.9 -67.85 61.9 -51.05 61.9 -36.15 54.8 -29.8 51.9 -6.85 37.45
L -5.35 120.95 27.1 140.5 27.1 15
Q 44.2 0.6 61.3 -8.9 78.6 -18.45 88.15 -18.45 100.6 -18.45 108.4 -11.1 116.2 -4.05 116.2 9.15 116.2 25 106.95 46 97.65 67 83 87.05
L 111.55 112.9
Q 141.6 67 141.6 37 141.6 -5 118.15 -30.4 99.6 -50.4 79.6 -50.4
M -37.6 -34.8
Q -22.95 -26 -6.85 -3.55 -29.3 13.8 -50.05 23.8 -71.05 33.8 -86.45 33.8 -102.05 33.8 -112.55 24.8 -123.05 15.75 -123.05 0.35 -123.05 -20.65 -108.9 -32.1 -94.5 -43.6 -76.4 -43.6 -52.5 -43.6 -37.6 -34.8 Z"/>
</g>
</defs>

<g transform="matrix( 1, 0, 0, 1, 255.15,171.95) ">
<g transform="matrix( 0.5904541015625, 0, 0, 0.5904541015625, -1.8,-1.8) ">
<g transform="matrix( 1, 0, 0, 1, 0,0) ">
<use xlink:href="#Duplicate_Items_Folder_Symbol_13_2_Layer2_0_FILL"/>
</g>

<g transform="matrix( 1, 0, 0, 1, 0,0) ">
<use xlink:href="#Duplicate_Items_Folder_Symbol_13_2_Layer1_0_FILL"/>
</g>
</g>
</g>
</svg>
