
<svg xmlns="http://www.w3.org/2000/svg" version="1.1" xmlns:xlink="http://www.w3.org/1999/xlink" preserveAspectRatio="none" x="0px" y="0px" width="505px" height="350px" viewBox="0 0 505 350">
<defs>
<g id="Duplicate_Items_Folder_Symbol_13_1_Layer2_0_FILL">
<path fill="#666666" stroke="none" d="
M 120.15 -121.45
L 103.3 -152.95 -89.35 -152.95 -72.25 -121.45 17.35 -121.45
Q 17.35 -118.05 18.8 -109.5 19.3 -102.9 19.3 -88 19.3 -43.1 17.6 -30.4 15.9 -17.45 12.2 -17.45 9.8 -17.45 -5.1 -25.75 -20.25 -34.05 -22.7 -34.05 -28.8 -34.05 -33.7 -27.45 -38.8 -21.1 -38.8 -14.55 -38.8 -9.65 -34.15 -1.1 -27.8 10.85 -13.65 28.45 5.15 51.65 34.7 84.1 64.2 116.55 91.3 144.65
L 106.7 126.6
Q 84.25 104.1 61.8 81.65 16.35 35.5 16.35 31.6 16.35 27.95 19.05 25.25 21.75 22.6 33.2 15 40.8 10.6 46.9 -1.1 53.25 -12.8 53.25 -25.05
L 53.25 -121.45 120.15 -121.45 Z"/>
</g>

<g id="Duplicate_Items_Folder_Symbol_13_1_Layer1_0_FILL">
<path fill="#FFFFFF" stroke="none" d="
M 107.55 -121.45
L 90.7 -152.95 -101.95 -152.95 -84.85 -121.45 4.75 -121.45
Q 4.75 -118.05 6.2 -109.5 6.7 -102.9 6.7 -88 6.7 -43.1 5 -30.4 3.3 -17.45 -0.4 -17.45 -2.8 -17.45 -17.7 -25.75 -32.85 -34.05 -35.3 -34.05 -41.4 -34.05 -46.3 -27.45 -51.4 -21.1 -51.4 -14.55 -51.4 -9.65 -46.75 -1.1 -40.4 10.85 -26.25 28.45 -7.45 51.65 22.1 84.1 51.6 116.55 78.7 144.65
L 94.1 126.6
Q 71.65 104.1 49.2 81.65 3.75 35.5 3.75 31.6 3.75 27.95 6.45 25.25 9.15 22.6 20.6 15 28.2 10.6 34.3 -1.1 40.65 -12.8 40.65 -25.05
L 40.65 -121.45 107.55 -121.45 Z"/>
</g>
</defs>

<g transform="matrix( 1, 0, 0, 1, 248.95,171.95) ">
<g transform="matrix( 0.5904541015625, 0, 0, 0.5904541015625, -1.8,-1.8) ">
<g transform="matrix( 1, 0, 0, 1, 0,0) ">
<use xlink:href="#Duplicate_Items_Folder_Symbol_13_1_Layer2_0_FILL"/>
</g>

<g transform="matrix( 1, 0, 0, 1, 0,0) ">
<use xlink:href="#Duplicate_Items_Folder_Symbol_13_1_Layer1_0_FILL"/>
</g>
</g>
</g>
</svg>
