
<svg xmlns="http://www.w3.org/2000/svg" version="1.1" xmlns:xlink="http://www.w3.org/1999/xlink" preserveAspectRatio="none" x="0px" y="0px" width="505px" height="350px" viewBox="0 0 505 350">
<defs>
<g id="Duplicate_Items_Folder_Symbol_13_0_Layer2_0_FILL">
<path fill="#666666" stroke="none" d="
M 156.65 -121.45
L 139.55 -152.95 -125.35 -152.95 -108.75 -121.45 51.2 -121.45 51.2 -82.9 -31.35 -82.9
Q -53.3 -82.9 -63.8 -71.9 -74.3 -60.9 -74.3 -42.35 -74.3 -32.35 -65.75 -16.75 -57.2 -0.85 -42.8 13.55 -51.85 22.6 -56.75 33.55 -61.85 44.55 -61.85 59.45 -61.85 97.55 -21.8 123.4 10.15 144.4 69.75 159.05
L 73.65 145.4
Q 20.65 128.05 -4.5 107.55 -26.95 89 -26.95 68.5 -26.95 48.45 -8.4 28.95 12.6 6.95 41.65 6.95 54.1 6.95 65.6 16.25 77.05 25.5 77.05 38.45 77.05 65.05 40.7 71.9
L 59.25 100.45
Q 85.6 92.4 96.35 80.2 107.1 68 107.1 49.45 107.1 25.5 81.45 4.05 55.55 -17.45 32.65 -17.45 16.5 -17.45 0.4 -13.55 -15.95 -9.4 -30.35 0.6 -38.4 -5.5 -43.8 -13.3 -48.9 -21.35 -48.9 -29.4 -48.9 -38.95 -41.1 -45.3 -33.3 -51.9 -25 -51.9
L 73.65 -51.9
Q 84.65 -51.9 84.65 -62.85
L 84.65 -121.45 156.65 -121.45 Z"/>
</g>

<g id="Duplicate_Items_Folder_Symbol_13_0_Layer1_0_FILL">
<path fill="#FFFFFF" stroke="none" d="
M 144.05 -121.45
L 126.95 -152.95 -137.95 -152.95 -121.35 -121.45 38.6 -121.45 38.6 -82.9 -43.95 -82.9
Q -65.9 -82.9 -76.4 -71.9 -86.9 -60.9 -86.9 -42.35 -86.9 -32.35 -78.35 -16.75 -69.8 -0.85 -55.4 13.55 -64.45 22.6 -69.35 33.55 -74.45 44.55 -74.45 59.45 -74.45 97.55 -34.4 123.4 -2.45 144.4 57.15 159.05
L 61.05 145.4
Q 8.05 128.05 -17.1 107.55 -39.55 89 -39.55 68.5 -39.55 48.45 -21 28.95 0 6.95 29.05 6.95 41.5 6.95 53 16.25 64.45 25.5 64.45 38.45 64.45 65.05 28.1 71.9
L 46.65 100.45
Q 73 92.4 83.75 80.2 94.5 68 94.5 49.45 94.5 25.5 68.85 4.05 42.95 -17.45 20.05 -17.45 3.9 -17.45 -12.2 -13.55 -28.55 -9.4 -42.95 0.6 -51 -5.5 -56.4 -13.3 -61.5 -21.35 -61.5 -29.4 -61.5 -38.95 -53.7 -45.3 -45.9 -51.9 -37.6 -51.9
L 61.05 -51.9
Q 72.05 -51.9 72.05 -62.85
L 72.05 -121.45 144.05 -121.45 Z"/>
</g>
</defs>

<g transform="matrix( 1, 0, 0, 1, 250.35,171.95) ">
<g transform="matrix( 0.5904541015625, 0, 0, 0.5904541015625, -1.8,-1.8) ">
<g transform="matrix( 1, 0, 0, 1, 0,0) ">
<use xlink:href="#Duplicate_Items_Folder_Symbol_13_0_Layer2_0_FILL"/>
</g>

<g transform="matrix( 1, 0, 0, 1, 0,0) ">
<use xlink:href="#Duplicate_Items_Folder_Symbol_13_0_Layer1_0_FILL"/>
</g>
</g>
</g>
</svg>
