
<svg xmlns="http://www.w3.org/2000/svg" version="1.1" xmlns:xlink="http://www.w3.org/1999/xlink" preserveAspectRatio="none" x="0px" y="0px" width="455px" height="457px" viewBox="0 0 455 457">
<defs>
<filter id="Filter_1" x="-20%" y="-20%" width="140%" height="140%" color-interpolation-filters="sRGB">
<feFlood flood-color="#000000" flood-opacity="1" in="SourceGraphic" result="result1"/>

<feComposite in2="SourceGraphic" in="result1" operator="in" result="result2"/>

<feGaussianBlur in="result2" stdDeviation="4.333333333333333,4.333333333333333" result="result3"/>

<feOffset dx="0" dy="0" in="result3" result="result4"/>

<feComposite in2="result4" in="SourceGraphic" operator="over" result="result5"/>
</filter>

<g id="Symbol_2_0_Layer0_0_MEMBER_0_FILL">
<path fill="#EB811F" stroke="none" d="
M 912.3 39.15
Q 906.2 37.15 901.05 36.3 887.45 34.05 877.25 38.75 874.7 39.9 870.7 42.5 866 45.55 864.3 46.5
L 863.95 46.7
Q 875.2 47.55 884.5 52.1 889.95 54.8 894.35 58.6
L 894.35 58.5 895.95 60
Q 896.5 60.1 896.9 60.3 898.1 60.85 900 62.25 902.05 63.85 903 64.35 906.75 66.3 911.1 64.55 915.45 62.8 916.85 58.7 917.45 57.1 917.7 54.15 918.05 50.7 918.3 49.5 918.85 47 920.4 45.3 922.15 43.35 924.25 43.55
L 923.2 43.15
Q 916.15 40.45 912.3 39.15 Z"/>
</g>

<g id="Symbol_2_0_Layer0_0_MEMBER_1_FILL">
<path fill="#EB7113" stroke="none" d="
M 867.15 124.05
Q 862.7 123.25 862.35 123.2 855.6 124.65 847.85 123.6 850 126.45 852.7 131.95 855.95 138.4 857.25 140.55 862.9 149.55 872.7 154.8 882.5 160.05 893.15 159.75 888.05 155.8 884.85 150.05 881.65 144.35 880.95 137.95 880.75 135.7 880.6 134.55 880.35 132.6 879.75 131.25 877.9 126.95 871.9 125.1 870.05 124.55 867.15 124.05 Z"/>
</g>

<g id="Symbol_2_0_Layer0_0_MEMBER_2_FILL">
<path fill="#EB7B13" stroke="none" d="
M 816.8 110.4
L 817.1 111.6
Q 817.3 112.5 817.85 115.75 818.25 118.3 818.7 119.85 819.65 123.15 823.2 128.7 825.55 132.35 826.95 134.1 829.25 136.95 831.75 138.45 830.5 136 829.5 130.55 828.55 125.05 827.25 122.6 826.25 120.65 823.2 117.25 820.25 113.85 819.3 111.95
L 816.8 110.4 Z"/>
</g>

<g id="Symbol_2_0_Layer0_0_MEMBER_3_FILL">
<path fill="#EB6613" stroke="none" d="
M 989.35 68.1
Q 986 64.3 979.8 62.65 974.75 61.35 968.3 61.55 956.85 61.95 947.05 69.2 942.25 73.1 940.05 74.8 936.35 77.75 933.65 78.7 930.15 80 926.7 80.2 925.4619140625 80.24765625 920.7 80.1 917.294921875 80.280078125 916.25 81.8 915.4 82.95 915.1 84.2 914.75 85.6 915.25 86.7 916.15 88.65 917.6 89.85 912.15 89.65 909.75 92.2 909.05 93 909.05 94.4 909.05 95.25 909.2 96.95 909.2 97.95 909.75 99.5 910.05 100.35 910.6 102 910.3 101.375 910.05 100.9 911.665625 104.5783203125 915.1 113.9 919.3 124 924.3 130.2 941.65 151.55 976.3 162.35 972.35 159.2 969.55 154.9 966.75 150.65 965.45 145.75 964.75 143.15 963.85 135.9 963.05 129.6 961.75 126.15 959.85 121.05 949.85 111.3 940.6 102.3 939.45 96.05 946.8 94.9 954.5 92.05 963.15 88.8 968.1 84.8 970.7 82.75 978.25 74.35 985.45 67.2 989.35 68.1 Z"/>
</g>

<g id="Symbol_2_0_Layer0_0_MEMBER_4_FILL">
<path fill="#ED9E00" stroke="none" d="
M 894.15 57.8
L 894 57.85
Q 889.35 54 884.35 51.55 874.9 47.1 863.85 46.35 859.15 46 854.45 46.35 845.05 47 834.75 50.15 826.15 52.8 815.95 57.55 810.95 58.65 808.45 59.3 804.15 60.45 801.35 62.05 799.4 63.15 795.5 66.4 791.85 69.4 789.55 70.55 787.35 71.55 786.35 72.15 784.5 73.1 783.7 74.35 782.45 76.2 782.45 77.35 782.5 79.15 785.1 80.45 785 80.6 783.9 80.85 782.8 81.15 782.65 81.25 781.8 82.1 781.8 82.7 781.8 82.95 782.05 83.55 784.3 88.1 789.75 92.55
L 789.7 92.55 791.3 93.8
Q 796.15 97.6 796.45 97.85 799.4 100 801.7 101.25
L 806.15 104.2
Q 812.65 108.75 816.8 111.4
L 819.3 112.95
Q 827.85 118.3 835.35 121.1 841.5 123.45 847.95 124.35 855.5 125.35 862.5 123.95 865.45 123.35 868.4 122.2 875 119.6 881.45 113.8 886 109.7 892.15 102.25 894.05 99.9 895.15 98.8 896.95 96.95 898.7 96 900.7 94.95 902.9 94.9 905.25 94.9 906.85 96.15 908.45 97.85 909.7 100.1 910 100.75 910.6 102 909.7 98.8 909.7 97.05 909.7 94.1 911.3 92.45 912.6 91.1 914.9 90.7 916.45 90.4 919.1 90.5 916.9 88.5 916.35 87.3 915.85 86.15 915.95 84.8 916.1 83.45 916.85 82.4 918.0677734375 80.5732421875 920.15 80.2 917.0294921875 80 915.55 80
L 915.45 80
Q 913.6 80 911.3 78.75 909.55 78 908.5 75.8 907.6 73.45 907.2 72.8 904.45 68.3 902 65.35 899.75 62.65 895.95 59.2
L 894.15 57.8
M 803.1 68.85
Q 805.9 68.85 807.9 70.85 809.9 72.85 809.9 75.65 809.9 78.45 807.9 80.45 805.9 82.45 803.1 82.45 800.25 82.45 798.25 80.45 796.25 78.45 796.25 75.65 796.25 72.85 798.25 70.85 800.25 68.85 803.1 68.85 Z"/>
</g>

<g id="Symbol_2_0_Layer0_0_MEMBER_5_FILL">
<path fill="#FFB521" stroke="none" d="
M 848.6 75.4
Q 850.3 77.55 850.35 80.25 852.75 79.45 854.25 77.4 855.8 75.3 855.8 72.65 855.8 70.05 854.25 67.95 852.75 65.9 850.35 65.1 850.3 67.8 848.6 69.9 846.95 71.95 844.35 72.65 846.9 73.35 848.6 75.4 Z"/>
</g>

<g id="Symbol_2_0_Layer0_0_MEMBER_6_FILL">
<path fill="#FFB521" stroke="none" d="
M 867.7 75.4
Q 869.35 77.55 869.4 80.25 871.85 79.45 873.35 77.4 874.9 75.3 874.9 72.65 874.9 70.05 873.35 67.95 871.85 65.9 869.4 65.1 869.35 67.8 867.7 69.9 866.05 71.95 863.45 72.65 866.05 73.35 867.7 75.4 Z"/>
</g>

<g id="Symbol_2_0_Layer0_0_MEMBER_7_FILL">
<path fill="#FFB521" stroke="none" d="
M 844.7 75.75
Q 843.2 73.7 840.8 72.85 840.75 75.55 839.05 77.7 837.35 79.75 834.8 80.45 837.35 81.15 839.05 83.2 840.75 85.35 840.8 88.05 843.2 87.2 844.7 85.15 846.25 83.05 846.25 80.45 846.25 77.85 844.7 75.75 Z"/>
</g>

<g id="Symbol_2_0_Layer0_0_MEMBER_8_FILL">
<path fill="#FFB521" stroke="none" d="
M 848.65 91.05
Q 850.35 93.25 850.35 96 850.35 99.95 847.15 102.4 851.05 101.95 854.8 100.75 861.55 98.6 868.1 94.3
L 874.8 89.1 874.9 88.2
Q 874.9 85.6 873.35 83.5 871.85 81.45 869.4 80.65 869.35 83.9 867 86.2 864.65 88.5 861.4 88.5 860.35 88.5 859.35 88.2 861.95 87.5 863.65 85.4 865.35 83.25 865.35 80.45 865.35 77.85 863.8 75.75 862.3 73.7 859.9 72.85 859.85 76.1 857.45 78.4 855.1 80.7 851.85 80.7 851.1 80.7 850.35 80.55 850.3 83.3 848.6 85.45 846.95 87.5 844.35 88.2 847 88.9 848.65 91.05 Z"/>
</g>

<g id="Symbol_2_0_Layer0_0_MEMBER_9_FILL">
<path fill="#FFB521" stroke="none" d="
M 886.75 69.9
Q 885.1 71.95 882.55 72.65 885.2 73.4 886.85 75.55 890.05 71.05 891.85 67.3 890.5 65.8 888.5 65.1 888.45 67.8 886.75 69.9 Z"/>
</g>

<g id="Symbol_2_0_Layer0_0_MEMBER_10_FILL">
<path fill="#FFB521" stroke="none" d="
M 882.45 75.2
Q 881.05 73.55 878.95 72.85 878.9 75.55 877.25 77.7 875.6 79.75 873 80.45 874.95 80.95 876.4 82.35 877.85 83.7 878.5 85.6 881.7 82.3 884.3 79 883.9 76.85 882.45 75.2 Z"/>
</g>

<g id="Symbol_2_0_Layer0_0_MEMBER_11_FILL">
<path fill="#FFB521" stroke="none" d="
M 892.75 65.1
Q 894.05 61.6 894.35 57.85 889.9 54.15 884.5 51.55 875.15 47.15 863.95 46.35 859.25 46 854.5 46.35 837.55 47.5 816 57.55 810.95 58.65 808.5 59.3 804.2 60.45 801.4 62.05 799.4 63.15 795.5 66.4 791.85 69.4 789.55 70.55 787.35 71.55 786.35 72.15 784.5 73.1 783.7 74.35 782.45 76.2 782.45 77.35 782.5 79.15 785.1 80.45 785 80.6 783.9 80.85 782.8 81.15 782.65 81.25 781.8 82.1 781.8 82.7 781.8 82.95 782.05 83.55 784.3 88.1 789.75 92.55 794.8 95.1 799.85 95.95 805.65 96.9 810.15 95.2 811.65 94.2 812.7 93.15 816.8 89.15 817.2 84.4 819.6 88.85 818.25 93.6
L 817.85 95
Q 823.2 98.8 829.65 100.8 836 102.75 842.7 102.65 844.35 101.55 845.3 99.8 846.25 98.05 846.25 96 846.25 93.4 844.7 91.3 843.2 89.25 840.8 88.4 840.75 91.65 838.4 93.95 836.05 96.25 832.75 96.25 831.8 96.25 830.7 96 833.3 95.3 835 93.15 836.7 91 836.7 88.2 836.7 85.6 835.15 83.5 833.65 81.45 831.25 80.65 831.2 83.9 828.85 86.2 826.5 88.5 823.2 88.5 822.15 88.5 821.15 88.2 823.75 87.5 825.45 85.4 827.15 83.25 827.15 80.45 827.15 77.65 825.45 75.5 823.75 73.35 821.15 72.65 822.25 72.4 823.2 72.4 826.5 72.4 828.85 74.7 831.2 77 831.25 80.25 833.65 79.45 835.15 77.4 836.7 75.3 836.7 72.65 836.7 69.9 835 67.75 833.3 65.6 830.7 64.9 831.7 64.6 832.75 64.6 836.05 64.6 838.4 66.9 840.75 69.25 840.8 72.5 843.2 71.65 844.7 69.6 846.25 67.5 846.25 64.9 846.25 62.15 844.55 59.95 842.9 57.8 840.25 57.1 841.35 56.85 842.3 56.85 845.6 56.85 847.95 59.2 850.3 61.5 850.35 64.8 851.35 64.6 851.85 64.6 855.1 64.6 857.45 66.9 859.85 69.25 859.9 72.5 862.3 71.65 863.8 69.6 865.35 67.5 865.35 64.9 865.35 62.15 863.65 59.95 862 57.8 859.35 57.1 860.45 56.85 861.4 56.85 864.7 56.85 867.05 59.2 869.4 61.5 869.45 64.8 870.35 64.6 870.95 64.6 874.2 64.6 876.55 66.9 878.9 69.25 878.95 72.5 881.4 71.65 882.9 69.6 884.45 67.5 884.45 64.9 884.45 62.1 882.75 59.95 881.05 57.8 878.4 57.1 879.55 56.85 880.45 56.85 883.8 56.85 886.15 59.2 888.45 61.5 888.5 64.8 889.5 64.6 890 64.6 891.35 64.6 892.75 65.1
M 803.1 68.85
Q 805.9 68.85 807.9 70.85 809.9 72.85 809.9 75.65 809.9 78.45 807.9 80.45 805.9 82.45 803.1 82.45 800.25 82.45 798.25 80.45 796.25 78.45 796.25 75.65 796.25 72.85 798.25 70.85 800.25 68.85 803.1 68.85 Z"/>
</g>

<g id="Symbol_2_0_Layer0_0_MEMBER_12_FILL">
<path fill="#FFFFFF" stroke="none" d="
M 803.1 68.85
Q 800.25 68.85 798.25 70.85 796.25 72.85 796.25 75.65 796.25 78.45 798.25 80.45 800.25 82.45 803.1 82.45 805.9 82.45 807.9 80.45 809.9 78.45 809.9 75.65 809.9 72.85 807.9 70.85 805.9 68.85 803.1 68.85
M 798.7 73
Q 799.3 71.9 800.1 71.35 801.2 70.6 802.9 70.6 805.1 70.6 806.8 71.45
L 807.25 71.7 804.85 73.7
Q 804.3 74.25 804.7 74.4 805.15 74.25 806.25 74.3 807.35 74.35 807.8 74.2 808.25 75 808.2 75.7 808.2 76.2 807.85 77.3 807.1 79.35 805.15 80.05 803.2 80.75 800.8 79.8 799.15 79.15 798.45 78.2 797.7 77.15 797.85 75.6 797.95 74.25 798.7 73 Z"/>
</g>

<g id="Symbol_2_0_Layer0_0_MEMBER_13_FILL">
<path fill="#6B4C23" stroke="none" d="
M 804.85 73.7
L 807.25 71.7 806.8 71.45
Q 805.1 70.6 802.9 70.6 801.2 70.6 800.1 71.35 799.3 71.9 798.7 73 797.95 74.25 797.85 75.6 797.7 77.15 798.45 78.2 799.15 79.15 800.8 79.8 803.2 80.75 805.15 80.05 807.1 79.35 807.85 77.3 808.2 76.2 808.2 75.7 808.25 75 807.8 74.2 807.35 74.35 806.25 74.3 805.15 74.25 804.7 74.4 804.3 74.25 804.85 73.7 Z"/>
</g>

<g id="Symbol_2_0_Layer0_0_MEMBER_14_FILL">
<path fill="#EB9813" stroke="none" d="
M 891.85 67.3
Q 892.45 66.05 892.75 65.1 891.35 64.6 890 64.6 889.5 64.6 888.5 64.8 888.45 61.5 886.15 59.2 883.8 56.85 880.45 56.85 879.55 56.85 878.4 57.1 881.05 57.8 882.75 59.95 884.45 62.1 884.45 64.9 884.45 67.5 882.9 69.6 881.4 71.65 878.95 72.5 878.9 69.25 876.55 66.9 874.2 64.6 870.95 64.6 870.35 64.6 869.45 64.8 869.4 61.5 867.05 59.2 864.7 56.85 861.4 56.85 860.45 56.85 859.35 57.1 862 57.8 863.65 59.95 865.35 62.15 865.35 64.9 865.35 67.5 863.8 69.6 862.3 71.65 859.9 72.5 859.85 69.25 857.45 66.9 855.1 64.6 851.85 64.6 851.35 64.6 850.35 64.8 850.3 61.5 847.95 59.2 845.6 56.85 842.3 56.85 841.35 56.85 840.25 57.1 842.9 57.8 844.55 59.95 846.25 62.15 846.25 64.9 846.25 67.5 844.7 69.6 843.2 71.65 840.8 72.5 840.75 69.25 838.4 66.9 836.05 64.6 832.75 64.6 831.7 64.6 830.7 64.9 833.3 65.6 835 67.75 836.7 69.9 836.7 72.65 836.7 75.3 835.15 77.4 833.65 79.45 831.25 80.25 831.2 77 828.85 74.7 826.5 72.4 823.2 72.4 822.25 72.4 821.15 72.65 823.75 73.35 825.45 75.5 827.15 77.65 827.15 80.45 827.15 83.25 825.45 85.4 823.75 87.5 821.15 88.2 822.15 88.5 823.2 88.5 826.5 88.5 828.85 86.2 831.2 83.9 831.25 80.65 833.65 81.45 835.15 83.5 836.7 85.6 836.7 88.2 836.7 91 835 93.15 833.3 95.3 830.7 96 831.8 96.25 832.75 96.25 836.05 96.25 838.4 93.95 840.75 91.65 840.8 88.4 843.2 89.25 844.7 91.3 846.25 93.4 846.25 96 846.25 98.05 845.3 99.8 844.35 101.55 842.7 102.65
L 847.15 102.4
Q 850.35 99.95 850.35 96 850.35 93.25 848.65 91.05 847 88.9 844.35 88.2 846.95 87.5 848.6 85.45 850.3 83.3 850.35 80.55 851.1 80.7 851.85 80.7 855.1 80.7 857.45 78.4 859.85 76.1 859.9 72.85 862.3 73.7 863.8 75.75 865.35 77.85 865.35 80.45 865.35 83.25 863.65 85.4 861.95 87.5 859.35 88.2 860.35 88.5 861.4 88.5 864.65 88.5 867 86.2 869.35 83.9 869.4 80.65 871.85 81.45 873.35 83.5 874.9 85.6 874.9 88.2
L 874.8 89.1
Q 876.1 88 878.5 85.6 877.85 83.7 876.4 82.35 874.95 80.95 873 80.45 875.6 79.75 877.25 77.7 878.9 75.55 878.95 72.85 881.05 73.55 882.45 75.2 883.9 76.85 884.3 79
L 886.85 75.55
Q 885.2 73.4 882.55 72.65 885.1 71.95 886.75 69.9 888.45 67.8 888.5 65.1 890.5 65.8 891.85 67.3
M 848.6 69.9
Q 850.3 67.8 850.35 65.1 852.75 65.9 854.25 67.95 855.8 70.05 855.8 72.65 855.8 75.3 854.25 77.4 852.75 79.45 850.35 80.25 850.3 77.55 848.6 75.4 846.9 73.35 844.35 72.65 846.95 71.95 848.6 69.9
M 846.25 80.45
Q 846.25 83.05 844.7 85.15 843.2 87.2 840.8 88.05 840.75 85.35 839.05 83.2 837.35 81.15 834.8 80.45 837.35 79.75 839.05 77.7 840.75 75.55 840.8 72.85 843.2 73.7 844.7 75.75 846.25 77.85 846.25 80.45
M 873.35 67.95
Q 874.9 70.05 874.9 72.65 874.9 75.3 873.35 77.4 871.85 79.45 869.4 80.25 869.35 77.55 867.7 75.4 866.05 73.35 863.45 72.65 866.05 71.95 867.7 69.9 869.35 67.8 869.4 65.1 871.85 65.9 873.35 67.95 Z"/>
</g>

<g id="Symbol_2_0_Layer0_0_MEMBER_15_FILL">
<path fill="#EB7F13" stroke="none" d="
M 892.75 65.1
Q 892.45 66.05 891.85 67.3
L 892.3 67.85
Q 893.2 69 893.65 70.4 893.95 71.55 893.95 72.65 893.95 76 891.65 78.3 890.7 79.25 889.65 79.75
L 888.5 80.25
Q 888.5 79.65 888.35 78.95 888.05 77.05 886.85 75.55
L 884.3 79
Q 884.45 80.35 884.45 80.45 884.45 83.05 882.9 85.15 881.4 87.2 878.95 88.05 878.95 86.75 878.5 85.6 876.1 88 874.8 89.1 874.65 90.45 874.15 91.45 873.8 92.3 873 93.35
L 872.9 93.5
Q 872.3 94.2 871.1 95.05 869.9 95.75 868.9 96 870 96.25 870.95 96.25 873.6 96.25 875.7 94.7 877.8 93.15 878.6 90.7 878.95 89.4 878.95 88.35
L 880.45 88.5
Q 883.8 88.5 886.15 86.2 888.45 83.85 888.5 80.55 889.25 80.7 890 80.7 892.85 80.7 895.05 78.95 897.25 77.15 897.85 74.45 898.05 73.7 898.05 72.65 898.05 70.1 896.55 68 895.1 66 892.75 65.1 Z"/>
</g>

<g id="Symbol_2_0_Layer0_0_MEMBER_16_FILL">
<path fill="#EB7F13" stroke="none" d="
M 846.65 102.75
L 847.15 102.4 842.7 102.65 841.5 103.3
Q 840.9 103.6 840.25 103.75 841.25 104.05 842.3 104.05 843 104.05 843.65 103.9 844.3 103.85 844.9 103.6 845.7 103.35 846.65 102.75 Z"/>
</g>
</defs>

<g transform="matrix( 1, 0, 0, 1, 227.5,135.9) ">
<g transform="matrix( 0.871978759765625, 0, 0, 0.871978759765625, 14.75,82.35) ">
<g transform="matrix( 1.5068359375, 0, 0, 1.5068359375, -14.85,14.7) ">
<g filter="url(#Filter_1)" transform="matrix( 0.761077880859375, 0, 0, 0.761077880859375, -174.5,-175.85) ">
<g transform="matrix( 1.7382965087890625, 0, 0, 1.7382965087890625, 229.3,231.05) ">
<g transform="matrix( 1, 0, 0, 1, -885.6,-98.95) ">
<use xlink:href="#Symbol_2_0_Layer0_0_MEMBER_0_FILL"/>
</g>

<g transform="matrix( 1, 0, 0, 1, -885.6,-98.95) ">
<use xlink:href="#Symbol_2_0_Layer0_0_MEMBER_1_FILL"/>
</g>

<g transform="matrix( 1, 0, 0, 1, -885.6,-98.95) ">
<use xlink:href="#Symbol_2_0_Layer0_0_MEMBER_2_FILL"/>
</g>

<g transform="matrix( 1, 0, 0, 1, -885.6,-98.95) ">
<use xlink:href="#Symbol_2_0_Layer0_0_MEMBER_3_FILL"/>
</g>

<g transform="matrix( 1, 0, 0, 1, -885.6,-98.95) ">
<use xlink:href="#Symbol_2_0_Layer0_0_MEMBER_4_FILL"/>
</g>

<g transform="matrix( 1, 0, 0, 1, -885.6,-98.95) ">
<use xlink:href="#Symbol_2_0_Layer0_0_MEMBER_5_FILL"/>
</g>

<g transform="matrix( 1, 0, 0, 1, -885.6,-98.95) ">
<use xlink:href="#Symbol_2_0_Layer0_0_MEMBER_6_FILL"/>
</g>

<g transform="matrix( 1, 0, 0, 1, -885.6,-98.95) ">
<use xlink:href="#Symbol_2_0_Layer0_0_MEMBER_7_FILL"/>
</g>

<g transform="matrix( 1, 0, 0, 1, -885.6,-98.95) ">
<use xlink:href="#Symbol_2_0_Layer0_0_MEMBER_8_FILL"/>
</g>

<g transform="matrix( 1, 0, 0, 1, -885.6,-98.95) ">
<use xlink:href="#Symbol_2_0_Layer0_0_MEMBER_9_FILL"/>
</g>

<g transform="matrix( 1, 0, 0, 1, -885.6,-98.95) ">
<use xlink:href="#Symbol_2_0_Layer0_0_MEMBER_10_FILL"/>
</g>

<g transform="matrix( 1, 0, 0, 1, -885.6,-98.95) ">
<use xlink:href="#Symbol_2_0_Layer0_0_MEMBER_11_FILL"/>
</g>

<g transform="matrix( 1, 0, 0, 1, -885.6,-98.95) ">
<use xlink:href="#Symbol_2_0_Layer0_0_MEMBER_12_FILL"/>
</g>

<g transform="matrix( 1, 0, 0, 1, -885.6,-98.95) ">
<use xlink:href="#Symbol_2_0_Layer0_0_MEMBER_13_FILL"/>
</g>

<g transform="matrix( 1, 0, 0, 1, -885.6,-98.95) ">
<use xlink:href="#Symbol_2_0_Layer0_0_MEMBER_14_FILL"/>
</g>

<g transform="matrix( 1, 0, 0, 1, -885.6,-98.95) ">
<use xlink:href="#Symbol_2_0_Layer0_0_MEMBER_15_FILL"/>
</g>

<g transform="matrix( 1, 0, 0, 1, -885.6,-98.95) ">
<use xlink:href="#Symbol_2_0_Layer0_0_MEMBER_16_FILL"/>
</g>
</g>
</g>
</g>
</g>
</g>
</svg>
