
<svg xmlns="http://www.w3.org/2000/svg" version="1.1" xmlns:xlink="http://www.w3.org/1999/xlink" preserveAspectRatio="none" x="0px" y="0px" width="455px" height="457px" viewBox="0 0 455 457">
<defs>
<filter id="Filter_1" x="-20%" y="-20%" width="140%" height="140%" color-interpolation-filters="sRGB">
<feFlood flood-color="#000000" flood-opacity="1" in="SourceGraphic" result="result1"/>

<feComposite in2="SourceGraphic" in="result1" operator="in" result="result2"/>

<feGaussianBlur in="result2" stdDeviation="4.333333333333333,4.333333333333333" result="result3"/>

<feOffset dx="0" dy="0" in="result3" result="result4"/>

<feComposite in2="result4" in="SourceGraphic" operator="over" result="result5"/>
</filter>

<g id="Symbol_2_copy_0_Layer0_0_MEMBER_0_FILL">
<path fill="#845A3D" stroke="none" d="
M 180.35 114.75
L 185.75 140.75 218.5 179.8 223.1 186.1 243.75 191.6
Q 242.15 185.5 238 180.75 233.85 176 228 173.65
L 223.95 171.95 204.9 133.3 202.95 94.9 180.35 114.75 Z"/>
</g>

<g id="Symbol_2_copy_0_Layer0_0_MEMBER_1_FILL">
<path fill="#845A3D" stroke="none" d="
M 114.65 181.65
Q 118.35 171.6 119.1 158.55 119.7 147.85 118.4 133.15
L 90.4 91.7 67.8 118.75 101.65 146.1 102.8 184.05
Q 102.9 187.05 105.05 189.15 107.2 191.25 110.25 191.25
L 145.1 191.25 138.2 186.6
Q 131.4 182 123.25 181.85
L 114.65 181.65 Z"/>
</g>

<g id="Symbol_2_copy_0_Layer0_0_MEMBER_2_FILL">
<path fill="#845A3D" stroke="none" d="
M 47.9 13.3
Q 54.6 17.85 56.6 24.9 58.3 30.6 56.25 36 54.35 41 50.45 43.15 48.3 44.3 45.9 44.5 43.45 44.7 41.35 43.9 39.2 43.1 37.7 41.35 36.2 39.6 35.8 37.5 35.45 35.65 33.85 34.6 32.3 33.55 30.4 33.9 28.55 34.3 27.5 35.85 26.45 37.4 26.8 39.25 27.7 43.7 30.7 47.2 33.7 50.7 38 52.4 42 54 46.5 53.65 50.95 53.3 54.85 51.15 61.85 47.3 64.85 39.05 67.9 30.75 65.4 22.3 62.45 12.15 53.2 5.8 43.95 -0.55 33.1 0.05 22.85 0.6 14.15 7.3 5.5 14 2.1 24.1 -0.65 32.1 0.2 41.2 1.05 50.25 5.35 59.3 9.55 68 17.3 74.9 25.1 81.8 35.4 85.9 41.45 88.4 48.2 88.4 55.5 88.4 63.05 85.5
L 63.45 75.15
Q 56.95 77.75 50.6 78.5 43.4 79.3 38.8 77.45 30.05 73.95 23.55 68.2 17.05 62.5 13.6 55.35 10.1 48.05 9.35 40.65 8.6 33.25 10.75 27.05 13.25 19.65 19.7 14.6 26.15 9.55 33.6 9.15 41.25 8.75 47.9 13.3 Z"/>
</g>

<g id="Symbol_2_copy_0_Layer0_0_MEMBER_3_FILL">
<path fill="#966C4D" stroke="none" d="
M 192.7 68.5
L 183.9 73.1 115.55 64.8
Q 99.55 65.05 87.5 67.25 73.6 69.8 63.45 75.15
L 54.6 104.6 71.4 145.6 52.05 178.9 61.65 190.6
Q 63.3 192.6 65.7 193.75 68.05 194.85 70.65 194.85
L 97.05 194.85 96.1 193.95
Q 92.65 190.5 88.1 188.5 83.6 186.5 78.65 186.25 69.7 185.7 64.85 182.35 84.1 164.6 94.2 144
L 91.05 104.6
Q 111.55 113.75 126.4 118.35 145.05 124.1 159.95 124.55
L 154.55 136.5 159.9 188.7
Q 160.15 191.3 162.1 193.1 164.05 194.85 166.7 194.85
L 195 194.85 193.45 193.1
Q 191.1 190.3 187.75 188.75 184.35 187.2 180.65 187.2
L 170.8 187.2
Q 167.7 162.05 174.5 144
L 208.65 97.5 192.7 68.5 Z"/>
</g>

<g id="Symbol_2_copy_0_Layer0_0_MEMBER_4_FILL">
<path fill="#E5D8C7" stroke="none" d="
M 126.4 118.35
Q 145.05 124.1 159.95 124.55
L 166 113.55 90.7 98.25 91.05 104.6
Q 111.55 113.75 126.4 118.35 Z"/>
</g>

<g id="Symbol_2_copy_0_Layer0_0_MEMBER_5_FILL">
<path fill="#9B7254" stroke="none" d="
M 170.1 88.4
L 174.55 74.95 114.25 69.05 71.45 77.95 61.4 104.4 78.35 131.5 87.05 88.4 165.5 106.4 179.65 99.9 170.1 88.4 Z"/>
</g>

<g id="Symbol_2_copy_0_Layer0_0_MEMBER_6_MEMBER_0_FILL">
<path fill="#A27E5F" stroke="none" d="
M 181.3 64.4
L 177.1 87.95
Q 186.7 103.75 202.2 108.4 217.75 103.75 227.3 87.95
L 223.1 64.4
Q 220.85 58.65 214.75 55.2 208.95 52 202.05 52 195.2 52 189.55 55.2 183.55 58.65 181.3 64.4 Z"/>
</g>

<g id="Symbol_2_copy_0_Layer0_0_MEMBER_6_MEMBER_1_FILL">
<path fill="#F49C9A" stroke="none" d="
M 223.1 64.4
L 226.3 82.35
Q 232.35 79.25 235.4 70.65
L 223.1 64.4 Z"/>
</g>

<g id="Symbol_2_copy_0_Layer0_0_MEMBER_6_MEMBER_2_FILL">
<path fill="#966C4D" stroke="none" d="
M 224.5 72.35
L 235.4 70.65 223.1 64.4 224.5 72.35 Z"/>
</g>

<g id="Symbol_2_copy_0_Layer0_0_MEMBER_6_MEMBER_3_FILL">
<path fill="#F49C9A" stroke="none" d="
M 178.1 82.35
L 181.3 64.4 169 70.65
Q 172.05 79.25 178.1 82.35 Z"/>
</g>

<g id="Symbol_2_copy_0_Layer0_0_MEMBER_6_MEMBER_4_FILL">
<path fill="#966C4D" stroke="none" d="
M 169 70.65
L 179.9 72.35 181.3 64.4 169 70.65 Z"/>
</g>

<g id="Symbol_2_copy_0_Layer0_0_MEMBER_6_MEMBER_5_FILL">
<path fill="#F2BEAA" stroke="none" d="
M 197.8 84.9
Q 192.8 90.6 191.25 95.6 190.75 101.6 194.5 105.6 197.8 109.15 202.2 109.15 206.6 109.15 209.95 105.6 213.65 101.6 213.15 95.6 211.7 90.75 206.6 84.9
L 208.1 84.95
Q 211.55 84.95 214.65 82.75 217.35 80.8 217.35 79.45 217.35 78.1 214.65 76.2 211.55 74 208.1 74
L 196.3 74
Q 192.85 74 189.75 76.2 187.05 78.1 187.05 79.45 187.05 80.8 189.75 82.75 192.85 84.95 196.3 84.95
L 197.8 84.9 Z"/>
</g>

<g id="Symbol_2_copy_0_Layer0_0_MEMBER_6_MEMBER_6_MEMBER_0_FILL">
<path fill="#000000" stroke="none" d="
M 211.65 78.6
Q 211.65 77.5 210.85 76.75 210.1 76 209 76 207.9 76 207.15 76.75 206.35 77.5 206.35 78.6 206.35 79.7 207.15 80.5 207.9 81.25 209 81.25 210.1 81.25 210.85 80.5 211.65 79.7 211.65 78.6 Z"/>
</g>

<g id="Symbol_2_copy_0_Layer0_0_MEMBER_6_MEMBER_6_MEMBER_1_FILL">
<path fill="#FFFFFF" stroke="none" d="
M 210.55 77.4
Q 210.55 76.85 210 76.85 209.45 76.85 209.45 77.4 209.45 77.95 210 77.95 210.55 77.95 210.55 77.4 Z"/>
</g>

<g id="Symbol_2_copy_0_Layer0_0_MEMBER_6_MEMBER_6_MEMBER_2_FILL">
<path fill="#000000" stroke="none" d="
M 198.05 78.6
Q 198.05 77.5 197.25 76.75 196.5 76 195.4 76 194.3 76 193.55 76.75 192.75 77.5 192.75 78.6 192.75 79.7 193.55 80.5 194.3 81.25 195.4 81.25 196.5 81.25 197.25 80.5 198.05 79.7 198.05 78.6 Z"/>
</g>

<g id="Symbol_2_copy_0_Layer0_0_MEMBER_6_MEMBER_6_MEMBER_3_FILL">
<path fill="#FFFFFF" stroke="none" d="
M 196.95 77.4
Q 196.95 76.85 196.4 76.85 195.85 76.85 195.85 77.4 195.85 77.95 196.4 77.95 196.95 77.95 196.95 77.4 Z"/>
</g>

<g id="Symbol_2_copy_0_Layer0_0_MEMBER_6_MEMBER_7_MEMBER_0_FILL">
<path fill="#CE846E" stroke="none" d="
M 206.15 94.4
Q 206.3 93.9 206.05 93.7 205.75 93.55 205.4 93.7
L 204.45 94.45
Q 203.85 95 203.7 95.35 203.5 95.7 203.65 96 203.8 96.25 204.35 96.15 205 95.95 205.45 95.5 205.95 95.05 206.15 94.4 Z"/>
</g>

<g id="Symbol_2_copy_0_Layer0_0_MEMBER_6_MEMBER_7_MEMBER_1_FILL">
<path fill="#CE846E" stroke="none" d="
M 200.7 95.3
L 200 94.45
Q 199.6 94.05 199.1 93.8 198.7 93.55 198.4 93.7 198.1 93.9 198.25 94.35 198.35 94.85 199 95.5 199.6 96.1 200.2 96.2 200.6 96.25 200.8 96 200.95 95.7 200.7 95.3 Z"/>
</g>

<g id="Symbol_2_copy_0_Layer0_0_MEMBER_6_MEMBER_8_FILL">
<path fill="#A56051" stroke="none" d="
M 209.95 100.55
Q 210.45 100.1 210.45 100 210.4 99.85 209.85 100
L 205.85 101.25
Q 203.75 101.65 202.1 101.65 200.2 101.65 198.3 101.2
L 194.9 100.2
Q 194.4 100 194.3 100 193.8 99.85 193.7 100 193.6 100.1 194.2 100.5 194.7 100.9 195.85 101.5
L 198.55 102.5
Q 200.35 102.95 202.05 103 203.7 103 205.6 102.55
L 208.3 101.55 209.95 100.55 Z"/>
</g>

<g id="Symbol_2_copy_0_Layer0_0_MEMBER_6_MEMBER_9_MEMBER_0_FILL">
<path fill="#AF8969" stroke="none" d="
M 197 62.9
Q 198.05 61.9 198.15 60.55 198.25 59.15 197.1 57.65 196 56.1 194.65 55.8 193.35 55.5 192 56.2 190.75 57 190.5 58.55 190.35 60.3 191.45 61.8 192.7 63.4 194.3 63.65 195.95 64 197 62.9 Z"/>
</g>

<g id="Symbol_2_copy_0_Layer0_0_MEMBER_6_MEMBER_9_MEMBER_1_FILL">
<path fill="#AF8969" stroke="none" d="
M 199.75 58.65
Q 199.6 60.65 200.45 62.1 201.3 63.7 202.65 63.9 204.25 64.15 205.3 63.05 206.55 61.8 206.75 59.1 206.9 56.3 205.85 54.95 204.9 53.7 203.3 53.8 201.9 53.9 200.85 55.3 199.9 56.75 199.75 58.65 Z"/>
</g>

<g id="Symbol_2_copy_0_Layer0_0_MEMBER_6_MEMBER_9_MEMBER_2_FILL">
<path fill="#AF8969" stroke="none" d="
M 209.1 59.5
Q 209.5 60.95 210.55 61.75 211.6 62.6 213.1 62.6 214.65 62.6 215.65 61.65 216.75 60.55 216.7 59.2 216.6 57.6 214.9 56.25 213.1 54.9 211.6 55.15 210.25 55.45 209.45 56.8 208.8 58.05 209.1 59.5 Z"/>
</g>

<g id="Symbol_2_copy_0_Layer0_0_MEMBER_6_MEMBER_9_MEMBER_3_FILL">
<path fill="#AF8969" stroke="none" d="
M 215.35 67
Q 215.35 65.55 214.05 64.65 213 63.85 211.35 64.1 209.95 64.25 208.8 65.3 207.7 66.25 207.3 67.7 206.85 69.25 207.5 70.45 208.35 71.85 209.75 72 211.55 72.25 213.45 70.5 215.35 68.8 215.35 67 Z"/>
</g>

<g id="Symbol_2_copy_0_Layer0_0_MEMBER_6_MEMBER_9_MEMBER_4_FILL">
<path fill="#AF8969" stroke="none" d="
M 222.15 72.8
Q 223.1 71.7 222.9 69.8 222.75 67.85 221.65 66.95 220.65 66.1 219.1 66.2 217.65 66.3 216.75 67.55 215.8 68.75 215.95 70.35 216.05 71.95 217.2 72.95 218.3 74 219.75 73.9 221.3 73.8 222.15 72.8 Z"/>
</g>

<g id="Symbol_2_copy_0_Layer0_0_MEMBER_6_MEMBER_9_MEMBER_5_FILL">
<path fill="#AF8969" stroke="none" d="
M 202.15 66
Q 201.25 64.95 199.7 64.8 198.25 64.65 197.15 65.45 196 66.25 195.6 67.6 195.2 68.95 195.8 70.3 196.55 71.7 197.8 72.05 199.4 72.4 201.1 71.25 202.9 70.05 203.05 68.5 203.2 67.15 202.15 66 Z"/>
</g>

<g id="Symbol_2_copy_0_Layer0_0_MEMBER_6_MEMBER_9_MEMBER_6_FILL">
<path fill="#AF8969" stroke="none" d="
M 186.1 63.05
Q 184.65 62.95 183.55 64.05 182.55 65.1 182.85 66.8 183.1 68.45 184.5 69.8 185.9 71.15 187.6 71.4 189.3 71.6 190.3 70.55 191.4 69.45 191.25 68 191.05 66.4 189.35 64.75 187.65 63.15 186.1 63.05 Z"/>
</g>

<g id="Symbol_2_copy_0_Layer0_0_MEMBER_6_MEMBER_10_MEMBER_0_FILL">
<path fill="#9B7254" stroke="none" d="
M 200.4 70.1
Q 200.75 70.8 201.55 70.9 202.3 70.95 202.85 70 203.45 68.85 203.25 67.45 203.1 66.05 202.3 65.05 201.55 64.2 200.85 64.45 200.2 64.65 199.85 65.55 199.6 66.5 199.8 67.85 199.95 69.35 200.4 70.1 Z"/>
</g>

<g id="Symbol_2_copy_0_Layer0_0_MEMBER_6_MEMBER_10_MEMBER_1_FILL">
<path fill="#9B7254" stroke="none" d="
M 198.05 69.35
Q 197.95 68.2 197.15 67 196.25 65.8 195.2 65.3 194.15 64.9 193.6 65.35 193.1 65.85 193.15 66.75 193.3 67.7 194.25 69 195.15 70.3 196.05 70.8 196.95 71.2 197.5 70.85 198.2 70.45 198.05 69.35 Z"/>
</g>

<g id="Symbol_2_copy_0_Layer0_0_MEMBER_6_MEMBER_10_MEMBER_2_FILL">
<path fill="#9B7254" stroke="none" d="
M 198.8 63
Q 198.45 61.9 197.6 61.4 196.8 60.9 196.15 61.25 195.45 61.65 195.3 62.35 195.15 63.1 195.5 64.15 195.85 65.2 196.5 65.7 197 66.15 197.8 66.05 198.55 65.9 198.85 65.05 199.2 64.05 198.8 63 Z"/>
</g>

<g id="Symbol_2_copy_0_Layer0_0_MEMBER_6_MEMBER_10_MEMBER_3_FILL">
<path fill="#9B7254" stroke="none" d="
M 192.65 70.6
Q 192.4 69.8 191.7 69.1 190.9 68.45 190.1 68.3 189.25 68.15 188.7 68.6 188.15 69.1 188.2 69.85 188.3 70.75 189.3 71.7 190.3 72.65 191.25 72.65 192 72.65 192.5 72.05 192.9 71.4 192.65 70.6 Z"/>
</g>

<g id="Symbol_2_copy_0_Layer0_0_MEMBER_6_MEMBER_10_MEMBER_4_FILL">
<path fill="#9B7254" stroke="none" d="
M 208.95 65.5
Q 208.9 64.3 208.2 64.05 206.65 63.35 205.25 66.75 203.9 70.1 205.5 70.8 206.15 71.05 207.05 70.25 207.95 69.45 208.5 68.05 209.05 66.65 208.95 65.5 Z"/>
</g>

<g id="Symbol_2_copy_0_Layer0_0_MEMBER_6_MEMBER_10_MEMBER_5_FILL">
<path fill="#9B7254" stroke="none" d="
M 205.35 63.65
Q 205.95 62.85 206.05 61.65 206.15 60.45 205.7 59.55 205.25 58.7 204.55 58.6 203.8 58.5 203.25 59.15 202.65 59.9 202.55 61.3 202.4 62.75 202.85 63.6 203.25 64.3 204 64.35 204.75 64.45 205.35 63.65 Z"/>
</g>

<g id="Symbol_2_copy_0_Layer0_0_MEMBER_6_MEMBER_10_MEMBER_6_FILL">
<path fill="#9B7254" stroke="none" d="
M 214.45 66.45
Q 214.7 65.2 214.3 64.8 213.75 64.15 212.75 64.6 211.45 65.15 210.4 66.95 209.35 68.7 209.55 70.2 209.7 71.25 210.5 71.45 211.15 71.6 212 70.75 212.55 70.15 213.45 68.7 214.15 67.5 214.45 66.45 Z"/>
</g>

<g id="Symbol_2_copy_0_Layer0_0_MEMBER_6_MEMBER_10_MEMBER_7_FILL">
<path fill="#9B7254" stroke="none" d="
M 209.55 58.1
Q 208.7 61 210.35 61.5 211.05 61.7 211.8 61 212.55 60.3 212.9 59.1 213.3 57.9 213.05 56.9 212.8 55.95 212.1 55.7 211.35 55.5 210.7 56.05 209.95 56.65 209.55 58.1 Z"/>
</g>

<g id="Symbol_2_copy_0_Layer0_0_MEMBER_6_MEMBER_10_MEMBER_8_FILL">
<path fill="#9B7254" stroke="none" d="
M 218.65 70.2
Q 217.75 68.75 215.45 70.1 213.2 71.5 214.1 73 214.5 73.6 215.4 73.65 216.35 73.65 217.3 73.1 218.25 72.55 218.65 71.7 219.05 70.85 218.65 70.2 Z"/>
</g>

<g id="Symbol_2_copy_0_Layer0_0_MEMBER_6_MEMBER_10_MEMBER_9_FILL">
<path fill="#9B7254" stroke="none" d="
M 219.15 65.45
Q 219.8 64.65 219.95 63.7 220.15 62.75 219.65 62.25 219.1 61.7 218.25 61.9 217.2 62.2 216.35 63.35 215.4 64.55 215.5 65.6 215.5 66.45 216.2 66.8 216.8 67.1 217.7 66.7 218.5 66.3 219.15 65.45 Z"/>
</g>

<g id="Symbol_2_copy_0_Layer0_0_MEMBER_6_MEMBER_10_MEMBER_10_FILL">
<path fill="#9B7254" stroke="none" d="
M 213.65 59.7
Q 212.95 60.95 213.05 61.9 213.2 62.75 213.9 63.05 214.5 63.35 215.35 62.9 216.1 62.45 216.7 61.5 217.25 60.55 217.25 59.65 217.25 58.7 216.65 58.3 216 57.8 215.25 58.15 214.35 58.5 213.65 59.7 Z"/>
</g>

<g id="Symbol_2_copy_0_Layer0_0_MEMBER_6_MEMBER_10_MEMBER_11_FILL">
<path fill="#9B7254" stroke="none" d="
M 189.8 66.95
Q 190.65 67.3 191.3 66.9 191.95 66.5 191.7 65.35 191.45 64.1 190.4 63.05 189.4 61.95 188.15 61.7 187 61.45 186.6 62.1 186.15 62.75 186.5 63.55 186.8 64.4 187.9 65.5 189.1 66.7 189.8 66.95 Z"/>
</g>

<g id="Symbol_2_copy_0_Layer0_0_MEMBER_6_MEMBER_10_MEMBER_12_FILL">
<path fill="#9B7254" stroke="none" d="
M 192.6 59.65
Q 192 58.45 191 58.05 190.05 57.65 189.5 58.15 188.95 58.55 188.95 59.45 188.9 60.15 189.5 61.25 190.1 62.35 190.7 62.8 191.4 63.2 192.1 63.05 192.85 62.8 193 61.85 193.25 60.85 192.6 59.65 Z"/>
</g>

<g id="Symbol_2_copy_0_Layer0_0_MEMBER_6_MEMBER_10_MEMBER_13_FILL">
<path fill="#9B7254" stroke="none" d="
M 192.75 57.75
Q 192.95 58.7 193.55 59.05 194.05 59.5 194.8 59.4 195.6 59.25 195.95 58.55 196.35 57.8 196.15 56.85 195.85 55.9 195.15 55.45 194.45 55 193.75 55.3 193 55.65 192.8 56.2 192.5 56.85 192.75 57.75 Z"/>
</g>

<g id="Symbol_2_copy_0_Layer0_0_MEMBER_6_MEMBER_10_MEMBER_14_FILL">
<path fill="#9B7254" stroke="none" d="
M 200.25 58.15
Q 200.6 57.1 200.35 55.8 200.1 54.45 199.4 53.6 198.7 52.75 198 52.9 197.25 53 196.95 53.9 196.6 54.85 196.9 56.45 197.45 59.65 199.2 59.35 199.9 59.2 200.25 58.15 Z"/>
</g>

<g id="Symbol_2_copy_0_Layer0_0_MEMBER_6_MEMBER_10_MEMBER_15_FILL">
<path fill="#9B7254" stroke="none" d="
M 182.65 66.7
Q 182.85 67.35 183.65 67.8 184.45 68.3 185.1 68.3 185.85 68.2 186.3 67.75 186.85 67.25 186.7 66.4 186.55 65.45 185.55 64.85 184.7 64.25 183.7 64.45 182.85 64.7 182.6 65.4 182.4 66 182.65 66.7 Z"/>
</g>

<g id="Symbol_2_copy_0_Layer0_0_MEMBER_6_MEMBER_10_MEMBER_16_FILL">
<path fill="#9B7254" stroke="none" d="
M 187.5 71.85
Q 187.1 71 186.15 70.35 185.2 69.7 184.25 69.65 183.25 69.6 182.85 70.2 181.85 71.65 184.2 73.25 186.5 74.8 187.5 73.35 187.9 72.75 187.5 71.85 Z"/>
</g>

<g id="Symbol_2_copy_0_Layer0_0_MEMBER_6_MEMBER_10_MEMBER_17_FILL">
<path fill="#9B7254" stroke="none" d="
M 205.4 57.4
Q 205.75 57.95 206.6 58.05 207.3 58.1 207.9 57.5 208.45 56.9 208.6 56.05 208.7 55.15 208.35 54.45 208 53.7 207.35 53.5 206.55 53.35 206 53.75 205.3 54.25 205.1 55.45 204.95 56.75 205.4 57.4 Z"/>
</g>

<g id="Symbol_2_copy_0_Layer0_0_MEMBER_6_MEMBER_10_MEMBER_18_FILL">
<path fill="#9B7254" stroke="none" d="
M 204.3 54.15
Q 203.85 53.6 203.15 53.5 201.4 53.35 201.2 55.15 201 56.95 202.7 57.15 203.45 57.25 204 56.75 204.6 56.3 204.65 55.55 204.75 54.75 204.3 54.15 Z"/>
</g>

<g id="Symbol_2_copy_0_Layer0_0_MEMBER_6_MEMBER_10_MEMBER_19_FILL">
<path fill="#9B7254" stroke="none" d="
M 222.5 67.1
Q 222.6 66.4 222.1 65.85 221.65 65.25 220.95 65.15 220.2 65.15 219.5 65.85 218.75 66.6 218.85 67.3 218.9 67.95 219.5 68.45 220.05 68.85 220.8 68.85 221.55 68.75 222 68.3 222.5 67.8 222.5 67.1 Z"/>
</g>

<g id="Symbol_2_copy_0_Layer0_0_MEMBER_6_MEMBER_11_MEMBER_0_FILL">
<path fill="#845A3D" stroke="none" d="
M 202.45 64.8
Q 202.1 63.65 201.75 63.7 200.85 63.8 201.15 67.7 201.35 71.65 202.25 71.55 202.6 71.55 202.8 70.4 203 69.25 202.9 67.6 202.8 65.95 202.45 64.8 Z"/>
</g>

<g id="Symbol_2_copy_0_Layer0_0_MEMBER_6_MEMBER_11_MEMBER_1_FILL">
<path fill="#845A3D" stroke="none" d="
M 198 65.7
Q 197.45 64.95 197.1 65.05 196.3 65.3 197.15 68.25 198.1 71.2 198.9 70.9 199.25 70.8 199.25 69.85 199.2 68.95 198.85 67.7 198.45 66.5 198 65.7 Z"/>
</g>

<g id="Symbol_2_copy_0_Layer0_0_MEMBER_6_MEMBER_11_MEMBER_2_FILL">
<path fill="#845A3D" stroke="none" d="
M 192.45 67.1
Q 191.65 66.75 191.4 67.05 190.85 67.6 192.75 69.55 194.55 71.55 195.15 71.15 195.45 70.9 195.15 70.1 194.85 69.2 194.05 68.35 193.25 67.5 192.45 67.1 Z"/>
</g>

<g id="Symbol_2_copy_0_Layer0_0_MEMBER_6_MEMBER_11_MEMBER_3_FILL">
<path fill="#845A3D" stroke="none" d="
M 192.6 64.65
Q 194.05 67.1 194.75 66.65 195.1 66.45 194.9 65.65 194.7 64.8 194.1 63.8 193.55 62.8 192.9 62.2 192.3 61.6 191.95 61.8 191.2 62.25 192.6 64.65 Z"/>
</g>

<g id="Symbol_2_copy_0_Layer0_0_MEMBER_6_MEMBER_11_MEMBER_4_FILL">
<path fill="#845A3D" stroke="none" d="
M 198.4 58.95
Q 197.85 57.95 197.45 58.05 196.65 58.3 197.8 62.05 198.95 65.7 199.8 65.5 200.15 65.4 200.05 64.2 199.95 63.05 199.45 61.5 199 59.95 198.4 58.95 Z"/>
</g>

<g id="Symbol_2_copy_0_Layer0_0_MEMBER_6_MEMBER_11_MEMBER_5_FILL">
<path fill="#845A3D" stroke="none" d="
M 196.15 61.7
Q 196 60.45 195.25 58.9 194.55 57.45 193.55 56.45 192.7 55.6 192.4 55.85 192.1 56 192.4 56.95
L 193.65 59.65
Q 194.55 61.5 195.05 62.3 195.55 63.15 195.9 63.05 196.3 62.9 196.15 61.7 Z"/>
</g>

<g id="Symbol_2_copy_0_Layer0_0_MEMBER_6_MEMBER_11_MEMBER_6_FILL">
<path fill="#845A3D" stroke="none" d="
M 206.25 65.95
Q 206.1 65 205.75 64.9 204.9 64.8 204.45 67.95 203.95 71.05 204.85 71.25 205.2 71.3 205.6 70.4 205.95 69.55 206.15 68.2 206.35 66.85 206.25 65.95 Z"/>
</g>

<g id="Symbol_2_copy_0_Layer0_0_MEMBER_6_MEMBER_11_MEMBER_7_FILL">
<path fill="#845A3D" stroke="none" d="
M 211.95 66.15
Q 212.3 65.1 211.95 64.9 211.2 64.45 209.25 67.7 207.3 71 208.05 71.45 208.4 71.65 209.2 70.8 209.95 69.95 210.75 68.6 211.6 67.25 211.95 66.15 Z"/>
</g>

<g id="Symbol_2_copy_0_Layer0_0_MEMBER_6_MEMBER_11_MEMBER_8_FILL">
<path fill="#845A3D" stroke="none" d="
M 207.7 65.4
Q 207.85 66.25 208.25 66.25 208.8 66.3 209.65 63.35 210.5 60.4 210 60.15 209.6 59.95 209.1 60.6 208.4 61.4 208 62.9 207.6 64.2 207.7 65.4 Z"/>
</g>

<g id="Symbol_2_copy_0_Layer0_0_MEMBER_6_MEMBER_11_MEMBER_9_FILL">
<path fill="#845A3D" stroke="none" d="
M 204.65 62.7
Q 204.9 62 204.9 61.05 204.9 60.1 204.65 59.4 204.4 58.7 204 58.7 203.15 58.7 203.15 61.05 203.15 63.35 204 63.35 204.4 63.35 204.65 62.7 Z"/>
</g>

<g id="Symbol_2_copy_0_Layer0_0_MEMBER_6_MEMBER_11_MEMBER_10_FILL">
<path fill="#845A3D" stroke="none" d="
M 210.75 72.1
Q 211 72.25 211.8 71.55
L 215.2 68.4
Q 216 67.65 215.9 67.4 215.7 67 214.85 67.2 214.25 67.3 213.7 67.6 213 68 212.25 68.6 211.55 69.3 211.15 69.95 210.8 70.5 210.6 71.05 210.4 71.95 210.75 72.1 Z"/>
</g>

<g id="Symbol_2_copy_0_Layer0_0_MEMBER_6_MEMBER_11_MEMBER_11_FILL">
<path fill="#845A3D" stroke="none" d="
M 214.2 63.95
Q 214 64.65 214.3 64.9 214.9 65.3 216.8 63.1 218.65 60.85 218.2 60.4 217.95 60.1 217.25 60.4 216.4 60.9 215.45 61.95 214.45 63.2 214.2 63.95 Z"/>
</g>

<g id="Symbol_2_copy_0_Layer0_0_MEMBER_6_MEMBER_11_MEMBER_12_FILL">
<path fill="#845A3D" stroke="none" d="
M 191.5 71.4
Q 190.9 70.45 189.75 69.55 188.65 68.6 187.6 68.2 186.6 67.85 186.4 68.15 185.95 68.75 188.65 70.9 191.35 73.05 191.8 72.6 192.1 72.3 191.5 71.4 Z"/>
</g>

<g id="Symbol_2_copy_0_Layer0_0_MEMBER_6_MEMBER_11_MEMBER_13_FILL">
<path fill="#845A3D" stroke="none" d="
M 186.8 63.3
L 189.3 65.6
Q 189.85 66.05 190.1 65.9 190.5 65.75 190.35 64.9 190.15 63.95 189.3 63.15 188.45 62.3 187.45 62.2 186.6 62.1 186.5 62.5 186.4 62.8 186.8 63.3 Z"/>
</g>

<g id="Symbol_2_copy_0_Layer0_0_MEMBER_6_MEMBER_11_MEMBER_14_FILL">
<path fill="#845A3D" stroke="none" d="
M 188.45 59.55
Q 188.6 59.9 189.05 60.35 189.45 60.85 189.75 60.95 190.15 61.1 190.45 61 190.85 60.9 190.85 60.35 190.85 59.8 190.3 59.15 189.8 58.55 189.2 58.55 188.7 58.5 188.5 58.85 188.35 59.1 188.45 59.55 Z"/>
</g>

<g id="Symbol_2_copy_0_Layer0_0_MEMBER_6_MEMBER_11_MEMBER_15_FILL">
<path fill="#845A3D" stroke="none" d="
M 213 59.75
Q 211.7 62.3 212.45 62.65 212.8 62.85 213.4 62.25 214 61.6 214.55 60.6 215.8 58.15 215.1 57.7 214.3 57.35 213 59.75 Z"/>
</g>

<g id="Symbol_2_copy_0_Layer0_0_MEMBER_6_MEMBER_11_MEMBER_16_FILL">
<path fill="#845A3D" stroke="none" d="
M 209.25 54.95
Q 209.3 54 208.95 53.9 208.1 53.65 207.15 56.55 206.2 59.4 207.05 59.7 207.85 59.95 208.85 57.1 209.25 55.9 209.25 54.95 Z"/>
</g>

<g id="Symbol_2_copy_0_Layer0_0_MEMBER_6_MEMBER_11_MEMBER_17_FILL">
<path fill="#845A3D" stroke="none" d="
M 201.4 54.25
Q 201.1 53.25 200.7 53.3 199.95 53.3 199.95 56.65 199.9 59.95 200.7 60.05 201.05 60.1 201.35 59.1 201.7 58 201.7 56.65 201.7 55.25 201.4 54.25 Z"/>
</g>

<g id="Symbol_2_copy_0_Layer0_0_MEMBER_6_MEMBER_11_MEMBER_18_FILL">
<path fill="#845A3D" stroke="none" d="
M 218.25 63.9
Q 217.25 64.65 216.9 65.2 216.6 65.75 216.9 66.05 217.35 66.6 219.2 65.4 221 64.2 220.75 63.6 220.6 63.25 220 63.25 219.1 63.35 218.25 63.9 Z"/>
</g>

<g id="Symbol_2_copy_0_Layer0_0_MEMBER_6_MEMBER_11_MEMBER_19_FILL">
<path fill="#845A3D" stroke="none" d="
M 214.75 72.15
L 218.4 69.4
Q 219.15 68.75 219.1 68.45 218.95 68.1 218.05 68.15 216.8 68.35 215.5 69.35 214.15 70.4 213.65 71.55 213.3 72.35 213.65 72.6 213.95 72.7 214.75 72.15 Z"/>
</g>

<g id="Symbol_2_copy_0_Layer0_0_MEMBER_6_MEMBER_11_MEMBER_20_FILL">
<path fill="#845A3D" stroke="none" d="
M 222.4 71.9
Q 222.4 71.5 221.55 71.35 220.3 71.25 218.95 71.65 217.45 72.1 216.6 72.85 216 73.45 216.2 73.8 216.45 74.2 219.45 73.35 222.45 72.4 222.4 71.9 Z"/>
</g>

<g id="Symbol_2_copy_0_Layer0_0_MEMBER_6_MEMBER_11_MEMBER_21_FILL">
<path fill="#845A3D" stroke="none" d="
M 187.95 73.1
Q 187.6 72.15 186.55 71.25 185.6 70.4 184.5 70.15 183.55 70 183.4 70.35 183.25 70.65 183.8 71.2 184.1 71.55 185.4 72.6
L 187.05 74
Q 187.65 74.4 187.95 74.25 188.25 74 187.95 73.1 Z"/>
</g>

<g id="Symbol_2_copy_0_Layer0_0_MEMBER_6_MEMBER_12_MEMBER_0_FILL">
<path fill="#F2BEAA" stroke="none" d="
M 204.05 67.45
Q 204.6 64.8 204.15 64.7 203.7 64.6 203.2 67.3 202.7 69.9 203.1 70 203.5 70.1 204.05 67.45 Z"/>
</g>

<g id="Symbol_2_copy_0_Layer0_0_MEMBER_6_MEMBER_12_MEMBER_1_FILL">
<path fill="#F2BEAA" stroke="none" d="
M 199.75 66.35
Q 198.95 63.35 198.55 63.45 198.1 63.65 198.95 66.6 199.75 69.55 200.15 69.45 200.55 69.35 199.75 66.35 Z"/>
</g>

<g id="Symbol_2_copy_0_Layer0_0_MEMBER_6_MEMBER_12_MEMBER_2_FILL">
<path fill="#F2BEAA" stroke="none" d="
M 195.7 68
Q 194.8 66.1 194.35 66.25 193.95 66.45 194.9 68.4 195.85 70.35 196.25 70.15 196.65 69.95 195.7 68 Z"/>
</g>

<g id="Symbol_2_copy_0_Layer0_0_MEMBER_6_MEMBER_12_MEMBER_3_FILL">
<path fill="#F2BEAA" stroke="none" d="
M 208.05 67.65
Q 209.15 65.05 208.75 64.9 208.35 64.7 207.25 67.3 206.1 69.8 206.55 70 206.95 70.2 208.05 67.65 Z"/>
</g>

<g id="Symbol_2_copy_0_Layer0_0_MEMBER_6_MEMBER_12_MEMBER_4_FILL">
<path fill="#F2BEAA" stroke="none" d="
M 211.6 68.95
Q 213.55 66.95 213.35 66.7 213.2 66.55 212.6 66.95 211.9 67.35 210.95 68.35 209 70.45 209.45 70.8 209.7 70.95 211.6 68.95 Z"/>
</g>

<g id="Symbol_2_copy_0_Layer0_0_MEMBER_6_MEMBER_12_MEMBER_5_FILL">
<path fill="#F2BEAA" stroke="none" d="
M 191.65 68.6
Q 190.05 66.9 189.7 67.15 189.3 67.45 191 69.2 192.55 71 192.95 70.7 193.2 70.35 191.65 68.6 Z"/>
</g>

<g id="Symbol_2_copy_0_Layer0_0_MEMBER_6_MEMBER_13_MEMBER_0_FILL">
<path fill="#CE846E" stroke="none" d="
M 204.45 82
Q 205.05 82.85 206.1 83.4 207.15 83.85 208.25 83.85 209.1 83.75 209.1 83.55 209.1 83.4 208.45 83.25
L 207.6 83
Q 206.7 82.7 206.5 82.6 206.3 82.5 205.45 81.95
L 204.8 81.45
Q 204.3 81.05 204.1 81.1 203.95 81.25 204.45 82 Z"/>
</g>

<g id="Symbol_2_copy_0_Layer0_0_MEMBER_6_MEMBER_13_MEMBER_1_FILL">
<path fill="#CE846E" stroke="none" d="
M 194.7 83.55
Q 194.7 83.85 195.4 83.75
L 196.3 83.6
Q 197.1 83.25 197.45 83 198 82.6 198.4 82.05 198.65 81.8 198.9 81.3 199.1 80.65 198.9 80.55 198.8 80.5 198.25 81.1 197.55 81.85 196.95 82.25 196.35 82.7 195.4 83.15 194.7 83.45 194.7 83.55 Z"/>
</g>

<g id="Symbol_2_copy_0_Layer0_0_MEMBER_7_MEMBER_0_FILL">
<path fill="#A37D5B" stroke="none" d="
M 78 80.7
Q 80.1 79.2 80.95 77.55 81.85 75.75 81.35 73.85 80.75 71.75 78.2 71.3 75.3 70.8 72.35 72.9 70.95 73.9 70.05 75.35 69.2 76.65 69 77.95 68.6 80.65 70.45 81.75 72.05 82.85 74.05 82.5 75.8 82.3 78 80.7 Z"/>
</g>

<g id="Symbol_2_copy_0_Layer0_0_MEMBER_7_MEMBER_1_FILL">
<path fill="#A37D5B" stroke="none" d="
M 91.7 83.9
Q 90.8 82.05 88.7 81.65 86.75 81.3 85 82.7 83.25 84.15 82.5 86.45 81.8 88.9 82.5 90.95 83.25 93.2 85.05 93.9 87 94.7 88.8 93.65 90.75 92.5 91.75 89.25 92.75 86.05 91.7 83.9 Z"/>
</g>

<g id="Symbol_2_copy_0_Layer0_0_MEMBER_7_MEMBER_2_FILL">
<path fill="#A37D5B" stroke="none" d="
M 72.15 92.1
Q 71.25 89.95 69.3 89.45 67.3 88.8 65.4 91.1 63.35 93.6 63.2 97.5 63.15 101.45 65.05 104.05 66.85 106.4 68.9 105.9 70.85 105.45 71.85 103.4 72.8 101.5 72.85 97.75 73 94 72.15 92.1 Z"/>
</g>

<g id="Symbol_2_copy_0_Layer0_0_MEMBER_7_MEMBER_3_FILL">
<path fill="#A37D5B" stroke="none" d="
M 76.95 115.65
Q 78.75 117 80.65 116.4 83.15 115.6 84.8 112.35 86.45 109.15 85.75 106.65 85.15 104.75 83 104.05 81.05 103.55 79.2 104.75 77.3 105.85 76.25 107.9 75.2 110 75.35 112.15 75.45 114.4 76.95 115.65 Z"/>
</g>

<g id="Symbol_2_copy_0_Layer0_0_MEMBER_7_MEMBER_4_FILL">
<path fill="#A37D5B" stroke="none" d="
M 102.7 78.5
Q 105.3 77.95 105.85 75.9 106.4 73.95 105.2 72.15 103.9 70.3 100.65 69 97.35 67.7 95.2 68.05 93.15 68.4 92.1 70.25 91.1 72.1 92.5 74.35 93.9 76.65 97 77.95 100.1 79.15 102.7 78.5 Z"/>
</g>

<g id="Symbol_2_copy_0_Layer0_0_MEMBER_7_MEMBER_5_FILL">
<path fill="#A37D5B" stroke="none" d="
M 116.8 84.05
Q 114.1 83.7 109.8 85.3 105.5 86.9 103.7 88.95 102 90.85 102.65 92.9 103.25 94.8 106.35 95.25 109.5 95.7 113.2 94.35 116.9 92.95 119 90.55 121.05 88.15 120.2 86.3 119.35 84.35 116.8 84.05 Z"/>
</g>

<g id="Symbol_2_copy_0_Layer0_0_MEMBER_7_MEMBER_6_FILL">
<path fill="#A37D5B" stroke="none" d="
M 120.1 71.45
Q 118.85 73 119.45 75.35 120.1 77.7 122.25 79.5 124.45 81.25 126.85 81.45 129.3 81.6 130.55 80.05 131.9 78.4 131.5 76.4 131 74.2 128.4 72.05 125.8 69.9 123.5 69.85 121.45 69.8 120.1 71.45 Z"/>
</g>

<g id="Symbol_2_copy_0_Layer0_0_MEMBER_7_MEMBER_7_FILL">
<path fill="#A37D5B" stroke="none" d="
M 143.4 96
Q 141.7 93.8 137.5 92 133.35 90.2 130.55 90.6 128.05 90.95 127.2 92.9 126.45 94.75 128.35 97.05 130.25 99.4 133.75 100.9 137.25 102.35 140.25 102.1 143.3 101.85 144.05 100 144.9 98.05 143.4 96 Z"/>
</g>

<g id="Symbol_2_copy_0_Layer0_0_MEMBER_7_MEMBER_8_FILL">
<path fill="#A37D5B" stroke="none" d="
M 144.85 76.8
Q 144.4 74.95 142.65 73.85 140.9 72.75 138.8 73.65 136.6 74.55 135.4 76.95 134.25 79.45 134.8 81.6 135.35 83.8 137.25 84.6 139.2 85.35 140.95 84.6 142.75 83.85 144.05 81.25 145.3 78.7 144.85 76.8 Z"/>
</g>

<g id="Symbol_2_copy_0_Layer0_0_MEMBER_7_MEMBER_9_FILL">
<path fill="#A37D5B" stroke="none" d="
M 166.9 84.65
Q 167.75 82.9 166.9 80.85 166.05 78.95 163.3 76.85 160.55 74.7 158.5 74.4 156.45 74.05 154.8 75.35 153.25 76.75 153.85 79.4 154.65 82.35 157.45 84.5 160.3 86.7 163.25 86.6 166 86.6 166.9 84.65 Z"/>
</g>

<g id="Symbol_2_copy_0_Layer0_0_MEMBER_7_MEMBER_10_FILL">
<path fill="#A37D5B" stroke="none" d="
M 157.95 89.5
Q 156.55 87.75 154.45 87.85 152.4 87.95 151.2 90.4 149.9 92.9 150.3 96.3 150.75 99.75 152.5 101.9 154.3 104.05 156.25 103.65 158.35 103.3 159.3 101.25 160.35 99.05 159.9 95.2 159.45 91.4 157.95 89.5 Z"/>
</g>

<g id="Symbol_2_copy_0_Layer0_0_MEMBER_7_MEMBER_11_FILL">
<path fill="#A37D5B" stroke="none" d="
M 172.7 96.1
Q 170.5 95.2 168.75 96.25 166.95 97.3 167.25 100.25 167.6 103.5 170.25 106.4 172.8 109.3 176.05 110 179 110.65 180.2 108.9 181.4 107.3 180.7 105 180.05 102.8 177.4 99.95 174.85 97 172.7 96.1 Z"/>
</g>

<g id="Symbol_2_copy_0_Layer0_0_MEMBER_8_MEMBER_0_FILL">
<path fill="#966C4D" stroke="none" d="
M 167.35 77.45
Q 167.85 76.15 165.45 74.4 162.9 72.5 159.05 71.75 155.25 70.95 152.1 71.75 149.3 72.45 149.2 73.85 149.2 75.25 151.25 76.25 153.1 77.1 157.8 78.05 162.45 79 164.55 78.85 166.85 78.7 167.35 77.45 Z"/>
</g>

<g id="Symbol_2_copy_0_Layer0_0_MEMBER_8_MEMBER_1_FILL">
<path fill="#966C4D" stroke="none" d="
M 171.75 87.25
Q 173.5 85.7 172.95 84.4 172.45 83.25 169.75 83.15 167.4 83.1 163.8 83.8 160.45 84.5 158.1 85.5 155.65 86.65 155.65 87.9 155.65 89.4 157.9 90.1 160.8 90.95 165.1 90.1 169.5 89.15 171.75 87.25 Z"/>
</g>

<g id="Symbol_2_copy_0_Layer0_0_MEMBER_8_MEMBER_2_FILL">
<path fill="#966C4D" stroke="none" d="
M 145 84.1
Q 146.9 83.3 146.9 81.9 146.95 80.55 144.65 79.55 142.3 78.6 139.05 78.55 135.75 78.5 133.4 79.4 131.1 80.3 131.05 81.65 131.05 83.05 132.9 83.95 135 84.9 138.95 84.95 142.9 85 145 84.1 Z"/>
</g>

<g id="Symbol_2_copy_0_Layer0_0_MEMBER_8_MEMBER_3_FILL">
<path fill="#966C4D" stroke="none" d="
M 156.65 94.6
Q 153.75 93.45 149.45 93.05 145.15 92.65 142.1 93.15 138.95 93.7 138.75 95 138.55 96.45 140.95 97.6 143.6 98.9 148.8 99.45 154 99.95 156.85 99.15 159.4 98.5 159.5 97.05 159.6 95.75 156.65 94.6 Z"/>
</g>

<g id="Symbol_2_copy_0_Layer0_0_MEMBER_8_MEMBER_4_FILL">
<path fill="#966C4D" stroke="none" d="
M 181.3 104.25
Q 182.9 103.15 182.65 101.75 182.45 100.45 180.25 99.8 178.3 99.2 175.35 99.35 172.35 99.6 170.55 100.45 168.45 101.4 168.45 102.65 168.35 104.1 170.1 104.95 172.25 106 175.8 105.75 179.4 105.55 181.3 104.25 Z"/>
</g>

<g id="Symbol_2_copy_0_Layer0_0_MEMBER_8_MEMBER_5_FILL">
<path fill="#966C4D" stroke="none" d="
M 116.65 71.95
Q 116.75 73.35 119.2 74.15 121.7 74.95 127.05 75.1 132.45 75.25 134.9 74.6 137.45 73.95 137.6 72.55 137.75 71.2 134.7 70.05 131.55 68.8 127.2 68.7 122.9 68.55 119.7 69.6 116.55 70.6 116.65 71.95 Z"/>
</g>

<g id="Symbol_2_copy_0_Layer0_0_MEMBER_8_MEMBER_6_FILL">
<path fill="#966C4D" stroke="none" d="
M 118.25 89.1
Q 117.75 90.45 119.1 91.75 120.7 93.35 124.25 93.9 127.8 94.45 129.85 93.4 131.55 92.65 131.45 91.1 131.45 89.9 129.55 88.85 127.8 87.95 125.25 87.55 122.75 87.2 120.75 87.5 118.65 87.9 118.25 89.1 Z"/>
</g>

<g id="Symbol_2_copy_0_Layer0_0_MEMBER_8_MEMBER_7_FILL">
<path fill="#966C4D" stroke="none" d="
M 117.7 81.1
Q 117.8 79.65 115.6 78.65 113.25 77.5 110 77.55 106.7 77.65 104.45 78.8 102.2 79.9 102.45 81.3 102.6 82.65 104.5 83.35 106.35 84 110.1 83.95 113.85 83.95 115.7 83.2 117.55 82.45 117.7 81.1 Z"/>
</g>

<g id="Symbol_2_copy_0_Layer0_0_MEMBER_8_MEMBER_8_FILL">
<path fill="#966C4D" stroke="none" d="
M 87.55 72.95
Q 88 74.25 90.6 74.4 93.3 74.5 98.35 73.3 103.5 72.1 105.8 70.85 108.15 69.65 107.9 68.25 107.75 66.9 104.5 66.5 101.2 66 96.9 67.05 92.6 68 89.85 69.85 87.15 71.65 87.55 72.95 Z"/>
</g>

<g id="Symbol_2_copy_0_Layer0_0_MEMBER_8_MEMBER_9_FILL">
<path fill="#966C4D" stroke="none" d="
M 109 89.45
Q 106.5 87.75 102.5 86.6 98.6 85.5 95.5 85.6 92.5 85.7 92.1 87 91.7 88.35 93.75 89.85 96 91.45 100.75 92.8 105.5 94.15 108.25 94 110.75 93.8 111.15 92.45 111.55 91.15 109 89.45 Z"/>
</g>

<g id="Symbol_2_copy_0_Layer0_0_MEMBER_8_MEMBER_10_FILL">
<path fill="#966C4D" stroke="none" d="
M 87.8 78.85
Q 85.2 79.2 82.1 80.85 79.05 82.55 77.3 84.55 75.6 86.6 76.25 87.75 76.95 89 79.1 88.8 81.5 88.55 85.2 86.5 88.9 84.5 90.4 82.6 91.75 80.9 91.05 79.65 90.45 78.5 87.8 78.85 Z"/>
</g>

<g id="Symbol_2_copy_0_Layer0_0_MEMBER_8_MEMBER_11_FILL">
<path fill="#966C4D" stroke="none" d="
M 64.95 82.35
Q 64.65 84.65 65.9 85.3 67.05 85.95 68.65 85.05 70.2 84.1 72.25 81.6 74.4 79 75 77.45 75.6 75.8 74.75 74.7 73.95 73.6 71.7 74.3 69.3 75.1 67.3 77.5 65.3 79.9 64.95 82.35 Z"/>
</g>

<g id="Symbol_2_copy_0_Layer0_0_MEMBER_8_MEMBER_12_FILL">
<path fill="#966C4D" stroke="none" d="
M 84.95 96.9
Q 85.2 94.75 83.95 94.05 82.75 93.35 80.75 95.1 78.55 97.05 77.2 100.3 75.8 103.65 75.95 106.45 76.1 109.15 77.45 109.45 78.75 109.85 80.15 108.2 81.55 106.6 83.1 102.8 84.7 99.05 84.95 96.9 Z"/>
</g>

<g id="Symbol_2_copy_0_Layer0_0_MEMBER_8_MEMBER_13_FILL">
<path fill="#966C4D" stroke="none" d="
M 69.25 96.3
Q 68.95 94.1 67.65 93.65 66.3 93.25 64.75 95.55 63.1 97.85 62.35 101.55 61.6 105.2 62.2 108.05 62.85 110.75 64.15 110.9 65.55 111.05 66.65 109.1 67.75 107.2 68.65 102.85 69.45 98.5 69.25 96.3 Z"/>
</g>

<g id="Symbol_2_copy_0_Layer0_0_MEMBER_8_MEMBER_14_FILL">
<path fill="#966C4D" stroke="none" d="
M 76.45 119.45
Q 75.7 115.95 74.6 114.5 73.5 113 72.15 113.15 70.8 113.3 70.15 115.5 69.5 117.85 70.15 120.8 70.8 123.7 72.35 125.6 73.85 127.4 75.15 126.95 76.5 126.55 76.85 124.7 77.15 122.75 76.45 119.45 Z"/>
</g>

<g id="Symbol_2_copy_0_Layer0_0_MEMBER_9_MEMBER_0_FILL">
<path fill="#774D30" stroke="none" d="
M 164.75 76.4
Q 165.05 75.75 163.55 74.65 161.9 73.45 159.4 72.8 156.9 72.15 154.95 72.4 153.1 72.55 153 73.3 152.95 73.9 154.3 74.6 155.3 75.05 158.6 75.95 161.85 76.8 163 76.9 164.5 77.05 164.75 76.4 Z"/>
</g>

<g id="Symbol_2_copy_0_Layer0_0_MEMBER_9_MEMBER_1_FILL">
<path fill="#774D30" stroke="none" d="
M 162.25 85.75
Q 169.65 85.7 169.65 84.05 169.65 83.4 167.45 82.95 165.3 82.5 162.2 82.55 159.15 82.6 157 83.1 154.8 83.55 154.85 84.2 154.85 85.8 162.25 85.75 Z"/>
</g>

<g id="Symbol_2_copy_0_Layer0_0_MEMBER_9_MEMBER_2_FILL">
<path fill="#774D30" stroke="none" d="
M 171.25 94.1
Q 169.7 93.4 167.35 93.05 165.05 92.7 163.35 92.95 161.65 93.15 161.55 93.8 161.3 95.4 166.9 96.2 169.65 96.65 171.25 96.35 172.6 96.15 172.7 95.45 172.8 94.8 171.25 94.1 Z"/>
</g>

<g id="Symbol_2_copy_0_Layer0_0_MEMBER_9_MEMBER_3_FILL">
<path fill="#774D30" stroke="none" d="
M 146.25 77.85
Q 150.55 78.7 150.95 77.4 151.2 76.75 150 75.9 148.75 75.05 146.85 74.7 144.95 74.4 143.5 74.75 142.05 75.1 142.05 75.75 142 77.15 146.25 77.85 Z"/>
</g>

<g id="Symbol_2_copy_0_Layer0_0_MEMBER_9_MEMBER_4_FILL">
<path fill="#774D30" stroke="none" d="
M 147.3 86.25
Q 146 86.5 145.9 87.15 145.75 87.85 146.65 88.45 147.6 89.1 149.65 89.5 151.65 89.95 152.85 89.65 153.9 89.45 154 88.75 154.15 88.1 153.05 87.4 151.95 86.7 150.25 86.35 148.6 86 147.3 86.25 Z"/>
</g>

<g id="Symbol_2_copy_0_Layer0_0_MEMBER_9_MEMBER_5_FILL">
<path fill="#774D30" stroke="none" d="
M 132.9 79.9
Q 131.7 80.4 131.7 81.05 131.7 82.65 135.75 82.65 139.8 82.65 139.8 81.05 139.8 80.4 138.6 79.9 137.45 79.45 135.75 79.45 134.05 79.45 132.9 79.9 Z"/>
</g>

<g id="Symbol_2_copy_0_Layer0_0_MEMBER_9_MEMBER_6_FILL">
<path fill="#774D30" stroke="none" d="
M 131.4 72.65
Q 135.85 72.85 135.95 71.25 136 70.6 134.7 70.05 133.4 69.55 131.55 69.45 129.7 69.4 128.35 69.8 127.05 70.2 127 70.9 126.95 71.6 128 72.05 129.2 72.6 131.4 72.65 Z"/>
</g>

<g id="Symbol_2_copy_0_Layer0_0_MEMBER_9_MEMBER_7_FILL">
<path fill="#774D30" stroke="none" d="
M 140.75 90.6
Q 139.05 89.9 136.65 89.75 134.3 89.6 132.55 90.1 130.85 90.55 130.85 91.25 130.95 92.65 136.45 93 142 93.35 142.25 91.95 142.35 91.25 140.75 90.6 Z"/>
</g>

<g id="Symbol_2_copy_0_Layer0_0_MEMBER_9_MEMBER_8_FILL">
<path fill="#774D30" stroke="none" d="
M 155.65 98.1
Q 155.85 97.4 154.4 96.6 152.9 95.7 150.7 95.5 148.7 95.25 146.8 95.7 145.2 96.2 145.3 96.9 145.3 97.55 146.55 98 147.55 98.4 150.35 98.7 153.1 99.05 154.15 98.9 155.45 98.75 155.65 98.1 Z"/>
</g>

<g id="Symbol_2_copy_0_Layer0_0_MEMBER_9_MEMBER_9_FILL">
<path fill="#774D30" stroke="none" d="
M 115.25 83.9
Q 115.05 85.5 119.6 85.8 124.05 86.1 124.15 84.5 124.2 83.85 122.9 83.25 121.65 82.7 119.8 82.6 117.95 82.5 116.65 82.85 115.3 83.25 115.25 83.9 Z"/>
</g>

<g id="Symbol_2_copy_0_Layer0_0_MEMBER_9_MEMBER_10_FILL">
<path fill="#774D30" stroke="none" d="
M 118.7 73.75
Q 117.45 74.2 117.45 74.95 117.6 76.3 121.6 76.6 125.6 77.05 126 75.75 126.15 75.05 125 74.35 123.65 73.55 121.9 73.4 120.05 73.25 118.7 73.75 Z"/>
</g>

<g id="Symbol_2_copy_0_Layer0_0_MEMBER_9_MEMBER_11_FILL">
<path fill="#774D30" stroke="none" d="
M 105.25 67.85
Q 105.35 68.55 106.65 68.9 107.9 69.3 110.9 69.45 113.95 69.7 115.15 69.5 116.5 69.3 116.65 68.65 116.8 67.95 115.2 67.2 113.5 66.45 111.1 66.25 108.75 66.1 106.9 66.65 105.2 67.15 105.25 67.85 Z"/>
</g>

<g id="Symbol_2_copy_0_Layer0_0_MEMBER_9_MEMBER_12_FILL">
<path fill="#774D30" stroke="none" d="
M 112.4 77.2
Q 112.5 76.5 111.2 75.85 109.7 75.2 107.9 75.2 106.1 75.2 104.6 75.85 103.3 76.5 103.45 77.2 103.55 77.85 104.65 78.15 105.6 78.4 107.9 78.4 110.25 78.4 111.2 78.15 112.25 77.85 112.4 77.2 Z"/>
</g>

<g id="Symbol_2_copy_0_Layer0_0_MEMBER_9_MEMBER_13_FILL">
<path fill="#774D30" stroke="none" d="
M 97.9 73.05
Q 101.8 72.6 101.6 71.05 101.55 70.35 100.35 70 99.15 69.65 97.6 69.85 96 70 94.9 70.6 93.85 71.15 93.9 71.8 94.1 73.4 97.9 73.05 Z"/>
</g>

<g id="Symbol_2_copy_0_Layer0_0_MEMBER_9_MEMBER_14_FILL">
<path fill="#774D30" stroke="none" d="
M 106.3 81.9
Q 105.05 81.4 103.3 81.35 101.55 81.3 100.25 81.75 99 82.15 99 82.85 98.9 84.4 103.2 84.55 107.5 84.6 107.5 83.05 107.55 82.4 106.3 81.9 Z"/>
</g>

<g id="Symbol_2_copy_0_Layer0_0_MEMBER_9_MEMBER_15_FILL">
<path fill="#774D30" stroke="none" d="
M 93.1 76.45
Q 91.25 76.1 88.9 76.5 86.5 76.95 84.9 77.9 83.3 78.8 83.55 79.45 84 80.7 89.45 79.7 94.95 78.75 94.9 77.45 94.9 76.75 93.1 76.45 Z"/>
</g>

<g id="Symbol_2_copy_0_Layer0_0_MEMBER_9_MEMBER_16_FILL">
<path fill="#774D30" stroke="none" d="
M 83.9 72.65
Q 84.8 72.1 84.75 71.45 84.75 70.8 83.45 70.4 82.15 70.1 80.35 70.45 78.55 70.9 77.55 71.8 76.5 72.7 76.85 73.35 77.2 74 78.15 74 79.1 74.05 81.1 73.6 83.1 73.1 83.9 72.65 Z"/>
</g>

<g id="Symbol_2_copy_0_Layer0_0_MEMBER_9_MEMBER_17_FILL">
<path fill="#774D30" stroke="none" d="
M 120 89.1
Q 118.75 88.4 116.9 88.1 115.05 87.8 113.7 88.05 112.3 88.3 112.2 88.95 111.9 90.55 116.4 91.25 120.85 91.95 121.1 90.4 121.2 89.75 120 89.1 Z"/>
</g>

<g id="Symbol_2_copy_0_Layer0_0_MEMBER_9_MEMBER_18_FILL">
<path fill="#774D30" stroke="none" d="
M 92.85 82.75
Q 91.7 82.25 90.15 82.45 88.6 82.6 87.6 83.3 86.6 84 86.8 84.65 87.1 86 90.5 85.65 93.8 85.3 93.9 83.9 93.95 83.2 92.85 82.75 Z"/>
</g>

<g id="Symbol_2_copy_0_Layer0_0_MEMBER_9_MEMBER_19_FILL">
<path fill="#774D30" stroke="none" d="
M 76.6 77.95
Q 76.45 77.3 74.95 77.3 73.4 77.3 71.6 78.2 69.85 79.05 68.8 80.35 67.9 81.5 68.3 82.05 68.8 82.6 69.85 82.4 71.2 82.05 73 81.1 75.15 80.05 75.95 79.35 76.85 78.6 76.6 77.95 Z"/>
</g>
</defs>

<g transform="matrix( 1, 0, 0, 1, 227.5,135.9) ">
<g transform="matrix( 0.871978759765625, 0, 0, 0.871978759765625, 14.75,82.35) ">
<g transform="matrix( 1.5068359375, 0, 0, 1.5068359375, -14.85,14.7) ">
<g filter="url(#Filter_1)" transform="matrix( 0.761077880859375, 0, 0, 0.761077880859375, -174.5,-175.85) ">
<g transform="matrix( 1.7382965087890625, 0, 0, 1.7382965087890625, 229.3,231.05) ">
<g transform="matrix( 0.881988525390625, 0, 0, 0.881988525390625, -107.5,-85.95) ">
<use xlink:href="#Symbol_2_copy_0_Layer0_0_MEMBER_0_FILL"/>
</g>

<g transform="matrix( 0.881988525390625, 0, 0, 0.881988525390625, -107.5,-85.95) ">
<use xlink:href="#Symbol_2_copy_0_Layer0_0_MEMBER_1_FILL"/>
</g>

<g transform="matrix( 0.881988525390625, 0, 0, 0.881988525390625, -107.5,-85.95) ">
<use xlink:href="#Symbol_2_copy_0_Layer0_0_MEMBER_2_FILL"/>
</g>

<g transform="matrix( 0.881988525390625, 0, 0, 0.881988525390625, -107.5,-85.95) ">
<use xlink:href="#Symbol_2_copy_0_Layer0_0_MEMBER_3_FILL"/>
</g>

<g transform="matrix( 0.881988525390625, 0, 0, 0.881988525390625, -107.5,-85.95) ">
<use xlink:href="#Symbol_2_copy_0_Layer0_0_MEMBER_4_FILL"/>
</g>

<g transform="matrix( 0.881988525390625, 0, 0, 0.881988525390625, -107.5,-85.95) ">
<use xlink:href="#Symbol_2_copy_0_Layer0_0_MEMBER_5_FILL"/>
</g>

<g transform="matrix( 0.881988525390625, 0, 0, 0.881988525390625, -107.5,-85.95) ">
<use xlink:href="#Symbol_2_copy_0_Layer0_0_MEMBER_6_MEMBER_0_FILL"/>
</g>

<g transform="matrix( 0.881988525390625, 0, 0, 0.881988525390625, -107.5,-85.95) ">
<use xlink:href="#Symbol_2_copy_0_Layer0_0_MEMBER_6_MEMBER_1_FILL"/>
</g>

<g transform="matrix( 0.881988525390625, 0, 0, 0.881988525390625, -107.5,-85.95) ">
<use xlink:href="#Symbol_2_copy_0_Layer0_0_MEMBER_6_MEMBER_2_FILL"/>
</g>

<g transform="matrix( 0.881988525390625, 0, 0, 0.881988525390625, -107.5,-85.95) ">
<use xlink:href="#Symbol_2_copy_0_Layer0_0_MEMBER_6_MEMBER_3_FILL"/>
</g>

<g transform="matrix( 0.881988525390625, 0, 0, 0.881988525390625, -107.5,-85.95) ">
<use xlink:href="#Symbol_2_copy_0_Layer0_0_MEMBER_6_MEMBER_4_FILL"/>
</g>

<g transform="matrix( 0.881988525390625, 0, 0, 0.881988525390625, -107.5,-85.95) ">
<use xlink:href="#Symbol_2_copy_0_Layer0_0_MEMBER_6_MEMBER_5_FILL"/>
</g>

<g transform="matrix( 0.881988525390625, 0, 0, 0.881988525390625, -107.5,-85.95) ">
<use xlink:href="#Symbol_2_copy_0_Layer0_0_MEMBER_6_MEMBER_6_MEMBER_0_FILL"/>
</g>

<g transform="matrix( 0.881988525390625, 0, 0, 0.881988525390625, -107.5,-85.95) ">
<use xlink:href="#Symbol_2_copy_0_Layer0_0_MEMBER_6_MEMBER_6_MEMBER_1_FILL"/>
</g>

<g transform="matrix( 0.881988525390625, 0, 0, 0.881988525390625, -107.5,-85.95) ">
<use xlink:href="#Symbol_2_copy_0_Layer0_0_MEMBER_6_MEMBER_6_MEMBER_2_FILL"/>
</g>

<g transform="matrix( 0.881988525390625, 0, 0, 0.881988525390625, -107.5,-85.95) ">
<use xlink:href="#Symbol_2_copy_0_Layer0_0_MEMBER_6_MEMBER_6_MEMBER_3_FILL"/>
</g>

<g transform="matrix( 0.881988525390625, 0, 0, 0.881988525390625, -107.5,-85.95) ">
<use xlink:href="#Symbol_2_copy_0_Layer0_0_MEMBER_6_MEMBER_7_MEMBER_0_FILL"/>
</g>

<g transform="matrix( 0.881988525390625, 0, 0, 0.881988525390625, -107.5,-85.95) ">
<use xlink:href="#Symbol_2_copy_0_Layer0_0_MEMBER_6_MEMBER_7_MEMBER_1_FILL"/>
</g>

<g transform="matrix( 0.881988525390625, 0, 0, 0.881988525390625, -107.5,-85.95) ">
<use xlink:href="#Symbol_2_copy_0_Layer0_0_MEMBER_6_MEMBER_8_FILL"/>
</g>

<g transform="matrix( 0.881988525390625, 0, 0, 0.881988525390625, -107.5,-85.95) ">
<use xlink:href="#Symbol_2_copy_0_Layer0_0_MEMBER_6_MEMBER_9_MEMBER_0_FILL"/>
</g>

<g transform="matrix( 0.881988525390625, 0, 0, 0.881988525390625, -107.5,-85.95) ">
<use xlink:href="#Symbol_2_copy_0_Layer0_0_MEMBER_6_MEMBER_9_MEMBER_1_FILL"/>
</g>

<g transform="matrix( 0.881988525390625, 0, 0, 0.881988525390625, -107.5,-85.95) ">
<use xlink:href="#Symbol_2_copy_0_Layer0_0_MEMBER_6_MEMBER_9_MEMBER_2_FILL"/>
</g>

<g transform="matrix( 0.881988525390625, 0, 0, 0.881988525390625, -107.5,-85.95) ">
<use xlink:href="#Symbol_2_copy_0_Layer0_0_MEMBER_6_MEMBER_9_MEMBER_3_FILL"/>
</g>

<g transform="matrix( 0.881988525390625, 0, 0, 0.881988525390625, -107.5,-85.95) ">
<use xlink:href="#Symbol_2_copy_0_Layer0_0_MEMBER_6_MEMBER_9_MEMBER_4_FILL"/>
</g>

<g transform="matrix( 0.881988525390625, 0, 0, 0.881988525390625, -107.5,-85.95) ">
<use xlink:href="#Symbol_2_copy_0_Layer0_0_MEMBER_6_MEMBER_9_MEMBER_5_FILL"/>
</g>

<g transform="matrix( 0.881988525390625, 0, 0, 0.881988525390625, -107.5,-85.95) ">
<use xlink:href="#Symbol_2_copy_0_Layer0_0_MEMBER_6_MEMBER_9_MEMBER_6_FILL"/>
</g>

<g transform="matrix( 0.881988525390625, 0, 0, 0.881988525390625, -107.5,-85.95) ">
<use xlink:href="#Symbol_2_copy_0_Layer0_0_MEMBER_6_MEMBER_10_MEMBER_0_FILL"/>
</g>

<g transform="matrix( 0.881988525390625, 0, 0, 0.881988525390625, -107.5,-85.95) ">
<use xlink:href="#Symbol_2_copy_0_Layer0_0_MEMBER_6_MEMBER_10_MEMBER_1_FILL"/>
</g>

<g transform="matrix( 0.881988525390625, 0, 0, 0.881988525390625, -107.5,-85.95) ">
<use xlink:href="#Symbol_2_copy_0_Layer0_0_MEMBER_6_MEMBER_10_MEMBER_2_FILL"/>
</g>

<g transform="matrix( 0.881988525390625, 0, 0, 0.881988525390625, -107.5,-85.95) ">
<use xlink:href="#Symbol_2_copy_0_Layer0_0_MEMBER_6_MEMBER_10_MEMBER_3_FILL"/>
</g>

<g transform="matrix( 0.881988525390625, 0, 0, 0.881988525390625, -107.5,-85.95) ">
<use xlink:href="#Symbol_2_copy_0_Layer0_0_MEMBER_6_MEMBER_10_MEMBER_4_FILL"/>
</g>

<g transform="matrix( 0.881988525390625, 0, 0, 0.881988525390625, -107.5,-85.95) ">
<use xlink:href="#Symbol_2_copy_0_Layer0_0_MEMBER_6_MEMBER_10_MEMBER_5_FILL"/>
</g>

<g transform="matrix( 0.881988525390625, 0, 0, 0.881988525390625, -107.5,-85.95) ">
<use xlink:href="#Symbol_2_copy_0_Layer0_0_MEMBER_6_MEMBER_10_MEMBER_6_FILL"/>
</g>

<g transform="matrix( 0.881988525390625, 0, 0, 0.881988525390625, -107.5,-85.95) ">
<use xlink:href="#Symbol_2_copy_0_Layer0_0_MEMBER_6_MEMBER_10_MEMBER_7_FILL"/>
</g>

<g transform="matrix( 0.881988525390625, 0, 0, 0.881988525390625, -107.5,-85.95) ">
<use xlink:href="#Symbol_2_copy_0_Layer0_0_MEMBER_6_MEMBER_10_MEMBER_8_FILL"/>
</g>

<g transform="matrix( 0.881988525390625, 0, 0, 0.881988525390625, -107.5,-85.95) ">
<use xlink:href="#Symbol_2_copy_0_Layer0_0_MEMBER_6_MEMBER_10_MEMBER_9_FILL"/>
</g>

<g transform="matrix( 0.881988525390625, 0, 0, 0.881988525390625, -107.5,-85.95) ">
<use xlink:href="#Symbol_2_copy_0_Layer0_0_MEMBER_6_MEMBER_10_MEMBER_10_FILL"/>
</g>

<g transform="matrix( 0.881988525390625, 0, 0, 0.881988525390625, -107.5,-85.95) ">
<use xlink:href="#Symbol_2_copy_0_Layer0_0_MEMBER_6_MEMBER_10_MEMBER_11_FILL"/>
</g>

<g transform="matrix( 0.881988525390625, 0, 0, 0.881988525390625, -107.5,-85.95) ">
<use xlink:href="#Symbol_2_copy_0_Layer0_0_MEMBER_6_MEMBER_10_MEMBER_12_FILL"/>
</g>

<g transform="matrix( 0.881988525390625, 0, 0, 0.881988525390625, -107.5,-85.95) ">
<use xlink:href="#Symbol_2_copy_0_Layer0_0_MEMBER_6_MEMBER_10_MEMBER_13_FILL"/>
</g>

<g transform="matrix( 0.881988525390625, 0, 0, 0.881988525390625, -107.5,-85.95) ">
<use xlink:href="#Symbol_2_copy_0_Layer0_0_MEMBER_6_MEMBER_10_MEMBER_14_FILL"/>
</g>

<g transform="matrix( 0.881988525390625, 0, 0, 0.881988525390625, -107.5,-85.95) ">
<use xlink:href="#Symbol_2_copy_0_Layer0_0_MEMBER_6_MEMBER_10_MEMBER_15_FILL"/>
</g>

<g transform="matrix( 0.881988525390625, 0, 0, 0.881988525390625, -107.5,-85.95) ">
<use xlink:href="#Symbol_2_copy_0_Layer0_0_MEMBER_6_MEMBER_10_MEMBER_16_FILL"/>
</g>

<g transform="matrix( 0.881988525390625, 0, 0, 0.881988525390625, -107.5,-85.95) ">
<use xlink:href="#Symbol_2_copy_0_Layer0_0_MEMBER_6_MEMBER_10_MEMBER_17_FILL"/>
</g>

<g transform="matrix( 0.881988525390625, 0, 0, 0.881988525390625, -107.5,-85.95) ">
<use xlink:href="#Symbol_2_copy_0_Layer0_0_MEMBER_6_MEMBER_10_MEMBER_18_FILL"/>
</g>

<g transform="matrix( 0.881988525390625, 0, 0, 0.881988525390625, -107.5,-85.95) ">
<use xlink:href="#Symbol_2_copy_0_Layer0_0_MEMBER_6_MEMBER_10_MEMBER_19_FILL"/>
</g>

<g transform="matrix( 0.881988525390625, 0, 0, 0.881988525390625, -107.5,-85.95) ">
<use xlink:href="#Symbol_2_copy_0_Layer0_0_MEMBER_6_MEMBER_11_MEMBER_0_FILL"/>
</g>

<g transform="matrix( 0.881988525390625, 0, 0, 0.881988525390625, -107.5,-85.95) ">
<use xlink:href="#Symbol_2_copy_0_Layer0_0_MEMBER_6_MEMBER_11_MEMBER_1_FILL"/>
</g>

<g transform="matrix( 0.881988525390625, 0, 0, 0.881988525390625, -107.5,-85.95) ">
<use xlink:href="#Symbol_2_copy_0_Layer0_0_MEMBER_6_MEMBER_11_MEMBER_2_FILL"/>
</g>

<g transform="matrix( 0.881988525390625, 0, 0, 0.881988525390625, -107.5,-85.95) ">
<use xlink:href="#Symbol_2_copy_0_Layer0_0_MEMBER_6_MEMBER_11_MEMBER_3_FILL"/>
</g>

<g transform="matrix( 0.881988525390625, 0, 0, 0.881988525390625, -107.5,-85.95) ">
<use xlink:href="#Symbol_2_copy_0_Layer0_0_MEMBER_6_MEMBER_11_MEMBER_4_FILL"/>
</g>

<g transform="matrix( 0.881988525390625, 0, 0, 0.881988525390625, -107.5,-85.95) ">
<use xlink:href="#Symbol_2_copy_0_Layer0_0_MEMBER_6_MEMBER_11_MEMBER_5_FILL"/>
</g>

<g transform="matrix( 0.881988525390625, 0, 0, 0.881988525390625, -107.5,-85.95) ">
<use xlink:href="#Symbol_2_copy_0_Layer0_0_MEMBER_6_MEMBER_11_MEMBER_6_FILL"/>
</g>

<g transform="matrix( 0.881988525390625, 0, 0, 0.881988525390625, -107.5,-85.95) ">
<use xlink:href="#Symbol_2_copy_0_Layer0_0_MEMBER_6_MEMBER_11_MEMBER_7_FILL"/>
</g>

<g transform="matrix( 0.881988525390625, 0, 0, 0.881988525390625, -107.5,-85.95) ">
<use xlink:href="#Symbol_2_copy_0_Layer0_0_MEMBER_6_MEMBER_11_MEMBER_8_FILL"/>
</g>

<g transform="matrix( 0.881988525390625, 0, 0, 0.881988525390625, -107.5,-85.95) ">
<use xlink:href="#Symbol_2_copy_0_Layer0_0_MEMBER_6_MEMBER_11_MEMBER_9_FILL"/>
</g>

<g transform="matrix( 0.881988525390625, 0, 0, 0.881988525390625, -107.5,-85.95) ">
<use xlink:href="#Symbol_2_copy_0_Layer0_0_MEMBER_6_MEMBER_11_MEMBER_10_FILL"/>
</g>

<g transform="matrix( 0.881988525390625, 0, 0, 0.881988525390625, -107.5,-85.95) ">
<use xlink:href="#Symbol_2_copy_0_Layer0_0_MEMBER_6_MEMBER_11_MEMBER_11_FILL"/>
</g>

<g transform="matrix( 0.881988525390625, 0, 0, 0.881988525390625, -107.5,-85.95) ">
<use xlink:href="#Symbol_2_copy_0_Layer0_0_MEMBER_6_MEMBER_11_MEMBER_12_FILL"/>
</g>

<g transform="matrix( 0.881988525390625, 0, 0, 0.881988525390625, -107.5,-85.95) ">
<use xlink:href="#Symbol_2_copy_0_Layer0_0_MEMBER_6_MEMBER_11_MEMBER_13_FILL"/>
</g>

<g transform="matrix( 0.881988525390625, 0, 0, 0.881988525390625, -107.5,-85.95) ">
<use xlink:href="#Symbol_2_copy_0_Layer0_0_MEMBER_6_MEMBER_11_MEMBER_14_FILL"/>
</g>

<g transform="matrix( 0.881988525390625, 0, 0, 0.881988525390625, -107.5,-85.95) ">
<use xlink:href="#Symbol_2_copy_0_Layer0_0_MEMBER_6_MEMBER_11_MEMBER_15_FILL"/>
</g>

<g transform="matrix( 0.881988525390625, 0, 0, 0.881988525390625, -107.5,-85.95) ">
<use xlink:href="#Symbol_2_copy_0_Layer0_0_MEMBER_6_MEMBER_11_MEMBER_16_FILL"/>
</g>

<g transform="matrix( 0.881988525390625, 0, 0, 0.881988525390625, -107.5,-85.95) ">
<use xlink:href="#Symbol_2_copy_0_Layer0_0_MEMBER_6_MEMBER_11_MEMBER_17_FILL"/>
</g>

<g transform="matrix( 0.881988525390625, 0, 0, 0.881988525390625, -107.5,-85.95) ">
<use xlink:href="#Symbol_2_copy_0_Layer0_0_MEMBER_6_MEMBER_11_MEMBER_18_FILL"/>
</g>

<g transform="matrix( 0.881988525390625, 0, 0, 0.881988525390625, -107.5,-85.95) ">
<use xlink:href="#Symbol_2_copy_0_Layer0_0_MEMBER_6_MEMBER_11_MEMBER_19_FILL"/>
</g>

<g transform="matrix( 0.881988525390625, 0, 0, 0.881988525390625, -107.5,-85.95) ">
<use xlink:href="#Symbol_2_copy_0_Layer0_0_MEMBER_6_MEMBER_11_MEMBER_20_FILL"/>
</g>

<g transform="matrix( 0.881988525390625, 0, 0, 0.881988525390625, -107.5,-85.95) ">
<use xlink:href="#Symbol_2_copy_0_Layer0_0_MEMBER_6_MEMBER_11_MEMBER_21_FILL"/>
</g>

<g transform="matrix( 0.881988525390625, 0, 0, 0.881988525390625, -107.5,-85.95) ">
<use xlink:href="#Symbol_2_copy_0_Layer0_0_MEMBER_6_MEMBER_12_MEMBER_0_FILL"/>
</g>

<g transform="matrix( 0.881988525390625, 0, 0, 0.881988525390625, -107.5,-85.95) ">
<use xlink:href="#Symbol_2_copy_0_Layer0_0_MEMBER_6_MEMBER_12_MEMBER_1_FILL"/>
</g>

<g transform="matrix( 0.881988525390625, 0, 0, 0.881988525390625, -107.5,-85.95) ">
<use xlink:href="#Symbol_2_copy_0_Layer0_0_MEMBER_6_MEMBER_12_MEMBER_2_FILL"/>
</g>

<g transform="matrix( 0.881988525390625, 0, 0, 0.881988525390625, -107.5,-85.95) ">
<use xlink:href="#Symbol_2_copy_0_Layer0_0_MEMBER_6_MEMBER_12_MEMBER_3_FILL"/>
</g>

<g transform="matrix( 0.881988525390625, 0, 0, 0.881988525390625, -107.5,-85.95) ">
<use xlink:href="#Symbol_2_copy_0_Layer0_0_MEMBER_6_MEMBER_12_MEMBER_4_FILL"/>
</g>

<g transform="matrix( 0.881988525390625, 0, 0, 0.881988525390625, -107.5,-85.95) ">
<use xlink:href="#Symbol_2_copy_0_Layer0_0_MEMBER_6_MEMBER_12_MEMBER_5_FILL"/>
</g>

<g transform="matrix( 0.881988525390625, 0, 0, 0.881988525390625, -107.5,-85.95) ">
<use xlink:href="#Symbol_2_copy_0_Layer0_0_MEMBER_6_MEMBER_13_MEMBER_0_FILL"/>
</g>

<g transform="matrix( 0.881988525390625, 0, 0, 0.881988525390625, -107.5,-85.95) ">
<use xlink:href="#Symbol_2_copy_0_Layer0_0_MEMBER_6_MEMBER_13_MEMBER_1_FILL"/>
</g>

<g transform="matrix( 0.881988525390625, 0, 0, 0.881988525390625, -107.5,-85.95) ">
<use xlink:href="#Symbol_2_copy_0_Layer0_0_MEMBER_7_MEMBER_0_FILL"/>
</g>

<g transform="matrix( 0.881988525390625, 0, 0, 0.881988525390625, -107.5,-85.95) ">
<use xlink:href="#Symbol_2_copy_0_Layer0_0_MEMBER_7_MEMBER_1_FILL"/>
</g>

<g transform="matrix( 0.881988525390625, 0, 0, 0.881988525390625, -107.5,-85.95) ">
<use xlink:href="#Symbol_2_copy_0_Layer0_0_MEMBER_7_MEMBER_2_FILL"/>
</g>

<g transform="matrix( 0.881988525390625, 0, 0, 0.881988525390625, -107.5,-85.95) ">
<use xlink:href="#Symbol_2_copy_0_Layer0_0_MEMBER_7_MEMBER_3_FILL"/>
</g>

<g transform="matrix( 0.881988525390625, 0, 0, 0.881988525390625, -107.5,-85.95) ">
<use xlink:href="#Symbol_2_copy_0_Layer0_0_MEMBER_7_MEMBER_4_FILL"/>
</g>

<g transform="matrix( 0.881988525390625, 0, 0, 0.881988525390625, -107.5,-85.95) ">
<use xlink:href="#Symbol_2_copy_0_Layer0_0_MEMBER_7_MEMBER_5_FILL"/>
</g>

<g transform="matrix( 0.881988525390625, 0, 0, 0.881988525390625, -107.5,-85.95) ">
<use xlink:href="#Symbol_2_copy_0_Layer0_0_MEMBER_7_MEMBER_6_FILL"/>
</g>

<g transform="matrix( 0.881988525390625, 0, 0, 0.881988525390625, -107.5,-85.95) ">
<use xlink:href="#Symbol_2_copy_0_Layer0_0_MEMBER_7_MEMBER_7_FILL"/>
</g>

<g transform="matrix( 0.881988525390625, 0, 0, 0.881988525390625, -107.5,-85.95) ">
<use xlink:href="#Symbol_2_copy_0_Layer0_0_MEMBER_7_MEMBER_8_FILL"/>
</g>

<g transform="matrix( 0.881988525390625, 0, 0, 0.881988525390625, -107.5,-85.95) ">
<use xlink:href="#Symbol_2_copy_0_Layer0_0_MEMBER_7_MEMBER_9_FILL"/>
</g>

<g transform="matrix( 0.881988525390625, 0, 0, 0.881988525390625, -107.5,-85.95) ">
<use xlink:href="#Symbol_2_copy_0_Layer0_0_MEMBER_7_MEMBER_10_FILL"/>
</g>

<g transform="matrix( 0.881988525390625, 0, 0, 0.881988525390625, -107.5,-85.95) ">
<use xlink:href="#Symbol_2_copy_0_Layer0_0_MEMBER_7_MEMBER_11_FILL"/>
</g>

<g transform="matrix( 0.881988525390625, 0, 0, 0.881988525390625, -107.5,-85.95) ">
<use xlink:href="#Symbol_2_copy_0_Layer0_0_MEMBER_8_MEMBER_0_FILL"/>
</g>

<g transform="matrix( 0.881988525390625, 0, 0, 0.881988525390625, -107.5,-85.95) ">
<use xlink:href="#Symbol_2_copy_0_Layer0_0_MEMBER_8_MEMBER_1_FILL"/>
</g>

<g transform="matrix( 0.881988525390625, 0, 0, 0.881988525390625, -107.5,-85.95) ">
<use xlink:href="#Symbol_2_copy_0_Layer0_0_MEMBER_8_MEMBER_2_FILL"/>
</g>

<g transform="matrix( 0.881988525390625, 0, 0, 0.881988525390625, -107.5,-85.95) ">
<use xlink:href="#Symbol_2_copy_0_Layer0_0_MEMBER_8_MEMBER_3_FILL"/>
</g>

<g transform="matrix( 0.881988525390625, 0, 0, 0.881988525390625, -107.5,-85.95) ">
<use xlink:href="#Symbol_2_copy_0_Layer0_0_MEMBER_8_MEMBER_4_FILL"/>
</g>

<g transform="matrix( 0.881988525390625, 0, 0, 0.881988525390625, -107.5,-85.95) ">
<use xlink:href="#Symbol_2_copy_0_Layer0_0_MEMBER_8_MEMBER_5_FILL"/>
</g>

<g transform="matrix( 0.881988525390625, 0, 0, 0.881988525390625, -107.5,-85.95) ">
<use xlink:href="#Symbol_2_copy_0_Layer0_0_MEMBER_8_MEMBER_6_FILL"/>
</g>

<g transform="matrix( 0.881988525390625, 0, 0, 0.881988525390625, -107.5,-85.95) ">
<use xlink:href="#Symbol_2_copy_0_Layer0_0_MEMBER_8_MEMBER_7_FILL"/>
</g>

<g transform="matrix( 0.881988525390625, 0, 0, 0.881988525390625, -107.5,-85.95) ">
<use xlink:href="#Symbol_2_copy_0_Layer0_0_MEMBER_8_MEMBER_8_FILL"/>
</g>

<g transform="matrix( 0.881988525390625, 0, 0, 0.881988525390625, -107.5,-85.95) ">
<use xlink:href="#Symbol_2_copy_0_Layer0_0_MEMBER_8_MEMBER_9_FILL"/>
</g>

<g transform="matrix( 0.881988525390625, 0, 0, 0.881988525390625, -107.5,-85.95) ">
<use xlink:href="#Symbol_2_copy_0_Layer0_0_MEMBER_8_MEMBER_10_FILL"/>
</g>

<g transform="matrix( 0.881988525390625, 0, 0, 0.881988525390625, -107.5,-85.95) ">
<use xlink:href="#Symbol_2_copy_0_Layer0_0_MEMBER_8_MEMBER_11_FILL"/>
</g>

<g transform="matrix( 0.881988525390625, 0, 0, 0.881988525390625, -107.5,-85.95) ">
<use xlink:href="#Symbol_2_copy_0_Layer0_0_MEMBER_8_MEMBER_12_FILL"/>
</g>

<g transform="matrix( 0.881988525390625, 0, 0, 0.881988525390625, -107.5,-85.95) ">
<use xlink:href="#Symbol_2_copy_0_Layer0_0_MEMBER_8_MEMBER_13_FILL"/>
</g>

<g transform="matrix( 0.881988525390625, 0, 0, 0.881988525390625, -107.5,-85.95) ">
<use xlink:href="#Symbol_2_copy_0_Layer0_0_MEMBER_8_MEMBER_14_FILL"/>
</g>

<g transform="matrix( 0.881988525390625, 0, 0, 0.881988525390625, -107.5,-85.95) ">
<use xlink:href="#Symbol_2_copy_0_Layer0_0_MEMBER_9_MEMBER_0_FILL"/>
</g>

<g transform="matrix( 0.881988525390625, 0, 0, 0.881988525390625, -107.5,-85.95) ">
<use xlink:href="#Symbol_2_copy_0_Layer0_0_MEMBER_9_MEMBER_1_FILL"/>
</g>

<g transform="matrix( 0.881988525390625, 0, 0, 0.881988525390625, -107.5,-85.95) ">
<use xlink:href="#Symbol_2_copy_0_Layer0_0_MEMBER_9_MEMBER_2_FILL"/>
</g>

<g transform="matrix( 0.881988525390625, 0, 0, 0.881988525390625, -107.5,-85.95) ">
<use xlink:href="#Symbol_2_copy_0_Layer0_0_MEMBER_9_MEMBER_3_FILL"/>
</g>

<g transform="matrix( 0.881988525390625, 0, 0, 0.881988525390625, -107.5,-85.95) ">
<use xlink:href="#Symbol_2_copy_0_Layer0_0_MEMBER_9_MEMBER_4_FILL"/>
</g>

<g transform="matrix( 0.881988525390625, 0, 0, 0.881988525390625, -107.5,-85.95) ">
<use xlink:href="#Symbol_2_copy_0_Layer0_0_MEMBER_9_MEMBER_5_FILL"/>
</g>

<g transform="matrix( 0.881988525390625, 0, 0, 0.881988525390625, -107.5,-85.95) ">
<use xlink:href="#Symbol_2_copy_0_Layer0_0_MEMBER_9_MEMBER_6_FILL"/>
</g>

<g transform="matrix( 0.881988525390625, 0, 0, 0.881988525390625, -107.5,-85.95) ">
<use xlink:href="#Symbol_2_copy_0_Layer0_0_MEMBER_9_MEMBER_7_FILL"/>
</g>

<g transform="matrix( 0.881988525390625, 0, 0, 0.881988525390625, -107.5,-85.95) ">
<use xlink:href="#Symbol_2_copy_0_Layer0_0_MEMBER_9_MEMBER_8_FILL"/>
</g>

<g transform="matrix( 0.881988525390625, 0, 0, 0.881988525390625, -107.5,-85.95) ">
<use xlink:href="#Symbol_2_copy_0_Layer0_0_MEMBER_9_MEMBER_9_FILL"/>
</g>

<g transform="matrix( 0.881988525390625, 0, 0, 0.881988525390625, -107.5,-85.95) ">
<use xlink:href="#Symbol_2_copy_0_Layer0_0_MEMBER_9_MEMBER_10_FILL"/>
</g>

<g transform="matrix( 0.881988525390625, 0, 0, 0.881988525390625, -107.5,-85.95) ">
<use xlink:href="#Symbol_2_copy_0_Layer0_0_MEMBER_9_MEMBER_11_FILL"/>
</g>

<g transform="matrix( 0.881988525390625, 0, 0, 0.881988525390625, -107.5,-85.95) ">
<use xlink:href="#Symbol_2_copy_0_Layer0_0_MEMBER_9_MEMBER_12_FILL"/>
</g>

<g transform="matrix( 0.881988525390625, 0, 0, 0.881988525390625, -107.5,-85.95) ">
<use xlink:href="#Symbol_2_copy_0_Layer0_0_MEMBER_9_MEMBER_13_FILL"/>
</g>

<g transform="matrix( 0.881988525390625, 0, 0, 0.881988525390625, -107.5,-85.95) ">
<use xlink:href="#Symbol_2_copy_0_Layer0_0_MEMBER_9_MEMBER_14_FILL"/>
</g>

<g transform="matrix( 0.881988525390625, 0, 0, 0.881988525390625, -107.5,-85.95) ">
<use xlink:href="#Symbol_2_copy_0_Layer0_0_MEMBER_9_MEMBER_15_FILL"/>
</g>

<g transform="matrix( 0.881988525390625, 0, 0, 0.881988525390625, -107.5,-85.95) ">
<use xlink:href="#Symbol_2_copy_0_Layer0_0_MEMBER_9_MEMBER_16_FILL"/>
</g>

<g transform="matrix( 0.881988525390625, 0, 0, 0.881988525390625, -107.5,-85.95) ">
<use xlink:href="#Symbol_2_copy_0_Layer0_0_MEMBER_9_MEMBER_17_FILL"/>
</g>

<g transform="matrix( 0.881988525390625, 0, 0, 0.881988525390625, -107.5,-85.95) ">
<use xlink:href="#Symbol_2_copy_0_Layer0_0_MEMBER_9_MEMBER_18_FILL"/>
</g>

<g transform="matrix( 0.881988525390625, 0, 0, 0.881988525390625, -107.5,-85.95) ">
<use xlink:href="#Symbol_2_copy_0_Layer0_0_MEMBER_9_MEMBER_19_FILL"/>
</g>
</g>
</g>
</g>
</g>
</g>
</svg>
