
<svg xmlns="http://www.w3.org/2000/svg" version="1.1" xmlns:xlink="http://www.w3.org/1999/xlink" preserveAspectRatio="none" x="0px" y="0px" width="455px" height="457px" viewBox="0 0 455 457">
<defs>
<filter id="Filter_1" x="-20%" y="-20%" width="140%" height="140%" color-interpolation-filters="sRGB">
<feFlood flood-color="#000000" flood-opacity="1" in="SourceGraphic" result="result1"/>

<feComposite in2="SourceGraphic" in="result1" operator="in" result="result2"/>

<feGaussianBlur in="result2" stdDeviation="4.333333333333333,4.333333333333333" result="result3"/>

<feOffset dx="0" dy="0" in="result3" result="result4"/>

<feComposite in2="result4" in="SourceGraphic" operator="over" result="result5"/>
</filter>

<g id="Symbol_2_copy_2_0_Layer0_0_MEMBER_0_FILL">
<path fill="#693F36" stroke="none" d="
M 49.05 163.65
Q 28.45 112.9 19.15 120.25
L 16.4 165.95
Q 13.5 213.6 13.05 223.3 12.7 231.05 10.95 245.9 10.05 258.15 13.05 264.25 16.15 270.6 28.85 272.05 31.65 272.35 47.05 272.35
L 60.15 272.4
Q 63.95 272.45 66.2 269.35 68.45 266.3 67.25 262.7 65.85 258.55 61.35 256.8 54.4 254.2 53.55 251.95 53 250.45 55.15 245 56.7 241 62.45 228.05
L 67.85 215.85
Q 59.4 189 49.05 163.65 Z"/>
</g>

<g id="Symbol_2_copy_2_0_Layer0_0_MEMBER_1_FILL">
<path fill="#693F36" stroke="none" d="
M 263.7 128.35
Q 254.85 129.75 244.8 134.95 224.6 145.35 218.4 164.35 212.2 183.35 214.65 222.3 215.9 241.8 218.4 257.45
L 244.45 257.45
Q 242.15 252.5 240.05 244.9 235.85 229.65 237 216.45 238.2 203.25 251.05 164.5 257.5 145.1 263.7 128.35 Z"/>
</g>

<g id="Symbol_2_copy_2_0_Layer0_0_MEMBER_2_FILL">
<path fill="#76473D" stroke="none" d="
M 275.95 10.65
Q 263.2 2.75 246.9 5.45 226.15 9.55 217.65 11.15 203.3 13.85 194.3 13.05 190.7 12.65 187.55 11.95 166.1 6.9 141.2 6.2 103.7 5.1 78.7 16 50.55 28.25 33.1 51.4 16.4 73.45 13.55 99.8 11 123.25 20.5 161.1 29 194.75 37.75 208.4 42.5 215.8 60.7 237.15 76.8 256.05 78.1 259.9 82.9 274.2 102.9 274.2
L 134.65 274.2
Q 138.35 274.2 141.05 271.7 143.8 269.2 143.95 265.55 144.15 260.85 139.55 256.8 134.3 252.25 124.95 248.9 117.1 246.1 115.95 243.8 114.4 240.7 111.3 213.7
L 108.5 187.3 112.2 189
Q 117.05 190.95 122.45 192.35 139.85 196.85 156.9 194.15
L 164.85 192.85
Q 183.4 189.85 193.95 186.1 207.65 181.25 225.2 169.95 230.85 166.25 236.45 161.55
L 236.5 161.55 241 157.65
Q 254.15 145.85 267.7 128.95 274.45 120.5 278.6 114.4 275.65 111.65 273.2 106.6 268.3 96.45 270.7 84.85 271.45 81.25 273 77.45 293.45 27 285.4 19.1 282.3 14.6 275.95 10.65 Z"/>
</g>

<g id="Symbol_2_copy_2_0_Layer0_0_MEMBER_3_FILL">
<path fill="#6B4037" stroke="none" d="
M 333 82.35
Q 336.8 70.75 334.95 51.5 333.3 34.2 324.35 20.2 315.05 5.65 302.9 2.85 290.45 0 275.65 0 260.8 0 248.35 2.85 236.2 5.65 226.95 20.2 217.95 34.2 216.3 51.5 214.45 70.75 218.25 82.35 222.95 96.75 236.6 101.2 248 104.9 255.6 110.6 257.45 112 260.35 114.3 262.75 116 264.95 116.55 275.65 119.25 286.3 116.55 288.5 116 290.9 114.3 292.3 113.25 295.65 110.6 303.3 104.9 314.65 101.2 328.3 96.75 333 82.35 Z"/>
</g>

<g id="Symbol_2_copy_2_0_Layer0_0_MEMBER_4_FILL">
<path fill="#76473D" stroke="none" d="
M 313.9 47.9
Q 313.25 40.25 303.5 36.3 294.65 32.7 287.95 39.1 285.85 41.1 284.2 43.85
L 283 46.2 270.4 46.2
Q 268.85 42.3 265.5 39.1 258.8 32.7 249.9 36.3 240.15 40.25 239.5 47.9 239 54.2 244.4 61.1 248.3 66 253.85 77.35 256.65 83.05 258.65 87.75
L 294.8 87.75
Q 296.8 83.05 299.6 77.35 305.15 66 309 61.1 314.45 54.25 313.9 47.9 Z"/>
</g>

<g id="Symbol_2_copy_2_0_Layer0_0_MEMBER_5_FILL">
<path fill="#76473D" stroke="none" d="
M 237.3 118.7
Q 232.15 111.9 225.55 107.5 208.45 96 189 104.6 181.85 107.8 174.9 113.45
L 171.95 120.4
Q 168.5 129.05 165.8 137.5 157.3 164.5 160 179.25 161.2 185.35 164.85 192.85 170.95 205.4 186.55 226.35 200.85 245.65 201.6 248.15 202.9 252.35 200.15 258.35 197.45 264.35 198.5 267.5 200.05 272.25 205.65 273.7 208.45 274.45 210.9 274.2
L 248.65 274.2
Q 256.15 274.2 258.25 268 260.35 261.75 254.25 257.45 251.25 255.35 242.2 251.6 233.4 248 232 246.9 229.3 244.75 229 220.3 228.7 194.4 232.65 180.5 234 175.75 236.25 169.8 238.9 163.1 240.1 159.95
L 241 157.65
Q 244.2 149.2 245 143.7 246.05 136.45 243.8 130.2 241.75 124.55 237.3 118.7 Z"/>
</g>

<g id="Symbol_2_copy_2_0_Layer0_0_MEMBER_6_FILL">
<path fill="#613A32" stroke="none" d="
M 239.65 15.5
Q 240.35 11.9 238.55 7.45 234.85 4.3 229.3 2.15 218.2 -2.2 208.85 2.85 203.45 5.75 201.25 11.65 199.2 17.05 200.4 23.35 201.6 29.55 205.5 34 209.7 38.8 215.7 39.75 225.95 41.4 230.75 33.55 231.95 31.55 233.65 27.05 235.15 23.25 236.1 22.15 239 18.75 239.65 15.5 Z"/>
</g>

<g id="Symbol_2_copy_2_0_Layer0_0_MEMBER_7_FILL">
<path fill="#613A32" stroke="none" d="
M 333.15 39.75
Q 339.15 38.8 343.35 34 347.25 29.55 348.45 23.35 349.65 17.1 347.6 11.65 345.4 5.75 340 2.85 330.65 -2.2 319.55 2.15 316.05 3.5 312.85 5.6
L 310.3 7.45
Q 308.5 11.9 309.2 15.5 309.85 18.75 312.75 22.15 313.7 23.25 315.2 27.05 316.9 31.55 318.1 33.55 322.9 41.4 333.15 39.75 Z"/>
</g>

<g id="Symbol_2_copy_2_0_Layer0_0_MEMBER_8_FILL">
<path fill="#54322B" stroke="none" d="
M 258.95 93.65
Q 258.1 94.55 257 96.6 254.8 100.8 253.5 106.75 252.35 111.75 259.7 114.8 265.9 117.4 275.5 117.85 285.3 117.4 291.8 114.7 299.5 111.55 297.55 106.75
L 292.1 93.65 258.95 93.65 Z"/>
</g>

<g id="Symbol_2_copy_2_0_Layer0_0_MEMBER_9_FILL">
<path fill="#613A32" stroke="none" d="
M 7.95 34.35
Q 3.6 39.05 1.5 45.75 -0.55 52.15 0.15 57.95 0.9 64 4.3 66.9 13.35 74.65 22.05 72.95 28.05 71.8 32.2 66.9 38.95 60.6 42.6 55.35 49.45 45.6 45.65 37.5 43.55 34.15 39.15 31.25 30.4 25.45 19.15 27.8 12.75 29.1 7.95 34.35 Z"/>
</g>

<g id="Symbol_2_copy_2_0_Layer0_0_MEMBER_10_FILL">
<path fill="#B59076" stroke="none" d="
M 276.3 51.55
L 274.95 51.55 274.95 51.6
Q 271.4 51.7 268.5 52.8 264.05 54.45 262.4 58 260.8 61.5 257.85 75.85 255.8 85.85 253.75 97.75 253.25 100.55 254.5 103.15 255.75 105.7 258.25 107 265.05 110.55 273.9 110.85
L 273.9 110.9 277.4 110.9 277.4 110.85
Q 286.25 110.55 293 107 295.5 105.7 296.8 103.15 298.05 100.55 297.55 97.75 291.55 63.85 288.85 58 287.2 54.45 282.75 52.8 279.85 51.7 276.3 51.6
L 276.3 51.55 Z"/>
</g>

<g id="Symbol_2_copy_2_0_Layer0_0_MEMBER_11_MEMBER_0_FILL">
<path fill="#333232" stroke="none" d="
M 275.75 87.75
L 275.5 87.75
Q 272.9 87.75 270.25 88.1 265.95 88.65 265.2 89.85 263.85 92.1 262.85 94.4 261.45 97.6 261.6 99.1 261.7 100.55 265.05 103.15 266.8 104.5 269.45 106.5 270.45 107.5 275.65 107.5 280.85 107.5 281.8 106.5 282.55 105.8 286.2 103.15 289.55 100.55 289.65 99.1 289.8 97.55 288.4 94.4 287.35 91.95 286.05 89.85 285.3 88.65 281 88.1 278.35 87.75 275.75 87.75 Z"/>
</g>

<g id="Symbol_2_copy_2_0_Layer0_0_MEMBER_11_MEMBER_1_FILL">
<path fill="#212121" stroke="none" d="
M 271.5 97.6
Q 268.9 95.65 266.15 98.7
L 263.9 102.15 267.7 105.1 271.2 102.55
Q 274.15 99.6 271.5 97.6 Z"/>
</g>

<g id="Symbol_2_copy_2_0_Layer0_0_MEMBER_11_MEMBER_2_FILL">
<path fill="#212121" stroke="none" d="
M 285.2 98.7
Q 282.45 95.65 279.8 97.6 277.2 99.6 280.15 102.55 281.6 104.05 283.6 105.1
L 287.45 102.15
Q 286.6 100.25 285.2 98.7 Z"/>
</g>

<g id="Symbol_2_copy_2_0_Layer0_0_MEMBER_12_FILL">
<path fill="#212121" stroke="none" d="
M 298.45 44.35
Q 293.8 43.45 292.65 48.05 292.1 50.35 292.45 52.8 293.6 55.7 295.7 56.35 297.5 56.9 300.35 55.75 303.45 54.45 303.5 50.05 303.55 45.35 298.45 44.35 Z"/>
</g>

<g id="Symbol_2_copy_2_0_Layer0_0_MEMBER_13_FILL">
<path fill="#EAE8E8" stroke="none" d="
M 301.15 48.3
Q 301.15 47.45 300.7 46.8 300.2 46.2 299.55 46.2 298.9 46.2 298.4 46.8 297.95 47.45 297.95 48.3 297.95 49.15 298.4 49.75 298.9 50.35 299.55 50.35 300.25 50.35 300.7 49.75 301.15 49.15 301.15 48.3 Z"/>
</g>

<g id="Symbol_2_copy_2_0_Layer0_0_MEMBER_14_FILL">
<path fill="#212121" stroke="none" d="
M 259.5 48.05
Q 258.35 43.45 253.7 44.35 248.6 45.35 248.65 50.05 248.75 54.45 251.85 55.75 254.7 56.9 256.45 56.35 258.55 55.7 259.7 52.8 260.05 50.35 259.5 48.05 Z"/>
</g>

<g id="Symbol_2_copy_2_0_Layer0_0_MEMBER_15_FILL">
<path fill="#EAE8E8" stroke="none" d="
M 251.5 46.8
Q 251.05 47.45 251.05 48.3 251.05 49.15 251.5 49.75 252 50.35 252.65 50.35 253.35 50.35 253.8 49.75 254.25 49.15 254.25 48.3 254.25 47.45 253.8 46.8 253.3 46.2 252.65 46.2 252 46.2 251.5 46.8 Z"/>
</g>

<g id="Symbol_2_copy_2_0_Layer0_0_MEMBER_16_FILL">
<path fill="#4D2E27" stroke="none" d="
M 325.05 35.7
Q 329.85 37.2 335.55 35.25 341.4 33.25 344 26.4 346.55 19.7 344.2 13.5 341.95 7.7 335.85 5.45 330.15 3.35 323.1 4.8 317.55 5.95 314.4 10.7
L 312.35 15.2
Q 311.95 16.35 313 16.85 315.1 17.75 316.25 18.9 317.85 20.5 318.45 24.1 318.8 26.15 319.55 30.7 320.55 34.25 325.05 35.7 Z"/>
</g>

<g id="Symbol_2_copy_2_0_Layer0_0_MEMBER_17_FILL">
<path fill="#4D2E27" stroke="none" d="
M 235.65 15.25
Q 236.7 14.8 236.3 13.6 235.85 11.45 234.25 9.1 231.1 4.35 225.55 3.2 218.45 1.75 212.85 3.85 206.65 6.15 204.45 11.95 202.1 18.1 204.65 24.8 207.25 31.65 213.1 33.65 218.85 35.6 223.6 34.1 228.1 32.65 229.05 29.1 229.1 28.9 230.2 22.5 230.8 18.9 232.4 17.3 233.5 16.2 235.65 15.25 Z"/>
</g>
</defs>

<g transform="matrix( 1, 0, 0, 1, 227.5,135.9) ">
<g transform="matrix( 0.871978759765625, 0, 0, 0.871978759765625, 14.75,82.35) ">
<g transform="matrix( 1.5068359375, 0, 0, 1.5068359375, -14.85,14.7) ">
<g filter="url(#Filter_1)" transform="matrix( 0.761077880859375, 0, 0, 0.761077880859375, -174.5,-175.85) ">
<g transform="matrix( 1.7382965087890625, 0, 0, 1.7382965087890625, 229.3,231.05) ">
<g transform="matrix( 0.60772705078125, 0, 0, 0.60772705078125, -106.05,-83.35) ">
<use xlink:href="#Symbol_2_copy_2_0_Layer0_0_MEMBER_0_FILL"/>
</g>

<g transform="matrix( 0.60772705078125, 0, 0, 0.60772705078125, -106.05,-83.35) ">
<use xlink:href="#Symbol_2_copy_2_0_Layer0_0_MEMBER_1_FILL"/>
</g>

<g transform="matrix( 0.60772705078125, 0, 0, 0.60772705078125, -106.05,-83.35) ">
<use xlink:href="#Symbol_2_copy_2_0_Layer0_0_MEMBER_2_FILL"/>
</g>

<g transform="matrix( 0.60772705078125, 0, 0, 0.60772705078125, -106.05,-83.35) ">
<use xlink:href="#Symbol_2_copy_2_0_Layer0_0_MEMBER_3_FILL"/>
</g>

<g transform="matrix( 0.60772705078125, 0, 0, 0.60772705078125, -106.05,-83.35) ">
<use xlink:href="#Symbol_2_copy_2_0_Layer0_0_MEMBER_4_FILL"/>
</g>

<g transform="matrix( 0.60772705078125, 0, 0, 0.60772705078125, -106.05,-83.35) ">
<use xlink:href="#Symbol_2_copy_2_0_Layer0_0_MEMBER_5_FILL"/>
</g>

<g transform="matrix( 0.60772705078125, 0, 0, 0.60772705078125, -106.05,-83.35) ">
<use xlink:href="#Symbol_2_copy_2_0_Layer0_0_MEMBER_6_FILL"/>
</g>

<g transform="matrix( 0.60772705078125, 0, 0, 0.60772705078125, -106.05,-83.35) ">
<use xlink:href="#Symbol_2_copy_2_0_Layer0_0_MEMBER_7_FILL"/>
</g>

<g transform="matrix( 0.60772705078125, 0, 0, 0.60772705078125, -106.05,-83.35) ">
<use xlink:href="#Symbol_2_copy_2_0_Layer0_0_MEMBER_8_FILL"/>
</g>

<g transform="matrix( 0.60772705078125, 0, 0, 0.60772705078125, -106.05,-83.35) ">
<use xlink:href="#Symbol_2_copy_2_0_Layer0_0_MEMBER_9_FILL"/>
</g>

<g transform="matrix( 0.60772705078125, 0, 0, 0.60772705078125, -106.05,-83.35) ">
<use xlink:href="#Symbol_2_copy_2_0_Layer0_0_MEMBER_10_FILL"/>
</g>

<g transform="matrix( 0.60772705078125, 0, 0, 0.60772705078125, -106.05,-83.35) ">
<use xlink:href="#Symbol_2_copy_2_0_Layer0_0_MEMBER_11_MEMBER_0_FILL"/>
</g>

<g transform="matrix( 0.60772705078125, 0, 0, 0.60772705078125, -106.05,-83.35) ">
<use xlink:href="#Symbol_2_copy_2_0_Layer0_0_MEMBER_11_MEMBER_1_FILL"/>
</g>

<g transform="matrix( 0.60772705078125, 0, 0, 0.60772705078125, -106.05,-83.35) ">
<use xlink:href="#Symbol_2_copy_2_0_Layer0_0_MEMBER_11_MEMBER_2_FILL"/>
</g>

<g transform="matrix( 0.60772705078125, 0, 0, 0.60772705078125, -106.05,-83.35) ">
<use xlink:href="#Symbol_2_copy_2_0_Layer0_0_MEMBER_12_FILL"/>
</g>

<g transform="matrix( 0.60772705078125, 0, 0, 0.60772705078125, -106.05,-83.35) ">
<use xlink:href="#Symbol_2_copy_2_0_Layer0_0_MEMBER_13_FILL"/>
</g>

<g transform="matrix( 0.60772705078125, 0, 0, 0.60772705078125, -106.05,-83.35) ">
<use xlink:href="#Symbol_2_copy_2_0_Layer0_0_MEMBER_14_FILL"/>
</g>

<g transform="matrix( 0.60772705078125, 0, 0, 0.60772705078125, -106.05,-83.35) ">
<use xlink:href="#Symbol_2_copy_2_0_Layer0_0_MEMBER_15_FILL"/>
</g>

<g transform="matrix( 0.60772705078125, 0, 0, 0.60772705078125, -106.05,-83.35) ">
<use xlink:href="#Symbol_2_copy_2_0_Layer0_0_MEMBER_16_FILL"/>
</g>

<g transform="matrix( 0.60772705078125, 0, 0, 0.60772705078125, -106.05,-83.35) ">
<use xlink:href="#Symbol_2_copy_2_0_Layer0_0_MEMBER_17_FILL"/>
</g>
</g>
</g>
</g>
</g>
</g>
</svg>
