
<svg xmlns="http://www.w3.org/2000/svg" version="1.1" xmlns:xlink="http://www.w3.org/1999/xlink" preserveAspectRatio="none" x="0px" y="0px" width="1920px" height="1080px" viewBox="0 0 1920 1080">
<defs>
<g id="Symbol_1_8_Layer1_0_FILL">
<path fill="#FFFFFF" stroke="none" d="
M -236.15 -34.75
L -236.15 -28.8 -201.95 -28.8 -201.95 -3.5 -202.95 -1.45
Q -203.6 -0.45 -204.85 -0.05
L -208.15 0.4
Q -214.15 0.4 -216.75 -4.7
L -221 -12.85 -227.3 -8.8 -218.05 7.05 -200.35 32.75
Q -196 39.25 -193.4 40.1
L -187.55 35.15 -197.45 24.15 -201.35 19.05 -210.3 5.5
Q -209.2 6.05 -208.25 6.05
L -206.65 6.2 -205.25 5.95
Q -204.75 5.5 -203.45 5.5
L -200.35 4.65
Q -196.4 2.85 -195.45 -0.1
L -194.6 -3.3 -194.6 -28.8 -167.35 -28.8 -167.35 -3.5 -192.85 -3.5 -187.75 2.45 -167.35 2.45 -167.35 40.1 -159.65 40.1 -159.65 -28.8 -102.85 -28.8 -102.85 -16.2 -133.45 -16.2 -136.05 -15.75 -138.15 -14.65 -139.8 -12.65 -140.25 -10.1 -138.75 -4.7
Q -137.9 -2.05 -135.15 1.6
L -130.15 7.3 -133.65 10.8
Q -135.25 12.35 -136.4 14.25 -138.75 18 -138.75 21.55 -138.75 34.85 -120.05 41.3
L -114.6 43.15
Q -107.8 45.5 -103.35 45.5 -101.35 45.2 -100.8 44.9
L -98.05 39.7
Q -98.15 39.7 -98.45 39.7 -98.75 39.7 -99.45 39.7
L -102.75 39.7 -114.95 36.65
Q -122.75 34.45 -126.85 30.6 -130.75 26.7 -130.75 22.45 -130.75 19.3 -129.45 16.6 -125.8 8.15 -112.35 8.15
L -106.45 8.75
Q -98.05 9.8 -98.05 17.3 -98.45 20.9 -100.5 23.1
L -100.95 23.55 -101.5 23.8 -102.15 24.25 -102.85 24.6 -97.45 28.9 -93.35 25.85
Q -91.65 24.1 -90.95 22.2 -90.3 20.2 -90.3 17.3 -90.3 13.95 -91.8 10.8 -94.7 5.55 -102.85 3.35 -105.55 2.8 -107.5 2.65 -109.5 2.5 -111.85 2.5
L -115.15 2.5 -124 4.25 -125 3.7 -129.05 -1.4 -129.6 -2.5
Q -131.25 -4.15 -131.5 -5.55
L -132.1 -8.05 -131.5 -9.4
Q -130.95 -10.1 -129.6 -10.1
L -95.1 -10.1 -95.1 -28.8 -70.8 -28.8 -70.8 40.1 -63.25 40.1 -63.25 -28.8 -51.05 -28.8 -51.05 -34.6 -64.85 -34.6 -70.05 -43.75 -74.3 -50.25
Q -78.9 -57.3 -85.75 -62 -91.35 -65.9 -96.45 -65.9 -108.35 -65.9 -112.6 -53.55 -113.55 -50.65 -113.7 -49.7 -113.85 -48.6 -113.85 -46.5
L -113.85 -43.15 -112.8 -40 -111.3 -37.05 -109.55 -34.75 -236.15 -34.75
M -106 -50.5
Q -104.85 -54.55 -103.5 -56.6 -100.9 -60.2 -96.2 -60.2 -91 -60.2 -84.05 -52.1 -72.35 -38.7 -72.35 -35.15
L -72.5 -34.6 -80.6 -34.6 -80.6 -34.75 -101.05 -34.75 -101.95 -36 -103.8 -39.7
Q -104.3 -40.55 -104.65 -41.6 -105 -42.75 -105.5 -44.3 -106 -45.9 -106 -47.75
L -106 -50.5
M -447.2 -28.85
L -451.95 -24.9
Q -453 -23.9 -453.2 -23.6 -453.4 -23.35 -453.55 -22.85
L -447.9 -18.3 -445 -21.45 -439.6 -25.95
Q -435.15 -28.8 -431.45 -28.8 -429.05 -28.8 -426.45 -27.8 -422.35 -25.9 -421.5 -21.9 -420.9 -20.35 -420.9 -17.55 -420.9 -14.5 -422.55 -11.75 -426.15 -6.2 -432.8 -4.45 -433.5 -4.3 -435.55 -3.85 -437.25 -3.85 -439.05 -3.85
L -436.55 1.5 -435 1.5
Q -433.65 0.65 -431.9 0.65
L -429.4 0.65
Q -425.25 0.65 -421 2.95 -416.8 5.1 -415.75 9.1 -414.9 10.65 -414.75 11.7 -414.6 12.7 -414.6 15.05 -414.6 17.3 -415.6 19.9 -419.3 28.05 -425.95 28.05 -435.65 28.05 -444.5 14.8
L -448.1 9.45 -452.65 1.5 -458.6 5.4
Q -458.6 9.3 -449.15 20.35 -443.55 27.05 -437.9 30.4 -434.7 32.25 -432.1 33 -429.4 33.75 -426.35 33.75
L -422.35 33.75
Q -407.4 30.85 -407.4 15.4
L -407.4 12.15 -408.25 8.8 -409.3 6.25 -407.7 7.05 -403.15 8.3 -397.5 8.3 -393.15 7.2 -393.15 40.1 -385.8 40.1 -385.8 -28.8 -362.85 -28.8 -362.85 40.1 -355.1 40.1 -355.1 -28.8 -306.55 -28.8 -306.55 -10.5
Q -307.4 -5.3 -309.65 -3.25 -311.95 -1.1 -316.65 -1.1 -322.6 -1.1 -324.95 -4.7
L -330.9 -14.85 -336.85 -10.5 -326.65 6.9 -322.2 13.55
Q -315.25 24.05 -308.1 32.25 -302.15 39.4 -299.95 40.1
L -294.65 35.15 -305.35 23.75 -309.45 18.65 -319.85 3.7
Q -319.3 4.15 -317.25 4.4
L -314.5 4.4
Q -311.6 4.4 -308.65 3.45 -298.85 -0.45 -298.85 -9.9
L -298.85 -28.8 -287.2 -28.8 -287.2 -34.75 -353.2 -34.75 -376.45 -71.25 -383.25 -67.5 -358.3 -34.75 -367.1 -34.75 -393.9 -59.8 -399.3 -53.85 -370.75 -34.75 -407.2 -34.75 -407.2 -28.8 -393.15 -28.8 -393.15 0.75 -395.1 1.5 -400.1 2.8 -406.85 2.8 -411.7 0.9 -420.3 -3.6 -421.65 -3.85 -422.35 -3.75
Q -414.1 -8.4 -414.1 -17.55 -414.1 -24.55 -418.6 -29.35 -423.95 -34.75 -430.9 -34.75 -440.05 -34.75 -447.2 -28.85
M -518.15 -50.95
L -518.15 -60.35 -528.15 -60.35 -528.15 -50.95 -518.15 -50.95
M -639.3 -28.8
L -639.3 -3.5 -640.3 -1.45
Q -640.95 -0.45 -642.2 -0.05
L -645.5 0.4
Q -651.5 0.4 -654.1 -4.7
L -658.35 -12.85 -664.65 -8.8 -655.4 7.05 -637.7 32.75
Q -633.35 39.25 -630.75 40.1
L -624.9 35.15 -627.9 32.1 -638.7 19.05 -647.65 5.5
Q -646.55 6.05 -645.6 6.05
L -644 6.2 -642.6 5.95
Q -642.1 5.5 -640.8 5.5
L -637.7 4.65
Q -633.75 2.85 -632.8 -0.1
L -631.95 -3.3 -631.95 -28.8 -604.7 -28.8 -604.7 -3.5 -630.2 -3.5 -625.1 2.45 -604.7 2.45 -604.7 40.1
Q -609.3 41 -612.85 43.05
L -616.6 45.25 -618.3 46.85 -612.55 52 -609.3 48.75
Q -605.25 45.9 -601.8 45.9
L -598.45 46.55
Q -596.7 47.75 -595.85 48.9
L -593.65 52
Q -592.95 53.7 -592.65 55.55 -592.65 58.25 -593.65 60.3 -598.2 67.35 -608.75 67.35 -617.6 67.35 -627.55 60.7
L -637.05 54.05 -641.95 60.3
Q -640.25 62 -635.85 64.6
L -625.6 69.85
Q -616.15 73.75 -609.1 73.75 -600.1 73.75 -593.3 69.55 -585.45 64.75 -585.45 55.6 -585.45 52.85 -586.45 49.1 -587.65 46.35 -589.9 44 -593.2 40.75 -598.35 40.1
L -597 40.1 -597 -28.8 -532.45 -28.8 -532.45 -8.75 -574 -8.75 -575.3 -8.35
Q -577.65 -6.5 -577.65 -3.95 -577.2 -2.25 -575.85 -0.05 -573.45 3.85 -571.25 6.35
L -565.9 11.9
Q -563.55 13.85 -562.7 13.85
L -561 13.85
Q -559.8 12.7 -559.65 12.4 -559.5 12.2 -559.5 11.5
L -559.5 -2.95 -532.45 -2.95 -532.45 40.1 -524.75 40.1 -524.75 -28.8 -512.85 -28.8 -512.85 -34.75 -527.25 -34.75 -557 -71.25 -562.05 -65.75 -532.05 -34.75 -673.5 -34.75 -673.5 -28.8 -639.3 -28.8
M 30.25 -28.8
Q 32.65 -28.8 35.25 -27.8 39.35 -25.9 40.2 -21.9 40.8 -20.35 40.8 -17.55 40.8 -14.5 39.15 -11.75 35.55 -6.2 28.9 -4.45 28.2 -4.3 26.15 -3.85 24.45 -3.85 22.65 -3.85
L 25.15 1.5 26.7 1.5
Q 28.05 0.65 29.8 0.65
L 32.3 0.65
Q 36.45 0.65 40.7 2.95 44.9 5.1 45.95 9.1 46.8 10.65 46.95 11.7 47.1 12.7 47.1 15.05 47.1 17.3 46.1 19.9 42.4 28.05 35.75 28.05 26.05 28.05 17.2 14.8
L 13.6 9.45 9.05 1.5 3.1 5.4
Q 3.1 9.3 12.55 20.35 18.15 27.05 23.8 30.4 27 32.25 29.6 33 32.3 33.75 35.35 33.75
L 39.35 33.75
Q 54.3 30.85 54.3 15.4
L 54.3 12.15 53.45 8.8 52.4 6.25 54 7.05 58.55 8.3 64.2 8.3 68.55 7.2 68.55 40.1 75.9 40.1 75.9 -28.8 98.85 -28.8 98.85 40.1 106.6 40.1 106.6 -28.8 163.85 -28.8 163.85 9.1
Q 161.5 13.1 156.8 15.3 154.95 16.95 152.45 17.35
L 149.7 17.95 148.15 17.95
Q 145.95 17.95 142.35 16.95 134.7 13 134.7 2.7 134.7 0.1 135.4 -2.5 138 -8.75 141.65 -10.1 143.8 -11.1 147 -11.1
L 150.9 -10.65 154.8 -9.45 157.7 -8.05 156.05 -15.9
Q 155.5 -15.9 154.1 -15.9
L 148.7 -16.9 146.1 -16.9
Q 138 -16.9 132.3 -10.6 126.55 -4.3 126.55 4.05 126.55 6.55 126.95 8.45 127.4 10.45 128.1 12 129.85 15.45 133.35 18.5 139.85 24.15 148.35 24.15
L 152.9 23.75 157.35 22.1 163.85 17.5 163.85 40.1 171.6 40.1 171.6 -28.8 194.5 -28.8 194.5 40.1 202.25 40.1 202.25 -28.8 286.75 -28.8 286.75 -10.4 252.15 -10.25
Q 253.4 -9.25 254.35 -7.75
L 258.1 -2.25
Q 260.55 0.95 262.35 6.35 263.6 10.5 263.6 13.85 263.6 18.5 261.2 21.75 258.8 25 254.5 25 246.6 25 239.55 14.9 233.75 6.75 230.55 -3.1
L 227.95 -11.25 227.65 -13.15 227.65 -14.25 221.4 -9.6 222 -6.4 224.75 1.1
Q 229.35 13.1 235.3 20.4 244.15 30.7 253.85 30.7 257.95 30.7 261.15 29.55 267.65 26.65 269.7 20.4 270.7 17.8 270.75 16.3 270.85 14.9 270.85 13.55
L 270.25 9.65 268.8 4.55 266.25 -1.8
Q 265.15 -4.3 264.3 -4.7
L 286.75 -4.7 286.75 40.1 294.5 40.1 294.5 -28.8 306.4 -28.8 306.4 -34.75 54.5 -34.75 54.5 -28.8 68.55 -28.8 68.55 0.75 66.6 1.5 61.6 2.8 54.85 2.8 50 0.9 41.4 -3.6 40.05 -3.85 39.35 -3.75
Q 47.6 -8.4 47.6 -17.55 47.6 -24.55 43.1 -29.35 37.75 -34.75 30.8 -34.75 21.65 -34.75 14.5 -28.85
L 9.75 -24.9
Q 8.7 -23.9 8.5 -23.6 8.3 -23.35 8.15 -22.85
L 13.8 -18.3 16.7 -21.45 22.1 -25.95
Q 26.55 -28.8 30.25 -28.8
M 653.9 -28.8
L 653.9 -8.75 612.35 -8.75 611.05 -8.35
Q 608.7 -6.5 608.7 -3.95 609.15 -2.25 610.5 -0.05 612.9 3.85 615.1 6.35
L 620.45 11.9
Q 622.8 13.85 623.65 13.85
L 625.35 13.85
Q 626.55 12.7 626.7 12.4 626.85 12.2 626.85 11.5
L 626.85 -2.95 653.9 -2.95 653.9 40.1 661.6 40.1 661.6 -28.8 673.5 -28.8 673.5 -34.75 659.1 -34.75 629.35 -71.25 624.3 -65.75 654.3 -34.75 360.15 -34.75 360.15 -28.8 371.5 -28.8 371.5 -1.95
Q 371.5 1.5 372.9 5.9 379 18.2 391.6 18.2 397.55 18.2 402.65 14.75
L 407.1 11.2 407.1 40.1 414.8 40.1 414.8 -28.8 471.3 -28.8 471.3 -16.2 440.7 -16.2 438.1 -15.75 436 -14.65 434.35 -12.65 433.9 -10.1 435.4 -4.7
Q 436.25 -2.05 439 1.6
L 444 7.3 440.5 10.8
Q 438.9 12.35 437.75 14.25 435.4 18 435.4 21.55 435.4 34.85 454.1 41.3
L 459.55 43.15
Q 466.35 45.5 470.8 45.5 472.8 45.2 473.35 44.9
L 476.1 39.7
Q 476 39.7 475.7 39.7 475.4 39.7 474.7 39.7
L 471.4 39.7 459.2 36.65
Q 451.4 34.45 447.3 30.6 443.4 26.7 443.4 22.45 443.4 19.3 444.7 16.6 448.35 8.15 461.8 8.15
L 467.7 8.75
Q 476.1 9.8 476.1 17.3 475.7 20.9 473.65 23.1
L 473.2 23.55 472.65 23.8 472 24.25 471.3 24.6 476.7 28.9 480.8 25.85
Q 482.5 24.1 483.2 22.2 483.85 20.2 483.85 17.3 483.85 13.95 482.35 10.8 479.45 5.55 471.3 3.35 468.6 2.8 466.65 2.65 464.65 2.5 462.3 2.5
L 459 2.5 450.15 4.25 449.15 3.7 445.1 -1.4 444.55 -2.5
Q 442.9 -4.15 442.65 -5.55
L 442.05 -8.05 442.65 -9.4
Q 443.2 -10.1 444.55 -10.1
L 479.05 -10.1 479.05 -28.8 551.75 -28.8 551.75 1.65
Q 551.75 3.55 547.9 7.75
L 544.85 10.65
Q 536.1 18.8 527.75 18.8
L 523.75 18.2
Q 518.05 15.75 518.05 8.5 518.05 1.85 525.15 -3.95
L 532.25 -9.2 541.95 -9.2 541.95 -15.1 497.7 -15.1 497.7 -9.2 521.45 -9.05
Q 519.35 -7.75 517.7 -6.15 510.5 1.1 510.5 8.8 510.5 12.4 511.85 15.55 513.25 18.65 515.45 20.55 520.2 24.75 527.4 24.75 531.25 24.75 535.55 22.95 541.35 20.7 544.25 18.35
L 549.45 14.1 551.75 11.2 551.75 40.1 559.5 40.1 559.5 -28.8 581.8 -28.8 581.8 40.1 589.55 40.1 589.55 -28.8 653.9 -28.8
M 378.85 -0.95
L 378.85 -28.8 407.1 -28.8 407.1 2.6 402.9 7.6 400.15 9.8
Q 395.6 12.55 391.3 12.55
L 387 11.85
Q 378.85 7.3 378.85 -0.95
M 658.2 -50.95
L 668.2 -50.95 668.2 -60.35 658.2 -60.35 658.2 -50.95 Z"/>
</g>
</defs>

<g transform="matrix( 1, 0, 0, 1, 960,540) ">
<g transform="matrix( 1, 0, 0, 1, 0,0) ">
<use xlink:href="#Symbol_1_8_Layer1_0_FILL"/>
</g>
</g>
</svg>
