
<svg xmlns="http://www.w3.org/2000/svg" version="1.1" xmlns:xlink="http://www.w3.org/1999/xlink" preserveAspectRatio="none" x="0px" y="0px" width="1920px" height="1080px" viewBox="0 0 1920 1080">
<defs>
<g id="Symbol_1_10_Layer1_0_FILL">
<path fill="#FFFFFF" stroke="none" d="
M -222.2 -34.75
L -222.2 -28.8 -188 -28.8 -188 -3.5 -189 -1.45
Q -189.65 -0.45 -190.9 -0.05
L -194.2 0.4
Q -200.2 0.4 -202.8 -4.7
L -207.05 -12.85 -213.35 -8.8 -204.1 7.05 -186.4 32.75
Q -182.05 39.25 -179.45 40.1
L -173.6 35.15 -176.6 32.1 -187.4 19.05 -196.35 5.5
Q -195.25 6.05 -194.3 6.05
L -192.7 6.2 -191.3 5.95
Q -190.8 5.5 -189.5 5.5
L -186.4 4.65
Q -182.45 2.85 -181.5 -0.1
L -180.65 -3.3 -180.65 -28.8 -153.4 -28.8 -153.4 -3.5 -178.9 -3.5 -173.8 2.45 -153.4 2.45 -153.4 40.1 -145.7 40.1 -145.7 -28.8 -88.9 -28.8 -88.9 -16.2 -119.5 -16.2 -122.1 -15.75 -124.2 -14.65 -125.85 -12.65 -126.3 -10.1 -124.8 -4.7
Q -123.95 -2.05 -121.2 1.6
L -116.2 7.3 -119.7 10.8
Q -121.3 12.35 -122.45 14.25 -124.8 18 -124.8 21.55 -124.8 34.85 -106.1 41.3
L -100.65 43.15
Q -93.85 45.5 -89.4 45.5 -87.4 45.2 -86.85 44.9
L -84.1 39.7
Q -84.2 39.7 -84.5 39.7 -84.8 39.7 -85.5 39.7
L -88.8 39.7 -101 36.65
Q -108.8 34.45 -112.9 30.6 -116.8 26.7 -116.8 22.45 -116.8 19.3 -115.5 16.6 -111.85 8.15 -98.4 8.15
L -92.5 8.75
Q -84.1 9.8 -84.1 17.3 -84.5 20.9 -86.55 23.1
L -87 23.55 -87.55 23.8 -88.2 24.25 -88.9 24.6 -83.5 28.9 -79.4 25.85
Q -77.7 24.1 -77 22.2 -76.35 20.2 -76.35 17.3 -76.35 13.95 -77.85 10.8 -80.75 5.55 -88.9 3.35 -91.6 2.8 -93.55 2.65 -95.55 2.5 -97.9 2.5
L -101.2 2.5 -110.05 4.25 -111.05 3.7 -115.1 -1.4 -115.65 -2.5
Q -117.3 -4.15 -117.55 -5.55
L -118.15 -8.05 -117.55 -9.4
Q -117 -10.1 -115.65 -10.1
L -81.15 -10.1 -81.15 -28.8 -56.85 -28.8 -56.85 40.1 -49.3 40.1 -49.3 -28.8 -37.1 -28.8 -37.1 -34.6 -50.9 -34.6 -56.1 -43.75 -60.35 -50.25
Q -64.95 -57.3 -71.8 -62 -77.4 -65.9 -82.5 -65.9 -94.4 -65.9 -98.65 -53.55 -99.6 -50.65 -99.75 -49.7 -99.9 -48.6 -99.9 -46.5
L -99.9 -43.15 -98.85 -40 -97.35 -37.05 -95.6 -34.75 -222.2 -34.75
M -92.05 -50.5
Q -90.9 -54.55 -89.55 -56.6 -86.95 -60.2 -82.25 -60.2 -77.05 -60.2 -70.1 -52.1 -58.4 -38.7 -58.4 -35.15
L -58.55 -34.6 -66.65 -34.6 -66.65 -34.75 -87.1 -34.75 -88 -36 -89.85 -39.7
Q -90.35 -40.55 -90.7 -41.6 -91.05 -42.75 -91.55 -44.3 -92.05 -45.9 -92.05 -47.75
L -92.05 -50.5
M -417.5 -28.8
Q -415.1 -28.8 -412.5 -27.8 -408.4 -25.9 -407.55 -21.9 -406.95 -20.35 -406.95 -17.55 -406.95 -14.5 -408.6 -11.75 -412.2 -6.2 -418.85 -4.45 -419.55 -4.3 -421.6 -3.85 -423.3 -3.85 -425.1 -3.85
L -422.6 1.5 -421.05 1.5
Q -419.7 0.65 -417.95 0.65
L -415.45 0.65
Q -411.3 0.65 -407.05 2.95 -402.85 5.1 -401.8 9.1 -400.95 10.65 -400.8 11.7 -400.65 12.7 -400.65 15.05 -400.65 17.3 -401.65 19.9 -405.35 28.05 -412 28.05 -421.7 28.05 -430.55 14.8
L -434.15 9.45 -438.7 1.5 -444.65 5.4
Q -444.65 9.3 -435.2 20.35 -429.6 27.05 -423.95 30.4 -420.75 32.25 -418.15 33 -415.45 33.75 -412.4 33.75
L -408.4 33.75
Q -393.45 30.85 -393.45 15.4
L -393.45 12.15 -394.3 8.8 -395.35 6.25 -393.75 7.05 -389.2 8.3 -383.55 8.3 -379.2 7.2 -379.2 40.1 -371.85 40.1 -371.85 -28.8 -348.9 -28.8 -348.9 40.1 -341.15 40.1 -341.15 -28.8 -292.6 -28.8 -292.6 -10.5
Q -293.45 -5.3 -295.7 -3.25 -298 -1.1 -302.7 -1.1 -308.65 -1.1 -311 -4.7
L -316.95 -14.85 -322.9 -10.5 -312.7 6.9 -308.25 13.55
Q -301.3 24.05 -294.15 32.25 -288.2 39.4 -286 40.1
L -280.7 35.15 -291.4 23.75 -295.5 18.65 -305.9 3.7
Q -305.35 4.15 -303.3 4.4
L -300.55 4.4
Q -297.65 4.4 -294.7 3.45 -284.9 -0.45 -284.9 -9.9
L -284.9 -28.8 -273.25 -28.8 -273.25 -34.75 -339.25 -34.75 -362.5 -71.25 -369.3 -67.5 -344.35 -34.75 -353.15 -34.75 -379.95 -59.8 -385.35 -53.85 -356.8 -34.75 -393.25 -34.75 -393.25 -28.8 -379.2 -28.8 -379.2 0.75 -381.15 1.5 -386.15 2.8 -392.9 2.8 -397.75 0.9 -406.35 -3.6 -407.7 -3.85 -408.4 -3.75
Q -400.15 -8.4 -400.15 -17.55 -400.15 -24.55 -404.65 -29.35 -410 -34.75 -416.95 -34.75 -426.1 -34.75 -433.25 -28.85
L -438 -24.9
Q -439.05 -23.9 -439.25 -23.6 -439.45 -23.35 -439.6 -22.85
L -433.95 -18.3 -428.7 -23.6 -425.65 -25.95
Q -421.2 -28.8 -417.5 -28.8
M -514.2 -50.95
L -504.2 -50.95 -504.2 -60.35 -514.2 -60.35 -514.2 -50.95
M -625.35 -28.8
L -625.35 -3.5 -626.35 -1.45
Q -627 -0.45 -628.25 -0.05
L -631.55 0.4
Q -637.55 0.4 -640.15 -4.7
L -644.4 -12.85 -650.7 -8.8 -641.45 7.05 -623.75 32.75
Q -619.4 39.25 -616.8 40.1
L -610.95 35.15 -613.95 32.1 -624.75 19.05 -633.7 5.5
Q -632.6 6.05 -631.65 6.05
L -630.05 6.2 -628.65 5.95
Q -628.15 5.5 -626.85 5.5
L -623.75 4.65
Q -619.8 2.85 -618.85 -0.1
L -618 -3.3 -618 -28.8 -590.75 -28.8 -590.75 -3.5 -616.25 -3.5 -611.15 2.45 -590.75 2.45 -590.75 40.1
Q -595.35 41 -598.9 43.05
L -602.65 45.25 -604.35 46.85 -598.6 52 -595.35 48.75
Q -591.3 45.9 -587.85 45.9
L -584.5 46.55
Q -582.75 47.75 -581.9 48.9
L -579.7 52
Q -579 53.7 -578.7 55.55 -578.7 58.25 -579.7 60.3 -584.25 67.35 -594.8 67.35 -603.65 67.35 -613.6 60.7
L -623.1 54.05 -628 60.3
Q -626.3 62 -621.9 64.6
L -611.65 69.85
Q -602.2 73.75 -595.15 73.75 -586.15 73.75 -579.35 69.55 -571.5 64.75 -571.5 55.6 -571.5 52.85 -572.5 49.1 -573.7 46.35 -575.95 44 -579.25 40.75 -584.4 40.1
L -583.05 40.1 -583.05 -28.8 -518.5 -28.8 -518.5 -8.75 -560.05 -8.75 -561.35 -8.35
Q -563.7 -6.5 -563.7 -3.95 -563.25 -2.25 -561.9 -0.05 -559.5 3.85 -557.3 6.35
L -551.95 11.9
Q -549.6 13.85 -548.75 13.85
L -547.05 13.85
Q -545.85 12.7 -545.7 12.4 -545.55 12.2 -545.55 11.5
L -545.55 -2.95 -518.5 -2.95 -518.5 40.1 -510.8 40.1 -510.8 -28.8 -498.9 -28.8 -498.9 -34.75 -513.3 -34.75 -543.05 -71.25 -548.1 -65.75 -518.1 -34.75 -659.55 -34.75 -659.55 -28.8 -625.35 -28.8
M 15.1 -34.75
L 15.1 -28.8 69.45 -28.8 69.45 -14.15 37.65 -14.15
Q 34.75 -14.15 32 -12.7 29.3 -11.25 28.1 -9.45 24.8 -5.15 24.8 1.35 24.8 6.6 26.15 11.3 27.55 16.05 30.6 21.25
L 35.2 28.35 41.15 35 45.25 38.95
Q 45.95 39.7 46.3 39.8 46.65 39.95 47.1 40.1
L 52.2 34.85
Q 50.75 34.85 49.4 34 44.7 30.95 38.5 21.15 32.35 11.2 32.35 1.35
L 32.95 -2.25
Q 34.7 -6.65 37.9 -7.2 40 -8.05 42.35 -8.05
L 69.45 -8.05 69.45 40.1 77.2 40.1 77.2 -28.8 120.7 -28.8 120.7 -3.5 119.65 -1.45
Q 119.05 -0.45 117.75 -0.05
L 114.55 0.4
Q 108.5 0.4 105.85 -4.7
L 101.6 -12.85 95.3 -8.8 104.55 7.05 122.25 32.75
Q 126.6 39.25 129.2 40.1
L 135.15 35.15 125.15 24.15 121.25 19.05 112.3 5.5
Q 113.4 6.05 114.35 6.05
L 115.95 6.2 117.45 5.95
Q 117.85 5.5 119.2 5.5
L 122.35 4.65
Q 126.3 2.85 127.15 -0.1
L 128.05 -3.3 128.05 -28.8 188.3 -28.8 188.3 9.1
Q 185.95 13.1 181.25 15.3 179.4 16.95 176.9 17.35
L 174.15 17.95 172.6 17.95
Q 170.4 17.95 166.8 16.95 159.15 13 159.15 2.7 159.15 0.1 159.85 -2.5 162.45 -8.75 166.1 -10.1 168.25 -11.1 171.45 -11.1
L 175.35 -10.65 179.25 -9.45 182.15 -8.05 180.5 -15.9
Q 179.95 -15.9 178.55 -15.9
L 173.15 -16.9 170.55 -16.9
Q 162.45 -16.9 156.75 -10.6 153.75 -7.35 152.35 -3.5
L 129.75 -3.5 134.85 2.45 151.05 2.45
Q 151 3.25 151 4.05 151 6.55 151.4 8.45 151.85 10.45 152.55 12 154.3 15.45 157.8 18.5 164.3 24.15 172.8 24.15
L 177.35 23.75 181.8 22.1 188.3 17.5 188.3 40.1 196.05 40.1 196.05 -28.8 218.9 -28.8 218.9 40.1 226.45 40.1 226.45 -28.8 274.4 -28.8 274.4 -10.5
Q 273.55 -5.3 271.3 -3.25 269 -1.1 264.3 -1.1 258.35 -1.1 256 -4.7
L 250.05 -14.85 244.1 -10.5 254.3 6.9 258.75 13.55
Q 265.7 24.05 272.85 32.25 278.8 39.4 281 40.1
L 286.3 35.15 275.6 23.75 271.5 18.65 261.1 3.7
Q 261.65 4.15 263.7 4.4
L 266.45 4.4
Q 269.35 4.4 272.3 3.45 282.1 -0.45 282.1 -9.9
L 282.1 -28.8 293.75 -28.8 293.75 -34.75 234.4 -34.75 234.4 -34.6 224.85 -34.6 219.65 -43.75 215.4 -50.25
Q 210.8 -57.3 203.95 -62 198.35 -65.9 193.25 -65.9 181.35 -65.9 177.1 -53.55 176.15 -50.65 176 -49.7 175.85 -48.6 175.85 -46.5
L 175.85 -43.15 176.9 -40 178.4 -37.05 180.15 -34.75 15.1 -34.75
M 183.7 -50.5
Q 184.85 -54.55 186.2 -56.6 188.8 -60.2 193.5 -60.2 198.7 -60.2 205.65 -52.1 217.35 -38.7 217.35 -35.15
L 217.2 -34.6 209.4 -34.6 209.4 -34.75 188.65 -34.75 187.75 -36 185.9 -39.7
Q 185.4 -40.55 185.05 -41.6 184.7 -42.75 184.2 -44.3 183.7 -45.9 183.7 -47.75
L 183.7 -50.5
M 659.55 -28.8
L 659.55 -34.75 645.15 -34.75 615.4 -71.25 610.35 -65.75 640.35 -34.75 346.2 -34.75 346.2 -28.8 357.55 -28.8 357.55 -1.95
Q 357.55 1.5 358.95 5.9 365.05 18.2 377.65 18.2 383.6 18.2 388.7 14.75
L 393.15 11.2 393.15 40.1 400.85 40.1 400.85 -28.8 457.35 -28.8 457.35 -16.2 426.75 -16.2 424.15 -15.75 422.05 -14.65 420.4 -12.65 419.95 -10.1 421.45 -4.7
Q 422.3 -2.05 425.05 1.6
L 430.05 7.3 426.55 10.8
Q 424.95 12.35 423.8 14.25 421.45 18 421.45 21.55 421.45 34.85 440.15 41.3
L 445.6 43.15
Q 452.4 45.5 456.85 45.5 458.85 45.2 459.4 44.9
L 462.15 39.7
Q 462.05 39.7 461.75 39.7 461.45 39.7 460.75 39.7
L 457.45 39.7 445.25 36.65
Q 437.45 34.45 433.35 30.6 429.45 26.7 429.45 22.45 429.45 19.3 430.75 16.6 434.4 8.15 447.85 8.15
L 453.75 8.75
Q 462.15 9.8 462.15 17.3 461.75 20.9 459.7 23.1
L 459.25 23.55 458.7 23.8 458.05 24.25 457.35 24.6 462.75 28.9 466.85 25.85
Q 468.55 24.1 469.25 22.2 469.9 20.2 469.9 17.3 469.9 13.95 468.4 10.8 465.5 5.55 457.35 3.35 454.65 2.8 452.7 2.65 450.7 2.5 448.35 2.5
L 445.05 2.5 436.2 4.25 435.2 3.7 431.15 -1.4 430.6 -2.5
Q 428.95 -4.15 428.7 -5.55
L 428.1 -8.05 428.7 -9.4
Q 429.25 -10.1 430.6 -10.1
L 465.1 -10.1 465.1 -28.8 537.8 -28.8 537.8 1.65
Q 537.8 3.55 533.95 7.75
L 530.9 10.65
Q 522.15 18.8 513.8 18.8
L 509.8 18.2
Q 504.1 15.75 504.1 8.5 504.1 1.85 511.2 -3.95
L 518.3 -9.2 528 -9.2 528 -15.1 483.75 -15.1 483.75 -9.2 507.5 -9.05
Q 505.4 -7.75 503.75 -6.15 496.55 1.1 496.55 8.8 496.55 12.4 497.9 15.55 499.3 18.65 501.5 20.55 506.25 24.75 513.45 24.75 517.3 24.75 521.6 22.95 527.4 20.7 530.3 18.35
L 535.5 14.1 537.8 11.2 537.8 40.1 545.55 40.1 545.55 -28.8 567.85 -28.8 567.85 40.1 575.6 40.1 575.6 -28.8 639.95 -28.8 639.95 -8.75 598.4 -8.75 597.1 -8.35
Q 594.75 -6.5 594.75 -3.95 595.2 -2.25 596.55 -0.05 598.95 3.85 601.15 6.35
L 606.5 11.9
Q 608.85 13.85 609.7 13.85
L 611.4 13.85
Q 612.6 12.7 612.75 12.4 612.9 12.2 612.9 11.5
L 612.9 -2.95 639.95 -2.95 639.95 40.1 647.65 40.1 647.65 -28.8 659.55 -28.8
M 364.9 -0.95
L 364.9 -28.8 393.15 -28.8 393.15 2.6 388.95 7.6 386.2 9.8
Q 381.65 12.55 377.35 12.55
L 373.05 11.85
Q 364.9 7.3 364.9 -0.95
M 654.25 -50.95
L 654.25 -60.35 644.25 -60.35 644.25 -50.95 654.25 -50.95 Z"/>
</g>
</defs>

<g transform="matrix( 1, 0, 0, 1, 960,540) ">
<g transform="matrix( 1, 0, 0, 1, 0,0) ">
<use xlink:href="#Symbol_1_10_Layer1_0_FILL"/>
</g>
</g>
</svg>
