
<svg xmlns="http://www.w3.org/2000/svg" version="1.1" xmlns:xlink="http://www.w3.org/1999/xlink" preserveAspectRatio="none" x="0px" y="0px" width="1129px" height="241px" viewBox="0 0 1129 241">
<defs>
<g id="Symbol_69_0_Layer1_0_FILL">
<path fill="#000000" stroke="none" d="
M 25.6 -2.2
Q 26.8 -4.4 28.25 -5.2 29.7 -6.05 31.5 -6.2 33.3 -6.4 38.45 -6.4
L 44.2 -6.3 41.15 -11.7 8.3 -11.7 11.35 -6.05 21.2 -6.05
Q 20 -4.6 19.4 -3.15 18.8 -1.75 18.8 0.15 18.8 4.85 22.75 8.45 27.3 12.5 34.5 12.5 40.95 12.5 46.35 7.35
L 46.1 21.8 52.2 25.3 52.2 -21.85 59.85 -21.85 56.85 -27.5 50.1 -27.5
Q 48.9634765625 -30.1478515625 48.35 -31.75 46.6 -36.45 46.6 -39.2 46.6 -41.85 48.05 -43.85 49.5 -45.8 51.65 -45.8 53.3 -45.8 54.55 -44.6 55.8 -43.45 57.15 -40.75
L 59.15 -41.3
Q 57.7 -46.65 55.1 -49.05 53.1 -50.85 50.4 -50.85 47.2 -50.85 44.65 -48.25 42.15 -45.65 42.15 -42.2 42.15 -38.5 44.9 -32.5 46.0607421875 -30 47.45 -27.5
L -44.1 -27.5 -44.1 -27.55 -52.8 -27.55
Q -53.85 -29.15 -53.85 -32.45 -53.85 -35.95 -50.65 -38.95 -47.55 -41.9 -42.75 -41.9 -38.95 -41.9 -30.05 -37.5 -21.6 -33.4 -16.3 -29.2
L -16.3 -32.8
Q -21.45 -37.15 -31.15 -41.9 -41.4 -46.95 -46 -46.95 -52.55 -46.95 -56.35 -42.75 -59.25 -39.5 -59.25 -35.7 -59.25 -33.4 -58.4 -31.55 -57.6 -29.7 -56.05 -27.55
L -69.05 -27.55 -65.9 -21.85 -56.25 -21.85 -56.25 21.45 -50.5 25.95 -50.5 -21.85 -33.1 -21.85 -33.1 -1.85 -37.5 -1.85
Q -38.35 -1.85 -38.9 -1.1 -39.5 -0.3 -39.5 0.4 -39.5 1.55 -35 6.3 -30.5 11.05 -29.05 11.05 -27 11.05 -27 8.45
L -27 3.9 -8.5 3.9 -8.75 21.8 -2.5 25.3 -2.5 -21.85 46.1 -21.85 46.1 -0.35
Q 40.6 4.45 36.4 6.85 32.7 8.9 30.6 8.9 27.85 8.9 26.05 7.15 24.3 5.4 24.3 2.45 24.3 0 25.6 -2.2
M -27 -1.85
L -27 -21.85 -8.5 -21.85 -8.5 -1.85 -27 -1.85 Z"/>
</g>
</defs>

<g transform="matrix( 2.303741455078125, 0, 0, 2.303741455078125, 563.45,127.3) ">
<g transform="matrix( 1, 0, 0, 1, 0,0) ">
<use xlink:href="#Symbol_69_0_Layer1_0_FILL"/>
</g>
</g>
</svg>
