
<svg xmlns="http://www.w3.org/2000/svg" version="1.1" xmlns:xlink="http://www.w3.org/1999/xlink" preserveAspectRatio="none" x="0px" y="0px" width="690px" height="549px" viewBox="0 0 690 549">
<defs>
<g id="Symbol_1_16_Layer2_0_FILL">
<path fill="#999999" stroke="none" d="
M 36 -16.45
L 36 -12.05 54.3 -12.05
Q 50.8 -8.05 47.75 -2.25 44.6 3.5 42.95 9.75 41.3 16 41.25 20.4
L 45.95 20.4
Q 46.35 14.85 47.7 10.15 49.6 3.5 53.15 -2.8 56.6 -9.1 60.2 -12.85
L 60.2 -16.45 36 -16.45
M 30.65 -0.15
L 20.5 -0.15 20.5 -10.3 16.15 -10.3 16.15 -0.15 6 -0.15 6 4.15 16.15 4.15 16.15 14.35 20.5 14.35 20.5 4.15 30.65 4.15 30.65 -0.15
M -0.2 -6.8
Q -1.05 -10.1 -2.5 -12.35 -4 -14.65 -6.25 -15.85 -8.5 -17.05 -11.5 -17.05 -15.6 -17.05 -18.25 -14.9 -20.95 -12.7 -22.3 -8.65 -23.7 -4.6 -23.7 2 -23.7 12.5 -20 17.15 -16.9 21.05 -11.5 21.05 -7.4 21.05 -4.7 18.85 -2.05 16.65 -0.7 12.6 0.65 8.55 0.65 2 0.65 -3.55 -0.2 -6.8
M -16.6 -10.6
Q -14.75 -13.3 -11.55 -13.3 -8.35 -13.3 -6.2 -10.25 -4.05 -7.2 -4.05 2 -4.05 11.15 -6.2 14.2 -8.35 17.25 -11.5 17.25 -14.65 17.25 -16.8 14.25 -19 11.2 -19 2 -19 -7.2 -16.6 -10.6
M -47.05 -7.45
Q -45.8 -10.5 -43.6 -12.1 -41.95 -13.3 -39.8 -13.3 -37.05 -13.3 -35.2 -11.35 -34.1 -10.1 -33.45 -7.4
L -28.9 -7.8
Q -29.45 -12.15 -32.25 -14.6 -35.1 -17.05 -39.5 -17.05 -45.4 -17.05 -48.9 -12.8 -52.9 -7.9 -52.9 2.95 -52.9 12.6 -49.3 16.85 -45.65 21.05 -39.95 21.05 -36.55 21.05 -33.9 19.45 -31.3 17.85 -29.75 14.85 -28.25 11.8 -28.25 8.3 -28.25 2.95 -31.45 -0.4 -34.7 -3.8 -39.25 -3.8 -41.9 -3.8 -44.3 -2.6 -46.7 -1.35 -48.35 1.15 -48.3 -4.45 -47.05 -7.45
M -40.2 0.25
Q -37.05 0.25 -35 2.5 -32.95 4.7 -32.95 8.55 -32.95 12.6 -35 14.95 -37.1 17.25 -40 17.25 -42 17.25 -43.8 16.15 -45.6 15 -46.6 12.85 -47.6 10.7 -47.6 8.3 -47.6 4.7 -45.45 2.5 -43.3 0.25 -40.2 0.25 Z"/>
</g>

<g id="Symbol_1_16_Layer1_0_FILL">
<path fill="#000000" stroke="none" d="
M 35 -17.45
L 35 -13.05 53.3 -13.05
Q 49.8 -9.05 46.75 -3.25 43.6 2.5 41.95 8.75 40.3 15 40.25 19.4
L 44.95 19.4
Q 45.35 13.85 46.7 9.15 48.6 2.5 52.15 -3.8 55.6 -10.1 59.2 -13.85
L 59.2 -17.45 35 -17.45
M 29.65 -1.15
L 19.5 -1.15 19.5 -11.3 15.15 -11.3 15.15 -1.15 5 -1.15 5 3.15 15.15 3.15 15.15 13.35 19.5 13.35 19.5 3.15 29.65 3.15 29.65 -1.15
M -1.2 -7.8
Q -2.05 -11.1 -3.5 -13.35 -5 -15.65 -7.25 -16.85 -9.5 -18.05 -12.5 -18.05 -16.6 -18.05 -19.25 -15.9 -21.95 -13.7 -23.3 -9.65 -24.7 -5.6 -24.7 1 -24.7 11.5 -21 16.15 -17.9 20.05 -12.5 20.05 -8.4 20.05 -5.7 17.85 -3.05 15.65 -1.7 11.6 -0.35 7.55 -0.35 1 -0.35 -4.55 -1.2 -7.8
M -17.6 -11.6
Q -15.75 -14.3 -12.55 -14.3 -9.35 -14.3 -7.2 -11.25 -5.05 -8.2 -5.05 1 -5.05 10.15 -7.2 13.2 -9.35 16.25 -12.5 16.25 -15.65 16.25 -17.8 13.25 -20 10.2 -20 1 -20 -8.2 -17.6 -11.6
M -48.05 -8.45
Q -46.8 -11.5 -44.6 -13.1 -42.95 -14.3 -40.8 -14.3 -38.05 -14.3 -36.2 -12.35 -35.1 -11.1 -34.45 -8.4
L -29.9 -8.8
Q -30.45 -13.15 -33.25 -15.6 -36.1 -18.05 -40.5 -18.05 -46.4 -18.05 -49.9 -13.8 -53.9 -8.9 -53.9 1.95 -53.9 11.6 -50.3 15.85 -46.65 20.05 -40.95 20.05 -37.55 20.05 -34.9 18.45 -32.3 16.85 -30.75 13.85 -29.25 10.8 -29.25 7.3 -29.25 1.95 -32.45 -1.4 -35.7 -4.8 -40.25 -4.8 -42.9 -4.8 -45.3 -3.6 -47.7 -2.35 -49.35 0.15 -49.3 -5.45 -48.05 -8.45
M -36 1.5
Q -33.95 3.7 -33.95 7.55 -33.95 11.6 -36 13.95 -38.1 16.25 -41 16.25 -43 16.25 -44.8 15.15 -46.6 14 -47.6 11.85 -48.6 9.7 -48.6 7.3 -48.6 3.7 -46.45 1.5 -44.3 -0.75 -41.2 -0.75 -38.05 -0.75 -36 1.5 Z"/>
</g>

<g id="Symbol_1_17_Layer2_0_FILL">
<path fill="#999999" stroke="none" d="
M 39.05 -13.6
Q 35.7 -10.15 35.7 -4.45 35.7 1.05 38.9 4.4 42.15 7.75 46.75 7.75 49.55 7.75 51.95 6.4 54.3 5 55.65 2.85 55.7 3.45 55.7 3.75 55.7 6.6 55 9.35 54.3 12.1 53.3 13.75 52.3 15.35 50.7 16.3 49.1 17.25 47 17.25 44.5 17.25 42.95 15.85 41.35 14.45 40.8 11.35
L 36.4 11.75
Q 36.95 16.15 39.75 18.6 42.5 21.05 46.9 21.05 51 21.05 54.1 18.8 57.15 16.6 58.7 12.4 60.25 8.15 60.25 1 60.25 -5.9 58.7 -9.5 57.1 -13.15 54.1 -15.1 51.1 -17.05 47.45 -17.05 42.4 -17.05 39.05 -13.6
M 42.7 -10.8
Q 44.95 -13.3 48 -13.3 50.95 -13.3 53.05 -10.95 55.15 -8.65 55.15 -4.7 55.15 -0.75 53.15 1.5 51.05 3.7 47.9 3.7 44.75 3.7 42.6 1.5 40.4 -0.75 40.4 -4.3 40.4 -8.3 42.7 -10.8
M 30.65 -0.15
L 20.5 -0.15 20.5 -10.3 16.15 -10.3 16.15 -0.15 6 -0.15 6 4.15 16.15 4.15 16.15 14.35 20.5 14.35 20.5 4.15 30.65 4.15 30.65 -0.15
M -0.2 -6.8
Q -1.05 -10.1 -2.5 -12.35 -4 -14.65 -6.25 -15.85 -8.5 -17.05 -11.5 -17.05 -15.6 -17.05 -18.25 -14.9 -20.95 -12.7 -22.3 -8.65 -23.7 -4.6 -23.7 2 -23.7 12.5 -20 17.15 -16.9 21.05 -11.5 21.05 -7.4 21.05 -4.7 18.85 -2.05 16.65 -0.7 12.6 0.65 8.55 0.65 2 0.65 -3.55 -0.2 -6.8
M -16.6 -10.6
Q -14.75 -13.3 -11.55 -13.3 -8.35 -13.3 -6.2 -10.25 -4.05 -7.2 -4.05 2 -4.05 11.15 -6.2 14.2 -8.35 17.25 -11.5 17.25 -14.65 17.25 -16.8 14.25 -19 11.2 -19 2 -19 -7.2 -16.6 -10.6
M -47.05 -7.45
Q -45.8 -10.5 -43.6 -12.1 -41.95 -13.3 -39.8 -13.3 -37.05 -13.3 -35.2 -11.35 -34.1 -10.1 -33.45 -7.4
L -28.9 -7.8
Q -29.45 -12.15 -32.25 -14.6 -35.1 -17.05 -39.5 -17.05 -45.4 -17.05 -48.9 -12.8 -52.9 -7.9 -52.9 2.95 -52.9 12.6 -49.3 16.85 -45.65 21.05 -39.95 21.05 -36.55 21.05 -33.9 19.45 -31.3 17.85 -29.75 14.85 -28.25 11.8 -28.25 8.3 -28.25 2.95 -31.45 -0.4 -34.7 -3.8 -39.25 -3.8 -41.9 -3.8 -44.3 -2.6 -46.7 -1.35 -48.35 1.15 -48.3 -4.45 -47.05 -7.45
M -40.2 0.25
Q -37.05 0.25 -35 2.5 -32.95 4.7 -32.95 8.55 -32.95 12.6 -35 14.95 -37.1 17.25 -40 17.25 -42 17.25 -43.8 16.15 -45.6 15 -46.6 12.85 -47.6 10.7 -47.6 8.3 -47.6 4.7 -45.45 2.5 -43.3 0.25 -40.2 0.25 Z"/>
</g>

<g id="Symbol_1_17_Layer1_0_FILL">
<path fill="#000000" stroke="none" d="
M 38.05 -14.6
Q 34.7 -11.15 34.7 -5.45 34.7 0.05 37.9 3.4 41.15 6.75 45.75 6.75 48.55 6.75 50.95 5.4 53.3 4 54.65 1.85 54.7 2.45 54.7 2.75 54.7 5.6 54 8.35 53.3 11.1 52.3 12.75 51.3 14.35 49.7 15.3 48.1 16.25 46 16.25 43.5 16.25 41.95 14.85 40.35 13.45 39.8 10.35
L 35.4 10.75
Q 35.95 15.15 38.75 17.6 41.5 20.05 45.9 20.05 50 20.05 53.1 17.8 56.15 15.6 57.7 11.4 59.25 7.15 59.25 0 59.25 -6.9 57.7 -10.5 56.1 -14.15 53.1 -16.1 50.1 -18.05 46.45 -18.05 41.4 -18.05 38.05 -14.6
M 41.7 -11.8
Q 43.95 -14.3 47 -14.3 49.95 -14.3 52.05 -11.95 54.15 -9.65 54.15 -5.7 54.15 -1.75 52.15 0.5 50.05 2.7 46.9 2.7 43.75 2.7 41.6 0.5 39.4 -1.75 39.4 -5.3 39.4 -9.3 41.7 -11.8
M 29.65 -1.15
L 19.5 -1.15 19.5 -11.3 15.15 -11.3 15.15 -1.15 5 -1.15 5 3.15 15.15 3.15 15.15 13.35 19.5 13.35 19.5 3.15 29.65 3.15 29.65 -1.15
M -1.2 -7.8
Q -2.05 -11.1 -3.5 -13.35 -5 -15.65 -7.25 -16.85 -9.5 -18.05 -12.5 -18.05 -16.6 -18.05 -19.25 -15.9 -21.95 -13.7 -23.3 -9.65 -24.7 -5.6 -24.7 1 -24.7 11.5 -21 16.15 -17.9 20.05 -12.5 20.05 -8.4 20.05 -5.7 17.85 -3.05 15.65 -1.7 11.6 -0.35 7.55 -0.35 1 -0.35 -4.55 -1.2 -7.8
M -17.6 -11.6
Q -15.75 -14.3 -12.55 -14.3 -9.35 -14.3 -7.2 -11.25 -5.05 -8.2 -5.05 1 -5.05 10.15 -7.2 13.2 -9.35 16.25 -12.5 16.25 -15.65 16.25 -17.8 13.25 -20 10.2 -20 1 -20 -8.2 -17.6 -11.6
M -48.05 -8.45
Q -46.8 -11.5 -44.6 -13.1 -42.95 -14.3 -40.8 -14.3 -38.05 -14.3 -36.2 -12.35 -35.1 -11.1 -34.45 -8.4
L -29.9 -8.8
Q -30.45 -13.15 -33.25 -15.6 -36.1 -18.05 -40.5 -18.05 -46.4 -18.05 -49.9 -13.8 -53.9 -8.9 -53.9 1.95 -53.9 11.6 -50.3 15.85 -46.65 20.05 -40.95 20.05 -37.55 20.05 -34.9 18.45 -32.3 16.85 -30.75 13.85 -29.25 10.8 -29.25 7.3 -29.25 1.95 -32.45 -1.4 -35.7 -4.8 -40.25 -4.8 -42.9 -4.8 -45.3 -3.6 -47.7 -2.35 -49.35 0.15 -49.3 -5.45 -48.05 -8.45
M -36 1.5
Q -33.95 3.7 -33.95 7.55 -33.95 11.6 -36 13.95 -38.1 16.25 -41 16.25 -43 16.25 -44.8 15.15 -46.6 14 -47.6 11.85 -48.6 9.7 -48.6 7.3 -48.6 3.7 -46.45 1.5 -44.3 -0.75 -41.2 -0.75 -38.05 -0.75 -36 1.5 Z"/>
</g>

<g id="Symbol_1_18_Layer2_0_FILL">
<path fill="#999999" stroke="none" d="
M 49.15 -3.8
Q 46.5 -3.8 44.1 -2.6 41.7 -1.35 40.05 1.15 40.1 -4.45 41.35 -7.45 42.6 -10.5 44.8 -12.1 46.45 -13.3 48.6 -13.3 51.35 -13.3 53.2 -11.35 54.3 -10.1 54.95 -7.4
L 59.5 -7.8
Q 58.95 -12.15 56.15 -14.6 53.3 -17.05 48.9 -17.05 43 -17.05 39.5 -12.8 35.5 -7.9 35.5 2.95 35.5 12.6 39.1 16.85 42.75 21.05 48.45 21.05 51.85 21.05 54.5 19.45 57.1 17.85 58.65 14.85 60.15 11.8 60.15 8.3 60.15 2.95 56.95 -0.4 53.7 -3.8 49.15 -3.8
M 53.4 2.5
Q 55.45 4.7 55.45 8.55 55.45 12.6 53.4 14.95 51.3 17.25 48.4 17.25 46.4 17.25 44.6 16.15 42.8 15 41.8 12.85 40.8 10.7 40.8 8.3 40.8 4.7 42.95 2.5 45.1 0.25 48.2 0.25 51.35 0.25 53.4 2.5
M 30.65 -0.15
L 20.5 -0.15 20.5 -10.3 16.15 -10.3 16.15 -0.15 6 -0.15 6 4.15 16.15 4.15 16.15 14.35 20.5 14.35 20.5 4.15 30.65 4.15 30.65 -0.15
M -11.5 -17.05
Q -15.6 -17.05 -18.25 -14.9 -20.95 -12.7 -22.3 -8.65 -23.7 -4.6 -23.7 2 -23.7 12.5 -20 17.15 -16.9 21.05 -11.5 21.05 -7.4 21.05 -4.7 18.85 -2.05 16.65 -0.7 12.6 0.65 8.55 0.65 2 0.65 -3.55 -0.2 -6.8 -1.05 -10.1 -2.5 -12.35 -4 -14.65 -6.25 -15.85 -8.5 -17.05 -11.5 -17.05
M -11.55 -13.3
Q -8.35 -13.3 -6.2 -10.25 -4.05 -7.2 -4.05 2 -4.05 11.15 -6.2 14.2 -8.35 17.25 -11.5 17.25 -14.65 17.25 -16.8 14.25 -19 11.2 -19 2 -19 -7.2 -16.6 -10.6 -14.75 -13.3 -11.55 -13.3
M -52.4 -16.45
L -52.4 -12.05 -34.1 -12.05
Q -37.6 -8.05 -40.65 -2.25 -43.8 3.5 -45.45 9.75 -47.1 16 -47.15 20.4
L -42.45 20.4
Q -42.05 14.85 -40.7 10.15 -38.8 3.5 -35.25 -2.8 -31.8 -9.1 -28.2 -12.85
L -28.2 -16.45 -52.4 -16.45 Z"/>
</g>

<g id="Symbol_1_18_Layer1_0_FILL">
<path fill="#000000" stroke="none" d="
M 58.5 -8.8
Q 57.95 -13.15 55.15 -15.6 52.3 -18.05 47.9 -18.05 42 -18.05 38.5 -13.8 34.5 -8.9 34.5 1.95 34.5 11.6 38.1 15.85 41.75 20.05 47.45 20.05 50.85 20.05 53.5 18.45 56.1 16.85 57.65 13.85 59.15 10.8 59.15 7.3 59.15 1.95 55.95 -1.4 52.7 -4.8 48.15 -4.8 45.5 -4.8 43.1 -3.6 40.7 -2.35 39.05 0.15 39.1 -5.45 40.35 -8.45 41.6 -11.5 43.8 -13.1 45.45 -14.3 47.6 -14.3 50.35 -14.3 52.2 -12.35 53.3 -11.1 53.95 -8.4
L 58.5 -8.8
M 52.4 1.5
Q 54.45 3.7 54.45 7.55 54.45 11.6 52.4 13.95 50.3 16.25 47.4 16.25 45.4 16.25 43.6 15.15 41.8 14 40.8 11.85 39.8 9.7 39.8 7.3 39.8 3.7 41.95 1.5 44.1 -0.75 47.2 -0.75 50.35 -0.75 52.4 1.5
M 29.65 -1.15
L 19.5 -1.15 19.5 -11.3 15.15 -11.3 15.15 -1.15 5 -1.15 5 3.15 15.15 3.15 15.15 13.35 19.5 13.35 19.5 3.15 29.65 3.15 29.65 -1.15
M -12.5 -18.05
Q -16.6 -18.05 -19.25 -15.9 -21.95 -13.7 -23.3 -9.65 -24.7 -5.6 -24.7 1 -24.7 11.5 -21 16.15 -17.9 20.05 -12.5 20.05 -8.4 20.05 -5.7 17.85 -3.05 15.65 -1.7 11.6 -0.35 7.55 -0.35 1 -0.35 -4.55 -1.2 -7.8 -2.05 -11.1 -3.5 -13.35 -5 -15.65 -7.25 -16.85 -9.5 -18.05 -12.5 -18.05
M -12.55 -14.3
Q -9.35 -14.3 -7.2 -11.25 -5.05 -8.2 -5.05 1 -5.05 10.15 -7.2 13.2 -9.35 16.25 -12.5 16.25 -15.65 16.25 -17.8 13.25 -20 10.2 -20 1 -20 -8.2 -17.6 -11.6 -15.75 -14.3 -12.55 -14.3
M -53.4 -17.45
L -53.4 -13.05 -35.1 -13.05
Q -38.6 -9.05 -41.65 -3.25 -44.8 2.5 -46.45 8.75 -48.1 15 -48.15 19.4
L -43.45 19.4
Q -43.05 13.85 -41.7 9.15 -39.8 2.5 -36.25 -3.8 -32.8 -10.1 -29.2 -13.85
L -29.2 -17.45 -53.4 -17.45 Z"/>
</g>

<g id="Symbol_1_19_Layer2_0_FILL">
<path fill="#999999" stroke="none" d="
M 71.45 -6.8
Q 70.6 -10.1 69.15 -12.35 67.65 -14.65 65.4 -15.85 63.15 -17.05 60.15 -17.05 56.05 -17.05 53.4 -14.9 50.7 -12.7 49.35 -8.65 47.95 -4.6 47.95 2 47.95 12.5 51.65 17.15 54.75 21.05 60.15 21.05 64.25 21.05 66.95 18.85 69.6 16.65 70.95 12.6 72.3 8.55 72.3 2 72.3 -3.55 71.45 -6.8
M 55.05 -10.6
Q 56.9 -13.3 60.1 -13.3 63.3 -13.3 65.45 -10.25 67.6 -7.2 67.6 2 67.6 11.15 65.45 14.2 63.3 17.25 60.15 17.25 57 17.25 54.85 14.25 52.65 11.2 52.65 2 52.65 -7.2 55.05 -10.6
M 36.2 -17.05
L 33.25 -17.05
Q 32.05 -14.65 29.2 -12.1 26.3 -9.5 22.5 -7.7
L 22.5 -3.25
Q 24.6 -4.05 27.3 -5.65 30 -7.2 31.65 -8.8
L 31.65 20.4 36.2 20.4 36.2 -17.05
M 13.9 -0.15
L 3.75 -0.15 3.75 -10.3 -0.6 -10.3 -0.6 -0.15 -10.75 -0.15 -10.75 4.15 -0.6 4.15 -0.6 14.35 3.75 14.35 3.75 4.15 13.9 4.15 13.9 -0.15
M -16.95 -6.8
Q -17.8 -10.1 -19.25 -12.35 -20.75 -14.65 -23 -15.85 -25.25 -17.05 -28.25 -17.05 -32.35 -17.05 -35 -14.9 -37.7 -12.7 -39.05 -8.65 -40.45 -4.6 -40.45 2 -40.45 12.5 -36.75 17.15 -33.65 21.05 -28.25 21.05 -24.15 21.05 -21.45 18.85 -18.8 16.65 -17.45 12.6 -16.1 8.55 -16.1 2 -16.1 -3.55 -16.95 -6.8
M -33.35 -10.6
Q -31.5 -13.3 -28.3 -13.3 -25.1 -13.3 -22.95 -10.25 -20.8 -7.2 -20.8 2 -20.8 11.15 -22.95 14.2 -25.1 17.25 -28.25 17.25 -31.4 17.25 -33.55 14.25 -35.75 11.2 -35.75 2 -35.75 -7.2 -33.35 -10.6
M -69.15 -12.05
L -50.85 -12.05
Q -54.35 -8.05 -57.4 -2.25 -60.55 3.5 -62.2 9.75 -63.85 16 -63.9 20.4
L -59.2 20.4
Q -58.8 14.85 -57.45 10.15 -55.55 3.5 -52 -2.8 -48.55 -9.1 -44.95 -12.85
L -44.95 -16.45 -69.15 -16.45 -69.15 -12.05 Z"/>
</g>

<g id="Symbol_1_19_Layer1_0_FILL">
<path fill="#000000" stroke="none" d="
M 70.45 -7.8
Q 69.6 -11.1 68.15 -13.35 66.65 -15.65 64.4 -16.85 62.15 -18.05 59.15 -18.05 55.05 -18.05 52.4 -15.9 49.7 -13.7 48.35 -9.65 46.95 -5.6 46.95 1 46.95 11.5 50.65 16.15 53.75 20.05 59.15 20.05 63.25 20.05 65.95 17.85 68.6 15.65 69.95 11.6 71.3 7.55 71.3 1 71.3 -4.55 70.45 -7.8
M 54.05 -11.6
Q 55.9 -14.3 59.1 -14.3 62.3 -14.3 64.45 -11.25 66.6 -8.2 66.6 1 66.6 10.15 64.45 13.2 62.3 16.25 59.15 16.25 56 16.25 53.85 13.25 51.65 10.2 51.65 1 51.65 -8.2 54.05 -11.6
M 35.2 -18.05
L 32.25 -18.05
Q 31.05 -15.65 28.2 -13.1 25.3 -10.5 21.5 -8.7
L 21.5 -4.25
Q 23.6 -5.05 26.3 -6.65 29 -8.2 30.65 -9.8
L 30.65 19.4 35.2 19.4 35.2 -18.05
M 12.9 -1.15
L 2.75 -1.15 2.75 -11.3 -1.6 -11.3 -1.6 -1.15 -11.75 -1.15 -11.75 3.15 -1.6 3.15 -1.6 13.35 2.75 13.35 2.75 3.15 12.9 3.15 12.9 -1.15
M -17.95 -7.8
Q -18.8 -11.1 -20.25 -13.35 -21.75 -15.65 -24 -16.85 -26.25 -18.05 -29.25 -18.05 -33.35 -18.05 -36 -15.9 -38.7 -13.7 -40.05 -9.65 -41.45 -5.6 -41.45 1 -41.45 11.5 -37.75 16.15 -34.65 20.05 -29.25 20.05 -25.15 20.05 -22.45 17.85 -19.8 15.65 -18.45 11.6 -17.1 7.55 -17.1 1 -17.1 -4.55 -17.95 -7.8
M -34.35 -11.6
Q -32.5 -14.3 -29.3 -14.3 -26.1 -14.3 -23.95 -11.25 -21.8 -8.2 -21.8 1 -21.8 10.15 -23.95 13.2 -26.1 16.25 -29.25 16.25 -32.4 16.25 -34.55 13.25 -36.75 10.2 -36.75 1 -36.75 -8.2 -34.35 -11.6
M -70.15 -13.05
L -51.85 -13.05
Q -55.35 -9.05 -58.4 -3.25 -61.55 2.5 -63.2 8.75 -64.85 15 -64.9 19.4
L -60.2 19.4
Q -59.8 13.85 -58.45 9.15 -56.55 2.5 -53 -3.8 -49.55 -10.1 -45.95 -13.85
L -45.95 -17.45 -70.15 -17.45 -70.15 -13.05 Z"/>
</g>

<g id="Layer0_4_FILL">
<path fill="#000000" stroke="none" d="
M 343.4 266.65
Q 342.3 266.65 341.25 266.6 340.15 274.5 339.5 282.2 339 288.15 338.8 293.9 338.5 299.65 338.55 305.3 338.55 317.7 339.9 329.4 340.55 335.25 341.5 340.95
L 344.85 382.45 348.4 340.95
Q 349.55 334.9 350.25 328.65 351.55 317.3 351.6 305.3 351.6 299.85 351.35 294.2 351.1 288.5 350.6 282.6 349.85 274.5 348.6 266.15 346.2 266.65 343.4 266.65
M 341 241.75
Q 335.35 242.25 331.2 245.25 326.15 249 326.15 254.15 326.15 259.3 331.2 262.95 335.5 266.1 341.25 266.6 342.3 266.65 343.4 266.65 346.2 266.65 348.6 266.15 352.55 265.25 355.65 262.95 360.7 259.3 360.7 254.15 360.7 249 355.65 245.25 352.9 243.25 349.5 242.4 346.65 241.65 343.4 241.65 342.2 241.65 341 241.75 Z"/>

<path fill="#1B1B1B" stroke="none" d="
M 324.65 213.35
Q 325.1 213.15 325.45 212.8 326.1 212.15 326.1 211.15 326.1 210.15 325.45 209.45 324.7 208.8 323.7 208.8 322.7 208.8 322.1 209.45 321.35 210.15 321.35 211.15 321.35 212.15 322.1 212.8 322.7 213.5 323.7 213.5 324.2 213.5 324.65 213.35
M 378.3 209.45
Q 377.65 208.8 376.65 208.8 375.65 208.8 374.95 209.45 374.3 210.15 374.3 211.15 374.3 212.15 374.95 212.8 375.3 213.15 375.75 213.35 376.15 213.5 376.65 213.5 377.65 213.5 378.3 212.8 379 212.15 379 211.15 379 210.15 378.3 209.45 Z"/>
</g>

<path id="Q2_Blank_P1_0_Layer0_0_1_STROKES" stroke="#000000" stroke-width="2" stroke-linejoin="round" stroke-linecap="round" fill="none" d="
M 203.35 313.85
Q 150.95 308.9 131.7 283.25 107.7 251.15 115.8 198.8 117.8 182.3 109.45 171.85 103.45 164.3 79.45 147.5 38.15 117.4 16.95 97.55 54.3 92.4 109.35 97.55 204.05 107.7 339.5 282.2 339.5 282.4 339.5 282.6 339 288.5 338.75 294.2 338.55 299.15 338.5 304 271.45 314 203.35 313.85 Z"/>

<path id="Symbol_1_16_Layer1_0_1_STROKES" stroke="#FFFFFF" stroke-width="0.5" stroke-linejoin="round" stroke-linecap="round" fill="none" d="
M 35 -13.05
L 35 -17.45 59.2 -17.45 59.2 -13.85
Q 55.6 -10.1 52.15 -3.8 48.6 2.5 46.7 9.15 45.35 13.85 44.95 19.4
L 40.25 19.4
Q 40.3 15 41.95 8.75 43.6 2.5 46.75 -3.25 49.8 -9.05 53.3 -13.05
L 35 -13.05 Z
M 15.15 13.35
L 15.15 3.15 5 3.15 5 -1.15 15.15 -1.15 15.15 -11.3 19.5 -11.3 19.5 -1.15 29.65 -1.15 29.65 3.15 19.5 3.15 19.5 13.35 15.15 13.35 Z
M -29.9 -8.8
L -34.45 -8.4
Q -35.1 -11.1 -36.2 -12.35 -38.05 -14.3 -40.8 -14.3 -42.95 -14.3 -44.6 -13.1 -46.8 -11.5 -48.05 -8.45 -49.3 -5.45 -49.35 0.15 -47.7 -2.35 -45.3 -3.6 -42.9 -4.8 -40.25 -4.8 -35.7 -4.8 -32.45 -1.4 -29.25 1.95 -29.25 7.3 -29.25 10.8 -30.75 13.85 -32.3 16.85 -34.9 18.45 -37.55 20.05 -40.95 20.05 -46.65 20.05 -50.3 15.85 -53.9 11.6 -53.9 1.95 -53.9 -8.9 -49.9 -13.8 -46.4 -18.05 -40.5 -18.05 -36.1 -18.05 -33.25 -15.6 -30.45 -13.15 -29.9 -8.8 Z
M -20 1
Q -20 10.2 -17.8 13.25 -15.65 16.25 -12.5 16.25 -9.35 16.25 -7.2 13.2 -5.05 10.15 -5.05 1 -5.05 -8.2 -7.2 -11.25 -9.35 -14.3 -12.55 -14.3 -15.75 -14.3 -17.6 -11.6 -20 -8.2 -20 1 Z
M -24.7 1
Q -24.7 -5.6 -23.3 -9.65 -21.95 -13.7 -19.25 -15.9 -16.6 -18.05 -12.5 -18.05 -9.5 -18.05 -7.25 -16.85 -5 -15.65 -3.5 -13.35 -2.05 -11.1 -1.2 -7.8 -0.35 -4.55 -0.35 1 -0.35 7.55 -1.7 11.6 -3.05 15.65 -5.7 17.85 -8.4 20.05 -12.5 20.05 -17.9 20.05 -21 16.15 -24.7 11.5 -24.7 1 Z
M -48.6 7.3
Q -48.6 9.7 -47.6 11.85 -46.6 14 -44.8 15.15 -43 16.25 -41 16.25 -38.1 16.25 -36 13.95 -33.95 11.6 -33.95 7.55 -33.95 3.7 -36 1.5 -38.05 -0.75 -41.2 -0.75 -44.3 -0.75 -46.45 1.5 -48.6 3.7 -48.6 7.3 Z"/>

<path id="Q2_Blank_P2_0_Layer0_0_1_STROKES" stroke="#000000" stroke-width="2" stroke-linejoin="round" stroke-linecap="round" fill="none" d="
M -25.1 109.45
Q 27.3 104.5 46.55 78.85 70.55 46.75 62.45 -5.6 60.45 -22.1 68.8 -32.55 74.8 -40.1 98.8 -56.9 140.1 -87 161.3 -106.85 123.95 -112 68.9 -106.85 -25.8 -96.7 -161.25 77.8 -161.25 78 -161.25 78.2 -160.75 84.1 -160.5 89.8 -160.3 94.75 -160.25 99.6 -93.2 109.6 -25.1 109.45 Z"/>

<path id="Symbol_1_17_Layer1_0_1_STROKES" stroke="#FFFFFF" stroke-width="0.5" stroke-linejoin="round" stroke-linecap="round" fill="none" d="
M 35.4 10.75
L 39.8 10.35
Q 40.35 13.45 41.95 14.85 43.5 16.25 46 16.25 48.1 16.25 49.7 15.3 51.3 14.35 52.3 12.75 53.3 11.1 54 8.35 54.7 5.6 54.7 2.75 54.7 2.45 54.65 1.85 53.3 4 50.95 5.4 48.55 6.75 45.75 6.75 41.15 6.75 37.9 3.4 34.7 0.05 34.7 -5.45 34.7 -11.15 38.05 -14.6 41.4 -18.05 46.45 -18.05 50.1 -18.05 53.1 -16.1 56.1 -14.15 57.7 -10.5 59.25 -6.9 59.25 0 59.25 7.15 57.7 11.4 56.15 15.6 53.1 17.8 50 20.05 45.9 20.05 41.5 20.05 38.75 17.6 35.95 15.15 35.4 10.75 Z
M 15.15 13.35
L 15.15 3.15 5 3.15 5 -1.15 15.15 -1.15 15.15 -11.3 19.5 -11.3 19.5 -1.15 29.65 -1.15 29.65 3.15 19.5 3.15 19.5 13.35 15.15 13.35 Z
M 54.15 -5.7
Q 54.15 -9.65 52.05 -11.95 49.95 -14.3 47 -14.3 43.95 -14.3 41.7 -11.8 39.4 -9.3 39.4 -5.3 39.4 -1.75 41.6 0.5 43.75 2.7 46.9 2.7 50.05 2.7 52.15 0.5 54.15 -1.75 54.15 -5.7 Z
M -29.9 -8.8
L -34.45 -8.4
Q -35.1 -11.1 -36.2 -12.35 -38.05 -14.3 -40.8 -14.3 -42.95 -14.3 -44.6 -13.1 -46.8 -11.5 -48.05 -8.45 -49.3 -5.45 -49.35 0.15 -47.7 -2.35 -45.3 -3.6 -42.9 -4.8 -40.25 -4.8 -35.7 -4.8 -32.45 -1.4 -29.25 1.95 -29.25 7.3 -29.25 10.8 -30.75 13.85 -32.3 16.85 -34.9 18.45 -37.55 20.05 -40.95 20.05 -46.65 20.05 -50.3 15.85 -53.9 11.6 -53.9 1.95 -53.9 -8.9 -49.9 -13.8 -46.4 -18.05 -40.5 -18.05 -36.1 -18.05 -33.25 -15.6 -30.45 -13.15 -29.9 -8.8 Z
M -20 1
Q -20 10.2 -17.8 13.25 -15.65 16.25 -12.5 16.25 -9.35 16.25 -7.2 13.2 -5.05 10.15 -5.05 1 -5.05 -8.2 -7.2 -11.25 -9.35 -14.3 -12.55 -14.3 -15.75 -14.3 -17.6 -11.6 -20 -8.2 -20 1 Z
M -24.7 1
Q -24.7 -5.6 -23.3 -9.65 -21.95 -13.7 -19.25 -15.9 -16.6 -18.05 -12.5 -18.05 -9.5 -18.05 -7.25 -16.85 -5 -15.65 -3.5 -13.35 -2.05 -11.1 -1.2 -7.8 -0.35 -4.55 -0.35 1 -0.35 7.55 -1.7 11.6 -3.05 15.65 -5.7 17.85 -8.4 20.05 -12.5 20.05 -17.9 20.05 -21 16.15 -24.7 11.5 -24.7 1 Z
M -48.6 7.3
Q -48.6 9.7 -47.6 11.85 -46.6 14 -44.8 15.15 -43 16.25 -41 16.25 -38.1 16.25 -36 13.95 -33.95 11.6 -33.95 7.55 -33.95 3.7 -36 1.5 -38.05 -0.75 -41.2 -0.75 -44.3 -0.75 -46.45 1.5 -48.6 3.7 -48.6 7.3 Z"/>

<path id="Q2_Blank_P9_0_Layer0_0_1_STROKES" stroke="#000000" stroke-width="2" stroke-linejoin="round" stroke-linecap="round" fill="none" d="
M 87.65 -11.7
Q 78.2 10.6 67 26.8 55.4 47.3 36.35 60.3 16.1 74.05 -6.6 75.05 -75.3 74.9 -95.85 25.45 -118.55 -30.2 -55.4 -58.65 -52.85 -59.8 -34.75 -65.15 33.35 -65 100.4 -75 100.4 -74.35 100.4 -73.7 100.45 -61.7 101.75 -50.35 101.8 -49.95 101.85 -49.55 93.95 -26.4 87.65 -11.7 Z"/>

<path id="Symbol_1_18_Layer1_0_1_STROKES" stroke="#FFFFFF" stroke-width="0.5" stroke-linejoin="round" stroke-linecap="round" fill="none" d="
M 15.15 13.35
L 15.15 3.15 5 3.15 5 -1.15 15.15 -1.15 15.15 -11.3 19.5 -11.3 19.5 -1.15 29.65 -1.15 29.65 3.15 19.5 3.15 19.5 13.35 15.15 13.35 Z
M 58.5 -8.8
L 53.95 -8.4
Q 53.3 -11.1 52.2 -12.35 50.35 -14.3 47.6 -14.3 45.45 -14.3 43.8 -13.1 41.6 -11.5 40.35 -8.45 39.1 -5.45 39.05 0.15 40.7 -2.35 43.1 -3.6 45.5 -4.8 48.15 -4.8 52.7 -4.8 55.95 -1.4 59.15 1.95 59.15 7.3 59.15 10.8 57.65 13.85 56.1 16.85 53.5 18.45 50.85 20.05 47.45 20.05 41.75 20.05 38.1 15.85 34.5 11.6 34.5 1.95 34.5 -8.9 38.5 -13.8 42 -18.05 47.9 -18.05 52.3 -18.05 55.15 -15.6 57.95 -13.15 58.5 -8.8 Z
M -53.4 -13.05
L -53.4 -17.45 -29.2 -17.45 -29.2 -13.85
Q -32.8 -10.1 -36.25 -3.8 -39.8 2.5 -41.7 9.15 -43.05 13.85 -43.45 19.4
L -48.15 19.4
Q -48.1 15 -46.45 8.75 -44.8 2.5 -41.65 -3.25 -38.6 -9.05 -35.1 -13.05
L -53.4 -13.05 Z
M -24.7 1
Q -24.7 -5.6 -23.3 -9.65 -21.95 -13.7 -19.25 -15.9 -16.6 -18.05 -12.5 -18.05 -9.5 -18.05 -7.25 -16.85 -5 -15.65 -3.5 -13.35 -2.05 -11.1 -1.2 -7.8 -0.35 -4.55 -0.35 1 -0.35 7.55 -1.7 11.6 -3.05 15.65 -5.7 17.85 -8.4 20.05 -12.5 20.05 -17.9 20.05 -21 16.15 -24.7 11.5 -24.7 1 Z
M -20 1
Q -20 10.2 -17.8 13.25 -15.65 16.25 -12.5 16.25 -9.35 16.25 -7.2 13.2 -5.05 10.15 -5.05 1 -5.05 -8.2 -7.2 -11.25 -9.35 -14.3 -12.55 -14.3 -15.75 -14.3 -17.6 -11.6 -20 -8.2 -20 1 Z
M 39.8 7.3
Q 39.8 9.7 40.8 11.85 41.8 14 43.6 15.15 45.4 16.25 47.4 16.25 50.3 16.25 52.4 13.95 54.45 11.6 54.45 7.55 54.45 3.7 52.4 1.5 50.35 -0.75 47.2 -0.75 44.1 -0.75 41.95 1.5 39.8 3.7 39.8 7.3 Z"/>

<path id="Q2_Blank_P4_0_Layer0_0_1_STROKES" stroke="#000000" stroke-width="2" stroke-linejoin="round" stroke-linecap="round" fill="none" d="
M -87.65 -11.7
Q -78.2 10.6 -67 26.8 -55.4 47.3 -36.35 60.3 -16.1 74.05 6.6 75.05 75.3 74.9 95.85 25.45 118.55 -30.2 55.4 -58.65 52.85 -59.8 34.75 -65.15 -33.35 -65 -100.4 -75 -100.4 -74.35 -100.4 -73.7 -100.45 -61.7 -101.75 -50.35 -101.8 -49.95 -101.85 -49.55 -93.95 -26.4 -87.65 -11.7 Z"/>

<path id="Symbol_1_19_Layer1_0_1_STROKES" stroke="#FFFFFF" stroke-width="0.5" stroke-linejoin="round" stroke-linecap="round" fill="none" d="
M 35.2 19.4
L 30.65 19.4 30.65 -9.8
Q 29 -8.2 26.3 -6.65 23.6 -5.05 21.5 -4.25
L 21.5 -8.7
Q 25.3 -10.5 28.2 -13.1 31.05 -15.65 32.25 -18.05
L 35.2 -18.05 35.2 19.4 Z
M -1.6 13.35
L -1.6 3.15 -11.75 3.15 -11.75 -1.15 -1.6 -1.15 -1.6 -11.3 2.75 -11.3 2.75 -1.15 12.9 -1.15 12.9 3.15 2.75 3.15 2.75 13.35 -1.6 13.35 Z
M 51.65 1
Q 51.65 10.2 53.85 13.25 56 16.25 59.15 16.25 62.3 16.25 64.45 13.2 66.6 10.15 66.6 1 66.6 -8.2 64.45 -11.25 62.3 -14.3 59.1 -14.3 55.9 -14.3 54.05 -11.6 51.65 -8.2 51.65 1 Z
M 46.95 1
Q 46.95 -5.6 48.35 -9.65 49.7 -13.7 52.4 -15.9 55.05 -18.05 59.15 -18.05 62.15 -18.05 64.4 -16.85 66.65 -15.65 68.15 -13.35 69.6 -11.1 70.45 -7.8 71.3 -4.55 71.3 1 71.3 7.55 69.95 11.6 68.6 15.65 65.95 17.85 63.25 20.05 59.15 20.05 53.75 20.05 50.65 16.15 46.95 11.5 46.95 1 Z
M -70.15 -13.05
L -70.15 -17.45 -45.95 -17.45 -45.95 -13.85
Q -49.55 -10.1 -53 -3.8 -56.55 2.5 -58.45 9.15 -59.8 13.85 -60.2 19.4
L -64.9 19.4
Q -64.85 15 -63.2 8.75 -61.55 2.5 -58.4 -3.25 -55.35 -9.05 -51.85 -13.05
L -70.15 -13.05 Z
M -41.45 1
Q -41.45 -5.6 -40.05 -9.65 -38.7 -13.7 -36 -15.9 -33.35 -18.05 -29.25 -18.05 -26.25 -18.05 -24 -16.85 -21.75 -15.65 -20.25 -13.35 -18.8 -11.1 -17.95 -7.8 -17.1 -4.55 -17.1 1 -17.1 7.55 -18.45 11.6 -19.8 15.65 -22.45 17.85 -25.15 20.05 -29.25 20.05 -34.65 20.05 -37.75 16.15 -41.45 11.5 -41.45 1 Z
M -36.75 1
Q -36.75 10.2 -34.55 13.25 -32.4 16.25 -29.25 16.25 -26.1 16.25 -23.95 13.2 -21.8 10.15 -21.8 1 -21.8 -8.2 -23.95 -11.25 -26.1 -14.3 -29.3 -14.3 -32.5 -14.3 -34.35 -11.6 -36.75 -8.2 -36.75 1 Z"/>

<path id="Layer0_4_1_STROKES" stroke="#000000" stroke-width="2" stroke-linejoin="round" stroke-linecap="round" fill="none" d="
M 349.5 242.4
Q 353.75 224.05 359.85 216.45 367.4 206.9 374.45 204.65 381.6 202.45 387.05 205.45 391.25 209.35 390.65 213.45 390.15 217.3 386.25 219.05 380 221.8 376.9 216.6 375.9 214.95 375.75 213.35 375.3 213.15 374.95 212.8 374.3 212.15 374.3 211.15 374.3 210.15 374.95 209.45 375.65 208.8 376.65 208.8 377.65 208.8 378.3 209.45 379 210.15 379 211.15 379 212.15 378.3 212.8 377.65 213.5 376.65 213.5 376.15 213.5 375.75 213.35
M 324.65 213.35
Q 325.1 213.15 325.45 212.8 326.1 212.15 326.1 211.15 326.1 210.15 325.45 209.45 324.7 208.8 323.7 208.8 322.7 208.8 322.1 209.45 321.35 210.15 321.35 211.15 321.35 212.15 322.1 212.8 322.7 213.5 323.7 213.5 324.2 213.5 324.65 213.35 324.5 214.95 323.5 216.6 320.35 221.8 314.15 219.05 310.2 217.3 309.75 213.45 309.15 209.35 313.3 205.45 325.3 198.9 333.7 210.3 340.55 219.6 341 241.75 342.2 241.65 343.4 241.65 346.65 241.65 349.5 242.4 352.9 243.25 355.65 245.25 360.7 249 360.7 254.15 360.7 259.3 355.65 262.95 352.55 265.25 348.6 266.15 349.85 274.5 350.6 282.6 351.1 288.5 351.35 294.2 351.6 299.85 351.6 305.3 351.55 317.3 350.25 328.65 349.55 334.9 348.4 340.95
L 344.85 382.45 341.5 340.95
Q 340.55 335.25 339.9 329.4 338.55 317.7 338.55 305.3 338.5 299.65 338.8 293.9 339 288.15 339.5 282.2 340.15 274.5 341.25 266.6 335.5 266.1 331.2 262.95 326.15 259.3 326.15 254.15 326.15 249 331.2 245.25 335.35 242.25 341 241.75
M 348.6 266.15
Q 346.2 266.65 343.4 266.65 342.3 266.65 341.25 266.6"/>
</defs>

<g transform="matrix( 1, 0, 0, 1, 178.15,204.4) ">
<g transform="matrix( 1, 0, 0, 1, -178.2,-204.4) ">
<use xlink:href="#Q2_Blank_P1_0_Layer0_0_1_STROKES"/>
</g>

<g transform="matrix( 1, 0, 0, 1, 23.4,33.8) ">
<g transform="matrix( 1, 0, 0, 1, 0,0) ">
<use xlink:href="#Symbol_1_16_Layer2_0_FILL"/>
</g>

<g transform="matrix( 1, 0, 0, 1, 0,0) ">
<use xlink:href="#Symbol_1_16_Layer1_0_FILL"/>

<use xlink:href="#Symbol_1_16_Layer1_0_1_STROKES"/>
</g>
</g>
</g>

<g transform="matrix( 1, 0, 0, 1, 511.8,204.4) ">
<g transform="matrix( 1, 0, 0, 1, 0,0) ">
<use xlink:href="#Q2_Blank_P2_0_Layer0_0_1_STROKES"/>
</g>

<g transform="matrix( 1, 0, 0, 1, -30.25,33.8) ">
<g transform="matrix( 1, 0, 0, 1, 0,0) ">
<use xlink:href="#Symbol_1_17_Layer2_0_FILL"/>
</g>

<g transform="matrix( 1, 0, 0, 1, 0,0) ">
<use xlink:href="#Symbol_1_17_Layer1_0_FILL"/>

<use xlink:href="#Symbol_1_17_Layer1_0_1_STROKES"/>
</g>
</g>
</g>

<g transform="matrix( 1, 0, 0, 1, 238.05,379) ">
<g transform="matrix( 1, 0, 0, 1, 0,0) ">
<use xlink:href="#Q2_Blank_P9_0_Layer0_0_1_STROKES"/>
</g>

<g transform="matrix( 1, 0, 0, 1, -3.25,-3.2) ">
<g transform="matrix( 1, 0, 0, 1, 0,0) ">
<use xlink:href="#Symbol_1_18_Layer2_0_FILL"/>
</g>

<g transform="matrix( 1, 0, 0, 1, 0,0) ">
<use xlink:href="#Symbol_1_18_Layer1_0_FILL"/>

<use xlink:href="#Symbol_1_18_Layer1_0_1_STROKES"/>
</g>
</g>
</g>

<g transform="matrix( 1, 0, 0, 1, 451.95,379) ">
<g transform="matrix( 1, 0, 0, 1, 0,0) ">
<use xlink:href="#Q2_Blank_P4_0_Layer0_0_1_STROKES"/>
</g>

<g transform="matrix( 1, 0, 0, 1, 11.45,-3.2) ">
<g transform="matrix( 1, 0, 0, 1, 0,0) ">
<use xlink:href="#Symbol_1_19_Layer2_0_FILL"/>
</g>

<g transform="matrix( 1, 0, 0, 1, 0,0) ">
<use xlink:href="#Symbol_1_19_Layer1_0_FILL"/>

<use xlink:href="#Symbol_1_19_Layer1_0_1_STROKES"/>
</g>
</g>
</g>

<g transform="matrix( 1, 0, 0, 1, -0.05,0) ">
<use xlink:href="#Layer0_4_FILL"/>

<use xlink:href="#Layer0_4_1_STROKES"/>
</g>
</svg>
