
<svg xmlns="http://www.w3.org/2000/svg" version="1.1" xmlns:xlink="http://www.w3.org/1999/xlink" preserveAspectRatio="none" x="0px" y="0px" width="686px" height="560px" viewBox="0 0 686 560">
<defs>
<g id="Duplicate_Items_Folder_Symbol_4_copy_2_13_Layer0_0_FILL">
<path fill="#0A0A0A" stroke="none" d="
M 64.3 -73.4
L 42.75 -91.45
Q 33.55 -98.9 21.8 -106.1 -6.6 -123.5 -29.3 -123.5 -39 -123.5 -48.2 -120.15 -61.1 -114.7 -69.15 -103.6 -73.4 -97.9 -74.7 -92.45 -76.05 -87.05 -76.05 -78.85
L -76.05 -74.15 -71.35 -55.7 -98.6 -55.7 -98.6 -43.7 -72.25 -43.7 -72.25 98.85 -56.25 98.85 -56.25 -43.7 -10.35 -43.7 -10.35 11.85
Q -10.35 19 -7.45 28.1 5.15 53.6 31.25 53.6 43.55 53.6 54.1 46.4
L 63.3 39.1 63.3 98.85 79.3 98.85 79.3 -43.7 103.9 -43.7 103.9 -56 81.7 -56 64.3 -73.4
M 47.15 -69.75
L 61.95 -56 -33.8 -56 -33.8 -55.7 -56.25 -55.7 -57.75 -58.05 -59.95 -63.75 -61.7 -70.65 -61.7 -76.65
Q -61.7 -83.4 -59.65 -90.85 -53.35 -104.6 -42.5 -108.3 -37.65 -110.6 -30.5 -110.6 -21.85 -110.6 -9.85 -106.5 2.2 -102.55 11.55 -96.25
L 29.55 -84.25 36.45 -79.15
Q 41.75 -75.15 47.15 -69.75
M 4.85 -43.7
L 63.3 -43.7 63.3 21.2 58.5 27.5 54.7 31.6 48.95 36.15
Q 39.6 41.85 30.65 41.85
L 21.7 40.4
Q 4.85 31.05 4.85 13.9
L 4.85 -43.7 Z"/>
</g>
</defs>

<g transform="matrix( 1.67596435546875, 0, 0, 1.67596435546875, 341.7,283.05) ">
<g transform="matrix( 1, 0, 0, 1, 0,0) ">
<use xlink:href="#Duplicate_Items_Folder_Symbol_4_copy_2_13_Layer0_0_FILL"/>
</g>
</g>
</svg>
