
<svg xmlns="http://www.w3.org/2000/svg" version="1.1" xmlns:xlink="http://www.w3.org/1999/xlink" preserveAspectRatio="none" x="0px" y="0px" width="217px" height="217px" viewBox="0 0 217 217">
<defs>
<g id="Symbol_76_1_Layer2_0_FILL">
<path fill="#FFFFFF" stroke="none" d="
M 1.4 -35.3
L 1.1 -7.4
Q -0.9 -10.25 -3 -12.9 -5.2 -15.5 -7.8 -17.65 -10.35 -19.7 -13.85 -20.5 -17.35 -21.25 -21.45 -21.25 -32.1 -21.25 -37.5 -14.2 -41.1 -9.5 -41.1 -4.45 -41.1 5.45 -33.85 12.6 -26.65 19.7 -16.95 19.7 -11.9 19.7 -7.4 17.6 -5.5 16.7 1.4 12.4
L 1.8 37.45 11.55 43.3 11.55 5.65
Q 16.7 1.35 21.8 -1.5 27 -4.4 29.85 -4.4 33.6 -4.4 35.95 -2.2 38.3 -0.05 38.3 3.9 38.3 8.65 35.5 14.95 32.75 21.25 28.35 27.25
L 36.9 35
Q 45.9 21.25 45.9 12.25 45.9 -0.35 38.9 -7.95 33.3 -14 27.3 -14 23.4 -14 19.55 -11.85 16.55 -10.25 11.55 -6.35
L 11.55 -35.3 58.35 -35.3 53.1 -44.75 -56.1 -44.75 -50.85 -35.3 1.4 -35.3
M -29.25 -8.5
Q -24.9 -11.9 -19.5 -11.9 -12.3 -11.9 -7.85 -9.3 -3.45 -6.65 1.4 0.1 -5.35 5.3 -11.6 8.3 -17.9 11.3 -22.5 11.3 -27.2 11.3 -30.35 8.6 -33.5 5.85 -33.5 1.25 -33.5 -5.05 -29.25 -8.5 Z"/>
</g>

<g id="Symbol_76_1_Layer1_0_FILL">
<path fill="#000000" stroke="none" d="
M 18.3 -1.55
Q 23.5 -4.45 26.35 -4.45 30.1 -4.45 32.45 -2.25 34.8 -0.1 34.8 3.85 34.8 8.6 32 14.9 29.25 21.2 24.85 27.2
L 33.4 34.95
Q 42.4 21.2 42.4 12.2 42.4 -0.4 35.4 -8 29.8 -14.05 23.8 -14.05 19.9 -14.05 16.05 -11.9 13.05 -10.3 8.05 -6.4
L 8.05 -35.35 54.85 -35.35 49.6 -44.8 -59.6 -44.8 -54.35 -35.35 -2.1 -35.35 -2.4 -7.45
Q -4.4 -10.3 -6.5 -12.95 -8.7 -15.55 -11.3 -17.7 -13.85 -19.75 -17.35 -20.55 -20.85 -21.3 -24.95 -21.3 -35.6 -21.3 -41 -14.25 -44.6 -9.55 -44.6 -4.5 -44.6 5.4 -37.35 12.55 -30.15 19.65 -20.45 19.65 -15.4 19.65 -10.9 17.55 -9 16.65 -2.1 12.35
L -1.7 37.4 8.05 43.25 8.05 5.6
Q 13.2 1.3 18.3 -1.55
M -32.75 -8.55
Q -28.4 -11.95 -23 -11.95 -15.8 -11.95 -11.35 -9.35 -6.95 -6.7 -2.1 0.05 -8.85 5.25 -15.1 8.25 -21.4 11.25 -26 11.25 -30.7 11.25 -33.85 8.55 -37 5.8 -37 1.2 -37 -5.1 -32.75 -8.55 Z"/>
</g>
</defs>

<g transform="matrix( 1.18182373046875, 0, 0, 1.18182373046875, 109.25,107.2) ">
<g transform="matrix( 1, 0, 0, 1, 0,0) ">
<use xlink:href="#Symbol_76_1_Layer2_0_FILL"/>
</g>

<g transform="matrix( 1, 0, 0, 1, 0,0) ">
<use xlink:href="#Symbol_76_1_Layer1_0_FILL"/>
</g>
</g>
</svg>
