
<svg xmlns="http://www.w3.org/2000/svg" version="1.1" xmlns:xlink="http://www.w3.org/1999/xlink" preserveAspectRatio="none" x="0px" y="0px" width="16px" height="23px" viewBox="0 0 16 23">
<defs/>

<g id="Layer_1">
<g transform="matrix( 1, 0, 0, 1, 8,11.5) ">
<g id="Layer_1">
<g transform="matrix( 1, 0, 0, 1, 0,0) ">
<g>
<g>
<path fill="#000000" stroke="none" d="
M 5.3 -2.9
Q 6.05 -4.05 6.05 -5.45 6.05 -6.95 5.25 -8.25 4.45 -9.6 2.95 -10.35 1.45 -11.1 -0.3 -11.1 -2.9 -11.1 -4.65 -9.65 -6.35 -8.15 -6.85 -5.5
L -4.2 -5
Q -3.9 -6.95 -2.85 -7.95 -1.8 -8.95 -0.25 -8.95 1.3 -8.95 2.3 -7.95 3.3 -7 3.3 -5.55 3.3 -3.7 1.95 -2.8 0.55 -1.9 -1.15 -1.9 -1.3 -1.9 -1.55 -1.95
L -1.85 0.4
Q -0.75 0.1 0 0.1 1.85 0.1 3.05 1.3 4.25 2.5 4.25 4.35 4.25 6.25 3 7.55 1.7 8.9 -0.2 8.9 -1.8 8.9 -2.9 7.9 -4 6.9 -4.45 4.6
L -7.15 4.95
Q -6.85 7.7 -4.95 9.4 -3.1 11.1 -0.2 11.1 2.95 11.1 5.05 9.1 7.1 7.15 7.1 4.3 7.1 2.2 6.05 0.8 4.95 -0.65 3.05 -1.05 4.55 -1.75 5.3 -2.9 Z"/>
</g>
</g>
</g>
</g>
</g>
</g>
</svg>
