
<svg xmlns="http://www.w3.org/2000/svg" version="1.1" xmlns:xlink="http://www.w3.org/1999/xlink" preserveAspectRatio="none" x="0px" y="0px" width="328px" height="183px" viewBox="0 0 328 183">
<defs>
<g id="Symbol_4_copy_3_Layer0_0_FILL">
<path fill="#000000" stroke="none" d="
M 13.5 41
L 13.5 41
Q 7.8740234375 35.451171875 -0.05 35.45 -7.9740234375 35.451171875 -13.6 41
L -13.65 41.05
Q -19.198828125 46.6759765625 -19.2 54.6 -19.2015625 62.4712890625 -13.65 68.1 -7.9888671875 73.7990234375 -0.05 73.8 7.888671875 73.7990234375 13.5 68.1
L 13.5 68.1
Q 19.1578125 62.484765625 19.15 54.6 19.155078125 46.6623046875 13.5 41
M 80.45 -11.65
Q 75.20546875 -16.05390625 67.55 -16.05
L -68.65 -16.05
Q -77.0814453125 -16.04765625 -81.9 -12 -87.3943359375 -7.75625 -87.4 0.05
L -87.4 0.1
Q -87.50234375 6.954296875 -81.6 11.75 -76.5501953125 16.10390625 -68.9 16.1
L 67.3 16.1
Q 75.7841796875 16.0974609375 80.6 12 86.0283203125 7.4892578125 86.05 0.1 86.0671875 -6.9021484375 80.45 -11.65
M 13.5 -68.25
L 13.5 -68.25
Q 7.8740234375 -73.798828125 -0.05 -73.8 -7.9740234375 -73.798828125 -13.6 -68.25
L -13.65 -68.2
Q -19.198828125 -62.5740234375 -19.2 -54.65 -19.2015625 -46.7787109375 -13.65 -41.15 -7.9888671875 -35.4509765625 -0.05 -35.45 7.888671875 -35.4509765625 13.5 -41.15
L 13.5 -41.15
Q 19.1578125 -46.765234375 19.15 -54.65 19.155078125 -62.5876953125 13.5 -68.25 Z"/>
</g>
</defs>

<g transform="matrix( 0.719970703125, 0, 0, 0.719970703125, 166.25,93.65) ">
<g transform="matrix( 0.8099822998046875, 0, 0, 0.8099822998046875, 0,0) ">
<use xlink:href="#Symbol_4_copy_3_Layer0_0_FILL"/>
</g>
</g>
</svg>
