
<svg xmlns="http://www.w3.org/2000/svg" version="1.1" xmlns:xlink="http://www.w3.org/1999/xlink" preserveAspectRatio="none" x="0px" y="0px" width="328px" height="183px" viewBox="0 0 328 183">
<defs>
<g id="Symbol_4_copy_2_Layer0_0_FILL">
<path fill="#000000" stroke="none" d="
M 54.75 -71.75
Q 48.5080078125 -71.194140625 42.4 -65.15
L 0 -22.7 -41.65 -64.35
Q -47.611328125 -70.30859375 -53.95 -70.8
L -53.85 -70.8
Q -60.730859375 -71.741796875 -66.3 -66.2
L -66.35 -66.2
Q -71.260546875 -61.3984375 -70.5 -53.8
L -70.5 -53.85
Q -70.026953125 -47.2279296875 -64.6 -41.8
L -22.75 0.05 -65.75 43
Q -70.8037109375 48.1140625 -71.55 54.9 -71.542578125 55.0109375 -71.55 55.1 -72.1470703125 62.525390625 -67.4 67.1
L -67.35 67.15
Q -61.841796875 72.626953125 -54.85 71.65
L -54.95 71.7
Q -48.7197265625 71.2150390625 -42.7 65.15
L -0.15 22.65 41.5 64.3
Q 47.50234375 70.2884765625 53.75 70.8
L 53.8 70.85
Q 60.83515625 71.467578125 66.05 66.2 70.996484375 61.3359375 70.4 54.05 69.858203125 47.1650390625 64.4 41.7
L 22.6 -0.1 65.3 -42.85 65.3 -42.85
Q 70.5724609375 -48.1580078125 71.2 -54.85 71.2439453125 -54.98046875 71.25 -55.1
L 71.25 -55
Q 71.8443359375 -62.6345703125 67 -67.3
L 67 -67.3
Q 61.7068359375 -72.56484375 55.05 -71.75 54.903515625 -71.7427734375 54.75 -71.75 Z"/>
</g>
</defs>

<g transform="matrix( 0.719970703125, 0, 0, 0.719970703125, 166.25,93.65) ">
<g transform="matrix( 0.8099822998046875, 0, 0, 0.8099822998046875, 0,0) ">
<use xlink:href="#Symbol_4_copy_2_Layer0_0_FILL"/>
</g>
</g>
</svg>
