
<svg xmlns="http://www.w3.org/2000/svg" version="1.1" xmlns:xlink="http://www.w3.org/1999/xlink" preserveAspectRatio="none" x="0px" y="0px" width="690px" height="549px" viewBox="0 0 690 549">
<defs>
<g id="Symbol_1_6_Layer2_0_FILL">
<path fill="#000000" fill-opacity="0.4" stroke="none" d="
M 20.5 -25.35
L 20.5 -10.95 -10.75 -10.95
Q -13.6 -10.95 -16.3 -9.55 -18.95 -8.1 -20.15 -6.35 -23.4 -2.1 -23.4 4.3 -23.4 9.45 -22.1 14.05 -20.7 18.7 -17.7 23.85
L -13.2 30.8 -7.35 37.35 -3.3 41.25
Q -2.6 41.95 -2.25 42.05 -1.9 42.2 -1.5 42.35
L 3.5 37.2
Q 2.15 37.2 0.8 36.35 -3.85 33.35 -9.9 23.7 -15.95 13.95 -15.95 4.3
L -15.4 0.75
Q -13.65 -3.55 -10.55 -4.15 -8.45 -4.95 -6.15 -4.95
L 20.5 -4.95 20.5 42.35 28.1 42.35 28.1 -25.35 41.15 -25.35 41.15 -31.2 -32.95 -31.2 -32.95 -25.35 20.5 -25.35 Z"/>
</g>

<g id="Symbol_1_6_Layer1_0_FILL">
<path fill="#000000" stroke="none" d="
M 37.55 -28.35
L 37.55 -34.2 -36.55 -34.2 -36.55 -28.35 16.9 -28.35 16.9 -13.95 -14.35 -13.95
Q -17.2 -13.95 -19.9 -12.55 -22.55 -11.1 -23.75 -9.35 -27 -5.1 -27 1.3 -27 6.45 -25.7 11.05 -24.3 15.7 -21.3 20.85
L -16.8 27.8 -10.95 34.35 -6.9 38.25
Q -6.2 38.95 -5.85 39.05 -5.5 39.2 -5.1 39.35
L -0.1 34.2
Q -1.45 34.2 -2.8 33.35 -7.45 30.35 -13.5 20.7 -19.55 10.95 -19.55 1.3
L -19 -2.25
Q -17.25 -6.55 -14.15 -7.15 -12.05 -7.95 -9.75 -7.95
L 16.9 -7.95 16.9 39.35 24.5 39.35 24.5 -28.35 37.55 -28.35 Z"/>
</g>

<g id="Symbol_1_7_Layer2_0_FILL">
<path fill="#000000" fill-opacity="0.4" stroke="none" d="
M 23.75 -7.4
L 23.75 -25.75 38 -25.75 38 -31.6 -29.7 -31.6 -29.7 -25.75 16.15 -25.75 16.15 -13.35 -13.9 -13.35 -16.5 -12.95 -18.55 -11.85 -20.15 -9.9 -20.6 -7.4 -19.1 -2.1
Q -18.3 0.55 -15.6 4.1
L -10.7 9.75 -14.1 13.15
Q -15.7 14.65 -16.85 16.55 -19.1 20.25 -19.1 23.7 -19.1 36.8 -0.75 43.15
L 4.6 44.95
Q 11.3 47.25 15.65 47.25 17.6 46.95 18.15 46.7
L 20.9 41.55
Q 20.75 41.55 20.45 41.55 20.2 41.55 19.5 41.55
L 16.2 41.55 4.25 38.55
Q -3.4 36.4 -7.45 32.65 -11.25 28.8 -11.25 24.6 -11.25 21.5 -10 18.85 -6.4 10.55 6.85 10.55
L 12.6 11.15
Q 20.9 12.15 20.9 19.55 20.45 23.1 18.45 25.25
L 18.05 25.65 17.45 25.95 16.85 26.35 16.15 26.7 21.45 30.95 25.5 27.95
Q 27.15 26.25 27.85 24.35 28.45 22.4 28.45 19.55 28.45 16.3 27 13.15 24.15 8 16.15 5.85 13.5 5.3 11.55 5.15 9.6 5 7.3 5
L 4.05 5 -4.65 6.75 -5.65 6.2 -9.6 1.2 -10.15 0.05
Q -11.75 -1.55 -12.05 -2.95
L -12.6 -5.35 -12.05 -6.7
Q -11.45 -7.4 -10.15 -7.4
L 23.75 -7.4 Z"/>
</g>

<g id="Symbol_1_7_Layer1_0_FILL">
<path fill="#000000" stroke="none" d="
M 20.95 -28.35
L 35.2 -28.35 35.2 -34.2 -32.5 -34.2 -32.5 -28.35 13.35 -28.35 13.35 -15.95 -16.7 -15.95 -19.3 -15.55 -21.35 -14.45 -22.95 -12.5 -23.4 -10 -21.9 -4.7
Q -21.1 -2.05 -18.4 1.5
L -13.5 7.15 -16.9 10.55
Q -18.5 12.05 -19.65 13.95 -21.9 17.65 -21.9 21.1 -21.9 34.2 -3.55 40.55
L 1.8 42.35
Q 8.5 44.65 12.85 44.65 14.8 44.35 15.35 44.1
L 18.1 38.95
Q 17.95 38.95 17.65 38.95 17.4 38.95 16.7 38.95
L 13.4 38.95 1.45 35.95
Q -6.2 33.8 -10.25 30.05 -14.05 26.2 -14.05 22 -14.05 18.9 -12.8 16.25 -9.2 7.95 4.05 7.95
L 9.8 8.55
Q 18.1 9.55 18.1 16.95 17.65 20.5 15.65 22.65
L 15.25 23.05 14.65 23.35 14.05 23.75 13.35 24.1 18.65 28.35 22.7 25.35
Q 24.35 23.65 25.05 21.75 25.65 19.8 25.65 16.95 25.65 13.7 24.2 10.55 21.35 5.4 13.35 3.25 10.7 2.7 8.75 2.55 6.8 2.4 4.5 2.4
L 1.25 2.4 -7.45 4.15 -8.45 3.6 -12.4 -1.4 -12.95 -2.55
Q -14.55 -4.15 -14.85 -5.55
L -15.4 -7.95 -14.85 -9.3
Q -14.25 -10 -12.95 -10
L 20.95 -10 20.95 -28.35 Z"/>
</g>

<g id="Symbol_1_8_Layer2_0_FILL">
<path fill="#000000" fill-opacity="0.4" stroke="none" d="
M 19.45 -26.35
L 19.45 -6.65 -21.4 -6.65 -22.65 -6.25
Q -24.95 -4.45 -24.95 -1.95 -24.5 -0.25 -23.2 1.9 -20.85 5.75 -18.65 8.15
L -13.4 13.65
Q -11.1 15.55 -10.25 15.55
L -8.6 15.55
Q -7.4 14.4 -7.25 14.15 -7.1 13.95 -7.1 13.25
L -7.1 -0.95 19.45 -0.95 19.45 41.35 27.05 41.35 27.05 -26.35 38.75 -26.35 38.75 -32.2 -33.35 -32.2 -33.35 -26.35 19.45 -26.35 Z"/>
</g>

<g id="Symbol_1_8_Layer1_0_FILL">
<path fill="#000000" stroke="none" d="
M 25.25 -28.35
L 36.95 -28.35 36.95 -34.2 -35.15 -34.2 -35.15 -28.35 17.65 -28.35 17.65 -8.65 -23.2 -8.65 -24.45 -8.25
Q -26.75 -6.45 -26.75 -3.95 -26.3 -2.25 -25 -0.1 -22.65 3.75 -20.45 6.15
L -15.2 11.65
Q -12.9 13.55 -12.05 13.55
L -10.4 13.55
Q -9.2 12.4 -9.05 12.15 -8.9 11.95 -8.9 11.25
L -8.9 -2.95 17.65 -2.95 17.65 39.35 25.25 39.35 25.25 -28.35 Z"/>
</g>

<g id="Symbol_1_9_Layer2_0_FILL">
<path fill="#000000" fill-opacity="0.4" stroke="none" d="
M 11.75 -32.2
L 11.75 -26.35 25.55 -26.35 25.55 2.65 23.65 3.45 18.75 4.7 12.1 4.7 7.3 2.8 -1.1 -1.6 -2.4 -1.85 -3.1 -1.7
Q 4.95 -6.3 4.95 -15.3 4.95 -22.2 0.55 -26.9 -4.7 -32.2 -11.55 -32.2 -20.5 -32.2 -27.55 -26.4
L -32.2 -22.5
Q -33.25 -21.55 -33.45 -21.25 -33.65 -21 -33.8 -20.5
L -28.25 -16.05 -23.1 -21.25 -20.1 -23.55
Q -15.7 -26.35 -12.1 -26.35 -9.75 -26.35 -7.15 -25.4 -3.1 -23.5 -2.3 -19.6 -1.75 -18.05 -1.75 -15.3 -1.75 -12.3 -3.35 -9.6 -6.9 -4.15 -13.4 -2.4 -14.1 -2.3 -16.15 -1.85 -17.8 -1.85 -19.55 -1.85
L -17.1 3.45 -15.55 3.45
Q -14.25 2.6 -12.5 2.6
L -10.1 2.6
Q -5.95 2.6 -1.8 4.8 2.3 7 3.35 10.85 4.2 12.4 4.35 13.45 4.45 14.4 4.45 16.7 4.45 18.95 3.5 21.5 -0.15 29.5 -6.65 29.5 -16.2 29.5 -24.9 16.5
L -28.45 11.2 -32.9 3.45 -38.75 7.25
Q -38.75 11.1 -29.5 21.95 -24 28.55 -18.45 31.8 -15.3 33.65 -12.7 34.4 -10.1 35.1 -7.1 35.1
L -3.1 35.1
Q 11.55 32.25 11.55 17.05
L 11.55 13.85 10.75 10.6 9.7 8.1 11.3 8.85 15.75 10.1 21.3 10.1 25.55 9 25.55 41.35 32.8 41.35 32.8 -26.35 43 -26.35 43 -32.2 11.75 -32.2 Z"/>
</g>

<g id="Symbol_1_9_Layer1_0_FILL">
<path fill="#000000" stroke="none" d="
M 9.95 -34.2
L 9.95 -28.35 23.75 -28.35 23.75 0.65 21.85 1.45 16.95 2.7 10.3 2.7 5.5 0.8 -2.9 -3.6 -4.2 -3.85 -4.9 -3.7
Q 3.15 -8.3 3.15 -17.3 3.15 -24.2 -1.25 -28.9 -6.5 -34.2 -13.35 -34.2 -22.3 -34.2 -29.35 -28.4
L -34 -24.5
Q -35.05 -23.55 -35.25 -23.25 -35.45 -23 -35.6 -22.5
L -30.05 -18.05 -24.9 -23.25 -21.9 -25.55
Q -17.5 -28.35 -13.9 -28.35 -11.55 -28.35 -8.95 -27.4 -4.9 -25.5 -4.1 -21.6 -3.55 -20.05 -3.55 -17.3 -3.55 -14.3 -5.15 -11.6 -8.7 -6.15 -15.2 -4.4 -15.9 -4.3 -17.95 -3.85 -19.6 -3.85 -21.35 -3.85
L -18.9 1.45 -17.35 1.45
Q -16.05 0.6 -14.3 0.6
L -11.9 0.6
Q -7.75 0.6 -3.6 2.8 0.5 5 1.55 8.85 2.4 10.4 2.55 11.45 2.65 12.4 2.65 14.7 2.65 16.95 1.7 19.5 -1.95 27.5 -8.45 27.5 -18 27.5 -26.7 14.5
L -30.25 9.2 -34.7 1.45 -40.55 5.25
Q -40.55 9.1 -31.3 19.95 -25.8 26.55 -20.25 29.8 -17.1 31.65 -14.5 32.4 -11.9 33.1 -8.9 33.1
L -4.9 33.1
Q 9.75 30.25 9.75 15.05
L 9.75 11.85 8.95 8.6 7.9 6.1 9.5 6.85 13.95 8.1 19.5 8.1 23.75 7 23.75 39.35 31 39.35 31 -28.35 41.2 -28.35 41.2 -34.2 9.95 -34.2 Z"/>
</g>

<g id="Layer0_4_FILL">
<path fill="#000000" stroke="none" d="
M 343.4 266.65
Q 342.3 266.65 341.25 266.6 340.15 274.5 339.5 282.2 339 288.15 338.8 293.9 338.5 299.65 338.55 305.3 338.55 317.7 339.9 329.4 340.55 335.25 341.5 340.95
L 344.85 382.45 348.4 340.95
Q 349.55 334.9 350.25 328.65 351.55 317.3 351.6 305.3 351.6 299.85 351.35 294.2 351.1 288.5 350.6 282.6 349.85 274.5 348.6 266.15 346.2 266.65 343.4 266.65
M 341 241.75
Q 335.35 242.25 331.2 245.25 326.15 249 326.15 254.15 326.15 259.3 331.2 262.95 335.5 266.1 341.25 266.6 342.3 266.65 343.4 266.65 346.2 266.65 348.6 266.15 352.55 265.25 355.65 262.95 360.7 259.3 360.7 254.15 360.7 249 355.65 245.25 352.9 243.25 349.5 242.4 346.65 241.65 343.4 241.65 342.2 241.65 341 241.75 Z"/>

<path fill="#1B1B1B" stroke="none" d="
M 324.65 213.35
Q 325.1 213.15 325.45 212.8 326.1 212.15 326.1 211.15 326.1 210.15 325.45 209.45 324.7 208.8 323.7 208.8 322.7 208.8 322.1 209.45 321.35 210.15 321.35 211.15 321.35 212.15 322.1 212.8 322.7 213.5 323.7 213.5 324.2 213.5 324.65 213.35
M 378.3 209.45
Q 377.65 208.8 376.65 208.8 375.65 208.8 374.95 209.45 374.3 210.15 374.3 211.15 374.3 212.15 374.95 212.8 375.3 213.15 375.75 213.35 376.15 213.5 376.65 213.5 377.65 213.5 378.3 212.8 379 212.15 379 211.15 379 210.15 378.3 209.45 Z"/>
</g>

<path id="Q2_Blank_P1_0_Layer0_0_1_STROKES" stroke="#000000" stroke-width="2" stroke-linejoin="round" stroke-linecap="round" fill="none" d="
M 203.35 313.85
Q 150.95 308.9 131.7 283.25 107.7 251.15 115.8 198.8 117.8 182.3 109.45 171.85 103.45 164.3 79.45 147.5 38.15 117.4 16.95 97.55 54.3 92.4 109.35 97.55 204.05 107.7 339.5 282.2 339.5 282.4 339.5 282.6 339 288.5 338.75 294.2 338.55 299.15 338.5 304 271.45 314 203.35 313.85 Z"/>

<path id="Symbol_1_6_Layer1_0_1_STROKES" stroke="#FFFFFF" stroke-width="1" stroke-linejoin="round" stroke-linecap="round" fill="none" d="
M 24.5 -28.35
L 24.5 39.35 16.9 39.35 16.9 -7.95 -9.75 -7.95
Q -12.05 -7.95 -14.15 -7.15 -17.25 -6.55 -19 -2.25
L -19.55 1.3
Q -19.55 10.95 -13.5 20.7 -7.45 30.35 -2.8 33.35 -1.45 34.2 -0.1 34.2
L -5.1 39.35
Q -5.5 39.2 -5.85 39.05 -6.2 38.95 -6.9 38.25
L -10.95 34.35 -16.8 27.8 -21.3 20.85
Q -24.3 15.7 -25.7 11.05 -27 6.45 -27 1.3 -27 -5.1 -23.75 -9.35 -22.55 -11.1 -19.9 -12.55 -17.2 -13.95 -14.35 -13.95
L 16.9 -13.95 16.9 -28.35 -36.55 -28.35 -36.55 -34.2 37.55 -34.2 37.55 -28.35 24.5 -28.35 Z"/>

<path id="Q2_Blank_P2_0_Layer0_0_1_STROKES" stroke="#000000" stroke-width="2" stroke-linejoin="round" stroke-linecap="round" fill="none" d="
M -25.1 109.45
Q 27.3 104.5 46.55 78.85 70.55 46.75 62.45 -5.6 60.45 -22.1 68.8 -32.55 74.8 -40.1 98.8 -56.9 140.1 -87 161.3 -106.85 123.95 -112 68.9 -106.85 -25.8 -96.7 -161.25 77.8 -161.25 78 -161.25 78.2 -160.75 84.1 -160.5 89.8 -160.3 94.75 -160.25 99.6 -93.2 109.6 -25.1 109.45 Z"/>

<path id="Symbol_1_7_Layer1_0_1_STROKES" stroke="#FFFFFF" stroke-width="1" stroke-linejoin="round" stroke-linecap="round" fill="none" d="
M 20.95 -28.35
L 20.95 -10 -12.95 -10
Q -14.25 -10 -14.85 -9.3
L -15.4 -7.95 -14.85 -5.55
Q -14.55 -4.15 -12.95 -2.55
L -12.4 -1.4 -8.45 3.6 -7.45 4.15 1.25 2.4 4.5 2.4
Q 6.8 2.4 8.75 2.55 10.7 2.7 13.35 3.25 21.35 5.4 24.2 10.55 25.65 13.7 25.65 16.95 25.65 19.8 25.05 21.75 24.35 23.65 22.7 25.35
L 18.65 28.35 13.35 24.1 14.05 23.75 14.65 23.35 15.25 23.05 15.65 22.65
Q 17.65 20.5 18.1 16.95 18.1 9.55 9.8 8.55
L 4.05 7.95
Q -9.2 7.95 -12.8 16.25 -14.05 18.9 -14.05 22 -14.05 26.2 -10.25 30.05 -6.2 33.8 1.45 35.95
L 13.4 38.95 16.7 38.95
Q 17.4 38.95 17.65 38.95 17.95 38.95 18.1 38.95
L 15.35 44.1
Q 14.8 44.35 12.85 44.65 8.5 44.65 1.8 42.35
L -3.55 40.55
Q -21.9 34.2 -21.9 21.1 -21.9 17.65 -19.65 13.95 -18.5 12.05 -16.9 10.55
L -13.5 7.15 -18.4 1.5
Q -21.1 -2.05 -21.9 -4.7
L -23.4 -10 -22.95 -12.5 -21.35 -14.45 -19.3 -15.55 -16.7 -15.95 13.35 -15.95 13.35 -28.35 -32.5 -28.35 -32.5 -34.2 35.2 -34.2 35.2 -28.35 20.95 -28.35 Z"/>

<path id="Q2_Blank_P9_0_Layer0_0_1_STROKES" stroke="#000000" stroke-width="2" stroke-linejoin="round" stroke-linecap="round" fill="none" d="
M 87.65 -11.7
Q 78.2 10.6 67 26.8 55.4 47.3 36.35 60.3 16.1 74.05 -6.6 75.05 -75.3 74.9 -95.85 25.45 -118.55 -30.2 -55.4 -58.65 -52.85 -59.8 -34.75 -65.15 33.35 -65 100.4 -75 100.4 -74.35 100.4 -73.7 100.45 -61.7 101.75 -50.35 101.8 -49.95 101.85 -49.55 93.95 -26.4 87.65 -11.7 Z"/>

<path id="Symbol_1_8_Layer1_0_1_STROKES" stroke="#FFFFFF" stroke-width="1" stroke-linejoin="round" stroke-linecap="round" fill="none" d="
M 25.25 -28.35
L 25.25 39.35 17.65 39.35 17.65 -2.95 -8.9 -2.95 -8.9 11.25
Q -8.9 11.95 -9.05 12.15 -9.2 12.4 -10.4 13.55
L -12.05 13.55
Q -12.9 13.55 -15.2 11.65
L -20.45 6.15
Q -22.65 3.75 -25 -0.1 -26.3 -2.25 -26.75 -3.95 -26.75 -6.45 -24.45 -8.25
L -23.2 -8.65 17.65 -8.65 17.65 -28.35 -35.15 -28.35 -35.15 -34.2 36.95 -34.2 36.95 -28.35 25.25 -28.35 Z"/>

<path id="Q2_Blank_P4_0_Layer0_0_1_STROKES" stroke="#000000" stroke-width="2" stroke-linejoin="round" stroke-linecap="round" fill="none" d="
M -87.65 -11.7
Q -78.2 10.6 -67 26.8 -55.4 47.3 -36.35 60.3 -16.1 74.05 6.6 75.05 75.3 74.9 95.85 25.45 118.55 -30.2 55.4 -58.65 52.85 -59.8 34.75 -65.15 -33.35 -65 -100.4 -75 -100.4 -74.35 -100.4 -73.7 -100.45 -61.7 -101.75 -50.35 -101.8 -49.95 -101.85 -49.55 -93.95 -26.4 -87.65 -11.7 Z"/>

<path id="Symbol_1_9_Layer1_0_1_STROKES" stroke="#FFFFFF" stroke-width="1" stroke-linejoin="round" stroke-linecap="round" fill="none" d="
M 31 -28.35
L 31 39.35 23.75 39.35 23.75 7 19.5 8.1 13.95 8.1 9.5 6.85 7.9 6.1 8.95 8.6 9.75 11.85 9.75 15.05
Q 9.75 30.25 -4.9 33.1
L -8.9 33.1
Q -11.9 33.1 -14.5 32.4 -17.1 31.65 -20.25 29.8 -25.8 26.55 -31.3 19.95 -40.55 9.1 -40.55 5.25
L -34.7 1.45 -30.25 9.2 -26.7 14.5
Q -18 27.5 -8.45 27.5 -1.95 27.5 1.7 19.5 2.65 16.95 2.65 14.7 2.65 12.4 2.55 11.45 2.4 10.4 1.55 8.85 0.5 5 -3.6 2.8 -7.75 0.6 -11.9 0.6
L -14.3 0.6
Q -16.05 0.6 -17.35 1.45
L -18.9 1.45 -21.35 -3.85
Q -19.6 -3.85 -17.95 -3.85 -15.9 -4.3 -15.2 -4.4 -8.7 -6.15 -5.15 -11.6 -3.55 -14.3 -3.55 -17.3 -3.55 -20.05 -4.1 -21.6 -4.9 -25.5 -8.95 -27.4 -11.55 -28.35 -13.9 -28.35 -17.5 -28.35 -21.9 -25.55
L -24.9 -23.25 -30.05 -18.05 -35.6 -22.5
Q -35.45 -23 -35.25 -23.25 -35.05 -23.55 -34 -24.5
L -29.35 -28.4
Q -22.3 -34.2 -13.35 -34.2 -6.5 -34.2 -1.25 -28.9 3.15 -24.2 3.15 -17.3 3.15 -8.3 -4.9 -3.7
L -4.2 -3.85 -2.9 -3.6 5.5 0.8 10.3 2.7 16.95 2.7 21.85 1.45 23.75 0.65 23.75 -28.35 9.95 -28.35 9.95 -34.2 41.2 -34.2 41.2 -28.35 31 -28.35 Z"/>

<path id="Layer0_4_1_STROKES" stroke="#000000" stroke-width="2" stroke-linejoin="round" stroke-linecap="round" fill="none" d="
M 349.5 242.4
Q 353.75 224.05 359.85 216.45 367.4 206.9 374.45 204.65 381.6 202.45 387.05 205.45 391.25 209.35 390.65 213.45 390.15 217.3 386.25 219.05 380 221.8 376.9 216.6 375.9 214.95 375.75 213.35 375.3 213.15 374.95 212.8 374.3 212.15 374.3 211.15 374.3 210.15 374.95 209.45 375.65 208.8 376.65 208.8 377.65 208.8 378.3 209.45 379 210.15 379 211.15 379 212.15 378.3 212.8 377.65 213.5 376.65 213.5 376.15 213.5 375.75 213.35
M 324.65 213.35
Q 325.1 213.15 325.45 212.8 326.1 212.15 326.1 211.15 326.1 210.15 325.45 209.45 324.7 208.8 323.7 208.8 322.7 208.8 322.1 209.45 321.35 210.15 321.35 211.15 321.35 212.15 322.1 212.8 322.7 213.5 323.7 213.5 324.2 213.5 324.65 213.35 324.5 214.95 323.5 216.6 320.35 221.8 314.15 219.05 310.2 217.3 309.75 213.45 309.15 209.35 313.3 205.45 325.3 198.9 333.7 210.3 340.55 219.6 341 241.75 342.2 241.65 343.4 241.65 346.65 241.65 349.5 242.4 352.9 243.25 355.65 245.25 360.7 249 360.7 254.15 360.7 259.3 355.65 262.95 352.55 265.25 348.6 266.15 349.85 274.5 350.6 282.6 351.1 288.5 351.35 294.2 351.6 299.85 351.6 305.3 351.55 317.3 350.25 328.65 349.55 334.9 348.4 340.95
L 344.85 382.45 341.5 340.95
Q 340.55 335.25 339.9 329.4 338.55 317.7 338.55 305.3 338.5 299.65 338.8 293.9 339 288.15 339.5 282.2 340.15 274.5 341.25 266.6 335.5 266.1 331.2 262.95 326.15 259.3 326.15 254.15 326.15 249 331.2 245.25 335.35 242.25 341 241.75
M 348.6 266.15
Q 346.2 266.65 343.4 266.65 342.3 266.65 341.25 266.6"/>
</defs>

<g transform="matrix( 1, 0, 0, 1, 178.15,204.4) ">
<g transform="matrix( 1, 0, 0, 1, -178.2,-204.4) ">
<use xlink:href="#Q2_Blank_P1_0_Layer0_0_1_STROKES"/>
</g>

<g transform="matrix( 1, 0, 0, 1, 23.4,33.8) ">
<g transform="matrix( 1, 0, 0, 1, 0,0) ">
<use xlink:href="#Symbol_1_6_Layer2_0_FILL"/>
</g>

<g transform="matrix( 1, 0, 0, 1, 0,0) ">
<use xlink:href="#Symbol_1_6_Layer1_0_FILL"/>

<use xlink:href="#Symbol_1_6_Layer1_0_1_STROKES"/>
</g>
</g>
</g>

<g transform="matrix( 1, 0, 0, 1, 511.8,204.4) ">
<g transform="matrix( 1, 0, 0, 1, 0,0) ">
<use xlink:href="#Q2_Blank_P2_0_Layer0_0_1_STROKES"/>
</g>

<g transform="matrix( 1, 0, 0, 1, -30.25,33.8) ">
<g transform="matrix( 1, 0, 0, 1, 0.8,0.4) ">
<use xlink:href="#Symbol_1_7_Layer2_0_FILL"/>
</g>

<g transform="matrix( 1, 0, 0, 1, 0,0) ">
<use xlink:href="#Symbol_1_7_Layer1_0_FILL"/>

<use xlink:href="#Symbol_1_7_Layer1_0_1_STROKES"/>
</g>
</g>
</g>

<g transform="matrix( 1, 0, 0, 1, 238.05,379) ">
<g transform="matrix( 1, 0, 0, 1, 0,0) ">
<use xlink:href="#Q2_Blank_P9_0_Layer0_0_1_STROKES"/>
</g>

<g transform="matrix( 1, 0, 0, 1, -3.25,-3.2) ">
<g transform="matrix( 1, 0, 0, 1, 1.8,1) ">
<use xlink:href="#Symbol_1_8_Layer2_0_FILL"/>
</g>

<g transform="matrix( 1, 0, 0, 1, 0,0) ">
<use xlink:href="#Symbol_1_8_Layer1_0_FILL"/>

<use xlink:href="#Symbol_1_8_Layer1_0_1_STROKES"/>
</g>
</g>
</g>

<g transform="matrix( 1, 0, 0, 1, 451.95,379) ">
<g transform="matrix( 1, 0, 0, 1, 0,0) ">
<use xlink:href="#Q2_Blank_P4_0_Layer0_0_1_STROKES"/>
</g>

<g transform="matrix( 1, 0, 0, 1, -1.55,-3.2) ">
<g transform="matrix( 1, 0, 0, 1, 1.8,1) ">
<use xlink:href="#Symbol_1_9_Layer2_0_FILL"/>
</g>

<g transform="matrix( 1, 0, 0, 1, 0,0) ">
<use xlink:href="#Symbol_1_9_Layer1_0_FILL"/>

<use xlink:href="#Symbol_1_9_Layer1_0_1_STROKES"/>
</g>
</g>
</g>

<g transform="matrix( 1, 0, 0, 1, -0.05,0) ">
<use xlink:href="#Layer0_4_FILL"/>

<use xlink:href="#Layer0_4_1_STROKES"/>
</g>
</svg>
