
<svg xmlns="http://www.w3.org/2000/svg" version="1.1" xmlns:xlink="http://www.w3.org/1999/xlink" preserveAspectRatio="none" x="0px" y="0px" width="78px" height="78px" viewBox="0 0 78 78">
<defs>
<linearGradient id="Gradient_1" gradientUnits="userSpaceOnUse" x1="107.45" y1="212.2375" x2="-57.95" y2="-226.1375" spreadMethod="pad">
<stop  offset="0%" stop-color="#000000"/>

<stop  offset="14.117647058823529%" stop-color="#040404"/>

<stop  offset="27.058823529411764%" stop-color="#0F0F0F"/>

<stop  offset="39.21568627450981%" stop-color="#212121"/>

<stop  offset="50.98039215686274%" stop-color="#3B3B3B"/>

<stop  offset="62.745098039215684%" stop-color="#5C5C5C"/>

<stop  offset="74.11764705882354%" stop-color="#858585"/>

<stop  offset="85.49019607843137%" stop-color="#B5B5B5"/>

<stop  offset="96.47058823529412%" stop-color="#C9C9C9"/>

<stop  offset="100%" stop-color="#DEDEDE"/>
</linearGradient>

<filter id="Filter_1" x="-20%" y="-20%" width="140%" height="140%" color-interpolation-filters="sRGB">
<feGaussianBlur in="SourceGraphic" stdDeviation="1,1" result="result1"/>
</filter>

<g id="Duplicate_Items_Folder_Symbol_7_copy_0_Layer0_0_FILL">
<path fill="#000000" fill-opacity="0.6470588235294118" stroke="none" d="
M -163.5 -163.5
Q -195.5 -131.5 -213.05 -90 -231.25 -47.1 -231.25 0 -231.25 47.05 -213.05 89.95 -195.5 131.5 -163.5 163.45 -131.5 195.45 -90 213 -47.1 231.25 0 231.25 47.05 231.25 89.95 213 131.5 195.45 163.45 163.45 195.45 131.5 213 89.95 231.25 47.05 231.25 0 231.25 -47.1 213 -90 195.45 -131.5 163.45 -163.5 131.5 -195.5 89.95 -213.05 47.05 -231.25 0 -231.25 -47.1 -231.25 -90 -213.05 -131.5 -195.5 -163.5 -163.5 Z"/>
</g>

<g id="Duplicate_Items_Folder_Symbol_3_copy_2_Layer0_0_FILL">
<path fill="#000000" stroke="none" d="
M 92.85 -205.15
Q 50.15 -224.5 2.9 -225.15
L -2.9 -225.15
Q -50.15 -224.5 -92.9 -205.15 -134.2 -186.45 -165.15 -153 -193.65 -122.3 -209.15 -83.6 -225.2 -43.55 -225.2 0.05 -225.2 45.85 -207.5 87.7 -190.4 128.05 -159.25 159.25 -128.1 190.4 -87.65 207.5 -45.85 225.2 0 225.2 45.8 225.2 87.6 207.5 128.05 190.4 159.2 159.25 190.35 128.05 207.45 87.7 225.15 45.85 225.15 0.05 225.15 -43.55 209.1 -83.6 193.6 -122.3 165.1 -153 134.15 -186.45 92.85 -205.15 Z"/>
</g>

<g id="Duplicate_Items_Folder_Symbol_3_copy_2_Layer0_0_MEMBER_0_FILL">
<path fill="url(#Gradient_1)" stroke="none" d="
M 92.8 -205.2
Q 50.1 -224.55 2.85 -225.15
L -2.95 -225.15
Q -53.5 -224.55 -97.1 -204.8 -139.4 -185.65 -165.2 -153.05 -179.3 -135.25 -186.7 -115.2 -194.35 -94.5 -194.35 -72.7 -194.35 -48.55 -184.95 -25.8 -175.9 -3.75 -158.75 15.25 -141.85 33.95 -118.65 48 -95.3 62.2 -67.7 70.2 -38.35 78.75 -7.1 79.6 -2.4 79.75 -0.05 79.75 39.45 79.75 75.6 67.75 110.45 56.2 137.35 35.05 164.25 13.95 178.95 -13.35 194.25 -41.7 194.25 -72.7 194.25 -94.5 186.6 -115.2 179.15 -135.25 165.05 -153.05 134.1 -186.45 92.8 -205.2 Z"/>
</g>

<g id="Duplicate_Items_Folder_Symbol_2_copy_0_Layer0_0_FILL">
<path fill="#FFFFFF" stroke="none" d="
M 23.45 0
L -23.45 -32.4 -23.45 32.4 23.45 0 Z"/>
</g>
</defs>

<g transform="matrix( 0.16357421875, 0, 0, 0.16357421875, 39,39) ">
<g filter="url(#Filter_1)" transform="matrix( 6.113433837890625, 0, 0, 6.113433837890625, -238.4,-238.4) ">
<g transform="matrix( 0.16357421875, 0, 0, 0.16357421875, 39,39) ">
<g transform="matrix( 1, 0, 0, 1, 0,0) ">
<use xlink:href="#Duplicate_Items_Folder_Symbol_7_copy_0_Layer0_0_FILL"/>
</g>
</g>
</g>

<g transform="matrix( 1, 0, 0, 1, 0,0) ">
<use xlink:href="#Duplicate_Items_Folder_Symbol_3_copy_2_Layer0_0_FILL"/>
</g>

<g transform="matrix( 1, 0, 0, 1, 0,0) ">
<use xlink:href="#Duplicate_Items_Folder_Symbol_3_copy_2_Layer0_0_MEMBER_0_FILL"/>
</g>
</g>

<g transform="matrix( 0.5723419189453125, 0, 0, 0.5723419189453125, 41.7,39) ">
<g transform="matrix( 1, 0, 0, 1, 0,0) ">
<use xlink:href="#Duplicate_Items_Folder_Symbol_2_copy_0_Layer0_0_FILL"/>
</g>
</g>
</svg>
