
<svg xmlns="http://www.w3.org/2000/svg" version="1.1" xmlns:xlink="http://www.w3.org/1999/xlink" preserveAspectRatio="none" x="0px" y="0px" width="278px" height="216px" viewBox="0 0 278 216">
<defs>
<g id="Symbol_4_8_Layer0_0_FILL">
<path fill="#000000" stroke="none" d="
M 189.45 91.5
L 198.7 78.45 203.45 72.95 203.45 63.6 140.05 63.6 140.05 75.3 188 75.5 183.15 80.95 174.7 93.9 170.6 101
Q 167.05 107.1 163.15 116.85 157.75 130.15 156.05 140.65
L 154.6 148.05
Q 154.05 151 153.85 153.95 153.65 157 153.65 160.15
L 166.1 160.15 166.1 153.7 168.5 140.25 173.15 124.45 180 108.25 189.45 91.5
M 108.65 62.1
L 100.95 62.1 96.55 68.75
Q 93.05 72.85 89.9 75.4
L 81.8 81.9
Q 76.25 85.2 72.55 86.55
L 72.55 98.35 81.9 94.25 91.7 88
Q 94.15 86.25 96.55 83.7
L 96.55 160.15 108.65 160.15 108.65 62.1 Z"/>
</g>
</defs>

<g transform="matrix( 1, 0, 0, 1, -0.8,-1.45) ">
<g transform="matrix( 1, 0, 0, 1, 0,0) ">
<use xlink:href="#Symbol_4_8_Layer0_0_FILL"/>
</g>
</g>
</svg>
