
<svg xmlns="http://www.w3.org/2000/svg" version="1.1" xmlns:xlink="http://www.w3.org/1999/xlink" preserveAspectRatio="none" x="0px" y="0px" width="278px" height="216px" viewBox="0 0 278 216">
<defs>
<g id="Symbol_4_7_Layer0_0_FILL">
<path fill="#000000" stroke="none" d="
M 193.05 72.75
Q 191.35 70.45 190.4 69.5 184.5 63.8 177.55 63.2 174.95 62.25 169.95 62.25 158.4 62.25 150.4 69.05 142.4 75.7 140.6 87.4
L 152.5 89.6
Q 154.5 79.8 158.4 76.45 162.7 72.15 170.3 72.15 182.6 72.15 184.95 81.3 186.1 84.55 186.1 87.3 186.1 91.2 184.6 94.25 182 99.3 173.45 102.65
L 169.95 103.4 164.2 103.4 162.9 114.15 167.35 113.1
Q 168.5 112.75 171.45 112.75
L 175.55 113.1 179.05 114.15 182.2 115.9 185.35 118.25
Q 187.85 119.95 189.05 124.05 190.6 127.8 190.6 131.85 190.6 140.45 184.8 146.35 178.9 152.15 170.5 152.15
L 163.85 151.2
Q 156.6 147.7 154.5 142.65 152.3 138.75 151.35 132.65
L 139.25 134.55
Q 140.4 144.15 145.55 150.55 154.3 161.85 170.5 161.85 184.9 161.85 194.2 153 203.45 144.15 203.45 131.5 203.45 116.25 192.7 110.65 190.2 108.45 185.05 107.3
L 190.7 103.8
Q 196.5 98.35 197.45 93.7 198.4 91.1 198.4 87.6
L 198.4 84.25 196 77.1
Q 194.7 74.95 193.05 72.75
M 108.65 62.1
L 100.95 62.1 96.55 68.75
Q 93.05 72.85 89.9 75.4
L 81.8 81.9
Q 76.25 85.2 72.55 86.55
L 72.55 98.35 81.9 94.25 91.7 88
Q 94.15 86.25 96.55 83.7
L 96.55 160.15 108.65 160.15 108.65 62.1 Z"/>
</g>
</defs>

<g transform="matrix( 1, 0, 0, 1, -0.8,-1.45) ">
<g transform="matrix( 1, 0, 0, 1, 0,0) ">
<use xlink:href="#Symbol_4_7_Layer0_0_FILL"/>
</g>
</g>
</svg>
