
<svg xmlns="http://www.w3.org/2000/svg" version="1.1" xmlns:xlink="http://www.w3.org/1999/xlink" preserveAspectRatio="none" x="0px" y="0px" width="1920px" height="1080px" viewBox="0 0 1920 1080">
<defs>
<g id="Symbol_1_15_Layer1_0_FILL">
<path fill="#FFFFFF" stroke="none" d="
M -360.1 -34.75
L -360.1 -28.8 -330.35 -28.8 -330.35 -8.45 -330.8 -5.7
Q -331.65 -3.25 -334.25 -2.4
L -337.15 -1.95 -339.9 -1.95 -342.25 -3 -343.1 -3.6 -344.05 -4.5 -346.45 -12.85 -353 -9.4 -348.9 2.35 -346.45 8.15
Q -343.4 14.95 -338.1 21.75 -330.35 31.4 -319.8 34.3 -315.85 35.45 -309.35 35.45
L -301.7 34.7 -293.55 32.4 -285.85 29.05 -279.3 24.9 -279.3 40.1 -271.55 40.1 -271.55 -28.8 -248.15 -28.8 -248.15 40.1 -240.4 40.1 -240.4 -28.8 -161 -28.8 -161 -9.65 -164.3 -9.65 -171.25 -7.4 -173.3 -6.15 -178.45 -2.25
Q -178.6 -3.25 -179.95 -4.15
L -183.85 -7.2
Q -186.75 -9.45 -190.35 -10.4 -193 -11.35 -194.7 -11.45 -196.45 -11.5 -197.75 -11.5 -207.15 -11.5 -213.1 -5.9 -219.05 -0.35 -219.05 8.5 -219.05 18.8 -210.25 28.05 -198.1 40.65 -190.7 40.65
L -187.1 34.6 -194.45 31.1 -199.5 27.9
Q -211.95 19.9 -211.95 9.1 -211.95 4 -208.05 -1.1 -205.6 -3.35 -203.75 -4.2 -202 -5 -201.15 -5.15 -200.35 -5.3 -198.35 -5.3
L -193.85 -4.6 -188.9 -2.5
Q -183.45 -0.2 -182.5 2.6
L -183.45 4.7 -187.3 11.05 -187.3 12.85 -181.1 16.45 -179.95 13.1 -175.55 5.4 -173.15 2.5 -171.1 0.65 -169.2 -0.7 -164.75 -2.8 -161 -3.85 -161 40.1 -153.4 40.1 -153.4 -28.8 -129.75 -28.8 -129.75 40.1 -122.2 40.1 -122.2 -28.8 -110 -28.8 -110 -34.6 -123.8 -34.6 -129 -43.75 -133.25 -50.25
Q -137.85 -57.3 -144.7 -62 -150.3 -65.9 -155.4 -65.9 -167.3 -65.9 -171.55 -53.55 -172.5 -50.65 -172.65 -49.7 -172.8 -48.6 -172.8 -46.5
L -172.8 -43.15 -171.75 -40 -170.25 -37.05 -168.5 -34.75 -360.1 -34.75
M -306.8 -12.3
Q -310.75 -7.85 -310.75 -2.15 -310.75 1.15 -309.6 4.35 -304.4 13.7 -294.1 13.7
L -291.65 13.7 -289 13.1 -283.55 10.8 -281.65 9.65 -279.3 7.75 -279.3 17.3
Q -281.35 19.35 -285.1 21.85
L -293.7 26.15
Q -297.85 28.05 -301.35 28.75 -304.75 29.5 -308.75 29.5 -316.15 29.5 -323.05 26.1 -329.95 22.7 -333.85 16.45
L -337.3 11.05 -340.85 3.45 -334.2 2.95 -328.95 1.5
Q -323 -1.55 -323 -8.05
L -323 -28.8 -279.3 -28.8 -279.3 -0.8
Q -280.65 1.35 -281.8 2.5 -285.7 6.45 -289.65 6.9 -291.2 7.45 -293.85 7.45
L -297.6 6.9
Q -303.4 4.7 -303.4 -2.25 -303.4 -5 -302.7 -6.85 -300.35 -11.35 -296.6 -11.8 -295.1 -12.5 -292.2 -12.5
L -288.6 -12.1 -285.25 -11.25 -287.05 -16.45 -290.35 -17.6 -293.55 -18.05 -296.85 -18.05
Q -302.8 -16.7 -306.8 -12.3
M -164.95 -50.5
Q -163.8 -54.55 -162.45 -56.6 -159.85 -60.2 -155.15 -60.2 -149.95 -60.2 -143 -52.1 -131.3 -38.7 -131.3 -35.15
L -131.45 -34.6 -141.35 -34.6 -141.35 -34.75 -160 -34.75 -160.9 -36 -162.75 -39.7
Q -163.25 -40.55 -163.6 -41.6 -163.95 -42.75 -164.45 -44.3 -164.95 -45.9 -164.95 -47.75
L -164.95 -50.5
M 344.35 -60.35
L 344.35 -50.95 354.35 -50.95 354.35 -60.35 344.35 -60.35
M 240.5 -24.9
L 242.1 -27.15 244.6 -28.5
Q 246.15 -29.05 247.5 -29.05 250.25 -29.05 252.1 -27.15 254 -25.3 254 -22.7
L 254 -2.4 245.3 -2.4 244.3 -2.1 242.95 -1.3 241.85 -0.1 241.4 1.1
Q 241.85 2.85 243.25 5
L 248.75 11.55
Q 251.65 14.9 255.15 17.3 257.6 19.2 258.95 19.2
L 260.5 19.2 261.75 18.15 261.75 3.85 285.35 3.85 285.35 40.1 293.1 40.1 293.1 -28.8 340.8 -28.8 340.8 -10.5
Q 339.95 -5.3 337.7 -3.25 335.4 -1.1 330.7 -1.1 324.75 -1.1 322.4 -4.7
L 316.45 -14.85 310.5 -10.5 320.7 6.9 325.15 13.55
Q 332.1 24.05 339.25 32.25 345.2 39.4 347.4 40.1
L 352.7 35.15 342 23.75 337.9 18.65 327.5 3.7
Q 328.05 4.15 330.1 4.4
L 332.85 4.4
Q 335.75 4.4 338.7 3.45 348.5 -0.45 348.5 -9.9
L 348.5 -28.8 360.15 -28.8 360.15 -34.75 345.25 -34.75 315.5 -71.25 310.45 -65.75 340.45 -34.75 268.25 -34.75 268.25 -29.05 271.15 -29.05 271.15 -28.8 285.35 -28.8 285.35 -2.4 261.75 -2.4 261.75 -22
Q 261.75 -24.25 260.75 -27.3 257.4 -34.75 247.85 -34.75 241.75 -34.75 237.5 -31.2 233.25 -27.65 233.25 -21.2
L 233.25 -19.35 233.85 -17.3 233.95 -16.45 234.55 -15.4 241.85 -15.25 241.05 -16.6 239.9 -19.8 239.9 -21.85 240.5 -24.9
M 17.5 -28.8
L 17.5 -10.4 -17.1 -10.25
Q -15.85 -9.25 -14.9 -7.75
L -11.15 -2.25
Q -8.7 0.95 -6.9 6.35 -5.65 10.5 -5.65 13.85 -5.65 18.5 -8.05 21.75 -10.45 25 -14.75 25 -22.65 25 -29.7 14.9 -35.5 6.75 -38.7 -3.1
L -41.3 -11.25 -41.6 -13.15 -41.6 -14.25 -47.85 -9.6 -47.25 -6.4 -44.5 1.1
Q -39.9 13.1 -33.95 20.4 -25.1 30.7 -15.4 30.7 -11.3 30.7 -8.1 29.55 -1.6 26.65 0.45 20.4 1.45 17.8 1.5 16.3 1.6 14.9 1.6 13.55
L 1 9.65 -0.45 4.55 -3 -1.8
Q -4.1 -4.3 -4.95 -4.7
L 17.5 -4.7 17.5 40.1 25.25 40.1 25.25 -28.8 59.45 -28.8 59.45 -5.4 48.15 -5 47.3 -4.3
Q 47 -3.85 47 -2.8 47 -0.8 48.55 1.95 52.65 8.8 59.15 13.55 62.2 15.3 63.65 15.3
L 65.7 14.75
Q 66.55 14.05 66.8 12.55
L 66.8 -28.8 89.7 -28.8 89.7 40.1 97.4 40.1 97.4 -28.8 158.45 -28.8 158.45 -16.2 127.85 -16.2 125.25 -15.75 123.15 -14.65 121.5 -12.65 121.05 -10.1 122.55 -4.7
Q 123.4 -2.05 126.15 1.6
L 131.15 7.3 127.65 10.8
Q 126.05 12.35 124.9 14.25 122.55 18 122.55 21.55 122.55 34.85 141.25 41.3
L 146.7 43.15
Q 153.5 45.5 157.95 45.5 159.95 45.2 160.5 44.9
L 163.25 39.7
Q 163.15 39.7 162.85 39.7 162.55 39.7 161.85 39.7
L 158.55 39.7 146.35 36.65
Q 138.55 34.45 134.45 30.6 130.55 26.7 130.55 22.45 130.55 19.3 131.85 16.6 135.5 8.15 148.95 8.15
L 154.85 8.75
Q 163.25 9.8 163.25 17.3 162.85 20.9 160.8 23.1
L 160.35 23.55 159.8 23.8 159.15 24.25 158.45 24.6 163.85 28.9 167.95 25.85
Q 169.65 24.1 170.35 22.2 171 20.2 171 17.3 171 13.95 169.5 10.8 166.6 5.55 158.45 3.35 155.75 2.8 153.8 2.65 151.8 2.5 149.45 2.5
L 146.15 2.5 137.3 4.25 136.3 3.7 132.25 -1.4 131.7 -2.5
Q 130.05 -4.15 129.8 -5.55
L 129.2 -8.05 129.8 -9.4
Q 130.35 -10.1 131.7 -10.1
L 166.2 -10.1 166.2 -28.8 180.7 -28.8 180.7 -34.75 -56.4 -34.75 -56.4 -28.8 17.5 -28.8 Z"/>
</g>
</defs>

<g transform="matrix( 1, 0, 0, 1, 960,540) ">
<g transform="matrix( 1, 0, 0, 1, 0,0) ">
<use xlink:href="#Symbol_1_15_Layer1_0_FILL"/>
</g>
</g>
</svg>
