
<svg xmlns="http://www.w3.org/2000/svg" version="1.1" xmlns:xlink="http://www.w3.org/1999/xlink" preserveAspectRatio="none" x="0px" y="0px" width="1920px" height="1080px" viewBox="0 0 1920 1080">
<defs>
<g id="Symbol_1_1_Layer1_0_FILL">
<path fill="#FFFFFF" stroke="none" d="
M -271.95 -34.75
L -271.95 -28.8 -218.2 -28.8 -218.2 -8.75 -259.75 -8.75 -261.05 -8.35
Q -263.4 -6.5 -263.4 -3.95 -262.95 -2.25 -261.6 -0.05 -259.2 3.85 -257 6.35
L -251.65 11.9
Q -249.3 13.85 -248.45 13.85
L -246.75 13.85
Q -245.55 12.7 -245.4 12.4 -245.25 12.2 -245.25 11.5
L -245.25 -2.95 -218.2 -2.95 -218.2 40.1 -210.5 40.1 -210.5 -28.8 -187.8 -28.8 -187.8 40.1 -180.05 40.1 -180.05 -28.8 -151.05 -28.8 -151.05 -2.95 -157.25 -2.95 -158.75 -2.5 -159.45 -2.15
Q -160.45 -1.6 -161 -0.8
L -161.45 1.1
Q -161.3 3 -160.05 4.85 -155.2 10.95 -152.65 13.55 -149 17.3 -146.85 17.3
L -144.9 17 -143.7 16.15 -143.7 3.55 -117.15 3.55 -117.15 40.1 -109.55 40.1 -109.55 -28.8 -98.7 -28.8 -98.7 -34.75 -271.95 -34.75
M -143.7 -2.95
L -143.7 -28.8 -117.15 -28.8 -117.15 -2.95 -143.7 -2.95
M -419.7 -34.75
L -419.7 -28.8 -375.45 -28.8 -375.45 7.3
Q -375.45 10.1 -378.5 13.1 -383.85 18.5 -389.05 18.5 -391.4 18.5 -394.4 17.5 -401.5 13.9 -401.5 4.75 -401.5 -1.2 -398.05 -5.55 -394.55 -9.9 -388.5 -9.9
L -386.3 -9.9 -384.15 -9.05 -383.4 -8.4 -381.95 -8.05 -381.95 -14.35
Q -382.95 -15 -385.85 -15.35
L -389.8 -15.7 -393.7 -15.25
Q -399.5 -13.9 -403.85 -10.05 -409.8 -4.65 -409.8 4 -409.8 12.55 -403.4 18.3 -397.05 24.05 -388.9 24.05 -380.85 24.05 -375.45 18.65
L -375.45 40.1 -367.85 40.1 -367.85 9.1
Q -367.85 6.8 -366.75 3.65 -365.1 0.15 -363.55 -2.05 -358.45 -8.4 -352.5 -8.4 -345.55 -8.4 -342.95 -3.3 -341.55 -0.35 -341.55 3.8 -341.55 6.7 -343.1 10.7 -346.4 18.2 -352.5 24.3 -353.85 25.6 -354.85 25.95
L -348.6 30.7 -341.05 22
Q -333.55 12.55 -333.55 4.35 -333.55 -3.8 -339.2 -8.8 -345.3 -14.35 -353.35 -14.35 -359 -14.35 -363.55 -10.8
L -367.85 -6.9 -367.85 -28.8 -326.1 -28.8 -326.1 -34.75 -368.55 -34.75 -398.3 -71.25 -403.35 -65.75 -373.35 -34.75 -419.7 -34.75
M -592.05 -51.85
Q -596.5 -55.5 -602.15 -58.95 -615.9 -67.4 -626.85 -67.4 -631.55 -67.4 -636 -65.75 -642.2 -63.15 -646.1 -57.75 -648.15 -55 -648.8 -52.35 -649.45 -49.75 -649.45 -45.8
L -649.45 -43.5 -647.2 -34.6 -660.35 -34.6 -660.35 -28.8 -647.6 -28.8 -647.6 40.1 -639.9 40.1 -639.9 -28.8 -567.9 -28.8 -567.9 1.65
Q -567.9 3.55 -571.75 7.75
L -574.8 10.65
Q -583.55 18.8 -591.9 18.8
L -595.9 18.2
Q -601.6 15.75 -601.6 8.5 -601.6 1.85 -594.5 -3.95
L -587.4 -9.2 -577.7 -9.2 -577.7 -15.1 -621.95 -15.1 -621.95 -9.2 -598.2 -9.05
Q -600.3 -7.75 -601.95 -6.15 -609.15 1.1 -609.15 8.8 -609.15 12.4 -607.8 15.55 -606.4 18.65 -604.2 20.55 -599.45 24.75 -592.25 24.75 -588.4 24.75 -584.1 22.95 -578.3 20.7 -575.4 18.35
L -570.2 14.1 -567.9 11.2 -567.9 40.1 -560.15 40.1 -560.15 -28.8 -491.05 -28.8 -491.05 3.85 -501.3 -7
Q -509.6 -15.25 -513.85 -15.25 -515.8 -15.25 -518.3 -14.4
L -538.2 -6.65 -542.65 -4.15 -538.2 1.65 -528.5 -3.45
Q -519.9 -7.9 -514.55 -7.9 -511.05 -7.9 -502.6 0.4
L -494.3 8.3 -530.2 27.05 -525.65 33.65 -491.05 13 -491.05 39.95 -483.55 40.1 -483.55 -28.8 -473.05 -28.8 -473.05 -34.75 -573.2 -34.75 -581.6 -43.15 -592.05 -51.85
M -633.25 -60
Q -630.9 -61.15 -627.45 -61.15 -623.25 -61.15 -617.45 -59.15 -611.65 -57.25 -607.1 -54.2
L -595.05 -45.9
Q -592.5 -44 -589.9 -41.4
L -582.75 -34.75 -629.05 -34.75 -629.05 -34.6 -639.9 -34.6 -640.6 -35.75 -642.5 -41.8 -642.5 -44.7
Q -642.5 -48 -641.5 -51.6 -638.45 -58.25 -633.25 -60
M 194.25 -31.15
Q 189.3 -34.75 182.9 -34.75 176.45 -34.75 172.15 -31.25 167.85 -27.75 167.85 -21.65
L 168.4 -17.3
Q 169.4 -14.4 170.25 -12.95
L 173.15 -8.4
Q 175.05 -6.55 176.05 -6.05
L 169.55 -1.3
Q 166.2 2.1 164.65 4.9 163 7.75 163 11.2 163 14.8 164.5 19.2 168.4 26.65 175.6 29.25 178.4 30.1 179.75 30.35 181 30.55 183.75 30.55
L 185.8 30.55 189.5 29.75 191 29.2 191.55 30.95 194.45 36.75 197.8 39.7 199.25 40.65 205.2 36.35 202.15 34.15 198 30 196.35 27.2 198.85 26.5 200.55 25 201.6 23.2 202.05 20.7 201.45 17.8 199.95 15.3
Q 198.55 13.85 197.5 13.4
L 194.45 13 191.55 13.55
Q 190.7 13.75 189.65 14.9
L 188.35 17.3 187.95 20.9 187.95 23.3 188.2 23.9 179.6 23.45 175.7 21.85
Q 173.05 20.3 172.15 18.45 170.75 15.65 170.75 12.05 170.75 6.25 176.1 1.25
L 179.45 -1.25
Q 180.85 -2.25 181.8 -2.25
L 188.7 -0.2 195.65 1.25 206.85 1.25 211.3 0.5 215.35 -0.7 219.75 -2.65 219.75 40.1 227.5 40.1 227.5 -28.8 275.2 -28.8 275.2 -10.5
Q 274.35 -5.3 272.1 -3.25 269.8 -1.1 265.1 -1.1 259.15 -1.1 256.8 -4.7
L 250.85 -14.85 244.9 -10.5 255.1 6.9 259.55 13.55
Q 266.5 24.05 273.65 32.25 279.6 39.4 281.8 40.1
L 287.1 35.15 276.4 23.75 272.3 18.65 261.9 3.7
Q 262.45 4.15 264.5 4.4
L 267.25 4.4
Q 270.15 4.4 273.1 3.45 282.9 -0.45 282.9 -9.9
L 282.9 -28.8 294.55 -28.8 294.55 -34.75 204.1 -34.75 204.1 -28.8 219.75 -28.8 219.75 -9.15
Q 217.75 -7.75 215.7 -7.1
L 211.45 -5.65
Q 209.9 -4.85 207 -4.85
L 196.1 -4.85 190.25 -5.7 189 -6.35 192.05 -8.4 196.5 -12.8
Q 199.25 -16.6 199.25 -20.6 199.25 -27.5 194.25 -31.15
M 186.3 -28.1
L 189.05 -26.6
Q 190.55 -25.3 191 -24.2 191.55 -23 191.55 -21.45 191.55 -15.5 186.8 -12
L 184.75 -10.8
Q 183.9 -10.1 182 -9.65
L 179.8 -11.25 178.5 -12.7
Q 175.2 -16.45 175.2 -21.45
L 175.75 -24.45
Q 176.35 -25.9 177.55 -26.75
L 180.15 -28.1
Q 181.3 -28.65 183.25 -28.65
L 186.3 -28.1
M 105.8 -28.8
Q 108.2 -28.8 110.8 -27.8 114.9 -25.9 115.75 -21.9 116.35 -20.35 116.35 -17.55 116.35 -14.5 114.7 -11.75 111.1 -6.2 104.45 -4.45 103.75 -4.3 101.7 -3.85 100 -3.85 98.2 -3.85
L 100.7 1.5 102.25 1.5
Q 103.6 0.65 105.35 0.65
L 107.85 0.65
Q 112 0.65 116.25 2.95 120.45 5.1 121.5 9.1 122.35 10.65 122.5 11.7 122.65 12.7 122.65 15.05 122.65 17.3 121.65 19.9 117.95 28.05 111.3 28.05 101.6 28.05 92.75 14.8
L 89.15 9.45 84.6 1.5 78.65 5.4
Q 78.65 9.3 88.1 20.35 93.7 27.05 99.35 30.4 102.55 32.25 105.15 33 107.85 33.75 110.9 33.75
L 114.9 33.75
Q 129.85 30.85 129.85 15.4
L 129.85 12.15 129 8.8 127.95 6.25 129.55 7.05 134.1 8.3 139.75 8.3 144.1 7.2 144.1 40.1 151.45 40.1 151.45 -28.8 161.85 -28.8 161.85 -34.75 130.05 -34.75 130.05 -28.8 144.1 -28.8 144.1 0.75 142.15 1.5 137.15 2.8 130.4 2.8 125.55 0.9 116.95 -3.6 115.6 -3.85 114.9 -3.75
Q 123.15 -8.4 123.15 -17.55 123.15 -24.55 118.65 -29.35 113.3 -34.75 106.35 -34.75 97.2 -34.75 90.05 -28.85
L 85.3 -24.9
Q 84.25 -23.9 84.05 -23.6 83.85 -23.35 83.7 -22.85
L 89.35 -18.3 94.6 -23.6 97.65 -25.95
Q 102.1 -28.8 105.8 -28.8
M 24.7 -34.75
L 10 -34.75 -19.75 -71.25 -24.8 -65.75 5.2 -34.75 -46.05 -34.75 -46.05 -28.8 -27.65 -28.8 -27.65 -2.95 -33.85 -2.95 -35.35 -2.5 -36.05 -2.15
Q -37.05 -1.6 -37.6 -0.8
L -38.05 1.1
Q -37.9 3 -36.65 4.85 -31.8 10.95 -29.25 13.55 -25.6 17.3 -23.45 17.3
L -21.5 17 -20.3 16.15 -20.3 3.55 6.25 3.55 6.25 40.1 13.85 40.1 13.85 -28.8 24.7 -28.8 24.7 -34.75
M 6.25 -28.8
L 6.25 -2.95 -20.3 -2.95 -20.3 -28.8 6.25 -28.8
M 9.1 -60.35
L 9.1 -50.95 19.1 -50.95 19.1 -60.35 9.1 -60.35
M 648.45 -28.8
L 660.35 -28.8 660.35 -34.75 645.95 -34.75 616.2 -71.25 611.15 -65.75 641.15 -34.75 347 -34.75 347 -28.8 358.35 -28.8 358.35 -1.95
Q 358.35 1.5 359.75 5.9 365.85 18.2 378.45 18.2 384.4 18.2 389.5 14.75
L 393.95 11.2 393.95 40.1 401.65 40.1 401.65 -28.8 458.15 -28.8 458.15 -16.2 427.55 -16.2 424.95 -15.75 422.85 -14.65 421.2 -12.65 420.75 -10.1 422.25 -4.7
Q 423.1 -2.05 425.85 1.6
L 430.85 7.3 427.35 10.8
Q 425.75 12.35 424.6 14.25 422.25 18 422.25 21.55 422.25 34.85 440.95 41.3
L 446.4 43.15
Q 453.2 45.5 457.65 45.5 459.65 45.2 460.2 44.9
L 462.95 39.7
Q 462.85 39.7 462.55 39.7 462.25 39.7 461.55 39.7
L 458.25 39.7 446.05 36.65
Q 438.25 34.45 434.15 30.6 430.25 26.7 430.25 22.45 430.25 19.3 431.55 16.6 435.2 8.15 448.65 8.15
L 454.55 8.75
Q 462.95 9.8 462.95 17.3 462.55 20.9 460.5 23.1
L 460.05 23.55 459.5 23.8 458.85 24.25 458.15 24.6 463.55 28.9 467.65 25.85
Q 469.35 24.1 470.05 22.2 470.7 20.2 470.7 17.3 470.7 13.95 469.2 10.8 466.3 5.55 458.15 3.35 455.45 2.8 453.5 2.65 451.5 2.5 449.15 2.5
L 445.85 2.5 437 4.25 436 3.7 431.95 -1.4 431.4 -2.5
Q 429.75 -4.15 429.5 -5.55
L 428.9 -8.05 429.5 -9.4
Q 430.05 -10.1 431.4 -10.1
L 465.9 -10.1 465.9 -28.8 538.6 -28.8 538.6 1.65
Q 538.6 3.55 534.75 7.75
L 531.7 10.65
Q 522.95 18.8 514.6 18.8
L 510.6 18.2
Q 504.9 15.75 504.9 8.5 504.9 1.85 512 -3.95
L 519.1 -9.2 528.8 -9.2 528.8 -15.1 484.55 -15.1 484.55 -9.2 508.3 -9.05
Q 506.2 -7.75 504.55 -6.15 497.35 1.1 497.35 8.8 497.35 12.4 498.7 15.55 500.1 18.65 502.3 20.55 507.05 24.75 514.25 24.75 518.1 24.75 522.4 22.95 528.2 20.7 531.1 18.35
L 536.3 14.1 538.6 11.2 538.6 40.1 546.35 40.1 546.35 -28.8 568.65 -28.8 568.65 40.1 576.4 40.1 576.4 -28.8 640.75 -28.8 640.75 -8.75 599.2 -8.75 597.9 -8.35
Q 595.55 -6.5 595.55 -3.95 596 -2.25 597.35 -0.05 599.75 3.85 601.95 6.35
L 607.3 11.9
Q 609.65 13.85 610.5 13.85
L 612.2 13.85
Q 613.4 12.7 613.55 12.4 613.7 12.2 613.7 11.5
L 613.7 -2.95 640.75 -2.95 640.75 40.1 648.45 40.1 648.45 -28.8
M 365.7 -28.8
L 393.95 -28.8 393.95 2.6 389.75 7.6 387 9.8
Q 382.45 12.55 378.15 12.55
L 373.85 11.85
Q 365.7 7.3 365.7 -0.95
L 365.7 -28.8
M 655.05 -50.95
L 655.05 -60.35 645.05 -60.35 645.05 -50.95 655.05 -50.95 Z"/>
</g>
</defs>

<g transform="matrix( 1, 0, 0, 1, 960,540) ">
<g transform="matrix( 1, 0, 0, 1, 0,0) ">
<use xlink:href="#Symbol_1_1_Layer1_0_FILL"/>
</g>
</g>
</svg>
