
<svg xmlns="http://www.w3.org/2000/svg" version="1.1" xmlns:xlink="http://www.w3.org/1999/xlink" preserveAspectRatio="none" x="0px" y="0px" width="505px" height="350px" viewBox="0 0 505 350">
<defs>
<g id="Duplicate_Items_Folder_Symbol_13_copy_1_Layer2_0_FILL">
<path fill="#666666" stroke="none" d="
M 42.15 -72.9
L 72.8 -72.9 72.8 72.3 92.25 84.3 92.25 -72.9 243.95 -72.9 243.95 -41.1 165.55 -41.1 162.65 -34.2
Q 179.2 -24.25 188.1 -15.6 201 -3 201 9 201 17.35 196.45 22.8 192.1 28.2 183.3 28.2 176.1 28.2 166.75 22.2 157.2 16.2 151.2 7.85 143.45 -3 139.5 -10.2 134.35 -19.4 129.4 -31.7
L 117.95 -27.05
Q 128.65 -3.9 136.25 8.4 147.55 27.6 159.25 36.85 173.45 48.25 189.9 48.25 201 48.25 210.25 41.1 220.8 33.05 220.8 20.15 220.8 9 214.2 -1.25 209.35 -8.7 195.9 -22.2
L 243.95 -22.2 243.95 72.6 264.3 84.3 264.3 -72.9 298.85 -72.9 288.6 -91.75 -299.85 -91.75 -289.3 -72.9 -184.85 -72.9 -185.45 -17.05
Q -189.4 -22.8 -193.65 -28.05 -198.05 -33.35 -203.15 -37.55 -208.3 -41.7 -215.3 -43.3 -222.35 -44.75 -230.55 -44.75 -251.8 -44.75 -262.65 -30.7 -269.8 -21.3 -269.8 -11.2 -269.8 8.55 -255.3 22.9 -240.95 37.15 -221.45 37.15 -211.35 37.15 -202.4 32.9 -198.6 31.15 -184.85 22.5
L -183.95 72.6 -164.5 84.3 -164.5 9
Q -154.25 0.35 -143.95 -5.35 -133.55 -11.05 -127.85 -11.05 -120.4 -11.05 -115.7 -6.65 -111 -2.4 -111 5.5 -111 15 -116.6 27.6 -122.15 40.2 -130.95 52.2
L -113.8 67.75
Q -95.8 40.2 -95.8 22.2 -95.8 -3 -109.85 -18.25 -121 -30.25 -133 -30.25 -140.75 -30.25 -148.5 -26 -154.5 -22.8 -164.5 -15
L -164.5 -72.9 -57.4 -72.9 -57.4 72.6 -37.35 84.3 -37.35 -72.9 22.1 -72.9 22.1 -21.9
Q 22.1 -18.25 19.75 -18.25
L 4.35 -18.25
Q 2.6 -18.25 0.4 -16.05 -1.65 -13.7 -1.65 -11.05 -1.65 -3.9 10.65 8.7 13.3 11.5 19.6 17.8 27.8 25.25 30.45 25.25 35.3 25.25 38.65 21.45 42.15 17.8 42.15 12.65
L 42.15 -72.9
M -226.6 -26.15
Q -212.25 -26.15 -203.3 -20.9 -194.5 -15.6 -184.85 -2.15 -198.3 8.25 -210.75 14.3 -223.35 20.3 -232.6 20.3 -241.95 20.3 -248.25 14.85 -254.55 9.45 -254.55 0.2 -254.55 -12.4 -246.05 -19.25 -237.45 -26.15 -226.6 -26.15 Z"/>
</g>

<g id="Duplicate_Items_Folder_Symbol_13_copy_1_Layer1_0_FILL">
<path fill="#FFFFFF" stroke="none" d="
M 42.15 -72.9
L 72.8 -72.9 72.8 72.3 92.25 84.3 92.25 -72.9 243.95 -72.9 243.95 -41.1 165.55 -41.1 162.65 -34.2
Q 179.2 -24.25 188.1 -15.6 201 -3 201 9 201 17.35 196.45 22.8 192.1 28.2 183.3 28.2 176.1 28.2 166.75 22.2 157.2 16.2 151.2 7.85 143.45 -3 139.5 -10.2 134.35 -19.4 129.4 -31.7
L 117.95 -27.05
Q 128.65 -3.9 136.25 8.4 147.55 27.6 159.25 36.85 173.45 48.25 189.9 48.25 201 48.25 210.25 41.1 220.8 33.05 220.8 20.15 220.8 9 214.2 -1.25 209.35 -8.7 195.9 -22.2
L 243.95 -22.2 243.95 72.6 264.3 84.3 264.3 -72.9 298.85 -72.9 288.6 -91.75 -299.85 -91.75 -289.3 -72.9 -184.85 -72.9 -185.45 -17.05
Q -189.4 -22.8 -193.65 -28.05 -198.05 -33.35 -203.15 -37.55 -208.3 -41.7 -215.3 -43.3 -222.35 -44.75 -230.55 -44.75 -251.8 -44.75 -262.65 -30.7 -269.8 -21.3 -269.8 -11.2 -269.8 8.55 -255.3 22.9 -240.95 37.15 -221.45 37.15 -211.35 37.15 -202.4 32.9 -198.6 31.15 -184.85 22.5
L -183.95 72.6 -164.5 84.3 -164.5 9
Q -154.25 0.35 -143.95 -5.35 -133.55 -11.05 -127.85 -11.05 -120.4 -11.05 -115.7 -6.65 -111 -2.4 -111 5.5 -111 15 -116.6 27.6 -122.15 40.2 -130.95 52.2
L -113.8 67.75
Q -95.8 40.2 -95.8 22.2 -95.8 -3 -109.85 -18.25 -121 -30.25 -133 -30.25 -140.75 -30.25 -148.5 -26 -154.5 -22.8 -164.5 -15
L -164.5 -72.9 -57.4 -72.9 -57.4 72.6 -37.35 84.3 -37.35 -72.9 22.1 -72.9 22.1 -21.9
Q 22.1 -18.25 19.75 -18.25
L 4.35 -18.25
Q 2.6 -18.25 0.4 -16.05 -1.65 -13.7 -1.65 -11.05 -1.65 -3.9 10.65 8.7 13.3 11.5 19.6 17.8 27.8 25.25 30.45 25.25 35.3 25.25 38.65 21.45 42.15 17.8 42.15 12.65
L 42.15 -72.9
M -226.6 -26.15
Q -212.25 -26.15 -203.3 -20.9 -194.5 -15.6 -184.85 -2.15 -198.3 8.25 -210.75 14.3 -223.35 20.3 -232.6 20.3 -241.95 20.3 -248.25 14.85 -254.55 9.45 -254.55 0.2 -254.55 -12.4 -246.05 -19.25 -237.45 -26.15 -226.6 -26.15 Z"/>
</g>
</defs>

<g transform="matrix( 1, 0, 0, 1, 252.5,171.95) ">
<g transform="matrix( 0.5904541015625, 0, 0, 0.5904541015625, -1.85,2.15) ">
<g transform="matrix( 1, 0, 0, 1, 7.35,0) ">
<use xlink:href="#Duplicate_Items_Folder_Symbol_13_copy_1_Layer2_0_FILL"/>
</g>

<g transform="matrix( 1, 0, 0, 1, 0,0) ">
<use xlink:href="#Duplicate_Items_Folder_Symbol_13_copy_1_Layer1_0_FILL"/>
</g>
</g>
</g>
</svg>
