
<svg xmlns="http://www.w3.org/2000/svg" version="1.1" xmlns:xlink="http://www.w3.org/1999/xlink" preserveAspectRatio="none" x="0px" y="0px" width="505px" height="350px" viewBox="0 0 505 350">
<defs>
<g id="Duplicate_Items_Folder_Symbol_13_copy_0_Layer2_0_FILL">
<path fill="#666666" stroke="none" d="
M 49.5 -72.9
L 80.15 -72.9 80.15 72.3 99.6 84.3 99.6 -72.9 253.1 -72.9 253.1 -41.1 174.7 -41.1 171.8 -34.2
Q 188.35 -24.25 197.25 -15.6 210.15 -3 210.15 9 210.15 17.35 205.6 22.8 201.25 28.2 192.45 28.2 185.25 28.2 175.9 22.2 166.35 16.2 160.35 7.85 152.6 -3 148.65 -10.2 143.5 -19.4 138.55 -31.7
L 127.1 -27.05
Q 137.8 -3.9 145.4 8.4 156.7 27.6 168.4 36.85 182.6 48.25 199.05 48.25 210.15 48.25 219.4 41.1 229.95 33.05 229.95 20.15 229.95 9 223.35 -1.25 218.5 -8.7 205.05 -22.2
L 253.1 -22.2 253.1 72.6 273.45 84.3 273.45 -72.9 308 -72.9 297.75 -91.75 -292.5 -91.75 -281.95 -72.9 -177.5 -72.9 -178.1 -17.05
Q -182.05 -22.8 -186.3 -28.05 -190.7 -33.35 -195.8 -37.55 -200.95 -41.7 -207.95 -43.3 -215 -44.75 -223.2 -44.75 -244.45 -44.75 -255.3 -30.7 -262.45 -21.3 -262.45 -11.2 -262.45 8.55 -247.95 22.9 -233.6 37.15 -214.1 37.15 -204 37.15 -195.05 32.9 -191.25 31.15 -177.5 22.5
L -176.6 72.6 -157.15 84.3 -157.15 9
Q -146.9 0.35 -136.6 -5.35 -126.2 -11.05 -120.5 -11.05 -113.05 -11.05 -108.35 -6.65 -103.65 -2.4 -103.65 5.5 -103.65 15 -109.25 27.6 -114.8 40.2 -123.6 52.2
L -106.45 67.75
Q -88.45 40.2 -88.45 22.2 -88.45 -3 -102.5 -18.25 -113.65 -30.25 -125.65 -30.25 -133.4 -30.25 -141.15 -26 -147.15 -22.8 -157.15 -15
L -157.15 -72.9 -50.05 -72.9 -50.05 72.6 -30 84.3 -30 -72.9 29.45 -72.9 29.45 -21.9
Q 29.45 -18.25 27.1 -18.25
L 11.7 -18.25
Q 9.95 -18.25 7.75 -16.05 5.7 -13.7 5.7 -11.05 5.7 -3.9 18 8.7 20.65 11.5 26.95 17.8 35.15 25.25 37.8 25.25 42.65 25.25 46 21.45 49.5 17.8 49.5 12.65
L 49.5 -72.9
M -238.7 -19.25
Q -230.1 -26.15 -219.25 -26.15 -204.9 -26.15 -195.95 -20.9 -187.15 -15.6 -177.5 -2.15 -190.95 8.25 -203.4 14.3 -216 20.3 -225.25 20.3 -234.6 20.3 -240.9 14.85 -247.2 9.45 -247.2 0.2 -247.2 -12.4 -238.7 -19.25 Z"/>
</g>

<g id="Duplicate_Items_Folder_Symbol_13_copy_0_Layer2_1_FILL">
<path fill="#666666" stroke="none" d="
M 90.9 -138.8
L 112.4 -116.7 134.25 -138.2 112.4 -160.2 90.9 -138.8 Z"/>
</g>

<g id="Duplicate_Items_Folder_Symbol_13_copy_0_Layer1_0_FILL">
<path fill="#FFFFFF" stroke="none" d="
M 42.15 -72.9
L 72.8 -72.9 72.8 72.3 92.25 84.3 92.25 -72.9 245.75 -72.9 245.75 -41.1 167.35 -41.1 164.45 -34.2
Q 181 -24.25 189.9 -15.6 202.8 -3 202.8 9 202.8 17.35 198.25 22.8 193.9 28.2 185.1 28.2 177.9 28.2 168.55 22.2 159 16.2 153 7.85 145.25 -3 141.3 -10.2 136.15 -19.4 131.2 -31.7
L 119.75 -27.05
Q 130.45 -3.9 138.05 8.4 149.35 27.6 161.05 36.85 175.25 48.25 191.7 48.25 202.8 48.25 212.05 41.1 222.6 33.05 222.6 20.15 222.6 9 216 -1.25 211.15 -8.7 197.7 -22.2
L 245.75 -22.2 245.75 72.6 266.1 84.3 266.1 -72.9 300.65 -72.9 290.4 -91.75 -299.85 -91.75 -289.3 -72.9 -184.85 -72.9 -185.45 -17.05
Q -189.4 -22.8 -193.65 -28.05 -198.05 -33.35 -203.15 -37.55 -208.3 -41.7 -215.3 -43.3 -222.35 -44.75 -230.55 -44.75 -251.8 -44.75 -262.65 -30.7 -269.8 -21.3 -269.8 -11.2 -269.8 8.55 -255.3 22.9 -240.95 37.15 -221.45 37.15 -211.35 37.15 -202.4 32.9 -198.6 31.15 -184.85 22.5
L -183.95 72.6 -164.5 84.3 -164.5 9
Q -154.25 0.35 -143.95 -5.35 -133.55 -11.05 -127.85 -11.05 -120.4 -11.05 -115.7 -6.65 -111 -2.4 -111 5.5 -111 15 -116.6 27.6 -122.15 40.2 -130.95 52.2
L -113.8 67.75
Q -95.8 40.2 -95.8 22.2 -95.8 -3 -109.85 -18.25 -121 -30.25 -133 -30.25 -140.75 -30.25 -148.5 -26 -154.5 -22.8 -164.5 -15
L -164.5 -72.9 -57.4 -72.9 -57.4 72.6 -37.35 84.3 -37.35 -72.9 22.1 -72.9 22.1 -21.9
Q 22.1 -18.25 19.75 -18.25
L 4.35 -18.25
Q 2.6 -18.25 0.4 -16.05 -1.65 -13.7 -1.65 -11.05 -1.65 -3.9 10.65 8.7 13.3 11.5 19.6 17.8 27.8 25.25 30.45 25.25 35.3 25.25 38.65 21.45 42.15 17.8 42.15 12.65
L 42.15 -72.9
M -226.6 -26.15
Q -212.25 -26.15 -203.3 -20.9 -194.5 -15.6 -184.85 -2.15 -198.3 8.25 -210.75 14.3 -223.35 20.3 -232.6 20.3 -241.95 20.3 -248.25 14.85 -254.55 9.45 -254.55 0.2 -254.55 -12.4 -246.05 -19.25 -237.45 -26.15 -226.6 -26.15 Z"/>
</g>

<g id="Duplicate_Items_Folder_Symbol_13_copy_0_Layer1_1_FILL">
<path fill="#FFFFFF" stroke="none" d="
M 83.55 -138.8
L 105.05 -116.7 126.9 -138.2 105.05 -160.2 83.55 -138.8 Z"/>
</g>
</defs>

<g transform="matrix( 1, 0, 0, 1, 252.5,171.95) ">
<g transform="matrix( 0.5904541015625, 0, 0, 0.5904541015625, -2.4,2.15) ">
<g transform="matrix( 1, 0, 0, 1, 0,0) ">
<use xlink:href="#Duplicate_Items_Folder_Symbol_13_copy_0_Layer2_0_FILL"/>
</g>

<g transform="matrix( 1, 0, 0, 1, -21.65,0) ">
<use xlink:href="#Duplicate_Items_Folder_Symbol_13_copy_0_Layer2_1_FILL"/>
</g>

<g transform="matrix( 1, 0, 0, 1, 0,0) ">
<use xlink:href="#Duplicate_Items_Folder_Symbol_13_copy_0_Layer1_0_FILL"/>
</g>

<g transform="matrix( 1, 0, 0, 1, -21.65,0) ">
<use xlink:href="#Duplicate_Items_Folder_Symbol_13_copy_0_Layer1_1_FILL"/>
</g>
</g>
</g>
</svg>
