
<svg xmlns="http://www.w3.org/2000/svg" version="1.1" xmlns:xlink="http://www.w3.org/1999/xlink" preserveAspectRatio="none" x="0px" y="0px" width="505px" height="350px" viewBox="0 0 505 350">
<defs>
<g id="Duplicate_Items_Folder_Symbol_13_copy_2_Layer2_0_FILL">
<path fill="#666666" stroke="none" d="
M 19.35 -10.2
Q 14.2 -19.4 9.25 -31.7
L -2.2 -27.05
Q 8.5 -3.9 16.1 8.4 27.4 27.6 39.1 36.85 53.3 48.25 69.75 48.25 80.85 48.25 90.1 41.1 100.65 33.05 100.65 20.15 100.65 9 94.05 -1.25 89.2 -8.7 75.75 -22.2
L 123.8 -22.2 123.8 72.6 144.15 84.3 144.15 -72.9 201.95 -72.9 201.95 -21.9
Q 201.95 -18.25 199.6 -18.25
L 184.2 -18.25
Q 182.45 -18.25 180.25 -16.05 178.2 -13.7 178.2 -11.05 178.2 -3.9 190.5 8.7 193.15 11.5 199.45 17.8 207.65 25.25 210.3 25.25 215.15 25.25 218.5 21.45 222 17.8 222 12.65
L 222 -72.9 252.65 -72.9 252.65 72.3 272.1 84.3 272.1 -72.9 297.9 -72.9 287.65 -91.75 -292.5 -91.75 -281.95 -72.9 -177.5 -72.9 -178.1 -17.05
Q -182.05 -22.8 -186.3 -28.05 -190.7 -33.35 -195.8 -37.55 -200.95 -41.7 -207.95 -43.3 -215 -44.75 -223.2 -44.75 -244.45 -44.75 -255.3 -30.7 -262.45 -21.3 -262.45 -11.2 -262.45 8.55 -247.95 22.9 -233.6 37.15 -214.1 37.15 -204 37.15 -195.05 32.9 -191.25 31.15 -177.5 22.5
L -176.6 72.6 -157.15 84.3 -157.15 9
Q -146.9 0.35 -136.6 -5.35 -126.2 -11.05 -120.5 -11.05 -113.05 -11.05 -108.35 -6.65 -103.65 -2.4 -103.65 5.5 -103.65 15 -109.25 27.6 -114.8 40.2 -123.6 52.2
L -106.45 67.75
Q -88.45 40.2 -88.45 22.2 -88.45 -3 -102.5 -18.25 -113.65 -30.25 -125.65 -30.25 -133.4 -30.25 -141.15 -26 -147.15 -22.8 -157.15 -15
L -157.15 -72.9 -50.05 -72.9 -50.05 72.6 -30 84.3 -30 -72.9 123.8 -72.9 123.8 -41.1 45.4 -41.1 42.5 -34.2
Q 59.05 -24.25 67.95 -15.6 80.85 -3 80.85 9 80.85 17.35 76.3 22.8 71.95 28.2 63.15 28.2 55.95 28.2 46.6 22.2 37.05 16.2 31.05 7.85 23.3 -3 19.35 -10.2
M -238.7 -19.25
Q -230.1 -26.15 -219.25 -26.15 -204.9 -26.15 -195.95 -20.9 -187.15 -15.6 -177.5 -2.15 -190.95 8.25 -203.4 14.3 -216 20.3 -225.25 20.3 -234.6 20.3 -240.9 14.85 -247.2 9.45 -247.2 0.2 -247.2 -12.4 -238.7 -19.25 Z"/>
</g>

<g id="Duplicate_Items_Folder_Symbol_13_copy_2_Layer1_0_FILL">
<path fill="#FFFFFF" stroke="none" d="
M 38.05 -41.1
L 35.15 -34.2
Q 51.7 -24.25 60.6 -15.6 73.5 -3 73.5 9 73.5 17.35 68.95 22.8 64.6 28.2 55.8 28.2 48.6 28.2 39.25 22.2 29.7 16.2 23.7 7.85 15.95 -3 12 -10.2 6.85 -19.4 1.9 -31.7
L -9.55 -27.05
Q 1.15 -3.9 8.75 8.4 20.05 27.6 31.75 36.85 45.95 48.25 62.4 48.25 73.5 48.25 82.75 41.1 93.3 33.05 93.3 20.15 93.3 9 86.7 -1.25 81.85 -8.7 68.4 -22.2
L 116.45 -22.2 116.45 72.6 136.8 84.3 136.8 -72.9 194.6 -72.9 194.6 -21.9
Q 194.6 -18.25 192.25 -18.25
L 176.85 -18.25
Q 175.1 -18.25 172.9 -16.05 170.85 -13.7 170.85 -11.05 170.85 -3.9 183.15 8.7 185.8 11.5 192.1 17.8 200.3 25.25 202.95 25.25 207.8 25.25 211.15 21.45 214.65 17.8 214.65 12.65
L 214.65 -72.9 245.3 -72.9 245.3 72.3 264.75 84.3 264.75 -72.9 290.55 -72.9 280.3 -91.75 -299.85 -91.75 -289.3 -72.9 -184.85 -72.9 -185.45 -17.05
Q -189.4 -22.8 -193.65 -28.05 -198.05 -33.35 -203.15 -37.55 -208.3 -41.7 -215.3 -43.3 -222.35 -44.75 -230.55 -44.75 -251.8 -44.75 -262.65 -30.7 -269.8 -21.3 -269.8 -11.2 -269.8 8.55 -255.3 22.9 -240.95 37.15 -221.45 37.15 -211.35 37.15 -202.4 32.9 -198.6 31.15 -184.85 22.5
L -183.95 72.6 -164.5 84.3 -164.5 9
Q -154.25 0.35 -143.95 -5.35 -133.55 -11.05 -127.85 -11.05 -120.4 -11.05 -115.7 -6.65 -111 -2.4 -111 5.5 -111 15 -116.6 27.6 -122.15 40.2 -130.95 52.2
L -113.8 67.75
Q -95.8 40.2 -95.8 22.2 -95.8 -3 -109.85 -18.25 -121 -30.25 -133 -30.25 -140.75 -30.25 -148.5 -26 -154.5 -22.8 -164.5 -15
L -164.5 -72.9 -57.4 -72.9 -57.4 72.6 -37.35 84.3 -37.35 -72.9 116.45 -72.9 116.45 -41.1 38.05 -41.1
M -226.6 -26.15
Q -212.25 -26.15 -203.3 -20.9 -194.5 -15.6 -184.85 -2.15 -198.3 8.25 -210.75 14.3 -223.35 20.3 -232.6 20.3 -241.95 20.3 -248.25 14.85 -254.55 9.45 -254.55 0.2 -254.55 -12.4 -246.05 -19.25 -237.45 -26.15 -226.6 -26.15 Z"/>
</g>
</defs>

<g transform="matrix( 1, 0, 0, 1, 252.55,171.95) ">
<g transform="matrix( 0.5904541015625, 0, 0, 0.5904541015625, 0.55,2.15) ">
<g transform="matrix( 1, 0, 0, 1, 0,0) ">
<use xlink:href="#Duplicate_Items_Folder_Symbol_13_copy_2_Layer2_0_FILL"/>
</g>

<g transform="matrix( 1, 0, 0, 1, 0,0) ">
<use xlink:href="#Duplicate_Items_Folder_Symbol_13_copy_2_Layer1_0_FILL"/>
</g>
</g>
</g>
</svg>
