
<svg xmlns="http://www.w3.org/2000/svg" version="1.1" xmlns:xlink="http://www.w3.org/1999/xlink" preserveAspectRatio="none" x="0px" y="0px" width="870px" height="591px" viewBox="0 0 870 591">
<defs>
<g id="Duplicate_Items_Folder_Symbol_55_1_Layer2_0_FILL">
<path fill="#666666" stroke="none" d="
M 36.05 -17.4
Q 29.85 -20.55 24.5 -20.55 16.5 -20.55 9.5 -15.95 2.7 -11.5 -5.05 -1 -11.75 -9.25 -20.9 -18.45 -24.2 -21.6 -29.95 -23.8 -35.75 -25.9 -41.9 -25.9 -57.55 -25.9 -67.25 -13.05 -75.25 -2.3 -75.25 10.15 -75.25 31.95 -54.9 55.3 -38.1 74.6 -9.5 93.25
L -1.9 84.05
Q -34.45 65.55 -47.3 48.35 -57 35.1 -57 18.15 -57 5.05 -48.35 -2.8 -41.4 -9.25 -32.45 -9.25 -26.8 -9.25 -20 -4 -13.2 1.25 -9.35 7.15 -10.7 9 -12.65 12.55 -14.5 15.95 -16.7 20
L -1.9 30
Q 9 9 16.35 1.75 23.85 -5.45 33 -5.45 39.95 -5.45 46.55 -1
L 45.75 80.5 64 91 64 -49.8 101.15 -49.8 101.15 80.5 119.1 91 119.1 -49.8 240.2 -49.8 239.95 -4.15
Q 233.5 -14.1 223.8 -20 212.8 -26.7 198.85 -26.7 175.9 -26.7 162.25 -14.65 151 -4.65 151 7.95 151 24.6 165.95 38.8 180.9 52.8 202.4 52.8 226.7 52.8 240.2 38.1
L 240.2 80.5 258.2 91 258.2 -49.8 281 -49.8 272.2 -66.7 -282.75 -66.7 -273.7 -49.8 -180.55 -49.8 -180.55 -21.85 -223.55 -21.85
Q -236.05 -21.85 -244.95 -14.9 -255.6 -6.5 -255.6 9.5 -255.6 24.35 -246.8 41.9 -238.15 59.5 -216.1 86.95
L -206.4 78.95
Q -224.35 57.4 -231.7 44 -238.95 30.5 -238.95 19.5 -238.95 6.65 -232.35 0.85 -225.8 -4.9 -211.75 -4.9
L -179.5 -4.9 -180.55 80.5 -162.05 91 -162.05 -49.8 -125.15 -49.8 -125.15 80.5 -107.2 91 -107.2 -49.8 45.75 -49.8 45.75 -11.1
Q 42.2 -14.35 36.05 -17.4
M 191.5 -10.3
Q 199.8 -12.8 202.4 -13.2 204.9 -13.6 210 -13.6 219.1 -13.6 225.75 -7.7 233.5 -0.7 233.5 12 233.5 24.35 218.4 31.55
L 191.5 -10.3
M 200.7 39.05
Q 196.65 39.7 191.8 39.7 181.55 39.7 175.4 35.35 167.65 30 167.65 18.45 167.65 11.2 173 3.35 177.35 -3.1 182.6 -5.85
L 209.5 36.15
Q 204.65 38.4 200.7 39.05 Z"/>
</g>

<g id="Duplicate_Items_Folder_Symbol_55_1_Layer1_0_FILL">
<path fill="#FFFFFF" stroke="none" d="
M 36.05 -17.4
Q 29.85 -20.55 24.5 -20.55 16.5 -20.55 9.5 -15.95 2.7 -11.5 -5.05 -1 -11.75 -9.25 -20.9 -18.45 -24.2 -21.6 -29.95 -23.8 -35.75 -25.9 -41.9 -25.9 -57.55 -25.9 -67.25 -13.05 -75.25 -2.3 -75.25 10.15 -75.25 31.95 -54.9 55.3 -38.1 74.6 -9.5 93.25
L -1.9 84.05
Q -34.45 65.55 -47.3 48.35 -57 35.1 -57 18.15 -57 5.05 -48.35 -2.8 -41.4 -9.25 -32.45 -9.25 -26.8 -9.25 -20 -4 -13.2 1.25 -9.35 7.15 -10.7 9 -12.65 12.55 -14.5 15.95 -16.7 20
L -1.9 30
Q 9 9 16.35 1.75 23.85 -5.45 33 -5.45 39.95 -5.45 46.55 -1
L 45.75 80.5 64 91 64 -49.8 101.15 -49.8 101.15 80.5 119.1 91 119.1 -49.8 240.2 -49.8 239.95 -4.15
Q 233.5 -14.1 223.8 -20 212.8 -26.7 198.85 -26.7 175.9 -26.7 162.25 -14.65 151 -4.65 151 7.95 151 24.6 165.95 38.8 180.9 52.8 202.4 52.8 226.7 52.8 240.2 38.1
L 240.2 80.5 258.2 91 258.2 -49.8 281 -49.8 272.2 -66.7 -282.75 -66.7 -273.7 -49.8 -180.55 -49.8 -180.55 -21.85 -223.55 -21.85
Q -236.05 -21.85 -244.95 -14.9 -255.6 -6.5 -255.6 9.5 -255.6 24.35 -246.8 41.9 -238.15 59.5 -216.1 86.95
L -206.4 78.95
Q -224.35 57.4 -231.7 44 -238.95 30.5 -238.95 19.5 -238.95 6.65 -232.35 0.85 -225.8 -4.9 -211.75 -4.9
L -179.5 -4.9 -180.55 80.5 -162.05 91 -162.05 -49.8 -125.15 -49.8 -125.15 80.5 -107.2 91 -107.2 -49.8 45.75 -49.8 45.75 -11.1
Q 42.2 -14.35 36.05 -17.4
M 191.5 -10.3
Q 199.8 -12.8 202.4 -13.2 204.9 -13.6 210 -13.6 219.1 -13.6 225.75 -7.7 233.5 -0.7 233.5 12 233.5 24.35 218.4 31.55
L 191.5 -10.3
M 200.7 39.05
Q 196.65 39.7 191.8 39.7 181.55 39.7 175.4 35.35 167.65 30 167.65 18.45 167.65 11.2 173 3.35 177.35 -3.1 182.6 -5.85
L 209.5 36.15
Q 204.65 38.4 200.7 39.05 Z"/>
</g>
</defs>

<g transform="matrix( 1.1999969482421875, 0, 0, 1.1999969482421875, 435,293) ">
<g transform="matrix( 1, 0, 0, 1, -2.5,-14.5) ">
<g transform="matrix( 1, 0, 0, 1, 6.75,0) ">
<use xlink:href="#Duplicate_Items_Folder_Symbol_55_1_Layer2_0_FILL"/>
</g>

<g transform="matrix( 1, 0, 0, 1, 0,0) ">
<use xlink:href="#Duplicate_Items_Folder_Symbol_55_1_Layer1_0_FILL"/>
</g>
</g>
</g>
</svg>
