
<svg xmlns="http://www.w3.org/2000/svg" version="1.1" xmlns:xlink="http://www.w3.org/1999/xlink" preserveAspectRatio="none" x="0px" y="0px" width="290px" height="57px" viewBox="0 0 290 57">
<defs>
<g id="Mask_Symbol_55_2_3_MASK_0_FILL">
<path fill="#FFFFFF" stroke="none" d="
M 238.6 -150
Q 238.6 -161.4 230.5 -169.5 222.45 -177.55 211.05 -177.55
L -211.05 -177.55
Q -222.45 -177.55 -230.55 -169.5 -238.6 -161.4 -238.6 -150
L -238.6 150
Q -238.6 161.4 -230.55 169.45 -222.45 177.55 -211.05 177.55
L 211.05 177.55
Q 222.45 177.55 230.5 169.45 238.6 161.4 238.6 150
L 238.6 -150 Z"/>
</g>

<g id="Duplicate_Items_Folder_Symbol_69_7_Layer1_0_FILL">
<path fill="#000000" fill-opacity="0.8980392156862745" stroke="none" d="
M 3.35 -4.8
Q 2.7 -4.1 2.7 -3.3 2.7 -1.15 6.4 2.6 7.2 3.45 9.1 5.35 11.55 7.6 12.35 7.6 13.8 7.6 14.8 6.45 15.85 5.35 15.85 3.8
L 15.85 -21.85 25.05 -21.85 25.05 21.7 29 24.1
Q 27.7796875 23.75 26.7 23.75 22.9 23.75 20 26.4 17.05 29.1 17.05 33.75 17.05 37.1 20.55 40.65 23.95 44.2 27.65 44.2 31.1 44.2 33.75 43.1 35.4 42.5 36.95 41.6
L 33.75 36.65
Q 32.25 37.8 29.75 38.9 27.3 40.05 25.5 40.05 23.8 40.05 22.75 38.9 21.65 37.8 21.65 36 21.65 32.7 23.5 30.75 25.3 28.8 27.4 28.8 31.65 28.8 36.3 32.6 40.1 35.65 51.1 47.2
L 53.45 44.65
Q 39.3 30.95 34.65 27.35 32.6556640625 25.7892578125 30.9 24.9
L 30.9 -21.85 51.15 -21.85
Q 51.15 -21.25 51.45 -19.7 51.5 -18.5 51.5 -15.85 51.5 -7.75 51.2 -5.45 50.9 -3.15 50.25 -3.15 49.8 -3.15 47.15 -4.65 44.4 -6.1 43.95 -6.1 42.85 -6.1 42 -4.95 41.05 -3.8 41.05 -2.6 41.05 -1.75 41.9 -0.2 43.05 1.95 45.6 5.15 48.95 9.3 54.3 15.15 59.6 21 64.5 26.05
L 67.25 22.8
Q 63.2 18.75 59.15 14.7 51 6.4 51 5.7 51 5.05 51.5 4.55 51.95 4.05 54.05 2.7 55.4 1.9 56.5 -0.2 57.65 -2.3 57.65 -4.5
L 57.65 -21.85 69.65 -21.85 66.65 -27.5 -29.85 -27.5 -27 -21.85 -14.8 -21.85 -14.8 -5.55
Q -15.6 -4.45 -18.6 -3.2 -21.55 -1.95 -23.3 -1.95 -28.9 -1.95 -35.85 -7.25 -33.9 -8.25 -32.55 -10.35 -31.2 -12.4 -31.2 -14.55 -31.2 -16.8 -32.2 -18.9 -33.15 -20.95 -35.7 -23.35 -38.3 -25.75 -41.4 -27.05 -44.4 -28.35 -46.3 -28.35 -48.55 -28.35 -51.55 -27.4 -54.55 -26.4 -57.55 -24.85
L -55.6 -20.6
Q -54.8 -19.4 -53.95 -19.4 -51.1 -20.9 -48.1 -22.5 -45.15 -23.85 -42.7 -23.85 -40.05 -23.85 -38.3 -22.25 -36.6 -20.6 -36.6 -17.65 -36.6 -14.5 -38.95 -11.95 -40.8 -10 -42.2 -10 -42.9 -10 -46.15 -9.55 -49.4 -9.05 -50.2 -9.05 -51.9 -9.05 -51.9 -7.3 -51.9 -6.4 -49.15 -3.7 -47.85 -2.35 -47.3 -2.35 -46.65 -2.35 -43.35 -3.6 -41.6 -4.25 -38.6 -5.4 -36.2 -4.7 -34.75 -2.75 -33.25 -0.8 -33.25 2.05 -33.25 6.05 -36 8.95 -38.75 11.9 -43.05 11.9 -48.3 11.9 -52.25 8.2 -56.25 4.5 -59.7 -3.4
L -62.55 -1.85
Q -58.15 7.7 -52.85 12.6 -47.6 17.55 -41.45 17.55 -35.4 17.55 -31.6 14.25 -27.75 10.95 -27.75 5.3 -27.75 2.6 -29.3 0.1
L -29.15 0.1
Q -27.15 1.65 -24.85 2.3 -22.65 3 -21 3 -19.6 3 -17.8 2.75 -16 2.55 -14.45 1.9
L -14.8 21.8 -8.5 25.3 -8.5 -21.85 9.85 -21.85 9.85 -6.55
Q 9.85 -5.45 9.15 -5.45
L 4.5 -5.45
Q 4 -5.45 3.35 -4.8
M -3.35 -41.45
L -9.9 -48.05 -16.35 -41.65 -9.9 -35 -3.35 -41.45 Z"/>
</g>
</defs>

<g transform="matrix( 0.549713134765625, 0, 0, 0.549713134765625, 144.8,-36.1) ">
<mask id="Mask_Mask_1">
<g transform="matrix( 1, 0, 0, 1, 0,0) ">
<use xlink:href="#Mask_Symbol_55_2_3_MASK_0_FILL"/>
</g>
</mask>

<g mask="url(#Mask_Mask_1)"/>

<g mask="url(#Mask_Mask_1)">
<g transform="matrix( 1, 0, 0, 1, 4.4,119.55) ">
<g transform="matrix( 1, 0, 0, 1, 0,0) ">
<use xlink:href="#Duplicate_Items_Folder_Symbol_69_7_Layer1_0_FILL"/>
</g>
</g>
</g>
</g>
</svg>
