
<svg xmlns="http://www.w3.org/2000/svg" version="1.1" xmlns:xlink="http://www.w3.org/1999/xlink" preserveAspectRatio="none" x="0px" y="0px" width="290px" height="57px" viewBox="0 0 290 57">
<defs>
<g id="Mask_Symbol_55_2_3_MASK_0_FILL">
<path fill="#FFFFFF" stroke="none" d="
M 238.6 -150
Q 238.6 -161.4 230.5 -169.5 222.45 -177.55 211.05 -177.55
L -211.05 -177.55
Q -222.45 -177.55 -230.55 -169.5 -238.6 -161.4 -238.6 -150
L -238.6 150
Q -238.6 161.4 -230.55 169.45 -222.45 177.55 -211.05 177.55
L 211.05 177.55
Q 222.45 177.55 230.5 169.45 238.6 161.4 238.6 150
L 238.6 -150 Z"/>
</g>

<g id="Duplicate_Items_Folder_Symbol_69_3_Layer1_0_FILL">
<path fill="#000000" fill-opacity="0.8980392156862745" stroke="none" d="
M 18.3 -48.05
L 11.85 -41.65 18.3 -35 24.85 -41.45 18.3 -48.05
M 6.45 -35.15
Q 8 -31.3 9.65 -27.5
L -60.25 -27.5 -57.1 -21.85 -10.7 -21.85 -10.7 -8.9
Q -11.9 -10 -13.95 -11 -16.05 -12.05 -17.85 -12.05 -20.5 -12.05 -22.85 -10.5 -25.15 -9 -27.7 -5.5 -29.95 -8.25 -33.05 -11.35 -34.15 -12.4 -36.05 -13.15 -38 -13.85 -40.05 -13.85 -45.3 -13.85 -48.55 -9.55 -51.25 -5.95 -51.25 -1.75 -51.25 5.5 -44.4 13.35 -38.8 19.8 -29.2 26.05
L -26.65 22.95
Q -37.55 16.75 -41.9 11 -45.15 6.6 -45.15 0.9 -45.15 -3.5 -42.25 -6.1 -39.9 -8.25 -36.9 -8.25 -35 -8.25 -32.75 -6.5 -30.45 -4.75 -29.15 -2.8 -29.6 -2.15 -30.25 -1 -30.9 0.15 -31.65 1.55
L -26.65 4.85
Q -23 -2.15 -20.55 -4.6 -18.05 -7 -15 -7 -12.65 -7 -10.45 -5.5
L -10.7 21.8 -4.6 25.3 -4.6 -21.85 7.65 -21.85 7.65 21.8 13.85 25.3 13.85 -21.85 32.25 -21.85 32.25 -6.55
Q 32.25 -5.45 31.55 -5.45
L 26.9 -5.45
Q 26.4 -5.45 25.75 -4.8 25.1 -4.1 25.1 -3.3 25.1 -1.15 28.8 2.6 29.6 3.45 31.5 5.35 33.95 7.6 34.75 7.6 36.2 7.6 37.2 6.45 38.25 5.35 38.25 3.8
L 38.25 -21.85 47.45 -21.85 47.45 21.7 53.3 25.3 53.3 -21.85 61 -21.85 57.95 -27.5 12.15 -27.5
Q 11.7 -29.25 8.45 -36.75 5.25 -44.25 3.6 -46.75 2 -49.25 -0.35 -50.35 -2.65 -51.45 -4.8 -51.45 -6.45 -51.45 -7.4 -51.35 -8.4 -51.2 -8.4 -50.85 -8.25 -50.35 -6.2 -46.9 -5.55 -45.7 -4.1 -43.45 -3.6 -43.75 -3.05 -44.1 -2.3 -44.1 -1.7 -44.1 -0.5 -44.1 1.3 -42.85 3.1 -41.65 4.15 -39.85 5.25 -38.05 6.45 -35.15 Z"/>
</g>
</defs>

<g transform="matrix( 0.549713134765625, 0, 0, 0.549713134765625, 144.8,-36.1) ">
<mask id="Mask_Mask_1">
<g transform="matrix( 1, 0, 0, 1, 0,0) ">
<use xlink:href="#Mask_Symbol_55_2_3_MASK_0_FILL"/>
</g>
</mask>

<g mask="url(#Mask_Mask_1)"/>

<g mask="url(#Mask_Mask_1)">
<g transform="matrix( 1, 0, 0, 1, 4.4,119.55) ">
<g transform="matrix( 1, 0, 0, 1, -0.35,0) ">
<use xlink:href="#Duplicate_Items_Folder_Symbol_69_3_Layer1_0_FILL"/>
</g>
</g>
</g>
</g>
</svg>
