
<svg xmlns="http://www.w3.org/2000/svg" version="1.1" xmlns:xlink="http://www.w3.org/1999/xlink" preserveAspectRatio="none" x="0px" y="0px" width="278px" height="216px" viewBox="0 0 278 216">
<defs>
<g id="Layer0_0_FILL">
<path fill="#000000" stroke="none" d="
M 220.75 69
L 220.75 61 131.8 61 131.8 69 150.65 69 150.65 108.7 148.05 109.75 141.3 111.45 132.25 111.45 125.7 108.9 114.15 102.9 112.35 102.5 111.4 102.7
Q 122.45 96.45 122.45 84.15 122.45 74.7 116.45 68.25 109.2 61 99.9 61 87.6 61 78 68.9
L 71.6 74.25
Q 70.2 75.6 69.9 75.95 69.6 76.35 69.4 77
L 77.05 83.1 80.95 78.9 88.2 72.8
Q 94.2 69 99.15 69 102.35 69 105.9 70.35 111.4 72.9 112.55 78.25 113.3 80.35 113.3 84.15 113.3 88.25 111.15 91.95 106.25 99.4 97.3 101.75 96.35 101.95 93.6 102.5 91.3 102.5 88.95 102.5
L 92.25 109.75 94.35 109.75
Q 96.2 108.6 98.55 108.6
L 101.9 108.6
Q 107.5 108.6 113.2 111.65 118.85 114.6 120.25 119.95 121.4 122.05 121.6 123.45 121.8 124.8 121.8 127.95 121.8 131 120.45 134.5 115.5 145.45 106.55 145.45 93.5 145.45 81.6 127.65
L 76.75 120.4 70.65 109.75 62.65 115
Q 62.65 120.25 75.35 135.1 82.85 144.15 90.45 148.6 94.75 151.1 98.25 152.15 101.9 153.1 106 153.1
L 111.4 153.1
Q 131.5 149.2 131.5 128.4
L 131.5 124.05 130.35 119.55 128.95 116.15 131.1 117.2 137.2 118.9 144.85 118.9 150.65 117.4 150.65 161.65 160.55 161.65 160.55 69 191.45 69 191.45 161.65 201.8 161.65 201.8 69 220.75 69 Z"/>
</g>
</defs>

<g transform="matrix( 1, 0, 0, 1, -0.6,-1.45) ">
<g transform="matrix( 1, 0, 0, 1, 0,0) ">
<use xlink:href="#Layer0_0_FILL"/>
</g>
</g>
</svg>
