
<svg xmlns="http://www.w3.org/2000/svg" version="1.1" xmlns:xlink="http://www.w3.org/1999/xlink" preserveAspectRatio="none" x="0px" y="0px" width="1920px" height="1080px" viewBox="0 0 1920 1080">
<defs>
<g id="Symbol_1_2_Layer1_0_FILL">
<path fill="#FFFFFF" stroke="none" d="
M -396.35 -34.75
L -396.35 -28.8 -362.15 -28.8 -362.15 -3.5 -363.15 -1.45
Q -363.8 -0.45 -365.05 -0.05
L -368.35 0.4
Q -374.35 0.4 -376.95 -4.7
L -381.2 -12.85 -387.5 -8.8 -378.25 7.05 -360.55 32.75
Q -356.2 39.25 -353.6 40.1
L -347.75 35.15 -357.65 24.15 -361.55 19.05 -370.5 5.5
Q -369.4 6.05 -368.45 6.05
L -366.85 6.2 -365.45 5.95
Q -364.95 5.5 -363.65 5.5
L -360.55 4.65
Q -356.6 2.85 -355.65 -0.1
L -354.8 -3.3 -354.8 -28.8 -327.55 -28.8 -327.55 -3.5 -353.05 -3.5 -347.95 2.45 -327.55 2.45 -327.55 40.1 -319.85 40.1 -319.85 -28.8 -263.05 -28.8 -263.05 -16.2 -293.65 -16.2 -296.25 -15.75 -298.35 -14.65 -300 -12.65 -300.45 -10.1 -298.95 -4.7
Q -298.1 -2.05 -295.35 1.6
L -290.35 7.3 -293.85 10.8
Q -295.45 12.35 -296.6 14.25 -298.95 18 -298.95 21.55 -298.95 34.85 -280.25 41.3
L -274.8 43.15
Q -268 45.5 -263.55 45.5 -261.55 45.2 -261 44.9
L -258.25 39.7
Q -258.35 39.7 -258.65 39.7 -258.95 39.7 -259.65 39.7
L -262.95 39.7 -275.15 36.65
Q -282.95 34.45 -287.05 30.6 -290.95 26.7 -290.95 22.45 -290.95 19.3 -289.65 16.6 -286 8.15 -272.55 8.15
L -266.65 8.75
Q -258.25 9.8 -258.25 17.3 -258.65 20.9 -260.7 23.1
L -261.15 23.55 -261.7 23.8 -262.35 24.25 -263.05 24.6 -257.65 28.9 -253.55 25.85
Q -251.85 24.1 -251.15 22.2 -250.5 20.2 -250.5 17.3 -250.5 13.95 -252 10.8 -254.9 5.55 -263.05 3.35 -265.75 2.8 -267.7 2.65 -269.7 2.5 -272.05 2.5
L -275.35 2.5 -284.2 4.25 -285.2 3.7 -289.25 -1.4 -289.8 -2.5
Q -291.45 -4.15 -291.7 -5.55
L -292.3 -8.05 -291.7 -9.4
Q -291.15 -10.1 -289.8 -10.1
L -255.3 -10.1 -255.3 -28.8 -231 -28.8 -231 40.1 -223.45 40.1 -223.45 -28.8 -211.25 -28.8 -211.25 -34.6 -225.05 -34.6 -230.25 -43.75 -234.5 -50.25
Q -239.1 -57.3 -245.95 -62 -251.55 -65.9 -256.65 -65.9 -268.55 -65.9 -272.8 -53.55 -273.75 -50.65 -273.9 -49.7 -274.05 -48.6 -274.05 -46.5
L -274.05 -43.15 -273 -40 -271.5 -37.05 -269.75 -34.75 -396.35 -34.75
M -263.7 -56.6
Q -261.1 -60.2 -256.4 -60.2 -251.2 -60.2 -244.25 -52.1 -232.55 -38.7 -232.55 -35.15
L -232.7 -34.6 -240.8 -34.6 -240.8 -34.75 -261.25 -34.75 -262.15 -36 -264 -39.7
Q -264.5 -40.55 -264.85 -41.6 -265.2 -42.75 -265.7 -44.3 -266.2 -45.9 -266.2 -47.75
L -266.2 -50.5
Q -265.05 -54.55 -263.7 -56.6
M 381.05 -60.35
L 381.05 -50.95 391.05 -50.95 391.05 -60.35 381.05 -60.35
M 83 -28.8
L 94.35 -28.8 94.35 -1.95
Q 94.35 1.5 95.75 5.9 101.85 18.2 114.45 18.2 120.4 18.2 125.5 14.75
L 129.95 11.2 129.95 40.1 137.65 40.1 137.65 -28.8 194.15 -28.8 194.15 -16.2 163.55 -16.2 160.95 -15.75 158.85 -14.65 157.2 -12.65 156.75 -10.1 158.25 -4.7
Q 159.1 -2.05 161.85 1.6
L 166.85 7.3 163.35 10.8
Q 161.75 12.35 160.6 14.25 158.25 18 158.25 21.55 158.25 34.85 176.95 41.3
L 182.4 43.15
Q 189.2 45.5 193.65 45.5 195.65 45.2 196.2 44.9
L 198.95 39.7
Q 198.85 39.7 198.55 39.7 198.25 39.7 197.55 39.7
L 194.25 39.7 182.05 36.65
Q 174.25 34.45 170.15 30.6 166.25 26.7 166.25 22.45 166.25 19.3 167.55 16.6 171.2 8.15 184.65 8.15
L 190.55 8.75
Q 198.95 9.8 198.95 17.3 198.55 20.9 196.5 23.1
L 196.05 23.55 195.5 23.8 194.85 24.25 194.15 24.6 199.55 28.9 203.65 25.85
Q 205.35 24.1 206.05 22.2 206.7 20.2 206.7 17.3 206.7 13.95 205.2 10.8 202.3 5.55 194.15 3.35 191.45 2.8 189.5 2.65 187.5 2.5 185.15 2.5
L 181.85 2.5 173 4.25 172 3.7 167.95 -1.4 167.4 -2.5
Q 165.75 -4.15 165.5 -5.55
L 164.9 -8.05 165.5 -9.4
Q 166.05 -10.1 167.4 -10.1
L 201.9 -10.1 201.9 -28.8 274.6 -28.8 274.6 1.65
Q 274.6 3.55 270.75 7.75
L 267.7 10.65
Q 258.95 18.8 250.6 18.8
L 246.6 18.2
Q 240.9 15.75 240.9 8.5 240.9 1.85 248 -3.95
L 255.1 -9.2 264.8 -9.2 264.8 -15.1 220.55 -15.1 220.55 -9.2 244.3 -9.05
Q 242.2 -7.75 240.55 -6.15 233.35 1.1 233.35 8.8 233.35 12.4 234.7 15.55 236.1 18.65 238.3 20.55 243.05 24.75 250.25 24.75 254.1 24.75 258.4 22.95 264.2 20.7 267.1 18.35
L 272.3 14.1 274.6 11.2 274.6 40.1 282.35 40.1 282.35 -28.8 304.65 -28.8 304.65 40.1 312.4 40.1 312.4 -28.8 376.75 -28.8 376.75 -8.75 335.2 -8.75 333.9 -8.35
Q 331.55 -6.5 331.55 -3.95 332 -2.25 333.35 -0.05 335.75 3.85 337.95 6.35
L 343.3 11.9
Q 345.65 13.85 346.5 13.85
L 348.2 13.85
Q 349.4 12.7 349.55 12.4 349.7 12.2 349.7 11.5
L 349.7 -2.95 376.75 -2.95 376.75 40.1 384.45 40.1 384.45 -28.8 396.35 -28.8 396.35 -34.75 381.95 -34.75 352.2 -71.25 347.15 -65.75 377.15 -34.75 83 -34.75 83 -28.8
M 101.7 -0.95
L 101.7 -28.8 129.95 -28.8 129.95 2.6 125.75 7.6 123 9.8
Q 118.45 12.55 114.15 12.55
L 109.85 11.85
Q 101.7 7.3 101.7 -0.95
M 19.15 -28.8
L 29.65 -28.8 29.65 -34.75 -70.5 -34.75 -78.9 -43.15 -89.35 -51.85
Q -93.8 -55.5 -99.45 -58.95 -113.2 -67.4 -124.15 -67.4 -128.85 -67.4 -133.3 -65.75 -139.5 -63.15 -143.4 -57.75 -145.45 -55 -146.1 -52.35 -146.75 -49.75 -146.75 -45.8
L -146.75 -43.5 -144.5 -34.6 -157.65 -34.6 -157.65 -28.8 -144.9 -28.8 -144.9 40.1 -137.2 40.1 -137.2 -28.8 -65.2 -28.8 -65.2 1.65
Q -65.2 3.55 -69.05 7.75
L -72.1 10.65
Q -80.85 18.8 -89.2 18.8
L -93.2 18.2
Q -98.9 15.75 -98.9 8.5 -98.9 1.85 -91.8 -3.95
L -84.7 -9.2 -75 -9.2 -75 -15.1 -119.25 -15.1 -119.25 -9.2 -95.5 -9.05
Q -97.6 -7.75 -99.25 -6.15 -106.45 1.1 -106.45 8.8 -106.45 12.4 -105.1 15.55 -103.7 18.65 -101.5 20.55 -96.75 24.75 -89.55 24.75 -85.7 24.75 -81.4 22.95 -75.6 20.7 -72.7 18.35
L -67.5 14.1 -65.2 11.2 -65.2 40.1 -57.45 40.1 -57.45 -28.8 11.65 -28.8 11.65 3.85 1.4 -7
Q -6.9 -15.25 -11.15 -15.25 -13.1 -15.25 -15.6 -14.4
L -35.5 -6.65 -39.95 -4.15 -35.5 1.65 -25.8 -3.45
Q -17.2 -7.9 -11.85 -7.9 -8.35 -7.9 0.1 0.4
L 8.4 8.3 -27.5 27.05 -22.95 33.65 11.65 13 11.65 39.95 19.15 40.1 19.15 -28.8
M -114.75 -59.15
Q -108.95 -57.25 -104.4 -54.2
L -92.35 -45.9
Q -89.8 -44 -87.2 -41.4
L -80.05 -34.75 -126.35 -34.75 -126.35 -34.6 -137.2 -34.6 -137.9 -35.75 -139.8 -41.8 -139.8 -44.7
Q -139.8 -48 -138.8 -51.6 -135.75 -58.25 -130.55 -60 -128.2 -61.15 -124.75 -61.15 -120.55 -61.15 -114.75 -59.15 Z"/>
</g>
</defs>

<g transform="matrix( 1, 0, 0, 1, 960,540) ">
<g transform="matrix( 1, 0, 0, 1, 0,0) ">
<use xlink:href="#Symbol_1_2_Layer1_0_FILL"/>
</g>
</g>
</svg>
