
<svg xmlns="http://www.w3.org/2000/svg" version="1.1" xmlns:xlink="http://www.w3.org/1999/xlink" preserveAspectRatio="none" x="0px" y="0px" width="278px" height="216px" viewBox="0 0 278 216">
<defs>
<g id="Symbol_4_3_Layer0_0_FILL">
<path fill="#000000" stroke="none" d="
M 119.9 71.3
Q 114 65.6 107.05 65 104.45 64.05 99.45 64.05 87.9 64.05 79.9 70.85 71.9 77.5 70.1 89.2
L 82 91.4
Q 84 81.6 87.9 78.25 92.2 73.95 99.8 73.95 112.1 73.95 114.45 83.1 115.6 86.35 115.6 89.1 115.6 93 114.1 96.05 111.5 101.1 102.95 104.45
L 99.45 105.2 93.7 105.2 92.4 115.95 96.85 114.9
Q 98 114.55 100.95 114.55
L 105.05 114.9 108.55 115.95 111.7 117.7 114.85 120.05
Q 117.35 121.75 118.55 125.85 120.1 129.6 120.1 133.65 120.1 142.25 114.3 148.15 108.4 153.95 100 153.95
L 93.35 153
Q 86.1 149.5 84 144.45 81.8 140.55 80.85 134.45
L 68.75 136.35
Q 69.9 145.95 75.05 152.35 83.8 163.65 100 163.65 114.4 163.65 123.7 154.8 132.95 145.95 132.95 133.3 132.95 118.05 122.2 112.45 119.7 110.25 114.55 109.1
L 120.2 105.6
Q 126 100.15 126.95 95.5 127.9 92.9 127.9 89.4
L 127.9 86.05 125.5 78.9
Q 124.2 76.75 122.55 74.55 120.85 72.25 119.9 71.3
M 185.25 97.8
Q 182.7 97.4 179 97.4
L 173.95 97.4 169.45 98.65 164.9 100.75 160.6 103.3 165.95 77.1 204.7 77.1 204.7 65.6 156.15 65.6 146.8 115.75 158.15 117.3 159.45 115.4 161.2 113.6 165.3 110.65
Q 168.8 107.95 173.45 107.95
L 175.85 107.95
Q 182.05 107.95 187.75 111.7 193.35 115.4 195.2 121.2 196.7 124.55 196.7 130.15 196.7 140.35 190.7 147.5 183.25 153.95 176.05 153.95 172.35 153.95 169.35 152.8 159.1 149.3 157.3 135.4
L 144.6 136.35
Q 146.25 149.2 154.5 156.35 162.8 163.45 176.05 163.45 192.25 163.45 201.55 151.95 209.35 142.45 209.35 129 209.35 122.15 207.15 116.15 202.15 104.05 191.85 99.75 187.95 98.15 185.25 97.8 Z"/>
</g>
</defs>

<g transform="matrix( 1, 0, 0, 1, -0.6,-1.45) ">
<g transform="matrix( 1, 0, 0, 1, 0,0) ">
<use xlink:href="#Symbol_4_3_Layer0_0_FILL"/>
</g>
</g>
</svg>
