
<svg xmlns="http://www.w3.org/2000/svg" version="1.1" xmlns:xlink="http://www.w3.org/1999/xlink" preserveAspectRatio="none" x="0px" y="0px" width="690px" height="549px" viewBox="0 0 690 549">
<defs>
<g id="Layer0_0_STROKES_1_FILL">
<path fill="#000000" stroke="none" d="
M 437.55 259.5
Q 437.1392578125 259.503515625 436.85 259.8 436.6951171875 259.92734375 436.55 260.2 436.4138671875 260.4869140625 436.45 260.8 436.524609375 261.11875 436.75 261.35 436.8 261.4 436.85 261.45 437.1392578125 261.746484375 437.55 261.75 437.9607421875 261.746484375 438.25 261.45 438.546484375 261.1607421875 438.55 260.75 438.55 260.65 438.55 260.5 438.546484375 260.0892578125 438.25 259.8 437.9607421875 259.503515625 437.55 259.5
M 438.15 260.05
L 438.35 261.1 438.25 261.2 436.85 260.6 438.15 260.05 Z"/>
</g>

<g id="Symbol_1_5_Layer2_0_FILL">
<path fill="#000000" fill-opacity="0.4" stroke="none" d="
M -12.1 -23.75
Q -18.05 -18.3 -18.85 -8.65
L -9.9 -7.55
Q -9.9 -10.55 -8.9 -13.5 -5.8 -21.95 4.1 -21.95 10.5 -21.95 13.95 -18.2 17.45 -14.35 17.45 -9.55
L 17.45 -6.85
Q 16.25 -2.4 13.4 1.3
L 7.2 7.85 -9.15 21.95 -13.7 26.95
Q -18.3 32.4 -19.45 36.35
L -20.35 39.35
Q -20.6 40.05 -20.6 42.35
L 26.55 42.35 26.55 33.95 -8.5 33.95 -4.8 29.35 13.15 13.55 20.6 5.75 24.85 -1.3 25.6 -3.2
Q 26.15 -4.25 26.15 -5.1
L 26.45 -9.35
Q 26.45 -18.05 20.25 -23.6 14.05 -29.2 4.25 -29.2 -6.2 -29.2 -12.1 -23.75 Z"/>
</g>

<g id="Symbol_1_5_Layer1_0_FILL">
<path fill="#000000" stroke="none" d="
M -16.3 -26.75
Q -22.25 -21.3 -23.05 -11.65
L -14.1 -10.55
Q -14.1 -13.55 -13.1 -16.5 -10 -24.95 -0.1 -24.95 6.3 -24.95 9.75 -21.2 13.25 -17.35 13.25 -12.55
L 13.25 -9.85
Q 12.05 -5.4 9.2 -1.7
L 3 4.85 -13.35 18.95 -17.9 23.95
Q -22.5 29.4 -23.65 33.35
L -24.55 36.35
Q -24.8 37.05 -24.8 39.35
L 22.35 39.35 22.35 30.95 -12.7 30.95 -9 26.35 8.95 10.55 16.4 2.75 20.65 -4.3 21.4 -6.2
Q 21.95 -7.25 21.95 -8.1
L 22.25 -12.35
Q 22.25 -21.05 16.05 -26.6 9.85 -32.2 0.05 -32.2 -10.4 -32.2 -16.3 -26.75 Z"/>
</g>

<path id="Blank_P6_0_Layer0_0_1_STROKES" stroke="#000000" stroke-width="2" stroke-linejoin="round" stroke-linecap="round" fill="none" d="
M -153.3 3.2
Q -137.8 -22.15 -115.35 -44.55 -42.4 -117.55 60.8 -117.55 62.6 -117.55 64.3 -117.5 148.3 0.4 153.35 117.55 38.3 36.15 -153.3 3.2 Z"/>

<path id="Symbol_1_5_Layer1_0_1_STROKES" stroke="#FFFFFF" stroke-width="1" stroke-linejoin="round" stroke-linecap="round" fill="none" d="
M 22.35 39.35
L -24.8 39.35
Q -24.8 37.05 -24.55 36.35
L -23.65 33.35
Q -22.5 29.4 -17.9 23.95
L -13.35 18.95 3 4.85 9.2 -1.7
Q 12.05 -5.4 13.25 -9.85
L 13.25 -12.55
Q 13.25 -17.35 9.75 -21.2 6.3 -24.95 -0.1 -24.95 -10 -24.95 -13.1 -16.5 -14.1 -13.55 -14.1 -10.55
L -23.05 -11.65
Q -22.25 -21.3 -16.3 -26.75 -10.4 -32.2 0.05 -32.2 9.85 -32.2 16.05 -26.6 22.25 -21.05 22.25 -12.35
L 21.95 -8.1
Q 21.95 -7.25 21.4 -6.2
L 20.65 -4.3 16.4 2.75 8.95 10.55 -9 26.35 -12.7 30.95 22.35 30.95 22.35 39.35 Z"/>
</defs>

<g transform="matrix( 1, 0, 0, 1, 0,0) ">
<use xlink:href="#Layer0_0_STROKES_1_FILL"/>
</g>

<g transform="matrix( 1, 0, 0, 1, 284.2,142.95) ">
<g transform="matrix( 1, 0, 0, 1, 0,0) ">
<use xlink:href="#Blank_P6_0_Layer0_0_1_STROKES"/>
</g>

<g transform="matrix( 1, 0, 0, 1, 41.5,-29.8) ">
<g transform="matrix( 1, 0, 0, 1, 0,0) ">
<use xlink:href="#Symbol_1_5_Layer2_0_FILL"/>
</g>

<g transform="matrix( 1, 0, 0, 1, 0,0) ">
<use xlink:href="#Symbol_1_5_Layer1_0_FILL"/>

<use xlink:href="#Symbol_1_5_Layer1_0_1_STROKES"/>
</g>
</g>
</g>
</svg>
