
<svg xmlns="http://www.w3.org/2000/svg" version="1.1" xmlns:xlink="http://www.w3.org/1999/xlink" preserveAspectRatio="none" x="0px" y="0px" width="690px" height="549px" viewBox="0 0 690 549">
<defs>
<g id="Symbol_1_0_Layer2_0_FILL">
<path fill="#000000" fill-opacity="0.4" stroke="none" d="
M 13.95 -0.05
Q 18.95 -6.3 24.8 -6.3 31.6 -6.3 34.15 -1.3 35.55 1.6 35.55 5.65 35.55 8.5 34.05 12.45 30.75 19.85 24.8 25.85 23.45 27.1 22.5 27.45
L 28.6 32.1 36.05 23.55
Q 43.45 14.3 43.45 6.2 43.45 -1.8 37.85 -6.75 31.9 -12.15 23.95 -12.15 18.4 -12.15 13.95 -8.7
L 9.7 -4.85 9.7 -26.35 50.75 -26.35 50.75 -32.2 -41.25 -32.2 -41.25 -26.35 2.25 -26.35 2.25 9.15
Q 2.25 11.85 -0.75 14.85 -6.05 20.15 -11.1 20.15 -13.4 20.15 -16.4 19.15 -23.35 15.6 -23.35 6.65 -23.35 0.8 -19.95 -3.55 -16.55 -7.75 -10.55 -7.75
L -8.4 -7.75 -6.3 -6.95 -5.55 -6.3 -4.15 -5.95 -4.15 -12.15
Q -5.15 -12.8 -8 -13.15
L -11.9 -13.5 -15.7 -13.05
Q -21.4 -11.75 -25.65 -7.9 -31.5 -2.6 -31.5 5.85 -31.5 14.3 -25.25 19.9 -19 25.55 -11 25.55 -3.05 25.55 2.25 20.25
L 2.25 41.35 9.7 41.35 9.7 10.85
Q 9.7 8.65 10.8 5.5 12.4 2.1 13.95 -0.05 Z"/>
</g>

<g id="Symbol_1_0_Layer1_0_FILL">
<path fill="#000000" stroke="none" d="
M 9.75 -2.05
Q 14.75 -8.3 20.6 -8.3 27.4 -8.3 29.95 -3.3 31.35 -0.4 31.35 3.65 31.35 6.5 29.85 10.45 26.55 17.85 20.6 23.85 19.25 25.1 18.3 25.45
L 24.4 30.1 31.85 21.55
Q 39.25 12.3 39.25 4.2 39.25 -3.8 33.65 -8.75 27.7 -14.15 19.75 -14.15 14.2 -14.15 9.75 -10.7
L 5.5 -6.85 5.5 -28.35 46.55 -28.35 46.55 -34.2 -45.45 -34.2 -45.45 -28.35 -1.95 -28.35 -1.95 7.15
Q -1.95 9.85 -4.95 12.85 -10.25 18.15 -15.3 18.15 -17.6 18.15 -20.6 17.15 -27.55 13.6 -27.55 4.65 -27.55 -1.2 -24.15 -5.55 -20.75 -9.75 -14.75 -9.75
L -12.6 -9.75 -10.5 -8.95 -9.75 -8.3 -8.35 -7.95 -8.35 -14.15
Q -9.35 -14.8 -12.2 -15.15
L -16.1 -15.5 -19.9 -15.05
Q -25.6 -13.75 -29.85 -9.9 -35.7 -4.6 -35.7 3.85 -35.7 12.3 -29.45 17.9 -23.2 23.55 -15.2 23.55 -7.25 23.55 -1.95 18.25
L -1.95 39.35 5.5 39.35 5.5 8.85
Q 5.5 6.65 6.6 3.5 8.2 0.1 9.75 -2.05 Z"/>
</g>

<path id="Blank_P1_0_Layer0_0_1_STROKES" stroke="#000000" stroke-width="2" stroke-linejoin="round" stroke-linecap="round" fill="none" d="
M -104.45 -117.5
Q -3.5 -116.3 68.2 -44.55 89.4 -23.35 104.45 0.3 56.95 64.1 -15.4 117.55 -20.45 0.4 -104.45 -117.5 Z"/>

<path id="Symbol_1_0_Layer1_0_1_STROKES" stroke="#FFFFFF" stroke-width="1" stroke-linejoin="round" stroke-linecap="round" fill="none" d="
M 5.5 -28.35
L 5.5 -6.85 9.75 -10.7
Q 14.2 -14.15 19.75 -14.15 27.7 -14.15 33.65 -8.75 39.25 -3.8 39.25 4.2 39.25 12.3 31.85 21.55
L 24.4 30.1 18.3 25.45
Q 19.25 25.1 20.6 23.85 26.55 17.85 29.85 10.45 31.35 6.5 31.35 3.65 31.35 -0.4 29.95 -3.3 27.4 -8.3 20.6 -8.3 14.75 -8.3 9.75 -2.05 8.2 0.1 6.6 3.5 5.5 6.65 5.5 8.85
L 5.5 39.35 -1.95 39.35 -1.95 18.25
Q -7.25 23.55 -15.2 23.55 -23.2 23.55 -29.45 17.9 -35.7 12.3 -35.7 3.85 -35.7 -4.6 -29.85 -9.9 -25.6 -13.75 -19.9 -15.05
L -16.1 -15.5 -12.2 -15.15
Q -9.35 -14.8 -8.35 -14.15
L -8.35 -7.95 -9.75 -8.3 -10.5 -8.95 -12.6 -9.75 -14.75 -9.75
Q -20.75 -9.75 -24.15 -5.55 -27.55 -1.2 -27.55 4.65 -27.55 13.6 -20.6 17.15 -17.6 18.15 -15.3 18.15 -10.25 18.15 -4.95 12.85 -1.95 9.85 -1.95 7.15
L -1.95 -28.35 -45.45 -28.35 -45.45 -34.2 46.55 -34.2 46.55 -28.35 5.5 -28.35 Z"/>
</defs>

<g transform="matrix( 1, 0, 0, 1, 452.95,142.95) ">
<g transform="matrix( 1, 0, 0, 1, 0,0) ">
<use xlink:href="#Blank_P1_0_Layer0_0_1_STROKES"/>
</g>

<g transform="matrix( 1, 0, 0, 1, 18.7,0.35) ">
<g transform="matrix( 1, 0, 0, 1, 0,1) ">
<use xlink:href="#Symbol_1_0_Layer2_0_FILL"/>
</g>

<g transform="matrix( 1, 0, 0, 1, 0,0) ">
<use xlink:href="#Symbol_1_0_Layer1_0_FILL"/>

<use xlink:href="#Symbol_1_0_Layer1_0_1_STROKES"/>
</g>
</g>
</g>
</svg>
