
<svg xmlns="http://www.w3.org/2000/svg" version="1.1" xmlns:xlink="http://www.w3.org/1999/xlink" preserveAspectRatio="none" x="0px" y="0px" width="690px" height="549px" viewBox="0 0 690 549">
<defs>
<g id="Symbol_1_1_Layer2_0_FILL">
<path fill="#000000" fill-opacity="0.4" stroke="none" d="
M 18.9 -24.8
Q 13.3 -30.2 3.6 -30.2 -5.45 -30.2 -11.5 -24.9
L -14.05 -21.9 -15.8 -18.75 -16.8 -15.5
Q -16.8 -14.65 -16.8 -11.8
L -16.2 -7.1
Q -15.55 -4.85 -14.05 -2.95 -11.35 1.15 -5.95 2.75 -13.35 5.3 -15.95 9.15
L -18.4 13.1 -18.85 14.4
Q -19.5 15.55 -19.5 17.4
L -19.5 20.8
Q -19.5 25.05 -17.75 29.4 -15.55 33.9 -12.8 36.6 -7.05 42.45 3.9 42.45 6.45 42.45 8.95 42.05 11.45 41.65 13.6 40.85 22.45 37.95 25.85 29.8 26.9 27.5 27.2 25.65 27.45 23.8 27.45 21.1 27.45 19.2 27.2 17.85 26.9 16.35 26.5 14.7 24.35 8.45 19.75 5.6 17.6 3.55 14.05 2.75 18.35 1 20.95 -1.5 23.5 -4.1 23.9 -6.95 24.6 -8.4 24.6 -11.55 24.6 -19.45 18.9 -24.8
M 3.95 -22.95
Q 6.45 -22.95 8.2 -22.1
L 12.25 -19.65
Q 15.65 -15.75 15.65 -11.55 15.65 -9.25 14.8 -7.2
L 12.35 -3.8
Q 9.05 -0.55 4.1 -0.55 1.5 -0.55 -1.05 -1.35 -4.95 -2.7 -7.1 -7.35 -7.8 -9.25 -7.8 -12.1 -6.95 -17.25 -4.55 -19.65 -1.05 -22.95 3.95 -22.95
M -10.25 24.5
L -10.65 20.8
Q -10.65 18.65 -9.7 15.4 -7.2 9.4 -2.05 7.65 0.25 6.55 3.7 6.55 6.3 6.55 9.3 7.55 15.65 10.25 17.3 15.4 18.5 17.7 18.5 21.1 18.5 27.25 14.45 31.4 10.4 35.5 4 35.5
L -0.15 35.1 -3.75 33.65 -6.75 31.4 -8.9 28.05 -10.25 24.5 Z"/>
</g>

<g id="Symbol_1_1_Layer1_0_FILL">
<path fill="#000000" stroke="none" d="
M 16.75 -3.5
Q 19.3 -6.1 19.7 -8.95 20.4 -10.4 20.4 -13.55 20.4 -21.45 14.7 -26.8 9.1 -32.2 -0.6 -32.2 -9.65 -32.2 -15.7 -26.9
L -18.25 -23.9 -20 -20.75 -21 -17.5
Q -21 -16.65 -21 -13.8
L -20.4 -9.1
Q -19.75 -6.85 -18.25 -4.95 -15.55 -0.85 -10.15 0.75 -17.55 3.3 -20.15 7.15
L -22.6 11.1 -23.05 12.4
Q -23.7 13.55 -23.7 15.4
L -23.7 18.8
Q -23.7 23.05 -21.95 27.4 -19.75 31.9 -17 34.6 -11.25 40.45 -0.3 40.45 2.25 40.45 4.75 40.05 7.25 39.65 9.4 38.85 18.25 35.95 21.65 27.8 22.7 25.5 23 23.65 23.25 21.8 23.25 19.1 23.25 17.2 23 15.85 22.7 14.35 22.3 12.7 20.15 6.45 15.55 3.6 13.4 1.55 9.85 0.75 14.15 -1 16.75 -3.5
M 4 -24.1
L 8.05 -21.65
Q 11.45 -17.75 11.45 -13.55 11.45 -11.25 10.6 -9.2
L 8.15 -5.8
Q 4.85 -2.55 -0.1 -2.55 -2.7 -2.55 -5.25 -3.35 -9.15 -4.7 -11.3 -9.35 -12 -11.25 -12 -14.1 -11.15 -19.25 -8.75 -21.65 -5.25 -24.95 -0.25 -24.95 2.25 -24.95 4 -24.1
M -14.45 22.5
L -14.85 18.8
Q -14.85 16.65 -13.9 13.4 -11.4 7.4 -6.25 5.65 -3.95 4.55 -0.5 4.55 2.1 4.55 5.1 5.55 11.45 8.25 13.1 13.4 14.3 15.7 14.3 19.1 14.3 25.25 10.25 29.4 6.2 33.5 -0.2 33.5
L -4.35 33.1 -7.95 31.65 -10.95 29.4 -13.1 26.05 -14.45 22.5 Z"/>
</g>

<path id="Blank_P2_0_Layer0_0_1_STROKES" stroke="#000000" stroke-width="2" stroke-linejoin="round" stroke-linecap="round" fill="none" d="
M 41.6 -128.15
Q 78.3 -70.1 78.3 3.15 78.3 72.45 45.4 128.15 2.55 46.7 -78.25 -10.9 -5.9 -64.35 41.6 -128.15 Z"/>

<path id="Symbol_1_1_Layer1_0_1_STROKES" stroke="#FFFFFF" stroke-width="1" stroke-linejoin="round" stroke-linecap="round" fill="none" d="
M -18.25 -4.95
Q -19.75 -6.85 -20.4 -9.1
L -21 -13.8
Q -21 -16.65 -21 -17.5
L -20 -20.75 -18.25 -23.9 -15.7 -26.9
Q -9.65 -32.2 -0.6 -32.2 9.1 -32.2 14.7 -26.8 20.4 -21.45 20.4 -13.55 20.4 -10.4 19.7 -8.95 19.3 -6.1 16.75 -3.5 14.15 -1 9.85 0.75 13.4 1.55 15.55 3.6 20.15 6.45 22.3 12.7 22.7 14.35 23 15.85 23.25 17.2 23.25 19.1 23.25 21.8 23 23.65 22.7 25.5 21.65 27.8 18.25 35.95 9.4 38.85 7.25 39.65 4.75 40.05 2.25 40.45 -0.3 40.45 -11.25 40.45 -17 34.6 -19.75 31.9 -21.95 27.4 -23.7 23.05 -23.7 18.8
L -23.7 15.4
Q -23.7 13.55 -23.05 12.4
L -22.6 11.1 -20.15 7.15
Q -17.55 3.3 -10.15 0.75 -15.55 -0.85 -18.25 -4.95 Z
M -11.3 -9.35
Q -9.15 -4.7 -5.25 -3.35 -2.7 -2.55 -0.1 -2.55 4.85 -2.55 8.15 -5.8
L 10.6 -9.2
Q 11.45 -11.25 11.45 -13.55 11.45 -17.75 8.05 -21.65
L 4 -24.1
Q 2.25 -24.95 -0.25 -24.95 -5.25 -24.95 -8.75 -21.65 -11.15 -19.25 -12 -14.1 -12 -11.25 -11.3 -9.35 Z
M -14.45 22.5
L -13.1 26.05 -10.95 29.4 -7.95 31.65 -4.35 33.1 -0.2 33.5
Q 6.2 33.5 10.25 29.4 14.3 25.25 14.3 19.1 14.3 15.7 13.1 13.4 11.45 8.25 5.1 5.55 2.1 4.55 -0.5 4.55 -3.95 4.55 -6.25 5.65 -11.4 7.4 -13.9 13.4 -14.85 16.65 -14.85 18.8
L -14.45 22.5 Z"/>
</defs>

<g transform="matrix( 1, 0, 0, 1, 515.8,271.4) ">
<g transform="matrix( 1, 0, 0, 1, 0,0) ">
<use xlink:href="#Blank_P2_0_Layer0_0_1_STROKES"/>
</g>

<g transform="matrix( 1, 0, 0, 1, 25.7,-14.35) ">
<g transform="matrix( 1, 0, 0, 1, 0,1) ">
<use xlink:href="#Symbol_1_1_Layer2_0_FILL"/>
</g>

<g transform="matrix( 1, 0, 0, 1, 0,0) ">
<use xlink:href="#Symbol_1_1_Layer1_0_FILL"/>

<use xlink:href="#Symbol_1_1_Layer1_0_1_STROKES"/>
</g>
</g>
</g>
</svg>
