
<svg xmlns="http://www.w3.org/2000/svg" version="1.1" xmlns:xlink="http://www.w3.org/1999/xlink" preserveAspectRatio="none" x="0px" y="0px" width="690px" height="549px" viewBox="0 0 690 549">
<defs>
<g id="Symbol_1_4_Layer2_0_FILL">
<path fill="#000000" fill-opacity="0.4" stroke="none" d="
M 42.45 -26.35
L 56.25 -26.35 56.25 -32.2 -44.6 -32.2 -44.6 -26.35 -15.4 -26.35 -15.4 -6.4 -15.8 -3.65
Q -16.65 -1.25 -19.2 -0.4
L -22.05 0 -24.75 0 -27.05 -1 -27.9 -1.6 -28.8 -2.5 -31.15 -10.7 -37.65 -7.3 -33.6 4.25 -31.15 9.95
Q -28.2 16.65 -22.95 23.35 -15.4 32.8 -5 35.65 -1.1 36.75 5.3 36.75
L 12.8 36.05 20.8 33.75 28.4 30.5 34.8 26.4 34.85 26.25 34.85 41.35 42.45 41.35 42.45 -26.35
M 11.25 -0.25
Q 11.25 -2.95 11.95 -4.8 14.2 -9.25 17.9 -9.65 19.35 -10.35 22.25 -10.35
L 25.8 -9.95 29.05 -9.1 27.3 -14.25 24.05 -15.35 20.9 -15.75 17.65 -15.75
Q 11.8 -14.45 7.9 -10.15 4 -5.75 4 -0.2 4 3.1 5.1 6.2 10.25 15.4 20.35 15.4
L 22.8 15.4 25.35 14.85 30.7 12.55 32.6 11.45 34.85 9.6 34.85 18.95
Q 31.7 21.65 29.1 23.4
L 25.55 25.5 20.65 27.65
Q 16.55 29.5 13.15 30.2 9.8 30.9 5.85 30.9 -1.4 30.9 -8.2 27.55 -14.95 24.25 -18.8 18.1
L -22.2 12.8 -25.65 5.3 -19.15 4.8 -14 3.45
Q -8.15 0.45 -8.15 -5.95
L -8.15 -26.35 34.85 -26.35 34.85 1.25
Q 33.55 3.3 32.45 4.4 28.65 8.3 24.75 8.7 23.2 9.25 20.65 9.25
L 16.95 8.7
Q 11.25 6.55 11.25 -0.25 Z"/>
</g>

<g id="Symbol_1_4_Layer1_0_FILL">
<path fill="#000000" stroke="none" d="
M 52.05 -28.35
L 52.05 -34.2 -48.8 -34.2 -48.8 -28.35 -19.6 -28.35 -19.6 -8.4 -20 -5.65
Q -20.85 -3.25 -23.4 -2.4
L -26.25 -2 -28.95 -2 -31.25 -3 -32.1 -3.6 -33 -4.5 -35.35 -12.7 -41.85 -9.3 -37.8 2.25 -35.35 7.95
Q -32.4 14.65 -27.15 21.35 -19.6 30.8 -9.2 33.65 -5.3 34.75 1.1 34.75
L 8.6 34.05 16.6 31.75 24.2 28.5 30.6 24.4 30.65 24.2 30.65 39.35 38.25 39.35 38.25 -28.35 52.05 -28.35
M 7.05 -2.25
Q 7.05 -4.95 7.75 -6.8 10 -11.25 13.7 -11.65 15.15 -12.35 18.05 -12.35
L 21.6 -11.95 24.85 -11.1 23.1 -16.25 19.85 -17.35 16.7 -17.75 13.45 -17.75
Q 7.6 -16.45 3.7 -12.15 -0.2 -7.75 -0.2 -2.2 -0.2 1.1 0.9 4.2 6.05 13.4 16.15 13.4
L 18.6 13.4 21.15 12.85 26.5 10.55 28.4 9.45 30.65 7.6 30.65 16.95
Q 27.4966796875 19.65703125 24.9 21.4
L 21.35 23.5 16.45 25.65
Q 12.35 27.5 8.95 28.2 5.6 28.9 1.65 28.9 -5.6 28.9 -12.4 25.55 -19.15 22.25 -23 16.1
L -26.4 10.8 -29.85 3.3 -23.35 2.8 -18.2 1.45
Q -12.35 -1.55 -12.35 -7.95
L -12.35 -28.35 30.65 -28.35 30.65 -0.8
Q 29.3296875 1.3205078125 28.25 2.4 24.45 6.3 20.55 6.7 19 7.25 16.45 7.25
L 12.75 6.7
Q 7.05 4.55 7.05 -2.25 Z"/>
</g>

<path id="Blank_P5_0_Layer0_0_1_STROKES" stroke="#000000" stroke-width="2" stroke-linejoin="round" stroke-linecap="round" fill="none" d="
M -132.55 131
Q -170.8 72.1 -170.8 -2.55 -170.8 -74 -135.8 -130.95 55.8 -98 170.75 -16.45 52.35 70.9 -132.55 131 Z"/>

<path id="Symbol_1_4_Layer1_0_1_STROKES" stroke="#FFFFFF" stroke-width="1" stroke-linejoin="round" stroke-linecap="round" fill="none" d="
M 28.4 9.45
L 26.5 10.55 21.15 12.85 18.6 13.4 16.15 13.4
Q 6.05 13.4 0.9 4.2 -0.2 1.1 -0.2 -2.2 -0.2 -7.75 3.7 -12.15 7.6 -16.45 13.45 -17.75
L 16.7 -17.75 19.85 -17.35 23.1 -16.25 24.85 -11.1 21.6 -11.95 18.05 -12.35
Q 15.15 -12.35 13.7 -11.65 10 -11.25 7.75 -6.8 7.05 -4.95 7.05 -2.25 7.05 4.55 12.75 6.7
L 16.45 7.25
Q 19 7.25 20.55 6.7 24.45 6.3 28.25 2.4 29.3296875 1.3205078125 30.65 -0.775
L 30.65 -28.35 -12.35 -28.35 -12.35 -7.95
Q -12.35 -1.55 -18.2 1.45
L -23.35 2.8 -29.85 3.3 -26.4 10.8 -23 16.1
Q -19.15 22.25 -12.4 25.55 -5.6 28.9 1.65 28.9 5.6 28.9 8.95 28.2 12.35 27.5 16.45 25.65
L 21.35 23.5 24.9 21.4
Q 27.4966796875 19.65703125 30.65 16.95
L 30.65 7.6 28.4 9.45 Z
M 30.6 24.4
L 24.2 28.5 16.6 31.75 8.6 34.05 1.1 34.75
Q -5.3 34.75 -9.2 33.65 -19.6 30.8 -27.15 21.35 -32.4 14.65 -35.35 7.95
L -37.8 2.25 -41.85 -9.3 -35.35 -12.7 -33 -4.5 -32.1 -3.6 -31.25 -3 -28.95 -2 -26.25 -2 -23.4 -2.4
Q -20.85 -3.25 -20 -5.65
L -19.6 -8.4 -19.6 -28.35 -48.8 -28.35 -48.8 -34.2 52.05 -34.2 52.05 -28.35 38.25 -28.35 38.25 39.35 30.65 39.35 30.65 24.225"/>
</defs>

<g transform="matrix( 1, 0, 0, 1, 266.7,277.1) ">
<g transform="matrix( 1, 0, 0, 1, 0,0) ">
<use xlink:href="#Blank_P5_0_Layer0_0_1_STROKES"/>
</g>

<g transform="matrix( 1, 0, 0, 1, -35.75,-9.55) ">
<g transform="matrix( 1, 0, 0, 1, 0,1) ">
<use xlink:href="#Symbol_1_4_Layer2_0_FILL"/>
</g>

<g transform="matrix( 1, 0, 0, 1, 0,0) ">
<use xlink:href="#Symbol_1_4_Layer1_0_FILL"/>

<use xlink:href="#Symbol_1_4_Layer1_0_1_STROKES"/>
</g>
</g>
</g>
</svg>
