
<svg xmlns="http://www.w3.org/2000/svg" version="1.1" xmlns:xlink="http://www.w3.org/1999/xlink" preserveAspectRatio="none" x="0px" y="0px" width="690px" height="549px" viewBox="0 0 690 549">
<defs>
<g id="Symbol_1_3_Layer2_0_FILL">
<path fill="#000000" fill-opacity="0.4" stroke="none" d="
M 17.45 -30.05
L 10.2 -30.05 -22.35 16.3 -22.35 24.25 8.6 24.25 8.6 41.35 17.45 41.35 17.45 24.25 27.1 24.25 27.1 16.25 17.45 16.25 17.45 -30.05
M 8.6 16.25
L -13.8 16.25 8.6 -15.9 8.6 16.25 Z"/>
</g>

<g id="Symbol_1_3_Layer1_0_FILL">
<path fill="#000000" stroke="none" d="
M 13.25 -32.05
L 6 -32.05 -26.55 14.3 -26.55 22.25 4.4 22.25 4.4 39.35 13.25 39.35 13.25 22.25 22.9 22.25 22.9 14.25 13.25 14.25 13.25 -32.05
M 4.4 14.25
L -18 14.25 4.4 -17.9 4.4 14.25 Z"/>
</g>

<path id="Blank_P4_0_Layer0_0_1_STROKES" stroke="#000000" stroke-width="2" stroke-linejoin="round" stroke-linecap="round" fill="none" d="
M 62.5 131.5
Q 60.8 131.5 59 131.5 -44.2 131.5 -117.15 58.5 -137.25 38.4 -151.85 15.95 33.05 -44.15 151.55 -131.4 157.15 0.55 62.5 131.5 Z"/>

<path id="Symbol_1_3_Layer1_0_1_STROKES" stroke="#FFFFFF" stroke-width="1" stroke-linejoin="round" stroke-linecap="round" fill="none" d="
M 4.4 22.25
L -26.55 22.25 -26.55 14.3 6 -32.05 13.25 -32.05 13.25 14.25 22.9 14.25 22.9 22.25 13.25 22.25 13.25 39.35 4.4 39.35 4.4 22.25 Z
M 4.4 -17.9
L -18 14.25 4.4 14.25 4.4 -17.9 Z"/>
</defs>

<g transform="matrix( 1, 0, 0, 1, 286,392.15) ">
<g transform="matrix( 1, 0, 0, 1, 0,0) ">
<use xlink:href="#Blank_P4_0_Layer0_0_1_STROKES"/>
</g>

<g transform="matrix( 1, 0, 0, 1, 45.3,8.05) ">
<g transform="matrix( 1, 0, 0, 1, 0,1) ">
<use xlink:href="#Symbol_1_3_Layer2_0_FILL"/>
</g>

<g transform="matrix( 1, 0, 0, 1, 0,0) ">
<use xlink:href="#Symbol_1_3_Layer1_0_FILL"/>

<use xlink:href="#Symbol_1_3_Layer1_0_1_STROKES"/>
</g>
</g>
</g>
</svg>
