
<svg xmlns="http://www.w3.org/2000/svg" version="1.1" xmlns:xlink="http://www.w3.org/1999/xlink" preserveAspectRatio="none" x="0px" y="0px" width="278px" height="216px" viewBox="0 0 278 216">
<defs>
<g id="Symbol_4_1_Layer0_0_FILL">
<path fill="#000000" stroke="none" d="
M 192.55 70.4
Q 185.55 66.8 177.2 66.8 165.1 66.8 157 73.7 148.85 80.6 146.55 93.15
L 159.05 95.4
Q 160.45 86.2 165.3 81.65 170.2 77.05 177.45 77.05 184.85 77.05 189.5 81.55 194.15 86.1 194.15 92.95 194.15 101.65 187.75 105.8 181.35 109.95 173.4 109.95 172.6 109.95 171.35 109.85
L 169.95 120.8
Q 175.25 119.4 178.8 119.4 187.45 119.4 193.1 125.05 198.7 130.6 198.7 139.2 198.7 148.25 192.7 154.35 186.55 160.45 177.75 160.45 170.3 160.45 165.2 155.8 159.95 151.1 157.8 140.45
L 145.3 142.15
Q 146.55 154.85 155.45 162.8 164.3 170.8 177.7 170.8 192.55 170.8 202.25 161.55 212 152.25 212 138.95 212 129.05 207 122.55 202 115.95 192.95 113.85 199.9 110.65 203.45 105.25 207 99.85 207 93.25 207 86.3 203.3 80.1 199.55 73.95 192.55 70.4
M 85.25 82.55
Q 90.65 77.15 99.7 77.15 108.25 77.15 113.6 82.25 118.85 87.35 118.85 94.75 118.85 101.85 113.05 109.85 107.2 117.75 90.6 131.35 79.9 140.1 74.3 146.8 68.6 153.45 66 160.3 64.4 164.5 64.55 169
L 131.85 169 131.85 157 81.9 157
Q 84 153.6 87.2 150.25 90.4 146.85 101.65 137.4 115.1 126 120.95 119.5 126.7 112.95 129.2 107.05 131.7 101.15 131.7 95.05 131.7 83.05 123.15 74.9 114.6 66.8 99.95 66.8 85.45 66.8 76.85 74.35 68.25 81.85 66.9 96.2
L 79.75 97.55
Q 79.85 87.95 85.25 82.55 Z"/>
</g>
</defs>

<g transform="matrix( 1.1142425537109375, 0, 0, 1.1142425537109375, -19.55,-28.5) ">
<g transform="matrix( 1, 0, 0, 1, 0,0) ">
<use xlink:href="#Symbol_4_1_Layer0_0_FILL"/>
</g>
</g>
</svg>
