
<svg xmlns="http://www.w3.org/2000/svg" version="1.1" xmlns:xlink="http://www.w3.org/1999/xlink" preserveAspectRatio="none" x="0px" y="0px" width="1920px" height="1080px" viewBox="0 0 1920 1080">
<defs>
<g id="Symbol_1_4_Layer1_0_FILL">
<path fill="#FFFFFF" stroke="none" d="
M -213.5 -6.4
L -211.3 -8.35 -208.4 -9.75 -205.2 -10.65
Q -204.35 -10.65 -201.9 -10.65
L -198.15 -10.1
Q -195.95 -9.55 -195.35 -8.6
L -196.35 -15.25 -197.55 -15.55 -198.3 -15.85 -201.9 -16.45 -205.2 -16.45
Q -207.15 -16.45 -208.95 -16.2 -210.9 -15.9 -212.95 -15 -216.7 -13.3 -219.6 -10.4 -225.7 -4.3 -225.7 4 -225.7 8.45 -224.25 12.4 -222.5 16.05 -218.95 19.15 -215.4 22.25 -211.85 23.55 -208.25 24.75 -203.95 24.75
L -199.75 24.75
Q -197.45 24.3 -195.65 23.4
L -191.9 21.5
Q -189.85 20 -188.6 18.2
L -188.6 8.05 -189.45 10.1 -213.5 -6.4
M -217.2 -1.55
L -216.55 -2.95 -192.75 13.9 -194.5 15.45 -195.95 16.45
Q -197.3 17.5 -198 17.85 -198.7 18.2 -199.9 18.5
L -201.45 19.05 -203.8 19.05
Q -206 19.05 -209.3 18.1 -212.1 16.75 -214.15 14.6 -216.4 12.55 -217.4 10 -218.3 7.45 -218.3 4
L -218.3 2.15 -217.2 -1.55
M -319.9 -34.75
L -319.9 -28.95 -303.25 -28.8
Q -307.3 -24.1 -307.3 -19.45 -307.3 -16.4 -305.95 -13.55 -304.55 -10.75 -302.05 -8.55 -297.45 -4 -290.5 -4
L -286 -4.7
Q -283.25 -5.55 -281.05 -7.2
L -277.15 -10.25 -277.15 -6.05 -278 -3.1 -280.3 0.8 -283.8 4.35 -288.3 7.4
Q -292.3 9.5 -296.55 9.95
L -301.15 10.1 -302.05 9.8 -306.85 5.9 -311.9 10.95 -277.15 40.4 -272.05 35.3 -296.2 15.3
Q -290.8 15.3 -285.85 13.25 -278.9 10.45 -274.25 3.45 -269.65 -3.5 -269.65 -11.25
L -270.2 -16.05 -271.45 -20.65 -273.8 -24.9
Q -274.8 -27 -276.85 -28.95
L -267.5 -28.95 -267.5 -28.8 -253.3 -28.8 -253.3 40.1 -245.55 40.1 -245.55 -28.8 -152.9 -28.8 -152.9 -15.25 -174.35 -15.25
Q -180.45 -15.25 -184.7 -9.95 -188.85 -4.7 -188.85 2 -188.85 9.8 -185.75 15.05 -182.65 20.2 -175.4 23.65 -168.25 27.05 -156.8 27.05
L -155.8 27.05 -154.65 26.8 -146.65 43 -137.1 43 -141.7 36.9 -144.2 32.75 -147.8 24.75 -144.6 22.55
Q -142.15 19.9 -142.15 15.3
L -142.7 12.4
Q -144.2 8.95 -146.65 8.05 -147.85 7.3 -149.3 7.3 -153.55 7.3 -155.45 10.1
L -156.8 13
Q -156.8 13.7 -156.8 16.15
L -156.8 17.8
Q -156.8 18.35 -156.8 19.9
L -156.8 20.7 -156.2 21.55 -163.8 21 -169.05 19.8
Q -181.65 15.05 -181.65 1.85
L -180.95 -2.1 -178.6 -5.7
Q -174.85 -9.2 -171.3 -9.2
L -144.6 -9.2 -144.6 -28.8 -128.8 -28.8 -128.8 -34.75 -319.9 -34.75
M -294.05 -28.2
Q -292.8 -28.95 -290.15 -28.95 -283.95 -28.95 -280.45 -23.35 -279.75 -22.4 -279.25 -20.95
L -278 -17.9 -280.75 -14.05
Q -284.9 -10.25 -289.6 -10.25 -293.9 -10.25 -296.7 -12.95 -299.45 -15.6 -299.45 -19.95
L -298.85 -23.35
Q -297.25 -27.3 -294.05 -28.2
M -558.6 -34.75
L -558.6 -28.8 -524.4 -28.8 -524.4 -3.5 -525.4 -1.45
Q -526.05 -0.45 -527.3 -0.05
L -530.6 0.4
Q -536.6 0.4 -539.2 -4.7
L -543.45 -12.85 -549.75 -8.8 -540.5 7.05 -522.8 32.75
Q -518.45 39.25 -515.85 40.1
L -510 35.15 -519.9 24.15 -523.8 19.05 -532.75 5.5
Q -531.65 6.05 -530.7 6.05
L -529.1 6.2 -527.7 5.95
Q -527.2 5.5 -525.9 5.5
L -522.8 4.65
Q -518.85 2.85 -517.9 -0.1
L -517.05 -3.3 -517.05 -28.8 -489.8 -28.8 -489.8 -3.5 -515.3 -3.5 -510.2 2.45 -489.8 2.45 -489.8 40.1 -482.1 40.1 -482.1 -28.8 -425.3 -28.8 -425.3 -16.2 -455.9 -16.2 -458.5 -15.75 -460.6 -14.65 -462.25 -12.65 -462.7 -10.1 -461.2 -4.7
Q -460.35 -2.05 -457.6 1.6
L -452.6 7.3 -456.1 10.8
Q -457.7 12.35 -458.85 14.25 -461.2 18 -461.2 21.55 -461.2 34.85 -442.5 41.3
L -437.05 43.15
Q -430.25 45.5 -425.8 45.5 -423.8 45.2 -423.25 44.9
L -420.5 39.7
Q -420.6 39.7 -420.9 39.7 -421.2 39.7 -421.9 39.7
L -425.2 39.7 -437.4 36.65
Q -445.2 34.45 -449.3 30.6 -453.2 26.7 -453.2 22.45 -453.2 19.3 -451.9 16.6 -448.25 8.15 -434.8 8.15
L -428.9 8.75
Q -420.5 9.8 -420.5 17.3 -420.9 20.9 -422.95 23.1
L -423.4 23.55 -423.95 23.8 -424.6 24.25 -425.3 24.6 -419.9 28.9 -415.8 25.85
Q -414.1 24.1 -413.4 22.2 -412.75 20.2 -412.75 17.3 -412.75 13.95 -414.25 10.8 -417.15 5.55 -425.3 3.35 -428 2.8 -429.95 2.65 -431.95 2.5 -434.3 2.5
L -437.6 2.5 -446.45 4.25 -447.45 3.7 -451.5 -1.4 -452.05 -2.5
Q -453.7 -4.15 -453.95 -5.55
L -454.55 -8.05 -453.95 -9.4
Q -453.4 -10.1 -452.05 -10.1
L -417.55 -10.1 -417.55 -28.8 -393.25 -28.8 -393.25 40.1 -385.7 40.1 -385.7 -28.8 -373.5 -28.8 -373.5 -34.6 -387.3 -34.6 -392.5 -43.75 -396.75 -50.25
Q -401.35 -57.3 -408.2 -62 -413.8 -65.9 -418.9 -65.9 -430.8 -65.9 -435.05 -53.55 -436 -50.65 -436.15 -49.7 -436.3 -48.6 -436.3 -46.5
L -436.3 -43.15 -435.25 -40 -433.75 -37.05 -432 -34.75 -558.6 -34.75
M -428.45 -50.5
Q -427.3 -54.55 -425.95 -56.6 -423.35 -60.2 -418.65 -60.2 -413.45 -60.2 -406.5 -52.1 -394.8 -38.7 -394.8 -35.15
L -394.95 -34.6 -403.05 -34.6 -403.05 -34.75 -423.5 -34.75 -424.4 -36 -426.25 -39.7
Q -426.75 -40.55 -427.1 -41.6 -427.45 -42.75 -427.95 -44.3 -428.45 -45.9 -428.45 -47.75
L -428.45 -50.5
M 409.85 -34.75
L 409.85 -28.8 454.1 -28.8 454.1 7.3
Q 454.1 10.1 451.05 13.1 445.7 18.5 440.5 18.5 438.15 18.5 435.15 17.5 428.05 13.9 428.05 4.75 428.05 -1.2 431.5 -5.55 435 -9.9 441.05 -9.9
L 443.25 -9.9 445.4 -9.05 446.15 -8.4 447.6 -8.05 447.6 -14.35
Q 446.6 -15 443.7 -15.35
L 439.75 -15.7 435.85 -15.25
Q 430.05 -13.9 425.7 -10.05 419.75 -4.65 419.75 4 419.75 12.55 426.15 18.3 432.5 24.05 440.65 24.05 448.7 24.05 454.1 18.65
L 454.1 40.1 461.7 40.1 461.7 9.1
Q 461.7 6.8 462.8 3.65 464.45 0.15 466 -2.05 471.1 -8.4 477.05 -8.4 484 -8.4 486.6 -3.3 488 -0.35 488 3.8 488 6.7 486.45 10.7 483.15 18.2 477.05 24.3 475.7 25.6 474.7 25.95
L 480.95 30.7 488.5 22
Q 496 12.55 496 4.35 496 -3.8 490.35 -8.8 484.25 -14.35 476.2 -14.35 470.55 -14.35 466 -10.8
L 461.7 -6.9 461.7 -28.8 539.3 -28.8 539.3 -10.5
Q 538.45 -5.3 536.2 -3.25 533.9 -1.1 529.2 -1.1 523.25 -1.1 520.9 -4.7
L 514.95 -14.85 509 -10.5 519.2 6.9 523.65 13.55
Q 530.6 24.05 537.75 32.25 543.7 39.4 545.9 40.1
L 551.2 35.15 540.5 23.75 536.4 18.65 526 3.7
Q 526.55 4.15 528.6 4.4
L 531.35 4.4
Q 534.25 4.4 537.2 3.45 547 -0.45 547 -9.9
L 547 -28.8 558.65 -28.8 558.65 -34.75 543.75 -34.75 514 -71.25 508.95 -65.75 538.95 -34.75 409.85 -34.75
M 11.7 -28.8
L 11.7 -34.75 -2.45 -34.75 -32.2 -71.25 -37.25 -65.75 -7.25 -34.75 -76.7 -34.75 -76.7 -28.8 -42.5 -28.8 -42.5 -3.5 -43.5 -1.45
Q -44.15 -0.45 -45.4 -0.05
L -48.7 0.4
Q -54.7 0.4 -57.3 -4.7
L -61.55 -12.85 -67.85 -8.8 -58.6 7.05 -40.9 32.75
Q -36.55 39.25 -33.95 40.1
L -28.1 35.15 -38 24.15 -41.9 19.05 -50.85 5.5
Q -49.75 6.05 -48.8 6.05
L -47.2 6.2 -45.8 5.95
Q -45.3 5.5 -44 5.5
L -40.9 4.65
Q -36.95 2.85 -36 -0.1
L -35.15 -3.3 -35.15 -28.8 -7.9 -28.8 -7.9 -3.5 -33.4 -3.5 -28.3 2.45 -7.9 2.45 -7.9 40.1 -0.2 40.1 -0.2 -28.8 11.7 -28.8
M 79.6 -57.75
Q 77.55 -55 76.9 -52.35 76.25 -49.75 76.25 -45.8
L 76.25 -43.5 78.5 -34.6 65.35 -34.6 65.35 -28.8 78.1 -28.8 78.1 40.1 85.8 40.1 85.8 -28.8 115.05 -28.8 115.05 -2.95 108.85 -2.95 107.35 -2.5 106.65 -2.15
Q 105.65 -1.6 105.1 -0.8
L 104.65 1.1
Q 104.8 3 106.05 4.85 110.9 10.95 113.45 13.55 117.1 17.3 119.25 17.3
L 121.2 17 122.4 16.15 122.4 3.55 148.95 3.55 148.95 40.1 156.55 40.1 156.55 -28.8 233.9 -28.8 233.9 -9.65 230.6 -9.65 223.65 -7.4 221.6 -6.15 216.45 -2.25
Q 216.3 -3.25 214.95 -4.15
L 211.05 -7.2
Q 208.15 -9.45 204.55 -10.4 201.9 -11.35 200.2 -11.45 198.45 -11.5 197.15 -11.5 187.75 -11.5 181.8 -5.9 175.85 -0.35 175.85 8.5 175.85 18.8 184.65 28.05 196.8 40.65 204.2 40.65
L 207.8 34.6 200.45 31.1 195.4 27.9
Q 182.95 19.9 182.95 9.1 182.95 4 186.85 -1.1 189.3 -3.35 191.15 -4.2 192.9 -5 193.75 -5.15 194.55 -5.3 196.55 -5.3
L 201.05 -4.6 206 -2.5
Q 211.45 -0.2 212.4 2.6
L 211.45 4.7 207.6 11.05 207.6 12.85 213.8 16.45 214.95 13.1 219.35 5.4 221.75 2.5 223.8 0.65 225.7 -0.7 230.15 -2.8 233.9 -3.85 233.9 40.1 241.5 40.1 241.5 -28.8 265.2 -28.8 265.2 40.1 272.95 40.1 272.95 -28.8 337.3 -28.8 337.3 -8.75 295.75 -8.75 294.45 -8.35
Q 292.1 -6.5 292.1 -3.95 292.55 -2.25 293.9 -0.05 296.3 3.85 298.5 6.35
L 303.85 11.9
Q 306.2 13.85 307.05 13.85
L 308.75 13.85
Q 309.95 12.7 310.1 12.4 310.25 12.2 310.25 11.5
L 310.25 -2.95 337.3 -2.95 337.3 40.1 345 40.1 345 -28.8 356.9 -28.8 356.9 -34.75 152.5 -34.75 144.1 -43.15 133.65 -51.85
Q 129.2 -55.5 123.55 -58.95 109.8 -67.4 98.85 -67.4 94.15 -67.4 89.7 -65.75 83.5 -63.15 79.6 -57.75
M 84.2 -51.6
Q 87.25 -58.25 92.45 -60 94.8 -61.15 98.25 -61.15 102.45 -61.15 108.25 -59.15 114.05 -57.25 118.6 -54.2
L 130.65 -45.9
Q 133.2 -44 135.8 -41.4
L 142.95 -34.75 96.65 -34.75 96.65 -34.6 85.8 -34.6 85.1 -35.75 83.2 -41.8 83.2 -44.7
Q 83.2 -48 84.2 -51.6
M 148.95 -28.8
L 148.95 -2.95 122.4 -2.95 122.4 -28.8 148.95 -28.8 Z"/>
</g>
</defs>

<g transform="matrix( 1, 0, 0, 1, 960,540) ">
<g transform="matrix( 1, 0, 0, 1, 0,0) ">
<use xlink:href="#Symbol_1_4_Layer1_0_FILL"/>
</g>
</g>
</svg>
