
<svg xmlns="http://www.w3.org/2000/svg" version="1.1" xmlns:xlink="http://www.w3.org/1999/xlink" preserveAspectRatio="none" x="0px" y="0px" width="1920px" height="1080px" viewBox="0 0 1920 1080">
<defs>
<g id="Symbol_1_11_Layer1_0_FILL">
<path fill="#FFFFFF" stroke="none" d="
M -332.7 -59.8
L -338.1 -53.85 -309.55 -34.75 -346 -34.75 -346 -28.8 -331.95 -28.8 -331.95 0.75 -333.9 1.5 -338.9 2.8 -345.65 2.8 -350.5 0.9 -359.1 -3.6 -360.45 -3.85 -361.15 -3.75
Q -352.9 -8.4 -352.9 -17.55 -352.9 -24.55 -357.4 -29.35 -362.75 -34.75 -369.7 -34.75 -378.85 -34.75 -386 -28.85
L -390.75 -24.9
Q -391.8 -23.9 -392 -23.6 -392.2 -23.35 -392.35 -22.85
L -386.7 -18.3 -383.8 -21.45 -378.4 -25.95
Q -373.95 -28.8 -370.25 -28.8 -367.85 -28.8 -365.25 -27.8 -361.15 -25.9 -360.3 -21.9 -359.7 -20.35 -359.7 -17.55 -359.7 -14.5 -361.35 -11.75 -364.95 -6.2 -371.6 -4.45 -372.3 -4.3 -374.35 -3.85 -376.05 -3.85 -377.85 -3.85
L -375.35 1.5 -373.8 1.5
Q -372.45 0.65 -370.7 0.65
L -368.2 0.65
Q -364.05 0.65 -359.8 2.95 -355.6 5.1 -354.55 9.1 -353.7 10.65 -353.55 11.7 -353.4 12.7 -353.4 15.05 -353.4 17.3 -354.4 19.9 -358.1 28.05 -364.75 28.05 -374.45 28.05 -383.3 14.8
L -386.9 9.45 -391.45 1.5 -397.4 5.4
Q -397.4 9.3 -387.95 20.35 -382.35 27.05 -376.7 30.4 -373.5 32.25 -370.9 33 -368.2 33.75 -365.15 33.75
L -361.15 33.75
Q -346.2 30.85 -346.2 15.4
L -346.2 12.15 -347.05 8.8 -348.1 6.25 -346.5 7.05 -341.95 8.3 -336.3 8.3 -331.95 7.2 -331.95 40.1 -324.6 40.1 -324.6 -28.8 -301.65 -28.8 -301.65 40.1 -293.9 40.1 -293.9 -28.8 -245.35 -28.8 -245.35 -10.5
Q -246.2 -5.3 -248.45 -3.25 -250.75 -1.1 -255.45 -1.1 -261.4 -1.1 -263.75 -4.7
L -269.7 -14.85 -275.65 -10.5 -265.45 6.9 -261 13.55
Q -254.05 24.05 -246.9 32.25 -240.95 39.4 -238.75 40.1
L -233.45 35.15 -244.15 23.75 -248.25 18.65 -258.65 3.7
Q -258.1 4.15 -256.05 4.4
L -253.3 4.4
Q -250.4 4.4 -247.45 3.45 -237.65 -0.45 -237.65 -9.9
L -237.65 -28.8 -226 -28.8 -226 -34.75 -292 -34.75 -315.25 -71.25 -322.05 -67.5 -297.1 -34.75 -305.9 -34.75 -332.7 -59.8
M -466.95 -50.95
L -456.95 -50.95 -456.95 -60.35 -466.95 -60.35 -466.95 -50.95
M -612.3 -34.75
L -612.3 -28.8 -578.1 -28.8 -578.1 -3.5 -579.1 -1.45
Q -579.75 -0.45 -581 -0.05
L -584.3 0.4
Q -590.3 0.4 -592.9 -4.7
L -597.15 -12.85 -603.45 -8.8 -594.2 7.05 -576.5 32.75
Q -572.15 39.25 -569.55 40.1
L -563.7 35.15 -566.7 32.1 -577.5 19.05 -586.45 5.5
Q -585.35 6.05 -584.4 6.05
L -582.8 6.2 -581.4 5.95
Q -580.9 5.5 -579.6 5.5
L -576.5 4.65
Q -572.55 2.85 -571.6 -0.1
L -570.75 -3.3 -570.75 -28.8 -543.5 -28.8 -543.5 -3.5 -569 -3.5 -563.9 2.45 -543.5 2.45 -543.5 40.1
Q -548.1 41 -551.65 43.05
L -555.4 45.25 -557.1 46.85 -551.35 52 -548.1 48.75
Q -544.05 45.9 -540.6 45.9
L -537.25 46.55
Q -535.5 47.75 -534.65 48.9
L -532.45 52
Q -531.75 53.7 -531.45 55.55 -531.45 58.25 -532.45 60.3 -537 67.35 -547.55 67.35 -556.4 67.35 -566.35 60.7
L -575.85 54.05 -580.75 60.3
Q -579.05 62 -574.65 64.6
L -564.4 69.85
Q -554.95 73.75 -547.9 73.75 -538.9 73.75 -532.1 69.55 -524.25 64.75 -524.25 55.6 -524.25 52.85 -525.25 49.1 -526.45 46.35 -528.7 44 -532 40.75 -537.15 40.1
L -535.8 40.1 -535.8 -28.8 -471.25 -28.8 -471.25 -8.75 -512.8 -8.75 -514.1 -8.35
Q -516.45 -6.5 -516.45 -3.95 -516 -2.25 -514.65 -0.05 -512.25 3.85 -510.05 6.35
L -504.7 11.9
Q -502.35 13.85 -501.5 13.85
L -499.8 13.85
Q -498.6 12.7 -498.45 12.4 -498.3 12.2 -498.3 11.5
L -498.3 -2.95 -471.25 -2.95 -471.25 40.1 -463.55 40.1 -463.55 -28.8 -451.65 -28.8 -451.65 -34.75 -466.05 -34.75 -495.8 -71.25 -500.85 -65.75 -470.85 -34.75 -612.3 -34.75
M 591 -50.95
L 601 -50.95 601 -60.35 591 -60.35 591 -50.95
M 444.95 -34.75
L 444.95 -28.8 498.7 -28.8 498.7 -8.75 457.15 -8.75 455.85 -8.35
Q 453.5 -6.5 453.5 -3.95 453.95 -2.25 455.3 -0.05 457.7 3.85 459.9 6.35
L 465.25 11.9
Q 467.6 13.85 468.45 13.85
L 470.15 13.85
Q 471.35 12.7 471.5 12.4 471.65 12.2 471.65 11.5
L 471.65 -2.95 498.7 -2.95 498.7 40.1 506.4 40.1 506.4 -28.8 529.1 -28.8 529.1 40.1 536.85 40.1 536.85 -28.8 559.35 -28.8 559.35 8.65 593.1 40.25 593.8 40.75 594.25 41.15
Q 596.3 43 596.3 45.2
L 595.75 46.4 595.75 47.3 594.4 48.4 593.1 48.95 590.55 48.95 589.7 49.35 587.3 48.95 586.3 48.95 592.85 55.3 598.35 53.9
Q 603.9 50.65 603.9 45.75
L 603.5 42.7 602.4 40.1 567.35 6.9 567.35 -28.8 594.65 -28.8 594.65 -3.1 593.95 0.1 592.2 3.15
Q 589.65 5.9 586.75 5.9
L 592.25 10.2 596 8.65
Q 598.05 7.45 599.35 5.9 602.4 2.85 602.4 -1.55
L 602.4 -28.8 612.25 -28.8 612.25 -34.75 444.95 -34.75
M 380.45 -34.75
L 380.45 -28.8 426.8 -28.8 426.8 6.9 425.95 10.1 401.9 -6.4 404.1 -8.35 407 -9.75 410.2 -10.65
Q 411.05 -10.65 413.5 -10.65
L 417.25 -10.1
Q 419.45 -9.55 420.05 -8.6
L 419.05 -15.25 417.85 -15.55 417.1 -15.85 413.5 -16.45 410.2 -16.45
Q 408.25 -16.45 406.45 -16.2 404.5 -15.9 402.45 -15 398.7 -13.3 395.8 -10.4 389.7 -4.3 389.7 4 389.7 8.45 391.15 12.4 392.9 16.05 396.45 19.15 400 22.25 403.55 23.55 407.15 24.75 411.45 24.75
L 415.65 24.45
Q 417.95 24.05 419.75 23.2
L 423.5 21.25
Q 425.55 19.85 426.8 18.1
L 426.8 40.1 434.55 40.1 434.55 -28.8 444.95 -28.8 444.65 -34.75 380.45 -34.75
M 398.2 -1.55
L 398.85 -2.95 422.65 13.9 420.9 15.45 419.45 16.45
Q 418.1 17.5 417.4 17.85 416.7 18.2 415.5 18.5
L 413.95 19.05 411.6 19.05
Q 409.4 19.05 406.1 18.1 403.3 16.8 401.25 14.6 399 12.55 398 10 397.1 7.45 397.1 4
L 397.1 2.15 398.2 -1.55
M 62.35 -34.75
L 62.35 -28.8 110.4 -28.8 110.4 9.1
Q 108.05 13.1 103.35 15.3 101.5 16.95 99 17.35
L 96.25 17.95 94.7 17.95
Q 92.5 17.95 88.9 16.95 81.25 13 81.25 2.7 81.25 0.1 81.95 -2.5 84.55 -8.75 88.2 -10.1 90.35 -11.1 93.55 -11.1
L 97.45 -10.65 101.35 -9.45 104.25 -8.05 102.6 -15.9
Q 102.05 -15.9 100.65 -15.9
L 95.25 -16.9 92.65 -16.9
Q 84.55 -16.9 78.85 -10.6 73.1 -4.3 73.1 4.05 73.1 6.55 73.5 8.45 73.95 10.45 74.65 12 76.4 15.45 79.9 18.5 86.4 24.15 94.9 24.15
L 99.45 23.75 103.9 22.1 110.4 17.5 110.4 40.1 118.15 40.1 118.15 -28.8 141.05 -28.8 141.05 40.1 148.8 40.1 148.8 -28.8 203.65 -28.8 203.65 7.3
Q 203.65 10.1 200.6 13.1 195.25 18.5 190.05 18.5 187.7 18.5 184.7 17.5 177.6 13.9 177.6 4.75 177.6 -1.2 181.05 -5.55 184.55 -9.9 190.6 -9.9
L 192.8 -9.9 194.95 -9.05 195.7 -8.4 197.15 -8.05 197.15 -14.35
Q 196.15 -15 193.25 -15.35
L 189.3 -15.7 185.4 -15.25
Q 179.6 -13.9 175.25 -10.05 169.3 -4.65 169.3 4 169.3 12.55 175.7 18.3 182.05 24.05 190.2 24.05 198.25 24.05 203.65 18.65
L 203.65 40.1 207.1 40.1 204.3 41.45 223.6 62.65 226.6 59.3 211.25 38.85 211.25 9.1
Q 211.25 6.8 212.35 3.65 214 0.15 215.55 -2.05 220.65 -8.4 226.6 -8.4 233.55 -8.4 236.15 -3.3 237.55 -0.35 237.55 3.8 237.55 6.7 236 10.7 232.7 18.2 226.6 24.3 225.25 25.6 224.25 25.95
L 230.5 30.7 238.05 22
Q 245.55 12.55 245.55 4.35 245.55 -3.8 239.9 -8.8 233.8 -14.35 225.75 -14.35 220.1 -14.35 215.55 -10.8
L 211.25 -6.9 211.25 -28.8 272.85 -28.8 276.45 -24.2
Q 280.1 -18.05 280.1 -14.15 280.1 -7.95 276.45 -4.85 272.5 -1.8 267.5 -1.8
L 266 -1.8
Q 265.7 -1.8 264.7 -1.8
L 262.25 -2.65
Q 262.25 9.3 270.8 17.15 278.45 24.3 289.9 24.3 299.9 24.3 307.6 17.8
L 307.6 40.1 315.35 40.1 315.35 -28.8 325.75 -28.8 325.75 -34.75 62.35 -34.75
M 288.1 -13.55
L 287.4 -18.05 285.05 -23.7 282.15 -28.8 307.6 -28.8 307.6 7.3 304.45 11.85
Q 302.25 14.1 299.75 15.75 295 19.05 288.95 19.05 278.15 19.05 273 8.65
L 272.5 7.75 272.1 6.6 271.5 5.4 271.1 4 276.05 2.7 279.65 1.25
Q 288.1 -4 288.1 -13.55
M 10.15 -28.8
L 10.15 -34.6 -3.65 -34.6 -8.85 -43.75 -13.1 -50.25
Q -17.7 -57.3 -24.55 -62 -30.15 -65.9 -35.25 -65.9 -47.15 -65.9 -51.4 -53.55 -52.35 -50.65 -52.5 -49.7 -52.65 -48.6 -52.65 -46.5
L -52.65 -43.15 -51.6 -40 -50.1 -37.05 -48.35 -34.75 -174.95 -34.75 -174.95 -28.8 -140.75 -28.8 -140.75 -3.5 -141.75 -1.45
Q -142.4 -0.45 -143.65 -0.05
L -146.95 0.4
Q -152.95 0.4 -155.55 -4.7
L -159.8 -12.85 -166.1 -8.8 -156.85 7.05 -139.15 32.75
Q -134.8 39.25 -132.2 40.1
L -126.35 35.15 -129.35 32.1 -140.15 19.05 -149.1 5.5
Q -148 6.05 -147.05 6.05
L -145.45 6.2 -144.05 5.95
Q -143.55 5.5 -142.25 5.5
L -139.15 4.65
Q -135.2 2.85 -134.25 -0.1
L -133.4 -3.3 -133.4 -28.8 -106.15 -28.8 -106.15 -3.5 -131.65 -3.5 -126.55 2.45 -106.15 2.45 -106.15 40.1 -98.45 40.1 -98.45 -28.8 -41.65 -28.8 -41.65 -16.2 -72.25 -16.2 -74.85 -15.75 -76.95 -14.65 -78.6 -12.65 -79.05 -10.1 -77.55 -4.7
Q -76.7 -2.05 -73.95 1.6
L -68.95 7.3 -72.45 10.8
Q -74.05 12.35 -75.2 14.25 -77.55 18 -77.55 21.55 -77.55 34.85 -58.85 41.3
L -53.4 43.15
Q -46.6 45.5 -42.15 45.5 -40.15 45.2 -39.6 44.9
L -36.85 39.7
Q -36.95 39.7 -37.25 39.7 -37.55 39.7 -38.25 39.7
L -41.55 39.7 -53.75 36.65
Q -61.55 34.45 -65.65 30.6 -69.55 26.7 -69.55 22.45 -69.55 19.3 -68.25 16.6 -64.6 8.15 -51.15 8.15
L -45.25 8.75
Q -36.85 9.8 -36.85 17.3 -37.25 20.9 -39.3 23.1
L -39.75 23.55 -40.3 23.8 -40.95 24.25 -41.65 24.6 -36.25 28.9 -32.15 25.85
Q -30.45 24.1 -29.75 22.2 -29.1 20.2 -29.1 17.3 -29.1 13.95 -30.6 10.8 -33.5 5.55 -41.65 3.35 -44.35 2.8 -46.3 2.65 -48.3 2.5 -50.65 2.5
L -53.95 2.5 -62.8 4.25 -63.8 3.7 -67.85 -1.4 -68.4 -2.5
Q -70.05 -4.15 -70.3 -5.55
L -70.9 -8.05 -70.3 -9.4
Q -69.75 -10.1 -68.4 -10.1
L -33.9 -10.1 -33.9 -28.8 -9.6 -28.8 -9.6 40.1 -2.05 40.1 -2.05 -28.8 10.15 -28.8
M -35 -60.2
Q -29.8 -60.2 -22.85 -52.1 -11.15 -38.7 -11.15 -35.15
L -11.3 -34.6 -19.4 -34.6 -19.4 -34.75 -39.85 -34.75 -40.75 -36 -42.6 -39.7
Q -43.1 -40.55 -43.45 -41.6 -43.8 -42.75 -44.3 -44.3 -44.8 -45.9 -44.8 -47.75
L -44.8 -50.5
Q -43.65 -54.55 -42.3 -56.6 -39.7 -60.2 -35 -60.2 Z"/>
</g>
</defs>

<g transform="matrix( 1, 0, 0, 1, 960,540) ">
<g transform="matrix( 1, 0, 0, 1, 0,0) ">
<use xlink:href="#Symbol_1_11_Layer1_0_FILL"/>
</g>
</g>
</svg>
