
<svg xmlns="http://www.w3.org/2000/svg" version="1.1" xmlns:xlink="http://www.w3.org/1999/xlink" preserveAspectRatio="none" x="0px" y="0px" width="240px" height="55px" viewBox="0 0 240 55">
<defs>
<g id="Layer0_0_FILL">
<path fill="#FFFFFF" stroke="none" d="
M 1020.9 146.8
Q 1022.3 146.8 1023.45 147.6
L 1023.25 166.75 1028.85 169.5 1028.85 136.35 1037.1 136.35 1037.1 166.8 1042.65 169.5 1042.65 136.35 1050.4 136.35 1050.4 147.1
Q 1050.4 150.5 1054.55 153.85 1058.25 156.85 1061.05 156.85 1062.5 156.85 1064.45 156.25 1066.4 155.7 1066.4 155.2
L 1066.2 166.55 1071.8 169.5 1071.8 136.35 1078.5 136.35 1076.15 131.1 879.05 131.1 879.05 127.7
Q 875.15 124.45 868.25 121.05 860.9 117.45 857.5 117.45 852.65 117.45 849.75 120.6 847.6 123.05 847.6 125.95 847.6 127.75 848.2 129.1 848.8 130.5 849.8 131.05
L 840.7 131.05 843.1 136.35 849.65 136.35 849.65 166.45 855 169.9 855 136.35 879.65 136.35 879.55 145.9
Q 879.4087890625 145.3890625 878.9 144.8 877.95 143.65 876.8 142.7 875.65 141.75 874.05 141.4 872.4 141.05 870.65 141.05 865.9 141.05 864.1 144 861.75 146.4 861.75 148.8 861.75 153.2 865 156.4 868.25 159.6 872.6 159.6 873.7625 159.6 874.25 159.4
L 863.9 165.95 867.65 169.35 879.65 159.5 879.65 166.8 885.25 169.5 885.25 153.3
Q 887.1 151.7 889.2 150.55 891.25 149.4 892.3 149.4 893.6 149.4 894.4 150.15 895.2 150.9 895.2 152.25 895.2 154.15 894.05 156.7 892.95 159.3 891.05 162.25
L 895.4 166.05
Q 899.7 159.75 899.7 155.8 899.7 150.25 896.55 146.85 894.05 144.1 891.2 144.1 889.4 144.1 888 144.95 886.3 145.8 885.25 147.35
L 885.25 136.35 913.05 136.35
Q 914.3 138.6 914.55 139.15 914.8 139.75 914.8 140.45 914.8 142.15 912.55 143.6 910.3 145.1 905.75 145.95 907.15 151.85 910.3 154.9 914.15 158.7 919.9 158.7 921.85 158.7 924.15 157.65 926.45 156.55 926.9 155.2
L 926.65 166.8 932.45 169.5 932.45 136.35 940.55 136.35 940.55 166.8 946.1 169.5 946.1 136.35 968.2 136.35 968.1 145.9
Q 967.9587890625 145.3890625 967.45 144.8 966.5 143.65 965.35 142.7 964.2 141.75 962.6 141.4 960.95 141.05 959.2 141.05 954.4 141.05 952.65 144 950.3 146.4 950.3 148.8 950.3 153.2 953.5 156.4 956.75 159.6 961.1 159.6 963.4 159.6 965.4 158.65 966.25 158.25 968.2 156.45
L 968.35 166.75 973.8 169.5 973.8 153.3
Q 975.65 151.7 977.7 150.55 979.8 149.4 980.85 149.4 982.15 149.4 982.95 150.15 983.75 150.9 983.75 152.25 983.75 154.15 982.6 156.7 981.45 159.3 979.6 162.25
L 983.95 166.05
Q 988.25 159.75 988.25 155.8 988.25 150.25 985.1 146.85 982.55 144.1 979.75 144.1 977.95 144.1 976.55 144.95 974.85 145.8 973.8 147.35
L 973.8 136.35 1023.25 136.35 1023.25 143.9
Q 1023.094921875 143.4224609375 1021.85 142.8 1020.3 142 1018.85 142 1016.8 142 1015.05 143.15 1013.3 144.3 1011.9 146.6 1010.85 144.85 1008.65 142.7 1007.8 141.85 1006.35 141.3 1004.85 140.75 1003.25 140.75 999.25 140.75 996.8 144 994.8 146.75 994.8 149.85 994.8 155.2 999.7 160.85 1003.75 165.5 1011.05 170
L 1013.35 167.05
Q 1005.5 162.4 1002.6 158.45 1000.4 155.55 1000.4 151.75 1000.4 148.95 1002.4 146.8 1003.7 145.95 1005.5 145.95 1006.6 145.95 1008.1 147.1 1009.55 148.2 1010.3 149.1 1010.05 149.2 1009.65 150.05 1009.15 150.9 1008.6 152.35
L 1012.95 155.15
Q 1015.75 149.95 1017.4 148.35 1019 146.8 1020.9 146.8
M 1055.95 136.35
L 1066.2 136.35 1066.2 149.4
Q 1064.8 150.3 1062.65 151.15 1060.5 152.05 1059.05 152.05 1057.55 152.05 1056.75 151 1055.95 149.9 1055.95 147.25
L 1055.95 136.35
M 859.25 131.1
L 859.25 131.05 853.05 131.05
Q 852.65 130.4 852.65 128.25 852.65 126.05 854.7 124.1 856.7 122.2 859.8 122.2 862.25 122.2 868.4 125.3 874.25078125 128.126171875 878.95 131.1
L 859.25 131.1
M 871.5 146.25
Q 874.3 146.25 876.05 147.3 877.8 148.3 879.65 150.55 877.05 152.35 874.55 153.55 872.05 154.8 870.2 154.8 868.5 154.8 867.35 153.85 866.25 152.85 866.25 151.2 866.25 148.85 867.85 147.55 869.45 146.25 871.5 146.25
M 956.4 147.55
Q 958 146.25 960.05 146.25 962.85 146.25 964.6 147.3 966.35 148.3 968.2 150.55 965.6 152.35 963.1 153.55 960.6 154.8 958.75 154.8 957.05 154.8 955.9 153.85 954.8 152.85 954.8 151.2 954.8 148.85 956.4 147.55
M 917.3 136.35
L 926.65 136.35 926.9 149.25
Q 924.15 151.55 921.95 152.7 919 154.3 916.15 154.3 914.05 154.3 913.05 153.05 912.05 151.8 912.05 150.05 915.45 148.95 917.3 147.55 919.9 145.55 919.9 142.95 919.9 141.6 919.15 139.55 918.35 137.55 917.3 136.35 Z"/>
</g>
</defs>

<g transform="matrix( 1, 0, 0, 1, -839.6,-116.2) ">
<use xlink:href="#Layer0_0_FILL"/>
</g>
</svg>
