
<svg xmlns="http://www.w3.org/2000/svg" version="1.1" xmlns:xlink="http://www.w3.org/1999/xlink" preserveAspectRatio="none" x="0px" y="0px" width="325px" height="228px" viewBox="0 0 325 228">
<defs>
<linearGradient id="Gradient_1" gradientUnits="userSpaceOnUse" x1="-20.2" y1="-35.849999999999994" x2="-20.2" y2="253.35" spreadMethod="pad">
<stop  offset="0%" stop-color="#FFFFFF"/>

<stop  offset="100%" stop-color="#CBCBCB"/>
</linearGradient>

<g id="Symbol_1_0_Layer0_0_FILL">
<path fill="url(#Gradient_1)" stroke="none" d="
M -0.25 -225.55
Q -139.95 -225.55 -238.8 -159.5 -337.55 -93.5 -337.55 -0.05 -337.55 93.45 -238.8 159.45 -139.95 225.55 -0.25 225.55 139.5 225.55 238.35 159.45 337.1 93.45 337.1 0 337.1 -93.5 238.35 -159.5 139.5 -225.55 -0.25 -225.55 Z"/>
</g>

<g id="Symbol_1_0_Layer0_1_FILL">
<path fill="#FF0000" stroke="none" d="
M 114.65 -80.45
Q 67.15 -113.75 0 -113.75 -67.15 -113.75 -114.65 -80.45 -162.15 -47.1 -162.15 0 -162.15 47.1 -114.65 80.4 -67.15 113.75 0 113.75 67.15 113.75 114.65 80.4 162.15 47.1 162.15 0 162.15 -47.1 114.65 -80.45
M 153.1 0
Q 153.1 44.1 108.25 75.25 63.35 106.5 -0.05 106.5 -63.5 106.5 -108.35 75.25 -153.2 44.1 -153.2 0 -153.2 -44.15 -108.35 -75.3 -63.5 -106.5 -0.05 -106.5 63.35 -106.5 108.25 -75.3 153.1 -44.15 153.1 0 Z"/>

<path fill="#8E2020" stroke="none" d="
M 108.25 75.25
Q 153.1 44.1 153.1 0 153.1 -44.15 108.25 -75.3 63.35 -106.5 -0.05 -106.5 -63.5 -106.5 -108.35 -75.3 -153.2 -44.15 -153.2 0 -153.2 44.1 -108.35 75.25 -63.5 106.5 -0.05 106.5 63.35 106.5 108.25 75.25
M 149.65 0
Q 149.65 41.45 105.8 70.75 61.95 100.1 -0.1 100.1 -62.1 100.1 -105.95 70.75 -149.8 41.45 -149.8 0 -149.8 -41.5 -105.95 -70.8 -62.1 -100.1 -0.1 -100.1 61.95 -100.1 105.8 -70.8 149.65 -41.5 149.65 0 Z"/>
</g>
</defs>

<g id="Layer_2">
<g transform="matrix( 1, 0, 0, 1, 162.5,114) ">
<g id="Layer_1">
<g transform="matrix( 0.4438934326171875, 0, 0, 0.4438934326171875, 0.05,0) ">
<use xlink:href="#Symbol_1_0_Layer0_0_FILL"/>
</g>

<g transform="matrix( 1, 0, 0, 1, 0,0) ">
<use xlink:href="#Symbol_1_0_Layer0_1_FILL"/>
</g>
</g>
</g>
</g>
</svg>
