
<svg xmlns="http://www.w3.org/2000/svg" version="1.1" xmlns:xlink="http://www.w3.org/1999/xlink" preserveAspectRatio="none" x="0px" y="0px" width="676px" height="605px" viewBox="0 0 676 605">
<defs>
<g id="Symbol_66_1_Layer1_0_FILL">
<path fill="#000000" stroke="none" d="
M 105.75 -114.5
Q 105.05 -137.1 105.05 -161.8
L 188 -161.8 164.05 -206 -179.1 -206 -155.8 -161.8 57.45 -161.8
Q 58.1 -149.1 59.5 -137.1 60.5 -125.1 60.5 -110.4 60.5 -79.55 56.4 -69.6 51.95 -59.3 41.65 -57.95
L -53.3 -34.65
Q -81.4 -26.4 -94.4 -12 -107.45 2.4 -107.45 31.2 -107.45 83.95 -62.2 127.85 -16.95 171.7 41.3 171.7 77.3 171.7 112.25 160.05 147.25 148.4 171.9 134.35
L 151 91.85
Q 105.4 113.45 73.2 123.05 41.3 132.3 10.45 132.3 -19 132.3 -41.3 110.7 -63.9 88.75 -63.9 58.6 -63.9 13 -18.35 3.75 46.45 -8.25 80.75 -17.85 96.85 -22.95 102.35 -32.25 107.45 -41.85 107.45 -70.6 106.8 -91.55 105.75 -114.5 Z"/>
</g>
</defs>

<g transform="matrix( 1, 0, 0, 1, 338,302.5) ">
<g transform="matrix( 1, 0, 0, 1, 0,0) ">
<use xlink:href="#Symbol_66_1_Layer1_0_FILL"/>
</g>
</g>
</svg>
