
<svg xmlns="http://www.w3.org/2000/svg" version="1.1" xmlns:xlink="http://www.w3.org/1999/xlink" preserveAspectRatio="none" x="0px" y="0px" width="1920px" height="1080px" viewBox="0 0 1920 1080">
<defs>
<g id="Symbol_1_3_Layer1_0_FILL">
<path fill="#FFFFFF" stroke="none" d="
M -555.05 48.3
L -563.65 48.3 -563.65 56.45 -555.05 56.45 -555.05 48.3
M -247.55 -34.75
L -247.55 -28.8 -213.35 -28.8 -213.35 -3.5 -214.35 -1.45
Q -215 -0.45 -216.25 -0.05
L -219.55 0.4
Q -225.55 0.4 -228.15 -4.7
L -232.4 -12.85 -238.7 -8.8 -229.45 7.05 -211.75 32.75
Q -207.4 39.25 -204.8 40.1
L -198.95 35.15 -208.85 24.15 -212.75 19.05 -221.7 5.5
Q -220.6 6.05 -219.65 6.05
L -218.05 6.2 -216.65 5.95
Q -216.15 5.5 -214.85 5.5
L -211.75 4.65
Q -207.8 2.85 -206.85 -0.1
L -206 -3.3 -206 -28.8 -178.75 -28.8 -178.75 -3.5 -204.25 -3.5 -199.15 2.45 -178.75 2.45 -178.75 40.1 -171.05 40.1 -171.05 -28.8 -114.25 -28.8 -114.25 -16.2 -144.85 -16.2 -147.45 -15.75 -149.55 -14.65 -151.2 -12.65 -151.65 -10.1 -150.15 -4.7
Q -149.3 -2.05 -146.55 1.6
L -141.55 7.3 -145.05 10.8
Q -146.65 12.35 -147.8 14.25 -150.15 18 -150.15 21.55 -150.15 34.85 -131.45 41.3
L -126 43.15
Q -119.2 45.5 -114.75 45.5 -112.75 45.2 -112.2 44.9
L -109.45 39.7
Q -109.55 39.7 -109.85 39.7 -110.15 39.7 -110.85 39.7
L -114.15 39.7 -126.35 36.65
Q -134.15 34.45 -138.25 30.6 -142.15 26.7 -142.15 22.45 -142.15 19.3 -140.85 16.6 -137.2 8.15 -123.75 8.15
L -117.85 8.75
Q -109.45 9.8 -109.45 17.3 -109.85 20.9 -111.9 23.1
L -112.35 23.55 -112.9 23.8 -113.55 24.25 -114.25 24.6 -108.85 28.9 -104.75 25.85
Q -103.05 24.1 -102.35 22.2 -101.7 20.2 -101.7 17.3 -101.7 13.95 -103.2 10.8 -106.1 5.55 -114.25 3.35 -116.95 2.8 -118.9 2.65 -120.9 2.5 -123.25 2.5
L -126.55 2.5 -135.4 4.25 -136.4 3.7 -140.45 -1.4 -141 -2.5
Q -142.65 -4.15 -142.9 -5.55
L -143.5 -8.05 -142.9 -9.4
Q -142.35 -10.1 -141 -10.1
L -106.5 -10.1 -106.5 -28.8 -82.2 -28.8 -82.2 40.1 -74.65 40.1 -74.65 -28.8 -62.45 -28.8 -62.45 -34.6 -76.25 -34.6 -81.45 -43.75 -85.7 -50.25
Q -90.3 -57.3 -97.15 -62 -102.75 -65.9 -107.85 -65.9 -119.75 -65.9 -124 -53.55 -124.95 -50.65 -125.1 -49.7 -125.25 -48.6 -125.25 -46.5
L -125.25 -43.15 -124.2 -40 -122.7 -37.05 -120.95 -34.75 -247.55 -34.75
M -107.6 -60.2
Q -102.4 -60.2 -95.45 -52.1 -83.75 -38.7 -83.75 -35.15
L -83.9 -34.6 -92 -34.6 -92 -34.75 -112.45 -34.75 -113.35 -36 -115.2 -39.7
Q -115.7 -40.55 -116.05 -41.6 -116.4 -42.75 -116.9 -44.3 -117.4 -45.9 -117.4 -47.75
L -117.4 -50.5
Q -116.25 -54.55 -114.9 -56.6 -112.3 -60.2 -107.6 -60.2
M -405.3 -59.8
L -410.7 -53.85 -382.15 -34.75 -418.6 -34.75 -418.6 -28.8 -404.55 -28.8 -404.55 0.75 -406.5 1.5 -411.5 2.8 -418.25 2.8 -423.1 0.9 -431.7 -3.6 -433.05 -3.85 -433.75 -3.75
Q -425.5 -8.4 -425.5 -17.55 -425.5 -24.55 -430 -29.35 -435.35 -34.75 -442.3 -34.75 -451.45 -34.75 -458.6 -28.85
L -463.35 -24.9
Q -464.4 -23.9 -464.6 -23.6 -464.8 -23.35 -464.95 -22.85
L -459.3 -18.3 -454.05 -23.6 -451 -25.95
Q -446.55 -28.8 -442.85 -28.8 -440.45 -28.8 -437.85 -27.8 -433.75 -25.9 -432.9 -21.9 -432.3 -20.35 -432.3 -17.55 -432.3 -14.5 -433.95 -11.75 -437.55 -6.2 -444.2 -4.45 -444.9 -4.3 -446.95 -3.85 -448.65 -3.85 -450.45 -3.85
L -447.95 1.5 -446.4 1.5
Q -445.05 0.65 -443.3 0.65
L -440.8 0.65
Q -436.65 0.65 -432.4 2.95 -428.2 5.1 -427.15 9.1 -426.3 10.65 -426.15 11.7 -426 12.7 -426 15.05 -426 17.3 -427 19.9 -430.7 28.05 -437.35 28.05 -447.05 28.05 -455.9 14.8
L -459.5 9.45 -464.05 1.5 -470 5.4
Q -470 9.3 -460.55 20.35 -454.95 27.05 -449.3 30.4 -446.1 32.25 -443.5 33 -440.8 33.75 -437.75 33.75
L -433.75 33.75
Q -418.8 30.85 -418.8 15.4
L -418.8 12.15 -419.65 8.8 -420.7 6.25 -419.1 7.05 -414.55 8.3 -408.9 8.3 -404.55 7.2 -404.55 40.1 -397.2 40.1 -397.2 -28.8 -374.25 -28.8 -374.25 40.1 -366.5 40.1 -366.5 -28.8 -317.95 -28.8 -317.95 -10.5
Q -318.8 -5.3 -321.05 -3.25 -323.35 -1.1 -328.05 -1.1 -334 -1.1 -336.35 -4.7
L -342.3 -14.85 -348.25 -10.5 -338.05 6.9 -333.6 13.55
Q -326.65 24.05 -319.5 32.25 -313.55 39.4 -311.35 40.1
L -306.05 35.15 -316.75 23.75 -320.85 18.65 -331.25 3.7
Q -330.7 4.15 -328.65 4.4
L -325.9 4.4
Q -323 4.4 -320.05 3.45 -310.25 -0.45 -310.25 -9.9
L -310.25 -28.8 -298.6 -28.8 -298.6 -34.75 -364.6 -34.75 -387.85 -71.25 -394.65 -67.5 -369.7 -34.75 -378.5 -34.75 -405.3 -59.8
M -573.5 -71.25
L -578.55 -65.75 -548.55 -34.75 -662.1 -34.75 -662.1 -28.8 -650.75 -28.8 -650.75 -1.95
Q -650.75 1.5 -649.35 5.9 -643.25 18.2 -630.65 18.2 -624.7 18.2 -619.6 14.75
L -615.15 11.2 -615.15 40.1 -607.45 40.1 -607.45 -28.8 -549.55 -28.8 -549.55 -12.1 -569.35 -12.1
Q -577.65 -12.1 -582.95 -6.7 -588.35 -1.4 -588.35 6.6 -588.35 13.55 -585.65 18.7 -582.95 23.9 -577.3 28.65 -567.45 37.2 -554.85 37.2 -553.05 37.2 -551.25 36.9 -549.3 36.65 -546.7 36.2 -542.5 34.6 -539.45 32.4 -532.8 27.2 -532.8 19.05
L -533.1 15.75
Q -534.25 10.65 -538.4 7.8 -542.65 5 -547.85 5 -553.9 5 -557.95 8.45 -561.9 11.9 -561.9 18.5 -561.9 20.75 -560.95 24.6
L -558 29.75 -557.3 30.7 -556.25 31.65 -563.4 29.75 -568.45 27.5
Q -580.6 20.2 -580.6 6.25 -580.6 3.55 -579.6 0.95 -577.7 -3.5 -573.25 -5.7 -571.6 -6.4 -570.75 -6.65 -569.9 -6.85 -567.85 -6.85
L -541.8 -6.85 -541.8 -28.8 -523.35 -28.8 -523.35 -34.75 -543.75 -34.75 -573.5 -71.25
M -643.4 -28.8
L -615.15 -28.8 -615.15 2.6 -619.35 7.6 -622.1 9.8
Q -626.65 12.55 -630.95 12.55
L -635.25 11.85
Q -643.4 7.3 -643.4 -0.95
L -643.4 -28.8
M -541.95 13
L -540.6 15.75 -540.2 19.05 -540.9 23.75
Q -543.2 30.95 -548.95 30.95
L -550.95 29.85 -552.2 28.65
Q -555.4 25.3 -555.4 19.05
L -554.85 15.75 -553.2 13
Q -552.1 11.5 -550.6 11.05 -549.3 10.5 -547 10.5 -543.65 10.5 -541.95 13
M 10.7 -25.95
Q 15.15 -28.8 18.85 -28.8 21.25 -28.8 23.85 -27.8 27.95 -25.9 28.8 -21.9 29.4 -20.35 29.4 -17.55 29.4 -14.5 27.75 -11.75 24.15 -6.2 17.5 -4.45 16.8 -4.3 14.75 -3.85 13.05 -3.85 11.25 -3.85
L 13.75 1.5 15.3 1.5
Q 16.65 0.65 18.4 0.65
L 20.9 0.65
Q 25.05 0.65 29.3 2.95 33.5 5.1 34.55 9.1 35.4 10.65 35.55 11.7 35.7 12.7 35.7 15.05 35.7 17.3 34.7 19.9 31 28.05 24.35 28.05 14.65 28.05 5.8 14.8
L 2.2 9.45 -2.35 1.5 -8.3 5.4
Q -8.3 9.3 1.15 20.35 6.75 27.05 12.4 30.4 15.6 32.25 18.2 33 20.9 33.75 23.95 33.75
L 27.95 33.75
Q 42.9 30.85 42.9 15.4
L 42.9 12.15 42.05 8.8 41 6.25 42.6 7.05 47.15 8.3 52.8 8.3 57.15 7.2 57.15 40.1 64.5 40.1 64.5 -28.8 87.45 -28.8 87.45 40.1 95.2 40.1 95.2 -28.8 152.45 -28.8 152.45 9.1
Q 150.1 13.1 145.4 15.3 143.55 16.95 141.05 17.35
L 138.3 17.95 136.75 17.95
Q 134.55 17.95 130.95 16.95 123.3 13 123.3 2.7 123.3 0.1 124 -2.5 126.6 -8.75 130.25 -10.1 132.4 -11.1 135.6 -11.1
L 139.5 -10.65 143.4 -9.45 146.3 -8.05 144.65 -15.9
Q 144.1 -15.9 142.7 -15.9
L 137.3 -16.9 134.7 -16.9
Q 126.6 -16.9 120.9 -10.6 115.15 -4.3 115.15 4.05 115.15 6.55 115.55 8.45 116 10.45 116.7 12 118.45 15.45 121.95 18.5 128.45 24.15 136.95 24.15
L 141.5 23.75 145.95 22.1 152.45 17.5 152.45 40.1 160.2 40.1 160.2 -28.8 183.1 -28.8 183.1 40.1 190.85 40.1 190.85 -28.8 275.35 -28.8 275.35 -10.4 240.75 -10.25
Q 242 -9.25 242.95 -7.75
L 246.7 -2.25
Q 249.15 0.95 250.95 6.35 252.2 10.5 252.2 13.85 252.2 18.5 249.8 21.75 247.4 25 243.1 25 235.2 25 228.15 14.9 222.35 6.75 219.15 -3.1
L 216.55 -11.25 216.25 -13.15 216.25 -14.25 210 -9.6 210.6 -6.4 213.35 1.1
Q 217.95 13.1 223.9 20.4 232.75 30.7 242.45 30.7 246.55 30.7 249.75 29.55 256.25 26.65 258.3 20.4 259.3 17.8 259.35 16.3 259.45 14.9 259.45 13.55
L 258.85 9.65 257.4 4.55 254.85 -1.8
Q 253.75 -4.3 252.9 -4.7
L 275.35 -4.7 275.35 40.1 283.1 40.1 283.1 -28.8 295 -28.8 295 -34.75 43.1 -34.75 43.1 -28.8 57.15 -28.8 57.15 0.75 55.2 1.5 50.2 2.8 43.45 2.8 38.6 0.9 30 -3.6 28.65 -3.85 27.95 -3.75
Q 36.2 -8.4 36.2 -17.55 36.2 -24.55 31.7 -29.35 26.35 -34.75 19.4 -34.75 10.25 -34.75 3.1 -28.85
L -1.65 -24.9
Q -2.7 -23.9 -2.9 -23.6 -3.1 -23.35 -3.25 -22.85
L 2.4 -18.3 7.65 -23.6 10.7 -25.95
M 650.2 -28.8
L 662.1 -28.8 662.1 -34.75 647.7 -34.75 617.95 -71.25 612.9 -65.75 642.9 -34.75 348.75 -34.75 348.75 -28.8 360.1 -28.8 360.1 -1.95
Q 360.1 1.5 361.5 5.9 367.6 18.2 380.2 18.2 386.15 18.2 391.25 14.75
L 395.7 11.2 395.7 40.1 403.4 40.1 403.4 -28.8 459.9 -28.8 459.9 -16.2 429.3 -16.2 426.7 -15.75 424.6 -14.65 422.95 -12.65 422.5 -10.1 424 -4.7
Q 424.85 -2.05 427.6 1.6
L 432.6 7.3 429.1 10.8
Q 427.5 12.35 426.35 14.25 424 18 424 21.55 424 34.85 442.7 41.3
L 448.15 43.15
Q 454.95 45.5 459.4 45.5 461.4 45.2 461.95 44.9
L 464.7 39.7
Q 464.6 39.7 464.3 39.7 464 39.7 463.3 39.7
L 460 39.7 447.8 36.65
Q 440 34.45 435.9 30.6 432 26.7 432 22.45 432 19.3 433.3 16.6 436.95 8.15 450.4 8.15
L 456.3 8.75
Q 464.7 9.8 464.7 17.3 464.3 20.9 462.25 23.1
L 461.8 23.55 461.25 23.8 460.6 24.25 459.9 24.6 465.3 28.9 469.4 25.85
Q 471.1 24.1 471.8 22.2 472.45 20.2 472.45 17.3 472.45 13.95 470.95 10.8 468.05 5.55 459.9 3.35 457.2 2.8 455.25 2.65 453.25 2.5 450.9 2.5
L 447.6 2.5 438.75 4.25 437.75 3.7 433.7 -1.4 433.15 -2.5
Q 431.5 -4.15 431.25 -5.55
L 430.65 -8.05 431.25 -9.4
Q 431.8 -10.1 433.15 -10.1
L 467.65 -10.1 467.65 -28.8 540.35 -28.8 540.35 1.65
Q 540.35 3.55 536.5 7.75
L 533.45 10.65
Q 524.7 18.8 516.35 18.8
L 512.35 18.2
Q 506.65 15.75 506.65 8.5 506.65 1.85 513.75 -3.95
L 520.85 -9.2 530.55 -9.2 530.55 -15.1 486.3 -15.1 486.3 -9.2 510.05 -9.05
Q 507.95 -7.75 506.3 -6.15 499.1 1.1 499.1 8.8 499.1 12.4 500.45 15.55 501.85 18.65 504.05 20.55 508.8 24.75 516 24.75 519.85 24.75 524.15 22.95 529.95 20.7 532.85 18.35
L 538.05 14.1 540.35 11.2 540.35 40.1 548.1 40.1 548.1 -28.8 570.4 -28.8 570.4 40.1 578.15 40.1 578.15 -28.8 642.5 -28.8 642.5 -8.75 600.95 -8.75 599.65 -8.35
Q 597.3 -6.5 597.3 -3.95 597.75 -2.25 599.1 -0.05 601.5 3.85 603.7 6.35
L 609.05 11.9
Q 611.4 13.85 612.25 13.85
L 613.95 13.85
Q 615.15 12.7 615.3 12.4 615.45 12.2 615.45 11.5
L 615.45 -2.95 642.5 -2.95 642.5 40.1 650.2 40.1 650.2 -28.8
M 367.45 -28.8
L 395.7 -28.8 395.7 2.6 391.5 7.6 388.75 9.8
Q 384.2 12.55 379.9 12.55
L 375.6 11.85
Q 367.45 7.3 367.45 -0.95
L 367.45 -28.8
M 656.8 -50.95
L 656.8 -60.35 646.8 -60.35 646.8 -50.95 656.8 -50.95 Z"/>
</g>
</defs>

<g transform="matrix( 1, 0, 0, 1, 960,540) ">
<g transform="matrix( 1, 0, 0, 1, 0,0) ">
<use xlink:href="#Symbol_1_3_Layer1_0_FILL"/>
</g>
</g>
</svg>
