
<svg xmlns="http://www.w3.org/2000/svg" version="1.1" xmlns:xlink="http://www.w3.org/1999/xlink" preserveAspectRatio="none" x="0px" y="0px" width="686px" height="560px" viewBox="0 0 686 560">
<defs>
<g id="Duplicate_Items_Folder_Symbol_4_copy_2_1_Layer0_0_FILL">
<path fill="#0A0A0A" stroke="none" d="
M 100.6 -79.45
L 100.6 -95.85 -94.5 -95.85 -94.5 -79.45 -43.7 -79.45 -43.7 -8.15 -60.9 -8.15 -65 -7 -66.95 -6
Q -69.7 -4.45 -71.25 -2.3
L -72.45 3
Q -72.05 8.25 -68.5 13.35 -55.25 30.15 -48.2 37.35 -38.05 47.7 -32.2 47.7
L -26.75 46.95 -23.4 44.6 -23.4 9.8 49.85 9.8 49.85 110.6 70.75 110.6 70.75 -79.45 100.6 -79.45
M 49.85 -79.45
L 49.85 -8.15 -23.4 -8.15 -23.4 -79.45 49.85 -79.45 Z"/>
</g>
</defs>

<g transform="matrix( 1.9390411376953125, 0, 0, 1.9390411376953125, 335.25,261.6) ">
<g transform="matrix( 1, 0, 0, 1, 0,0) ">
<use xlink:href="#Duplicate_Items_Folder_Symbol_4_copy_2_1_Layer0_0_FILL"/>
</g>
</g>
</svg>
