
<svg xmlns="http://www.w3.org/2000/svg" version="1.1" xmlns:xlink="http://www.w3.org/1999/xlink" preserveAspectRatio="none" x="0px" y="0px" width="278px" height="216px" viewBox="0 0 278 216">
<defs>
<g id="Symbol_4_0_Layer0_0_FILL">
<path fill="#000000" stroke="none" d="
M 176.3 69.3
L 176.3 94.05 129.75 94.25
Q 131.45 95.6 132.7 97.6
L 137.75 105
Q 141.05 109.3 143.45 116.55 145.15 122.15 145.15 126.65 145.15 132.9 141.95 137.3 138.7 141.65 132.9 141.65 122.3 141.65 112.8 128.05 105 117.1 100.7 103.85
L 97.2 92.9 96.8 90.35 96.8 88.85 88.4 95.1 89.2 99.4 92.9 109.5
Q 99.1 125.65 107.1 135.5 119 149.3 132.05 149.3 137.55 149.3 141.85 147.75 150.6 143.85 153.35 135.5 154.7 131.95 154.8 129.95 154.9 128.05 154.9 126.25
L 154.1 121 152.1 114.15 148.7 105.6
Q 147.25 102.25 146.1 101.7
L 176.3 101.7 176.3 161.95 186.7 161.95 186.7 69.3 202.7 69.3 202.7 61.3 76.9 61.3 76.9 69.3 176.3 69.3 Z"/>
</g>
</defs>

<g transform="matrix( 1, 0, 0, 1, -0.6,-1.45) ">
<g transform="matrix( 1, 0, 0, 1, 0,0) ">
<use xlink:href="#Symbol_4_0_Layer0_0_FILL"/>
</g>
</g>
</svg>
